G75*
%MOIN*%
%OFA0B0*%
%FSLAX25Y25*%
%IPPOS*%
%LPD*%
%AMOC8*
5,1,8,0,0,1.08239X$1,22.5*
%
%ADD10C,0.00000*%
%ADD11R,0.05906X0.05118*%
%ADD12R,0.05118X0.05906*%
%ADD13C,0.06000*%
%ADD14C,0.07050*%
%ADD15OC8,0.06300*%
%ADD16C,0.06300*%
%ADD17R,0.06299X0.09055*%
%ADD18C,0.05937*%
%ADD19C,0.02400*%
%ADD20C,0.03562*%
%ADD21C,0.01000*%
D10*
X0025347Y0025014D02*
X0025741Y0233557D01*
X0210426Y0233557D01*
X0210426Y0025014D01*
X0025347Y0025014D01*
X0032985Y0036195D02*
X0032987Y0036353D01*
X0032993Y0036511D01*
X0033003Y0036669D01*
X0033017Y0036827D01*
X0033035Y0036984D01*
X0033056Y0037141D01*
X0033082Y0037297D01*
X0033112Y0037453D01*
X0033145Y0037608D01*
X0033183Y0037761D01*
X0033224Y0037914D01*
X0033269Y0038066D01*
X0033318Y0038217D01*
X0033371Y0038366D01*
X0033427Y0038514D01*
X0033487Y0038660D01*
X0033551Y0038805D01*
X0033619Y0038948D01*
X0033690Y0039090D01*
X0033764Y0039230D01*
X0033842Y0039367D01*
X0033924Y0039503D01*
X0034008Y0039637D01*
X0034097Y0039768D01*
X0034188Y0039897D01*
X0034283Y0040024D01*
X0034380Y0040149D01*
X0034481Y0040271D01*
X0034585Y0040390D01*
X0034692Y0040507D01*
X0034802Y0040621D01*
X0034915Y0040732D01*
X0035030Y0040841D01*
X0035148Y0040946D01*
X0035269Y0041048D01*
X0035392Y0041148D01*
X0035518Y0041244D01*
X0035646Y0041337D01*
X0035776Y0041427D01*
X0035909Y0041513D01*
X0036044Y0041597D01*
X0036180Y0041676D01*
X0036319Y0041753D01*
X0036460Y0041825D01*
X0036602Y0041895D01*
X0036746Y0041960D01*
X0036892Y0042022D01*
X0037039Y0042080D01*
X0037188Y0042135D01*
X0037338Y0042186D01*
X0037489Y0042233D01*
X0037641Y0042276D01*
X0037794Y0042315D01*
X0037949Y0042351D01*
X0038104Y0042382D01*
X0038260Y0042410D01*
X0038416Y0042434D01*
X0038573Y0042454D01*
X0038731Y0042470D01*
X0038888Y0042482D01*
X0039047Y0042490D01*
X0039205Y0042494D01*
X0039363Y0042494D01*
X0039521Y0042490D01*
X0039680Y0042482D01*
X0039837Y0042470D01*
X0039995Y0042454D01*
X0040152Y0042434D01*
X0040308Y0042410D01*
X0040464Y0042382D01*
X0040619Y0042351D01*
X0040774Y0042315D01*
X0040927Y0042276D01*
X0041079Y0042233D01*
X0041230Y0042186D01*
X0041380Y0042135D01*
X0041529Y0042080D01*
X0041676Y0042022D01*
X0041822Y0041960D01*
X0041966Y0041895D01*
X0042108Y0041825D01*
X0042249Y0041753D01*
X0042388Y0041676D01*
X0042524Y0041597D01*
X0042659Y0041513D01*
X0042792Y0041427D01*
X0042922Y0041337D01*
X0043050Y0041244D01*
X0043176Y0041148D01*
X0043299Y0041048D01*
X0043420Y0040946D01*
X0043538Y0040841D01*
X0043653Y0040732D01*
X0043766Y0040621D01*
X0043876Y0040507D01*
X0043983Y0040390D01*
X0044087Y0040271D01*
X0044188Y0040149D01*
X0044285Y0040024D01*
X0044380Y0039897D01*
X0044471Y0039768D01*
X0044560Y0039637D01*
X0044644Y0039503D01*
X0044726Y0039367D01*
X0044804Y0039230D01*
X0044878Y0039090D01*
X0044949Y0038948D01*
X0045017Y0038805D01*
X0045081Y0038660D01*
X0045141Y0038514D01*
X0045197Y0038366D01*
X0045250Y0038217D01*
X0045299Y0038066D01*
X0045344Y0037914D01*
X0045385Y0037761D01*
X0045423Y0037608D01*
X0045456Y0037453D01*
X0045486Y0037297D01*
X0045512Y0037141D01*
X0045533Y0036984D01*
X0045551Y0036827D01*
X0045565Y0036669D01*
X0045575Y0036511D01*
X0045581Y0036353D01*
X0045583Y0036195D01*
X0045581Y0036037D01*
X0045575Y0035879D01*
X0045565Y0035721D01*
X0045551Y0035563D01*
X0045533Y0035406D01*
X0045512Y0035249D01*
X0045486Y0035093D01*
X0045456Y0034937D01*
X0045423Y0034782D01*
X0045385Y0034629D01*
X0045344Y0034476D01*
X0045299Y0034324D01*
X0045250Y0034173D01*
X0045197Y0034024D01*
X0045141Y0033876D01*
X0045081Y0033730D01*
X0045017Y0033585D01*
X0044949Y0033442D01*
X0044878Y0033300D01*
X0044804Y0033160D01*
X0044726Y0033023D01*
X0044644Y0032887D01*
X0044560Y0032753D01*
X0044471Y0032622D01*
X0044380Y0032493D01*
X0044285Y0032366D01*
X0044188Y0032241D01*
X0044087Y0032119D01*
X0043983Y0032000D01*
X0043876Y0031883D01*
X0043766Y0031769D01*
X0043653Y0031658D01*
X0043538Y0031549D01*
X0043420Y0031444D01*
X0043299Y0031342D01*
X0043176Y0031242D01*
X0043050Y0031146D01*
X0042922Y0031053D01*
X0042792Y0030963D01*
X0042659Y0030877D01*
X0042524Y0030793D01*
X0042388Y0030714D01*
X0042249Y0030637D01*
X0042108Y0030565D01*
X0041966Y0030495D01*
X0041822Y0030430D01*
X0041676Y0030368D01*
X0041529Y0030310D01*
X0041380Y0030255D01*
X0041230Y0030204D01*
X0041079Y0030157D01*
X0040927Y0030114D01*
X0040774Y0030075D01*
X0040619Y0030039D01*
X0040464Y0030008D01*
X0040308Y0029980D01*
X0040152Y0029956D01*
X0039995Y0029936D01*
X0039837Y0029920D01*
X0039680Y0029908D01*
X0039521Y0029900D01*
X0039363Y0029896D01*
X0039205Y0029896D01*
X0039047Y0029900D01*
X0038888Y0029908D01*
X0038731Y0029920D01*
X0038573Y0029936D01*
X0038416Y0029956D01*
X0038260Y0029980D01*
X0038104Y0030008D01*
X0037949Y0030039D01*
X0037794Y0030075D01*
X0037641Y0030114D01*
X0037489Y0030157D01*
X0037338Y0030204D01*
X0037188Y0030255D01*
X0037039Y0030310D01*
X0036892Y0030368D01*
X0036746Y0030430D01*
X0036602Y0030495D01*
X0036460Y0030565D01*
X0036319Y0030637D01*
X0036180Y0030714D01*
X0036044Y0030793D01*
X0035909Y0030877D01*
X0035776Y0030963D01*
X0035646Y0031053D01*
X0035518Y0031146D01*
X0035392Y0031242D01*
X0035269Y0031342D01*
X0035148Y0031444D01*
X0035030Y0031549D01*
X0034915Y0031658D01*
X0034802Y0031769D01*
X0034692Y0031883D01*
X0034585Y0032000D01*
X0034481Y0032119D01*
X0034380Y0032241D01*
X0034283Y0032366D01*
X0034188Y0032493D01*
X0034097Y0032622D01*
X0034008Y0032753D01*
X0033924Y0032887D01*
X0033842Y0033023D01*
X0033764Y0033160D01*
X0033690Y0033300D01*
X0033619Y0033442D01*
X0033551Y0033585D01*
X0033487Y0033730D01*
X0033427Y0033876D01*
X0033371Y0034024D01*
X0033318Y0034173D01*
X0033269Y0034324D01*
X0033224Y0034476D01*
X0033183Y0034629D01*
X0033145Y0034782D01*
X0033112Y0034937D01*
X0033082Y0035093D01*
X0033056Y0035249D01*
X0033035Y0035406D01*
X0033017Y0035563D01*
X0033003Y0035721D01*
X0032993Y0035879D01*
X0032987Y0036037D01*
X0032985Y0036195D01*
X0190269Y0036195D02*
X0190271Y0036353D01*
X0190277Y0036511D01*
X0190287Y0036669D01*
X0190301Y0036827D01*
X0190319Y0036984D01*
X0190340Y0037141D01*
X0190366Y0037297D01*
X0190396Y0037453D01*
X0190429Y0037608D01*
X0190467Y0037761D01*
X0190508Y0037914D01*
X0190553Y0038066D01*
X0190602Y0038217D01*
X0190655Y0038366D01*
X0190711Y0038514D01*
X0190771Y0038660D01*
X0190835Y0038805D01*
X0190903Y0038948D01*
X0190974Y0039090D01*
X0191048Y0039230D01*
X0191126Y0039367D01*
X0191208Y0039503D01*
X0191292Y0039637D01*
X0191381Y0039768D01*
X0191472Y0039897D01*
X0191567Y0040024D01*
X0191664Y0040149D01*
X0191765Y0040271D01*
X0191869Y0040390D01*
X0191976Y0040507D01*
X0192086Y0040621D01*
X0192199Y0040732D01*
X0192314Y0040841D01*
X0192432Y0040946D01*
X0192553Y0041048D01*
X0192676Y0041148D01*
X0192802Y0041244D01*
X0192930Y0041337D01*
X0193060Y0041427D01*
X0193193Y0041513D01*
X0193328Y0041597D01*
X0193464Y0041676D01*
X0193603Y0041753D01*
X0193744Y0041825D01*
X0193886Y0041895D01*
X0194030Y0041960D01*
X0194176Y0042022D01*
X0194323Y0042080D01*
X0194472Y0042135D01*
X0194622Y0042186D01*
X0194773Y0042233D01*
X0194925Y0042276D01*
X0195078Y0042315D01*
X0195233Y0042351D01*
X0195388Y0042382D01*
X0195544Y0042410D01*
X0195700Y0042434D01*
X0195857Y0042454D01*
X0196015Y0042470D01*
X0196172Y0042482D01*
X0196331Y0042490D01*
X0196489Y0042494D01*
X0196647Y0042494D01*
X0196805Y0042490D01*
X0196964Y0042482D01*
X0197121Y0042470D01*
X0197279Y0042454D01*
X0197436Y0042434D01*
X0197592Y0042410D01*
X0197748Y0042382D01*
X0197903Y0042351D01*
X0198058Y0042315D01*
X0198211Y0042276D01*
X0198363Y0042233D01*
X0198514Y0042186D01*
X0198664Y0042135D01*
X0198813Y0042080D01*
X0198960Y0042022D01*
X0199106Y0041960D01*
X0199250Y0041895D01*
X0199392Y0041825D01*
X0199533Y0041753D01*
X0199672Y0041676D01*
X0199808Y0041597D01*
X0199943Y0041513D01*
X0200076Y0041427D01*
X0200206Y0041337D01*
X0200334Y0041244D01*
X0200460Y0041148D01*
X0200583Y0041048D01*
X0200704Y0040946D01*
X0200822Y0040841D01*
X0200937Y0040732D01*
X0201050Y0040621D01*
X0201160Y0040507D01*
X0201267Y0040390D01*
X0201371Y0040271D01*
X0201472Y0040149D01*
X0201569Y0040024D01*
X0201664Y0039897D01*
X0201755Y0039768D01*
X0201844Y0039637D01*
X0201928Y0039503D01*
X0202010Y0039367D01*
X0202088Y0039230D01*
X0202162Y0039090D01*
X0202233Y0038948D01*
X0202301Y0038805D01*
X0202365Y0038660D01*
X0202425Y0038514D01*
X0202481Y0038366D01*
X0202534Y0038217D01*
X0202583Y0038066D01*
X0202628Y0037914D01*
X0202669Y0037761D01*
X0202707Y0037608D01*
X0202740Y0037453D01*
X0202770Y0037297D01*
X0202796Y0037141D01*
X0202817Y0036984D01*
X0202835Y0036827D01*
X0202849Y0036669D01*
X0202859Y0036511D01*
X0202865Y0036353D01*
X0202867Y0036195D01*
X0202865Y0036037D01*
X0202859Y0035879D01*
X0202849Y0035721D01*
X0202835Y0035563D01*
X0202817Y0035406D01*
X0202796Y0035249D01*
X0202770Y0035093D01*
X0202740Y0034937D01*
X0202707Y0034782D01*
X0202669Y0034629D01*
X0202628Y0034476D01*
X0202583Y0034324D01*
X0202534Y0034173D01*
X0202481Y0034024D01*
X0202425Y0033876D01*
X0202365Y0033730D01*
X0202301Y0033585D01*
X0202233Y0033442D01*
X0202162Y0033300D01*
X0202088Y0033160D01*
X0202010Y0033023D01*
X0201928Y0032887D01*
X0201844Y0032753D01*
X0201755Y0032622D01*
X0201664Y0032493D01*
X0201569Y0032366D01*
X0201472Y0032241D01*
X0201371Y0032119D01*
X0201267Y0032000D01*
X0201160Y0031883D01*
X0201050Y0031769D01*
X0200937Y0031658D01*
X0200822Y0031549D01*
X0200704Y0031444D01*
X0200583Y0031342D01*
X0200460Y0031242D01*
X0200334Y0031146D01*
X0200206Y0031053D01*
X0200076Y0030963D01*
X0199943Y0030877D01*
X0199808Y0030793D01*
X0199672Y0030714D01*
X0199533Y0030637D01*
X0199392Y0030565D01*
X0199250Y0030495D01*
X0199106Y0030430D01*
X0198960Y0030368D01*
X0198813Y0030310D01*
X0198664Y0030255D01*
X0198514Y0030204D01*
X0198363Y0030157D01*
X0198211Y0030114D01*
X0198058Y0030075D01*
X0197903Y0030039D01*
X0197748Y0030008D01*
X0197592Y0029980D01*
X0197436Y0029956D01*
X0197279Y0029936D01*
X0197121Y0029920D01*
X0196964Y0029908D01*
X0196805Y0029900D01*
X0196647Y0029896D01*
X0196489Y0029896D01*
X0196331Y0029900D01*
X0196172Y0029908D01*
X0196015Y0029920D01*
X0195857Y0029936D01*
X0195700Y0029956D01*
X0195544Y0029980D01*
X0195388Y0030008D01*
X0195233Y0030039D01*
X0195078Y0030075D01*
X0194925Y0030114D01*
X0194773Y0030157D01*
X0194622Y0030204D01*
X0194472Y0030255D01*
X0194323Y0030310D01*
X0194176Y0030368D01*
X0194030Y0030430D01*
X0193886Y0030495D01*
X0193744Y0030565D01*
X0193603Y0030637D01*
X0193464Y0030714D01*
X0193328Y0030793D01*
X0193193Y0030877D01*
X0193060Y0030963D01*
X0192930Y0031053D01*
X0192802Y0031146D01*
X0192676Y0031242D01*
X0192553Y0031342D01*
X0192432Y0031444D01*
X0192314Y0031549D01*
X0192199Y0031658D01*
X0192086Y0031769D01*
X0191976Y0031883D01*
X0191869Y0032000D01*
X0191765Y0032119D01*
X0191664Y0032241D01*
X0191567Y0032366D01*
X0191472Y0032493D01*
X0191381Y0032622D01*
X0191292Y0032753D01*
X0191208Y0032887D01*
X0191126Y0033023D01*
X0191048Y0033160D01*
X0190974Y0033300D01*
X0190903Y0033442D01*
X0190835Y0033585D01*
X0190771Y0033730D01*
X0190711Y0033876D01*
X0190655Y0034024D01*
X0190602Y0034173D01*
X0190553Y0034324D01*
X0190508Y0034476D01*
X0190467Y0034629D01*
X0190429Y0034782D01*
X0190396Y0034937D01*
X0190366Y0035093D01*
X0190340Y0035249D01*
X0190319Y0035406D01*
X0190301Y0035563D01*
X0190287Y0035721D01*
X0190277Y0035879D01*
X0190271Y0036037D01*
X0190269Y0036195D01*
X0190269Y0223282D02*
X0190271Y0223440D01*
X0190277Y0223598D01*
X0190287Y0223756D01*
X0190301Y0223914D01*
X0190319Y0224071D01*
X0190340Y0224228D01*
X0190366Y0224384D01*
X0190396Y0224540D01*
X0190429Y0224695D01*
X0190467Y0224848D01*
X0190508Y0225001D01*
X0190553Y0225153D01*
X0190602Y0225304D01*
X0190655Y0225453D01*
X0190711Y0225601D01*
X0190771Y0225747D01*
X0190835Y0225892D01*
X0190903Y0226035D01*
X0190974Y0226177D01*
X0191048Y0226317D01*
X0191126Y0226454D01*
X0191208Y0226590D01*
X0191292Y0226724D01*
X0191381Y0226855D01*
X0191472Y0226984D01*
X0191567Y0227111D01*
X0191664Y0227236D01*
X0191765Y0227358D01*
X0191869Y0227477D01*
X0191976Y0227594D01*
X0192086Y0227708D01*
X0192199Y0227819D01*
X0192314Y0227928D01*
X0192432Y0228033D01*
X0192553Y0228135D01*
X0192676Y0228235D01*
X0192802Y0228331D01*
X0192930Y0228424D01*
X0193060Y0228514D01*
X0193193Y0228600D01*
X0193328Y0228684D01*
X0193464Y0228763D01*
X0193603Y0228840D01*
X0193744Y0228912D01*
X0193886Y0228982D01*
X0194030Y0229047D01*
X0194176Y0229109D01*
X0194323Y0229167D01*
X0194472Y0229222D01*
X0194622Y0229273D01*
X0194773Y0229320D01*
X0194925Y0229363D01*
X0195078Y0229402D01*
X0195233Y0229438D01*
X0195388Y0229469D01*
X0195544Y0229497D01*
X0195700Y0229521D01*
X0195857Y0229541D01*
X0196015Y0229557D01*
X0196172Y0229569D01*
X0196331Y0229577D01*
X0196489Y0229581D01*
X0196647Y0229581D01*
X0196805Y0229577D01*
X0196964Y0229569D01*
X0197121Y0229557D01*
X0197279Y0229541D01*
X0197436Y0229521D01*
X0197592Y0229497D01*
X0197748Y0229469D01*
X0197903Y0229438D01*
X0198058Y0229402D01*
X0198211Y0229363D01*
X0198363Y0229320D01*
X0198514Y0229273D01*
X0198664Y0229222D01*
X0198813Y0229167D01*
X0198960Y0229109D01*
X0199106Y0229047D01*
X0199250Y0228982D01*
X0199392Y0228912D01*
X0199533Y0228840D01*
X0199672Y0228763D01*
X0199808Y0228684D01*
X0199943Y0228600D01*
X0200076Y0228514D01*
X0200206Y0228424D01*
X0200334Y0228331D01*
X0200460Y0228235D01*
X0200583Y0228135D01*
X0200704Y0228033D01*
X0200822Y0227928D01*
X0200937Y0227819D01*
X0201050Y0227708D01*
X0201160Y0227594D01*
X0201267Y0227477D01*
X0201371Y0227358D01*
X0201472Y0227236D01*
X0201569Y0227111D01*
X0201664Y0226984D01*
X0201755Y0226855D01*
X0201844Y0226724D01*
X0201928Y0226590D01*
X0202010Y0226454D01*
X0202088Y0226317D01*
X0202162Y0226177D01*
X0202233Y0226035D01*
X0202301Y0225892D01*
X0202365Y0225747D01*
X0202425Y0225601D01*
X0202481Y0225453D01*
X0202534Y0225304D01*
X0202583Y0225153D01*
X0202628Y0225001D01*
X0202669Y0224848D01*
X0202707Y0224695D01*
X0202740Y0224540D01*
X0202770Y0224384D01*
X0202796Y0224228D01*
X0202817Y0224071D01*
X0202835Y0223914D01*
X0202849Y0223756D01*
X0202859Y0223598D01*
X0202865Y0223440D01*
X0202867Y0223282D01*
X0202865Y0223124D01*
X0202859Y0222966D01*
X0202849Y0222808D01*
X0202835Y0222650D01*
X0202817Y0222493D01*
X0202796Y0222336D01*
X0202770Y0222180D01*
X0202740Y0222024D01*
X0202707Y0221869D01*
X0202669Y0221716D01*
X0202628Y0221563D01*
X0202583Y0221411D01*
X0202534Y0221260D01*
X0202481Y0221111D01*
X0202425Y0220963D01*
X0202365Y0220817D01*
X0202301Y0220672D01*
X0202233Y0220529D01*
X0202162Y0220387D01*
X0202088Y0220247D01*
X0202010Y0220110D01*
X0201928Y0219974D01*
X0201844Y0219840D01*
X0201755Y0219709D01*
X0201664Y0219580D01*
X0201569Y0219453D01*
X0201472Y0219328D01*
X0201371Y0219206D01*
X0201267Y0219087D01*
X0201160Y0218970D01*
X0201050Y0218856D01*
X0200937Y0218745D01*
X0200822Y0218636D01*
X0200704Y0218531D01*
X0200583Y0218429D01*
X0200460Y0218329D01*
X0200334Y0218233D01*
X0200206Y0218140D01*
X0200076Y0218050D01*
X0199943Y0217964D01*
X0199808Y0217880D01*
X0199672Y0217801D01*
X0199533Y0217724D01*
X0199392Y0217652D01*
X0199250Y0217582D01*
X0199106Y0217517D01*
X0198960Y0217455D01*
X0198813Y0217397D01*
X0198664Y0217342D01*
X0198514Y0217291D01*
X0198363Y0217244D01*
X0198211Y0217201D01*
X0198058Y0217162D01*
X0197903Y0217126D01*
X0197748Y0217095D01*
X0197592Y0217067D01*
X0197436Y0217043D01*
X0197279Y0217023D01*
X0197121Y0217007D01*
X0196964Y0216995D01*
X0196805Y0216987D01*
X0196647Y0216983D01*
X0196489Y0216983D01*
X0196331Y0216987D01*
X0196172Y0216995D01*
X0196015Y0217007D01*
X0195857Y0217023D01*
X0195700Y0217043D01*
X0195544Y0217067D01*
X0195388Y0217095D01*
X0195233Y0217126D01*
X0195078Y0217162D01*
X0194925Y0217201D01*
X0194773Y0217244D01*
X0194622Y0217291D01*
X0194472Y0217342D01*
X0194323Y0217397D01*
X0194176Y0217455D01*
X0194030Y0217517D01*
X0193886Y0217582D01*
X0193744Y0217652D01*
X0193603Y0217724D01*
X0193464Y0217801D01*
X0193328Y0217880D01*
X0193193Y0217964D01*
X0193060Y0218050D01*
X0192930Y0218140D01*
X0192802Y0218233D01*
X0192676Y0218329D01*
X0192553Y0218429D01*
X0192432Y0218531D01*
X0192314Y0218636D01*
X0192199Y0218745D01*
X0192086Y0218856D01*
X0191976Y0218970D01*
X0191869Y0219087D01*
X0191765Y0219206D01*
X0191664Y0219328D01*
X0191567Y0219453D01*
X0191472Y0219580D01*
X0191381Y0219709D01*
X0191292Y0219840D01*
X0191208Y0219974D01*
X0191126Y0220110D01*
X0191048Y0220247D01*
X0190974Y0220387D01*
X0190903Y0220529D01*
X0190835Y0220672D01*
X0190771Y0220817D01*
X0190711Y0220963D01*
X0190655Y0221111D01*
X0190602Y0221260D01*
X0190553Y0221411D01*
X0190508Y0221563D01*
X0190467Y0221716D01*
X0190429Y0221869D01*
X0190396Y0222024D01*
X0190366Y0222180D01*
X0190340Y0222336D01*
X0190319Y0222493D01*
X0190301Y0222650D01*
X0190287Y0222808D01*
X0190277Y0222966D01*
X0190271Y0223124D01*
X0190269Y0223282D01*
X0032592Y0223676D02*
X0032594Y0223834D01*
X0032600Y0223992D01*
X0032610Y0224150D01*
X0032624Y0224308D01*
X0032642Y0224465D01*
X0032663Y0224622D01*
X0032689Y0224778D01*
X0032719Y0224934D01*
X0032752Y0225089D01*
X0032790Y0225242D01*
X0032831Y0225395D01*
X0032876Y0225547D01*
X0032925Y0225698D01*
X0032978Y0225847D01*
X0033034Y0225995D01*
X0033094Y0226141D01*
X0033158Y0226286D01*
X0033226Y0226429D01*
X0033297Y0226571D01*
X0033371Y0226711D01*
X0033449Y0226848D01*
X0033531Y0226984D01*
X0033615Y0227118D01*
X0033704Y0227249D01*
X0033795Y0227378D01*
X0033890Y0227505D01*
X0033987Y0227630D01*
X0034088Y0227752D01*
X0034192Y0227871D01*
X0034299Y0227988D01*
X0034409Y0228102D01*
X0034522Y0228213D01*
X0034637Y0228322D01*
X0034755Y0228427D01*
X0034876Y0228529D01*
X0034999Y0228629D01*
X0035125Y0228725D01*
X0035253Y0228818D01*
X0035383Y0228908D01*
X0035516Y0228994D01*
X0035651Y0229078D01*
X0035787Y0229157D01*
X0035926Y0229234D01*
X0036067Y0229306D01*
X0036209Y0229376D01*
X0036353Y0229441D01*
X0036499Y0229503D01*
X0036646Y0229561D01*
X0036795Y0229616D01*
X0036945Y0229667D01*
X0037096Y0229714D01*
X0037248Y0229757D01*
X0037401Y0229796D01*
X0037556Y0229832D01*
X0037711Y0229863D01*
X0037867Y0229891D01*
X0038023Y0229915D01*
X0038180Y0229935D01*
X0038338Y0229951D01*
X0038495Y0229963D01*
X0038654Y0229971D01*
X0038812Y0229975D01*
X0038970Y0229975D01*
X0039128Y0229971D01*
X0039287Y0229963D01*
X0039444Y0229951D01*
X0039602Y0229935D01*
X0039759Y0229915D01*
X0039915Y0229891D01*
X0040071Y0229863D01*
X0040226Y0229832D01*
X0040381Y0229796D01*
X0040534Y0229757D01*
X0040686Y0229714D01*
X0040837Y0229667D01*
X0040987Y0229616D01*
X0041136Y0229561D01*
X0041283Y0229503D01*
X0041429Y0229441D01*
X0041573Y0229376D01*
X0041715Y0229306D01*
X0041856Y0229234D01*
X0041995Y0229157D01*
X0042131Y0229078D01*
X0042266Y0228994D01*
X0042399Y0228908D01*
X0042529Y0228818D01*
X0042657Y0228725D01*
X0042783Y0228629D01*
X0042906Y0228529D01*
X0043027Y0228427D01*
X0043145Y0228322D01*
X0043260Y0228213D01*
X0043373Y0228102D01*
X0043483Y0227988D01*
X0043590Y0227871D01*
X0043694Y0227752D01*
X0043795Y0227630D01*
X0043892Y0227505D01*
X0043987Y0227378D01*
X0044078Y0227249D01*
X0044167Y0227118D01*
X0044251Y0226984D01*
X0044333Y0226848D01*
X0044411Y0226711D01*
X0044485Y0226571D01*
X0044556Y0226429D01*
X0044624Y0226286D01*
X0044688Y0226141D01*
X0044748Y0225995D01*
X0044804Y0225847D01*
X0044857Y0225698D01*
X0044906Y0225547D01*
X0044951Y0225395D01*
X0044992Y0225242D01*
X0045030Y0225089D01*
X0045063Y0224934D01*
X0045093Y0224778D01*
X0045119Y0224622D01*
X0045140Y0224465D01*
X0045158Y0224308D01*
X0045172Y0224150D01*
X0045182Y0223992D01*
X0045188Y0223834D01*
X0045190Y0223676D01*
X0045188Y0223518D01*
X0045182Y0223360D01*
X0045172Y0223202D01*
X0045158Y0223044D01*
X0045140Y0222887D01*
X0045119Y0222730D01*
X0045093Y0222574D01*
X0045063Y0222418D01*
X0045030Y0222263D01*
X0044992Y0222110D01*
X0044951Y0221957D01*
X0044906Y0221805D01*
X0044857Y0221654D01*
X0044804Y0221505D01*
X0044748Y0221357D01*
X0044688Y0221211D01*
X0044624Y0221066D01*
X0044556Y0220923D01*
X0044485Y0220781D01*
X0044411Y0220641D01*
X0044333Y0220504D01*
X0044251Y0220368D01*
X0044167Y0220234D01*
X0044078Y0220103D01*
X0043987Y0219974D01*
X0043892Y0219847D01*
X0043795Y0219722D01*
X0043694Y0219600D01*
X0043590Y0219481D01*
X0043483Y0219364D01*
X0043373Y0219250D01*
X0043260Y0219139D01*
X0043145Y0219030D01*
X0043027Y0218925D01*
X0042906Y0218823D01*
X0042783Y0218723D01*
X0042657Y0218627D01*
X0042529Y0218534D01*
X0042399Y0218444D01*
X0042266Y0218358D01*
X0042131Y0218274D01*
X0041995Y0218195D01*
X0041856Y0218118D01*
X0041715Y0218046D01*
X0041573Y0217976D01*
X0041429Y0217911D01*
X0041283Y0217849D01*
X0041136Y0217791D01*
X0040987Y0217736D01*
X0040837Y0217685D01*
X0040686Y0217638D01*
X0040534Y0217595D01*
X0040381Y0217556D01*
X0040226Y0217520D01*
X0040071Y0217489D01*
X0039915Y0217461D01*
X0039759Y0217437D01*
X0039602Y0217417D01*
X0039444Y0217401D01*
X0039287Y0217389D01*
X0039128Y0217381D01*
X0038970Y0217377D01*
X0038812Y0217377D01*
X0038654Y0217381D01*
X0038495Y0217389D01*
X0038338Y0217401D01*
X0038180Y0217417D01*
X0038023Y0217437D01*
X0037867Y0217461D01*
X0037711Y0217489D01*
X0037556Y0217520D01*
X0037401Y0217556D01*
X0037248Y0217595D01*
X0037096Y0217638D01*
X0036945Y0217685D01*
X0036795Y0217736D01*
X0036646Y0217791D01*
X0036499Y0217849D01*
X0036353Y0217911D01*
X0036209Y0217976D01*
X0036067Y0218046D01*
X0035926Y0218118D01*
X0035787Y0218195D01*
X0035651Y0218274D01*
X0035516Y0218358D01*
X0035383Y0218444D01*
X0035253Y0218534D01*
X0035125Y0218627D01*
X0034999Y0218723D01*
X0034876Y0218823D01*
X0034755Y0218925D01*
X0034637Y0219030D01*
X0034522Y0219139D01*
X0034409Y0219250D01*
X0034299Y0219364D01*
X0034192Y0219481D01*
X0034088Y0219600D01*
X0033987Y0219722D01*
X0033890Y0219847D01*
X0033795Y0219974D01*
X0033704Y0220103D01*
X0033615Y0220234D01*
X0033531Y0220368D01*
X0033449Y0220504D01*
X0033371Y0220641D01*
X0033297Y0220781D01*
X0033226Y0220923D01*
X0033158Y0221066D01*
X0033094Y0221211D01*
X0033034Y0221357D01*
X0032978Y0221505D01*
X0032925Y0221654D01*
X0032876Y0221805D01*
X0032831Y0221957D01*
X0032790Y0222110D01*
X0032752Y0222263D01*
X0032719Y0222418D01*
X0032689Y0222574D01*
X0032663Y0222730D01*
X0032642Y0222887D01*
X0032624Y0223044D01*
X0032610Y0223202D01*
X0032600Y0223360D01*
X0032594Y0223518D01*
X0032592Y0223676D01*
D11*
X0060977Y0149424D03*
X0060977Y0141943D03*
X0075584Y0141943D03*
X0075584Y0149424D03*
X0089403Y0149424D03*
X0089403Y0141943D03*
X0101647Y0141943D03*
X0101647Y0149424D03*
X0139403Y0100526D03*
X0139403Y0093046D03*
D12*
X0128103Y0119620D03*
X0120623Y0119620D03*
X0117788Y0145762D03*
X0125269Y0145762D03*
X0125111Y0168951D03*
X0117631Y0168951D03*
X0118221Y0193754D03*
X0125702Y0193754D03*
X0092355Y0170542D03*
X0084875Y0170542D03*
D13*
X0036694Y0132731D02*
X0030694Y0132731D01*
X0030694Y0122731D02*
X0036694Y0122731D01*
X0036694Y0112731D02*
X0030694Y0112731D01*
X0139324Y0116306D02*
X0139324Y0122306D01*
X0149324Y0122306D02*
X0149324Y0116306D01*
X0159324Y0116306D02*
X0159324Y0122306D01*
X0158536Y0142762D02*
X0158536Y0148762D01*
X0148536Y0148762D02*
X0148536Y0142762D01*
X0138536Y0142762D02*
X0138536Y0148762D01*
X0138536Y0166857D02*
X0138536Y0172857D01*
X0148536Y0172857D02*
X0148536Y0166857D01*
X0158536Y0166857D02*
X0158536Y0172857D01*
X0158536Y0190951D02*
X0158536Y0196951D01*
X0148536Y0196951D02*
X0148536Y0190951D01*
X0138536Y0190951D02*
X0138536Y0196951D01*
X0135347Y0222250D02*
X0135347Y0228250D01*
X0125347Y0228250D02*
X0125347Y0222250D01*
X0145347Y0222250D02*
X0145347Y0228250D01*
X0155347Y0228250D02*
X0155347Y0222250D01*
X0158151Y0097967D02*
X0152151Y0097967D01*
X0152151Y0087967D02*
X0158151Y0087967D01*
X0158151Y0077967D02*
X0152151Y0077967D01*
D14*
X0156332Y0046039D02*
X0156332Y0038989D01*
X0136332Y0038989D02*
X0136332Y0046039D01*
X0190267Y0060802D02*
X0197317Y0060802D01*
X0197317Y0080802D02*
X0190267Y0080802D01*
X0190267Y0100802D02*
X0197317Y0100802D01*
X0197317Y0120802D02*
X0190267Y0120802D01*
X0189874Y0158676D02*
X0196924Y0158676D01*
X0196924Y0178676D02*
X0189874Y0178676D01*
X0189874Y0198676D02*
X0196924Y0198676D01*
D15*
X0130544Y0082613D03*
X0081922Y0125802D03*
D16*
X0071922Y0125802D03*
X0130544Y0072613D03*
D17*
X0035347Y0146392D03*
X0035347Y0171195D03*
X0035347Y0184424D03*
X0035347Y0209227D03*
D18*
X0057373Y0109250D02*
X0057373Y0103313D01*
X0067540Y0103325D02*
X0067540Y0109262D01*
X0099651Y0109302D02*
X0099651Y0103365D01*
X0109295Y0103394D02*
X0109295Y0109331D01*
X0109412Y0036091D02*
X0109412Y0030154D01*
X0099651Y0030136D02*
X0099651Y0036073D01*
X0067618Y0036073D02*
X0067618Y0030136D01*
X0057371Y0030154D02*
X0057371Y0036091D01*
D19*
X0139403Y0088518D02*
X0148969Y0078951D01*
X0149560Y0078951D01*
X0150544Y0077967D01*
X0155151Y0077967D01*
X0139403Y0088518D02*
X0139403Y0093046D01*
X0139324Y0119306D02*
X0139009Y0119620D01*
X0128103Y0119620D01*
X0114324Y0133282D02*
X0096765Y0133282D01*
X0101647Y0141943D02*
X0089403Y0141943D01*
X0075584Y0141943D01*
X0060977Y0141943D01*
X0071922Y0141943D01*
X0071922Y0125802D01*
X0075584Y0149424D02*
X0075584Y0153518D01*
X0069048Y0160054D01*
X0069048Y0176589D01*
X0060780Y0184857D01*
X0060780Y0176983D02*
X0059796Y0175998D01*
X0042080Y0175998D01*
X0037277Y0171195D01*
X0035347Y0171195D01*
X0060780Y0176983D02*
X0060977Y0176786D01*
X0060977Y0149424D01*
X0072985Y0163597D02*
X0072985Y0188400D01*
X0060780Y0200605D01*
X0050347Y0200605D01*
X0041725Y0209227D01*
X0035347Y0209227D01*
X0072985Y0163597D02*
X0087158Y0149424D01*
X0089403Y0149424D01*
X0101647Y0149424D02*
X0101725Y0149502D01*
X0101725Y0158479D01*
X0104481Y0161235D01*
X0092670Y0162022D02*
X0092670Y0167707D01*
X0092355Y0170542D01*
X0125111Y0168951D02*
X0137631Y0168951D01*
X0138536Y0169857D01*
X0138340Y0193754D02*
X0125702Y0193754D01*
X0138340Y0193754D02*
X0138536Y0193951D01*
X0140347Y0214857D02*
X0117434Y0214857D01*
X0140347Y0214857D02*
X0145347Y0221825D01*
X0145347Y0225250D01*
X0138536Y0145762D02*
X0125269Y0145762D01*
D20*
X0114324Y0133282D03*
X0104481Y0161235D03*
X0092670Y0162022D03*
X0060780Y0176983D03*
X0060780Y0184857D03*
X0060780Y0200605D03*
X0117434Y0214857D03*
D21*
X0115872Y0211736D02*
X0112591Y0211736D01*
X0112591Y0212734D02*
X0114633Y0212734D01*
X0114483Y0212885D02*
X0115462Y0211906D01*
X0116742Y0211376D01*
X0118126Y0211376D01*
X0119406Y0211906D01*
X0119457Y0211957D01*
X0140013Y0211957D01*
X0140249Y0211902D01*
X0140584Y0211957D01*
X0140924Y0211957D01*
X0141148Y0212049D01*
X0141387Y0212089D01*
X0141676Y0212268D01*
X0141990Y0212398D01*
X0142161Y0212570D01*
X0142367Y0212697D01*
X0142566Y0212974D01*
X0142806Y0213214D01*
X0142899Y0213438D01*
X0145849Y0217550D01*
X0146282Y0217550D01*
X0148010Y0218266D01*
X0149332Y0219588D01*
X0150047Y0221315D01*
X0150047Y0229185D01*
X0149332Y0230913D01*
X0148387Y0231857D01*
X0152656Y0231857D01*
X0152416Y0231683D01*
X0151915Y0231182D01*
X0151499Y0230609D01*
X0151177Y0229978D01*
X0150958Y0229304D01*
X0150847Y0228605D01*
X0150847Y0225750D01*
X0154847Y0225750D01*
X0154847Y0224750D01*
X0155847Y0224750D01*
X0155847Y0217773D01*
X0156401Y0217861D01*
X0157075Y0218080D01*
X0157706Y0218402D01*
X0158279Y0218818D01*
X0158780Y0219319D01*
X0159196Y0219892D01*
X0159518Y0220523D01*
X0159737Y0221197D01*
X0159847Y0221896D01*
X0159847Y0224750D01*
X0155847Y0224750D01*
X0155847Y0225750D01*
X0159847Y0225750D01*
X0159847Y0228605D01*
X0159737Y0229304D01*
X0159518Y0229978D01*
X0159196Y0230609D01*
X0158780Y0231182D01*
X0158279Y0231683D01*
X0158038Y0231857D01*
X0208726Y0231857D01*
X0208726Y0026714D01*
X0112574Y0026714D01*
X0113370Y0027510D01*
X0114080Y0029226D01*
X0114080Y0037020D01*
X0113370Y0038736D01*
X0112056Y0040049D01*
X0110341Y0040760D01*
X0108483Y0040760D01*
X0106767Y0040049D01*
X0105454Y0038736D01*
X0104743Y0037020D01*
X0104743Y0029226D01*
X0105454Y0027510D01*
X0106250Y0026714D01*
X0102832Y0026714D01*
X0103609Y0027492D01*
X0104320Y0029208D01*
X0104320Y0037002D01*
X0103609Y0038718D01*
X0102296Y0040031D01*
X0100580Y0040742D01*
X0098723Y0040742D01*
X0097007Y0040031D01*
X0095694Y0038718D01*
X0094983Y0037002D01*
X0094983Y0029208D01*
X0095694Y0027492D01*
X0096471Y0026714D01*
X0070510Y0026714D01*
X0070529Y0026728D01*
X0071027Y0027225D01*
X0071440Y0027794D01*
X0071759Y0028421D01*
X0071977Y0029090D01*
X0072087Y0029785D01*
X0072087Y0032620D01*
X0068103Y0032620D01*
X0068103Y0033589D01*
X0072087Y0033589D01*
X0072087Y0036425D01*
X0071977Y0037120D01*
X0071759Y0037789D01*
X0071440Y0038415D01*
X0071027Y0038984D01*
X0070529Y0039482D01*
X0069960Y0039895D01*
X0069334Y0040214D01*
X0068665Y0040432D01*
X0068103Y0040521D01*
X0068103Y0033589D01*
X0067134Y0033589D01*
X0067134Y0040521D01*
X0066572Y0040432D01*
X0065903Y0040214D01*
X0065276Y0039895D01*
X0064707Y0039482D01*
X0064210Y0038984D01*
X0063796Y0038415D01*
X0063477Y0037789D01*
X0063260Y0037120D01*
X0063150Y0036425D01*
X0063150Y0033589D01*
X0067134Y0033589D01*
X0067134Y0032620D01*
X0063150Y0032620D01*
X0063150Y0029785D01*
X0063260Y0029090D01*
X0063477Y0028421D01*
X0063796Y0027794D01*
X0064210Y0027225D01*
X0064707Y0026728D01*
X0064726Y0026714D01*
X0060239Y0026714D01*
X0060282Y0026745D01*
X0060779Y0027243D01*
X0061193Y0027812D01*
X0061512Y0028439D01*
X0061729Y0029107D01*
X0061839Y0029802D01*
X0061839Y0032638D01*
X0057855Y0032638D01*
X0057855Y0033607D01*
X0056886Y0033607D01*
X0056886Y0032638D01*
X0052902Y0032638D01*
X0052902Y0029802D01*
X0053012Y0029107D01*
X0053230Y0028439D01*
X0053549Y0027812D01*
X0053962Y0027243D01*
X0054460Y0026745D01*
X0054503Y0026714D01*
X0027051Y0026714D01*
X0027207Y0109571D01*
X0028032Y0108746D01*
X0029759Y0108031D01*
X0037629Y0108031D01*
X0039356Y0108746D01*
X0040678Y0110068D01*
X0041394Y0111796D01*
X0041394Y0113666D01*
X0040678Y0115393D01*
X0039356Y0116715D01*
X0037629Y0117431D01*
X0029759Y0117431D01*
X0028032Y0116715D01*
X0027219Y0115903D01*
X0027226Y0119552D01*
X0028032Y0118746D01*
X0029759Y0118031D01*
X0037629Y0118031D01*
X0039356Y0118746D01*
X0040678Y0120068D01*
X0041394Y0121796D01*
X0041394Y0123666D01*
X0040678Y0125393D01*
X0039356Y0126715D01*
X0037629Y0127431D01*
X0029759Y0127431D01*
X0028032Y0126715D01*
X0027238Y0125922D01*
X0027245Y0129821D01*
X0027261Y0129799D01*
X0027762Y0129298D01*
X0028335Y0128882D01*
X0028966Y0128560D01*
X0029640Y0128342D01*
X0030340Y0128231D01*
X0033194Y0128231D01*
X0033194Y0132231D01*
X0034194Y0132231D01*
X0034194Y0133231D01*
X0033194Y0133231D01*
X0033194Y0137231D01*
X0030340Y0137231D01*
X0029640Y0137120D01*
X0028966Y0136901D01*
X0028335Y0136579D01*
X0027762Y0136163D01*
X0027261Y0135662D01*
X0027256Y0135655D01*
X0027438Y0231857D01*
X0050347Y0231857D01*
X0050347Y0204706D01*
X0043368Y0211685D01*
X0042302Y0212127D01*
X0040197Y0212127D01*
X0040197Y0214458D01*
X0039201Y0215454D01*
X0031494Y0215454D01*
X0030498Y0214458D01*
X0030498Y0203995D01*
X0031494Y0202999D01*
X0039201Y0202999D01*
X0040197Y0203995D01*
X0040197Y0206327D01*
X0040524Y0206327D01*
X0047889Y0198962D01*
X0048705Y0198146D01*
X0049771Y0197705D01*
X0050347Y0197705D01*
X0050347Y0178898D01*
X0041503Y0178898D01*
X0040437Y0178457D01*
X0039621Y0177641D01*
X0039302Y0177322D01*
X0039201Y0177423D01*
X0031494Y0177423D01*
X0030498Y0176427D01*
X0030498Y0165964D01*
X0031494Y0164968D01*
X0039201Y0164968D01*
X0040197Y0165964D01*
X0040197Y0170015D01*
X0043281Y0173098D01*
X0058077Y0173098D01*
X0058077Y0153683D01*
X0057320Y0153683D01*
X0056325Y0152687D01*
X0056325Y0146160D01*
X0056802Y0145683D01*
X0056325Y0145207D01*
X0056325Y0138680D01*
X0057320Y0137684D01*
X0064634Y0137684D01*
X0065630Y0138680D01*
X0065630Y0139043D01*
X0069022Y0139043D01*
X0069022Y0129761D01*
X0067811Y0128549D01*
X0067072Y0126766D01*
X0067072Y0124837D01*
X0067811Y0123054D01*
X0069175Y0121690D01*
X0070957Y0120952D01*
X0072887Y0120952D01*
X0074670Y0121690D01*
X0076034Y0123054D01*
X0076772Y0124837D01*
X0076772Y0126766D01*
X0076034Y0128549D01*
X0074822Y0129761D01*
X0074822Y0137684D01*
X0079241Y0137684D01*
X0080236Y0138680D01*
X0080236Y0139043D01*
X0084750Y0139043D01*
X0084750Y0138680D01*
X0085746Y0137684D01*
X0093059Y0137684D01*
X0094055Y0138680D01*
X0094055Y0139043D01*
X0096994Y0139043D01*
X0096994Y0138680D01*
X0097990Y0137684D01*
X0105304Y0137684D01*
X0106299Y0138680D01*
X0106299Y0145207D01*
X0105822Y0145683D01*
X0106299Y0146160D01*
X0106299Y0152687D01*
X0105304Y0153683D01*
X0104625Y0153683D01*
X0104625Y0157278D01*
X0105101Y0157754D01*
X0105174Y0157754D01*
X0106453Y0158284D01*
X0107432Y0159263D01*
X0107962Y0160542D01*
X0107962Y0161927D01*
X0107432Y0163207D01*
X0106453Y0164186D01*
X0105174Y0164716D01*
X0103789Y0164716D01*
X0102509Y0164186D01*
X0101530Y0163207D01*
X0101000Y0161927D01*
X0101000Y0161855D01*
X0100083Y0160937D01*
X0099267Y0160121D01*
X0098825Y0159056D01*
X0098825Y0153683D01*
X0097990Y0153683D01*
X0096994Y0152687D01*
X0096994Y0146160D01*
X0097471Y0145683D01*
X0096994Y0145207D01*
X0096994Y0144843D01*
X0094055Y0144843D01*
X0094055Y0145207D01*
X0093578Y0145683D01*
X0094055Y0146160D01*
X0094055Y0152687D01*
X0093059Y0153683D01*
X0087001Y0153683D01*
X0075885Y0164798D01*
X0075885Y0175408D01*
X0112591Y0175408D01*
X0112591Y0231857D01*
X0122308Y0231857D01*
X0121363Y0230913D01*
X0120647Y0229185D01*
X0120647Y0221315D01*
X0121363Y0219588D01*
X0122685Y0218266D01*
X0123914Y0217757D01*
X0119457Y0217757D01*
X0119406Y0217808D01*
X0118126Y0218338D01*
X0116742Y0218338D01*
X0115462Y0217808D01*
X0114483Y0216829D01*
X0113953Y0215549D01*
X0113953Y0214164D01*
X0114483Y0212885D01*
X0114132Y0213733D02*
X0112591Y0213733D01*
X0112591Y0214731D02*
X0113953Y0214731D01*
X0114028Y0215730D02*
X0112591Y0215730D01*
X0112591Y0216728D02*
X0114441Y0216728D01*
X0115381Y0217727D02*
X0112591Y0217727D01*
X0112591Y0218725D02*
X0122226Y0218725D01*
X0121307Y0219724D02*
X0112591Y0219724D01*
X0112591Y0220722D02*
X0120893Y0220722D01*
X0120647Y0221721D02*
X0112591Y0221721D01*
X0112591Y0222719D02*
X0120647Y0222719D01*
X0120647Y0223718D02*
X0112591Y0223718D01*
X0112591Y0224716D02*
X0120647Y0224716D01*
X0120647Y0225715D02*
X0112591Y0225715D01*
X0112591Y0226713D02*
X0120647Y0226713D01*
X0120647Y0227712D02*
X0112591Y0227712D01*
X0112591Y0228710D02*
X0120647Y0228710D01*
X0120864Y0229709D02*
X0112591Y0229709D01*
X0112591Y0230708D02*
X0121278Y0230708D01*
X0122156Y0231706D02*
X0112591Y0231706D01*
X0112591Y0210737D02*
X0208726Y0210737D01*
X0208726Y0209739D02*
X0112591Y0209739D01*
X0112591Y0208740D02*
X0208726Y0208740D01*
X0208726Y0207742D02*
X0112591Y0207742D01*
X0112591Y0206743D02*
X0208726Y0206743D01*
X0208726Y0205745D02*
X0112591Y0205745D01*
X0112591Y0204746D02*
X0208726Y0204746D01*
X0208726Y0203748D02*
X0198332Y0203748D01*
X0197963Y0203901D02*
X0188834Y0203901D01*
X0186914Y0203105D01*
X0185444Y0201635D01*
X0184649Y0199715D01*
X0184649Y0197636D01*
X0185444Y0195716D01*
X0186914Y0194246D01*
X0188834Y0193451D01*
X0197963Y0193451D01*
X0199883Y0194246D01*
X0201353Y0195716D01*
X0202149Y0197636D01*
X0202149Y0199715D01*
X0201353Y0201635D01*
X0199883Y0203105D01*
X0197963Y0203901D01*
X0200239Y0202749D02*
X0208726Y0202749D01*
X0208726Y0201751D02*
X0201238Y0201751D01*
X0201719Y0200752D02*
X0208726Y0200752D01*
X0208726Y0199754D02*
X0202133Y0199754D01*
X0202149Y0198755D02*
X0208726Y0198755D01*
X0208726Y0197757D02*
X0202149Y0197757D01*
X0201785Y0196758D02*
X0208726Y0196758D01*
X0208726Y0195760D02*
X0201371Y0195760D01*
X0200398Y0194761D02*
X0208726Y0194761D01*
X0208726Y0193763D02*
X0198716Y0193763D01*
X0197963Y0183901D02*
X0188834Y0183901D01*
X0186914Y0183105D01*
X0185444Y0181635D01*
X0184649Y0179715D01*
X0184649Y0177636D01*
X0185444Y0175716D01*
X0186914Y0174246D01*
X0188834Y0173451D01*
X0197963Y0173451D01*
X0199883Y0174246D01*
X0201353Y0175716D01*
X0202149Y0177636D01*
X0202149Y0179715D01*
X0201353Y0181635D01*
X0199883Y0183105D01*
X0197963Y0183901D01*
X0198260Y0183777D02*
X0208726Y0183777D01*
X0208726Y0182779D02*
X0200209Y0182779D01*
X0201208Y0181780D02*
X0208726Y0181780D01*
X0208726Y0180782D02*
X0201707Y0180782D01*
X0202120Y0179783D02*
X0208726Y0179783D01*
X0208726Y0178785D02*
X0202149Y0178785D01*
X0202149Y0177786D02*
X0208726Y0177786D01*
X0208726Y0176788D02*
X0201797Y0176788D01*
X0201384Y0175789D02*
X0208726Y0175789D01*
X0208726Y0174791D02*
X0200428Y0174791D01*
X0198788Y0173792D02*
X0208726Y0173792D01*
X0208726Y0172794D02*
X0163036Y0172794D01*
X0163036Y0173211D02*
X0162926Y0173910D01*
X0162707Y0174584D01*
X0162385Y0175215D01*
X0161969Y0175788D01*
X0161468Y0176289D01*
X0160895Y0176705D01*
X0160264Y0177027D01*
X0159590Y0177246D01*
X0159036Y0177334D01*
X0159036Y0170357D01*
X0158036Y0170357D01*
X0158036Y0169357D01*
X0154036Y0169357D01*
X0154036Y0166503D01*
X0154147Y0165803D01*
X0154366Y0165129D01*
X0154688Y0164498D01*
X0155104Y0163925D01*
X0155605Y0163424D01*
X0156178Y0163008D01*
X0156809Y0162686D01*
X0157483Y0162467D01*
X0158036Y0162380D01*
X0158036Y0169357D01*
X0159036Y0169357D01*
X0159036Y0162380D01*
X0159590Y0162467D01*
X0160264Y0162686D01*
X0160895Y0163008D01*
X0161468Y0163424D01*
X0161969Y0163925D01*
X0162385Y0164498D01*
X0162707Y0165129D01*
X0162926Y0165803D01*
X0163036Y0166503D01*
X0163036Y0169357D01*
X0159036Y0169357D01*
X0159036Y0170357D01*
X0163036Y0170357D01*
X0163036Y0173211D01*
X0162944Y0173792D02*
X0188009Y0173792D01*
X0187605Y0172057D02*
X0186832Y0172150D01*
X0186713Y0172057D01*
X0186562Y0172057D01*
X0186011Y0171506D01*
X0172619Y0160994D01*
X0172468Y0160994D01*
X0171917Y0160443D01*
X0171304Y0159962D01*
X0171286Y0159812D01*
X0171179Y0159705D01*
X0171179Y0158926D01*
X0171086Y0158152D01*
X0171179Y0158033D01*
X0171179Y0082400D01*
X0144726Y0059576D01*
X0144633Y0059576D01*
X0144046Y0058989D01*
X0143417Y0058447D01*
X0143410Y0058354D01*
X0143344Y0058288D01*
X0143344Y0057457D01*
X0143283Y0056629D01*
X0143344Y0056558D01*
X0143344Y0030796D01*
X0144633Y0029507D01*
X0185511Y0029507D01*
X0186799Y0030796D01*
X0186799Y0046751D01*
X0205511Y0046751D01*
X0206799Y0048040D01*
X0206799Y0170768D01*
X0205511Y0172057D01*
X0187605Y0172057D01*
X0186301Y0171795D02*
X0163036Y0171795D01*
X0163036Y0170797D02*
X0185108Y0170797D01*
X0183836Y0169798D02*
X0159036Y0169798D01*
X0159036Y0168800D02*
X0158036Y0168800D01*
X0158036Y0169798D02*
X0153236Y0169798D01*
X0154036Y0170357D02*
X0158036Y0170357D01*
X0158036Y0177334D01*
X0157483Y0177246D01*
X0156809Y0177027D01*
X0156178Y0176705D01*
X0155605Y0176289D01*
X0155104Y0175788D01*
X0154688Y0175215D01*
X0154366Y0174584D01*
X0154147Y0173910D01*
X0154036Y0173211D01*
X0154036Y0170357D01*
X0154036Y0170797D02*
X0153236Y0170797D01*
X0153236Y0171795D02*
X0154036Y0171795D01*
X0154036Y0172794D02*
X0153236Y0172794D01*
X0153236Y0173792D02*
X0152521Y0175519D01*
X0151199Y0176841D01*
X0149471Y0177557D01*
X0147601Y0177557D01*
X0145874Y0176841D01*
X0144552Y0175519D01*
X0143836Y0173792D01*
X0143836Y0165922D01*
X0144552Y0164194D01*
X0145874Y0162872D01*
X0147601Y0162157D01*
X0149471Y0162157D01*
X0151199Y0162872D01*
X0152521Y0164194D01*
X0153236Y0165922D01*
X0153236Y0173792D01*
X0154128Y0173792D01*
X0154471Y0174791D02*
X0152822Y0174791D01*
X0152250Y0175789D02*
X0155105Y0175789D01*
X0156340Y0176788D02*
X0151252Y0176788D01*
X0145821Y0176788D02*
X0141252Y0176788D01*
X0141199Y0176841D02*
X0139471Y0177557D01*
X0137601Y0177557D01*
X0135874Y0176841D01*
X0134552Y0175519D01*
X0133836Y0173792D01*
X0133836Y0171851D01*
X0129370Y0171851D01*
X0129370Y0172608D01*
X0128374Y0173604D01*
X0121848Y0173604D01*
X0121230Y0172986D01*
X0121111Y0173104D01*
X0120769Y0173302D01*
X0120387Y0173404D01*
X0118131Y0173404D01*
X0118131Y0169451D01*
X0117131Y0169451D01*
X0117131Y0168451D01*
X0118131Y0168451D01*
X0118131Y0164498D01*
X0120387Y0164498D01*
X0120769Y0164601D01*
X0121111Y0164798D01*
X0121230Y0164917D01*
X0121848Y0164298D01*
X0128374Y0164298D01*
X0129370Y0165294D01*
X0129370Y0166051D01*
X0133836Y0166051D01*
X0133836Y0165922D01*
X0134552Y0164194D01*
X0135874Y0162872D01*
X0137601Y0162157D01*
X0139471Y0162157D01*
X0141199Y0162872D01*
X0142521Y0164194D01*
X0143236Y0165922D01*
X0143236Y0173792D01*
X0143837Y0173792D01*
X0143236Y0173792D02*
X0142521Y0175519D01*
X0141199Y0176841D01*
X0142250Y0175789D02*
X0144822Y0175789D01*
X0144250Y0174791D02*
X0142822Y0174791D01*
X0143236Y0172794D02*
X0143836Y0172794D01*
X0143836Y0171795D02*
X0143236Y0171795D01*
X0143236Y0170797D02*
X0143836Y0170797D01*
X0143836Y0169798D02*
X0143236Y0169798D01*
X0143236Y0168800D02*
X0143836Y0168800D01*
X0143836Y0167801D02*
X0143236Y0167801D01*
X0143236Y0166803D02*
X0143836Y0166803D01*
X0143885Y0165804D02*
X0143188Y0165804D01*
X0142774Y0164806D02*
X0144299Y0164806D01*
X0144939Y0163807D02*
X0142134Y0163807D01*
X0141045Y0162809D02*
X0146027Y0162809D01*
X0151045Y0162809D02*
X0156569Y0162809D01*
X0158036Y0162809D02*
X0159036Y0162809D01*
X0159036Y0163807D02*
X0158036Y0163807D01*
X0158036Y0164806D02*
X0159036Y0164806D01*
X0159036Y0165804D02*
X0158036Y0165804D01*
X0158036Y0166803D02*
X0159036Y0166803D01*
X0159036Y0167801D02*
X0158036Y0167801D01*
X0158036Y0170797D02*
X0159036Y0170797D01*
X0159036Y0171795D02*
X0158036Y0171795D01*
X0158036Y0172794D02*
X0159036Y0172794D01*
X0159036Y0173792D02*
X0158036Y0173792D01*
X0158036Y0174791D02*
X0159036Y0174791D01*
X0159036Y0175789D02*
X0158036Y0175789D01*
X0158036Y0176788D02*
X0159036Y0176788D01*
X0160733Y0176788D02*
X0185000Y0176788D01*
X0184649Y0177786D02*
X0112591Y0177786D01*
X0112591Y0176788D02*
X0135821Y0176788D01*
X0134822Y0175789D02*
X0112591Y0175789D01*
X0112591Y0178785D02*
X0184649Y0178785D01*
X0184677Y0179783D02*
X0112591Y0179783D01*
X0112591Y0180782D02*
X0185091Y0180782D01*
X0185589Y0181780D02*
X0112591Y0181780D01*
X0112591Y0182779D02*
X0186588Y0182779D01*
X0188537Y0183777D02*
X0112591Y0183777D01*
X0112591Y0184776D02*
X0208726Y0184776D01*
X0208726Y0185774D02*
X0112591Y0185774D01*
X0112591Y0186773D02*
X0136342Y0186773D01*
X0135874Y0186967D02*
X0137601Y0186251D01*
X0139471Y0186251D01*
X0141199Y0186967D01*
X0142521Y0188289D01*
X0143236Y0190016D01*
X0143236Y0197886D01*
X0142521Y0199614D01*
X0141199Y0200936D01*
X0139471Y0201651D01*
X0137601Y0201651D01*
X0135874Y0200936D01*
X0134552Y0199614D01*
X0133836Y0197886D01*
X0133836Y0196654D01*
X0129961Y0196654D01*
X0129961Y0197411D01*
X0128965Y0198407D01*
X0122439Y0198407D01*
X0121820Y0197789D01*
X0121701Y0197907D01*
X0121359Y0198105D01*
X0120978Y0198207D01*
X0118721Y0198207D01*
X0118721Y0194254D01*
X0117721Y0194254D01*
X0117721Y0193254D01*
X0118721Y0193254D01*
X0118721Y0189302D01*
X0120978Y0189302D01*
X0121359Y0189404D01*
X0121701Y0189601D01*
X0121820Y0189720D01*
X0122439Y0189102D01*
X0128965Y0189102D01*
X0129961Y0190097D01*
X0129961Y0190854D01*
X0133836Y0190854D01*
X0133836Y0190016D01*
X0134552Y0188289D01*
X0135874Y0186967D01*
X0135069Y0187772D02*
X0112591Y0187772D01*
X0112591Y0188770D02*
X0134353Y0188770D01*
X0133939Y0189769D02*
X0129632Y0189769D01*
X0129961Y0190767D02*
X0133836Y0190767D01*
X0133836Y0196758D02*
X0129961Y0196758D01*
X0129615Y0197757D02*
X0133836Y0197757D01*
X0134196Y0198755D02*
X0112591Y0198755D01*
X0112591Y0197757D02*
X0114591Y0197757D01*
X0114462Y0197628D02*
X0114265Y0197286D01*
X0114162Y0196905D01*
X0114162Y0194254D01*
X0117721Y0194254D01*
X0117721Y0198207D01*
X0115465Y0198207D01*
X0115083Y0198105D01*
X0114741Y0197907D01*
X0114462Y0197628D01*
X0114162Y0196758D02*
X0112591Y0196758D01*
X0112591Y0195760D02*
X0114162Y0195760D01*
X0114162Y0194761D02*
X0112591Y0194761D01*
X0112591Y0193763D02*
X0117721Y0193763D01*
X0117721Y0193254D02*
X0114162Y0193254D01*
X0114162Y0190604D01*
X0114265Y0190223D01*
X0114462Y0189881D01*
X0114741Y0189601D01*
X0115083Y0189404D01*
X0115465Y0189302D01*
X0117721Y0189302D01*
X0117721Y0193254D01*
X0117721Y0192764D02*
X0118721Y0192764D01*
X0118721Y0191766D02*
X0117721Y0191766D01*
X0117721Y0190767D02*
X0118721Y0190767D01*
X0118721Y0189769D02*
X0117721Y0189769D01*
X0114574Y0189769D02*
X0112591Y0189769D01*
X0112591Y0190767D02*
X0114162Y0190767D01*
X0114162Y0191766D02*
X0112591Y0191766D01*
X0112591Y0192764D02*
X0114162Y0192764D01*
X0117721Y0194761D02*
X0118721Y0194761D01*
X0118721Y0195760D02*
X0117721Y0195760D01*
X0117721Y0196758D02*
X0118721Y0196758D01*
X0118721Y0197757D02*
X0117721Y0197757D01*
X0112591Y0199754D02*
X0134692Y0199754D01*
X0135691Y0200752D02*
X0112591Y0200752D01*
X0112591Y0201751D02*
X0185559Y0201751D01*
X0185078Y0200752D02*
X0160961Y0200752D01*
X0160895Y0200800D02*
X0160264Y0201121D01*
X0159590Y0201340D01*
X0159036Y0201428D01*
X0159036Y0194451D01*
X0158036Y0194451D01*
X0158036Y0193451D01*
X0154036Y0193451D01*
X0154036Y0190597D01*
X0154147Y0189897D01*
X0154366Y0189224D01*
X0154688Y0188593D01*
X0155104Y0188020D01*
X0155605Y0187519D01*
X0156178Y0187102D01*
X0156809Y0186781D01*
X0157483Y0186562D01*
X0158036Y0186474D01*
X0158036Y0193451D01*
X0159036Y0193451D01*
X0159036Y0186474D01*
X0159590Y0186562D01*
X0160264Y0186781D01*
X0160895Y0187102D01*
X0161468Y0187519D01*
X0161969Y0188020D01*
X0162385Y0188593D01*
X0162707Y0189224D01*
X0162926Y0189897D01*
X0163036Y0190597D01*
X0163036Y0193451D01*
X0159036Y0193451D01*
X0159036Y0194451D01*
X0163036Y0194451D01*
X0163036Y0197305D01*
X0162926Y0198005D01*
X0162707Y0198679D01*
X0162385Y0199310D01*
X0161969Y0199883D01*
X0161468Y0200384D01*
X0160895Y0200800D01*
X0162063Y0199754D02*
X0184665Y0199754D01*
X0184649Y0198755D02*
X0162668Y0198755D01*
X0162965Y0197757D02*
X0184649Y0197757D01*
X0185012Y0196758D02*
X0163036Y0196758D01*
X0163036Y0195760D02*
X0185426Y0195760D01*
X0186399Y0194761D02*
X0163036Y0194761D01*
X0163036Y0192764D02*
X0208726Y0192764D01*
X0208726Y0191766D02*
X0163036Y0191766D01*
X0163036Y0190767D02*
X0208726Y0190767D01*
X0208726Y0189769D02*
X0162884Y0189769D01*
X0162475Y0188770D02*
X0208726Y0188770D01*
X0208726Y0187772D02*
X0161721Y0187772D01*
X0160240Y0186773D02*
X0208726Y0186773D01*
X0208726Y0171795D02*
X0205772Y0171795D01*
X0206770Y0170797D02*
X0208726Y0170797D01*
X0208726Y0169798D02*
X0206799Y0169798D01*
X0206799Y0168800D02*
X0208726Y0168800D01*
X0208726Y0167801D02*
X0206799Y0167801D01*
X0206799Y0166803D02*
X0208726Y0166803D01*
X0208726Y0165804D02*
X0206799Y0165804D01*
X0206799Y0164806D02*
X0208726Y0164806D01*
X0208726Y0163807D02*
X0206799Y0163807D01*
X0206799Y0162809D02*
X0208726Y0162809D01*
X0208726Y0161810D02*
X0206799Y0161810D01*
X0206799Y0160812D02*
X0208726Y0160812D01*
X0208726Y0159813D02*
X0206799Y0159813D01*
X0206799Y0158815D02*
X0208726Y0158815D01*
X0208726Y0157816D02*
X0206799Y0157816D01*
X0206799Y0156818D02*
X0208726Y0156818D01*
X0208726Y0155819D02*
X0206799Y0155819D01*
X0206799Y0154821D02*
X0208726Y0154821D01*
X0208726Y0153822D02*
X0206799Y0153822D01*
X0206799Y0152824D02*
X0208726Y0152824D01*
X0208726Y0151825D02*
X0206799Y0151825D01*
X0206799Y0150827D02*
X0208726Y0150827D01*
X0208726Y0149828D02*
X0206799Y0149828D01*
X0206799Y0148830D02*
X0208726Y0148830D01*
X0208726Y0147831D02*
X0206799Y0147831D01*
X0206799Y0146833D02*
X0208726Y0146833D01*
X0208726Y0145834D02*
X0206799Y0145834D01*
X0206799Y0144836D02*
X0208726Y0144836D01*
X0208726Y0143837D02*
X0206799Y0143837D01*
X0206799Y0142839D02*
X0208726Y0142839D01*
X0208726Y0141840D02*
X0206799Y0141840D01*
X0206799Y0140841D02*
X0208726Y0140841D01*
X0208726Y0139843D02*
X0206799Y0139843D01*
X0206799Y0138844D02*
X0208726Y0138844D01*
X0208726Y0137846D02*
X0206799Y0137846D01*
X0206799Y0136847D02*
X0208726Y0136847D01*
X0208726Y0135849D02*
X0206799Y0135849D01*
X0206799Y0134850D02*
X0208726Y0134850D01*
X0208726Y0133852D02*
X0206799Y0133852D01*
X0206799Y0132853D02*
X0208726Y0132853D01*
X0208726Y0131855D02*
X0206799Y0131855D01*
X0206799Y0130856D02*
X0208726Y0130856D01*
X0208726Y0129858D02*
X0206799Y0129858D01*
X0206799Y0128859D02*
X0208726Y0128859D01*
X0208726Y0127861D02*
X0206799Y0127861D01*
X0206799Y0126862D02*
X0208726Y0126862D01*
X0208726Y0125864D02*
X0206799Y0125864D01*
X0206799Y0124865D02*
X0208726Y0124865D01*
X0208726Y0123867D02*
X0206799Y0123867D01*
X0206799Y0122868D02*
X0208726Y0122868D01*
X0208726Y0121870D02*
X0206799Y0121870D01*
X0206799Y0120871D02*
X0208726Y0120871D01*
X0208726Y0119873D02*
X0206799Y0119873D01*
X0206799Y0118874D02*
X0208726Y0118874D01*
X0208726Y0117876D02*
X0206799Y0117876D01*
X0206799Y0116877D02*
X0208726Y0116877D01*
X0208726Y0115879D02*
X0206799Y0115879D01*
X0206799Y0114880D02*
X0208726Y0114880D01*
X0208726Y0113882D02*
X0206799Y0113882D01*
X0206799Y0112883D02*
X0208726Y0112883D01*
X0208726Y0111885D02*
X0206799Y0111885D01*
X0206799Y0110886D02*
X0208726Y0110886D01*
X0208726Y0109888D02*
X0206799Y0109888D01*
X0206799Y0108889D02*
X0208726Y0108889D01*
X0208726Y0107891D02*
X0206799Y0107891D01*
X0206799Y0106892D02*
X0208726Y0106892D01*
X0208726Y0105894D02*
X0206799Y0105894D01*
X0206799Y0104895D02*
X0208726Y0104895D01*
X0208726Y0103897D02*
X0206799Y0103897D01*
X0206799Y0102898D02*
X0208726Y0102898D01*
X0208726Y0101900D02*
X0206799Y0101900D01*
X0206799Y0100901D02*
X0208726Y0100901D01*
X0208726Y0099903D02*
X0206799Y0099903D01*
X0206799Y0098904D02*
X0208726Y0098904D01*
X0208726Y0097905D02*
X0206799Y0097905D01*
X0206799Y0096907D02*
X0208726Y0096907D01*
X0208726Y0095908D02*
X0206799Y0095908D01*
X0206799Y0094910D02*
X0208726Y0094910D01*
X0208726Y0093911D02*
X0206799Y0093911D01*
X0206799Y0092913D02*
X0208726Y0092913D01*
X0208726Y0091914D02*
X0206799Y0091914D01*
X0206799Y0090916D02*
X0208726Y0090916D01*
X0208726Y0089917D02*
X0206799Y0089917D01*
X0206799Y0088919D02*
X0208726Y0088919D01*
X0208726Y0087920D02*
X0206799Y0087920D01*
X0206799Y0086922D02*
X0208726Y0086922D01*
X0208726Y0085923D02*
X0206799Y0085923D01*
X0206799Y0084925D02*
X0208726Y0084925D01*
X0208726Y0083926D02*
X0206799Y0083926D01*
X0206799Y0082928D02*
X0208726Y0082928D01*
X0208726Y0081929D02*
X0206799Y0081929D01*
X0206799Y0080931D02*
X0208726Y0080931D01*
X0208726Y0079932D02*
X0206799Y0079932D01*
X0206799Y0078934D02*
X0208726Y0078934D01*
X0208726Y0077935D02*
X0206799Y0077935D01*
X0206799Y0076937D02*
X0208726Y0076937D01*
X0208726Y0075938D02*
X0206799Y0075938D01*
X0206799Y0074940D02*
X0208726Y0074940D01*
X0208726Y0073941D02*
X0206799Y0073941D01*
X0206799Y0072943D02*
X0208726Y0072943D01*
X0208726Y0071944D02*
X0206799Y0071944D01*
X0206799Y0070946D02*
X0208726Y0070946D01*
X0208726Y0069947D02*
X0206799Y0069947D01*
X0206799Y0068949D02*
X0208726Y0068949D01*
X0208726Y0067950D02*
X0206799Y0067950D01*
X0206799Y0066952D02*
X0208726Y0066952D01*
X0208726Y0065953D02*
X0206799Y0065953D01*
X0206799Y0064955D02*
X0208726Y0064955D01*
X0208726Y0063956D02*
X0206799Y0063956D01*
X0206799Y0062958D02*
X0208726Y0062958D01*
X0208726Y0061959D02*
X0206799Y0061959D01*
X0206799Y0060961D02*
X0208726Y0060961D01*
X0208726Y0059962D02*
X0206799Y0059962D01*
X0206799Y0058964D02*
X0208726Y0058964D01*
X0208726Y0057965D02*
X0206799Y0057965D01*
X0206799Y0056967D02*
X0208726Y0056967D01*
X0208726Y0055968D02*
X0206799Y0055968D01*
X0206799Y0054970D02*
X0208726Y0054970D01*
X0208726Y0053971D02*
X0206799Y0053971D01*
X0206799Y0052972D02*
X0208726Y0052972D01*
X0208726Y0051974D02*
X0206799Y0051974D01*
X0206799Y0050975D02*
X0208726Y0050975D01*
X0208726Y0049977D02*
X0206799Y0049977D01*
X0206799Y0048978D02*
X0208726Y0048978D01*
X0208726Y0047980D02*
X0206739Y0047980D01*
X0205741Y0046981D02*
X0208726Y0046981D01*
X0208726Y0045983D02*
X0186799Y0045983D01*
X0186799Y0044984D02*
X0208726Y0044984D01*
X0208726Y0043986D02*
X0198663Y0043986D01*
X0198159Y0044194D02*
X0194977Y0044194D01*
X0192037Y0042977D01*
X0189786Y0040726D01*
X0188569Y0037786D01*
X0188569Y0034604D01*
X0189786Y0031664D01*
X0192037Y0029414D01*
X0194977Y0028196D01*
X0198159Y0028196D01*
X0201099Y0029414D01*
X0203349Y0031664D01*
X0204567Y0034604D01*
X0204567Y0037786D01*
X0203349Y0040726D01*
X0201099Y0042977D01*
X0198159Y0044194D01*
X0201073Y0042987D02*
X0208726Y0042987D01*
X0208726Y0041989D02*
X0202087Y0041989D01*
X0203085Y0040990D02*
X0208726Y0040990D01*
X0208726Y0039992D02*
X0203654Y0039992D01*
X0204067Y0038993D02*
X0208726Y0038993D01*
X0208726Y0037995D02*
X0204481Y0037995D01*
X0204567Y0036996D02*
X0208726Y0036996D01*
X0208726Y0035998D02*
X0204567Y0035998D01*
X0204567Y0034999D02*
X0208726Y0034999D01*
X0208726Y0034001D02*
X0204317Y0034001D01*
X0203904Y0033002D02*
X0208726Y0033002D01*
X0208726Y0032004D02*
X0203490Y0032004D01*
X0202690Y0031005D02*
X0208726Y0031005D01*
X0208726Y0030007D02*
X0201692Y0030007D01*
X0200120Y0029008D02*
X0208726Y0029008D01*
X0208726Y0028010D02*
X0113577Y0028010D01*
X0113990Y0029008D02*
X0193016Y0029008D01*
X0191444Y0030007D02*
X0186010Y0030007D01*
X0186799Y0031005D02*
X0190445Y0031005D01*
X0189646Y0032004D02*
X0186799Y0032004D01*
X0186799Y0033002D02*
X0189232Y0033002D01*
X0188819Y0034001D02*
X0186799Y0034001D01*
X0186799Y0034999D02*
X0188569Y0034999D01*
X0188569Y0035998D02*
X0186799Y0035998D01*
X0186799Y0036996D02*
X0188569Y0036996D01*
X0188655Y0037995D02*
X0186799Y0037995D01*
X0186799Y0038993D02*
X0189069Y0038993D01*
X0189482Y0039992D02*
X0186799Y0039992D01*
X0186799Y0040990D02*
X0190050Y0040990D01*
X0191049Y0041989D02*
X0186799Y0041989D01*
X0186799Y0042987D02*
X0192063Y0042987D01*
X0194473Y0043986D02*
X0186799Y0043986D01*
X0184599Y0043986D02*
X0145544Y0043986D01*
X0145544Y0044984D02*
X0184599Y0044984D01*
X0184599Y0045983D02*
X0145544Y0045983D01*
X0145544Y0046981D02*
X0184599Y0046981D01*
X0184599Y0047980D02*
X0145544Y0047980D01*
X0145544Y0048978D02*
X0204599Y0048978D01*
X0204599Y0048951D02*
X0184599Y0048951D01*
X0184599Y0031707D01*
X0145544Y0031707D01*
X0145544Y0057376D01*
X0173379Y0081392D01*
X0173379Y0158794D01*
X0187473Y0169857D01*
X0204599Y0169857D01*
X0204599Y0048951D01*
X0204599Y0049977D02*
X0145544Y0049977D01*
X0145544Y0050975D02*
X0204599Y0050975D01*
X0204599Y0051974D02*
X0145544Y0051974D01*
X0145544Y0052972D02*
X0204599Y0052972D01*
X0204599Y0053971D02*
X0145544Y0053971D01*
X0145544Y0054970D02*
X0204599Y0054970D01*
X0204599Y0055968D02*
X0145544Y0055968D01*
X0145544Y0056967D02*
X0204599Y0056967D01*
X0204599Y0057965D02*
X0146227Y0057965D01*
X0147384Y0058964D02*
X0204599Y0058964D01*
X0204599Y0059962D02*
X0148541Y0059962D01*
X0149698Y0060961D02*
X0204599Y0060961D01*
X0204599Y0061959D02*
X0150856Y0061959D01*
X0152013Y0062958D02*
X0204599Y0062958D01*
X0204599Y0063956D02*
X0153170Y0063956D01*
X0154328Y0064955D02*
X0204599Y0064955D01*
X0204599Y0065953D02*
X0155485Y0065953D01*
X0156642Y0066952D02*
X0204599Y0066952D01*
X0204599Y0067950D02*
X0157799Y0067950D01*
X0158957Y0068949D02*
X0204599Y0068949D01*
X0204599Y0069947D02*
X0160114Y0069947D01*
X0161271Y0070946D02*
X0204599Y0070946D01*
X0204599Y0071944D02*
X0162429Y0071944D01*
X0163586Y0072943D02*
X0204599Y0072943D01*
X0204599Y0073941D02*
X0164743Y0073941D01*
X0165900Y0074940D02*
X0204599Y0074940D01*
X0204599Y0075938D02*
X0199230Y0075938D01*
X0198357Y0075577D02*
X0200277Y0076372D01*
X0201747Y0077842D01*
X0202542Y0079762D01*
X0202542Y0081841D01*
X0201747Y0083761D01*
X0200277Y0085231D01*
X0198357Y0086027D01*
X0189228Y0086027D01*
X0187308Y0085231D01*
X0185838Y0083761D01*
X0185042Y0081841D01*
X0185042Y0079762D01*
X0185838Y0077842D01*
X0187308Y0076372D01*
X0189228Y0075577D01*
X0198357Y0075577D01*
X0200842Y0076937D02*
X0204599Y0076937D01*
X0204599Y0077935D02*
X0201786Y0077935D01*
X0202199Y0078934D02*
X0204599Y0078934D01*
X0204599Y0079932D02*
X0202542Y0079932D01*
X0202542Y0080931D02*
X0204599Y0080931D01*
X0204599Y0081929D02*
X0202506Y0081929D01*
X0202092Y0082928D02*
X0204599Y0082928D01*
X0204599Y0083926D02*
X0201582Y0083926D01*
X0200583Y0084925D02*
X0204599Y0084925D01*
X0204599Y0085923D02*
X0198606Y0085923D01*
X0204599Y0086922D02*
X0173379Y0086922D01*
X0173379Y0087920D02*
X0204599Y0087920D01*
X0204599Y0088919D02*
X0173379Y0088919D01*
X0173379Y0089917D02*
X0204599Y0089917D01*
X0204599Y0090916D02*
X0173379Y0090916D01*
X0173379Y0091914D02*
X0204599Y0091914D01*
X0204599Y0092913D02*
X0173379Y0092913D01*
X0173379Y0093911D02*
X0204599Y0093911D01*
X0204599Y0094910D02*
X0173379Y0094910D01*
X0173379Y0095908D02*
X0188427Y0095908D01*
X0189228Y0095577D02*
X0187308Y0096372D01*
X0185838Y0097842D01*
X0185042Y0099762D01*
X0185042Y0101841D01*
X0185838Y0103761D01*
X0187308Y0105231D01*
X0189228Y0106027D01*
X0198357Y0106027D01*
X0200277Y0105231D01*
X0201747Y0103761D01*
X0202542Y0101841D01*
X0202542Y0099762D01*
X0201747Y0097842D01*
X0200277Y0096372D01*
X0198357Y0095577D01*
X0189228Y0095577D01*
X0186773Y0096907D02*
X0173379Y0096907D01*
X0173379Y0097905D02*
X0185811Y0097905D01*
X0185398Y0098904D02*
X0173379Y0098904D01*
X0173379Y0099903D02*
X0185042Y0099903D01*
X0185042Y0100901D02*
X0173379Y0100901D01*
X0173379Y0101900D02*
X0185067Y0101900D01*
X0185480Y0102898D02*
X0173379Y0102898D01*
X0173379Y0103897D02*
X0185973Y0103897D01*
X0186972Y0104895D02*
X0173379Y0104895D01*
X0173379Y0105894D02*
X0188907Y0105894D01*
X0189228Y0115577D02*
X0187308Y0116372D01*
X0185838Y0117842D01*
X0185042Y0119762D01*
X0185042Y0121841D01*
X0185838Y0123761D01*
X0187308Y0125231D01*
X0189228Y0126027D01*
X0198357Y0126027D01*
X0200277Y0125231D01*
X0201747Y0123761D01*
X0202542Y0121841D01*
X0202542Y0119762D01*
X0201747Y0117842D01*
X0200277Y0116372D01*
X0198357Y0115577D01*
X0189228Y0115577D01*
X0188499Y0115879D02*
X0173379Y0115879D01*
X0173379Y0116877D02*
X0186802Y0116877D01*
X0185824Y0117876D02*
X0173379Y0117876D01*
X0173379Y0118874D02*
X0185410Y0118874D01*
X0185042Y0119873D02*
X0173379Y0119873D01*
X0173379Y0120871D02*
X0185042Y0120871D01*
X0185054Y0121870D02*
X0173379Y0121870D01*
X0173379Y0122868D02*
X0185468Y0122868D01*
X0185943Y0123867D02*
X0173379Y0123867D01*
X0173379Y0124865D02*
X0186942Y0124865D01*
X0188835Y0125864D02*
X0173379Y0125864D01*
X0173379Y0126862D02*
X0204599Y0126862D01*
X0204599Y0125864D02*
X0198750Y0125864D01*
X0200643Y0124865D02*
X0204599Y0124865D01*
X0204599Y0123867D02*
X0201641Y0123867D01*
X0202117Y0122868D02*
X0204599Y0122868D01*
X0204599Y0121870D02*
X0202530Y0121870D01*
X0202542Y0120871D02*
X0204599Y0120871D01*
X0204599Y0119873D02*
X0202542Y0119873D01*
X0202174Y0118874D02*
X0204599Y0118874D01*
X0204599Y0117876D02*
X0201761Y0117876D01*
X0200782Y0116877D02*
X0204599Y0116877D01*
X0204599Y0115879D02*
X0199086Y0115879D01*
X0204599Y0114880D02*
X0173379Y0114880D01*
X0173379Y0113882D02*
X0204599Y0113882D01*
X0204599Y0112883D02*
X0173379Y0112883D01*
X0173379Y0111885D02*
X0204599Y0111885D01*
X0204599Y0110886D02*
X0173379Y0110886D01*
X0173379Y0109888D02*
X0204599Y0109888D01*
X0204599Y0108889D02*
X0173379Y0108889D01*
X0173379Y0107891D02*
X0204599Y0107891D01*
X0204599Y0106892D02*
X0173379Y0106892D01*
X0171179Y0106892D02*
X0113964Y0106892D01*
X0113964Y0105894D02*
X0171179Y0105894D01*
X0171179Y0104895D02*
X0113964Y0104895D01*
X0113964Y0103897D02*
X0135186Y0103897D01*
X0135249Y0104006D02*
X0135052Y0103664D01*
X0134950Y0103283D01*
X0134950Y0101026D01*
X0138902Y0101026D01*
X0138902Y0100026D01*
X0134950Y0100026D01*
X0134950Y0097769D01*
X0135052Y0097388D01*
X0135249Y0097046D01*
X0135368Y0096927D01*
X0134750Y0096309D01*
X0134750Y0089782D01*
X0135746Y0088787D01*
X0136503Y0088787D01*
X0136503Y0087941D01*
X0136944Y0086875D01*
X0146511Y0077308D01*
X0147327Y0076493D01*
X0147746Y0076319D01*
X0148166Y0075305D01*
X0149488Y0073982D01*
X0151216Y0073267D01*
X0159085Y0073267D01*
X0160813Y0073982D01*
X0162135Y0075305D01*
X0162851Y0077032D01*
X0162851Y0078902D01*
X0162135Y0080629D01*
X0160813Y0081951D01*
X0159085Y0082667D01*
X0151216Y0082667D01*
X0149900Y0082122D01*
X0143147Y0088875D01*
X0144055Y0089782D01*
X0144055Y0096309D01*
X0143437Y0096927D01*
X0143556Y0097046D01*
X0143753Y0097388D01*
X0143855Y0097769D01*
X0143855Y0100026D01*
X0139903Y0100026D01*
X0139903Y0101026D01*
X0143855Y0101026D01*
X0143855Y0103283D01*
X0143753Y0103664D01*
X0143556Y0104006D01*
X0143276Y0104285D01*
X0142934Y0104483D01*
X0142553Y0104585D01*
X0139902Y0104585D01*
X0139902Y0101026D01*
X0138903Y0101026D01*
X0138903Y0104585D01*
X0136252Y0104585D01*
X0135871Y0104483D01*
X0135529Y0104285D01*
X0135249Y0104006D01*
X0134950Y0102898D02*
X0113964Y0102898D01*
X0113964Y0102465D02*
X0113964Y0110259D01*
X0113253Y0111975D01*
X0111940Y0113289D01*
X0110224Y0113999D01*
X0108366Y0113999D01*
X0106651Y0113289D01*
X0105337Y0111975D01*
X0104627Y0110259D01*
X0104627Y0102465D01*
X0105337Y0100749D01*
X0106651Y0099436D01*
X0108366Y0098725D01*
X0110224Y0098725D01*
X0111940Y0099436D01*
X0113253Y0100749D01*
X0113964Y0102465D01*
X0113729Y0101900D02*
X0134950Y0101900D01*
X0134950Y0099903D02*
X0112406Y0099903D01*
X0113316Y0100901D02*
X0138902Y0100901D01*
X0138903Y0101900D02*
X0139902Y0101900D01*
X0139902Y0102898D02*
X0138903Y0102898D01*
X0138903Y0103897D02*
X0139902Y0103897D01*
X0139903Y0100901D02*
X0148721Y0100901D01*
X0148718Y0100898D02*
X0148302Y0100325D01*
X0147980Y0099694D01*
X0147761Y0099021D01*
X0147674Y0098467D01*
X0154650Y0098467D01*
X0154650Y0097467D01*
X0147674Y0097467D01*
X0147761Y0096913D01*
X0147980Y0096240D01*
X0148302Y0095608D01*
X0148718Y0095035D01*
X0149219Y0094535D01*
X0149792Y0094118D01*
X0150423Y0093797D01*
X0151097Y0093578D01*
X0151796Y0093467D01*
X0154651Y0093467D01*
X0154651Y0097467D01*
X0155651Y0097467D01*
X0155651Y0098467D01*
X0162627Y0098467D01*
X0162540Y0099021D01*
X0162321Y0099694D01*
X0161999Y0100325D01*
X0161583Y0100898D01*
X0161082Y0101399D01*
X0160509Y0101816D01*
X0159878Y0102137D01*
X0159204Y0102356D01*
X0158505Y0102467D01*
X0155651Y0102467D01*
X0155651Y0098467D01*
X0154651Y0098467D01*
X0154651Y0102467D01*
X0151796Y0102467D01*
X0151097Y0102356D01*
X0150423Y0102137D01*
X0149792Y0101816D01*
X0149219Y0101399D01*
X0148718Y0100898D01*
X0148086Y0099903D02*
X0143855Y0099903D01*
X0143855Y0098904D02*
X0147743Y0098904D01*
X0147763Y0096907D02*
X0143457Y0096907D01*
X0143855Y0097905D02*
X0154650Y0097905D01*
X0154651Y0096907D02*
X0155651Y0096907D01*
X0155651Y0097467D02*
X0155651Y0093467D01*
X0158505Y0093467D01*
X0159204Y0093578D01*
X0159878Y0093797D01*
X0160509Y0094118D01*
X0161082Y0094535D01*
X0161583Y0095035D01*
X0161999Y0095608D01*
X0162321Y0096240D01*
X0162540Y0096913D01*
X0162627Y0097467D01*
X0155651Y0097467D01*
X0155651Y0097905D02*
X0171179Y0097905D01*
X0171179Y0096907D02*
X0162538Y0096907D01*
X0162152Y0095908D02*
X0171179Y0095908D01*
X0171179Y0094910D02*
X0161458Y0094910D01*
X0160103Y0093911D02*
X0171179Y0093911D01*
X0171179Y0092913D02*
X0144055Y0092913D01*
X0144055Y0093911D02*
X0150198Y0093911D01*
X0151216Y0092667D02*
X0149488Y0091951D01*
X0148166Y0090629D01*
X0147451Y0088902D01*
X0147451Y0087032D01*
X0148166Y0085305D01*
X0149488Y0083982D01*
X0151216Y0083267D01*
X0159085Y0083267D01*
X0160813Y0083982D01*
X0162135Y0085305D01*
X0162851Y0087032D01*
X0162851Y0088902D01*
X0162135Y0090629D01*
X0160813Y0091951D01*
X0159085Y0092667D01*
X0151216Y0092667D01*
X0149451Y0091914D02*
X0144055Y0091914D01*
X0144055Y0090916D02*
X0148453Y0090916D01*
X0147871Y0089917D02*
X0144055Y0089917D01*
X0143192Y0088919D02*
X0147458Y0088919D01*
X0147451Y0087920D02*
X0144101Y0087920D01*
X0145100Y0086922D02*
X0147496Y0086922D01*
X0147910Y0085923D02*
X0146098Y0085923D01*
X0147097Y0084925D02*
X0148546Y0084925D01*
X0148095Y0083926D02*
X0149624Y0083926D01*
X0149094Y0082928D02*
X0171179Y0082928D01*
X0171179Y0083926D02*
X0160677Y0083926D01*
X0161755Y0084925D02*
X0171179Y0084925D01*
X0171179Y0085923D02*
X0162391Y0085923D01*
X0162805Y0086922D02*
X0171179Y0086922D01*
X0171179Y0087920D02*
X0162851Y0087920D01*
X0162843Y0088919D02*
X0171179Y0088919D01*
X0171179Y0089917D02*
X0162430Y0089917D01*
X0161848Y0090916D02*
X0171179Y0090916D01*
X0171179Y0091914D02*
X0160850Y0091914D01*
X0155651Y0093911D02*
X0154651Y0093911D01*
X0154651Y0094910D02*
X0155651Y0094910D01*
X0155651Y0095908D02*
X0154651Y0095908D01*
X0154651Y0098904D02*
X0155651Y0098904D01*
X0155651Y0099903D02*
X0154651Y0099903D01*
X0154651Y0100901D02*
X0155651Y0100901D01*
X0155651Y0101900D02*
X0154651Y0101900D01*
X0149957Y0101900D02*
X0143855Y0101900D01*
X0143855Y0102898D02*
X0171179Y0102898D01*
X0171179Y0101900D02*
X0160344Y0101900D01*
X0161580Y0100901D02*
X0171179Y0100901D01*
X0171179Y0099903D02*
X0162215Y0099903D01*
X0162558Y0098904D02*
X0171179Y0098904D01*
X0171179Y0103897D02*
X0143619Y0103897D01*
X0144055Y0095908D02*
X0148149Y0095908D01*
X0148844Y0094910D02*
X0144055Y0094910D01*
X0135348Y0096907D02*
X0027183Y0096907D01*
X0027185Y0097905D02*
X0134950Y0097905D01*
X0134950Y0098904D02*
X0110655Y0098904D01*
X0107935Y0098904D02*
X0101082Y0098904D01*
X0100580Y0098696D02*
X0102296Y0099407D01*
X0103609Y0100720D01*
X0104320Y0102436D01*
X0104320Y0110230D01*
X0103609Y0111946D01*
X0102296Y0113259D01*
X0100580Y0113970D01*
X0098723Y0113970D01*
X0097007Y0113259D01*
X0095694Y0111946D01*
X0094983Y0110230D01*
X0094983Y0102436D01*
X0095694Y0100720D01*
X0097007Y0099407D01*
X0098723Y0098696D01*
X0100580Y0098696D01*
X0098221Y0098904D02*
X0068190Y0098904D01*
X0068024Y0098904D02*
X0067055Y0098904D01*
X0067055Y0098878D02*
X0067055Y0105809D01*
X0068024Y0105809D01*
X0068024Y0098878D01*
X0068586Y0098967D01*
X0069255Y0099184D01*
X0069882Y0099503D01*
X0070451Y0099917D01*
X0070948Y0100414D01*
X0071361Y0100983D01*
X0071681Y0101610D01*
X0071898Y0102279D01*
X0072008Y0102974D01*
X0072008Y0105809D01*
X0068024Y0105809D01*
X0068024Y0106778D01*
X0072008Y0106778D01*
X0072008Y0109614D01*
X0071898Y0110309D01*
X0071681Y0110978D01*
X0071361Y0111604D01*
X0070948Y0112173D01*
X0070451Y0112671D01*
X0069882Y0113084D01*
X0069255Y0113403D01*
X0068586Y0113621D01*
X0068024Y0113710D01*
X0068024Y0106778D01*
X0067055Y0106778D01*
X0067055Y0105809D01*
X0063071Y0105809D01*
X0063071Y0102974D01*
X0063181Y0102279D01*
X0063398Y0101610D01*
X0063718Y0100983D01*
X0064131Y0100414D01*
X0064628Y0099917D01*
X0065198Y0099503D01*
X0065824Y0099184D01*
X0066493Y0098967D01*
X0067055Y0098878D01*
X0066889Y0098904D02*
X0058099Y0098904D01*
X0057857Y0098904D02*
X0056889Y0098904D01*
X0056889Y0098866D02*
X0056889Y0105797D01*
X0057857Y0105797D01*
X0057857Y0098866D01*
X0058420Y0098955D01*
X0059089Y0099172D01*
X0059715Y0099491D01*
X0060284Y0099905D01*
X0060782Y0100402D01*
X0061195Y0100971D01*
X0061514Y0101598D01*
X0061732Y0102267D01*
X0061842Y0102962D01*
X0061842Y0105797D01*
X0057858Y0105797D01*
X0057858Y0106766D01*
X0061842Y0106766D01*
X0061842Y0109602D01*
X0061732Y0110297D01*
X0061514Y0110966D01*
X0061195Y0111592D01*
X0060782Y0112161D01*
X0060284Y0112659D01*
X0059715Y0113072D01*
X0059089Y0113391D01*
X0058420Y0113609D01*
X0057857Y0113698D01*
X0057857Y0106766D01*
X0056889Y0106766D01*
X0056889Y0113698D01*
X0056327Y0113609D01*
X0055658Y0113391D01*
X0055031Y0113072D01*
X0054462Y0112659D01*
X0053965Y0112161D01*
X0053551Y0111592D01*
X0053232Y0110966D01*
X0053015Y0110297D01*
X0052905Y0109602D01*
X0052905Y0106766D01*
X0056889Y0106766D01*
X0056889Y0105797D01*
X0052905Y0105797D01*
X0052905Y0102962D01*
X0053015Y0102267D01*
X0053232Y0101598D01*
X0053551Y0100971D01*
X0053965Y0100402D01*
X0054462Y0099905D01*
X0055031Y0099491D01*
X0055658Y0099172D01*
X0056327Y0098955D01*
X0056889Y0098866D01*
X0056647Y0098904D02*
X0027187Y0098904D01*
X0027189Y0099903D02*
X0054465Y0099903D01*
X0053602Y0100901D02*
X0027191Y0100901D01*
X0027193Y0101900D02*
X0053134Y0101900D01*
X0052915Y0102898D02*
X0027194Y0102898D01*
X0027196Y0103897D02*
X0052905Y0103897D01*
X0052905Y0104895D02*
X0027198Y0104895D01*
X0027200Y0105894D02*
X0056889Y0105894D01*
X0057858Y0105894D02*
X0067055Y0105894D01*
X0067055Y0106778D02*
X0063071Y0106778D01*
X0063071Y0109614D01*
X0063181Y0110309D01*
X0063398Y0110978D01*
X0063718Y0111604D01*
X0064131Y0112173D01*
X0064628Y0112671D01*
X0065198Y0113084D01*
X0065824Y0113403D01*
X0066493Y0113621D01*
X0067055Y0113710D01*
X0067055Y0106778D01*
X0067055Y0106892D02*
X0068024Y0106892D01*
X0068024Y0105894D02*
X0094983Y0105894D01*
X0094983Y0106892D02*
X0072008Y0106892D01*
X0072008Y0107891D02*
X0094983Y0107891D01*
X0094983Y0108889D02*
X0072008Y0108889D01*
X0071965Y0109888D02*
X0094983Y0109888D01*
X0095255Y0110886D02*
X0071710Y0110886D01*
X0071158Y0111885D02*
X0095668Y0111885D01*
X0096631Y0112883D02*
X0070158Y0112883D01*
X0068024Y0112883D02*
X0067055Y0112883D01*
X0067055Y0111885D02*
X0068024Y0111885D01*
X0068024Y0110886D02*
X0067055Y0110886D01*
X0067055Y0109888D02*
X0068024Y0109888D01*
X0068024Y0108889D02*
X0067055Y0108889D01*
X0067055Y0107891D02*
X0068024Y0107891D01*
X0064921Y0112883D02*
X0059975Y0112883D01*
X0060983Y0111885D02*
X0063921Y0111885D01*
X0063369Y0110886D02*
X0061540Y0110886D01*
X0061796Y0109888D02*
X0063114Y0109888D01*
X0063071Y0108889D02*
X0061842Y0108889D01*
X0061842Y0107891D02*
X0063071Y0107891D01*
X0063071Y0106892D02*
X0061842Y0106892D01*
X0061842Y0104895D02*
X0063071Y0104895D01*
X0063071Y0103897D02*
X0061842Y0103897D01*
X0061832Y0102898D02*
X0063083Y0102898D01*
X0063304Y0101900D02*
X0061612Y0101900D01*
X0061144Y0100901D02*
X0063777Y0100901D01*
X0064648Y0099903D02*
X0060281Y0099903D01*
X0057857Y0099903D02*
X0056889Y0099903D01*
X0056889Y0100901D02*
X0057857Y0100901D01*
X0057857Y0101900D02*
X0056889Y0101900D01*
X0056889Y0102898D02*
X0057857Y0102898D01*
X0057857Y0103897D02*
X0056889Y0103897D01*
X0056889Y0104895D02*
X0057857Y0104895D01*
X0057857Y0106892D02*
X0056889Y0106892D01*
X0056889Y0107891D02*
X0057857Y0107891D01*
X0057857Y0108889D02*
X0056889Y0108889D01*
X0056889Y0109888D02*
X0057857Y0109888D01*
X0057857Y0110886D02*
X0056889Y0110886D01*
X0056889Y0111885D02*
X0057857Y0111885D01*
X0057857Y0112883D02*
X0056889Y0112883D01*
X0054771Y0112883D02*
X0041394Y0112883D01*
X0041394Y0111885D02*
X0053764Y0111885D01*
X0053206Y0110886D02*
X0041017Y0110886D01*
X0040498Y0109888D02*
X0052950Y0109888D01*
X0052905Y0108889D02*
X0039499Y0108889D01*
X0041304Y0113882D02*
X0098509Y0113882D01*
X0100793Y0113882D02*
X0108082Y0113882D01*
X0106245Y0112883D02*
X0102672Y0112883D01*
X0103635Y0111885D02*
X0105300Y0111885D01*
X0104886Y0110886D02*
X0104048Y0110886D01*
X0104320Y0109888D02*
X0104627Y0109888D01*
X0104627Y0108889D02*
X0104320Y0108889D01*
X0104320Y0107891D02*
X0104627Y0107891D01*
X0104627Y0106892D02*
X0104320Y0106892D01*
X0104320Y0105894D02*
X0104627Y0105894D01*
X0104627Y0104895D02*
X0104320Y0104895D01*
X0104320Y0103897D02*
X0104627Y0103897D01*
X0104627Y0102898D02*
X0104320Y0102898D01*
X0104098Y0101900D02*
X0104861Y0101900D01*
X0105275Y0100901D02*
X0103684Y0100901D01*
X0102792Y0099903D02*
X0106184Y0099903D01*
X0096511Y0099903D02*
X0070431Y0099903D01*
X0071302Y0100901D02*
X0095619Y0100901D01*
X0095205Y0101900D02*
X0071775Y0101900D01*
X0071996Y0102898D02*
X0094983Y0102898D01*
X0094983Y0103897D02*
X0072008Y0103897D01*
X0072008Y0104895D02*
X0094983Y0104895D01*
X0110508Y0113882D02*
X0135241Y0113882D01*
X0135339Y0113643D02*
X0136661Y0112321D01*
X0138389Y0111606D01*
X0140259Y0111606D01*
X0141986Y0112321D01*
X0143308Y0113643D01*
X0144024Y0115371D01*
X0144024Y0123240D01*
X0143308Y0124968D01*
X0141986Y0126290D01*
X0140259Y0127005D01*
X0138389Y0127005D01*
X0136661Y0126290D01*
X0135339Y0124968D01*
X0134624Y0123240D01*
X0134624Y0122520D01*
X0132362Y0122520D01*
X0132362Y0123277D01*
X0131367Y0124273D01*
X0124840Y0124273D01*
X0124222Y0123655D01*
X0124103Y0123774D01*
X0123761Y0123971D01*
X0123380Y0124073D01*
X0121123Y0124073D01*
X0121123Y0120121D01*
X0120123Y0120121D01*
X0120123Y0124073D01*
X0117866Y0124073D01*
X0117485Y0123971D01*
X0117143Y0123774D01*
X0116864Y0123494D01*
X0116666Y0123152D01*
X0116564Y0122771D01*
X0116564Y0120120D01*
X0120123Y0120120D01*
X0120123Y0119120D01*
X0121123Y0119120D01*
X0121123Y0115168D01*
X0123380Y0115168D01*
X0123761Y0115270D01*
X0124103Y0115467D01*
X0124222Y0115586D01*
X0124840Y0114968D01*
X0131367Y0114968D01*
X0132362Y0115964D01*
X0132362Y0116720D01*
X0134624Y0116720D01*
X0134624Y0115371D01*
X0135339Y0113643D01*
X0136099Y0112883D02*
X0112345Y0112883D01*
X0113290Y0111885D02*
X0137715Y0111885D01*
X0140933Y0111885D02*
X0147715Y0111885D01*
X0148389Y0111606D02*
X0146661Y0112321D01*
X0145339Y0113643D01*
X0144624Y0115371D01*
X0144624Y0123240D01*
X0145339Y0124968D01*
X0146661Y0126290D01*
X0148389Y0127005D01*
X0150259Y0127005D01*
X0151986Y0126290D01*
X0153308Y0124968D01*
X0154024Y0123240D01*
X0154024Y0115371D01*
X0153308Y0113643D01*
X0151986Y0112321D01*
X0150259Y0111606D01*
X0148389Y0111606D01*
X0150933Y0111885D02*
X0158470Y0111885D01*
X0158270Y0111916D02*
X0158824Y0111829D01*
X0158824Y0118805D01*
X0159824Y0118805D01*
X0159824Y0111829D01*
X0160378Y0111916D01*
X0161051Y0112135D01*
X0161682Y0112457D01*
X0162255Y0112873D01*
X0162756Y0113374D01*
X0163173Y0113947D01*
X0163494Y0114578D01*
X0163713Y0115252D01*
X0163824Y0115951D01*
X0163824Y0118806D01*
X0159824Y0118806D01*
X0159824Y0119805D01*
X0163824Y0119805D01*
X0163824Y0122660D01*
X0163713Y0123359D01*
X0163494Y0124033D01*
X0163173Y0124664D01*
X0162756Y0125237D01*
X0162255Y0125738D01*
X0161682Y0126154D01*
X0161051Y0126476D01*
X0160378Y0126695D01*
X0159824Y0126782D01*
X0159824Y0119806D01*
X0158824Y0119806D01*
X0158824Y0126782D01*
X0158270Y0126695D01*
X0157596Y0126476D01*
X0156965Y0126154D01*
X0156392Y0125738D01*
X0155891Y0125237D01*
X0155475Y0124664D01*
X0155153Y0124033D01*
X0154935Y0123359D01*
X0154824Y0122660D01*
X0154824Y0119805D01*
X0158824Y0119805D01*
X0158824Y0118806D01*
X0154824Y0118806D01*
X0154824Y0115951D01*
X0154935Y0115252D01*
X0155153Y0114578D01*
X0155475Y0113947D01*
X0155891Y0113374D01*
X0156392Y0112873D01*
X0156965Y0112457D01*
X0157596Y0112135D01*
X0158270Y0111916D01*
X0158824Y0111885D02*
X0159824Y0111885D01*
X0160178Y0111885D02*
X0171179Y0111885D01*
X0171179Y0112883D02*
X0162265Y0112883D01*
X0163125Y0113882D02*
X0171179Y0113882D01*
X0171179Y0114880D02*
X0163592Y0114880D01*
X0163812Y0115879D02*
X0171179Y0115879D01*
X0171179Y0116877D02*
X0163824Y0116877D01*
X0163824Y0117876D02*
X0171179Y0117876D01*
X0171179Y0118874D02*
X0159824Y0118874D01*
X0159824Y0117876D02*
X0158824Y0117876D01*
X0158824Y0118874D02*
X0154024Y0118874D01*
X0154024Y0117876D02*
X0154824Y0117876D01*
X0154824Y0116877D02*
X0154024Y0116877D01*
X0154024Y0115879D02*
X0154835Y0115879D01*
X0155055Y0114880D02*
X0153821Y0114880D01*
X0153407Y0113882D02*
X0155522Y0113882D01*
X0156382Y0112883D02*
X0152548Y0112883D01*
X0146099Y0112883D02*
X0142548Y0112883D01*
X0143407Y0113882D02*
X0145241Y0113882D01*
X0144827Y0114880D02*
X0143821Y0114880D01*
X0144024Y0115879D02*
X0144624Y0115879D01*
X0144624Y0116877D02*
X0144024Y0116877D01*
X0144024Y0117876D02*
X0144624Y0117876D01*
X0144624Y0118874D02*
X0144024Y0118874D01*
X0144024Y0119873D02*
X0144624Y0119873D01*
X0144624Y0120871D02*
X0144024Y0120871D01*
X0144024Y0121870D02*
X0144624Y0121870D01*
X0144624Y0122868D02*
X0144024Y0122868D01*
X0143764Y0123867D02*
X0144883Y0123867D01*
X0145297Y0124865D02*
X0143351Y0124865D01*
X0142412Y0125864D02*
X0146235Y0125864D01*
X0148043Y0126862D02*
X0140604Y0126862D01*
X0138043Y0126862D02*
X0086572Y0126862D01*
X0086572Y0126102D02*
X0086572Y0127728D01*
X0083848Y0130452D01*
X0082222Y0130452D01*
X0082222Y0126102D01*
X0081622Y0126102D01*
X0081622Y0130452D01*
X0079996Y0130452D01*
X0077272Y0127728D01*
X0077272Y0126102D01*
X0081622Y0126102D01*
X0081622Y0125502D01*
X0077272Y0125502D01*
X0077272Y0123875D01*
X0079996Y0121152D01*
X0081622Y0121152D01*
X0081622Y0125501D01*
X0082222Y0125501D01*
X0082222Y0121152D01*
X0083848Y0121152D01*
X0086572Y0123875D01*
X0086572Y0125502D01*
X0082222Y0125502D01*
X0082222Y0126102D01*
X0086572Y0126102D01*
X0086572Y0124865D02*
X0135297Y0124865D01*
X0134883Y0123867D02*
X0131773Y0123867D01*
X0132362Y0122868D02*
X0134624Y0122868D01*
X0136235Y0125864D02*
X0082222Y0125864D01*
X0081622Y0125864D02*
X0076772Y0125864D01*
X0076772Y0124865D02*
X0077272Y0124865D01*
X0077281Y0123867D02*
X0076370Y0123867D01*
X0075848Y0122868D02*
X0078279Y0122868D01*
X0079278Y0121870D02*
X0074849Y0121870D01*
X0076732Y0126862D02*
X0077272Y0126862D01*
X0077405Y0127861D02*
X0076319Y0127861D01*
X0075723Y0128859D02*
X0078404Y0128859D01*
X0079402Y0129858D02*
X0074822Y0129858D01*
X0074822Y0130856D02*
X0171179Y0130856D01*
X0171179Y0129858D02*
X0084442Y0129858D01*
X0085441Y0128859D02*
X0171179Y0128859D01*
X0171179Y0127861D02*
X0086439Y0127861D01*
X0086564Y0123867D02*
X0117304Y0123867D01*
X0116590Y0122868D02*
X0085565Y0122868D01*
X0084566Y0121870D02*
X0116564Y0121870D01*
X0116564Y0120871D02*
X0041011Y0120871D01*
X0041394Y0121870D02*
X0068995Y0121870D01*
X0067997Y0122868D02*
X0041394Y0122868D01*
X0041311Y0123867D02*
X0067474Y0123867D01*
X0067072Y0124865D02*
X0040897Y0124865D01*
X0040208Y0125864D02*
X0067072Y0125864D01*
X0067112Y0126862D02*
X0039001Y0126862D01*
X0038421Y0128560D02*
X0039052Y0128882D01*
X0039625Y0129298D01*
X0040126Y0129799D01*
X0040543Y0130372D01*
X0040864Y0131003D01*
X0041083Y0131677D01*
X0041171Y0132231D01*
X0034194Y0132231D01*
X0034194Y0128231D01*
X0037048Y0128231D01*
X0037748Y0128342D01*
X0038421Y0128560D01*
X0039008Y0128859D02*
X0068121Y0128859D01*
X0067526Y0127861D02*
X0027242Y0127861D01*
X0027243Y0128859D02*
X0028380Y0128859D01*
X0028387Y0126862D02*
X0027240Y0126862D01*
X0033194Y0128859D02*
X0034194Y0128859D01*
X0034194Y0129858D02*
X0033194Y0129858D01*
X0033194Y0130856D02*
X0034194Y0130856D01*
X0034194Y0131855D02*
X0033194Y0131855D01*
X0034194Y0132853D02*
X0069022Y0132853D01*
X0069022Y0131855D02*
X0041111Y0131855D01*
X0040789Y0130856D02*
X0069022Y0130856D01*
X0069022Y0129858D02*
X0040169Y0129858D01*
X0041171Y0133231D02*
X0041083Y0133784D01*
X0040864Y0134458D01*
X0040543Y0135089D01*
X0040126Y0135662D01*
X0039625Y0136163D01*
X0039052Y0136579D01*
X0038421Y0136901D01*
X0037748Y0137120D01*
X0037048Y0137231D01*
X0034194Y0137231D01*
X0034194Y0133231D01*
X0041171Y0133231D01*
X0041061Y0133852D02*
X0069022Y0133852D01*
X0069022Y0134850D02*
X0040664Y0134850D01*
X0039940Y0135849D02*
X0069022Y0135849D01*
X0069022Y0136847D02*
X0038526Y0136847D01*
X0038694Y0140365D02*
X0035847Y0140365D01*
X0035847Y0145892D01*
X0034847Y0145892D01*
X0030698Y0145892D01*
X0030698Y0141667D01*
X0030800Y0141286D01*
X0030998Y0140944D01*
X0031277Y0140664D01*
X0031619Y0140467D01*
X0032000Y0140365D01*
X0034847Y0140365D01*
X0034847Y0145892D01*
X0034847Y0146892D01*
X0030698Y0146892D01*
X0030698Y0151117D01*
X0030800Y0151499D01*
X0030998Y0151841D01*
X0031277Y0152120D01*
X0031619Y0152317D01*
X0032000Y0152420D01*
X0034847Y0152420D01*
X0034847Y0146892D01*
X0035847Y0146892D01*
X0035847Y0152420D01*
X0038694Y0152420D01*
X0039076Y0152317D01*
X0039418Y0152120D01*
X0039697Y0151841D01*
X0039895Y0151499D01*
X0039997Y0151117D01*
X0039997Y0146892D01*
X0035847Y0146892D01*
X0035847Y0145892D01*
X0039997Y0145892D01*
X0039997Y0141667D01*
X0039895Y0141286D01*
X0039697Y0140944D01*
X0039418Y0140664D01*
X0039076Y0140467D01*
X0038694Y0140365D01*
X0039595Y0140841D02*
X0056325Y0140841D01*
X0056325Y0139843D02*
X0027264Y0139843D01*
X0027266Y0140841D02*
X0031100Y0140841D01*
X0030698Y0141840D02*
X0027268Y0141840D01*
X0027270Y0142839D02*
X0030698Y0142839D01*
X0030698Y0143837D02*
X0027272Y0143837D01*
X0027274Y0144836D02*
X0030698Y0144836D01*
X0030698Y0145834D02*
X0027275Y0145834D01*
X0027277Y0146833D02*
X0034847Y0146833D01*
X0034847Y0147831D02*
X0035847Y0147831D01*
X0035847Y0146833D02*
X0056325Y0146833D01*
X0056325Y0147831D02*
X0039997Y0147831D01*
X0039997Y0148830D02*
X0056325Y0148830D01*
X0056325Y0149828D02*
X0039997Y0149828D01*
X0039997Y0150827D02*
X0056325Y0150827D01*
X0056325Y0151825D02*
X0039706Y0151825D01*
X0035847Y0151825D02*
X0034847Y0151825D01*
X0034847Y0150827D02*
X0035847Y0150827D01*
X0035847Y0149828D02*
X0034847Y0149828D01*
X0034847Y0148830D02*
X0035847Y0148830D01*
X0035847Y0145834D02*
X0034847Y0145834D01*
X0034847Y0144836D02*
X0035847Y0144836D01*
X0035847Y0143837D02*
X0034847Y0143837D01*
X0034847Y0142839D02*
X0035847Y0142839D01*
X0035847Y0141840D02*
X0034847Y0141840D01*
X0034847Y0140841D02*
X0035847Y0140841D01*
X0034194Y0136847D02*
X0033194Y0136847D01*
X0033194Y0135849D02*
X0034194Y0135849D01*
X0034194Y0134850D02*
X0033194Y0134850D01*
X0033194Y0133852D02*
X0034194Y0133852D01*
X0028861Y0136847D02*
X0027259Y0136847D01*
X0027257Y0135849D02*
X0027448Y0135849D01*
X0027260Y0137846D02*
X0057159Y0137846D01*
X0056325Y0138844D02*
X0027262Y0138844D01*
X0027279Y0147831D02*
X0030698Y0147831D01*
X0030698Y0148830D02*
X0027281Y0148830D01*
X0027283Y0149828D02*
X0030698Y0149828D01*
X0030698Y0150827D02*
X0027285Y0150827D01*
X0027287Y0151825D02*
X0030989Y0151825D01*
X0027289Y0152824D02*
X0056461Y0152824D01*
X0058077Y0153822D02*
X0027291Y0153822D01*
X0027292Y0154821D02*
X0058077Y0154821D01*
X0058077Y0155819D02*
X0027294Y0155819D01*
X0027296Y0156818D02*
X0058077Y0156818D01*
X0058077Y0157816D02*
X0027298Y0157816D01*
X0027300Y0158815D02*
X0058077Y0158815D01*
X0058077Y0159813D02*
X0027302Y0159813D01*
X0027304Y0160812D02*
X0058077Y0160812D01*
X0058077Y0161810D02*
X0027306Y0161810D01*
X0027308Y0162809D02*
X0058077Y0162809D01*
X0058077Y0163807D02*
X0027309Y0163807D01*
X0027311Y0164806D02*
X0058077Y0164806D01*
X0058077Y0165804D02*
X0040038Y0165804D01*
X0040197Y0166803D02*
X0058077Y0166803D01*
X0058077Y0167801D02*
X0040197Y0167801D01*
X0040197Y0168800D02*
X0058077Y0168800D01*
X0058077Y0169798D02*
X0040197Y0169798D01*
X0040979Y0170797D02*
X0058077Y0170797D01*
X0058077Y0171795D02*
X0041978Y0171795D01*
X0042976Y0172794D02*
X0058077Y0172794D01*
X0050347Y0179783D02*
X0039997Y0179783D01*
X0039997Y0179699D02*
X0039997Y0183924D01*
X0035847Y0183924D01*
X0035847Y0178396D01*
X0038694Y0178396D01*
X0039076Y0178498D01*
X0039418Y0178696D01*
X0039697Y0178975D01*
X0039895Y0179317D01*
X0039997Y0179699D01*
X0039507Y0178785D02*
X0041229Y0178785D01*
X0039766Y0177786D02*
X0027336Y0177786D01*
X0027334Y0176788D02*
X0030859Y0176788D01*
X0030498Y0175789D02*
X0027332Y0175789D01*
X0027330Y0174791D02*
X0030498Y0174791D01*
X0030498Y0173792D02*
X0027328Y0173792D01*
X0027326Y0172794D02*
X0030498Y0172794D01*
X0030498Y0171795D02*
X0027324Y0171795D01*
X0027323Y0170797D02*
X0030498Y0170797D01*
X0030498Y0169798D02*
X0027321Y0169798D01*
X0027319Y0168800D02*
X0030498Y0168800D01*
X0030498Y0167801D02*
X0027317Y0167801D01*
X0027315Y0166803D02*
X0030498Y0166803D01*
X0030657Y0165804D02*
X0027313Y0165804D01*
X0027338Y0178785D02*
X0031188Y0178785D01*
X0031277Y0178696D02*
X0031619Y0178498D01*
X0032000Y0178396D01*
X0034847Y0178396D01*
X0034847Y0183924D01*
X0030698Y0183924D01*
X0030698Y0179699D01*
X0030800Y0179317D01*
X0030998Y0178975D01*
X0031277Y0178696D01*
X0030698Y0179783D02*
X0027340Y0179783D01*
X0027341Y0180782D02*
X0030698Y0180782D01*
X0030698Y0181780D02*
X0027343Y0181780D01*
X0027345Y0182779D02*
X0030698Y0182779D01*
X0030698Y0183777D02*
X0027347Y0183777D01*
X0027349Y0184776D02*
X0034847Y0184776D01*
X0034847Y0184924D02*
X0034847Y0183924D01*
X0035847Y0183924D01*
X0035847Y0184924D01*
X0034847Y0184924D01*
X0030698Y0184924D01*
X0030698Y0189149D01*
X0030800Y0189530D01*
X0030998Y0189872D01*
X0031277Y0190151D01*
X0031619Y0190349D01*
X0032000Y0190451D01*
X0034847Y0190451D01*
X0034847Y0184924D01*
X0034847Y0185774D02*
X0035847Y0185774D01*
X0035847Y0184924D02*
X0035847Y0190451D01*
X0038694Y0190451D01*
X0039076Y0190349D01*
X0039418Y0190151D01*
X0039697Y0189872D01*
X0039895Y0189530D01*
X0039997Y0189149D01*
X0039997Y0184924D01*
X0035847Y0184924D01*
X0035847Y0184776D02*
X0050347Y0184776D01*
X0050347Y0185774D02*
X0039997Y0185774D01*
X0039997Y0186773D02*
X0050347Y0186773D01*
X0050347Y0187772D02*
X0039997Y0187772D01*
X0039997Y0188770D02*
X0050347Y0188770D01*
X0050347Y0189769D02*
X0039757Y0189769D01*
X0035847Y0189769D02*
X0034847Y0189769D01*
X0034847Y0188770D02*
X0035847Y0188770D01*
X0035847Y0187772D02*
X0034847Y0187772D01*
X0034847Y0186773D02*
X0035847Y0186773D01*
X0035847Y0183777D02*
X0034847Y0183777D01*
X0034847Y0182779D02*
X0035847Y0182779D01*
X0035847Y0181780D02*
X0034847Y0181780D01*
X0034847Y0180782D02*
X0035847Y0180782D01*
X0035847Y0179783D02*
X0034847Y0179783D01*
X0034847Y0178785D02*
X0035847Y0178785D01*
X0039621Y0177641D02*
X0039621Y0177641D01*
X0039997Y0180782D02*
X0050347Y0180782D01*
X0050347Y0181780D02*
X0039997Y0181780D01*
X0039997Y0182779D02*
X0050347Y0182779D01*
X0050347Y0183777D02*
X0039997Y0183777D01*
X0030698Y0185774D02*
X0027351Y0185774D01*
X0027353Y0186773D02*
X0030698Y0186773D01*
X0030698Y0187772D02*
X0027355Y0187772D01*
X0027357Y0188770D02*
X0030698Y0188770D01*
X0030938Y0189769D02*
X0027358Y0189769D01*
X0027360Y0190767D02*
X0050347Y0190767D01*
X0050347Y0191766D02*
X0027362Y0191766D01*
X0027364Y0192764D02*
X0050347Y0192764D01*
X0050347Y0193763D02*
X0027366Y0193763D01*
X0027368Y0194761D02*
X0050347Y0194761D01*
X0050347Y0195760D02*
X0027370Y0195760D01*
X0027372Y0196758D02*
X0050347Y0196758D01*
X0049645Y0197757D02*
X0027373Y0197757D01*
X0027375Y0198755D02*
X0048096Y0198755D01*
X0047889Y0198962D02*
X0047889Y0198962D01*
X0047097Y0199754D02*
X0027377Y0199754D01*
X0027379Y0200752D02*
X0046099Y0200752D01*
X0045100Y0201751D02*
X0027381Y0201751D01*
X0027383Y0202749D02*
X0044102Y0202749D01*
X0043103Y0203748D02*
X0039950Y0203748D01*
X0040197Y0204746D02*
X0042105Y0204746D01*
X0041106Y0205745D02*
X0040197Y0205745D01*
X0044316Y0210737D02*
X0050347Y0210737D01*
X0050347Y0209739D02*
X0045315Y0209739D01*
X0046313Y0208740D02*
X0050347Y0208740D01*
X0050347Y0207742D02*
X0047312Y0207742D01*
X0048310Y0206743D02*
X0050347Y0206743D01*
X0050347Y0205745D02*
X0049309Y0205745D01*
X0050307Y0204746D02*
X0050347Y0204746D01*
X0050347Y0211736D02*
X0043246Y0211736D01*
X0040197Y0212734D02*
X0050347Y0212734D01*
X0050347Y0213733D02*
X0040197Y0213733D01*
X0039924Y0214731D02*
X0050347Y0214731D01*
X0050347Y0215730D02*
X0040611Y0215730D01*
X0040482Y0215676D02*
X0043422Y0216894D01*
X0045672Y0219144D01*
X0046890Y0222084D01*
X0046890Y0225267D01*
X0045672Y0228207D01*
X0043422Y0230457D01*
X0040482Y0231675D01*
X0037300Y0231675D01*
X0034360Y0230457D01*
X0032109Y0228207D01*
X0030891Y0225267D01*
X0030891Y0222084D01*
X0032109Y0219144D01*
X0034360Y0216894D01*
X0037300Y0215676D01*
X0040482Y0215676D01*
X0043022Y0216728D02*
X0050347Y0216728D01*
X0050347Y0217727D02*
X0044255Y0217727D01*
X0045253Y0218725D02*
X0050347Y0218725D01*
X0050347Y0219724D02*
X0045912Y0219724D01*
X0046326Y0220722D02*
X0050347Y0220722D01*
X0050347Y0221721D02*
X0046739Y0221721D01*
X0046890Y0222719D02*
X0050347Y0222719D01*
X0050347Y0223718D02*
X0046890Y0223718D01*
X0046890Y0224716D02*
X0050347Y0224716D01*
X0050347Y0225715D02*
X0046704Y0225715D01*
X0046291Y0226713D02*
X0050347Y0226713D01*
X0050347Y0227712D02*
X0045877Y0227712D01*
X0045168Y0228710D02*
X0050347Y0228710D01*
X0050347Y0229709D02*
X0044170Y0229709D01*
X0042817Y0230708D02*
X0050347Y0230708D01*
X0050347Y0231706D02*
X0027438Y0231706D01*
X0027436Y0230708D02*
X0034964Y0230708D01*
X0033612Y0229709D02*
X0027434Y0229709D01*
X0027432Y0228710D02*
X0032613Y0228710D01*
X0031904Y0227712D02*
X0027430Y0227712D01*
X0027428Y0226713D02*
X0031491Y0226713D01*
X0031077Y0225715D02*
X0027426Y0225715D01*
X0027424Y0224716D02*
X0030891Y0224716D01*
X0030891Y0223718D02*
X0027423Y0223718D01*
X0027421Y0222719D02*
X0030891Y0222719D01*
X0031042Y0221721D02*
X0027419Y0221721D01*
X0027417Y0220722D02*
X0031456Y0220722D01*
X0031869Y0219724D02*
X0027415Y0219724D01*
X0027413Y0218725D02*
X0032528Y0218725D01*
X0033527Y0217727D02*
X0027411Y0217727D01*
X0027409Y0216728D02*
X0034760Y0216728D01*
X0037170Y0215730D02*
X0027407Y0215730D01*
X0027406Y0214731D02*
X0030771Y0214731D01*
X0030498Y0213733D02*
X0027404Y0213733D01*
X0027402Y0212734D02*
X0030498Y0212734D01*
X0030498Y0211736D02*
X0027400Y0211736D01*
X0027398Y0210737D02*
X0030498Y0210737D01*
X0030498Y0209739D02*
X0027396Y0209739D01*
X0027394Y0208740D02*
X0030498Y0208740D01*
X0030498Y0207742D02*
X0027392Y0207742D01*
X0027390Y0206743D02*
X0030498Y0206743D01*
X0030498Y0205745D02*
X0027389Y0205745D01*
X0027387Y0204746D02*
X0030498Y0204746D01*
X0030745Y0203748D02*
X0027385Y0203748D01*
X0075885Y0174791D02*
X0081561Y0174791D01*
X0081395Y0174695D02*
X0081116Y0174416D01*
X0080918Y0174073D01*
X0080816Y0173692D01*
X0080816Y0171042D01*
X0084375Y0171042D01*
X0084375Y0174994D01*
X0082118Y0174994D01*
X0081737Y0174892D01*
X0081395Y0174695D01*
X0080843Y0173792D02*
X0075885Y0173792D01*
X0075885Y0172794D02*
X0080816Y0172794D01*
X0080816Y0171795D02*
X0075885Y0171795D01*
X0075885Y0170797D02*
X0084375Y0170797D01*
X0084375Y0171042D02*
X0084375Y0170042D01*
X0080816Y0170042D01*
X0080816Y0167391D01*
X0080918Y0167010D01*
X0081116Y0166668D01*
X0081395Y0166389D01*
X0081737Y0166191D01*
X0082118Y0166089D01*
X0084375Y0166089D01*
X0084375Y0170042D01*
X0085375Y0170042D01*
X0085375Y0166089D01*
X0087631Y0166089D01*
X0088013Y0166191D01*
X0088355Y0166389D01*
X0088474Y0166507D01*
X0089092Y0165889D01*
X0089770Y0165889D01*
X0089770Y0164045D01*
X0089719Y0163994D01*
X0089189Y0162714D01*
X0089189Y0161330D01*
X0089719Y0160050D01*
X0090698Y0159071D01*
X0091978Y0158541D01*
X0093363Y0158541D01*
X0094642Y0159071D01*
X0095621Y0160050D01*
X0096151Y0161330D01*
X0096151Y0162714D01*
X0095621Y0163994D01*
X0095570Y0164045D01*
X0095570Y0165889D01*
X0095618Y0165889D01*
X0096614Y0166885D01*
X0096614Y0174199D01*
X0095618Y0175194D01*
X0089092Y0175194D01*
X0088474Y0174576D01*
X0088355Y0174695D01*
X0088013Y0174892D01*
X0087631Y0174994D01*
X0085375Y0174994D01*
X0085375Y0171042D01*
X0084375Y0171042D01*
X0084375Y0171795D02*
X0085375Y0171795D01*
X0085375Y0172794D02*
X0084375Y0172794D01*
X0084375Y0173792D02*
X0085375Y0173792D01*
X0085375Y0174791D02*
X0084375Y0174791D01*
X0088189Y0174791D02*
X0088688Y0174791D01*
X0085375Y0169798D02*
X0084375Y0169798D01*
X0084375Y0168800D02*
X0085375Y0168800D01*
X0085375Y0167801D02*
X0084375Y0167801D01*
X0084375Y0166803D02*
X0085375Y0166803D01*
X0081038Y0166803D02*
X0075885Y0166803D01*
X0075885Y0167801D02*
X0080816Y0167801D01*
X0080816Y0168800D02*
X0075885Y0168800D01*
X0075885Y0169798D02*
X0080816Y0169798D01*
X0075885Y0165804D02*
X0089770Y0165804D01*
X0089770Y0164806D02*
X0075885Y0164806D01*
X0076876Y0163807D02*
X0089642Y0163807D01*
X0089228Y0162809D02*
X0077875Y0162809D01*
X0078873Y0161810D02*
X0089189Y0161810D01*
X0089404Y0160812D02*
X0079872Y0160812D01*
X0080870Y0159813D02*
X0089956Y0159813D01*
X0091317Y0158815D02*
X0081869Y0158815D01*
X0082867Y0157816D02*
X0098825Y0157816D01*
X0098825Y0156818D02*
X0083866Y0156818D01*
X0084864Y0155819D02*
X0098825Y0155819D01*
X0098825Y0154821D02*
X0085863Y0154821D01*
X0086861Y0153822D02*
X0098825Y0153822D01*
X0097131Y0152824D02*
X0093918Y0152824D01*
X0094055Y0151825D02*
X0096994Y0151825D01*
X0096994Y0150827D02*
X0094055Y0150827D01*
X0094055Y0149828D02*
X0096994Y0149828D01*
X0096994Y0148830D02*
X0094055Y0148830D01*
X0094055Y0147831D02*
X0096994Y0147831D01*
X0096994Y0146833D02*
X0094055Y0146833D01*
X0093729Y0145834D02*
X0097320Y0145834D01*
X0096994Y0138844D02*
X0094055Y0138844D01*
X0093221Y0137846D02*
X0097828Y0137846D01*
X0105465Y0137846D02*
X0171179Y0137846D01*
X0171179Y0138844D02*
X0160759Y0138844D01*
X0160895Y0138913D02*
X0160264Y0138592D01*
X0159590Y0138373D01*
X0159036Y0138285D01*
X0159036Y0145262D01*
X0158036Y0145262D01*
X0154036Y0145262D01*
X0154036Y0142408D01*
X0154147Y0141708D01*
X0154366Y0141035D01*
X0154688Y0140404D01*
X0155104Y0139831D01*
X0155605Y0139330D01*
X0156178Y0138913D01*
X0156809Y0138592D01*
X0157483Y0138373D01*
X0158036Y0138285D01*
X0158036Y0145262D01*
X0158036Y0146262D01*
X0154036Y0146262D01*
X0154036Y0149116D01*
X0154147Y0149816D01*
X0154366Y0150490D01*
X0154688Y0151121D01*
X0155104Y0151694D01*
X0155605Y0152195D01*
X0156178Y0152611D01*
X0156809Y0152933D01*
X0157483Y0153151D01*
X0158036Y0153239D01*
X0158036Y0146262D01*
X0159036Y0146262D01*
X0159036Y0153239D01*
X0159590Y0153151D01*
X0160264Y0152933D01*
X0160895Y0152611D01*
X0161468Y0152195D01*
X0161969Y0151694D01*
X0162385Y0151121D01*
X0162707Y0150490D01*
X0162926Y0149816D01*
X0163036Y0149116D01*
X0163036Y0146262D01*
X0159036Y0146262D01*
X0159036Y0145262D01*
X0163036Y0145262D01*
X0163036Y0142408D01*
X0162926Y0141708D01*
X0162707Y0141035D01*
X0162385Y0140404D01*
X0161969Y0139831D01*
X0161468Y0139330D01*
X0160895Y0138913D01*
X0161978Y0139843D02*
X0171179Y0139843D01*
X0171179Y0140841D02*
X0162608Y0140841D01*
X0162946Y0141840D02*
X0171179Y0141840D01*
X0171179Y0142839D02*
X0163036Y0142839D01*
X0163036Y0143837D02*
X0171179Y0143837D01*
X0171179Y0144836D02*
X0163036Y0144836D01*
X0163036Y0146833D02*
X0171179Y0146833D01*
X0171179Y0147831D02*
X0163036Y0147831D01*
X0163036Y0148830D02*
X0171179Y0148830D01*
X0171179Y0149828D02*
X0162922Y0149828D01*
X0162535Y0150827D02*
X0171179Y0150827D01*
X0171179Y0151825D02*
X0161837Y0151825D01*
X0160477Y0152824D02*
X0171179Y0152824D01*
X0171179Y0153822D02*
X0104625Y0153822D01*
X0104625Y0154821D02*
X0171179Y0154821D01*
X0171179Y0155819D02*
X0104625Y0155819D01*
X0104625Y0156818D02*
X0171179Y0156818D01*
X0171179Y0157816D02*
X0105325Y0157816D01*
X0106984Y0158815D02*
X0171166Y0158815D01*
X0171286Y0159813D02*
X0107660Y0159813D01*
X0107962Y0160812D02*
X0172286Y0160812D01*
X0173659Y0161810D02*
X0107962Y0161810D01*
X0107597Y0162809D02*
X0136027Y0162809D01*
X0134939Y0163807D02*
X0106832Y0163807D01*
X0102131Y0163807D02*
X0095699Y0163807D01*
X0095570Y0164806D02*
X0114143Y0164806D01*
X0114151Y0164798D02*
X0114493Y0164601D01*
X0114874Y0164498D01*
X0117131Y0164498D01*
X0117131Y0168451D01*
X0113572Y0168451D01*
X0113572Y0165801D01*
X0113674Y0165419D01*
X0113872Y0165077D01*
X0114151Y0164798D01*
X0113572Y0165804D02*
X0095570Y0165804D01*
X0096532Y0166803D02*
X0113572Y0166803D01*
X0113572Y0167801D02*
X0096614Y0167801D01*
X0096614Y0168800D02*
X0117131Y0168800D01*
X0117131Y0169451D02*
X0113572Y0169451D01*
X0113572Y0172101D01*
X0113674Y0172483D01*
X0113872Y0172825D01*
X0114151Y0173104D01*
X0114493Y0173302D01*
X0114874Y0173404D01*
X0117131Y0173404D01*
X0117131Y0169451D01*
X0117131Y0169798D02*
X0118131Y0169798D01*
X0118131Y0170797D02*
X0117131Y0170797D01*
X0117131Y0171795D02*
X0118131Y0171795D01*
X0118131Y0172794D02*
X0117131Y0172794D01*
X0113854Y0172794D02*
X0096614Y0172794D01*
X0096614Y0173792D02*
X0133837Y0173792D01*
X0133836Y0172794D02*
X0129184Y0172794D01*
X0134250Y0174791D02*
X0096022Y0174791D01*
X0096614Y0171795D02*
X0113572Y0171795D01*
X0113572Y0170797D02*
X0096614Y0170797D01*
X0096614Y0169798D02*
X0113572Y0169798D01*
X0117131Y0167801D02*
X0118131Y0167801D01*
X0118131Y0166803D02*
X0117131Y0166803D01*
X0117131Y0165804D02*
X0118131Y0165804D01*
X0118131Y0164806D02*
X0117131Y0164806D01*
X0121119Y0164806D02*
X0121341Y0164806D01*
X0128882Y0164806D02*
X0134299Y0164806D01*
X0133885Y0165804D02*
X0129370Y0165804D01*
X0135874Y0152747D02*
X0134552Y0151425D01*
X0133836Y0149697D01*
X0133836Y0148662D01*
X0129528Y0148662D01*
X0129528Y0149419D01*
X0128532Y0150415D01*
X0122005Y0150415D01*
X0121387Y0149797D01*
X0121268Y0149915D01*
X0120926Y0150113D01*
X0120545Y0150215D01*
X0118288Y0150215D01*
X0118288Y0146262D01*
X0117288Y0146262D01*
X0117288Y0145262D01*
X0113729Y0145262D01*
X0113729Y0142612D01*
X0113832Y0142230D01*
X0114029Y0141888D01*
X0114308Y0141609D01*
X0114650Y0141412D01*
X0115032Y0141309D01*
X0117288Y0141309D01*
X0117288Y0145262D01*
X0118288Y0145262D01*
X0118288Y0141309D01*
X0120545Y0141309D01*
X0120926Y0141412D01*
X0121268Y0141609D01*
X0121387Y0141728D01*
X0122005Y0141109D01*
X0128532Y0141109D01*
X0129528Y0142105D01*
X0129528Y0142862D01*
X0133836Y0142862D01*
X0133836Y0141827D01*
X0134552Y0140100D01*
X0135874Y0138778D01*
X0137601Y0138062D01*
X0139471Y0138062D01*
X0141199Y0138778D01*
X0142521Y0140100D01*
X0143236Y0141827D01*
X0143236Y0149697D01*
X0142521Y0151425D01*
X0141199Y0152747D01*
X0139471Y0153462D01*
X0137601Y0153462D01*
X0135874Y0152747D01*
X0136060Y0152824D02*
X0106163Y0152824D01*
X0106299Y0151825D02*
X0134952Y0151825D01*
X0134304Y0150827D02*
X0106299Y0150827D01*
X0106299Y0149828D02*
X0114221Y0149828D01*
X0114308Y0149915D02*
X0114029Y0149636D01*
X0113832Y0149294D01*
X0113729Y0148912D01*
X0113729Y0146262D01*
X0117288Y0146262D01*
X0117288Y0150215D01*
X0115032Y0150215D01*
X0114650Y0150113D01*
X0114308Y0149915D01*
X0113729Y0148830D02*
X0106299Y0148830D01*
X0106299Y0147831D02*
X0113729Y0147831D01*
X0113729Y0146833D02*
X0106299Y0146833D01*
X0105973Y0145834D02*
X0117288Y0145834D01*
X0117288Y0144836D02*
X0118288Y0144836D01*
X0118288Y0143837D02*
X0117288Y0143837D01*
X0117288Y0142839D02*
X0118288Y0142839D01*
X0118288Y0141840D02*
X0117288Y0141840D01*
X0114077Y0141840D02*
X0106299Y0141840D01*
X0106299Y0140841D02*
X0134245Y0140841D01*
X0133836Y0141840D02*
X0129262Y0141840D01*
X0129528Y0142839D02*
X0133836Y0142839D01*
X0134809Y0139843D02*
X0106299Y0139843D01*
X0106299Y0138844D02*
X0135807Y0138844D01*
X0141265Y0138844D02*
X0145807Y0138844D01*
X0145874Y0138778D02*
X0147601Y0138062D01*
X0149471Y0138062D01*
X0151199Y0138778D01*
X0152521Y0140100D01*
X0153236Y0141827D01*
X0153236Y0149697D01*
X0152521Y0151425D01*
X0151199Y0152747D01*
X0149471Y0153462D01*
X0147601Y0153462D01*
X0145874Y0152747D01*
X0144552Y0151425D01*
X0143836Y0149697D01*
X0143836Y0141827D01*
X0144552Y0140100D01*
X0145874Y0138778D01*
X0144809Y0139843D02*
X0142264Y0139843D01*
X0142828Y0140841D02*
X0144245Y0140841D01*
X0143836Y0141840D02*
X0143236Y0141840D01*
X0143236Y0142839D02*
X0143836Y0142839D01*
X0143836Y0143837D02*
X0143236Y0143837D01*
X0143236Y0144836D02*
X0143836Y0144836D01*
X0143836Y0145834D02*
X0143236Y0145834D01*
X0143236Y0146833D02*
X0143836Y0146833D01*
X0143836Y0147831D02*
X0143236Y0147831D01*
X0143236Y0148830D02*
X0143836Y0148830D01*
X0143891Y0149828D02*
X0143182Y0149828D01*
X0142769Y0150827D02*
X0144304Y0150827D01*
X0144952Y0151825D02*
X0142120Y0151825D01*
X0141013Y0152824D02*
X0146060Y0152824D01*
X0151013Y0152824D02*
X0156595Y0152824D01*
X0158036Y0152824D02*
X0159036Y0152824D01*
X0159036Y0151825D02*
X0158036Y0151825D01*
X0158036Y0150827D02*
X0159036Y0150827D01*
X0159036Y0149828D02*
X0158036Y0149828D01*
X0158036Y0148830D02*
X0159036Y0148830D01*
X0159036Y0147831D02*
X0158036Y0147831D01*
X0158036Y0146833D02*
X0159036Y0146833D01*
X0159036Y0145834D02*
X0171179Y0145834D01*
X0173379Y0145834D02*
X0204599Y0145834D01*
X0204599Y0144836D02*
X0173379Y0144836D01*
X0173379Y0143837D02*
X0204599Y0143837D01*
X0204599Y0142839D02*
X0173379Y0142839D01*
X0173379Y0141840D02*
X0204599Y0141840D01*
X0204599Y0140841D02*
X0173379Y0140841D01*
X0173379Y0139843D02*
X0204599Y0139843D01*
X0204599Y0138844D02*
X0173379Y0138844D01*
X0173379Y0137846D02*
X0204599Y0137846D01*
X0204599Y0136847D02*
X0173379Y0136847D01*
X0173379Y0135849D02*
X0204599Y0135849D01*
X0204599Y0134850D02*
X0173379Y0134850D01*
X0173379Y0133852D02*
X0204599Y0133852D01*
X0204599Y0132853D02*
X0173379Y0132853D01*
X0173379Y0131855D02*
X0204599Y0131855D01*
X0204599Y0130856D02*
X0173379Y0130856D01*
X0173379Y0129858D02*
X0204599Y0129858D01*
X0204599Y0128859D02*
X0173379Y0128859D01*
X0173379Y0127861D02*
X0204599Y0127861D01*
X0204599Y0146833D02*
X0173379Y0146833D01*
X0173379Y0147831D02*
X0204599Y0147831D01*
X0204599Y0148830D02*
X0173379Y0148830D01*
X0173379Y0149828D02*
X0204599Y0149828D01*
X0204599Y0150827D02*
X0173379Y0150827D01*
X0173379Y0151825D02*
X0204599Y0151825D01*
X0204599Y0152824D02*
X0173379Y0152824D01*
X0173379Y0153822D02*
X0204599Y0153822D01*
X0204599Y0154821D02*
X0173379Y0154821D01*
X0173379Y0155819D02*
X0204599Y0155819D01*
X0204599Y0156818D02*
X0173379Y0156818D01*
X0173379Y0157816D02*
X0204599Y0157816D01*
X0204599Y0158815D02*
X0173406Y0158815D01*
X0174678Y0159813D02*
X0204599Y0159813D01*
X0204599Y0160812D02*
X0175950Y0160812D01*
X0177222Y0161810D02*
X0204599Y0161810D01*
X0204599Y0162809D02*
X0178494Y0162809D01*
X0179766Y0163807D02*
X0204599Y0163807D01*
X0204599Y0164806D02*
X0181038Y0164806D01*
X0182311Y0165804D02*
X0204599Y0165804D01*
X0204599Y0166803D02*
X0183583Y0166803D01*
X0184855Y0167801D02*
X0204599Y0167801D01*
X0204599Y0168800D02*
X0186127Y0168800D01*
X0187399Y0169798D02*
X0204599Y0169798D01*
X0186369Y0174791D02*
X0162601Y0174791D01*
X0161968Y0175789D02*
X0185414Y0175789D01*
X0182564Y0168800D02*
X0163036Y0168800D01*
X0163036Y0167801D02*
X0181292Y0167801D01*
X0180020Y0166803D02*
X0163036Y0166803D01*
X0162926Y0165804D02*
X0178747Y0165804D01*
X0177475Y0164806D02*
X0162542Y0164806D01*
X0161851Y0163807D02*
X0176203Y0163807D01*
X0174931Y0162809D02*
X0160504Y0162809D01*
X0155222Y0163807D02*
X0152134Y0163807D01*
X0152774Y0164806D02*
X0154531Y0164806D01*
X0154147Y0165804D02*
X0153188Y0165804D01*
X0153236Y0166803D02*
X0154036Y0166803D01*
X0154036Y0167801D02*
X0153236Y0167801D01*
X0153236Y0168800D02*
X0154036Y0168800D01*
X0149471Y0186251D02*
X0147601Y0186251D01*
X0145874Y0186967D01*
X0144552Y0188289D01*
X0143836Y0190016D01*
X0143836Y0197886D01*
X0144552Y0199614D01*
X0145874Y0200936D01*
X0147601Y0201651D01*
X0149471Y0201651D01*
X0151199Y0200936D01*
X0152521Y0199614D01*
X0153236Y0197886D01*
X0153236Y0190016D01*
X0152521Y0188289D01*
X0151199Y0186967D01*
X0149471Y0186251D01*
X0150731Y0186773D02*
X0156833Y0186773D01*
X0158036Y0186773D02*
X0159036Y0186773D01*
X0159036Y0187772D02*
X0158036Y0187772D01*
X0158036Y0188770D02*
X0159036Y0188770D01*
X0159036Y0189769D02*
X0158036Y0189769D01*
X0158036Y0190767D02*
X0159036Y0190767D01*
X0159036Y0191766D02*
X0158036Y0191766D01*
X0158036Y0192764D02*
X0159036Y0192764D01*
X0159036Y0193763D02*
X0188081Y0193763D01*
X0186558Y0202749D02*
X0112591Y0202749D01*
X0112591Y0203748D02*
X0188465Y0203748D01*
X0192037Y0216500D02*
X0194977Y0215283D01*
X0198159Y0215283D01*
X0201099Y0216500D01*
X0203349Y0218751D01*
X0204567Y0221691D01*
X0204567Y0224873D01*
X0203349Y0227813D01*
X0201099Y0230063D01*
X0198159Y0231281D01*
X0194977Y0231281D01*
X0192037Y0230063D01*
X0189786Y0227813D01*
X0188569Y0224873D01*
X0188569Y0221691D01*
X0189786Y0218751D01*
X0192037Y0216500D01*
X0191809Y0216728D02*
X0145260Y0216728D01*
X0144543Y0215730D02*
X0193897Y0215730D01*
X0190810Y0217727D02*
X0146708Y0217727D01*
X0148469Y0218725D02*
X0152543Y0218725D01*
X0152416Y0218818D02*
X0152989Y0218402D01*
X0153620Y0218080D01*
X0154294Y0217861D01*
X0154847Y0217773D01*
X0154847Y0224750D01*
X0150847Y0224750D01*
X0150847Y0221896D01*
X0150958Y0221197D01*
X0151177Y0220523D01*
X0151499Y0219892D01*
X0151915Y0219319D01*
X0152416Y0218818D01*
X0151621Y0219724D02*
X0149388Y0219724D01*
X0149802Y0220722D02*
X0151112Y0220722D01*
X0150875Y0221721D02*
X0150047Y0221721D01*
X0150047Y0222719D02*
X0150847Y0222719D01*
X0150847Y0223718D02*
X0150047Y0223718D01*
X0150047Y0224716D02*
X0150847Y0224716D01*
X0150047Y0225715D02*
X0154847Y0225715D01*
X0154847Y0224716D02*
X0155847Y0224716D01*
X0155847Y0223718D02*
X0154847Y0223718D01*
X0154847Y0222719D02*
X0155847Y0222719D01*
X0155847Y0221721D02*
X0154847Y0221721D01*
X0154847Y0220722D02*
X0155847Y0220722D01*
X0155847Y0219724D02*
X0154847Y0219724D01*
X0154847Y0218725D02*
X0155847Y0218725D01*
X0158151Y0218725D02*
X0189812Y0218725D01*
X0189383Y0219724D02*
X0159074Y0219724D01*
X0159582Y0220722D02*
X0188970Y0220722D01*
X0188569Y0221721D02*
X0159820Y0221721D01*
X0159847Y0222719D02*
X0188569Y0222719D01*
X0188569Y0223718D02*
X0159847Y0223718D01*
X0159847Y0224716D02*
X0188569Y0224716D01*
X0188917Y0225715D02*
X0155847Y0225715D01*
X0159847Y0226713D02*
X0189331Y0226713D01*
X0189745Y0227712D02*
X0159847Y0227712D01*
X0159831Y0228710D02*
X0190684Y0228710D01*
X0191682Y0229709D02*
X0159605Y0229709D01*
X0159124Y0230708D02*
X0193592Y0230708D01*
X0199544Y0230708D02*
X0208726Y0230708D01*
X0208726Y0231706D02*
X0158247Y0231706D01*
X0152448Y0231706D02*
X0148539Y0231706D01*
X0149417Y0230708D02*
X0151570Y0230708D01*
X0151090Y0229709D02*
X0149830Y0229709D01*
X0150047Y0228710D02*
X0150864Y0228710D01*
X0150847Y0227712D02*
X0150047Y0227712D01*
X0150047Y0226713D02*
X0150847Y0226713D01*
X0143827Y0214731D02*
X0208726Y0214731D01*
X0208726Y0213733D02*
X0143110Y0213733D01*
X0142394Y0212734D02*
X0208726Y0212734D01*
X0208726Y0211736D02*
X0118996Y0211736D01*
X0141382Y0200752D02*
X0145691Y0200752D01*
X0144692Y0199754D02*
X0142381Y0199754D01*
X0142876Y0198755D02*
X0144196Y0198755D01*
X0143836Y0197757D02*
X0143236Y0197757D01*
X0143236Y0196758D02*
X0143836Y0196758D01*
X0143836Y0195760D02*
X0143236Y0195760D01*
X0143236Y0194761D02*
X0143836Y0194761D01*
X0143836Y0193763D02*
X0143236Y0193763D01*
X0143236Y0192764D02*
X0143836Y0192764D01*
X0143836Y0191766D02*
X0143236Y0191766D01*
X0143236Y0190767D02*
X0143836Y0190767D01*
X0143939Y0189769D02*
X0143134Y0189769D01*
X0142720Y0188770D02*
X0144353Y0188770D01*
X0145069Y0187772D02*
X0142004Y0187772D01*
X0140731Y0186773D02*
X0146342Y0186773D01*
X0152004Y0187772D02*
X0155352Y0187772D01*
X0154597Y0188770D02*
X0152720Y0188770D01*
X0153134Y0189769D02*
X0154189Y0189769D01*
X0154036Y0190767D02*
X0153236Y0190767D01*
X0153236Y0191766D02*
X0154036Y0191766D01*
X0154036Y0192764D02*
X0153236Y0192764D01*
X0153236Y0193763D02*
X0158036Y0193763D01*
X0158036Y0194451D02*
X0154036Y0194451D01*
X0154036Y0197305D01*
X0154147Y0198005D01*
X0154366Y0198679D01*
X0154688Y0199310D01*
X0155104Y0199883D01*
X0155605Y0200384D01*
X0156178Y0200800D01*
X0156809Y0201121D01*
X0157483Y0201340D01*
X0158036Y0201428D01*
X0158036Y0194451D01*
X0158036Y0194761D02*
X0159036Y0194761D01*
X0159036Y0195760D02*
X0158036Y0195760D01*
X0158036Y0196758D02*
X0159036Y0196758D01*
X0159036Y0197757D02*
X0158036Y0197757D01*
X0158036Y0198755D02*
X0159036Y0198755D01*
X0159036Y0199754D02*
X0158036Y0199754D01*
X0158036Y0200752D02*
X0159036Y0200752D01*
X0156112Y0200752D02*
X0151382Y0200752D01*
X0152381Y0199754D02*
X0155010Y0199754D01*
X0154405Y0198755D02*
X0152876Y0198755D01*
X0153236Y0197757D02*
X0154108Y0197757D01*
X0154036Y0196758D02*
X0153236Y0196758D01*
X0153236Y0195760D02*
X0154036Y0195760D01*
X0154036Y0194761D02*
X0153236Y0194761D01*
X0152120Y0151825D02*
X0155235Y0151825D01*
X0154538Y0150827D02*
X0152769Y0150827D01*
X0153182Y0149828D02*
X0154151Y0149828D01*
X0154036Y0148830D02*
X0153236Y0148830D01*
X0153236Y0147831D02*
X0154036Y0147831D01*
X0154036Y0146833D02*
X0153236Y0146833D01*
X0153236Y0145834D02*
X0158036Y0145834D01*
X0158036Y0144836D02*
X0159036Y0144836D01*
X0159036Y0143837D02*
X0158036Y0143837D01*
X0158036Y0142839D02*
X0159036Y0142839D01*
X0159036Y0141840D02*
X0158036Y0141840D01*
X0158036Y0140841D02*
X0159036Y0140841D01*
X0159036Y0139843D02*
X0158036Y0139843D01*
X0158036Y0138844D02*
X0159036Y0138844D01*
X0156313Y0138844D02*
X0151265Y0138844D01*
X0152264Y0139843D02*
X0155095Y0139843D01*
X0154465Y0140841D02*
X0152828Y0140841D01*
X0153236Y0141840D02*
X0154126Y0141840D01*
X0154036Y0142839D02*
X0153236Y0142839D01*
X0153236Y0143837D02*
X0154036Y0143837D01*
X0154036Y0144836D02*
X0153236Y0144836D01*
X0171179Y0136847D02*
X0074822Y0136847D01*
X0074822Y0135849D02*
X0171179Y0135849D01*
X0171179Y0134850D02*
X0074822Y0134850D01*
X0074822Y0133852D02*
X0171179Y0133852D01*
X0171179Y0132853D02*
X0074822Y0132853D01*
X0074822Y0131855D02*
X0171179Y0131855D01*
X0171179Y0126862D02*
X0150604Y0126862D01*
X0152412Y0125864D02*
X0156566Y0125864D01*
X0155621Y0124865D02*
X0153351Y0124865D01*
X0153764Y0123867D02*
X0155099Y0123867D01*
X0154857Y0122868D02*
X0154024Y0122868D01*
X0154024Y0121870D02*
X0154824Y0121870D01*
X0154824Y0120871D02*
X0154024Y0120871D01*
X0154024Y0119873D02*
X0154824Y0119873D01*
X0158824Y0119873D02*
X0159824Y0119873D01*
X0159824Y0120871D02*
X0158824Y0120871D01*
X0158824Y0121870D02*
X0159824Y0121870D01*
X0159824Y0122868D02*
X0158824Y0122868D01*
X0158824Y0123867D02*
X0159824Y0123867D01*
X0159824Y0124865D02*
X0158824Y0124865D01*
X0158824Y0125864D02*
X0159824Y0125864D01*
X0162082Y0125864D02*
X0171179Y0125864D01*
X0171179Y0124865D02*
X0163026Y0124865D01*
X0163548Y0123867D02*
X0171179Y0123867D01*
X0171179Y0122868D02*
X0163791Y0122868D01*
X0163824Y0121870D02*
X0171179Y0121870D01*
X0171179Y0120871D02*
X0163824Y0120871D01*
X0163824Y0119873D02*
X0171179Y0119873D01*
X0171179Y0110886D02*
X0113704Y0110886D01*
X0113964Y0109888D02*
X0171179Y0109888D01*
X0171179Y0108889D02*
X0113964Y0108889D01*
X0113964Y0107891D02*
X0171179Y0107891D01*
X0159824Y0112883D02*
X0158824Y0112883D01*
X0158824Y0113882D02*
X0159824Y0113882D01*
X0159824Y0114880D02*
X0158824Y0114880D01*
X0158824Y0115879D02*
X0159824Y0115879D01*
X0159824Y0116877D02*
X0158824Y0116877D01*
X0134827Y0114880D02*
X0040891Y0114880D01*
X0040193Y0115879D02*
X0116787Y0115879D01*
X0116864Y0115747D02*
X0117143Y0115467D01*
X0117485Y0115270D01*
X0117866Y0115168D01*
X0120123Y0115168D01*
X0120123Y0119120D01*
X0116564Y0119120D01*
X0116564Y0116470D01*
X0116666Y0116089D01*
X0116864Y0115747D01*
X0116564Y0116877D02*
X0038965Y0116877D01*
X0039484Y0118874D02*
X0116564Y0118874D01*
X0116564Y0117876D02*
X0027223Y0117876D01*
X0027225Y0118874D02*
X0027904Y0118874D01*
X0028423Y0116877D02*
X0027221Y0116877D01*
X0027206Y0108889D02*
X0027889Y0108889D01*
X0027204Y0107891D02*
X0052905Y0107891D01*
X0052905Y0106892D02*
X0027202Y0106892D01*
X0027181Y0095908D02*
X0134750Y0095908D01*
X0134750Y0094910D02*
X0027179Y0094910D01*
X0027177Y0093911D02*
X0134750Y0093911D01*
X0134750Y0092913D02*
X0027176Y0092913D01*
X0027174Y0091914D02*
X0134750Y0091914D01*
X0134750Y0090916D02*
X0027172Y0090916D01*
X0027170Y0089917D02*
X0134750Y0089917D01*
X0135613Y0088919D02*
X0027168Y0088919D01*
X0027166Y0087920D02*
X0136511Y0087920D01*
X0136925Y0086922D02*
X0132811Y0086922D01*
X0132470Y0087263D02*
X0130844Y0087263D01*
X0130844Y0082913D01*
X0130244Y0082913D01*
X0130244Y0087263D01*
X0128618Y0087263D01*
X0125894Y0084539D01*
X0125894Y0082913D01*
X0130244Y0082913D01*
X0130244Y0082313D01*
X0125894Y0082313D01*
X0125894Y0080687D01*
X0128618Y0077963D01*
X0130244Y0077963D01*
X0130244Y0082313D01*
X0130844Y0082313D01*
X0130844Y0082913D01*
X0135194Y0082913D01*
X0135194Y0084539D01*
X0132470Y0087263D01*
X0130844Y0086922D02*
X0130244Y0086922D01*
X0130244Y0085923D02*
X0130844Y0085923D01*
X0130844Y0084925D02*
X0130244Y0084925D01*
X0130244Y0083926D02*
X0130844Y0083926D01*
X0130844Y0082928D02*
X0130244Y0082928D01*
X0130844Y0082313D02*
X0130844Y0077963D01*
X0132470Y0077963D01*
X0135194Y0080687D01*
X0135194Y0082313D01*
X0130844Y0082313D01*
X0130844Y0081929D02*
X0130244Y0081929D01*
X0130244Y0080931D02*
X0130844Y0080931D01*
X0130844Y0079932D02*
X0130244Y0079932D01*
X0130244Y0078934D02*
X0130844Y0078934D01*
X0131509Y0077463D02*
X0129580Y0077463D01*
X0127797Y0076724D01*
X0126433Y0075360D01*
X0125694Y0073577D01*
X0125694Y0071648D01*
X0126433Y0069865D01*
X0127797Y0068501D01*
X0129580Y0067763D01*
X0131509Y0067763D01*
X0133292Y0068501D01*
X0134656Y0069865D01*
X0135394Y0071648D01*
X0135394Y0073577D01*
X0134656Y0075360D01*
X0133292Y0076724D01*
X0131509Y0077463D01*
X0132778Y0076937D02*
X0146883Y0076937D01*
X0145884Y0077935D02*
X0027147Y0077935D01*
X0027145Y0076937D02*
X0128310Y0076937D01*
X0127011Y0075938D02*
X0027144Y0075938D01*
X0027142Y0074940D02*
X0126259Y0074940D01*
X0125845Y0073941D02*
X0027140Y0073941D01*
X0027138Y0072943D02*
X0125694Y0072943D01*
X0125694Y0071944D02*
X0027136Y0071944D01*
X0027134Y0070946D02*
X0125985Y0070946D01*
X0126399Y0069947D02*
X0027132Y0069947D01*
X0027130Y0068949D02*
X0127349Y0068949D01*
X0129127Y0067950D02*
X0027128Y0067950D01*
X0027127Y0066952D02*
X0153274Y0066952D01*
X0152117Y0065953D02*
X0027125Y0065953D01*
X0027123Y0064955D02*
X0150960Y0064955D01*
X0149803Y0063956D02*
X0027121Y0063956D01*
X0027119Y0062958D02*
X0148645Y0062958D01*
X0147488Y0061959D02*
X0027117Y0061959D01*
X0027115Y0060961D02*
X0146331Y0060961D01*
X0145173Y0059962D02*
X0027113Y0059962D01*
X0027111Y0058964D02*
X0144016Y0058964D01*
X0143344Y0057965D02*
X0027110Y0057965D01*
X0027108Y0056967D02*
X0143308Y0056967D01*
X0143344Y0055968D02*
X0027106Y0055968D01*
X0027104Y0054970D02*
X0143344Y0054970D01*
X0143344Y0053971D02*
X0027102Y0053971D01*
X0027100Y0052972D02*
X0143344Y0052972D01*
X0143344Y0051974D02*
X0027098Y0051974D01*
X0027096Y0050975D02*
X0135376Y0050975D01*
X0135155Y0050940D02*
X0134403Y0050696D01*
X0133698Y0050337D01*
X0133058Y0049872D01*
X0132499Y0049313D01*
X0132034Y0048673D01*
X0131675Y0047968D01*
X0131430Y0047216D01*
X0131307Y0046435D01*
X0131307Y0043014D01*
X0135832Y0043014D01*
X0135832Y0051048D01*
X0135155Y0050940D01*
X0135832Y0050975D02*
X0136832Y0050975D01*
X0136832Y0051048D02*
X0136832Y0043014D01*
X0141357Y0043014D01*
X0141357Y0046435D01*
X0141233Y0047216D01*
X0140988Y0047968D01*
X0140629Y0048673D01*
X0140165Y0049313D01*
X0139605Y0049872D01*
X0138965Y0050337D01*
X0138261Y0050696D01*
X0137508Y0050940D01*
X0136832Y0051048D01*
X0137287Y0050975D02*
X0143344Y0050975D01*
X0143344Y0049977D02*
X0139461Y0049977D01*
X0140407Y0048978D02*
X0143344Y0048978D01*
X0143344Y0047980D02*
X0140982Y0047980D01*
X0141270Y0046981D02*
X0143344Y0046981D01*
X0143344Y0045983D02*
X0141357Y0045983D01*
X0141357Y0044984D02*
X0143344Y0044984D01*
X0143344Y0043986D02*
X0141357Y0043986D01*
X0141357Y0042014D02*
X0136832Y0042014D01*
X0136832Y0043014D01*
X0135832Y0043014D01*
X0135832Y0042014D01*
X0136832Y0042014D01*
X0136832Y0033981D01*
X0137508Y0034088D01*
X0138261Y0034332D01*
X0138965Y0034691D01*
X0139605Y0035156D01*
X0140165Y0035716D01*
X0140629Y0036355D01*
X0140988Y0037060D01*
X0141233Y0037812D01*
X0141357Y0038594D01*
X0141357Y0042014D01*
X0141357Y0041989D02*
X0143344Y0041989D01*
X0143344Y0042987D02*
X0136832Y0042987D01*
X0136832Y0041989D02*
X0135832Y0041989D01*
X0135832Y0042014D02*
X0135832Y0033981D01*
X0135155Y0034088D01*
X0134403Y0034332D01*
X0133698Y0034691D01*
X0133058Y0035156D01*
X0132499Y0035716D01*
X0132034Y0036355D01*
X0131675Y0037060D01*
X0131430Y0037812D01*
X0131307Y0038594D01*
X0131307Y0042014D01*
X0135832Y0042014D01*
X0135832Y0042987D02*
X0043790Y0042987D01*
X0043816Y0042977D02*
X0040876Y0044194D01*
X0037693Y0044194D01*
X0034753Y0042977D01*
X0032503Y0040726D01*
X0031285Y0037786D01*
X0031285Y0034604D01*
X0032503Y0031664D01*
X0034753Y0029414D01*
X0037693Y0028196D01*
X0040876Y0028196D01*
X0043816Y0029414D01*
X0046066Y0031664D01*
X0047284Y0034604D01*
X0047284Y0037786D01*
X0046066Y0040726D01*
X0043816Y0042977D01*
X0044803Y0041989D02*
X0131307Y0041989D01*
X0131307Y0040990D02*
X0045802Y0040990D01*
X0046370Y0039992D02*
X0055184Y0039992D01*
X0055029Y0039913D02*
X0054460Y0039499D01*
X0053962Y0039002D01*
X0053549Y0038433D01*
X0053230Y0037806D01*
X0053012Y0037137D01*
X0052902Y0036443D01*
X0052902Y0033607D01*
X0056886Y0033607D01*
X0056886Y0040538D01*
X0056324Y0040449D01*
X0055655Y0040232D01*
X0055029Y0039913D01*
X0053956Y0038993D02*
X0046784Y0038993D01*
X0047197Y0037995D02*
X0053326Y0037995D01*
X0052990Y0036996D02*
X0047284Y0036996D01*
X0047284Y0035998D02*
X0052902Y0035998D01*
X0052902Y0034999D02*
X0047284Y0034999D01*
X0047034Y0034001D02*
X0052902Y0034001D01*
X0052902Y0032004D02*
X0046206Y0032004D01*
X0046620Y0033002D02*
X0056886Y0033002D01*
X0057855Y0033002D02*
X0067134Y0033002D01*
X0068103Y0033002D02*
X0094983Y0033002D01*
X0094983Y0032004D02*
X0072087Y0032004D01*
X0072087Y0031005D02*
X0094983Y0031005D01*
X0094983Y0030007D02*
X0072087Y0030007D01*
X0071950Y0029008D02*
X0095065Y0029008D01*
X0095479Y0028010D02*
X0071550Y0028010D01*
X0070813Y0027011D02*
X0096174Y0027011D01*
X0103129Y0027011D02*
X0105953Y0027011D01*
X0105247Y0028010D02*
X0103824Y0028010D01*
X0104237Y0029008D02*
X0104834Y0029008D01*
X0104743Y0030007D02*
X0104320Y0030007D01*
X0104320Y0031005D02*
X0104743Y0031005D01*
X0104743Y0032004D02*
X0104320Y0032004D01*
X0104320Y0033002D02*
X0104743Y0033002D01*
X0104743Y0034001D02*
X0104320Y0034001D01*
X0104320Y0034999D02*
X0104743Y0034999D01*
X0104743Y0035998D02*
X0104320Y0035998D01*
X0104320Y0036996D02*
X0104743Y0036996D01*
X0105147Y0037995D02*
X0103909Y0037995D01*
X0103333Y0038993D02*
X0105712Y0038993D01*
X0106710Y0039992D02*
X0102335Y0039992D01*
X0096968Y0039992D02*
X0069770Y0039992D01*
X0071018Y0038993D02*
X0095969Y0038993D01*
X0095394Y0037995D02*
X0071654Y0037995D01*
X0071996Y0036996D02*
X0094983Y0036996D01*
X0094983Y0035998D02*
X0072087Y0035998D01*
X0072087Y0034999D02*
X0094983Y0034999D01*
X0094983Y0034001D02*
X0072087Y0034001D01*
X0068103Y0034001D02*
X0067134Y0034001D01*
X0067134Y0034999D02*
X0068103Y0034999D01*
X0068103Y0035998D02*
X0067134Y0035998D01*
X0067134Y0036996D02*
X0068103Y0036996D01*
X0068103Y0037995D02*
X0067134Y0037995D01*
X0067134Y0038993D02*
X0068103Y0038993D01*
X0068103Y0039992D02*
X0067134Y0039992D01*
X0065466Y0039992D02*
X0059557Y0039992D01*
X0059713Y0039913D02*
X0059086Y0040232D01*
X0058417Y0040449D01*
X0057855Y0040538D01*
X0057855Y0033607D01*
X0061839Y0033607D01*
X0061839Y0036443D01*
X0061729Y0037137D01*
X0061512Y0037806D01*
X0061193Y0038433D01*
X0060779Y0039002D01*
X0060282Y0039499D01*
X0059713Y0039913D01*
X0060785Y0038993D02*
X0064219Y0038993D01*
X0063582Y0037995D02*
X0061416Y0037995D01*
X0061752Y0036996D02*
X0063240Y0036996D01*
X0063150Y0035998D02*
X0061839Y0035998D01*
X0061839Y0034999D02*
X0063150Y0034999D01*
X0063150Y0034001D02*
X0061839Y0034001D01*
X0061839Y0032004D02*
X0063150Y0032004D01*
X0063150Y0031005D02*
X0061839Y0031005D01*
X0061839Y0030007D02*
X0063150Y0030007D01*
X0063286Y0029008D02*
X0061697Y0029008D01*
X0061293Y0028010D02*
X0063687Y0028010D01*
X0064424Y0027011D02*
X0060547Y0027011D01*
X0057855Y0034001D02*
X0056886Y0034001D01*
X0056886Y0034999D02*
X0057855Y0034999D01*
X0057855Y0035998D02*
X0056886Y0035998D01*
X0056886Y0036996D02*
X0057855Y0036996D01*
X0057855Y0037995D02*
X0056886Y0037995D01*
X0056886Y0038993D02*
X0057855Y0038993D01*
X0057855Y0039992D02*
X0056886Y0039992D01*
X0052902Y0031005D02*
X0045407Y0031005D01*
X0044408Y0030007D02*
X0052902Y0030007D01*
X0053044Y0029008D02*
X0042836Y0029008D01*
X0035733Y0029008D02*
X0027055Y0029008D01*
X0027053Y0028010D02*
X0053448Y0028010D01*
X0054194Y0027011D02*
X0027051Y0027011D01*
X0027057Y0030007D02*
X0034160Y0030007D01*
X0033162Y0031005D02*
X0027059Y0031005D01*
X0027061Y0032004D02*
X0032362Y0032004D01*
X0031949Y0033002D02*
X0027062Y0033002D01*
X0027064Y0034001D02*
X0031535Y0034001D01*
X0031285Y0034999D02*
X0027066Y0034999D01*
X0027068Y0035998D02*
X0031285Y0035998D01*
X0031285Y0036996D02*
X0027070Y0036996D01*
X0027072Y0037995D02*
X0031372Y0037995D01*
X0031785Y0038993D02*
X0027074Y0038993D01*
X0027076Y0039992D02*
X0032199Y0039992D01*
X0032767Y0040990D02*
X0027078Y0040990D01*
X0027079Y0041989D02*
X0033765Y0041989D01*
X0034779Y0042987D02*
X0027081Y0042987D01*
X0027083Y0043986D02*
X0037190Y0043986D01*
X0041379Y0043986D02*
X0131307Y0043986D01*
X0131307Y0044984D02*
X0027085Y0044984D01*
X0027087Y0045983D02*
X0131307Y0045983D01*
X0131393Y0046981D02*
X0027089Y0046981D01*
X0027091Y0047980D02*
X0131681Y0047980D01*
X0132256Y0048978D02*
X0027093Y0048978D01*
X0027095Y0049977D02*
X0133203Y0049977D01*
X0135832Y0049977D02*
X0136832Y0049977D01*
X0136832Y0048978D02*
X0135832Y0048978D01*
X0135832Y0047980D02*
X0136832Y0047980D01*
X0136832Y0046981D02*
X0135832Y0046981D01*
X0135832Y0045983D02*
X0136832Y0045983D01*
X0136832Y0044984D02*
X0135832Y0044984D01*
X0135832Y0043986D02*
X0136832Y0043986D01*
X0136832Y0040990D02*
X0135832Y0040990D01*
X0135832Y0039992D02*
X0136832Y0039992D01*
X0136832Y0038993D02*
X0135832Y0038993D01*
X0135832Y0037995D02*
X0136832Y0037995D01*
X0136832Y0036996D02*
X0135832Y0036996D01*
X0135832Y0035998D02*
X0136832Y0035998D01*
X0136832Y0034999D02*
X0135832Y0034999D01*
X0135832Y0034001D02*
X0136832Y0034001D01*
X0136958Y0034001D02*
X0143344Y0034001D01*
X0143344Y0034999D02*
X0139389Y0034999D01*
X0140370Y0035998D02*
X0143344Y0035998D01*
X0143344Y0036996D02*
X0140956Y0036996D01*
X0141262Y0037995D02*
X0143344Y0037995D01*
X0143344Y0038993D02*
X0141357Y0038993D01*
X0141357Y0039992D02*
X0143344Y0039992D01*
X0143344Y0040990D02*
X0141357Y0040990D01*
X0145544Y0040990D02*
X0184599Y0040990D01*
X0184599Y0039992D02*
X0145544Y0039992D01*
X0145544Y0038993D02*
X0184599Y0038993D01*
X0184599Y0037995D02*
X0145544Y0037995D01*
X0145544Y0036996D02*
X0184599Y0036996D01*
X0184599Y0035998D02*
X0145544Y0035998D01*
X0145544Y0034999D02*
X0184599Y0034999D01*
X0184599Y0034001D02*
X0145544Y0034001D01*
X0145544Y0033002D02*
X0184599Y0033002D01*
X0184599Y0032004D02*
X0145544Y0032004D01*
X0143344Y0032004D02*
X0114080Y0032004D01*
X0114080Y0033002D02*
X0143344Y0033002D01*
X0143344Y0031005D02*
X0114080Y0031005D01*
X0114080Y0030007D02*
X0144133Y0030007D01*
X0135705Y0034001D02*
X0114080Y0034001D01*
X0114080Y0034999D02*
X0133274Y0034999D01*
X0132294Y0035998D02*
X0114080Y0035998D01*
X0114080Y0036996D02*
X0131707Y0036996D01*
X0131402Y0037995D02*
X0113677Y0037995D01*
X0113112Y0038993D02*
X0131307Y0038993D01*
X0131307Y0039992D02*
X0112114Y0039992D01*
X0112871Y0027011D02*
X0208726Y0027011D01*
X0184599Y0041989D02*
X0145544Y0041989D01*
X0145544Y0042987D02*
X0184599Y0042987D01*
X0159061Y0071944D02*
X0135394Y0071944D01*
X0135394Y0072943D02*
X0160218Y0072943D01*
X0160713Y0073941D02*
X0161375Y0073941D01*
X0161770Y0074940D02*
X0162533Y0074940D01*
X0162397Y0075938D02*
X0163690Y0075938D01*
X0162811Y0076937D02*
X0164847Y0076937D01*
X0166005Y0077935D02*
X0162851Y0077935D01*
X0162837Y0078934D02*
X0167162Y0078934D01*
X0168319Y0079932D02*
X0162424Y0079932D01*
X0161833Y0080931D02*
X0169477Y0080931D01*
X0170634Y0081929D02*
X0160835Y0081929D01*
X0167058Y0075938D02*
X0188355Y0075938D01*
X0186743Y0076937D02*
X0168215Y0076937D01*
X0169372Y0077935D02*
X0185799Y0077935D01*
X0185385Y0078934D02*
X0170530Y0078934D01*
X0171687Y0079932D02*
X0185042Y0079932D01*
X0185042Y0080931D02*
X0172844Y0080931D01*
X0173379Y0081929D02*
X0185079Y0081929D01*
X0185493Y0082928D02*
X0173379Y0082928D01*
X0173379Y0083926D02*
X0186003Y0083926D01*
X0187001Y0084925D02*
X0173379Y0084925D01*
X0173379Y0085923D02*
X0188979Y0085923D01*
X0199158Y0095908D02*
X0204599Y0095908D01*
X0204599Y0096907D02*
X0200812Y0096907D01*
X0201773Y0097905D02*
X0204599Y0097905D01*
X0204599Y0098904D02*
X0202187Y0098904D01*
X0202542Y0099903D02*
X0204599Y0099903D01*
X0204599Y0100901D02*
X0202542Y0100901D01*
X0202518Y0101900D02*
X0204599Y0101900D01*
X0204599Y0102898D02*
X0202104Y0102898D01*
X0201612Y0103897D02*
X0204599Y0103897D01*
X0204599Y0104895D02*
X0200613Y0104895D01*
X0198678Y0105894D02*
X0204599Y0105894D01*
X0157904Y0070946D02*
X0135103Y0070946D01*
X0134690Y0069947D02*
X0156746Y0069947D01*
X0155589Y0068949D02*
X0133739Y0068949D01*
X0131962Y0067950D02*
X0154432Y0067950D01*
X0149588Y0073941D02*
X0135244Y0073941D01*
X0134830Y0074940D02*
X0148531Y0074940D01*
X0147904Y0075938D02*
X0134078Y0075938D01*
X0133442Y0078934D02*
X0144886Y0078934D01*
X0143887Y0079932D02*
X0134440Y0079932D01*
X0135194Y0080931D02*
X0142889Y0080931D01*
X0141890Y0081929D02*
X0135194Y0081929D01*
X0135194Y0082928D02*
X0140892Y0082928D01*
X0139893Y0083926D02*
X0135194Y0083926D01*
X0134808Y0084925D02*
X0138895Y0084925D01*
X0137896Y0085923D02*
X0133810Y0085923D01*
X0128277Y0086922D02*
X0027164Y0086922D01*
X0027162Y0085923D02*
X0127279Y0085923D01*
X0126280Y0084925D02*
X0027160Y0084925D01*
X0027159Y0083926D02*
X0125894Y0083926D01*
X0125894Y0082928D02*
X0027157Y0082928D01*
X0027155Y0081929D02*
X0125894Y0081929D01*
X0125894Y0080931D02*
X0027153Y0080931D01*
X0027151Y0079932D02*
X0126648Y0079932D01*
X0127647Y0078934D02*
X0027149Y0078934D01*
X0040483Y0119873D02*
X0120123Y0119873D01*
X0120123Y0120871D02*
X0121123Y0120871D01*
X0121123Y0121870D02*
X0120123Y0121870D01*
X0120123Y0122868D02*
X0121123Y0122868D01*
X0121123Y0123867D02*
X0120123Y0123867D01*
X0123941Y0123867D02*
X0124434Y0123867D01*
X0121123Y0118874D02*
X0120123Y0118874D01*
X0120123Y0117876D02*
X0121123Y0117876D01*
X0121123Y0116877D02*
X0120123Y0116877D01*
X0120123Y0115879D02*
X0121123Y0115879D01*
X0132278Y0115879D02*
X0134624Y0115879D01*
X0113729Y0142839D02*
X0106299Y0142839D01*
X0106299Y0143837D02*
X0113729Y0143837D01*
X0113729Y0144836D02*
X0106299Y0144836D01*
X0117288Y0146833D02*
X0118288Y0146833D01*
X0118288Y0147831D02*
X0117288Y0147831D01*
X0117288Y0148830D02*
X0118288Y0148830D01*
X0118288Y0149828D02*
X0117288Y0149828D01*
X0121356Y0149828D02*
X0121419Y0149828D01*
X0129119Y0149828D02*
X0133891Y0149828D01*
X0133836Y0148830D02*
X0129528Y0148830D01*
X0101365Y0162809D02*
X0096112Y0162809D01*
X0096151Y0161810D02*
X0100956Y0161810D01*
X0099957Y0160812D02*
X0095937Y0160812D01*
X0095384Y0159813D02*
X0099139Y0159813D01*
X0098825Y0158815D02*
X0094024Y0158815D01*
X0084750Y0138844D02*
X0080236Y0138844D01*
X0079402Y0137846D02*
X0085584Y0137846D01*
X0082222Y0129858D02*
X0081622Y0129858D01*
X0081622Y0128859D02*
X0082222Y0128859D01*
X0082222Y0127861D02*
X0081622Y0127861D01*
X0081622Y0126862D02*
X0082222Y0126862D01*
X0082222Y0124865D02*
X0081622Y0124865D01*
X0081622Y0123867D02*
X0082222Y0123867D01*
X0082222Y0122868D02*
X0081622Y0122868D01*
X0081622Y0121870D02*
X0082222Y0121870D01*
X0069022Y0137846D02*
X0064796Y0137846D01*
X0065630Y0138844D02*
X0069022Y0138844D01*
X0056325Y0141840D02*
X0039997Y0141840D01*
X0039997Y0142839D02*
X0056325Y0142839D01*
X0056325Y0143837D02*
X0039997Y0143837D01*
X0039997Y0144836D02*
X0056325Y0144836D01*
X0056651Y0145834D02*
X0039997Y0145834D01*
X0067055Y0104895D02*
X0068024Y0104895D01*
X0068024Y0103897D02*
X0067055Y0103897D01*
X0067055Y0102898D02*
X0068024Y0102898D01*
X0068024Y0101900D02*
X0067055Y0101900D01*
X0067055Y0100901D02*
X0068024Y0100901D01*
X0068024Y0099903D02*
X0067055Y0099903D01*
X0199239Y0215730D02*
X0208726Y0215730D01*
X0208726Y0216728D02*
X0201327Y0216728D01*
X0202325Y0217727D02*
X0208726Y0217727D01*
X0208726Y0218725D02*
X0203324Y0218725D01*
X0203752Y0219724D02*
X0208726Y0219724D01*
X0208726Y0220722D02*
X0204166Y0220722D01*
X0204567Y0221721D02*
X0208726Y0221721D01*
X0208726Y0222719D02*
X0204567Y0222719D01*
X0204567Y0223718D02*
X0208726Y0223718D01*
X0208726Y0224716D02*
X0204567Y0224716D01*
X0204218Y0225715D02*
X0208726Y0225715D01*
X0208726Y0226713D02*
X0203805Y0226713D01*
X0203391Y0227712D02*
X0208726Y0227712D01*
X0208726Y0228710D02*
X0202452Y0228710D01*
X0201453Y0229709D02*
X0208726Y0229709D01*
M02*
