G75*
%MOIN*%
%OFA0B0*%
%FSLAX25Y25*%
%IPPOS*%
%LPD*%
%AMOC8*
5,1,8,0,0,1.08239X$1,22.5*
%
%ADD10C,0.00000*%
%ADD11R,0.07874X0.04724*%
%ADD12C,0.06400*%
%ADD13R,0.05906X0.05118*%
%ADD14R,0.06299X0.09055*%
%ADD15C,0.07100*%
%ADD16OC8,0.06300*%
%ADD17C,0.06300*%
%ADD18C,0.02400*%
%ADD19C,0.03962*%
%ADD20C,0.01200*%
%ADD21C,0.03200*%
%ADD22C,0.01000*%
D10*
X0001000Y0001000D02*
X0001000Y0199701D01*
X0195921Y0199701D01*
X0195921Y0001000D01*
X0001000Y0001000D01*
X0004701Y0011000D02*
X0004703Y0011158D01*
X0004709Y0011316D01*
X0004719Y0011474D01*
X0004733Y0011632D01*
X0004751Y0011789D01*
X0004772Y0011946D01*
X0004798Y0012102D01*
X0004828Y0012258D01*
X0004861Y0012413D01*
X0004899Y0012566D01*
X0004940Y0012719D01*
X0004985Y0012871D01*
X0005034Y0013022D01*
X0005087Y0013171D01*
X0005143Y0013319D01*
X0005203Y0013465D01*
X0005267Y0013610D01*
X0005335Y0013753D01*
X0005406Y0013895D01*
X0005480Y0014035D01*
X0005558Y0014172D01*
X0005640Y0014308D01*
X0005724Y0014442D01*
X0005813Y0014573D01*
X0005904Y0014702D01*
X0005999Y0014829D01*
X0006096Y0014954D01*
X0006197Y0015076D01*
X0006301Y0015195D01*
X0006408Y0015312D01*
X0006518Y0015426D01*
X0006631Y0015537D01*
X0006746Y0015646D01*
X0006864Y0015751D01*
X0006985Y0015853D01*
X0007108Y0015953D01*
X0007234Y0016049D01*
X0007362Y0016142D01*
X0007492Y0016232D01*
X0007625Y0016318D01*
X0007760Y0016402D01*
X0007896Y0016481D01*
X0008035Y0016558D01*
X0008176Y0016630D01*
X0008318Y0016700D01*
X0008462Y0016765D01*
X0008608Y0016827D01*
X0008755Y0016885D01*
X0008904Y0016940D01*
X0009054Y0016991D01*
X0009205Y0017038D01*
X0009357Y0017081D01*
X0009510Y0017120D01*
X0009665Y0017156D01*
X0009820Y0017187D01*
X0009976Y0017215D01*
X0010132Y0017239D01*
X0010289Y0017259D01*
X0010447Y0017275D01*
X0010604Y0017287D01*
X0010763Y0017295D01*
X0010921Y0017299D01*
X0011079Y0017299D01*
X0011237Y0017295D01*
X0011396Y0017287D01*
X0011553Y0017275D01*
X0011711Y0017259D01*
X0011868Y0017239D01*
X0012024Y0017215D01*
X0012180Y0017187D01*
X0012335Y0017156D01*
X0012490Y0017120D01*
X0012643Y0017081D01*
X0012795Y0017038D01*
X0012946Y0016991D01*
X0013096Y0016940D01*
X0013245Y0016885D01*
X0013392Y0016827D01*
X0013538Y0016765D01*
X0013682Y0016700D01*
X0013824Y0016630D01*
X0013965Y0016558D01*
X0014104Y0016481D01*
X0014240Y0016402D01*
X0014375Y0016318D01*
X0014508Y0016232D01*
X0014638Y0016142D01*
X0014766Y0016049D01*
X0014892Y0015953D01*
X0015015Y0015853D01*
X0015136Y0015751D01*
X0015254Y0015646D01*
X0015369Y0015537D01*
X0015482Y0015426D01*
X0015592Y0015312D01*
X0015699Y0015195D01*
X0015803Y0015076D01*
X0015904Y0014954D01*
X0016001Y0014829D01*
X0016096Y0014702D01*
X0016187Y0014573D01*
X0016276Y0014442D01*
X0016360Y0014308D01*
X0016442Y0014172D01*
X0016520Y0014035D01*
X0016594Y0013895D01*
X0016665Y0013753D01*
X0016733Y0013610D01*
X0016797Y0013465D01*
X0016857Y0013319D01*
X0016913Y0013171D01*
X0016966Y0013022D01*
X0017015Y0012871D01*
X0017060Y0012719D01*
X0017101Y0012566D01*
X0017139Y0012413D01*
X0017172Y0012258D01*
X0017202Y0012102D01*
X0017228Y0011946D01*
X0017249Y0011789D01*
X0017267Y0011632D01*
X0017281Y0011474D01*
X0017291Y0011316D01*
X0017297Y0011158D01*
X0017299Y0011000D01*
X0017297Y0010842D01*
X0017291Y0010684D01*
X0017281Y0010526D01*
X0017267Y0010368D01*
X0017249Y0010211D01*
X0017228Y0010054D01*
X0017202Y0009898D01*
X0017172Y0009742D01*
X0017139Y0009587D01*
X0017101Y0009434D01*
X0017060Y0009281D01*
X0017015Y0009129D01*
X0016966Y0008978D01*
X0016913Y0008829D01*
X0016857Y0008681D01*
X0016797Y0008535D01*
X0016733Y0008390D01*
X0016665Y0008247D01*
X0016594Y0008105D01*
X0016520Y0007965D01*
X0016442Y0007828D01*
X0016360Y0007692D01*
X0016276Y0007558D01*
X0016187Y0007427D01*
X0016096Y0007298D01*
X0016001Y0007171D01*
X0015904Y0007046D01*
X0015803Y0006924D01*
X0015699Y0006805D01*
X0015592Y0006688D01*
X0015482Y0006574D01*
X0015369Y0006463D01*
X0015254Y0006354D01*
X0015136Y0006249D01*
X0015015Y0006147D01*
X0014892Y0006047D01*
X0014766Y0005951D01*
X0014638Y0005858D01*
X0014508Y0005768D01*
X0014375Y0005682D01*
X0014240Y0005598D01*
X0014104Y0005519D01*
X0013965Y0005442D01*
X0013824Y0005370D01*
X0013682Y0005300D01*
X0013538Y0005235D01*
X0013392Y0005173D01*
X0013245Y0005115D01*
X0013096Y0005060D01*
X0012946Y0005009D01*
X0012795Y0004962D01*
X0012643Y0004919D01*
X0012490Y0004880D01*
X0012335Y0004844D01*
X0012180Y0004813D01*
X0012024Y0004785D01*
X0011868Y0004761D01*
X0011711Y0004741D01*
X0011553Y0004725D01*
X0011396Y0004713D01*
X0011237Y0004705D01*
X0011079Y0004701D01*
X0010921Y0004701D01*
X0010763Y0004705D01*
X0010604Y0004713D01*
X0010447Y0004725D01*
X0010289Y0004741D01*
X0010132Y0004761D01*
X0009976Y0004785D01*
X0009820Y0004813D01*
X0009665Y0004844D01*
X0009510Y0004880D01*
X0009357Y0004919D01*
X0009205Y0004962D01*
X0009054Y0005009D01*
X0008904Y0005060D01*
X0008755Y0005115D01*
X0008608Y0005173D01*
X0008462Y0005235D01*
X0008318Y0005300D01*
X0008176Y0005370D01*
X0008035Y0005442D01*
X0007896Y0005519D01*
X0007760Y0005598D01*
X0007625Y0005682D01*
X0007492Y0005768D01*
X0007362Y0005858D01*
X0007234Y0005951D01*
X0007108Y0006047D01*
X0006985Y0006147D01*
X0006864Y0006249D01*
X0006746Y0006354D01*
X0006631Y0006463D01*
X0006518Y0006574D01*
X0006408Y0006688D01*
X0006301Y0006805D01*
X0006197Y0006924D01*
X0006096Y0007046D01*
X0005999Y0007171D01*
X0005904Y0007298D01*
X0005813Y0007427D01*
X0005724Y0007558D01*
X0005640Y0007692D01*
X0005558Y0007828D01*
X0005480Y0007965D01*
X0005406Y0008105D01*
X0005335Y0008247D01*
X0005267Y0008390D01*
X0005203Y0008535D01*
X0005143Y0008681D01*
X0005087Y0008829D01*
X0005034Y0008978D01*
X0004985Y0009129D01*
X0004940Y0009281D01*
X0004899Y0009434D01*
X0004861Y0009587D01*
X0004828Y0009742D01*
X0004798Y0009898D01*
X0004772Y0010054D01*
X0004751Y0010211D01*
X0004733Y0010368D01*
X0004719Y0010526D01*
X0004709Y0010684D01*
X0004703Y0010842D01*
X0004701Y0011000D01*
X0004701Y0191000D02*
X0004703Y0191158D01*
X0004709Y0191316D01*
X0004719Y0191474D01*
X0004733Y0191632D01*
X0004751Y0191789D01*
X0004772Y0191946D01*
X0004798Y0192102D01*
X0004828Y0192258D01*
X0004861Y0192413D01*
X0004899Y0192566D01*
X0004940Y0192719D01*
X0004985Y0192871D01*
X0005034Y0193022D01*
X0005087Y0193171D01*
X0005143Y0193319D01*
X0005203Y0193465D01*
X0005267Y0193610D01*
X0005335Y0193753D01*
X0005406Y0193895D01*
X0005480Y0194035D01*
X0005558Y0194172D01*
X0005640Y0194308D01*
X0005724Y0194442D01*
X0005813Y0194573D01*
X0005904Y0194702D01*
X0005999Y0194829D01*
X0006096Y0194954D01*
X0006197Y0195076D01*
X0006301Y0195195D01*
X0006408Y0195312D01*
X0006518Y0195426D01*
X0006631Y0195537D01*
X0006746Y0195646D01*
X0006864Y0195751D01*
X0006985Y0195853D01*
X0007108Y0195953D01*
X0007234Y0196049D01*
X0007362Y0196142D01*
X0007492Y0196232D01*
X0007625Y0196318D01*
X0007760Y0196402D01*
X0007896Y0196481D01*
X0008035Y0196558D01*
X0008176Y0196630D01*
X0008318Y0196700D01*
X0008462Y0196765D01*
X0008608Y0196827D01*
X0008755Y0196885D01*
X0008904Y0196940D01*
X0009054Y0196991D01*
X0009205Y0197038D01*
X0009357Y0197081D01*
X0009510Y0197120D01*
X0009665Y0197156D01*
X0009820Y0197187D01*
X0009976Y0197215D01*
X0010132Y0197239D01*
X0010289Y0197259D01*
X0010447Y0197275D01*
X0010604Y0197287D01*
X0010763Y0197295D01*
X0010921Y0197299D01*
X0011079Y0197299D01*
X0011237Y0197295D01*
X0011396Y0197287D01*
X0011553Y0197275D01*
X0011711Y0197259D01*
X0011868Y0197239D01*
X0012024Y0197215D01*
X0012180Y0197187D01*
X0012335Y0197156D01*
X0012490Y0197120D01*
X0012643Y0197081D01*
X0012795Y0197038D01*
X0012946Y0196991D01*
X0013096Y0196940D01*
X0013245Y0196885D01*
X0013392Y0196827D01*
X0013538Y0196765D01*
X0013682Y0196700D01*
X0013824Y0196630D01*
X0013965Y0196558D01*
X0014104Y0196481D01*
X0014240Y0196402D01*
X0014375Y0196318D01*
X0014508Y0196232D01*
X0014638Y0196142D01*
X0014766Y0196049D01*
X0014892Y0195953D01*
X0015015Y0195853D01*
X0015136Y0195751D01*
X0015254Y0195646D01*
X0015369Y0195537D01*
X0015482Y0195426D01*
X0015592Y0195312D01*
X0015699Y0195195D01*
X0015803Y0195076D01*
X0015904Y0194954D01*
X0016001Y0194829D01*
X0016096Y0194702D01*
X0016187Y0194573D01*
X0016276Y0194442D01*
X0016360Y0194308D01*
X0016442Y0194172D01*
X0016520Y0194035D01*
X0016594Y0193895D01*
X0016665Y0193753D01*
X0016733Y0193610D01*
X0016797Y0193465D01*
X0016857Y0193319D01*
X0016913Y0193171D01*
X0016966Y0193022D01*
X0017015Y0192871D01*
X0017060Y0192719D01*
X0017101Y0192566D01*
X0017139Y0192413D01*
X0017172Y0192258D01*
X0017202Y0192102D01*
X0017228Y0191946D01*
X0017249Y0191789D01*
X0017267Y0191632D01*
X0017281Y0191474D01*
X0017291Y0191316D01*
X0017297Y0191158D01*
X0017299Y0191000D01*
X0017297Y0190842D01*
X0017291Y0190684D01*
X0017281Y0190526D01*
X0017267Y0190368D01*
X0017249Y0190211D01*
X0017228Y0190054D01*
X0017202Y0189898D01*
X0017172Y0189742D01*
X0017139Y0189587D01*
X0017101Y0189434D01*
X0017060Y0189281D01*
X0017015Y0189129D01*
X0016966Y0188978D01*
X0016913Y0188829D01*
X0016857Y0188681D01*
X0016797Y0188535D01*
X0016733Y0188390D01*
X0016665Y0188247D01*
X0016594Y0188105D01*
X0016520Y0187965D01*
X0016442Y0187828D01*
X0016360Y0187692D01*
X0016276Y0187558D01*
X0016187Y0187427D01*
X0016096Y0187298D01*
X0016001Y0187171D01*
X0015904Y0187046D01*
X0015803Y0186924D01*
X0015699Y0186805D01*
X0015592Y0186688D01*
X0015482Y0186574D01*
X0015369Y0186463D01*
X0015254Y0186354D01*
X0015136Y0186249D01*
X0015015Y0186147D01*
X0014892Y0186047D01*
X0014766Y0185951D01*
X0014638Y0185858D01*
X0014508Y0185768D01*
X0014375Y0185682D01*
X0014240Y0185598D01*
X0014104Y0185519D01*
X0013965Y0185442D01*
X0013824Y0185370D01*
X0013682Y0185300D01*
X0013538Y0185235D01*
X0013392Y0185173D01*
X0013245Y0185115D01*
X0013096Y0185060D01*
X0012946Y0185009D01*
X0012795Y0184962D01*
X0012643Y0184919D01*
X0012490Y0184880D01*
X0012335Y0184844D01*
X0012180Y0184813D01*
X0012024Y0184785D01*
X0011868Y0184761D01*
X0011711Y0184741D01*
X0011553Y0184725D01*
X0011396Y0184713D01*
X0011237Y0184705D01*
X0011079Y0184701D01*
X0010921Y0184701D01*
X0010763Y0184705D01*
X0010604Y0184713D01*
X0010447Y0184725D01*
X0010289Y0184741D01*
X0010132Y0184761D01*
X0009976Y0184785D01*
X0009820Y0184813D01*
X0009665Y0184844D01*
X0009510Y0184880D01*
X0009357Y0184919D01*
X0009205Y0184962D01*
X0009054Y0185009D01*
X0008904Y0185060D01*
X0008755Y0185115D01*
X0008608Y0185173D01*
X0008462Y0185235D01*
X0008318Y0185300D01*
X0008176Y0185370D01*
X0008035Y0185442D01*
X0007896Y0185519D01*
X0007760Y0185598D01*
X0007625Y0185682D01*
X0007492Y0185768D01*
X0007362Y0185858D01*
X0007234Y0185951D01*
X0007108Y0186047D01*
X0006985Y0186147D01*
X0006864Y0186249D01*
X0006746Y0186354D01*
X0006631Y0186463D01*
X0006518Y0186574D01*
X0006408Y0186688D01*
X0006301Y0186805D01*
X0006197Y0186924D01*
X0006096Y0187046D01*
X0005999Y0187171D01*
X0005904Y0187298D01*
X0005813Y0187427D01*
X0005724Y0187558D01*
X0005640Y0187692D01*
X0005558Y0187828D01*
X0005480Y0187965D01*
X0005406Y0188105D01*
X0005335Y0188247D01*
X0005267Y0188390D01*
X0005203Y0188535D01*
X0005143Y0188681D01*
X0005087Y0188829D01*
X0005034Y0188978D01*
X0004985Y0189129D01*
X0004940Y0189281D01*
X0004899Y0189434D01*
X0004861Y0189587D01*
X0004828Y0189742D01*
X0004798Y0189898D01*
X0004772Y0190054D01*
X0004751Y0190211D01*
X0004733Y0190368D01*
X0004719Y0190526D01*
X0004709Y0190684D01*
X0004703Y0190842D01*
X0004701Y0191000D01*
X0179701Y0191000D02*
X0179703Y0191158D01*
X0179709Y0191316D01*
X0179719Y0191474D01*
X0179733Y0191632D01*
X0179751Y0191789D01*
X0179772Y0191946D01*
X0179798Y0192102D01*
X0179828Y0192258D01*
X0179861Y0192413D01*
X0179899Y0192566D01*
X0179940Y0192719D01*
X0179985Y0192871D01*
X0180034Y0193022D01*
X0180087Y0193171D01*
X0180143Y0193319D01*
X0180203Y0193465D01*
X0180267Y0193610D01*
X0180335Y0193753D01*
X0180406Y0193895D01*
X0180480Y0194035D01*
X0180558Y0194172D01*
X0180640Y0194308D01*
X0180724Y0194442D01*
X0180813Y0194573D01*
X0180904Y0194702D01*
X0180999Y0194829D01*
X0181096Y0194954D01*
X0181197Y0195076D01*
X0181301Y0195195D01*
X0181408Y0195312D01*
X0181518Y0195426D01*
X0181631Y0195537D01*
X0181746Y0195646D01*
X0181864Y0195751D01*
X0181985Y0195853D01*
X0182108Y0195953D01*
X0182234Y0196049D01*
X0182362Y0196142D01*
X0182492Y0196232D01*
X0182625Y0196318D01*
X0182760Y0196402D01*
X0182896Y0196481D01*
X0183035Y0196558D01*
X0183176Y0196630D01*
X0183318Y0196700D01*
X0183462Y0196765D01*
X0183608Y0196827D01*
X0183755Y0196885D01*
X0183904Y0196940D01*
X0184054Y0196991D01*
X0184205Y0197038D01*
X0184357Y0197081D01*
X0184510Y0197120D01*
X0184665Y0197156D01*
X0184820Y0197187D01*
X0184976Y0197215D01*
X0185132Y0197239D01*
X0185289Y0197259D01*
X0185447Y0197275D01*
X0185604Y0197287D01*
X0185763Y0197295D01*
X0185921Y0197299D01*
X0186079Y0197299D01*
X0186237Y0197295D01*
X0186396Y0197287D01*
X0186553Y0197275D01*
X0186711Y0197259D01*
X0186868Y0197239D01*
X0187024Y0197215D01*
X0187180Y0197187D01*
X0187335Y0197156D01*
X0187490Y0197120D01*
X0187643Y0197081D01*
X0187795Y0197038D01*
X0187946Y0196991D01*
X0188096Y0196940D01*
X0188245Y0196885D01*
X0188392Y0196827D01*
X0188538Y0196765D01*
X0188682Y0196700D01*
X0188824Y0196630D01*
X0188965Y0196558D01*
X0189104Y0196481D01*
X0189240Y0196402D01*
X0189375Y0196318D01*
X0189508Y0196232D01*
X0189638Y0196142D01*
X0189766Y0196049D01*
X0189892Y0195953D01*
X0190015Y0195853D01*
X0190136Y0195751D01*
X0190254Y0195646D01*
X0190369Y0195537D01*
X0190482Y0195426D01*
X0190592Y0195312D01*
X0190699Y0195195D01*
X0190803Y0195076D01*
X0190904Y0194954D01*
X0191001Y0194829D01*
X0191096Y0194702D01*
X0191187Y0194573D01*
X0191276Y0194442D01*
X0191360Y0194308D01*
X0191442Y0194172D01*
X0191520Y0194035D01*
X0191594Y0193895D01*
X0191665Y0193753D01*
X0191733Y0193610D01*
X0191797Y0193465D01*
X0191857Y0193319D01*
X0191913Y0193171D01*
X0191966Y0193022D01*
X0192015Y0192871D01*
X0192060Y0192719D01*
X0192101Y0192566D01*
X0192139Y0192413D01*
X0192172Y0192258D01*
X0192202Y0192102D01*
X0192228Y0191946D01*
X0192249Y0191789D01*
X0192267Y0191632D01*
X0192281Y0191474D01*
X0192291Y0191316D01*
X0192297Y0191158D01*
X0192299Y0191000D01*
X0192297Y0190842D01*
X0192291Y0190684D01*
X0192281Y0190526D01*
X0192267Y0190368D01*
X0192249Y0190211D01*
X0192228Y0190054D01*
X0192202Y0189898D01*
X0192172Y0189742D01*
X0192139Y0189587D01*
X0192101Y0189434D01*
X0192060Y0189281D01*
X0192015Y0189129D01*
X0191966Y0188978D01*
X0191913Y0188829D01*
X0191857Y0188681D01*
X0191797Y0188535D01*
X0191733Y0188390D01*
X0191665Y0188247D01*
X0191594Y0188105D01*
X0191520Y0187965D01*
X0191442Y0187828D01*
X0191360Y0187692D01*
X0191276Y0187558D01*
X0191187Y0187427D01*
X0191096Y0187298D01*
X0191001Y0187171D01*
X0190904Y0187046D01*
X0190803Y0186924D01*
X0190699Y0186805D01*
X0190592Y0186688D01*
X0190482Y0186574D01*
X0190369Y0186463D01*
X0190254Y0186354D01*
X0190136Y0186249D01*
X0190015Y0186147D01*
X0189892Y0186047D01*
X0189766Y0185951D01*
X0189638Y0185858D01*
X0189508Y0185768D01*
X0189375Y0185682D01*
X0189240Y0185598D01*
X0189104Y0185519D01*
X0188965Y0185442D01*
X0188824Y0185370D01*
X0188682Y0185300D01*
X0188538Y0185235D01*
X0188392Y0185173D01*
X0188245Y0185115D01*
X0188096Y0185060D01*
X0187946Y0185009D01*
X0187795Y0184962D01*
X0187643Y0184919D01*
X0187490Y0184880D01*
X0187335Y0184844D01*
X0187180Y0184813D01*
X0187024Y0184785D01*
X0186868Y0184761D01*
X0186711Y0184741D01*
X0186553Y0184725D01*
X0186396Y0184713D01*
X0186237Y0184705D01*
X0186079Y0184701D01*
X0185921Y0184701D01*
X0185763Y0184705D01*
X0185604Y0184713D01*
X0185447Y0184725D01*
X0185289Y0184741D01*
X0185132Y0184761D01*
X0184976Y0184785D01*
X0184820Y0184813D01*
X0184665Y0184844D01*
X0184510Y0184880D01*
X0184357Y0184919D01*
X0184205Y0184962D01*
X0184054Y0185009D01*
X0183904Y0185060D01*
X0183755Y0185115D01*
X0183608Y0185173D01*
X0183462Y0185235D01*
X0183318Y0185300D01*
X0183176Y0185370D01*
X0183035Y0185442D01*
X0182896Y0185519D01*
X0182760Y0185598D01*
X0182625Y0185682D01*
X0182492Y0185768D01*
X0182362Y0185858D01*
X0182234Y0185951D01*
X0182108Y0186047D01*
X0181985Y0186147D01*
X0181864Y0186249D01*
X0181746Y0186354D01*
X0181631Y0186463D01*
X0181518Y0186574D01*
X0181408Y0186688D01*
X0181301Y0186805D01*
X0181197Y0186924D01*
X0181096Y0187046D01*
X0180999Y0187171D01*
X0180904Y0187298D01*
X0180813Y0187427D01*
X0180724Y0187558D01*
X0180640Y0187692D01*
X0180558Y0187828D01*
X0180480Y0187965D01*
X0180406Y0188105D01*
X0180335Y0188247D01*
X0180267Y0188390D01*
X0180203Y0188535D01*
X0180143Y0188681D01*
X0180087Y0188829D01*
X0180034Y0188978D01*
X0179985Y0189129D01*
X0179940Y0189281D01*
X0179899Y0189434D01*
X0179861Y0189587D01*
X0179828Y0189742D01*
X0179798Y0189898D01*
X0179772Y0190054D01*
X0179751Y0190211D01*
X0179733Y0190368D01*
X0179719Y0190526D01*
X0179709Y0190684D01*
X0179703Y0190842D01*
X0179701Y0191000D01*
X0179701Y0011000D02*
X0179703Y0011158D01*
X0179709Y0011316D01*
X0179719Y0011474D01*
X0179733Y0011632D01*
X0179751Y0011789D01*
X0179772Y0011946D01*
X0179798Y0012102D01*
X0179828Y0012258D01*
X0179861Y0012413D01*
X0179899Y0012566D01*
X0179940Y0012719D01*
X0179985Y0012871D01*
X0180034Y0013022D01*
X0180087Y0013171D01*
X0180143Y0013319D01*
X0180203Y0013465D01*
X0180267Y0013610D01*
X0180335Y0013753D01*
X0180406Y0013895D01*
X0180480Y0014035D01*
X0180558Y0014172D01*
X0180640Y0014308D01*
X0180724Y0014442D01*
X0180813Y0014573D01*
X0180904Y0014702D01*
X0180999Y0014829D01*
X0181096Y0014954D01*
X0181197Y0015076D01*
X0181301Y0015195D01*
X0181408Y0015312D01*
X0181518Y0015426D01*
X0181631Y0015537D01*
X0181746Y0015646D01*
X0181864Y0015751D01*
X0181985Y0015853D01*
X0182108Y0015953D01*
X0182234Y0016049D01*
X0182362Y0016142D01*
X0182492Y0016232D01*
X0182625Y0016318D01*
X0182760Y0016402D01*
X0182896Y0016481D01*
X0183035Y0016558D01*
X0183176Y0016630D01*
X0183318Y0016700D01*
X0183462Y0016765D01*
X0183608Y0016827D01*
X0183755Y0016885D01*
X0183904Y0016940D01*
X0184054Y0016991D01*
X0184205Y0017038D01*
X0184357Y0017081D01*
X0184510Y0017120D01*
X0184665Y0017156D01*
X0184820Y0017187D01*
X0184976Y0017215D01*
X0185132Y0017239D01*
X0185289Y0017259D01*
X0185447Y0017275D01*
X0185604Y0017287D01*
X0185763Y0017295D01*
X0185921Y0017299D01*
X0186079Y0017299D01*
X0186237Y0017295D01*
X0186396Y0017287D01*
X0186553Y0017275D01*
X0186711Y0017259D01*
X0186868Y0017239D01*
X0187024Y0017215D01*
X0187180Y0017187D01*
X0187335Y0017156D01*
X0187490Y0017120D01*
X0187643Y0017081D01*
X0187795Y0017038D01*
X0187946Y0016991D01*
X0188096Y0016940D01*
X0188245Y0016885D01*
X0188392Y0016827D01*
X0188538Y0016765D01*
X0188682Y0016700D01*
X0188824Y0016630D01*
X0188965Y0016558D01*
X0189104Y0016481D01*
X0189240Y0016402D01*
X0189375Y0016318D01*
X0189508Y0016232D01*
X0189638Y0016142D01*
X0189766Y0016049D01*
X0189892Y0015953D01*
X0190015Y0015853D01*
X0190136Y0015751D01*
X0190254Y0015646D01*
X0190369Y0015537D01*
X0190482Y0015426D01*
X0190592Y0015312D01*
X0190699Y0015195D01*
X0190803Y0015076D01*
X0190904Y0014954D01*
X0191001Y0014829D01*
X0191096Y0014702D01*
X0191187Y0014573D01*
X0191276Y0014442D01*
X0191360Y0014308D01*
X0191442Y0014172D01*
X0191520Y0014035D01*
X0191594Y0013895D01*
X0191665Y0013753D01*
X0191733Y0013610D01*
X0191797Y0013465D01*
X0191857Y0013319D01*
X0191913Y0013171D01*
X0191966Y0013022D01*
X0192015Y0012871D01*
X0192060Y0012719D01*
X0192101Y0012566D01*
X0192139Y0012413D01*
X0192172Y0012258D01*
X0192202Y0012102D01*
X0192228Y0011946D01*
X0192249Y0011789D01*
X0192267Y0011632D01*
X0192281Y0011474D01*
X0192291Y0011316D01*
X0192297Y0011158D01*
X0192299Y0011000D01*
X0192297Y0010842D01*
X0192291Y0010684D01*
X0192281Y0010526D01*
X0192267Y0010368D01*
X0192249Y0010211D01*
X0192228Y0010054D01*
X0192202Y0009898D01*
X0192172Y0009742D01*
X0192139Y0009587D01*
X0192101Y0009434D01*
X0192060Y0009281D01*
X0192015Y0009129D01*
X0191966Y0008978D01*
X0191913Y0008829D01*
X0191857Y0008681D01*
X0191797Y0008535D01*
X0191733Y0008390D01*
X0191665Y0008247D01*
X0191594Y0008105D01*
X0191520Y0007965D01*
X0191442Y0007828D01*
X0191360Y0007692D01*
X0191276Y0007558D01*
X0191187Y0007427D01*
X0191096Y0007298D01*
X0191001Y0007171D01*
X0190904Y0007046D01*
X0190803Y0006924D01*
X0190699Y0006805D01*
X0190592Y0006688D01*
X0190482Y0006574D01*
X0190369Y0006463D01*
X0190254Y0006354D01*
X0190136Y0006249D01*
X0190015Y0006147D01*
X0189892Y0006047D01*
X0189766Y0005951D01*
X0189638Y0005858D01*
X0189508Y0005768D01*
X0189375Y0005682D01*
X0189240Y0005598D01*
X0189104Y0005519D01*
X0188965Y0005442D01*
X0188824Y0005370D01*
X0188682Y0005300D01*
X0188538Y0005235D01*
X0188392Y0005173D01*
X0188245Y0005115D01*
X0188096Y0005060D01*
X0187946Y0005009D01*
X0187795Y0004962D01*
X0187643Y0004919D01*
X0187490Y0004880D01*
X0187335Y0004844D01*
X0187180Y0004813D01*
X0187024Y0004785D01*
X0186868Y0004761D01*
X0186711Y0004741D01*
X0186553Y0004725D01*
X0186396Y0004713D01*
X0186237Y0004705D01*
X0186079Y0004701D01*
X0185921Y0004701D01*
X0185763Y0004705D01*
X0185604Y0004713D01*
X0185447Y0004725D01*
X0185289Y0004741D01*
X0185132Y0004761D01*
X0184976Y0004785D01*
X0184820Y0004813D01*
X0184665Y0004844D01*
X0184510Y0004880D01*
X0184357Y0004919D01*
X0184205Y0004962D01*
X0184054Y0005009D01*
X0183904Y0005060D01*
X0183755Y0005115D01*
X0183608Y0005173D01*
X0183462Y0005235D01*
X0183318Y0005300D01*
X0183176Y0005370D01*
X0183035Y0005442D01*
X0182896Y0005519D01*
X0182760Y0005598D01*
X0182625Y0005682D01*
X0182492Y0005768D01*
X0182362Y0005858D01*
X0182234Y0005951D01*
X0182108Y0006047D01*
X0181985Y0006147D01*
X0181864Y0006249D01*
X0181746Y0006354D01*
X0181631Y0006463D01*
X0181518Y0006574D01*
X0181408Y0006688D01*
X0181301Y0006805D01*
X0181197Y0006924D01*
X0181096Y0007046D01*
X0180999Y0007171D01*
X0180904Y0007298D01*
X0180813Y0007427D01*
X0180724Y0007558D01*
X0180640Y0007692D01*
X0180558Y0007828D01*
X0180480Y0007965D01*
X0180406Y0008105D01*
X0180335Y0008247D01*
X0180267Y0008390D01*
X0180203Y0008535D01*
X0180143Y0008681D01*
X0180087Y0008829D01*
X0180034Y0008978D01*
X0179985Y0009129D01*
X0179940Y0009281D01*
X0179899Y0009434D01*
X0179861Y0009587D01*
X0179828Y0009742D01*
X0179798Y0009898D01*
X0179772Y0010054D01*
X0179751Y0010211D01*
X0179733Y0010368D01*
X0179719Y0010526D01*
X0179709Y0010684D01*
X0179703Y0010842D01*
X0179701Y0011000D01*
D11*
X0104780Y0113874D03*
X0104780Y0121748D03*
X0104780Y0129622D03*
X0104780Y0137496D03*
X0104780Y0145370D03*
X0104780Y0153244D03*
X0104780Y0161118D03*
X0104780Y0168992D03*
X0041000Y0168992D03*
X0041000Y0161118D03*
X0041000Y0153244D03*
X0041000Y0145370D03*
X0041000Y0137496D03*
X0041000Y0129622D03*
X0041000Y0121748D03*
X0041000Y0113874D03*
D12*
X0081000Y0084200D02*
X0081000Y0077800D01*
X0091000Y0077800D02*
X0091000Y0084200D01*
X0101000Y0084200D02*
X0101000Y0077800D01*
X0127800Y0086000D02*
X0134200Y0086000D01*
X0134200Y0096000D02*
X0127800Y0096000D01*
X0127800Y0106000D02*
X0134200Y0106000D01*
X0136000Y0127800D02*
X0136000Y0134200D01*
X0146000Y0134200D02*
X0146000Y0127800D01*
X0126000Y0127800D02*
X0126000Y0134200D01*
X0126000Y0157800D02*
X0126000Y0164200D01*
X0136000Y0164200D02*
X0136000Y0157800D01*
X0146000Y0157800D02*
X0146000Y0164200D01*
X0146000Y0187800D02*
X0146000Y0194200D01*
X0136000Y0194200D02*
X0136000Y0187800D01*
X0126000Y0187800D02*
X0126000Y0194200D01*
X0116000Y0194200D02*
X0116000Y0187800D01*
X0101000Y0039200D02*
X0101000Y0032800D01*
X0091000Y0032800D02*
X0091000Y0039200D01*
X0081000Y0039200D02*
X0081000Y0032800D01*
D13*
X0056000Y0042260D03*
X0056000Y0049740D03*
X0056000Y0072260D03*
X0056000Y0079740D03*
X0116000Y0092260D03*
X0116000Y0099740D03*
X0116000Y0112260D03*
X0116000Y0119740D03*
D14*
X0011000Y0148598D03*
X0011000Y0173402D03*
D15*
X0126000Y0022050D02*
X0126000Y0014950D01*
X0146000Y0014950D02*
X0146000Y0022050D01*
X0174950Y0036000D02*
X0182050Y0036000D01*
X0182050Y0056000D02*
X0174950Y0056000D01*
X0174950Y0076000D02*
X0182050Y0076000D01*
X0182050Y0096000D02*
X0174950Y0096000D01*
X0174950Y0126000D02*
X0182050Y0126000D01*
X0182050Y0146000D02*
X0174950Y0146000D01*
X0174950Y0166000D02*
X0182050Y0166000D01*
D16*
X0028000Y0126000D03*
D17*
X0014000Y0126000D03*
D18*
X0026126Y0113874D01*
X0041000Y0113874D01*
X0041000Y0121748D02*
X0050252Y0121748D01*
X0071000Y0101000D01*
X0071000Y0046000D01*
X0081000Y0036000D01*
X0056000Y0041000D02*
X0041000Y0026000D01*
X0056000Y0041000D02*
X0056000Y0042260D01*
X0056000Y0049740D02*
X0056000Y0061000D01*
X0056000Y0072260D01*
X0056000Y0079740D02*
X0056000Y0091000D01*
X0046000Y0086000D02*
X0046000Y0071000D01*
X0056000Y0061000D01*
X0046000Y0086000D02*
X0016000Y0116000D01*
X0006000Y0116000D01*
X0028000Y0126000D02*
X0028000Y0131598D01*
X0011000Y0148598D01*
X0026000Y0161000D02*
X0026118Y0161118D01*
X0041000Y0161118D01*
X0041000Y0153244D02*
X0033756Y0153244D01*
X0031000Y0151000D01*
X0041000Y0137496D02*
X0054504Y0137496D01*
X0096000Y0096000D01*
X0101000Y0096000D01*
X0111000Y0086000D01*
X0116000Y0086000D01*
X0116000Y0092260D01*
X0116000Y0086000D02*
X0131000Y0086000D01*
X0116000Y0099740D02*
X0116000Y0112260D01*
X0114386Y0113874D01*
X0104780Y0113874D01*
X0088126Y0113874D01*
X0081000Y0121000D01*
X0090252Y0121748D02*
X0091000Y0121000D01*
X0090252Y0121748D02*
X0104780Y0121748D01*
X0104780Y0129622D02*
X0077378Y0129622D01*
X0071000Y0136000D01*
X0052378Y0129622D02*
X0081000Y0101000D01*
X0081000Y0081000D01*
X0116000Y0119740D02*
X0116000Y0121000D01*
X0126000Y0131000D01*
X0126000Y0141000D01*
X0121630Y0145370D01*
X0104780Y0145370D01*
X0104780Y0137496D02*
X0099504Y0137496D01*
X0096000Y0141000D01*
X0096000Y0171000D01*
X0101000Y0176000D01*
X0104780Y0168992D02*
X0108992Y0168992D01*
X0111000Y0171000D01*
X0111000Y0181000D01*
X0116000Y0186000D01*
X0116000Y0191000D01*
X0126000Y0191000D02*
X0126000Y0186000D01*
X0116000Y0176000D01*
X0116000Y0166000D01*
X0111118Y0161118D01*
X0104780Y0161118D01*
X0104780Y0153244D02*
X0118244Y0153244D01*
X0126000Y0161000D01*
X0052378Y0129622D02*
X0041000Y0129622D01*
X0041000Y0168992D02*
X0015409Y0168992D01*
X0011000Y0173402D01*
D19*
X0026000Y0161000D03*
X0031000Y0151000D03*
X0006000Y0116000D03*
X0056000Y0091000D03*
X0081000Y0121000D03*
X0091000Y0121000D03*
X0071000Y0136000D03*
X0101000Y0176000D03*
X0041000Y0026000D03*
D20*
X0126000Y0090666D02*
X0126000Y0091538D01*
X0126676Y0091318D01*
X0127422Y0091200D01*
X0130600Y0091200D01*
X0130600Y0095600D01*
X0131400Y0095600D01*
X0131400Y0096400D01*
X0130600Y0096400D01*
X0130600Y0100800D01*
X0127422Y0100800D01*
X0126676Y0100682D01*
X0126000Y0100462D01*
X0126000Y0101334D01*
X0126805Y0101000D01*
X0135195Y0101000D01*
X0137032Y0101761D01*
X0138439Y0103168D01*
X0139200Y0105005D01*
X0139200Y0106000D01*
X0186000Y0106000D01*
X0186000Y0099325D01*
X0185978Y0099355D01*
X0185405Y0099928D01*
X0184749Y0100405D01*
X0184027Y0100773D01*
X0183256Y0101023D01*
X0182455Y0101150D01*
X0179075Y0101150D01*
X0179075Y0096575D01*
X0177925Y0096575D01*
X0177925Y0101150D01*
X0174545Y0101150D01*
X0173744Y0101023D01*
X0172973Y0100773D01*
X0172251Y0100405D01*
X0171595Y0099928D01*
X0171022Y0099355D01*
X0170545Y0098699D01*
X0170177Y0097977D01*
X0169927Y0097206D01*
X0169827Y0096575D01*
X0177925Y0096575D01*
X0177925Y0095425D01*
X0179075Y0095425D01*
X0179075Y0090850D01*
X0182455Y0090850D01*
X0183256Y0090977D01*
X0184027Y0091227D01*
X0184749Y0091595D01*
X0185405Y0092072D01*
X0185978Y0092645D01*
X0186000Y0092675D01*
X0186000Y0088300D01*
X0138659Y0088300D01*
X0138439Y0088832D01*
X0137032Y0090239D01*
X0135195Y0091000D01*
X0126805Y0091000D01*
X0126000Y0090666D01*
X0126000Y0090888D02*
X0126536Y0090888D01*
X0130600Y0092087D02*
X0131400Y0092087D01*
X0131400Y0091200D02*
X0134578Y0091200D01*
X0135324Y0091318D01*
X0136043Y0091552D01*
X0136716Y0091895D01*
X0137327Y0092339D01*
X0137861Y0092873D01*
X0138305Y0093484D01*
X0138648Y0094157D01*
X0138882Y0094876D01*
X0138996Y0095600D01*
X0131400Y0095600D01*
X0131400Y0091200D01*
X0131400Y0093285D02*
X0130600Y0093285D01*
X0130600Y0094484D02*
X0131400Y0094484D01*
X0131400Y0095682D02*
X0177925Y0095682D01*
X0177925Y0095425D02*
X0169827Y0095425D01*
X0169927Y0094794D01*
X0170177Y0094023D01*
X0170545Y0093301D01*
X0171022Y0092645D01*
X0171595Y0092072D01*
X0172251Y0091595D01*
X0172973Y0091227D01*
X0173744Y0090977D01*
X0174545Y0090850D01*
X0177925Y0090850D01*
X0177925Y0095425D01*
X0177925Y0094484D02*
X0179075Y0094484D01*
X0179075Y0093285D02*
X0177925Y0093285D01*
X0177925Y0092087D02*
X0179075Y0092087D01*
X0179075Y0090888D02*
X0177925Y0090888D01*
X0174303Y0090888D02*
X0135464Y0090888D01*
X0136980Y0092087D02*
X0171580Y0092087D01*
X0170557Y0093285D02*
X0138161Y0093285D01*
X0138754Y0094484D02*
X0170028Y0094484D01*
X0169875Y0096881D02*
X0138920Y0096881D01*
X0138882Y0097124D02*
X0138996Y0096400D01*
X0131400Y0096400D01*
X0131400Y0100800D01*
X0134578Y0100800D01*
X0135324Y0100682D01*
X0136043Y0100448D01*
X0136716Y0100105D01*
X0137327Y0099661D01*
X0137861Y0099127D01*
X0138305Y0098516D01*
X0138648Y0097843D01*
X0138882Y0097124D01*
X0138528Y0098079D02*
X0170230Y0098079D01*
X0170966Y0099278D02*
X0137710Y0099278D01*
X0135956Y0100476D02*
X0172392Y0100476D01*
X0177925Y0100476D02*
X0179075Y0100476D01*
X0179075Y0099278D02*
X0177925Y0099278D01*
X0177925Y0098079D02*
X0179075Y0098079D01*
X0179075Y0096881D02*
X0177925Y0096881D01*
X0184608Y0100476D02*
X0186000Y0100476D01*
X0186000Y0101675D02*
X0136824Y0101675D01*
X0138145Y0102873D02*
X0186000Y0102873D01*
X0186000Y0104072D02*
X0138813Y0104072D01*
X0139200Y0105270D02*
X0186000Y0105270D01*
X0186000Y0092087D02*
X0185420Y0092087D01*
X0186000Y0090888D02*
X0182697Y0090888D01*
X0186000Y0089690D02*
X0137581Y0089690D01*
X0138580Y0088491D02*
X0186000Y0088491D01*
X0131400Y0096881D02*
X0130600Y0096881D01*
X0130600Y0098079D02*
X0131400Y0098079D01*
X0131400Y0099278D02*
X0130600Y0099278D01*
X0130600Y0100476D02*
X0131400Y0100476D01*
X0126044Y0100476D02*
X0126000Y0100476D01*
D21*
X0028000Y0126000D02*
X0026000Y0126000D01*
D22*
X0086000Y0086000D02*
X0086000Y0071000D01*
X0091000Y0066000D01*
X0186000Y0066000D01*
X0186000Y0072845D01*
X0185902Y0072710D01*
X0185340Y0072148D01*
X0184697Y0071681D01*
X0183989Y0071320D01*
X0183233Y0071074D01*
X0182447Y0070950D01*
X0179000Y0070950D01*
X0179000Y0075500D01*
X0178000Y0075500D01*
X0178000Y0070950D01*
X0174553Y0070950D01*
X0173767Y0071074D01*
X0173011Y0071320D01*
X0172303Y0071681D01*
X0171660Y0072148D01*
X0171098Y0072710D01*
X0170631Y0073353D01*
X0170270Y0074061D01*
X0170024Y0074817D01*
X0169916Y0075500D01*
X0178000Y0075500D01*
X0178000Y0076500D01*
X0178000Y0081050D01*
X0174553Y0081050D01*
X0173767Y0080926D01*
X0173011Y0080680D01*
X0172303Y0080319D01*
X0171660Y0079852D01*
X0171098Y0079290D01*
X0170631Y0078647D01*
X0170270Y0077939D01*
X0170024Y0077183D01*
X0169916Y0076500D01*
X0178000Y0076500D01*
X0179000Y0076500D01*
X0179000Y0081050D01*
X0182447Y0081050D01*
X0183233Y0080926D01*
X0183989Y0080680D01*
X0184697Y0080319D01*
X0185340Y0079852D01*
X0185902Y0079290D01*
X0186000Y0079155D01*
X0186000Y0086000D01*
X0139100Y0086000D01*
X0139100Y0085025D01*
X0138354Y0083224D01*
X0136976Y0081846D01*
X0135175Y0081100D01*
X0126825Y0081100D01*
X0125024Y0081846D01*
X0123770Y0083100D01*
X0110423Y0083100D01*
X0109357Y0083541D01*
X0106899Y0086000D01*
X0105558Y0086000D01*
X0105900Y0085175D01*
X0105900Y0076825D01*
X0105154Y0075024D01*
X0103776Y0073646D01*
X0101975Y0072900D01*
X0100025Y0072900D01*
X0098224Y0073646D01*
X0096846Y0075024D01*
X0096100Y0076825D01*
X0096100Y0085175D01*
X0096442Y0086000D01*
X0095357Y0086000D01*
X0095584Y0085301D01*
X0095700Y0084570D01*
X0095700Y0081500D01*
X0091500Y0081500D01*
X0091500Y0080500D01*
X0095700Y0080500D01*
X0095700Y0077430D01*
X0095584Y0076699D01*
X0095356Y0075996D01*
X0095020Y0075337D01*
X0094585Y0074738D01*
X0094062Y0074215D01*
X0093463Y0073780D01*
X0092804Y0073444D01*
X0092101Y0073216D01*
X0091500Y0073121D01*
X0091500Y0080500D01*
X0090500Y0080500D01*
X0090500Y0073121D01*
X0089899Y0073216D01*
X0089196Y0073444D01*
X0088537Y0073780D01*
X0087938Y0074215D01*
X0087415Y0074738D01*
X0086980Y0075337D01*
X0086644Y0075996D01*
X0086416Y0076699D01*
X0086300Y0077430D01*
X0086300Y0080500D01*
X0090500Y0080500D01*
X0090500Y0081500D01*
X0086300Y0081500D01*
X0086300Y0084570D01*
X0086416Y0085301D01*
X0086643Y0086000D01*
X0086000Y0086000D01*
X0086000Y0085873D02*
X0086602Y0085873D01*
X0086348Y0084875D02*
X0086000Y0084875D01*
X0086000Y0083876D02*
X0086300Y0083876D01*
X0086300Y0082878D02*
X0086000Y0082878D01*
X0086000Y0081879D02*
X0086300Y0081879D01*
X0086000Y0080881D02*
X0090500Y0080881D01*
X0090500Y0079882D02*
X0091500Y0079882D01*
X0091500Y0078884D02*
X0090500Y0078884D01*
X0090500Y0077885D02*
X0091500Y0077885D01*
X0091500Y0076887D02*
X0090500Y0076887D01*
X0090500Y0075888D02*
X0091500Y0075888D01*
X0091500Y0074890D02*
X0090500Y0074890D01*
X0090500Y0073891D02*
X0091500Y0073891D01*
X0093616Y0073891D02*
X0097979Y0073891D01*
X0096981Y0074890D02*
X0094695Y0074890D01*
X0095301Y0075888D02*
X0096488Y0075888D01*
X0096100Y0076887D02*
X0095614Y0076887D01*
X0095700Y0077885D02*
X0096100Y0077885D01*
X0096100Y0078884D02*
X0095700Y0078884D01*
X0095700Y0079882D02*
X0096100Y0079882D01*
X0096100Y0080881D02*
X0091500Y0080881D01*
X0095700Y0081879D02*
X0096100Y0081879D01*
X0096100Y0082878D02*
X0095700Y0082878D01*
X0095700Y0083876D02*
X0096100Y0083876D01*
X0096100Y0084875D02*
X0095652Y0084875D01*
X0095398Y0085873D02*
X0096389Y0085873D01*
X0105611Y0085873D02*
X0107025Y0085873D01*
X0108024Y0084875D02*
X0105900Y0084875D01*
X0105900Y0083876D02*
X0109022Y0083876D01*
X0105900Y0082878D02*
X0123992Y0082878D01*
X0124991Y0081879D02*
X0105900Y0081879D01*
X0105900Y0080881D02*
X0173630Y0080881D01*
X0171702Y0079882D02*
X0105900Y0079882D01*
X0105900Y0078884D02*
X0170803Y0078884D01*
X0170253Y0077885D02*
X0105900Y0077885D01*
X0105900Y0076887D02*
X0169978Y0076887D01*
X0170013Y0074890D02*
X0105019Y0074890D01*
X0105512Y0075888D02*
X0178000Y0075888D01*
X0178000Y0074890D02*
X0179000Y0074890D01*
X0179000Y0073891D02*
X0178000Y0073891D01*
X0178000Y0072893D02*
X0179000Y0072893D01*
X0179000Y0071894D02*
X0178000Y0071894D01*
X0178000Y0076887D02*
X0179000Y0076887D01*
X0179000Y0077885D02*
X0178000Y0077885D01*
X0178000Y0078884D02*
X0179000Y0078884D01*
X0179000Y0079882D02*
X0178000Y0079882D01*
X0178000Y0080881D02*
X0179000Y0080881D01*
X0183370Y0080881D02*
X0186000Y0080881D01*
X0186000Y0081879D02*
X0137009Y0081879D01*
X0138008Y0082878D02*
X0186000Y0082878D01*
X0186000Y0083876D02*
X0138624Y0083876D01*
X0139038Y0084875D02*
X0186000Y0084875D01*
X0186000Y0085873D02*
X0139100Y0085873D01*
X0170357Y0073891D02*
X0104021Y0073891D01*
X0093800Y0063800D02*
X0186000Y0063800D01*
X0186000Y0059155D01*
X0185902Y0059290D01*
X0185340Y0059852D01*
X0184697Y0060319D01*
X0183989Y0060680D01*
X0183233Y0060926D01*
X0182447Y0061050D01*
X0179000Y0061050D01*
X0179000Y0056500D01*
X0178000Y0056500D01*
X0178000Y0061050D01*
X0174553Y0061050D01*
X0173767Y0060926D01*
X0173011Y0060680D01*
X0172303Y0060319D01*
X0171660Y0059852D01*
X0171098Y0059290D01*
X0170631Y0058647D01*
X0170270Y0057939D01*
X0170024Y0057183D01*
X0169916Y0056500D01*
X0178000Y0056500D01*
X0178000Y0055500D01*
X0179000Y0055500D01*
X0179000Y0050950D01*
X0182447Y0050950D01*
X0183233Y0051074D01*
X0183989Y0051320D01*
X0184697Y0051681D01*
X0185340Y0052148D01*
X0185902Y0052710D01*
X0186000Y0052845D01*
X0186000Y0046000D01*
X0096000Y0046000D01*
X0096000Y0031000D01*
X0095357Y0031000D01*
X0095584Y0031699D01*
X0095700Y0032430D01*
X0095700Y0035500D01*
X0091500Y0035500D01*
X0091500Y0036500D01*
X0090500Y0036500D01*
X0090500Y0043879D01*
X0089899Y0043784D01*
X0089196Y0043556D01*
X0088537Y0043220D01*
X0087938Y0042785D01*
X0087415Y0042262D01*
X0086980Y0041663D01*
X0086644Y0041004D01*
X0086416Y0040301D01*
X0086300Y0039570D01*
X0086300Y0036500D01*
X0090500Y0036500D01*
X0090500Y0035500D01*
X0086300Y0035500D01*
X0086300Y0032430D01*
X0086416Y0031699D01*
X0086643Y0031000D01*
X0086000Y0031000D01*
X0086000Y0056000D01*
X0093800Y0063800D01*
X0092908Y0062908D02*
X0186000Y0062908D01*
X0186000Y0061909D02*
X0091909Y0061909D01*
X0090911Y0060911D02*
X0173721Y0060911D01*
X0171743Y0059912D02*
X0089912Y0059912D01*
X0088914Y0058914D02*
X0170825Y0058914D01*
X0170262Y0057915D02*
X0087915Y0057915D01*
X0086917Y0056917D02*
X0169982Y0056917D01*
X0169916Y0055500D02*
X0170024Y0054817D01*
X0170270Y0054061D01*
X0170631Y0053353D01*
X0171098Y0052710D01*
X0171660Y0052148D01*
X0172303Y0051681D01*
X0173011Y0051320D01*
X0173767Y0051074D01*
X0174553Y0050950D01*
X0178000Y0050950D01*
X0178000Y0055500D01*
X0169916Y0055500D01*
X0170008Y0054920D02*
X0086000Y0054920D01*
X0086000Y0055918D02*
X0178000Y0055918D01*
X0178000Y0054920D02*
X0179000Y0054920D01*
X0179000Y0053921D02*
X0178000Y0053921D01*
X0178000Y0052923D02*
X0179000Y0052923D01*
X0179000Y0051924D02*
X0178000Y0051924D01*
X0178000Y0056917D02*
X0179000Y0056917D01*
X0179000Y0057915D02*
X0178000Y0057915D01*
X0178000Y0058914D02*
X0179000Y0058914D01*
X0179000Y0059912D02*
X0178000Y0059912D01*
X0178000Y0060911D02*
X0179000Y0060911D01*
X0183279Y0060911D02*
X0186000Y0060911D01*
X0186000Y0059912D02*
X0185257Y0059912D01*
X0186000Y0066902D02*
X0090098Y0066902D01*
X0089100Y0067900D02*
X0186000Y0067900D01*
X0186000Y0068899D02*
X0088101Y0068899D01*
X0087103Y0069897D02*
X0186000Y0069897D01*
X0186000Y0070896D02*
X0086104Y0070896D01*
X0086000Y0071894D02*
X0172009Y0071894D01*
X0170965Y0072893D02*
X0086000Y0072893D01*
X0086000Y0073891D02*
X0088384Y0073891D01*
X0087305Y0074890D02*
X0086000Y0074890D01*
X0086000Y0075888D02*
X0086699Y0075888D01*
X0086386Y0076887D02*
X0086000Y0076887D01*
X0086000Y0077885D02*
X0086300Y0077885D01*
X0086300Y0078884D02*
X0086000Y0078884D01*
X0086000Y0079882D02*
X0086300Y0079882D01*
X0086000Y0053921D02*
X0170341Y0053921D01*
X0170944Y0052923D02*
X0086000Y0052923D01*
X0086000Y0051924D02*
X0171968Y0051924D01*
X0185032Y0051924D02*
X0186000Y0051924D01*
X0186000Y0050926D02*
X0086000Y0050926D01*
X0086000Y0049927D02*
X0186000Y0049927D01*
X0186000Y0048929D02*
X0086000Y0048929D01*
X0086000Y0047930D02*
X0186000Y0047930D01*
X0186000Y0046932D02*
X0086000Y0046932D01*
X0086000Y0045933D02*
X0096000Y0045933D01*
X0096000Y0044934D02*
X0086000Y0044934D01*
X0086000Y0043936D02*
X0096000Y0043936D01*
X0096000Y0042937D02*
X0093852Y0042937D01*
X0094062Y0042785D02*
X0093463Y0043220D01*
X0092804Y0043556D01*
X0092101Y0043784D01*
X0091500Y0043879D01*
X0091500Y0036500D01*
X0095700Y0036500D01*
X0095700Y0039570D01*
X0095584Y0040301D01*
X0095356Y0041004D01*
X0095020Y0041663D01*
X0094585Y0042262D01*
X0094062Y0042785D01*
X0094820Y0041939D02*
X0096000Y0041939D01*
X0096000Y0040940D02*
X0095376Y0040940D01*
X0095641Y0039942D02*
X0096000Y0039942D01*
X0096000Y0038943D02*
X0095700Y0038943D01*
X0095700Y0037945D02*
X0096000Y0037945D01*
X0096000Y0036946D02*
X0095700Y0036946D01*
X0096000Y0035948D02*
X0091500Y0035948D01*
X0091500Y0036946D02*
X0090500Y0036946D01*
X0090500Y0035948D02*
X0086000Y0035948D01*
X0086000Y0036946D02*
X0086300Y0036946D01*
X0086300Y0037945D02*
X0086000Y0037945D01*
X0086000Y0038943D02*
X0086300Y0038943D01*
X0086359Y0039942D02*
X0086000Y0039942D01*
X0086000Y0040940D02*
X0086624Y0040940D01*
X0087180Y0041939D02*
X0086000Y0041939D01*
X0086000Y0042937D02*
X0088148Y0042937D01*
X0090500Y0042937D02*
X0091500Y0042937D01*
X0091500Y0041939D02*
X0090500Y0041939D01*
X0090500Y0040940D02*
X0091500Y0040940D01*
X0091500Y0039942D02*
X0090500Y0039942D01*
X0090500Y0038943D02*
X0091500Y0038943D01*
X0091500Y0037945D02*
X0090500Y0037945D01*
X0086300Y0034949D02*
X0086000Y0034949D01*
X0086000Y0033951D02*
X0086300Y0033951D01*
X0086300Y0032952D02*
X0086000Y0032952D01*
X0086000Y0031954D02*
X0086375Y0031954D01*
X0095625Y0031954D02*
X0096000Y0031954D01*
X0096000Y0032952D02*
X0095700Y0032952D01*
X0095700Y0033951D02*
X0096000Y0033951D01*
X0096000Y0034949D02*
X0095700Y0034949D01*
X0184991Y0071894D02*
X0186000Y0071894D01*
X0186000Y0079882D02*
X0185298Y0079882D01*
X0156000Y0126000D02*
X0150558Y0126000D01*
X0150900Y0126825D01*
X0150900Y0135175D01*
X0150154Y0136976D01*
X0148776Y0138354D01*
X0146975Y0139100D01*
X0145025Y0139100D01*
X0143224Y0138354D01*
X0141846Y0136976D01*
X0141100Y0135175D01*
X0141100Y0126825D01*
X0141442Y0126000D01*
X0140357Y0126000D01*
X0140584Y0126699D01*
X0140700Y0127430D01*
X0140700Y0130500D01*
X0136500Y0130500D01*
X0136500Y0131500D01*
X0135500Y0131500D01*
X0135500Y0138879D01*
X0134899Y0138784D01*
X0134196Y0138556D01*
X0133537Y0138220D01*
X0132938Y0137785D01*
X0132415Y0137262D01*
X0131980Y0136663D01*
X0131644Y0136004D01*
X0131416Y0135301D01*
X0131300Y0134570D01*
X0131300Y0131500D01*
X0135500Y0131500D01*
X0135500Y0130500D01*
X0131300Y0130500D01*
X0131300Y0127430D01*
X0131416Y0126699D01*
X0131643Y0126000D01*
X0131000Y0126000D01*
X0131000Y0151000D01*
X0156000Y0151000D01*
X0161000Y0156000D01*
X0186000Y0156000D01*
X0186000Y0149155D01*
X0185902Y0149290D01*
X0185340Y0149852D01*
X0184697Y0150319D01*
X0183989Y0150680D01*
X0183233Y0150926D01*
X0182447Y0151050D01*
X0179000Y0151050D01*
X0179000Y0146500D01*
X0178000Y0146500D01*
X0178000Y0151050D01*
X0174553Y0151050D01*
X0173767Y0150926D01*
X0173011Y0150680D01*
X0172303Y0150319D01*
X0171660Y0149852D01*
X0171098Y0149290D01*
X0170631Y0148647D01*
X0170270Y0147939D01*
X0170024Y0147183D01*
X0169916Y0146500D01*
X0178000Y0146500D01*
X0178000Y0145500D01*
X0179000Y0145500D01*
X0179000Y0140950D01*
X0182447Y0140950D01*
X0183233Y0141074D01*
X0183989Y0141320D01*
X0184697Y0141681D01*
X0185340Y0142148D01*
X0185902Y0142710D01*
X0186000Y0142845D01*
X0186000Y0136000D01*
X0166000Y0136000D01*
X0156000Y0126000D01*
X0156812Y0126812D02*
X0150895Y0126812D01*
X0150900Y0127811D02*
X0157811Y0127811D01*
X0158809Y0128809D02*
X0150900Y0128809D01*
X0150900Y0129808D02*
X0159808Y0129808D01*
X0160806Y0130806D02*
X0150900Y0130806D01*
X0150900Y0131805D02*
X0161805Y0131805D01*
X0162803Y0132803D02*
X0150900Y0132803D01*
X0150900Y0133802D02*
X0163802Y0133802D01*
X0164801Y0134801D02*
X0150900Y0134801D01*
X0150641Y0135799D02*
X0165799Y0135799D01*
X0171660Y0142148D02*
X0171098Y0142710D01*
X0170631Y0143353D01*
X0170270Y0144061D01*
X0170024Y0144817D01*
X0169916Y0145500D01*
X0178000Y0145500D01*
X0178000Y0140950D01*
X0174553Y0140950D01*
X0173767Y0141074D01*
X0173011Y0141320D01*
X0172303Y0141681D01*
X0171660Y0142148D01*
X0172153Y0141790D02*
X0131000Y0141790D01*
X0131000Y0140792D02*
X0186000Y0140792D01*
X0186000Y0141790D02*
X0184847Y0141790D01*
X0185959Y0142789D02*
X0186000Y0142789D01*
X0186000Y0139793D02*
X0131000Y0139793D01*
X0131000Y0138795D02*
X0134964Y0138795D01*
X0135500Y0138795D02*
X0136500Y0138795D01*
X0136500Y0138879D02*
X0136500Y0131500D01*
X0140700Y0131500D01*
X0140700Y0134570D01*
X0140584Y0135301D01*
X0140356Y0136004D01*
X0140020Y0136663D01*
X0139585Y0137262D01*
X0139062Y0137785D01*
X0138463Y0138220D01*
X0137804Y0138556D01*
X0137101Y0138784D01*
X0136500Y0138879D01*
X0137036Y0138795D02*
X0144288Y0138795D01*
X0142666Y0137796D02*
X0139047Y0137796D01*
X0139922Y0136798D02*
X0141772Y0136798D01*
X0141359Y0135799D02*
X0140422Y0135799D01*
X0140663Y0134801D02*
X0141100Y0134801D01*
X0141100Y0133802D02*
X0140700Y0133802D01*
X0140700Y0132803D02*
X0141100Y0132803D01*
X0141100Y0131805D02*
X0140700Y0131805D01*
X0141100Y0130806D02*
X0136500Y0130806D01*
X0136500Y0131805D02*
X0135500Y0131805D01*
X0135500Y0132803D02*
X0136500Y0132803D01*
X0136500Y0133802D02*
X0135500Y0133802D01*
X0135500Y0134801D02*
X0136500Y0134801D01*
X0136500Y0135799D02*
X0135500Y0135799D01*
X0135500Y0136798D02*
X0136500Y0136798D01*
X0136500Y0137796D02*
X0135500Y0137796D01*
X0132953Y0137796D02*
X0131000Y0137796D01*
X0131000Y0136798D02*
X0132078Y0136798D01*
X0131578Y0135799D02*
X0131000Y0135799D01*
X0131000Y0134801D02*
X0131337Y0134801D01*
X0131300Y0133802D02*
X0131000Y0133802D01*
X0131000Y0132803D02*
X0131300Y0132803D01*
X0131300Y0131805D02*
X0131000Y0131805D01*
X0131000Y0130806D02*
X0135500Y0130806D01*
X0131300Y0129808D02*
X0131000Y0129808D01*
X0131000Y0128809D02*
X0131300Y0128809D01*
X0131300Y0127811D02*
X0131000Y0127811D01*
X0131000Y0126812D02*
X0131398Y0126812D01*
X0140602Y0126812D02*
X0141105Y0126812D01*
X0141100Y0127811D02*
X0140700Y0127811D01*
X0140700Y0128809D02*
X0141100Y0128809D01*
X0141100Y0129808D02*
X0140700Y0129808D01*
X0147712Y0138795D02*
X0186000Y0138795D01*
X0186000Y0137796D02*
X0149334Y0137796D01*
X0150228Y0136798D02*
X0186000Y0136798D01*
X0179000Y0141790D02*
X0178000Y0141790D01*
X0178000Y0142789D02*
X0179000Y0142789D01*
X0179000Y0143787D02*
X0178000Y0143787D01*
X0178000Y0144786D02*
X0179000Y0144786D01*
X0178000Y0145784D02*
X0131000Y0145784D01*
X0131000Y0144786D02*
X0170035Y0144786D01*
X0170410Y0143787D02*
X0131000Y0143787D01*
X0131000Y0142789D02*
X0171041Y0142789D01*
X0169961Y0146783D02*
X0131000Y0146783D01*
X0131000Y0147781D02*
X0170219Y0147781D01*
X0170727Y0148780D02*
X0131000Y0148780D01*
X0131000Y0149778D02*
X0171586Y0149778D01*
X0173309Y0150777D02*
X0131000Y0150777D01*
X0131000Y0156000D02*
X0131000Y0171000D01*
X0141000Y0181000D01*
X0176000Y0181000D01*
X0186000Y0171000D01*
X0186000Y0169155D01*
X0185902Y0169290D01*
X0185340Y0169852D01*
X0184697Y0170319D01*
X0183989Y0170680D01*
X0183233Y0170926D01*
X0182447Y0171050D01*
X0179000Y0171050D01*
X0179000Y0166500D01*
X0178000Y0166500D01*
X0178000Y0171050D01*
X0174553Y0171050D01*
X0173767Y0170926D01*
X0173011Y0170680D01*
X0172303Y0170319D01*
X0171660Y0169852D01*
X0171098Y0169290D01*
X0170631Y0168647D01*
X0170270Y0167939D01*
X0170024Y0167183D01*
X0169916Y0166500D01*
X0178000Y0166500D01*
X0178000Y0165500D01*
X0179000Y0165500D01*
X0179000Y0160950D01*
X0182447Y0160950D01*
X0183233Y0161074D01*
X0183989Y0161320D01*
X0184697Y0161681D01*
X0185340Y0162148D01*
X0185902Y0162710D01*
X0186000Y0162845D01*
X0186000Y0158200D01*
X0160089Y0158200D01*
X0158800Y0156911D01*
X0157889Y0156000D01*
X0150558Y0156000D01*
X0150900Y0156825D01*
X0150900Y0165175D01*
X0150154Y0166976D01*
X0148776Y0168354D01*
X0146975Y0169100D01*
X0145025Y0169100D01*
X0143224Y0168354D01*
X0141846Y0166976D01*
X0141100Y0165175D01*
X0141100Y0156825D01*
X0141442Y0156000D01*
X0140357Y0156000D01*
X0140584Y0156699D01*
X0140700Y0157430D01*
X0140700Y0160500D01*
X0136500Y0160500D01*
X0136500Y0161500D01*
X0135500Y0161500D01*
X0135500Y0168879D01*
X0134899Y0168784D01*
X0134196Y0168556D01*
X0133537Y0168220D01*
X0132938Y0167785D01*
X0132415Y0167262D01*
X0131980Y0166663D01*
X0131644Y0166004D01*
X0131416Y0165301D01*
X0131300Y0164570D01*
X0131300Y0161500D01*
X0135500Y0161500D01*
X0135500Y0160500D01*
X0131300Y0160500D01*
X0131300Y0157430D01*
X0131416Y0156699D01*
X0131643Y0156000D01*
X0131000Y0156000D01*
X0131000Y0156768D02*
X0131405Y0156768D01*
X0131300Y0157766D02*
X0131000Y0157766D01*
X0131000Y0158765D02*
X0131300Y0158765D01*
X0131300Y0159763D02*
X0131000Y0159763D01*
X0131000Y0160762D02*
X0135500Y0160762D01*
X0135500Y0161760D02*
X0136500Y0161760D01*
X0136500Y0161500D02*
X0136500Y0168879D01*
X0137101Y0168784D01*
X0137804Y0168556D01*
X0138463Y0168220D01*
X0139062Y0167785D01*
X0139585Y0167262D01*
X0140020Y0166663D01*
X0140356Y0166004D01*
X0140584Y0165301D01*
X0140700Y0164570D01*
X0140700Y0161500D01*
X0136500Y0161500D01*
X0136500Y0160762D02*
X0141100Y0160762D01*
X0141100Y0161760D02*
X0140700Y0161760D01*
X0140700Y0162759D02*
X0141100Y0162759D01*
X0141100Y0163757D02*
X0140700Y0163757D01*
X0140671Y0164756D02*
X0141100Y0164756D01*
X0141340Y0165754D02*
X0140437Y0165754D01*
X0139955Y0166753D02*
X0141754Y0166753D01*
X0142622Y0167751D02*
X0139095Y0167751D01*
X0137206Y0168750D02*
X0144180Y0168750D01*
X0147820Y0168750D02*
X0170706Y0168750D01*
X0170209Y0167751D02*
X0149378Y0167751D01*
X0150246Y0166753D02*
X0169956Y0166753D01*
X0169916Y0165500D02*
X0170024Y0164817D01*
X0170270Y0164061D01*
X0170631Y0163353D01*
X0171098Y0162710D01*
X0171660Y0162148D01*
X0172303Y0161681D01*
X0173011Y0161320D01*
X0173767Y0161074D01*
X0174553Y0160950D01*
X0178000Y0160950D01*
X0178000Y0165500D01*
X0169916Y0165500D01*
X0170044Y0164756D02*
X0150900Y0164756D01*
X0150900Y0163757D02*
X0170425Y0163757D01*
X0171063Y0162759D02*
X0150900Y0162759D01*
X0150900Y0161760D02*
X0172194Y0161760D01*
X0178000Y0161760D02*
X0179000Y0161760D01*
X0179000Y0162759D02*
X0178000Y0162759D01*
X0178000Y0163757D02*
X0179000Y0163757D01*
X0179000Y0164756D02*
X0178000Y0164756D01*
X0178000Y0165754D02*
X0150660Y0165754D01*
X0150900Y0160762D02*
X0186000Y0160762D01*
X0186000Y0161760D02*
X0184806Y0161760D01*
X0185937Y0162759D02*
X0186000Y0162759D01*
X0186000Y0159763D02*
X0150900Y0159763D01*
X0150900Y0158765D02*
X0186000Y0158765D01*
X0186000Y0155769D02*
X0160769Y0155769D01*
X0159771Y0154771D02*
X0186000Y0154771D01*
X0186000Y0153772D02*
X0158772Y0153772D01*
X0157774Y0152774D02*
X0186000Y0152774D01*
X0186000Y0151775D02*
X0156775Y0151775D01*
X0158656Y0156768D02*
X0150876Y0156768D01*
X0150900Y0157766D02*
X0159655Y0157766D01*
X0171557Y0169748D02*
X0131000Y0169748D01*
X0131000Y0168750D02*
X0134794Y0168750D01*
X0135500Y0168750D02*
X0136500Y0168750D01*
X0136500Y0167751D02*
X0135500Y0167751D01*
X0135500Y0166753D02*
X0136500Y0166753D01*
X0136500Y0165754D02*
X0135500Y0165754D01*
X0135500Y0164756D02*
X0136500Y0164756D01*
X0136500Y0163757D02*
X0135500Y0163757D01*
X0135500Y0162759D02*
X0136500Y0162759D01*
X0140700Y0159763D02*
X0141100Y0159763D01*
X0141100Y0158765D02*
X0140700Y0158765D01*
X0140700Y0157766D02*
X0141100Y0157766D01*
X0141124Y0156768D02*
X0140595Y0156768D01*
X0131300Y0161760D02*
X0131000Y0161760D01*
X0131000Y0162759D02*
X0131300Y0162759D01*
X0131300Y0163757D02*
X0131000Y0163757D01*
X0131000Y0164756D02*
X0131329Y0164756D01*
X0131563Y0165754D02*
X0131000Y0165754D01*
X0131000Y0166753D02*
X0132045Y0166753D01*
X0132905Y0167751D02*
X0131000Y0167751D01*
X0131000Y0170747D02*
X0173217Y0170747D01*
X0178000Y0170747D02*
X0179000Y0170747D01*
X0179000Y0169748D02*
X0178000Y0169748D01*
X0178000Y0168750D02*
X0179000Y0168750D01*
X0179000Y0167751D02*
X0178000Y0167751D01*
X0178000Y0166753D02*
X0179000Y0166753D01*
X0183783Y0170747D02*
X0186000Y0170747D01*
X0186000Y0169748D02*
X0185443Y0169748D01*
X0185255Y0171745D02*
X0131745Y0171745D01*
X0132744Y0172744D02*
X0184256Y0172744D01*
X0183258Y0173742D02*
X0133742Y0173742D01*
X0134741Y0174741D02*
X0182259Y0174741D01*
X0181261Y0175739D02*
X0135739Y0175739D01*
X0136738Y0176738D02*
X0180262Y0176738D01*
X0179263Y0177737D02*
X0137737Y0177737D01*
X0138735Y0178735D02*
X0178265Y0178735D01*
X0177266Y0179734D02*
X0139734Y0179734D01*
X0140732Y0180732D02*
X0176268Y0180732D01*
X0178000Y0150777D02*
X0179000Y0150777D01*
X0179000Y0149778D02*
X0178000Y0149778D01*
X0178000Y0148780D02*
X0179000Y0148780D01*
X0179000Y0147781D02*
X0178000Y0147781D01*
X0178000Y0146783D02*
X0179000Y0146783D01*
X0183691Y0150777D02*
X0186000Y0150777D01*
X0186000Y0149778D02*
X0185414Y0149778D01*
M02*
