%
M48
M72
T01C0.02362
T02C0.03200
T03C0.04000
T04C0.04700
T05C0.12598
%
T01
X11500Y161500
X36500Y156500
X46500Y156500
X56500Y166500
X71500Y161500
X86500Y181500
X121500Y151500
X116500Y121500
X106500Y116500
X116500Y91500
X121500Y61500
X81500Y86500
X81500Y121500
X66500Y126500
X46500Y91500
X66500Y51500
T02
X31500Y83500
X31500Y69500
X56500Y31500
X66500Y31500
T03
X101500Y191500
X111500Y191500
X121500Y191500
X131500Y191500
X126500Y166500
X136500Y166500
X146500Y166500
X146500Y136500
X136500Y136500
X126500Y136500
X126500Y106500
X136500Y106500
X146500Y106500
X146500Y76500
X136500Y76500
X126500Y76500
X126500Y46500
X136500Y46500
X146500Y46500
T04
X86500Y19000
X106500Y19000
X179000Y36500
X179000Y56500
X179000Y76500
X179000Y96500
X179000Y126500
X179000Y146500
X179000Y166500
T05
X11500Y11500
X11500Y191500
X186500Y191500
X186500Y11500
M30
