G75*
%MOIN*%
%OFA0B0*%
%FSLAX25Y25*%
%IPPOS*%
%LPD*%
%AMOC8*
5,1,8,0,0,1.08239X$1,22.5*
%
%ADD10C,0.00000*%
%ADD11C,0.00400*%
%ADD12C,0.00500*%
%ADD13C,0.00600*%
%ADD14C,0.00300*%
%ADD15R,0.42000X0.03000*%
%ADD16R,0.07500X0.02000*%
%ADD17R,0.03000X0.02000*%
%ADD18R,0.03000X0.42000*%
%ADD19R,0.02000X0.07500*%
%ADD20R,0.02000X0.03000*%
%ADD21C,0.00800*%
%ADD22C,0.00200*%
%ADD23R,0.00111X0.01330*%
%ADD24R,0.00111X0.02780*%
%ADD25R,0.00111X0.03780*%
%ADD26R,0.00111X0.04440*%
%ADD27R,0.00112X0.05440*%
%ADD28R,0.00111X0.06440*%
%ADD29R,0.00111X0.07440*%
%ADD30R,0.00111X0.08550*%
%ADD31R,0.00111X0.09110*%
%ADD32R,0.00111X0.10110*%
%ADD33R,0.00111X0.11000*%
%ADD34R,0.00111X0.12110*%
%ADD35R,0.00111X0.12780*%
%ADD36R,0.00112X0.13780*%
%ADD37R,0.00111X0.14780*%
%ADD38R,0.00111X0.13110*%
%ADD39R,0.00111X0.01560*%
%ADD40R,0.00111X0.12450*%
%ADD41R,0.00111X0.11890*%
%ADD42R,0.00111X0.10000*%
%ADD43R,0.00111X0.01670*%
%ADD44R,0.00111X0.08560*%
%ADD45R,0.00112X0.07450*%
%ADD46R,0.00112X0.01670*%
%ADD47R,0.00111X0.06450*%
%ADD48R,0.00111X0.05450*%
%ADD49R,0.00111X0.04450*%
%ADD50R,0.00111X0.03890*%
%ADD51R,0.00111X0.02890*%
%ADD52R,0.00111X0.01780*%
%ADD53R,0.00111X0.01670*%
%ADD54R,0.00112X0.01560*%
%ADD55R,0.00112X0.01670*%
%ADD56R,0.00111X0.01560*%
%ADD57R,0.00111X0.00110*%
%ADD58R,0.00112X0.01560*%
%ADD59R,0.00112X0.02560*%
%ADD60R,0.00111X0.03440*%
%ADD61R,0.00111X0.04560*%
%ADD62R,0.00111X0.04890*%
%ADD63R,0.00111X0.05440*%
%ADD64R,0.00111X0.02450*%
%ADD65R,0.00111X0.02110*%
%ADD66R,0.00111X0.02000*%
%ADD67R,0.00111X0.01890*%
%ADD68R,0.00111X0.01550*%
%ADD69R,0.00112X0.01450*%
%ADD70R,0.00111X0.01440*%
%ADD71R,0.00111X0.01340*%
%ADD72R,0.00111X0.01220*%
%ADD73R,0.00111X0.01110*%
%ADD74R,0.00111X0.01120*%
%ADD75R,0.00111X0.01000*%
%ADD76R,0.00111X0.00890*%
%ADD77R,0.00111X0.00890*%
%ADD78R,0.00112X0.01550*%
%ADD79R,0.00112X0.01000*%
%ADD80R,0.00112X0.00890*%
%ADD81R,0.00111X0.01660*%
%ADD82R,0.00111X0.00770*%
%ADD83R,0.00111X0.00880*%
%ADD84R,0.00111X0.00780*%
%ADD85R,0.00112X0.00780*%
%ADD86R,0.00111X0.01660*%
%ADD87R,0.00111X0.00660*%
%ADD88R,0.00111X0.00440*%
%ADD89R,0.00111X0.00660*%
%ADD90R,0.00112X0.01660*%
%ADD91R,0.00112X0.00770*%
%ADD92R,0.00111X0.01440*%
%ADD93R,0.00111X0.00330*%
%ADD94R,0.00111X0.00550*%
%ADD95R,0.00111X0.00670*%
%ADD96R,0.00111X0.01770*%
%ADD97R,0.00112X0.01780*%
%ADD98R,0.00111X0.03450*%
%ADD99R,0.00111X0.01220*%
%ADD100R,0.00111X0.01450*%
%ADD101R,0.00111X0.03560*%
%ADD102R,0.00111X0.03670*%
%ADD103R,0.00111X0.02330*%
%ADD104R,0.00111X0.00670*%
%ADD105R,0.00111X0.00340*%
%ADD106R,0.00111X0.03230*%
%ADD107R,0.00112X0.03110*%
%ADD108R,0.00111X0.03000*%
%ADD109R,0.00111X0.02890*%
%ADD110R,0.00111X0.00220*%
%ADD111R,0.00111X0.02670*%
%ADD112R,0.00111X0.02560*%
%ADD113R,0.00111X0.02560*%
%ADD114R,0.00111X0.00330*%
%ADD115R,0.00111X0.02550*%
%ADD116R,0.00112X0.02550*%
%ADD117R,0.00111X0.01330*%
%ADD118R,0.00111X0.03550*%
%ADD119R,0.00111X0.03670*%
%ADD120R,0.00112X0.03670*%
%ADD121R,0.00111X0.03770*%
%ADD122R,0.00111X0.03880*%
%ADD123R,0.00111X0.03780*%
%ADD124R,0.00112X0.03780*%
%ADD125R,0.00112X0.02560*%
%ADD126R,0.00112X0.03660*%
%ADD127R,0.00111X0.02660*%
%ADD128R,0.00112X0.03770*%
%ADD129R,0.00112X0.02440*%
%ADD130R,0.00111X0.03890*%
%ADD131R,0.00111X0.06110*%
%ADD132R,0.00111X0.05780*%
%ADD133R,0.00111X0.05110*%
%ADD134R,0.00111X0.04660*%
%ADD135R,0.00112X0.04220*%
%ADD136R,0.00111X0.02440*%
%ADD137R,0.00111X0.01780*%
D10*
X0025347Y0025014D02*
X0025741Y0233557D01*
X0210426Y0233557D01*
X0210426Y0025014D01*
X0025347Y0025014D01*
X0032985Y0036195D02*
X0032987Y0036353D01*
X0032993Y0036511D01*
X0033003Y0036669D01*
X0033017Y0036827D01*
X0033035Y0036984D01*
X0033056Y0037141D01*
X0033082Y0037297D01*
X0033112Y0037453D01*
X0033145Y0037608D01*
X0033183Y0037761D01*
X0033224Y0037914D01*
X0033269Y0038066D01*
X0033318Y0038217D01*
X0033371Y0038366D01*
X0033427Y0038514D01*
X0033487Y0038660D01*
X0033551Y0038805D01*
X0033619Y0038948D01*
X0033690Y0039090D01*
X0033764Y0039230D01*
X0033842Y0039367D01*
X0033924Y0039503D01*
X0034008Y0039637D01*
X0034097Y0039768D01*
X0034188Y0039897D01*
X0034283Y0040024D01*
X0034380Y0040149D01*
X0034481Y0040271D01*
X0034585Y0040390D01*
X0034692Y0040507D01*
X0034802Y0040621D01*
X0034915Y0040732D01*
X0035030Y0040841D01*
X0035148Y0040946D01*
X0035269Y0041048D01*
X0035392Y0041148D01*
X0035518Y0041244D01*
X0035646Y0041337D01*
X0035776Y0041427D01*
X0035909Y0041513D01*
X0036044Y0041597D01*
X0036180Y0041676D01*
X0036319Y0041753D01*
X0036460Y0041825D01*
X0036602Y0041895D01*
X0036746Y0041960D01*
X0036892Y0042022D01*
X0037039Y0042080D01*
X0037188Y0042135D01*
X0037338Y0042186D01*
X0037489Y0042233D01*
X0037641Y0042276D01*
X0037794Y0042315D01*
X0037949Y0042351D01*
X0038104Y0042382D01*
X0038260Y0042410D01*
X0038416Y0042434D01*
X0038573Y0042454D01*
X0038731Y0042470D01*
X0038888Y0042482D01*
X0039047Y0042490D01*
X0039205Y0042494D01*
X0039363Y0042494D01*
X0039521Y0042490D01*
X0039680Y0042482D01*
X0039837Y0042470D01*
X0039995Y0042454D01*
X0040152Y0042434D01*
X0040308Y0042410D01*
X0040464Y0042382D01*
X0040619Y0042351D01*
X0040774Y0042315D01*
X0040927Y0042276D01*
X0041079Y0042233D01*
X0041230Y0042186D01*
X0041380Y0042135D01*
X0041529Y0042080D01*
X0041676Y0042022D01*
X0041822Y0041960D01*
X0041966Y0041895D01*
X0042108Y0041825D01*
X0042249Y0041753D01*
X0042388Y0041676D01*
X0042524Y0041597D01*
X0042659Y0041513D01*
X0042792Y0041427D01*
X0042922Y0041337D01*
X0043050Y0041244D01*
X0043176Y0041148D01*
X0043299Y0041048D01*
X0043420Y0040946D01*
X0043538Y0040841D01*
X0043653Y0040732D01*
X0043766Y0040621D01*
X0043876Y0040507D01*
X0043983Y0040390D01*
X0044087Y0040271D01*
X0044188Y0040149D01*
X0044285Y0040024D01*
X0044380Y0039897D01*
X0044471Y0039768D01*
X0044560Y0039637D01*
X0044644Y0039503D01*
X0044726Y0039367D01*
X0044804Y0039230D01*
X0044878Y0039090D01*
X0044949Y0038948D01*
X0045017Y0038805D01*
X0045081Y0038660D01*
X0045141Y0038514D01*
X0045197Y0038366D01*
X0045250Y0038217D01*
X0045299Y0038066D01*
X0045344Y0037914D01*
X0045385Y0037761D01*
X0045423Y0037608D01*
X0045456Y0037453D01*
X0045486Y0037297D01*
X0045512Y0037141D01*
X0045533Y0036984D01*
X0045551Y0036827D01*
X0045565Y0036669D01*
X0045575Y0036511D01*
X0045581Y0036353D01*
X0045583Y0036195D01*
X0045581Y0036037D01*
X0045575Y0035879D01*
X0045565Y0035721D01*
X0045551Y0035563D01*
X0045533Y0035406D01*
X0045512Y0035249D01*
X0045486Y0035093D01*
X0045456Y0034937D01*
X0045423Y0034782D01*
X0045385Y0034629D01*
X0045344Y0034476D01*
X0045299Y0034324D01*
X0045250Y0034173D01*
X0045197Y0034024D01*
X0045141Y0033876D01*
X0045081Y0033730D01*
X0045017Y0033585D01*
X0044949Y0033442D01*
X0044878Y0033300D01*
X0044804Y0033160D01*
X0044726Y0033023D01*
X0044644Y0032887D01*
X0044560Y0032753D01*
X0044471Y0032622D01*
X0044380Y0032493D01*
X0044285Y0032366D01*
X0044188Y0032241D01*
X0044087Y0032119D01*
X0043983Y0032000D01*
X0043876Y0031883D01*
X0043766Y0031769D01*
X0043653Y0031658D01*
X0043538Y0031549D01*
X0043420Y0031444D01*
X0043299Y0031342D01*
X0043176Y0031242D01*
X0043050Y0031146D01*
X0042922Y0031053D01*
X0042792Y0030963D01*
X0042659Y0030877D01*
X0042524Y0030793D01*
X0042388Y0030714D01*
X0042249Y0030637D01*
X0042108Y0030565D01*
X0041966Y0030495D01*
X0041822Y0030430D01*
X0041676Y0030368D01*
X0041529Y0030310D01*
X0041380Y0030255D01*
X0041230Y0030204D01*
X0041079Y0030157D01*
X0040927Y0030114D01*
X0040774Y0030075D01*
X0040619Y0030039D01*
X0040464Y0030008D01*
X0040308Y0029980D01*
X0040152Y0029956D01*
X0039995Y0029936D01*
X0039837Y0029920D01*
X0039680Y0029908D01*
X0039521Y0029900D01*
X0039363Y0029896D01*
X0039205Y0029896D01*
X0039047Y0029900D01*
X0038888Y0029908D01*
X0038731Y0029920D01*
X0038573Y0029936D01*
X0038416Y0029956D01*
X0038260Y0029980D01*
X0038104Y0030008D01*
X0037949Y0030039D01*
X0037794Y0030075D01*
X0037641Y0030114D01*
X0037489Y0030157D01*
X0037338Y0030204D01*
X0037188Y0030255D01*
X0037039Y0030310D01*
X0036892Y0030368D01*
X0036746Y0030430D01*
X0036602Y0030495D01*
X0036460Y0030565D01*
X0036319Y0030637D01*
X0036180Y0030714D01*
X0036044Y0030793D01*
X0035909Y0030877D01*
X0035776Y0030963D01*
X0035646Y0031053D01*
X0035518Y0031146D01*
X0035392Y0031242D01*
X0035269Y0031342D01*
X0035148Y0031444D01*
X0035030Y0031549D01*
X0034915Y0031658D01*
X0034802Y0031769D01*
X0034692Y0031883D01*
X0034585Y0032000D01*
X0034481Y0032119D01*
X0034380Y0032241D01*
X0034283Y0032366D01*
X0034188Y0032493D01*
X0034097Y0032622D01*
X0034008Y0032753D01*
X0033924Y0032887D01*
X0033842Y0033023D01*
X0033764Y0033160D01*
X0033690Y0033300D01*
X0033619Y0033442D01*
X0033551Y0033585D01*
X0033487Y0033730D01*
X0033427Y0033876D01*
X0033371Y0034024D01*
X0033318Y0034173D01*
X0033269Y0034324D01*
X0033224Y0034476D01*
X0033183Y0034629D01*
X0033145Y0034782D01*
X0033112Y0034937D01*
X0033082Y0035093D01*
X0033056Y0035249D01*
X0033035Y0035406D01*
X0033017Y0035563D01*
X0033003Y0035721D01*
X0032993Y0035879D01*
X0032987Y0036037D01*
X0032985Y0036195D01*
X0190269Y0036195D02*
X0190271Y0036353D01*
X0190277Y0036511D01*
X0190287Y0036669D01*
X0190301Y0036827D01*
X0190319Y0036984D01*
X0190340Y0037141D01*
X0190366Y0037297D01*
X0190396Y0037453D01*
X0190429Y0037608D01*
X0190467Y0037761D01*
X0190508Y0037914D01*
X0190553Y0038066D01*
X0190602Y0038217D01*
X0190655Y0038366D01*
X0190711Y0038514D01*
X0190771Y0038660D01*
X0190835Y0038805D01*
X0190903Y0038948D01*
X0190974Y0039090D01*
X0191048Y0039230D01*
X0191126Y0039367D01*
X0191208Y0039503D01*
X0191292Y0039637D01*
X0191381Y0039768D01*
X0191472Y0039897D01*
X0191567Y0040024D01*
X0191664Y0040149D01*
X0191765Y0040271D01*
X0191869Y0040390D01*
X0191976Y0040507D01*
X0192086Y0040621D01*
X0192199Y0040732D01*
X0192314Y0040841D01*
X0192432Y0040946D01*
X0192553Y0041048D01*
X0192676Y0041148D01*
X0192802Y0041244D01*
X0192930Y0041337D01*
X0193060Y0041427D01*
X0193193Y0041513D01*
X0193328Y0041597D01*
X0193464Y0041676D01*
X0193603Y0041753D01*
X0193744Y0041825D01*
X0193886Y0041895D01*
X0194030Y0041960D01*
X0194176Y0042022D01*
X0194323Y0042080D01*
X0194472Y0042135D01*
X0194622Y0042186D01*
X0194773Y0042233D01*
X0194925Y0042276D01*
X0195078Y0042315D01*
X0195233Y0042351D01*
X0195388Y0042382D01*
X0195544Y0042410D01*
X0195700Y0042434D01*
X0195857Y0042454D01*
X0196015Y0042470D01*
X0196172Y0042482D01*
X0196331Y0042490D01*
X0196489Y0042494D01*
X0196647Y0042494D01*
X0196805Y0042490D01*
X0196964Y0042482D01*
X0197121Y0042470D01*
X0197279Y0042454D01*
X0197436Y0042434D01*
X0197592Y0042410D01*
X0197748Y0042382D01*
X0197903Y0042351D01*
X0198058Y0042315D01*
X0198211Y0042276D01*
X0198363Y0042233D01*
X0198514Y0042186D01*
X0198664Y0042135D01*
X0198813Y0042080D01*
X0198960Y0042022D01*
X0199106Y0041960D01*
X0199250Y0041895D01*
X0199392Y0041825D01*
X0199533Y0041753D01*
X0199672Y0041676D01*
X0199808Y0041597D01*
X0199943Y0041513D01*
X0200076Y0041427D01*
X0200206Y0041337D01*
X0200334Y0041244D01*
X0200460Y0041148D01*
X0200583Y0041048D01*
X0200704Y0040946D01*
X0200822Y0040841D01*
X0200937Y0040732D01*
X0201050Y0040621D01*
X0201160Y0040507D01*
X0201267Y0040390D01*
X0201371Y0040271D01*
X0201472Y0040149D01*
X0201569Y0040024D01*
X0201664Y0039897D01*
X0201755Y0039768D01*
X0201844Y0039637D01*
X0201928Y0039503D01*
X0202010Y0039367D01*
X0202088Y0039230D01*
X0202162Y0039090D01*
X0202233Y0038948D01*
X0202301Y0038805D01*
X0202365Y0038660D01*
X0202425Y0038514D01*
X0202481Y0038366D01*
X0202534Y0038217D01*
X0202583Y0038066D01*
X0202628Y0037914D01*
X0202669Y0037761D01*
X0202707Y0037608D01*
X0202740Y0037453D01*
X0202770Y0037297D01*
X0202796Y0037141D01*
X0202817Y0036984D01*
X0202835Y0036827D01*
X0202849Y0036669D01*
X0202859Y0036511D01*
X0202865Y0036353D01*
X0202867Y0036195D01*
X0202865Y0036037D01*
X0202859Y0035879D01*
X0202849Y0035721D01*
X0202835Y0035563D01*
X0202817Y0035406D01*
X0202796Y0035249D01*
X0202770Y0035093D01*
X0202740Y0034937D01*
X0202707Y0034782D01*
X0202669Y0034629D01*
X0202628Y0034476D01*
X0202583Y0034324D01*
X0202534Y0034173D01*
X0202481Y0034024D01*
X0202425Y0033876D01*
X0202365Y0033730D01*
X0202301Y0033585D01*
X0202233Y0033442D01*
X0202162Y0033300D01*
X0202088Y0033160D01*
X0202010Y0033023D01*
X0201928Y0032887D01*
X0201844Y0032753D01*
X0201755Y0032622D01*
X0201664Y0032493D01*
X0201569Y0032366D01*
X0201472Y0032241D01*
X0201371Y0032119D01*
X0201267Y0032000D01*
X0201160Y0031883D01*
X0201050Y0031769D01*
X0200937Y0031658D01*
X0200822Y0031549D01*
X0200704Y0031444D01*
X0200583Y0031342D01*
X0200460Y0031242D01*
X0200334Y0031146D01*
X0200206Y0031053D01*
X0200076Y0030963D01*
X0199943Y0030877D01*
X0199808Y0030793D01*
X0199672Y0030714D01*
X0199533Y0030637D01*
X0199392Y0030565D01*
X0199250Y0030495D01*
X0199106Y0030430D01*
X0198960Y0030368D01*
X0198813Y0030310D01*
X0198664Y0030255D01*
X0198514Y0030204D01*
X0198363Y0030157D01*
X0198211Y0030114D01*
X0198058Y0030075D01*
X0197903Y0030039D01*
X0197748Y0030008D01*
X0197592Y0029980D01*
X0197436Y0029956D01*
X0197279Y0029936D01*
X0197121Y0029920D01*
X0196964Y0029908D01*
X0196805Y0029900D01*
X0196647Y0029896D01*
X0196489Y0029896D01*
X0196331Y0029900D01*
X0196172Y0029908D01*
X0196015Y0029920D01*
X0195857Y0029936D01*
X0195700Y0029956D01*
X0195544Y0029980D01*
X0195388Y0030008D01*
X0195233Y0030039D01*
X0195078Y0030075D01*
X0194925Y0030114D01*
X0194773Y0030157D01*
X0194622Y0030204D01*
X0194472Y0030255D01*
X0194323Y0030310D01*
X0194176Y0030368D01*
X0194030Y0030430D01*
X0193886Y0030495D01*
X0193744Y0030565D01*
X0193603Y0030637D01*
X0193464Y0030714D01*
X0193328Y0030793D01*
X0193193Y0030877D01*
X0193060Y0030963D01*
X0192930Y0031053D01*
X0192802Y0031146D01*
X0192676Y0031242D01*
X0192553Y0031342D01*
X0192432Y0031444D01*
X0192314Y0031549D01*
X0192199Y0031658D01*
X0192086Y0031769D01*
X0191976Y0031883D01*
X0191869Y0032000D01*
X0191765Y0032119D01*
X0191664Y0032241D01*
X0191567Y0032366D01*
X0191472Y0032493D01*
X0191381Y0032622D01*
X0191292Y0032753D01*
X0191208Y0032887D01*
X0191126Y0033023D01*
X0191048Y0033160D01*
X0190974Y0033300D01*
X0190903Y0033442D01*
X0190835Y0033585D01*
X0190771Y0033730D01*
X0190711Y0033876D01*
X0190655Y0034024D01*
X0190602Y0034173D01*
X0190553Y0034324D01*
X0190508Y0034476D01*
X0190467Y0034629D01*
X0190429Y0034782D01*
X0190396Y0034937D01*
X0190366Y0035093D01*
X0190340Y0035249D01*
X0190319Y0035406D01*
X0190301Y0035563D01*
X0190287Y0035721D01*
X0190277Y0035879D01*
X0190271Y0036037D01*
X0190269Y0036195D01*
X0190269Y0223282D02*
X0190271Y0223440D01*
X0190277Y0223598D01*
X0190287Y0223756D01*
X0190301Y0223914D01*
X0190319Y0224071D01*
X0190340Y0224228D01*
X0190366Y0224384D01*
X0190396Y0224540D01*
X0190429Y0224695D01*
X0190467Y0224848D01*
X0190508Y0225001D01*
X0190553Y0225153D01*
X0190602Y0225304D01*
X0190655Y0225453D01*
X0190711Y0225601D01*
X0190771Y0225747D01*
X0190835Y0225892D01*
X0190903Y0226035D01*
X0190974Y0226177D01*
X0191048Y0226317D01*
X0191126Y0226454D01*
X0191208Y0226590D01*
X0191292Y0226724D01*
X0191381Y0226855D01*
X0191472Y0226984D01*
X0191567Y0227111D01*
X0191664Y0227236D01*
X0191765Y0227358D01*
X0191869Y0227477D01*
X0191976Y0227594D01*
X0192086Y0227708D01*
X0192199Y0227819D01*
X0192314Y0227928D01*
X0192432Y0228033D01*
X0192553Y0228135D01*
X0192676Y0228235D01*
X0192802Y0228331D01*
X0192930Y0228424D01*
X0193060Y0228514D01*
X0193193Y0228600D01*
X0193328Y0228684D01*
X0193464Y0228763D01*
X0193603Y0228840D01*
X0193744Y0228912D01*
X0193886Y0228982D01*
X0194030Y0229047D01*
X0194176Y0229109D01*
X0194323Y0229167D01*
X0194472Y0229222D01*
X0194622Y0229273D01*
X0194773Y0229320D01*
X0194925Y0229363D01*
X0195078Y0229402D01*
X0195233Y0229438D01*
X0195388Y0229469D01*
X0195544Y0229497D01*
X0195700Y0229521D01*
X0195857Y0229541D01*
X0196015Y0229557D01*
X0196172Y0229569D01*
X0196331Y0229577D01*
X0196489Y0229581D01*
X0196647Y0229581D01*
X0196805Y0229577D01*
X0196964Y0229569D01*
X0197121Y0229557D01*
X0197279Y0229541D01*
X0197436Y0229521D01*
X0197592Y0229497D01*
X0197748Y0229469D01*
X0197903Y0229438D01*
X0198058Y0229402D01*
X0198211Y0229363D01*
X0198363Y0229320D01*
X0198514Y0229273D01*
X0198664Y0229222D01*
X0198813Y0229167D01*
X0198960Y0229109D01*
X0199106Y0229047D01*
X0199250Y0228982D01*
X0199392Y0228912D01*
X0199533Y0228840D01*
X0199672Y0228763D01*
X0199808Y0228684D01*
X0199943Y0228600D01*
X0200076Y0228514D01*
X0200206Y0228424D01*
X0200334Y0228331D01*
X0200460Y0228235D01*
X0200583Y0228135D01*
X0200704Y0228033D01*
X0200822Y0227928D01*
X0200937Y0227819D01*
X0201050Y0227708D01*
X0201160Y0227594D01*
X0201267Y0227477D01*
X0201371Y0227358D01*
X0201472Y0227236D01*
X0201569Y0227111D01*
X0201664Y0226984D01*
X0201755Y0226855D01*
X0201844Y0226724D01*
X0201928Y0226590D01*
X0202010Y0226454D01*
X0202088Y0226317D01*
X0202162Y0226177D01*
X0202233Y0226035D01*
X0202301Y0225892D01*
X0202365Y0225747D01*
X0202425Y0225601D01*
X0202481Y0225453D01*
X0202534Y0225304D01*
X0202583Y0225153D01*
X0202628Y0225001D01*
X0202669Y0224848D01*
X0202707Y0224695D01*
X0202740Y0224540D01*
X0202770Y0224384D01*
X0202796Y0224228D01*
X0202817Y0224071D01*
X0202835Y0223914D01*
X0202849Y0223756D01*
X0202859Y0223598D01*
X0202865Y0223440D01*
X0202867Y0223282D01*
X0202865Y0223124D01*
X0202859Y0222966D01*
X0202849Y0222808D01*
X0202835Y0222650D01*
X0202817Y0222493D01*
X0202796Y0222336D01*
X0202770Y0222180D01*
X0202740Y0222024D01*
X0202707Y0221869D01*
X0202669Y0221716D01*
X0202628Y0221563D01*
X0202583Y0221411D01*
X0202534Y0221260D01*
X0202481Y0221111D01*
X0202425Y0220963D01*
X0202365Y0220817D01*
X0202301Y0220672D01*
X0202233Y0220529D01*
X0202162Y0220387D01*
X0202088Y0220247D01*
X0202010Y0220110D01*
X0201928Y0219974D01*
X0201844Y0219840D01*
X0201755Y0219709D01*
X0201664Y0219580D01*
X0201569Y0219453D01*
X0201472Y0219328D01*
X0201371Y0219206D01*
X0201267Y0219087D01*
X0201160Y0218970D01*
X0201050Y0218856D01*
X0200937Y0218745D01*
X0200822Y0218636D01*
X0200704Y0218531D01*
X0200583Y0218429D01*
X0200460Y0218329D01*
X0200334Y0218233D01*
X0200206Y0218140D01*
X0200076Y0218050D01*
X0199943Y0217964D01*
X0199808Y0217880D01*
X0199672Y0217801D01*
X0199533Y0217724D01*
X0199392Y0217652D01*
X0199250Y0217582D01*
X0199106Y0217517D01*
X0198960Y0217455D01*
X0198813Y0217397D01*
X0198664Y0217342D01*
X0198514Y0217291D01*
X0198363Y0217244D01*
X0198211Y0217201D01*
X0198058Y0217162D01*
X0197903Y0217126D01*
X0197748Y0217095D01*
X0197592Y0217067D01*
X0197436Y0217043D01*
X0197279Y0217023D01*
X0197121Y0217007D01*
X0196964Y0216995D01*
X0196805Y0216987D01*
X0196647Y0216983D01*
X0196489Y0216983D01*
X0196331Y0216987D01*
X0196172Y0216995D01*
X0196015Y0217007D01*
X0195857Y0217023D01*
X0195700Y0217043D01*
X0195544Y0217067D01*
X0195388Y0217095D01*
X0195233Y0217126D01*
X0195078Y0217162D01*
X0194925Y0217201D01*
X0194773Y0217244D01*
X0194622Y0217291D01*
X0194472Y0217342D01*
X0194323Y0217397D01*
X0194176Y0217455D01*
X0194030Y0217517D01*
X0193886Y0217582D01*
X0193744Y0217652D01*
X0193603Y0217724D01*
X0193464Y0217801D01*
X0193328Y0217880D01*
X0193193Y0217964D01*
X0193060Y0218050D01*
X0192930Y0218140D01*
X0192802Y0218233D01*
X0192676Y0218329D01*
X0192553Y0218429D01*
X0192432Y0218531D01*
X0192314Y0218636D01*
X0192199Y0218745D01*
X0192086Y0218856D01*
X0191976Y0218970D01*
X0191869Y0219087D01*
X0191765Y0219206D01*
X0191664Y0219328D01*
X0191567Y0219453D01*
X0191472Y0219580D01*
X0191381Y0219709D01*
X0191292Y0219840D01*
X0191208Y0219974D01*
X0191126Y0220110D01*
X0191048Y0220247D01*
X0190974Y0220387D01*
X0190903Y0220529D01*
X0190835Y0220672D01*
X0190771Y0220817D01*
X0190711Y0220963D01*
X0190655Y0221111D01*
X0190602Y0221260D01*
X0190553Y0221411D01*
X0190508Y0221563D01*
X0190467Y0221716D01*
X0190429Y0221869D01*
X0190396Y0222024D01*
X0190366Y0222180D01*
X0190340Y0222336D01*
X0190319Y0222493D01*
X0190301Y0222650D01*
X0190287Y0222808D01*
X0190277Y0222966D01*
X0190271Y0223124D01*
X0190269Y0223282D01*
X0032592Y0223676D02*
X0032594Y0223834D01*
X0032600Y0223992D01*
X0032610Y0224150D01*
X0032624Y0224308D01*
X0032642Y0224465D01*
X0032663Y0224622D01*
X0032689Y0224778D01*
X0032719Y0224934D01*
X0032752Y0225089D01*
X0032790Y0225242D01*
X0032831Y0225395D01*
X0032876Y0225547D01*
X0032925Y0225698D01*
X0032978Y0225847D01*
X0033034Y0225995D01*
X0033094Y0226141D01*
X0033158Y0226286D01*
X0033226Y0226429D01*
X0033297Y0226571D01*
X0033371Y0226711D01*
X0033449Y0226848D01*
X0033531Y0226984D01*
X0033615Y0227118D01*
X0033704Y0227249D01*
X0033795Y0227378D01*
X0033890Y0227505D01*
X0033987Y0227630D01*
X0034088Y0227752D01*
X0034192Y0227871D01*
X0034299Y0227988D01*
X0034409Y0228102D01*
X0034522Y0228213D01*
X0034637Y0228322D01*
X0034755Y0228427D01*
X0034876Y0228529D01*
X0034999Y0228629D01*
X0035125Y0228725D01*
X0035253Y0228818D01*
X0035383Y0228908D01*
X0035516Y0228994D01*
X0035651Y0229078D01*
X0035787Y0229157D01*
X0035926Y0229234D01*
X0036067Y0229306D01*
X0036209Y0229376D01*
X0036353Y0229441D01*
X0036499Y0229503D01*
X0036646Y0229561D01*
X0036795Y0229616D01*
X0036945Y0229667D01*
X0037096Y0229714D01*
X0037248Y0229757D01*
X0037401Y0229796D01*
X0037556Y0229832D01*
X0037711Y0229863D01*
X0037867Y0229891D01*
X0038023Y0229915D01*
X0038180Y0229935D01*
X0038338Y0229951D01*
X0038495Y0229963D01*
X0038654Y0229971D01*
X0038812Y0229975D01*
X0038970Y0229975D01*
X0039128Y0229971D01*
X0039287Y0229963D01*
X0039444Y0229951D01*
X0039602Y0229935D01*
X0039759Y0229915D01*
X0039915Y0229891D01*
X0040071Y0229863D01*
X0040226Y0229832D01*
X0040381Y0229796D01*
X0040534Y0229757D01*
X0040686Y0229714D01*
X0040837Y0229667D01*
X0040987Y0229616D01*
X0041136Y0229561D01*
X0041283Y0229503D01*
X0041429Y0229441D01*
X0041573Y0229376D01*
X0041715Y0229306D01*
X0041856Y0229234D01*
X0041995Y0229157D01*
X0042131Y0229078D01*
X0042266Y0228994D01*
X0042399Y0228908D01*
X0042529Y0228818D01*
X0042657Y0228725D01*
X0042783Y0228629D01*
X0042906Y0228529D01*
X0043027Y0228427D01*
X0043145Y0228322D01*
X0043260Y0228213D01*
X0043373Y0228102D01*
X0043483Y0227988D01*
X0043590Y0227871D01*
X0043694Y0227752D01*
X0043795Y0227630D01*
X0043892Y0227505D01*
X0043987Y0227378D01*
X0044078Y0227249D01*
X0044167Y0227118D01*
X0044251Y0226984D01*
X0044333Y0226848D01*
X0044411Y0226711D01*
X0044485Y0226571D01*
X0044556Y0226429D01*
X0044624Y0226286D01*
X0044688Y0226141D01*
X0044748Y0225995D01*
X0044804Y0225847D01*
X0044857Y0225698D01*
X0044906Y0225547D01*
X0044951Y0225395D01*
X0044992Y0225242D01*
X0045030Y0225089D01*
X0045063Y0224934D01*
X0045093Y0224778D01*
X0045119Y0224622D01*
X0045140Y0224465D01*
X0045158Y0224308D01*
X0045172Y0224150D01*
X0045182Y0223992D01*
X0045188Y0223834D01*
X0045190Y0223676D01*
X0045188Y0223518D01*
X0045182Y0223360D01*
X0045172Y0223202D01*
X0045158Y0223044D01*
X0045140Y0222887D01*
X0045119Y0222730D01*
X0045093Y0222574D01*
X0045063Y0222418D01*
X0045030Y0222263D01*
X0044992Y0222110D01*
X0044951Y0221957D01*
X0044906Y0221805D01*
X0044857Y0221654D01*
X0044804Y0221505D01*
X0044748Y0221357D01*
X0044688Y0221211D01*
X0044624Y0221066D01*
X0044556Y0220923D01*
X0044485Y0220781D01*
X0044411Y0220641D01*
X0044333Y0220504D01*
X0044251Y0220368D01*
X0044167Y0220234D01*
X0044078Y0220103D01*
X0043987Y0219974D01*
X0043892Y0219847D01*
X0043795Y0219722D01*
X0043694Y0219600D01*
X0043590Y0219481D01*
X0043483Y0219364D01*
X0043373Y0219250D01*
X0043260Y0219139D01*
X0043145Y0219030D01*
X0043027Y0218925D01*
X0042906Y0218823D01*
X0042783Y0218723D01*
X0042657Y0218627D01*
X0042529Y0218534D01*
X0042399Y0218444D01*
X0042266Y0218358D01*
X0042131Y0218274D01*
X0041995Y0218195D01*
X0041856Y0218118D01*
X0041715Y0218046D01*
X0041573Y0217976D01*
X0041429Y0217911D01*
X0041283Y0217849D01*
X0041136Y0217791D01*
X0040987Y0217736D01*
X0040837Y0217685D01*
X0040686Y0217638D01*
X0040534Y0217595D01*
X0040381Y0217556D01*
X0040226Y0217520D01*
X0040071Y0217489D01*
X0039915Y0217461D01*
X0039759Y0217437D01*
X0039602Y0217417D01*
X0039444Y0217401D01*
X0039287Y0217389D01*
X0039128Y0217381D01*
X0038970Y0217377D01*
X0038812Y0217377D01*
X0038654Y0217381D01*
X0038495Y0217389D01*
X0038338Y0217401D01*
X0038180Y0217417D01*
X0038023Y0217437D01*
X0037867Y0217461D01*
X0037711Y0217489D01*
X0037556Y0217520D01*
X0037401Y0217556D01*
X0037248Y0217595D01*
X0037096Y0217638D01*
X0036945Y0217685D01*
X0036795Y0217736D01*
X0036646Y0217791D01*
X0036499Y0217849D01*
X0036353Y0217911D01*
X0036209Y0217976D01*
X0036067Y0218046D01*
X0035926Y0218118D01*
X0035787Y0218195D01*
X0035651Y0218274D01*
X0035516Y0218358D01*
X0035383Y0218444D01*
X0035253Y0218534D01*
X0035125Y0218627D01*
X0034999Y0218723D01*
X0034876Y0218823D01*
X0034755Y0218925D01*
X0034637Y0219030D01*
X0034522Y0219139D01*
X0034409Y0219250D01*
X0034299Y0219364D01*
X0034192Y0219481D01*
X0034088Y0219600D01*
X0033987Y0219722D01*
X0033890Y0219847D01*
X0033795Y0219974D01*
X0033704Y0220103D01*
X0033615Y0220234D01*
X0033531Y0220368D01*
X0033449Y0220504D01*
X0033371Y0220641D01*
X0033297Y0220781D01*
X0033226Y0220923D01*
X0033158Y0221066D01*
X0033094Y0221211D01*
X0033034Y0221357D01*
X0032978Y0221505D01*
X0032925Y0221654D01*
X0032876Y0221805D01*
X0032831Y0221957D01*
X0032790Y0222110D01*
X0032752Y0222263D01*
X0032719Y0222418D01*
X0032689Y0222574D01*
X0032663Y0222730D01*
X0032642Y0222887D01*
X0032624Y0223044D01*
X0032610Y0223202D01*
X0032600Y0223360D01*
X0032594Y0223518D01*
X0032592Y0223676D01*
D11*
X0070050Y0217102D02*
X0070050Y0212498D01*
X0073119Y0212498D01*
X0074654Y0213265D02*
X0075421Y0212498D01*
X0076956Y0212498D01*
X0077723Y0213265D01*
X0077723Y0214032D01*
X0076956Y0214800D01*
X0075421Y0214800D01*
X0074654Y0215567D01*
X0074654Y0216334D01*
X0075421Y0217102D01*
X0076956Y0217102D01*
X0077723Y0216334D01*
X0079258Y0217102D02*
X0081560Y0217102D01*
X0082327Y0216334D01*
X0082327Y0214800D01*
X0081560Y0214032D01*
X0079258Y0214032D01*
X0079258Y0212498D02*
X0079258Y0217102D01*
X0083862Y0214800D02*
X0086931Y0214800D01*
X0088465Y0215567D02*
X0090000Y0217102D01*
X0090000Y0212498D01*
X0088465Y0212498D02*
X0091535Y0212498D01*
X0093069Y0212498D02*
X0096139Y0215567D01*
X0096139Y0216334D01*
X0095371Y0217102D01*
X0093837Y0217102D01*
X0093069Y0216334D01*
X0093069Y0212498D02*
X0096139Y0212498D01*
X0073119Y0217102D02*
X0070050Y0217102D01*
X0070050Y0214800D02*
X0071584Y0214800D01*
X0121684Y0215662D02*
X0124754Y0218731D01*
X0124754Y0215662D02*
X0121684Y0218731D01*
X0126288Y0214128D02*
X0129358Y0214128D01*
X0127823Y0214128D02*
X0127823Y0218731D01*
X0130897Y0218731D02*
X0133966Y0215662D01*
X0135501Y0214895D02*
X0135501Y0216430D01*
X0136268Y0217197D01*
X0138570Y0217197D01*
X0137036Y0217197D02*
X0135501Y0218731D01*
X0133966Y0218731D02*
X0130897Y0215662D01*
X0135501Y0214895D02*
X0136268Y0214128D01*
X0138570Y0214128D01*
X0138570Y0218731D01*
X0141684Y0217964D02*
X0142452Y0218731D01*
X0143986Y0218731D01*
X0144754Y0217964D01*
X0141684Y0214895D01*
X0141684Y0217964D01*
X0141684Y0214895D02*
X0142452Y0214128D01*
X0143986Y0214128D01*
X0144754Y0214895D01*
X0144754Y0217964D01*
X0146288Y0217964D02*
X0147056Y0218731D01*
X0148590Y0218731D01*
X0149358Y0217964D01*
X0149358Y0214895D01*
X0148590Y0214128D01*
X0147056Y0214128D01*
X0146288Y0214895D01*
X0146288Y0216430D02*
X0147823Y0216430D01*
X0146288Y0216430D02*
X0146288Y0217964D01*
X0152020Y0217964D02*
X0152020Y0214895D01*
X0152788Y0214128D01*
X0155090Y0214128D01*
X0155090Y0218731D01*
X0152788Y0218731D01*
X0152020Y0217964D01*
X0156624Y0218731D02*
X0156624Y0214128D01*
X0159693Y0214128D02*
X0156624Y0218731D01*
X0159693Y0218731D02*
X0159693Y0214128D01*
X0161228Y0214895D02*
X0161995Y0214128D01*
X0163530Y0214128D01*
X0164297Y0214895D01*
X0164297Y0217964D01*
X0163530Y0218731D01*
X0161995Y0218731D01*
X0161228Y0217964D01*
X0161228Y0216430D01*
X0162763Y0216430D01*
X0058680Y0123610D02*
X0058680Y0123010D01*
X0056278Y0120608D01*
X0058680Y0120608D01*
X0054997Y0121208D02*
X0054396Y0120608D01*
X0053195Y0120608D01*
X0052595Y0121208D01*
X0052595Y0123610D01*
X0053195Y0124211D01*
X0054396Y0124211D01*
X0054997Y0123610D01*
X0056278Y0123610D02*
X0056878Y0124211D01*
X0058079Y0124211D01*
X0058680Y0123610D01*
X0061113Y0096583D02*
X0061113Y0093514D01*
X0058811Y0091979D02*
X0058811Y0088910D01*
X0058811Y0087376D02*
X0062648Y0087376D01*
X0063415Y0086608D01*
X0063415Y0085074D01*
X0062648Y0084306D01*
X0058811Y0084306D01*
X0059579Y0082772D02*
X0058811Y0082004D01*
X0058811Y0080470D01*
X0059579Y0079702D01*
X0062648Y0079702D01*
X0063415Y0080470D01*
X0063415Y0082004D01*
X0062648Y0082772D01*
X0059579Y0082772D01*
X0058811Y0090445D02*
X0063415Y0090445D01*
X0061113Y0052945D02*
X0061113Y0049876D01*
X0063415Y0048341D02*
X0058811Y0048341D01*
X0058811Y0045272D02*
X0063415Y0048341D01*
X0063415Y0045272D02*
X0058811Y0045272D01*
X0058811Y0043737D02*
X0058811Y0042202D01*
X0058811Y0042970D02*
X0063415Y0042970D01*
X0063415Y0043737D02*
X0063415Y0042202D01*
X0103811Y0042202D02*
X0103811Y0043737D01*
X0103811Y0042970D02*
X0108415Y0042970D01*
X0108415Y0043737D02*
X0108415Y0042202D01*
X0108415Y0045272D02*
X0103811Y0045272D01*
X0108415Y0048341D01*
X0103811Y0048341D01*
X0106113Y0049876D02*
X0106113Y0052945D01*
X0104579Y0051410D02*
X0107648Y0051410D01*
X0107648Y0079702D02*
X0104579Y0079702D01*
X0103811Y0080470D01*
X0103811Y0082004D01*
X0104579Y0082772D01*
X0107648Y0082772D01*
X0108415Y0082004D01*
X0108415Y0080470D01*
X0107648Y0079702D01*
X0107648Y0084306D02*
X0103811Y0084306D01*
X0103811Y0087376D02*
X0107648Y0087376D01*
X0108415Y0086608D01*
X0108415Y0085074D01*
X0107648Y0084306D01*
X0103811Y0088910D02*
X0103811Y0091979D01*
X0103811Y0090445D02*
X0108415Y0090445D01*
X0106113Y0093514D02*
X0106113Y0096583D01*
X0104579Y0095049D02*
X0107648Y0095049D01*
X0136410Y0080530D02*
X0137011Y0081130D01*
X0137612Y0081130D01*
X0138212Y0080530D01*
X0138813Y0081130D01*
X0139413Y0081130D01*
X0140014Y0080530D01*
X0140014Y0079329D01*
X0139413Y0078728D01*
X0139413Y0077447D02*
X0140014Y0076846D01*
X0140014Y0075645D01*
X0139413Y0075045D01*
X0137011Y0075045D01*
X0136410Y0075645D01*
X0136410Y0076846D01*
X0137011Y0077447D01*
X0137011Y0078728D02*
X0136410Y0079329D01*
X0136410Y0080530D01*
X0138212Y0080530D02*
X0138212Y0079929D01*
X0167567Y0043283D02*
X0167567Y0040981D01*
X0169102Y0041748D01*
X0169869Y0041748D01*
X0170636Y0040981D01*
X0170636Y0039446D01*
X0169869Y0038679D01*
X0168334Y0038679D01*
X0167567Y0039446D01*
X0167988Y0037211D02*
X0168756Y0037211D01*
X0169523Y0036443D01*
X0170290Y0037211D01*
X0171058Y0036443D01*
X0171058Y0034141D01*
X0169523Y0034141D02*
X0169523Y0036443D01*
X0167988Y0037211D02*
X0167988Y0034141D01*
X0169523Y0031245D02*
X0167988Y0029711D01*
X0169523Y0031245D02*
X0169523Y0026641D01*
X0167988Y0026641D02*
X0171058Y0026641D01*
X0172592Y0027409D02*
X0172592Y0028943D01*
X0174894Y0028943D01*
X0175662Y0028176D01*
X0175662Y0027409D01*
X0174894Y0026641D01*
X0173360Y0026641D01*
X0172592Y0027409D01*
X0172592Y0028943D02*
X0174127Y0030478D01*
X0175662Y0031245D01*
X0177196Y0029711D02*
X0177196Y0026641D01*
X0177196Y0028943D02*
X0180265Y0028943D01*
X0180265Y0029711D02*
X0180265Y0026641D01*
X0180265Y0029711D02*
X0178731Y0031245D01*
X0177196Y0029711D01*
X0177196Y0034141D02*
X0180265Y0037211D01*
X0179844Y0038679D02*
X0176775Y0038679D01*
X0179844Y0041748D01*
X0179844Y0042515D01*
X0179077Y0043283D01*
X0177542Y0043283D01*
X0176775Y0042515D01*
X0175240Y0040981D02*
X0172171Y0040981D01*
X0170636Y0043283D02*
X0167567Y0043283D01*
X0173360Y0037211D02*
X0174894Y0037211D01*
X0175662Y0036443D01*
X0175662Y0034141D01*
X0173360Y0034141D01*
X0172592Y0034909D01*
X0173360Y0035676D01*
X0175662Y0035676D01*
X0177196Y0037211D02*
X0180265Y0034141D01*
X0182146Y0038679D02*
X0181379Y0039446D01*
X0181379Y0040213D01*
X0182146Y0040981D01*
X0183681Y0040981D01*
X0184448Y0040213D01*
X0184448Y0039446D01*
X0183681Y0038679D01*
X0182146Y0038679D01*
X0182146Y0040981D02*
X0181379Y0041748D01*
X0181379Y0042515D01*
X0182146Y0043283D01*
X0183681Y0043283D01*
X0184448Y0042515D01*
X0184448Y0041748D01*
X0183681Y0040981D01*
X0185983Y0040213D02*
X0185983Y0043283D01*
X0189052Y0043283D02*
X0189052Y0040213D01*
X0187517Y0038679D01*
X0185983Y0040213D01*
D12*
X0177502Y0047615D02*
X0173432Y0047615D01*
X0171425Y0046598D02*
X0171425Y0050668D01*
X0175467Y0049650D02*
X0175467Y0045580D01*
X0171425Y0046598D02*
X0169390Y0044563D01*
X0167355Y0046598D01*
X0167355Y0050668D01*
X0125090Y0049111D02*
X0125090Y0046059D01*
X0118985Y0046059D01*
X0118985Y0049111D01*
X0120003Y0050129D01*
X0124073Y0050129D01*
X0125090Y0049111D01*
X0125090Y0044052D02*
X0118985Y0044052D01*
X0118985Y0039981D02*
X0125090Y0044052D01*
X0125090Y0039981D02*
X0118985Y0039981D01*
X0120003Y0037974D02*
X0118985Y0036957D01*
X0118985Y0034922D01*
X0120003Y0033904D01*
X0124073Y0033904D01*
X0125090Y0034922D01*
X0125090Y0036957D01*
X0124073Y0037974D01*
X0122038Y0037974D01*
X0122038Y0035939D01*
X0116015Y0026302D02*
X0116015Y0113102D01*
X0050015Y0113102D01*
X0050015Y0026302D01*
X0116015Y0026302D01*
X0035944Y0102981D02*
X0035944Y0105983D01*
X0035944Y0104482D02*
X0031440Y0104482D01*
X0032941Y0102981D01*
X0050347Y0137613D02*
X0050347Y0232494D01*
X0114127Y0232494D01*
X0114127Y0137613D01*
X0050347Y0137613D01*
X0089641Y0123600D02*
X0089641Y0120597D01*
X0090391Y0119847D01*
X0091893Y0119847D01*
X0092643Y0120597D01*
X0094245Y0119847D02*
X0097247Y0119847D01*
X0095746Y0119847D02*
X0095746Y0124351D01*
X0094245Y0122849D01*
X0092643Y0123600D02*
X0091893Y0124351D01*
X0090391Y0124351D01*
X0089641Y0123600D01*
X0116097Y0223000D02*
X0119100Y0223000D01*
X0117599Y0223000D02*
X0117599Y0227504D01*
X0116097Y0226003D01*
X0161597Y0225252D02*
X0164600Y0225252D01*
X0163849Y0223000D02*
X0163849Y0227504D01*
X0161597Y0225252D01*
D13*
X0160347Y0227750D02*
X0160347Y0222750D01*
X0157847Y0220250D01*
X0152847Y0220250D01*
X0150347Y0222750D01*
X0147847Y0220250D01*
X0142847Y0220250D01*
X0140347Y0222750D01*
X0137847Y0220250D01*
X0132847Y0220250D01*
X0130347Y0222750D01*
X0127847Y0220250D01*
X0122847Y0220250D01*
X0120347Y0222750D01*
X0120347Y0227750D01*
X0122847Y0230250D01*
X0127847Y0230250D01*
X0130347Y0227750D01*
X0132847Y0230250D01*
X0137847Y0230250D01*
X0140347Y0227750D01*
X0142847Y0230250D01*
X0147847Y0230250D01*
X0150347Y0227750D01*
X0152847Y0230250D01*
X0157847Y0230250D01*
X0160347Y0227750D01*
X0173399Y0208676D02*
X0174399Y0208676D01*
X0174399Y0148676D01*
X0200399Y0148676D01*
X0200399Y0155176D01*
X0200399Y0162176D02*
X0200399Y0175176D01*
X0200399Y0182176D02*
X0200399Y0195176D01*
X0200399Y0202176D02*
X0200399Y0208676D01*
X0209899Y0208676D01*
X0209899Y0148676D01*
X0200399Y0148676D01*
X0200792Y0130802D02*
X0200792Y0124302D01*
X0200792Y0130802D02*
X0210292Y0130802D01*
X0210292Y0050802D01*
X0200792Y0050802D01*
X0200792Y0057302D01*
X0200792Y0050802D02*
X0174792Y0050802D01*
X0173792Y0050802D01*
X0173792Y0090802D01*
X0200792Y0090802D01*
X0200792Y0097302D01*
X0200792Y0104302D02*
X0200792Y0117302D01*
X0200792Y0130802D02*
X0174792Y0130802D01*
X0174792Y0050802D01*
X0178092Y0060802D02*
X0178094Y0060891D01*
X0178100Y0060980D01*
X0178110Y0061069D01*
X0178124Y0061157D01*
X0178141Y0061244D01*
X0178163Y0061330D01*
X0178189Y0061416D01*
X0178218Y0061500D01*
X0178251Y0061583D01*
X0178287Y0061664D01*
X0178328Y0061744D01*
X0178371Y0061821D01*
X0178418Y0061897D01*
X0178469Y0061970D01*
X0178522Y0062041D01*
X0178579Y0062110D01*
X0178639Y0062176D01*
X0178702Y0062240D01*
X0178767Y0062300D01*
X0178835Y0062358D01*
X0178906Y0062412D01*
X0178979Y0062463D01*
X0179054Y0062511D01*
X0179131Y0062556D01*
X0179210Y0062597D01*
X0179291Y0062634D01*
X0179373Y0062668D01*
X0179457Y0062699D01*
X0179542Y0062725D01*
X0179628Y0062748D01*
X0179715Y0062766D01*
X0179803Y0062781D01*
X0179892Y0062792D01*
X0179981Y0062799D01*
X0180070Y0062802D01*
X0180159Y0062801D01*
X0180248Y0062796D01*
X0180336Y0062787D01*
X0180425Y0062774D01*
X0180512Y0062757D01*
X0180599Y0062737D01*
X0180685Y0062712D01*
X0180769Y0062684D01*
X0180852Y0062652D01*
X0180934Y0062616D01*
X0181014Y0062577D01*
X0181092Y0062534D01*
X0181168Y0062488D01*
X0181242Y0062438D01*
X0181314Y0062385D01*
X0181383Y0062329D01*
X0181450Y0062270D01*
X0181514Y0062208D01*
X0181575Y0062144D01*
X0181634Y0062076D01*
X0181689Y0062006D01*
X0181741Y0061934D01*
X0181790Y0061859D01*
X0181835Y0061783D01*
X0181877Y0061704D01*
X0181915Y0061624D01*
X0181950Y0061542D01*
X0181981Y0061458D01*
X0182009Y0061373D01*
X0182032Y0061287D01*
X0182052Y0061200D01*
X0182068Y0061113D01*
X0182080Y0061024D01*
X0182088Y0060936D01*
X0182092Y0060847D01*
X0182092Y0060757D01*
X0182088Y0060668D01*
X0182080Y0060580D01*
X0182068Y0060491D01*
X0182052Y0060404D01*
X0182032Y0060317D01*
X0182009Y0060231D01*
X0181981Y0060146D01*
X0181950Y0060062D01*
X0181915Y0059980D01*
X0181877Y0059900D01*
X0181835Y0059821D01*
X0181790Y0059745D01*
X0181741Y0059670D01*
X0181689Y0059598D01*
X0181634Y0059528D01*
X0181575Y0059460D01*
X0181514Y0059396D01*
X0181450Y0059334D01*
X0181383Y0059275D01*
X0181314Y0059219D01*
X0181242Y0059166D01*
X0181168Y0059116D01*
X0181092Y0059070D01*
X0181014Y0059027D01*
X0180934Y0058988D01*
X0180852Y0058952D01*
X0180769Y0058920D01*
X0180685Y0058892D01*
X0180599Y0058867D01*
X0180512Y0058847D01*
X0180425Y0058830D01*
X0180336Y0058817D01*
X0180248Y0058808D01*
X0180159Y0058803D01*
X0180070Y0058802D01*
X0179981Y0058805D01*
X0179892Y0058812D01*
X0179803Y0058823D01*
X0179715Y0058838D01*
X0179628Y0058856D01*
X0179542Y0058879D01*
X0179457Y0058905D01*
X0179373Y0058936D01*
X0179291Y0058970D01*
X0179210Y0059007D01*
X0179131Y0059048D01*
X0179054Y0059093D01*
X0178979Y0059141D01*
X0178906Y0059192D01*
X0178835Y0059246D01*
X0178767Y0059304D01*
X0178702Y0059364D01*
X0178639Y0059428D01*
X0178579Y0059494D01*
X0178522Y0059563D01*
X0178469Y0059634D01*
X0178418Y0059707D01*
X0178371Y0059783D01*
X0178328Y0059860D01*
X0178287Y0059940D01*
X0178251Y0060021D01*
X0178218Y0060104D01*
X0178189Y0060188D01*
X0178163Y0060274D01*
X0178141Y0060360D01*
X0178124Y0060447D01*
X0178110Y0060535D01*
X0178100Y0060624D01*
X0178094Y0060713D01*
X0178092Y0060802D01*
X0166332Y0061514D02*
X0166332Y0062514D01*
X0126332Y0062514D01*
X0126332Y0061514D01*
X0126332Y0035514D01*
X0126332Y0026014D01*
X0166332Y0026014D01*
X0166332Y0035514D01*
X0166332Y0061514D01*
X0126332Y0061514D01*
X0125544Y0069613D02*
X0125544Y0071113D01*
X0124044Y0071113D01*
X0125544Y0071113D02*
X0125544Y0072613D01*
X0125544Y0071113D02*
X0127044Y0071113D01*
X0119544Y0077613D02*
X0119547Y0077883D01*
X0119557Y0078153D01*
X0119574Y0078422D01*
X0119597Y0078691D01*
X0119627Y0078960D01*
X0119663Y0079227D01*
X0119706Y0079494D01*
X0119755Y0079759D01*
X0119811Y0080023D01*
X0119874Y0080286D01*
X0119942Y0080547D01*
X0120018Y0080806D01*
X0120099Y0081063D01*
X0120187Y0081319D01*
X0120281Y0081572D01*
X0120381Y0081823D01*
X0120488Y0082071D01*
X0120600Y0082316D01*
X0120719Y0082559D01*
X0120843Y0082798D01*
X0120973Y0083035D01*
X0121109Y0083268D01*
X0121251Y0083498D01*
X0121398Y0083724D01*
X0121551Y0083947D01*
X0121709Y0084166D01*
X0121872Y0084381D01*
X0122041Y0084591D01*
X0122215Y0084798D01*
X0122394Y0085000D01*
X0122577Y0085198D01*
X0122766Y0085391D01*
X0122959Y0085580D01*
X0123157Y0085763D01*
X0123359Y0085942D01*
X0123566Y0086116D01*
X0123776Y0086285D01*
X0123991Y0086448D01*
X0124210Y0086606D01*
X0124433Y0086759D01*
X0124659Y0086906D01*
X0124889Y0087048D01*
X0125122Y0087184D01*
X0125359Y0087314D01*
X0125598Y0087438D01*
X0125841Y0087557D01*
X0126086Y0087669D01*
X0126334Y0087776D01*
X0126585Y0087876D01*
X0126838Y0087970D01*
X0127094Y0088058D01*
X0127351Y0088139D01*
X0127610Y0088215D01*
X0127871Y0088283D01*
X0128134Y0088346D01*
X0128398Y0088402D01*
X0128663Y0088451D01*
X0128930Y0088494D01*
X0129197Y0088530D01*
X0129466Y0088560D01*
X0129735Y0088583D01*
X0130004Y0088600D01*
X0130274Y0088610D01*
X0130544Y0088613D01*
X0130814Y0088610D01*
X0131084Y0088600D01*
X0131353Y0088583D01*
X0131622Y0088560D01*
X0131891Y0088530D01*
X0132158Y0088494D01*
X0132425Y0088451D01*
X0132690Y0088402D01*
X0132954Y0088346D01*
X0133217Y0088283D01*
X0133478Y0088215D01*
X0133737Y0088139D01*
X0133994Y0088058D01*
X0134250Y0087970D01*
X0134503Y0087876D01*
X0134754Y0087776D01*
X0135002Y0087669D01*
X0135247Y0087557D01*
X0135490Y0087438D01*
X0135729Y0087314D01*
X0135966Y0087184D01*
X0136199Y0087048D01*
X0136429Y0086906D01*
X0136655Y0086759D01*
X0136878Y0086606D01*
X0137097Y0086448D01*
X0137312Y0086285D01*
X0137522Y0086116D01*
X0137729Y0085942D01*
X0137931Y0085763D01*
X0138129Y0085580D01*
X0138322Y0085391D01*
X0138511Y0085198D01*
X0138694Y0085000D01*
X0138873Y0084798D01*
X0139047Y0084591D01*
X0139216Y0084381D01*
X0139379Y0084166D01*
X0139537Y0083947D01*
X0139690Y0083724D01*
X0139837Y0083498D01*
X0139979Y0083268D01*
X0140115Y0083035D01*
X0140245Y0082798D01*
X0140369Y0082559D01*
X0140488Y0082316D01*
X0140600Y0082071D01*
X0140707Y0081823D01*
X0140807Y0081572D01*
X0140901Y0081319D01*
X0140989Y0081063D01*
X0141070Y0080806D01*
X0141146Y0080547D01*
X0141214Y0080286D01*
X0141277Y0080023D01*
X0141333Y0079759D01*
X0141382Y0079494D01*
X0141425Y0079227D01*
X0141461Y0078960D01*
X0141491Y0078691D01*
X0141514Y0078422D01*
X0141531Y0078153D01*
X0141541Y0077883D01*
X0141544Y0077613D01*
X0141541Y0077343D01*
X0141531Y0077073D01*
X0141514Y0076804D01*
X0141491Y0076535D01*
X0141461Y0076266D01*
X0141425Y0075999D01*
X0141382Y0075732D01*
X0141333Y0075467D01*
X0141277Y0075203D01*
X0141214Y0074940D01*
X0141146Y0074679D01*
X0141070Y0074420D01*
X0140989Y0074163D01*
X0140901Y0073907D01*
X0140807Y0073654D01*
X0140707Y0073403D01*
X0140600Y0073155D01*
X0140488Y0072910D01*
X0140369Y0072667D01*
X0140245Y0072428D01*
X0140115Y0072191D01*
X0139979Y0071958D01*
X0139837Y0071728D01*
X0139690Y0071502D01*
X0139537Y0071279D01*
X0139379Y0071060D01*
X0139216Y0070845D01*
X0139047Y0070635D01*
X0138873Y0070428D01*
X0138694Y0070226D01*
X0138511Y0070028D01*
X0138322Y0069835D01*
X0138129Y0069646D01*
X0137931Y0069463D01*
X0137729Y0069284D01*
X0137522Y0069110D01*
X0137312Y0068941D01*
X0137097Y0068778D01*
X0136878Y0068620D01*
X0136655Y0068467D01*
X0136429Y0068320D01*
X0136199Y0068178D01*
X0135966Y0068042D01*
X0135729Y0067912D01*
X0135490Y0067788D01*
X0135247Y0067669D01*
X0135002Y0067557D01*
X0134754Y0067450D01*
X0134503Y0067350D01*
X0134250Y0067256D01*
X0133994Y0067168D01*
X0133737Y0067087D01*
X0133478Y0067011D01*
X0133217Y0066943D01*
X0132954Y0066880D01*
X0132690Y0066824D01*
X0132425Y0066775D01*
X0132158Y0066732D01*
X0131891Y0066696D01*
X0131622Y0066666D01*
X0131353Y0066643D01*
X0131084Y0066626D01*
X0130814Y0066616D01*
X0130544Y0066613D01*
X0130274Y0066616D01*
X0130004Y0066626D01*
X0129735Y0066643D01*
X0129466Y0066666D01*
X0129197Y0066696D01*
X0128930Y0066732D01*
X0128663Y0066775D01*
X0128398Y0066824D01*
X0128134Y0066880D01*
X0127871Y0066943D01*
X0127610Y0067011D01*
X0127351Y0067087D01*
X0127094Y0067168D01*
X0126838Y0067256D01*
X0126585Y0067350D01*
X0126334Y0067450D01*
X0126086Y0067557D01*
X0125841Y0067669D01*
X0125598Y0067788D01*
X0125359Y0067912D01*
X0125122Y0068042D01*
X0124889Y0068178D01*
X0124659Y0068320D01*
X0124433Y0068467D01*
X0124210Y0068620D01*
X0123991Y0068778D01*
X0123776Y0068941D01*
X0123566Y0069110D01*
X0123359Y0069284D01*
X0123157Y0069463D01*
X0122959Y0069646D01*
X0122766Y0069835D01*
X0122577Y0070028D01*
X0122394Y0070226D01*
X0122215Y0070428D01*
X0122041Y0070635D01*
X0121872Y0070845D01*
X0121709Y0071060D01*
X0121551Y0071279D01*
X0121398Y0071502D01*
X0121251Y0071728D01*
X0121109Y0071958D01*
X0120973Y0072191D01*
X0120843Y0072428D01*
X0120719Y0072667D01*
X0120600Y0072910D01*
X0120488Y0073155D01*
X0120381Y0073403D01*
X0120281Y0073654D01*
X0120187Y0073907D01*
X0120099Y0074163D01*
X0120018Y0074420D01*
X0119942Y0074679D01*
X0119874Y0074940D01*
X0119811Y0075203D01*
X0119755Y0075467D01*
X0119706Y0075732D01*
X0119663Y0075999D01*
X0119627Y0076266D01*
X0119597Y0076535D01*
X0119574Y0076804D01*
X0119557Y0077073D01*
X0119547Y0077343D01*
X0119544Y0077613D01*
X0134332Y0056214D02*
X0134334Y0056303D01*
X0134340Y0056392D01*
X0134350Y0056481D01*
X0134364Y0056569D01*
X0134381Y0056656D01*
X0134403Y0056742D01*
X0134429Y0056828D01*
X0134458Y0056912D01*
X0134491Y0056995D01*
X0134527Y0057076D01*
X0134568Y0057156D01*
X0134611Y0057233D01*
X0134658Y0057309D01*
X0134709Y0057382D01*
X0134762Y0057453D01*
X0134819Y0057522D01*
X0134879Y0057588D01*
X0134942Y0057652D01*
X0135007Y0057712D01*
X0135075Y0057770D01*
X0135146Y0057824D01*
X0135219Y0057875D01*
X0135294Y0057923D01*
X0135371Y0057968D01*
X0135450Y0058009D01*
X0135531Y0058046D01*
X0135613Y0058080D01*
X0135697Y0058111D01*
X0135782Y0058137D01*
X0135868Y0058160D01*
X0135955Y0058178D01*
X0136043Y0058193D01*
X0136132Y0058204D01*
X0136221Y0058211D01*
X0136310Y0058214D01*
X0136399Y0058213D01*
X0136488Y0058208D01*
X0136576Y0058199D01*
X0136665Y0058186D01*
X0136752Y0058169D01*
X0136839Y0058149D01*
X0136925Y0058124D01*
X0137009Y0058096D01*
X0137092Y0058064D01*
X0137174Y0058028D01*
X0137254Y0057989D01*
X0137332Y0057946D01*
X0137408Y0057900D01*
X0137482Y0057850D01*
X0137554Y0057797D01*
X0137623Y0057741D01*
X0137690Y0057682D01*
X0137754Y0057620D01*
X0137815Y0057556D01*
X0137874Y0057488D01*
X0137929Y0057418D01*
X0137981Y0057346D01*
X0138030Y0057271D01*
X0138075Y0057195D01*
X0138117Y0057116D01*
X0138155Y0057036D01*
X0138190Y0056954D01*
X0138221Y0056870D01*
X0138249Y0056785D01*
X0138272Y0056699D01*
X0138292Y0056612D01*
X0138308Y0056525D01*
X0138320Y0056436D01*
X0138328Y0056348D01*
X0138332Y0056259D01*
X0138332Y0056169D01*
X0138328Y0056080D01*
X0138320Y0055992D01*
X0138308Y0055903D01*
X0138292Y0055816D01*
X0138272Y0055729D01*
X0138249Y0055643D01*
X0138221Y0055558D01*
X0138190Y0055474D01*
X0138155Y0055392D01*
X0138117Y0055312D01*
X0138075Y0055233D01*
X0138030Y0055157D01*
X0137981Y0055082D01*
X0137929Y0055010D01*
X0137874Y0054940D01*
X0137815Y0054872D01*
X0137754Y0054808D01*
X0137690Y0054746D01*
X0137623Y0054687D01*
X0137554Y0054631D01*
X0137482Y0054578D01*
X0137408Y0054528D01*
X0137332Y0054482D01*
X0137254Y0054439D01*
X0137174Y0054400D01*
X0137092Y0054364D01*
X0137009Y0054332D01*
X0136925Y0054304D01*
X0136839Y0054279D01*
X0136752Y0054259D01*
X0136665Y0054242D01*
X0136576Y0054229D01*
X0136488Y0054220D01*
X0136399Y0054215D01*
X0136310Y0054214D01*
X0136221Y0054217D01*
X0136132Y0054224D01*
X0136043Y0054235D01*
X0135955Y0054250D01*
X0135868Y0054268D01*
X0135782Y0054291D01*
X0135697Y0054317D01*
X0135613Y0054348D01*
X0135531Y0054382D01*
X0135450Y0054419D01*
X0135371Y0054460D01*
X0135294Y0054505D01*
X0135219Y0054553D01*
X0135146Y0054604D01*
X0135075Y0054658D01*
X0135007Y0054716D01*
X0134942Y0054776D01*
X0134879Y0054840D01*
X0134819Y0054906D01*
X0134762Y0054975D01*
X0134709Y0055046D01*
X0134658Y0055119D01*
X0134611Y0055195D01*
X0134568Y0055272D01*
X0134527Y0055352D01*
X0134491Y0055433D01*
X0134458Y0055516D01*
X0134429Y0055600D01*
X0134403Y0055686D01*
X0134381Y0055772D01*
X0134364Y0055859D01*
X0134350Y0055947D01*
X0134340Y0056036D01*
X0134334Y0056125D01*
X0134332Y0056214D01*
X0149651Y0067967D02*
X0161151Y0068467D01*
X0162151Y0069467D01*
X0162151Y0106467D01*
X0161151Y0107467D01*
X0149651Y0107967D01*
X0167824Y0112306D02*
X0130824Y0112306D01*
X0129824Y0113306D01*
X0129324Y0124806D01*
X0130624Y0114706D02*
X0130626Y0114769D01*
X0130632Y0114831D01*
X0130642Y0114893D01*
X0130655Y0114955D01*
X0130673Y0115015D01*
X0130694Y0115074D01*
X0130719Y0115132D01*
X0130748Y0115188D01*
X0130780Y0115242D01*
X0130815Y0115294D01*
X0130853Y0115343D01*
X0130895Y0115391D01*
X0130939Y0115435D01*
X0130987Y0115477D01*
X0131036Y0115515D01*
X0131088Y0115550D01*
X0131142Y0115582D01*
X0131198Y0115611D01*
X0131256Y0115636D01*
X0131315Y0115657D01*
X0131375Y0115675D01*
X0131437Y0115688D01*
X0131499Y0115698D01*
X0131561Y0115704D01*
X0131624Y0115706D01*
X0131687Y0115704D01*
X0131749Y0115698D01*
X0131811Y0115688D01*
X0131873Y0115675D01*
X0131933Y0115657D01*
X0131992Y0115636D01*
X0132050Y0115611D01*
X0132106Y0115582D01*
X0132160Y0115550D01*
X0132212Y0115515D01*
X0132261Y0115477D01*
X0132309Y0115435D01*
X0132353Y0115391D01*
X0132395Y0115343D01*
X0132433Y0115294D01*
X0132468Y0115242D01*
X0132500Y0115188D01*
X0132529Y0115132D01*
X0132554Y0115074D01*
X0132575Y0115015D01*
X0132593Y0114955D01*
X0132606Y0114893D01*
X0132616Y0114831D01*
X0132622Y0114769D01*
X0132624Y0114706D01*
X0132622Y0114643D01*
X0132616Y0114581D01*
X0132606Y0114519D01*
X0132593Y0114457D01*
X0132575Y0114397D01*
X0132554Y0114338D01*
X0132529Y0114280D01*
X0132500Y0114224D01*
X0132468Y0114170D01*
X0132433Y0114118D01*
X0132395Y0114069D01*
X0132353Y0114021D01*
X0132309Y0113977D01*
X0132261Y0113935D01*
X0132212Y0113897D01*
X0132160Y0113862D01*
X0132106Y0113830D01*
X0132050Y0113801D01*
X0131992Y0113776D01*
X0131933Y0113755D01*
X0131873Y0113737D01*
X0131811Y0113724D01*
X0131749Y0113714D01*
X0131687Y0113708D01*
X0131624Y0113706D01*
X0131561Y0113708D01*
X0131499Y0113714D01*
X0131437Y0113724D01*
X0131375Y0113737D01*
X0131315Y0113755D01*
X0131256Y0113776D01*
X0131198Y0113801D01*
X0131142Y0113830D01*
X0131088Y0113862D01*
X0131036Y0113897D01*
X0130987Y0113935D01*
X0130939Y0113977D01*
X0130895Y0114021D01*
X0130853Y0114069D01*
X0130815Y0114118D01*
X0130780Y0114170D01*
X0130748Y0114224D01*
X0130719Y0114280D01*
X0130694Y0114338D01*
X0130673Y0114397D01*
X0130655Y0114457D01*
X0130642Y0114519D01*
X0130632Y0114581D01*
X0130626Y0114643D01*
X0130624Y0114706D01*
X0130036Y0138762D02*
X0129036Y0139762D01*
X0128536Y0151262D01*
X0129836Y0141162D02*
X0129838Y0141225D01*
X0129844Y0141287D01*
X0129854Y0141349D01*
X0129867Y0141411D01*
X0129885Y0141471D01*
X0129906Y0141530D01*
X0129931Y0141588D01*
X0129960Y0141644D01*
X0129992Y0141698D01*
X0130027Y0141750D01*
X0130065Y0141799D01*
X0130107Y0141847D01*
X0130151Y0141891D01*
X0130199Y0141933D01*
X0130248Y0141971D01*
X0130300Y0142006D01*
X0130354Y0142038D01*
X0130410Y0142067D01*
X0130468Y0142092D01*
X0130527Y0142113D01*
X0130587Y0142131D01*
X0130649Y0142144D01*
X0130711Y0142154D01*
X0130773Y0142160D01*
X0130836Y0142162D01*
X0130899Y0142160D01*
X0130961Y0142154D01*
X0131023Y0142144D01*
X0131085Y0142131D01*
X0131145Y0142113D01*
X0131204Y0142092D01*
X0131262Y0142067D01*
X0131318Y0142038D01*
X0131372Y0142006D01*
X0131424Y0141971D01*
X0131473Y0141933D01*
X0131521Y0141891D01*
X0131565Y0141847D01*
X0131607Y0141799D01*
X0131645Y0141750D01*
X0131680Y0141698D01*
X0131712Y0141644D01*
X0131741Y0141588D01*
X0131766Y0141530D01*
X0131787Y0141471D01*
X0131805Y0141411D01*
X0131818Y0141349D01*
X0131828Y0141287D01*
X0131834Y0141225D01*
X0131836Y0141162D01*
X0131834Y0141099D01*
X0131828Y0141037D01*
X0131818Y0140975D01*
X0131805Y0140913D01*
X0131787Y0140853D01*
X0131766Y0140794D01*
X0131741Y0140736D01*
X0131712Y0140680D01*
X0131680Y0140626D01*
X0131645Y0140574D01*
X0131607Y0140525D01*
X0131565Y0140477D01*
X0131521Y0140433D01*
X0131473Y0140391D01*
X0131424Y0140353D01*
X0131372Y0140318D01*
X0131318Y0140286D01*
X0131262Y0140257D01*
X0131204Y0140232D01*
X0131145Y0140211D01*
X0131085Y0140193D01*
X0131023Y0140180D01*
X0130961Y0140170D01*
X0130899Y0140164D01*
X0130836Y0140162D01*
X0130773Y0140164D01*
X0130711Y0140170D01*
X0130649Y0140180D01*
X0130587Y0140193D01*
X0130527Y0140211D01*
X0130468Y0140232D01*
X0130410Y0140257D01*
X0130354Y0140286D01*
X0130300Y0140318D01*
X0130248Y0140353D01*
X0130199Y0140391D01*
X0130151Y0140433D01*
X0130107Y0140477D01*
X0130065Y0140525D01*
X0130027Y0140574D01*
X0129992Y0140626D01*
X0129960Y0140680D01*
X0129931Y0140736D01*
X0129906Y0140794D01*
X0129885Y0140853D01*
X0129867Y0140913D01*
X0129854Y0140975D01*
X0129844Y0141037D01*
X0129838Y0141099D01*
X0129836Y0141162D01*
X0130036Y0138762D02*
X0167036Y0138762D01*
X0168036Y0139762D01*
X0168536Y0151262D01*
X0173399Y0148676D02*
X0173399Y0208676D01*
X0174399Y0208676D02*
X0200399Y0208676D01*
X0177699Y0198676D02*
X0177701Y0198765D01*
X0177707Y0198854D01*
X0177717Y0198943D01*
X0177731Y0199031D01*
X0177748Y0199118D01*
X0177770Y0199204D01*
X0177796Y0199290D01*
X0177825Y0199374D01*
X0177858Y0199457D01*
X0177894Y0199538D01*
X0177935Y0199618D01*
X0177978Y0199695D01*
X0178025Y0199771D01*
X0178076Y0199844D01*
X0178129Y0199915D01*
X0178186Y0199984D01*
X0178246Y0200050D01*
X0178309Y0200114D01*
X0178374Y0200174D01*
X0178442Y0200232D01*
X0178513Y0200286D01*
X0178586Y0200337D01*
X0178661Y0200385D01*
X0178738Y0200430D01*
X0178817Y0200471D01*
X0178898Y0200508D01*
X0178980Y0200542D01*
X0179064Y0200573D01*
X0179149Y0200599D01*
X0179235Y0200622D01*
X0179322Y0200640D01*
X0179410Y0200655D01*
X0179499Y0200666D01*
X0179588Y0200673D01*
X0179677Y0200676D01*
X0179766Y0200675D01*
X0179855Y0200670D01*
X0179943Y0200661D01*
X0180032Y0200648D01*
X0180119Y0200631D01*
X0180206Y0200611D01*
X0180292Y0200586D01*
X0180376Y0200558D01*
X0180459Y0200526D01*
X0180541Y0200490D01*
X0180621Y0200451D01*
X0180699Y0200408D01*
X0180775Y0200362D01*
X0180849Y0200312D01*
X0180921Y0200259D01*
X0180990Y0200203D01*
X0181057Y0200144D01*
X0181121Y0200082D01*
X0181182Y0200018D01*
X0181241Y0199950D01*
X0181296Y0199880D01*
X0181348Y0199808D01*
X0181397Y0199733D01*
X0181442Y0199657D01*
X0181484Y0199578D01*
X0181522Y0199498D01*
X0181557Y0199416D01*
X0181588Y0199332D01*
X0181616Y0199247D01*
X0181639Y0199161D01*
X0181659Y0199074D01*
X0181675Y0198987D01*
X0181687Y0198898D01*
X0181695Y0198810D01*
X0181699Y0198721D01*
X0181699Y0198631D01*
X0181695Y0198542D01*
X0181687Y0198454D01*
X0181675Y0198365D01*
X0181659Y0198278D01*
X0181639Y0198191D01*
X0181616Y0198105D01*
X0181588Y0198020D01*
X0181557Y0197936D01*
X0181522Y0197854D01*
X0181484Y0197774D01*
X0181442Y0197695D01*
X0181397Y0197619D01*
X0181348Y0197544D01*
X0181296Y0197472D01*
X0181241Y0197402D01*
X0181182Y0197334D01*
X0181121Y0197270D01*
X0181057Y0197208D01*
X0180990Y0197149D01*
X0180921Y0197093D01*
X0180849Y0197040D01*
X0180775Y0196990D01*
X0180699Y0196944D01*
X0180621Y0196901D01*
X0180541Y0196862D01*
X0180459Y0196826D01*
X0180376Y0196794D01*
X0180292Y0196766D01*
X0180206Y0196741D01*
X0180119Y0196721D01*
X0180032Y0196704D01*
X0179943Y0196691D01*
X0179855Y0196682D01*
X0179766Y0196677D01*
X0179677Y0196676D01*
X0179588Y0196679D01*
X0179499Y0196686D01*
X0179410Y0196697D01*
X0179322Y0196712D01*
X0179235Y0196730D01*
X0179149Y0196753D01*
X0179064Y0196779D01*
X0178980Y0196810D01*
X0178898Y0196844D01*
X0178817Y0196881D01*
X0178738Y0196922D01*
X0178661Y0196967D01*
X0178586Y0197015D01*
X0178513Y0197066D01*
X0178442Y0197120D01*
X0178374Y0197178D01*
X0178309Y0197238D01*
X0178246Y0197302D01*
X0178186Y0197368D01*
X0178129Y0197437D01*
X0178076Y0197508D01*
X0178025Y0197581D01*
X0177978Y0197657D01*
X0177935Y0197734D01*
X0177894Y0197814D01*
X0177858Y0197895D01*
X0177825Y0197978D01*
X0177796Y0198062D01*
X0177770Y0198148D01*
X0177748Y0198234D01*
X0177731Y0198321D01*
X0177717Y0198409D01*
X0177707Y0198498D01*
X0177701Y0198587D01*
X0177699Y0198676D01*
X0168536Y0199451D02*
X0168036Y0187951D01*
X0167036Y0186951D01*
X0130036Y0186951D01*
X0129036Y0187951D01*
X0128536Y0199451D01*
X0129836Y0189351D02*
X0129838Y0189414D01*
X0129844Y0189476D01*
X0129854Y0189538D01*
X0129867Y0189600D01*
X0129885Y0189660D01*
X0129906Y0189719D01*
X0129931Y0189777D01*
X0129960Y0189833D01*
X0129992Y0189887D01*
X0130027Y0189939D01*
X0130065Y0189988D01*
X0130107Y0190036D01*
X0130151Y0190080D01*
X0130199Y0190122D01*
X0130248Y0190160D01*
X0130300Y0190195D01*
X0130354Y0190227D01*
X0130410Y0190256D01*
X0130468Y0190281D01*
X0130527Y0190302D01*
X0130587Y0190320D01*
X0130649Y0190333D01*
X0130711Y0190343D01*
X0130773Y0190349D01*
X0130836Y0190351D01*
X0130899Y0190349D01*
X0130961Y0190343D01*
X0131023Y0190333D01*
X0131085Y0190320D01*
X0131145Y0190302D01*
X0131204Y0190281D01*
X0131262Y0190256D01*
X0131318Y0190227D01*
X0131372Y0190195D01*
X0131424Y0190160D01*
X0131473Y0190122D01*
X0131521Y0190080D01*
X0131565Y0190036D01*
X0131607Y0189988D01*
X0131645Y0189939D01*
X0131680Y0189887D01*
X0131712Y0189833D01*
X0131741Y0189777D01*
X0131766Y0189719D01*
X0131787Y0189660D01*
X0131805Y0189600D01*
X0131818Y0189538D01*
X0131828Y0189476D01*
X0131834Y0189414D01*
X0131836Y0189351D01*
X0131834Y0189288D01*
X0131828Y0189226D01*
X0131818Y0189164D01*
X0131805Y0189102D01*
X0131787Y0189042D01*
X0131766Y0188983D01*
X0131741Y0188925D01*
X0131712Y0188869D01*
X0131680Y0188815D01*
X0131645Y0188763D01*
X0131607Y0188714D01*
X0131565Y0188666D01*
X0131521Y0188622D01*
X0131473Y0188580D01*
X0131424Y0188542D01*
X0131372Y0188507D01*
X0131318Y0188475D01*
X0131262Y0188446D01*
X0131204Y0188421D01*
X0131145Y0188400D01*
X0131085Y0188382D01*
X0131023Y0188369D01*
X0130961Y0188359D01*
X0130899Y0188353D01*
X0130836Y0188351D01*
X0130773Y0188353D01*
X0130711Y0188359D01*
X0130649Y0188369D01*
X0130587Y0188382D01*
X0130527Y0188400D01*
X0130468Y0188421D01*
X0130410Y0188446D01*
X0130354Y0188475D01*
X0130300Y0188507D01*
X0130248Y0188542D01*
X0130199Y0188580D01*
X0130151Y0188622D01*
X0130107Y0188666D01*
X0130065Y0188714D01*
X0130027Y0188763D01*
X0129992Y0188815D01*
X0129960Y0188869D01*
X0129931Y0188925D01*
X0129906Y0188983D01*
X0129885Y0189042D01*
X0129867Y0189102D01*
X0129854Y0189164D01*
X0129844Y0189226D01*
X0129838Y0189288D01*
X0129836Y0189351D01*
X0128536Y0175357D02*
X0129036Y0163857D01*
X0130036Y0162857D01*
X0167036Y0162857D01*
X0168036Y0163857D01*
X0168536Y0175357D01*
X0177699Y0178676D02*
X0177701Y0178765D01*
X0177707Y0178854D01*
X0177717Y0178943D01*
X0177731Y0179031D01*
X0177748Y0179118D01*
X0177770Y0179204D01*
X0177796Y0179290D01*
X0177825Y0179374D01*
X0177858Y0179457D01*
X0177894Y0179538D01*
X0177935Y0179618D01*
X0177978Y0179695D01*
X0178025Y0179771D01*
X0178076Y0179844D01*
X0178129Y0179915D01*
X0178186Y0179984D01*
X0178246Y0180050D01*
X0178309Y0180114D01*
X0178374Y0180174D01*
X0178442Y0180232D01*
X0178513Y0180286D01*
X0178586Y0180337D01*
X0178661Y0180385D01*
X0178738Y0180430D01*
X0178817Y0180471D01*
X0178898Y0180508D01*
X0178980Y0180542D01*
X0179064Y0180573D01*
X0179149Y0180599D01*
X0179235Y0180622D01*
X0179322Y0180640D01*
X0179410Y0180655D01*
X0179499Y0180666D01*
X0179588Y0180673D01*
X0179677Y0180676D01*
X0179766Y0180675D01*
X0179855Y0180670D01*
X0179943Y0180661D01*
X0180032Y0180648D01*
X0180119Y0180631D01*
X0180206Y0180611D01*
X0180292Y0180586D01*
X0180376Y0180558D01*
X0180459Y0180526D01*
X0180541Y0180490D01*
X0180621Y0180451D01*
X0180699Y0180408D01*
X0180775Y0180362D01*
X0180849Y0180312D01*
X0180921Y0180259D01*
X0180990Y0180203D01*
X0181057Y0180144D01*
X0181121Y0180082D01*
X0181182Y0180018D01*
X0181241Y0179950D01*
X0181296Y0179880D01*
X0181348Y0179808D01*
X0181397Y0179733D01*
X0181442Y0179657D01*
X0181484Y0179578D01*
X0181522Y0179498D01*
X0181557Y0179416D01*
X0181588Y0179332D01*
X0181616Y0179247D01*
X0181639Y0179161D01*
X0181659Y0179074D01*
X0181675Y0178987D01*
X0181687Y0178898D01*
X0181695Y0178810D01*
X0181699Y0178721D01*
X0181699Y0178631D01*
X0181695Y0178542D01*
X0181687Y0178454D01*
X0181675Y0178365D01*
X0181659Y0178278D01*
X0181639Y0178191D01*
X0181616Y0178105D01*
X0181588Y0178020D01*
X0181557Y0177936D01*
X0181522Y0177854D01*
X0181484Y0177774D01*
X0181442Y0177695D01*
X0181397Y0177619D01*
X0181348Y0177544D01*
X0181296Y0177472D01*
X0181241Y0177402D01*
X0181182Y0177334D01*
X0181121Y0177270D01*
X0181057Y0177208D01*
X0180990Y0177149D01*
X0180921Y0177093D01*
X0180849Y0177040D01*
X0180775Y0176990D01*
X0180699Y0176944D01*
X0180621Y0176901D01*
X0180541Y0176862D01*
X0180459Y0176826D01*
X0180376Y0176794D01*
X0180292Y0176766D01*
X0180206Y0176741D01*
X0180119Y0176721D01*
X0180032Y0176704D01*
X0179943Y0176691D01*
X0179855Y0176682D01*
X0179766Y0176677D01*
X0179677Y0176676D01*
X0179588Y0176679D01*
X0179499Y0176686D01*
X0179410Y0176697D01*
X0179322Y0176712D01*
X0179235Y0176730D01*
X0179149Y0176753D01*
X0179064Y0176779D01*
X0178980Y0176810D01*
X0178898Y0176844D01*
X0178817Y0176881D01*
X0178738Y0176922D01*
X0178661Y0176967D01*
X0178586Y0177015D01*
X0178513Y0177066D01*
X0178442Y0177120D01*
X0178374Y0177178D01*
X0178309Y0177238D01*
X0178246Y0177302D01*
X0178186Y0177368D01*
X0178129Y0177437D01*
X0178076Y0177508D01*
X0178025Y0177581D01*
X0177978Y0177657D01*
X0177935Y0177734D01*
X0177894Y0177814D01*
X0177858Y0177895D01*
X0177825Y0177978D01*
X0177796Y0178062D01*
X0177770Y0178148D01*
X0177748Y0178234D01*
X0177731Y0178321D01*
X0177717Y0178409D01*
X0177707Y0178498D01*
X0177701Y0178587D01*
X0177699Y0178676D01*
X0177699Y0158676D02*
X0177701Y0158765D01*
X0177707Y0158854D01*
X0177717Y0158943D01*
X0177731Y0159031D01*
X0177748Y0159118D01*
X0177770Y0159204D01*
X0177796Y0159290D01*
X0177825Y0159374D01*
X0177858Y0159457D01*
X0177894Y0159538D01*
X0177935Y0159618D01*
X0177978Y0159695D01*
X0178025Y0159771D01*
X0178076Y0159844D01*
X0178129Y0159915D01*
X0178186Y0159984D01*
X0178246Y0160050D01*
X0178309Y0160114D01*
X0178374Y0160174D01*
X0178442Y0160232D01*
X0178513Y0160286D01*
X0178586Y0160337D01*
X0178661Y0160385D01*
X0178738Y0160430D01*
X0178817Y0160471D01*
X0178898Y0160508D01*
X0178980Y0160542D01*
X0179064Y0160573D01*
X0179149Y0160599D01*
X0179235Y0160622D01*
X0179322Y0160640D01*
X0179410Y0160655D01*
X0179499Y0160666D01*
X0179588Y0160673D01*
X0179677Y0160676D01*
X0179766Y0160675D01*
X0179855Y0160670D01*
X0179943Y0160661D01*
X0180032Y0160648D01*
X0180119Y0160631D01*
X0180206Y0160611D01*
X0180292Y0160586D01*
X0180376Y0160558D01*
X0180459Y0160526D01*
X0180541Y0160490D01*
X0180621Y0160451D01*
X0180699Y0160408D01*
X0180775Y0160362D01*
X0180849Y0160312D01*
X0180921Y0160259D01*
X0180990Y0160203D01*
X0181057Y0160144D01*
X0181121Y0160082D01*
X0181182Y0160018D01*
X0181241Y0159950D01*
X0181296Y0159880D01*
X0181348Y0159808D01*
X0181397Y0159733D01*
X0181442Y0159657D01*
X0181484Y0159578D01*
X0181522Y0159498D01*
X0181557Y0159416D01*
X0181588Y0159332D01*
X0181616Y0159247D01*
X0181639Y0159161D01*
X0181659Y0159074D01*
X0181675Y0158987D01*
X0181687Y0158898D01*
X0181695Y0158810D01*
X0181699Y0158721D01*
X0181699Y0158631D01*
X0181695Y0158542D01*
X0181687Y0158454D01*
X0181675Y0158365D01*
X0181659Y0158278D01*
X0181639Y0158191D01*
X0181616Y0158105D01*
X0181588Y0158020D01*
X0181557Y0157936D01*
X0181522Y0157854D01*
X0181484Y0157774D01*
X0181442Y0157695D01*
X0181397Y0157619D01*
X0181348Y0157544D01*
X0181296Y0157472D01*
X0181241Y0157402D01*
X0181182Y0157334D01*
X0181121Y0157270D01*
X0181057Y0157208D01*
X0180990Y0157149D01*
X0180921Y0157093D01*
X0180849Y0157040D01*
X0180775Y0156990D01*
X0180699Y0156944D01*
X0180621Y0156901D01*
X0180541Y0156862D01*
X0180459Y0156826D01*
X0180376Y0156794D01*
X0180292Y0156766D01*
X0180206Y0156741D01*
X0180119Y0156721D01*
X0180032Y0156704D01*
X0179943Y0156691D01*
X0179855Y0156682D01*
X0179766Y0156677D01*
X0179677Y0156676D01*
X0179588Y0156679D01*
X0179499Y0156686D01*
X0179410Y0156697D01*
X0179322Y0156712D01*
X0179235Y0156730D01*
X0179149Y0156753D01*
X0179064Y0156779D01*
X0178980Y0156810D01*
X0178898Y0156844D01*
X0178817Y0156881D01*
X0178738Y0156922D01*
X0178661Y0156967D01*
X0178586Y0157015D01*
X0178513Y0157066D01*
X0178442Y0157120D01*
X0178374Y0157178D01*
X0178309Y0157238D01*
X0178246Y0157302D01*
X0178186Y0157368D01*
X0178129Y0157437D01*
X0178076Y0157508D01*
X0178025Y0157581D01*
X0177978Y0157657D01*
X0177935Y0157734D01*
X0177894Y0157814D01*
X0177858Y0157895D01*
X0177825Y0157978D01*
X0177796Y0158062D01*
X0177770Y0158148D01*
X0177748Y0158234D01*
X0177731Y0158321D01*
X0177717Y0158409D01*
X0177707Y0158498D01*
X0177701Y0158587D01*
X0177699Y0158676D01*
X0174399Y0148676D02*
X0173399Y0148676D01*
X0173792Y0130802D02*
X0173792Y0090802D01*
X0178092Y0100802D02*
X0178094Y0100891D01*
X0178100Y0100980D01*
X0178110Y0101069D01*
X0178124Y0101157D01*
X0178141Y0101244D01*
X0178163Y0101330D01*
X0178189Y0101416D01*
X0178218Y0101500D01*
X0178251Y0101583D01*
X0178287Y0101664D01*
X0178328Y0101744D01*
X0178371Y0101821D01*
X0178418Y0101897D01*
X0178469Y0101970D01*
X0178522Y0102041D01*
X0178579Y0102110D01*
X0178639Y0102176D01*
X0178702Y0102240D01*
X0178767Y0102300D01*
X0178835Y0102358D01*
X0178906Y0102412D01*
X0178979Y0102463D01*
X0179054Y0102511D01*
X0179131Y0102556D01*
X0179210Y0102597D01*
X0179291Y0102634D01*
X0179373Y0102668D01*
X0179457Y0102699D01*
X0179542Y0102725D01*
X0179628Y0102748D01*
X0179715Y0102766D01*
X0179803Y0102781D01*
X0179892Y0102792D01*
X0179981Y0102799D01*
X0180070Y0102802D01*
X0180159Y0102801D01*
X0180248Y0102796D01*
X0180336Y0102787D01*
X0180425Y0102774D01*
X0180512Y0102757D01*
X0180599Y0102737D01*
X0180685Y0102712D01*
X0180769Y0102684D01*
X0180852Y0102652D01*
X0180934Y0102616D01*
X0181014Y0102577D01*
X0181092Y0102534D01*
X0181168Y0102488D01*
X0181242Y0102438D01*
X0181314Y0102385D01*
X0181383Y0102329D01*
X0181450Y0102270D01*
X0181514Y0102208D01*
X0181575Y0102144D01*
X0181634Y0102076D01*
X0181689Y0102006D01*
X0181741Y0101934D01*
X0181790Y0101859D01*
X0181835Y0101783D01*
X0181877Y0101704D01*
X0181915Y0101624D01*
X0181950Y0101542D01*
X0181981Y0101458D01*
X0182009Y0101373D01*
X0182032Y0101287D01*
X0182052Y0101200D01*
X0182068Y0101113D01*
X0182080Y0101024D01*
X0182088Y0100936D01*
X0182092Y0100847D01*
X0182092Y0100757D01*
X0182088Y0100668D01*
X0182080Y0100580D01*
X0182068Y0100491D01*
X0182052Y0100404D01*
X0182032Y0100317D01*
X0182009Y0100231D01*
X0181981Y0100146D01*
X0181950Y0100062D01*
X0181915Y0099980D01*
X0181877Y0099900D01*
X0181835Y0099821D01*
X0181790Y0099745D01*
X0181741Y0099670D01*
X0181689Y0099598D01*
X0181634Y0099528D01*
X0181575Y0099460D01*
X0181514Y0099396D01*
X0181450Y0099334D01*
X0181383Y0099275D01*
X0181314Y0099219D01*
X0181242Y0099166D01*
X0181168Y0099116D01*
X0181092Y0099070D01*
X0181014Y0099027D01*
X0180934Y0098988D01*
X0180852Y0098952D01*
X0180769Y0098920D01*
X0180685Y0098892D01*
X0180599Y0098867D01*
X0180512Y0098847D01*
X0180425Y0098830D01*
X0180336Y0098817D01*
X0180248Y0098808D01*
X0180159Y0098803D01*
X0180070Y0098802D01*
X0179981Y0098805D01*
X0179892Y0098812D01*
X0179803Y0098823D01*
X0179715Y0098838D01*
X0179628Y0098856D01*
X0179542Y0098879D01*
X0179457Y0098905D01*
X0179373Y0098936D01*
X0179291Y0098970D01*
X0179210Y0099007D01*
X0179131Y0099048D01*
X0179054Y0099093D01*
X0178979Y0099141D01*
X0178906Y0099192D01*
X0178835Y0099246D01*
X0178767Y0099304D01*
X0178702Y0099364D01*
X0178639Y0099428D01*
X0178579Y0099494D01*
X0178522Y0099563D01*
X0178469Y0099634D01*
X0178418Y0099707D01*
X0178371Y0099783D01*
X0178328Y0099860D01*
X0178287Y0099940D01*
X0178251Y0100021D01*
X0178218Y0100104D01*
X0178189Y0100188D01*
X0178163Y0100274D01*
X0178141Y0100360D01*
X0178124Y0100447D01*
X0178110Y0100535D01*
X0178100Y0100624D01*
X0178094Y0100713D01*
X0178092Y0100802D01*
X0167824Y0112306D02*
X0168824Y0113306D01*
X0169324Y0124806D01*
X0173792Y0130802D02*
X0174792Y0130802D01*
X0178092Y0120802D02*
X0178094Y0120891D01*
X0178100Y0120980D01*
X0178110Y0121069D01*
X0178124Y0121157D01*
X0178141Y0121244D01*
X0178163Y0121330D01*
X0178189Y0121416D01*
X0178218Y0121500D01*
X0178251Y0121583D01*
X0178287Y0121664D01*
X0178328Y0121744D01*
X0178371Y0121821D01*
X0178418Y0121897D01*
X0178469Y0121970D01*
X0178522Y0122041D01*
X0178579Y0122110D01*
X0178639Y0122176D01*
X0178702Y0122240D01*
X0178767Y0122300D01*
X0178835Y0122358D01*
X0178906Y0122412D01*
X0178979Y0122463D01*
X0179054Y0122511D01*
X0179131Y0122556D01*
X0179210Y0122597D01*
X0179291Y0122634D01*
X0179373Y0122668D01*
X0179457Y0122699D01*
X0179542Y0122725D01*
X0179628Y0122748D01*
X0179715Y0122766D01*
X0179803Y0122781D01*
X0179892Y0122792D01*
X0179981Y0122799D01*
X0180070Y0122802D01*
X0180159Y0122801D01*
X0180248Y0122796D01*
X0180336Y0122787D01*
X0180425Y0122774D01*
X0180512Y0122757D01*
X0180599Y0122737D01*
X0180685Y0122712D01*
X0180769Y0122684D01*
X0180852Y0122652D01*
X0180934Y0122616D01*
X0181014Y0122577D01*
X0181092Y0122534D01*
X0181168Y0122488D01*
X0181242Y0122438D01*
X0181314Y0122385D01*
X0181383Y0122329D01*
X0181450Y0122270D01*
X0181514Y0122208D01*
X0181575Y0122144D01*
X0181634Y0122076D01*
X0181689Y0122006D01*
X0181741Y0121934D01*
X0181790Y0121859D01*
X0181835Y0121783D01*
X0181877Y0121704D01*
X0181915Y0121624D01*
X0181950Y0121542D01*
X0181981Y0121458D01*
X0182009Y0121373D01*
X0182032Y0121287D01*
X0182052Y0121200D01*
X0182068Y0121113D01*
X0182080Y0121024D01*
X0182088Y0120936D01*
X0182092Y0120847D01*
X0182092Y0120757D01*
X0182088Y0120668D01*
X0182080Y0120580D01*
X0182068Y0120491D01*
X0182052Y0120404D01*
X0182032Y0120317D01*
X0182009Y0120231D01*
X0181981Y0120146D01*
X0181950Y0120062D01*
X0181915Y0119980D01*
X0181877Y0119900D01*
X0181835Y0119821D01*
X0181790Y0119745D01*
X0181741Y0119670D01*
X0181689Y0119598D01*
X0181634Y0119528D01*
X0181575Y0119460D01*
X0181514Y0119396D01*
X0181450Y0119334D01*
X0181383Y0119275D01*
X0181314Y0119219D01*
X0181242Y0119166D01*
X0181168Y0119116D01*
X0181092Y0119070D01*
X0181014Y0119027D01*
X0180934Y0118988D01*
X0180852Y0118952D01*
X0180769Y0118920D01*
X0180685Y0118892D01*
X0180599Y0118867D01*
X0180512Y0118847D01*
X0180425Y0118830D01*
X0180336Y0118817D01*
X0180248Y0118808D01*
X0180159Y0118803D01*
X0180070Y0118802D01*
X0179981Y0118805D01*
X0179892Y0118812D01*
X0179803Y0118823D01*
X0179715Y0118838D01*
X0179628Y0118856D01*
X0179542Y0118879D01*
X0179457Y0118905D01*
X0179373Y0118936D01*
X0179291Y0118970D01*
X0179210Y0119007D01*
X0179131Y0119048D01*
X0179054Y0119093D01*
X0178979Y0119141D01*
X0178906Y0119192D01*
X0178835Y0119246D01*
X0178767Y0119304D01*
X0178702Y0119364D01*
X0178639Y0119428D01*
X0178579Y0119494D01*
X0178522Y0119563D01*
X0178469Y0119634D01*
X0178418Y0119707D01*
X0178371Y0119783D01*
X0178328Y0119860D01*
X0178287Y0119940D01*
X0178251Y0120021D01*
X0178218Y0120104D01*
X0178189Y0120188D01*
X0178163Y0120274D01*
X0178141Y0120360D01*
X0178124Y0120447D01*
X0178110Y0120535D01*
X0178100Y0120624D01*
X0178094Y0120713D01*
X0178092Y0120802D01*
X0200792Y0090802D02*
X0200792Y0084302D01*
X0200792Y0077302D02*
X0200792Y0064302D01*
X0178092Y0080802D02*
X0178094Y0080891D01*
X0178100Y0080980D01*
X0178110Y0081069D01*
X0178124Y0081157D01*
X0178141Y0081244D01*
X0178163Y0081330D01*
X0178189Y0081416D01*
X0178218Y0081500D01*
X0178251Y0081583D01*
X0178287Y0081664D01*
X0178328Y0081744D01*
X0178371Y0081821D01*
X0178418Y0081897D01*
X0178469Y0081970D01*
X0178522Y0082041D01*
X0178579Y0082110D01*
X0178639Y0082176D01*
X0178702Y0082240D01*
X0178767Y0082300D01*
X0178835Y0082358D01*
X0178906Y0082412D01*
X0178979Y0082463D01*
X0179054Y0082511D01*
X0179131Y0082556D01*
X0179210Y0082597D01*
X0179291Y0082634D01*
X0179373Y0082668D01*
X0179457Y0082699D01*
X0179542Y0082725D01*
X0179628Y0082748D01*
X0179715Y0082766D01*
X0179803Y0082781D01*
X0179892Y0082792D01*
X0179981Y0082799D01*
X0180070Y0082802D01*
X0180159Y0082801D01*
X0180248Y0082796D01*
X0180336Y0082787D01*
X0180425Y0082774D01*
X0180512Y0082757D01*
X0180599Y0082737D01*
X0180685Y0082712D01*
X0180769Y0082684D01*
X0180852Y0082652D01*
X0180934Y0082616D01*
X0181014Y0082577D01*
X0181092Y0082534D01*
X0181168Y0082488D01*
X0181242Y0082438D01*
X0181314Y0082385D01*
X0181383Y0082329D01*
X0181450Y0082270D01*
X0181514Y0082208D01*
X0181575Y0082144D01*
X0181634Y0082076D01*
X0181689Y0082006D01*
X0181741Y0081934D01*
X0181790Y0081859D01*
X0181835Y0081783D01*
X0181877Y0081704D01*
X0181915Y0081624D01*
X0181950Y0081542D01*
X0181981Y0081458D01*
X0182009Y0081373D01*
X0182032Y0081287D01*
X0182052Y0081200D01*
X0182068Y0081113D01*
X0182080Y0081024D01*
X0182088Y0080936D01*
X0182092Y0080847D01*
X0182092Y0080757D01*
X0182088Y0080668D01*
X0182080Y0080580D01*
X0182068Y0080491D01*
X0182052Y0080404D01*
X0182032Y0080317D01*
X0182009Y0080231D01*
X0181981Y0080146D01*
X0181950Y0080062D01*
X0181915Y0079980D01*
X0181877Y0079900D01*
X0181835Y0079821D01*
X0181790Y0079745D01*
X0181741Y0079670D01*
X0181689Y0079598D01*
X0181634Y0079528D01*
X0181575Y0079460D01*
X0181514Y0079396D01*
X0181450Y0079334D01*
X0181383Y0079275D01*
X0181314Y0079219D01*
X0181242Y0079166D01*
X0181168Y0079116D01*
X0181092Y0079070D01*
X0181014Y0079027D01*
X0180934Y0078988D01*
X0180852Y0078952D01*
X0180769Y0078920D01*
X0180685Y0078892D01*
X0180599Y0078867D01*
X0180512Y0078847D01*
X0180425Y0078830D01*
X0180336Y0078817D01*
X0180248Y0078808D01*
X0180159Y0078803D01*
X0180070Y0078802D01*
X0179981Y0078805D01*
X0179892Y0078812D01*
X0179803Y0078823D01*
X0179715Y0078838D01*
X0179628Y0078856D01*
X0179542Y0078879D01*
X0179457Y0078905D01*
X0179373Y0078936D01*
X0179291Y0078970D01*
X0179210Y0079007D01*
X0179131Y0079048D01*
X0179054Y0079093D01*
X0178979Y0079141D01*
X0178906Y0079192D01*
X0178835Y0079246D01*
X0178767Y0079304D01*
X0178702Y0079364D01*
X0178639Y0079428D01*
X0178579Y0079494D01*
X0178522Y0079563D01*
X0178469Y0079634D01*
X0178418Y0079707D01*
X0178371Y0079783D01*
X0178328Y0079860D01*
X0178287Y0079940D01*
X0178251Y0080021D01*
X0178218Y0080104D01*
X0178189Y0080188D01*
X0178163Y0080274D01*
X0178141Y0080360D01*
X0178124Y0080447D01*
X0178110Y0080535D01*
X0178100Y0080624D01*
X0178094Y0080713D01*
X0178092Y0080802D01*
X0158751Y0070267D02*
X0158753Y0070330D01*
X0158759Y0070392D01*
X0158769Y0070454D01*
X0158782Y0070516D01*
X0158800Y0070576D01*
X0158821Y0070635D01*
X0158846Y0070693D01*
X0158875Y0070749D01*
X0158907Y0070803D01*
X0158942Y0070855D01*
X0158980Y0070904D01*
X0159022Y0070952D01*
X0159066Y0070996D01*
X0159114Y0071038D01*
X0159163Y0071076D01*
X0159215Y0071111D01*
X0159269Y0071143D01*
X0159325Y0071172D01*
X0159383Y0071197D01*
X0159442Y0071218D01*
X0159502Y0071236D01*
X0159564Y0071249D01*
X0159626Y0071259D01*
X0159688Y0071265D01*
X0159751Y0071267D01*
X0159814Y0071265D01*
X0159876Y0071259D01*
X0159938Y0071249D01*
X0160000Y0071236D01*
X0160060Y0071218D01*
X0160119Y0071197D01*
X0160177Y0071172D01*
X0160233Y0071143D01*
X0160287Y0071111D01*
X0160339Y0071076D01*
X0160388Y0071038D01*
X0160436Y0070996D01*
X0160480Y0070952D01*
X0160522Y0070904D01*
X0160560Y0070855D01*
X0160595Y0070803D01*
X0160627Y0070749D01*
X0160656Y0070693D01*
X0160681Y0070635D01*
X0160702Y0070576D01*
X0160720Y0070516D01*
X0160733Y0070454D01*
X0160743Y0070392D01*
X0160749Y0070330D01*
X0160751Y0070267D01*
X0160749Y0070204D01*
X0160743Y0070142D01*
X0160733Y0070080D01*
X0160720Y0070018D01*
X0160702Y0069958D01*
X0160681Y0069899D01*
X0160656Y0069841D01*
X0160627Y0069785D01*
X0160595Y0069731D01*
X0160560Y0069679D01*
X0160522Y0069630D01*
X0160480Y0069582D01*
X0160436Y0069538D01*
X0160388Y0069496D01*
X0160339Y0069458D01*
X0160287Y0069423D01*
X0160233Y0069391D01*
X0160177Y0069362D01*
X0160119Y0069337D01*
X0160060Y0069316D01*
X0160000Y0069298D01*
X0159938Y0069285D01*
X0159876Y0069275D01*
X0159814Y0069269D01*
X0159751Y0069267D01*
X0159688Y0069269D01*
X0159626Y0069275D01*
X0159564Y0069285D01*
X0159502Y0069298D01*
X0159442Y0069316D01*
X0159383Y0069337D01*
X0159325Y0069362D01*
X0159269Y0069391D01*
X0159215Y0069423D01*
X0159163Y0069458D01*
X0159114Y0069496D01*
X0159066Y0069538D01*
X0159022Y0069582D01*
X0158980Y0069630D01*
X0158942Y0069679D01*
X0158907Y0069731D01*
X0158875Y0069785D01*
X0158846Y0069841D01*
X0158821Y0069899D01*
X0158800Y0069958D01*
X0158782Y0070018D01*
X0158769Y0070080D01*
X0158759Y0070142D01*
X0158753Y0070204D01*
X0158751Y0070267D01*
X0154332Y0056214D02*
X0154334Y0056303D01*
X0154340Y0056392D01*
X0154350Y0056481D01*
X0154364Y0056569D01*
X0154381Y0056656D01*
X0154403Y0056742D01*
X0154429Y0056828D01*
X0154458Y0056912D01*
X0154491Y0056995D01*
X0154527Y0057076D01*
X0154568Y0057156D01*
X0154611Y0057233D01*
X0154658Y0057309D01*
X0154709Y0057382D01*
X0154762Y0057453D01*
X0154819Y0057522D01*
X0154879Y0057588D01*
X0154942Y0057652D01*
X0155007Y0057712D01*
X0155075Y0057770D01*
X0155146Y0057824D01*
X0155219Y0057875D01*
X0155294Y0057923D01*
X0155371Y0057968D01*
X0155450Y0058009D01*
X0155531Y0058046D01*
X0155613Y0058080D01*
X0155697Y0058111D01*
X0155782Y0058137D01*
X0155868Y0058160D01*
X0155955Y0058178D01*
X0156043Y0058193D01*
X0156132Y0058204D01*
X0156221Y0058211D01*
X0156310Y0058214D01*
X0156399Y0058213D01*
X0156488Y0058208D01*
X0156576Y0058199D01*
X0156665Y0058186D01*
X0156752Y0058169D01*
X0156839Y0058149D01*
X0156925Y0058124D01*
X0157009Y0058096D01*
X0157092Y0058064D01*
X0157174Y0058028D01*
X0157254Y0057989D01*
X0157332Y0057946D01*
X0157408Y0057900D01*
X0157482Y0057850D01*
X0157554Y0057797D01*
X0157623Y0057741D01*
X0157690Y0057682D01*
X0157754Y0057620D01*
X0157815Y0057556D01*
X0157874Y0057488D01*
X0157929Y0057418D01*
X0157981Y0057346D01*
X0158030Y0057271D01*
X0158075Y0057195D01*
X0158117Y0057116D01*
X0158155Y0057036D01*
X0158190Y0056954D01*
X0158221Y0056870D01*
X0158249Y0056785D01*
X0158272Y0056699D01*
X0158292Y0056612D01*
X0158308Y0056525D01*
X0158320Y0056436D01*
X0158328Y0056348D01*
X0158332Y0056259D01*
X0158332Y0056169D01*
X0158328Y0056080D01*
X0158320Y0055992D01*
X0158308Y0055903D01*
X0158292Y0055816D01*
X0158272Y0055729D01*
X0158249Y0055643D01*
X0158221Y0055558D01*
X0158190Y0055474D01*
X0158155Y0055392D01*
X0158117Y0055312D01*
X0158075Y0055233D01*
X0158030Y0055157D01*
X0157981Y0055082D01*
X0157929Y0055010D01*
X0157874Y0054940D01*
X0157815Y0054872D01*
X0157754Y0054808D01*
X0157690Y0054746D01*
X0157623Y0054687D01*
X0157554Y0054631D01*
X0157482Y0054578D01*
X0157408Y0054528D01*
X0157332Y0054482D01*
X0157254Y0054439D01*
X0157174Y0054400D01*
X0157092Y0054364D01*
X0157009Y0054332D01*
X0156925Y0054304D01*
X0156839Y0054279D01*
X0156752Y0054259D01*
X0156665Y0054242D01*
X0156576Y0054229D01*
X0156488Y0054220D01*
X0156399Y0054215D01*
X0156310Y0054214D01*
X0156221Y0054217D01*
X0156132Y0054224D01*
X0156043Y0054235D01*
X0155955Y0054250D01*
X0155868Y0054268D01*
X0155782Y0054291D01*
X0155697Y0054317D01*
X0155613Y0054348D01*
X0155531Y0054382D01*
X0155450Y0054419D01*
X0155371Y0054460D01*
X0155294Y0054505D01*
X0155219Y0054553D01*
X0155146Y0054604D01*
X0155075Y0054658D01*
X0155007Y0054716D01*
X0154942Y0054776D01*
X0154879Y0054840D01*
X0154819Y0054906D01*
X0154762Y0054975D01*
X0154709Y0055046D01*
X0154658Y0055119D01*
X0154611Y0055195D01*
X0154568Y0055272D01*
X0154527Y0055352D01*
X0154491Y0055433D01*
X0154458Y0055516D01*
X0154429Y0055600D01*
X0154403Y0055686D01*
X0154381Y0055772D01*
X0154364Y0055859D01*
X0154350Y0055947D01*
X0154340Y0056036D01*
X0154334Y0056125D01*
X0154332Y0056214D01*
X0152832Y0035514D02*
X0139832Y0035514D01*
X0132832Y0035514D02*
X0126332Y0035514D01*
X0159832Y0035514D02*
X0166332Y0035514D01*
X0065922Y0125802D02*
X0065925Y0126072D01*
X0065935Y0126342D01*
X0065952Y0126611D01*
X0065975Y0126880D01*
X0066005Y0127149D01*
X0066041Y0127416D01*
X0066084Y0127683D01*
X0066133Y0127948D01*
X0066189Y0128212D01*
X0066252Y0128475D01*
X0066320Y0128736D01*
X0066396Y0128995D01*
X0066477Y0129252D01*
X0066565Y0129508D01*
X0066659Y0129761D01*
X0066759Y0130012D01*
X0066866Y0130260D01*
X0066978Y0130505D01*
X0067097Y0130748D01*
X0067221Y0130987D01*
X0067351Y0131224D01*
X0067487Y0131457D01*
X0067629Y0131687D01*
X0067776Y0131913D01*
X0067929Y0132136D01*
X0068087Y0132355D01*
X0068250Y0132570D01*
X0068419Y0132780D01*
X0068593Y0132987D01*
X0068772Y0133189D01*
X0068955Y0133387D01*
X0069144Y0133580D01*
X0069337Y0133769D01*
X0069535Y0133952D01*
X0069737Y0134131D01*
X0069944Y0134305D01*
X0070154Y0134474D01*
X0070369Y0134637D01*
X0070588Y0134795D01*
X0070811Y0134948D01*
X0071037Y0135095D01*
X0071267Y0135237D01*
X0071500Y0135373D01*
X0071737Y0135503D01*
X0071976Y0135627D01*
X0072219Y0135746D01*
X0072464Y0135858D01*
X0072712Y0135965D01*
X0072963Y0136065D01*
X0073216Y0136159D01*
X0073472Y0136247D01*
X0073729Y0136328D01*
X0073988Y0136404D01*
X0074249Y0136472D01*
X0074512Y0136535D01*
X0074776Y0136591D01*
X0075041Y0136640D01*
X0075308Y0136683D01*
X0075575Y0136719D01*
X0075844Y0136749D01*
X0076113Y0136772D01*
X0076382Y0136789D01*
X0076652Y0136799D01*
X0076922Y0136802D01*
X0077192Y0136799D01*
X0077462Y0136789D01*
X0077731Y0136772D01*
X0078000Y0136749D01*
X0078269Y0136719D01*
X0078536Y0136683D01*
X0078803Y0136640D01*
X0079068Y0136591D01*
X0079332Y0136535D01*
X0079595Y0136472D01*
X0079856Y0136404D01*
X0080115Y0136328D01*
X0080372Y0136247D01*
X0080628Y0136159D01*
X0080881Y0136065D01*
X0081132Y0135965D01*
X0081380Y0135858D01*
X0081625Y0135746D01*
X0081868Y0135627D01*
X0082107Y0135503D01*
X0082344Y0135373D01*
X0082577Y0135237D01*
X0082807Y0135095D01*
X0083033Y0134948D01*
X0083256Y0134795D01*
X0083475Y0134637D01*
X0083690Y0134474D01*
X0083900Y0134305D01*
X0084107Y0134131D01*
X0084309Y0133952D01*
X0084507Y0133769D01*
X0084700Y0133580D01*
X0084889Y0133387D01*
X0085072Y0133189D01*
X0085251Y0132987D01*
X0085425Y0132780D01*
X0085594Y0132570D01*
X0085757Y0132355D01*
X0085915Y0132136D01*
X0086068Y0131913D01*
X0086215Y0131687D01*
X0086357Y0131457D01*
X0086493Y0131224D01*
X0086623Y0130987D01*
X0086747Y0130748D01*
X0086866Y0130505D01*
X0086978Y0130260D01*
X0087085Y0130012D01*
X0087185Y0129761D01*
X0087279Y0129508D01*
X0087367Y0129252D01*
X0087448Y0128995D01*
X0087524Y0128736D01*
X0087592Y0128475D01*
X0087655Y0128212D01*
X0087711Y0127948D01*
X0087760Y0127683D01*
X0087803Y0127416D01*
X0087839Y0127149D01*
X0087869Y0126880D01*
X0087892Y0126611D01*
X0087909Y0126342D01*
X0087919Y0126072D01*
X0087922Y0125802D01*
X0087919Y0125532D01*
X0087909Y0125262D01*
X0087892Y0124993D01*
X0087869Y0124724D01*
X0087839Y0124455D01*
X0087803Y0124188D01*
X0087760Y0123921D01*
X0087711Y0123656D01*
X0087655Y0123392D01*
X0087592Y0123129D01*
X0087524Y0122868D01*
X0087448Y0122609D01*
X0087367Y0122352D01*
X0087279Y0122096D01*
X0087185Y0121843D01*
X0087085Y0121592D01*
X0086978Y0121344D01*
X0086866Y0121099D01*
X0086747Y0120856D01*
X0086623Y0120617D01*
X0086493Y0120380D01*
X0086357Y0120147D01*
X0086215Y0119917D01*
X0086068Y0119691D01*
X0085915Y0119468D01*
X0085757Y0119249D01*
X0085594Y0119034D01*
X0085425Y0118824D01*
X0085251Y0118617D01*
X0085072Y0118415D01*
X0084889Y0118217D01*
X0084700Y0118024D01*
X0084507Y0117835D01*
X0084309Y0117652D01*
X0084107Y0117473D01*
X0083900Y0117299D01*
X0083690Y0117130D01*
X0083475Y0116967D01*
X0083256Y0116809D01*
X0083033Y0116656D01*
X0082807Y0116509D01*
X0082577Y0116367D01*
X0082344Y0116231D01*
X0082107Y0116101D01*
X0081868Y0115977D01*
X0081625Y0115858D01*
X0081380Y0115746D01*
X0081132Y0115639D01*
X0080881Y0115539D01*
X0080628Y0115445D01*
X0080372Y0115357D01*
X0080115Y0115276D01*
X0079856Y0115200D01*
X0079595Y0115132D01*
X0079332Y0115069D01*
X0079068Y0115013D01*
X0078803Y0114964D01*
X0078536Y0114921D01*
X0078269Y0114885D01*
X0078000Y0114855D01*
X0077731Y0114832D01*
X0077462Y0114815D01*
X0077192Y0114805D01*
X0076922Y0114802D01*
X0076652Y0114805D01*
X0076382Y0114815D01*
X0076113Y0114832D01*
X0075844Y0114855D01*
X0075575Y0114885D01*
X0075308Y0114921D01*
X0075041Y0114964D01*
X0074776Y0115013D01*
X0074512Y0115069D01*
X0074249Y0115132D01*
X0073988Y0115200D01*
X0073729Y0115276D01*
X0073472Y0115357D01*
X0073216Y0115445D01*
X0072963Y0115539D01*
X0072712Y0115639D01*
X0072464Y0115746D01*
X0072219Y0115858D01*
X0071976Y0115977D01*
X0071737Y0116101D01*
X0071500Y0116231D01*
X0071267Y0116367D01*
X0071037Y0116509D01*
X0070811Y0116656D01*
X0070588Y0116809D01*
X0070369Y0116967D01*
X0070154Y0117130D01*
X0069944Y0117299D01*
X0069737Y0117473D01*
X0069535Y0117652D01*
X0069337Y0117835D01*
X0069144Y0118024D01*
X0068955Y0118217D01*
X0068772Y0118415D01*
X0068593Y0118617D01*
X0068419Y0118824D01*
X0068250Y0119034D01*
X0068087Y0119249D01*
X0067929Y0119468D01*
X0067776Y0119691D01*
X0067629Y0119917D01*
X0067487Y0120147D01*
X0067351Y0120380D01*
X0067221Y0120617D01*
X0067097Y0120856D01*
X0066978Y0121099D01*
X0066866Y0121344D01*
X0066759Y0121592D01*
X0066659Y0121843D01*
X0066565Y0122096D01*
X0066477Y0122352D01*
X0066396Y0122609D01*
X0066320Y0122868D01*
X0066252Y0123129D01*
X0066189Y0123392D01*
X0066133Y0123656D01*
X0066084Y0123921D01*
X0066041Y0124188D01*
X0066005Y0124455D01*
X0065975Y0124724D01*
X0065952Y0124993D01*
X0065935Y0125262D01*
X0065925Y0125532D01*
X0065922Y0125802D01*
X0070422Y0129302D02*
X0070422Y0130802D01*
X0070422Y0132302D01*
X0070422Y0130802D02*
X0068922Y0130802D01*
X0070422Y0130802D02*
X0071922Y0130802D01*
X0044607Y0102443D02*
X0042939Y0102443D01*
X0042105Y0101608D01*
X0042105Y0100774D01*
X0042939Y0099106D01*
X0040437Y0099106D01*
X0040437Y0102443D01*
X0044607Y0102443D02*
X0045441Y0101608D01*
X0045441Y0099940D01*
X0044607Y0099106D01*
X0044607Y0097362D02*
X0045441Y0097362D01*
X0045441Y0096528D01*
X0044607Y0096528D01*
X0044607Y0097362D01*
X0045441Y0094708D02*
X0045441Y0091372D01*
X0045441Y0093040D02*
X0040437Y0093040D01*
X0042105Y0091372D01*
X0040437Y0089552D02*
X0045441Y0089552D01*
X0043773Y0087883D01*
X0045441Y0086215D01*
X0040437Y0086215D01*
X0040437Y0084395D02*
X0045441Y0084395D01*
X0043773Y0082727D01*
X0045441Y0081059D01*
X0040437Y0081059D01*
X0041271Y0079239D02*
X0042105Y0079239D01*
X0042939Y0078405D01*
X0042939Y0075903D01*
X0042939Y0074082D02*
X0042939Y0072414D01*
X0042939Y0074082D02*
X0044607Y0074082D01*
X0045441Y0073248D01*
X0045441Y0071580D01*
X0044607Y0070746D01*
X0041271Y0070746D01*
X0040437Y0071580D01*
X0040437Y0073248D01*
X0041271Y0074082D01*
X0040437Y0075903D02*
X0040437Y0078405D01*
X0041271Y0079239D01*
X0042939Y0078405D02*
X0043773Y0079239D01*
X0044607Y0079239D01*
X0045441Y0078405D01*
X0045441Y0075903D01*
X0040437Y0075903D01*
X0041271Y0068926D02*
X0042939Y0068926D01*
X0043773Y0068092D01*
X0043773Y0065590D01*
X0043773Y0067258D02*
X0045441Y0068926D01*
X0045441Y0065590D02*
X0040437Y0065590D01*
X0040437Y0068092D01*
X0041271Y0068926D01*
X0036194Y0107731D02*
X0031194Y0107731D01*
X0028694Y0110231D01*
X0028694Y0115231D01*
X0031194Y0117731D01*
X0028694Y0120231D01*
X0028694Y0125231D01*
X0031194Y0127731D01*
X0028694Y0130231D01*
X0028694Y0135231D01*
X0031194Y0137731D01*
X0036194Y0137731D01*
X0038694Y0135231D01*
X0038694Y0130231D01*
X0036194Y0127731D01*
X0038694Y0125231D01*
X0038694Y0120231D01*
X0036194Y0117731D01*
X0038694Y0115231D01*
X0038694Y0110231D01*
X0036194Y0107731D01*
X0129836Y0165257D02*
X0129838Y0165320D01*
X0129844Y0165382D01*
X0129854Y0165444D01*
X0129867Y0165506D01*
X0129885Y0165566D01*
X0129906Y0165625D01*
X0129931Y0165683D01*
X0129960Y0165739D01*
X0129992Y0165793D01*
X0130027Y0165845D01*
X0130065Y0165894D01*
X0130107Y0165942D01*
X0130151Y0165986D01*
X0130199Y0166028D01*
X0130248Y0166066D01*
X0130300Y0166101D01*
X0130354Y0166133D01*
X0130410Y0166162D01*
X0130468Y0166187D01*
X0130527Y0166208D01*
X0130587Y0166226D01*
X0130649Y0166239D01*
X0130711Y0166249D01*
X0130773Y0166255D01*
X0130836Y0166257D01*
X0130899Y0166255D01*
X0130961Y0166249D01*
X0131023Y0166239D01*
X0131085Y0166226D01*
X0131145Y0166208D01*
X0131204Y0166187D01*
X0131262Y0166162D01*
X0131318Y0166133D01*
X0131372Y0166101D01*
X0131424Y0166066D01*
X0131473Y0166028D01*
X0131521Y0165986D01*
X0131565Y0165942D01*
X0131607Y0165894D01*
X0131645Y0165845D01*
X0131680Y0165793D01*
X0131712Y0165739D01*
X0131741Y0165683D01*
X0131766Y0165625D01*
X0131787Y0165566D01*
X0131805Y0165506D01*
X0131818Y0165444D01*
X0131828Y0165382D01*
X0131834Y0165320D01*
X0131836Y0165257D01*
X0131834Y0165194D01*
X0131828Y0165132D01*
X0131818Y0165070D01*
X0131805Y0165008D01*
X0131787Y0164948D01*
X0131766Y0164889D01*
X0131741Y0164831D01*
X0131712Y0164775D01*
X0131680Y0164721D01*
X0131645Y0164669D01*
X0131607Y0164620D01*
X0131565Y0164572D01*
X0131521Y0164528D01*
X0131473Y0164486D01*
X0131424Y0164448D01*
X0131372Y0164413D01*
X0131318Y0164381D01*
X0131262Y0164352D01*
X0131204Y0164327D01*
X0131145Y0164306D01*
X0131085Y0164288D01*
X0131023Y0164275D01*
X0130961Y0164265D01*
X0130899Y0164259D01*
X0130836Y0164257D01*
X0130773Y0164259D01*
X0130711Y0164265D01*
X0130649Y0164275D01*
X0130587Y0164288D01*
X0130527Y0164306D01*
X0130468Y0164327D01*
X0130410Y0164352D01*
X0130354Y0164381D01*
X0130300Y0164413D01*
X0130248Y0164448D01*
X0130199Y0164486D01*
X0130151Y0164528D01*
X0130107Y0164572D01*
X0130065Y0164620D01*
X0130027Y0164669D01*
X0129992Y0164721D01*
X0129960Y0164775D01*
X0129931Y0164831D01*
X0129906Y0164889D01*
X0129885Y0164948D01*
X0129867Y0165008D01*
X0129854Y0165070D01*
X0129844Y0165132D01*
X0129838Y0165194D01*
X0129836Y0165257D01*
D14*
X0044570Y0138407D02*
X0044086Y0138890D01*
X0042151Y0138890D01*
X0041667Y0138407D01*
X0041667Y0137439D01*
X0042151Y0136955D01*
X0043119Y0136955D01*
X0043119Y0137923D01*
X0044086Y0136955D02*
X0044570Y0137439D01*
X0044570Y0138407D01*
X0044570Y0135944D02*
X0041667Y0135944D01*
X0041667Y0134009D02*
X0044570Y0134009D01*
X0044570Y0132997D02*
X0044570Y0131546D01*
X0044086Y0131062D01*
X0042151Y0131062D01*
X0041667Y0131546D01*
X0041667Y0132997D01*
X0044570Y0132997D01*
X0044570Y0135944D02*
X0041667Y0134009D01*
X0042151Y0127973D02*
X0041667Y0127490D01*
X0041667Y0126522D01*
X0042151Y0126038D01*
X0042635Y0126038D01*
X0043119Y0126522D01*
X0043119Y0127006D01*
X0043119Y0126522D02*
X0043602Y0126038D01*
X0044086Y0126038D01*
X0044570Y0126522D01*
X0044570Y0127490D01*
X0044086Y0127973D01*
X0042151Y0125027D02*
X0042151Y0124543D01*
X0041667Y0124543D01*
X0041667Y0125027D01*
X0042151Y0125027D01*
X0042151Y0123554D02*
X0041667Y0123070D01*
X0041667Y0122102D01*
X0042151Y0121619D01*
X0042635Y0121619D01*
X0043119Y0122102D01*
X0043119Y0122586D01*
X0043119Y0122102D02*
X0043602Y0121619D01*
X0044086Y0121619D01*
X0044570Y0122102D01*
X0044570Y0123070D01*
X0044086Y0123554D01*
X0044570Y0120607D02*
X0042635Y0120607D01*
X0041667Y0119640D01*
X0042635Y0118672D01*
X0044570Y0118672D01*
X0044857Y0115442D02*
X0041954Y0115442D01*
X0041954Y0113991D01*
X0042438Y0113507D01*
X0044373Y0113507D01*
X0044857Y0113991D01*
X0044857Y0115442D01*
X0044373Y0112496D02*
X0042438Y0112496D01*
X0041954Y0112012D01*
X0041954Y0111045D01*
X0042438Y0110561D01*
X0041954Y0109549D02*
X0041954Y0108098D01*
X0042438Y0107614D01*
X0044373Y0107614D01*
X0044857Y0108098D01*
X0044857Y0109549D01*
X0041954Y0109549D01*
X0044373Y0110561D02*
X0044857Y0111045D01*
X0044857Y0112012D01*
X0044373Y0112496D01*
X0044373Y0106603D02*
X0042438Y0106603D01*
X0041954Y0106119D01*
X0041954Y0105151D01*
X0042438Y0104668D01*
X0044373Y0104668D02*
X0044857Y0105151D01*
X0044857Y0106119D01*
X0044373Y0106603D01*
D15*
X0149324Y0127806D03*
X0148536Y0154262D03*
X0148536Y0178357D03*
X0148536Y0202451D03*
D16*
X0165786Y0199951D03*
X0165786Y0175857D03*
X0165786Y0151762D03*
X0166574Y0125306D03*
X0132074Y0125306D03*
X0131286Y0151762D03*
X0131286Y0175857D03*
X0131286Y0199951D03*
D17*
X0143536Y0199951D03*
X0153536Y0199951D03*
X0153536Y0175857D03*
X0143536Y0175857D03*
X0143536Y0151762D03*
X0153536Y0151762D03*
X0154324Y0125306D03*
X0144324Y0125306D03*
D18*
X0146651Y0087967D03*
D19*
X0149151Y0105217D03*
X0149151Y0070717D03*
D20*
X0149151Y0082967D03*
X0149151Y0092967D03*
D21*
X0042237Y0147967D02*
X0042237Y0169620D01*
X0042235Y0169682D01*
X0042229Y0169743D01*
X0042220Y0169804D01*
X0042206Y0169865D01*
X0042189Y0169924D01*
X0042168Y0169982D01*
X0042143Y0170039D01*
X0042115Y0170094D01*
X0042084Y0170147D01*
X0042049Y0170198D01*
X0042011Y0170247D01*
X0041970Y0170294D01*
X0041927Y0170337D01*
X0041880Y0170378D01*
X0041831Y0170416D01*
X0041780Y0170451D01*
X0041727Y0170482D01*
X0041672Y0170510D01*
X0041615Y0170535D01*
X0041557Y0170556D01*
X0041498Y0170573D01*
X0041437Y0170587D01*
X0041376Y0170596D01*
X0041315Y0170602D01*
X0041253Y0170604D01*
X0041253Y0170605D02*
X0039678Y0170605D01*
X0038300Y0164699D02*
X0032395Y0164699D01*
X0032395Y0152888D01*
X0038300Y0152888D01*
X0038300Y0164699D01*
X0031017Y0170605D02*
X0029442Y0170605D01*
X0029442Y0170604D02*
X0029380Y0170602D01*
X0029319Y0170596D01*
X0029258Y0170587D01*
X0029197Y0170573D01*
X0029138Y0170556D01*
X0029080Y0170535D01*
X0029023Y0170510D01*
X0028968Y0170482D01*
X0028915Y0170451D01*
X0028864Y0170416D01*
X0028815Y0170378D01*
X0028768Y0170337D01*
X0028725Y0170294D01*
X0028684Y0170247D01*
X0028646Y0170198D01*
X0028611Y0170147D01*
X0028580Y0170094D01*
X0028552Y0170039D01*
X0028527Y0169982D01*
X0028506Y0169924D01*
X0028489Y0169865D01*
X0028475Y0169804D01*
X0028466Y0169743D01*
X0028460Y0169682D01*
X0028458Y0169620D01*
X0028458Y0147967D01*
X0028460Y0147905D01*
X0028466Y0147844D01*
X0028475Y0147783D01*
X0028489Y0147722D01*
X0028506Y0147663D01*
X0028527Y0147605D01*
X0028552Y0147548D01*
X0028580Y0147493D01*
X0028611Y0147440D01*
X0028646Y0147389D01*
X0028684Y0147340D01*
X0028725Y0147293D01*
X0028768Y0147250D01*
X0028815Y0147209D01*
X0028864Y0147171D01*
X0028915Y0147136D01*
X0028968Y0147105D01*
X0029023Y0147077D01*
X0029080Y0147052D01*
X0029138Y0147031D01*
X0029197Y0147014D01*
X0029258Y0147000D01*
X0029319Y0146991D01*
X0029380Y0146985D01*
X0029442Y0146983D01*
X0031017Y0146983D01*
X0039678Y0146983D02*
X0041253Y0146983D01*
X0041315Y0146985D01*
X0041376Y0146991D01*
X0041437Y0147000D01*
X0041498Y0147014D01*
X0041557Y0147031D01*
X0041615Y0147052D01*
X0041672Y0147077D01*
X0041727Y0147105D01*
X0041780Y0147136D01*
X0041831Y0147171D01*
X0041880Y0147209D01*
X0041927Y0147250D01*
X0041970Y0147293D01*
X0042011Y0147340D01*
X0042049Y0147389D01*
X0042084Y0147440D01*
X0042115Y0147493D01*
X0042143Y0147548D01*
X0042168Y0147605D01*
X0042189Y0147663D01*
X0042206Y0147722D01*
X0042220Y0147783D01*
X0042229Y0147844D01*
X0042235Y0147905D01*
X0042237Y0147967D01*
X0041253Y0185014D02*
X0039678Y0185014D01*
X0041253Y0185014D02*
X0041315Y0185016D01*
X0041376Y0185022D01*
X0041437Y0185031D01*
X0041498Y0185045D01*
X0041557Y0185062D01*
X0041615Y0185083D01*
X0041672Y0185108D01*
X0041727Y0185136D01*
X0041780Y0185167D01*
X0041831Y0185202D01*
X0041880Y0185240D01*
X0041927Y0185281D01*
X0041970Y0185324D01*
X0042011Y0185371D01*
X0042049Y0185420D01*
X0042084Y0185471D01*
X0042115Y0185524D01*
X0042143Y0185579D01*
X0042168Y0185636D01*
X0042189Y0185694D01*
X0042206Y0185753D01*
X0042220Y0185814D01*
X0042229Y0185875D01*
X0042235Y0185936D01*
X0042237Y0185998D01*
X0042237Y0207652D01*
X0042235Y0207714D01*
X0042229Y0207775D01*
X0042220Y0207836D01*
X0042206Y0207897D01*
X0042189Y0207956D01*
X0042168Y0208014D01*
X0042143Y0208071D01*
X0042115Y0208126D01*
X0042084Y0208179D01*
X0042049Y0208230D01*
X0042011Y0208279D01*
X0041970Y0208326D01*
X0041927Y0208369D01*
X0041880Y0208410D01*
X0041831Y0208448D01*
X0041780Y0208483D01*
X0041727Y0208514D01*
X0041672Y0208542D01*
X0041615Y0208567D01*
X0041557Y0208588D01*
X0041498Y0208605D01*
X0041437Y0208619D01*
X0041376Y0208628D01*
X0041315Y0208634D01*
X0041253Y0208636D01*
X0039678Y0208636D01*
X0038300Y0202731D02*
X0032395Y0202731D01*
X0032395Y0190920D01*
X0038300Y0190920D01*
X0038300Y0202731D01*
X0031017Y0208636D02*
X0029442Y0208636D01*
X0029380Y0208634D01*
X0029319Y0208628D01*
X0029258Y0208619D01*
X0029197Y0208605D01*
X0029138Y0208588D01*
X0029080Y0208567D01*
X0029023Y0208542D01*
X0028968Y0208514D01*
X0028915Y0208483D01*
X0028864Y0208448D01*
X0028815Y0208410D01*
X0028768Y0208369D01*
X0028725Y0208326D01*
X0028684Y0208279D01*
X0028646Y0208230D01*
X0028611Y0208179D01*
X0028580Y0208126D01*
X0028552Y0208071D01*
X0028527Y0208014D01*
X0028506Y0207956D01*
X0028489Y0207897D01*
X0028475Y0207836D01*
X0028466Y0207775D01*
X0028460Y0207714D01*
X0028458Y0207652D01*
X0028458Y0185998D01*
X0028460Y0185936D01*
X0028466Y0185875D01*
X0028475Y0185814D01*
X0028489Y0185753D01*
X0028506Y0185694D01*
X0028527Y0185636D01*
X0028552Y0185579D01*
X0028580Y0185524D01*
X0028611Y0185471D01*
X0028646Y0185420D01*
X0028684Y0185371D01*
X0028725Y0185324D01*
X0028768Y0185281D01*
X0028815Y0185240D01*
X0028864Y0185202D01*
X0028915Y0185167D01*
X0028968Y0185136D01*
X0029023Y0185108D01*
X0029080Y0185083D01*
X0029138Y0185062D01*
X0029197Y0185045D01*
X0029258Y0185031D01*
X0029319Y0185022D01*
X0029380Y0185016D01*
X0029442Y0185014D01*
X0031017Y0185014D01*
D22*
X0031121Y0179811D02*
X0030187Y0178876D01*
X0030187Y0179344D02*
X0030187Y0177942D01*
X0031121Y0177942D02*
X0028319Y0177942D01*
X0028319Y0179344D01*
X0028786Y0179811D01*
X0029720Y0179811D01*
X0030187Y0179344D01*
X0031121Y0177048D02*
X0031121Y0175180D01*
X0028319Y0175180D01*
X0028786Y0174286D02*
X0028319Y0173819D01*
X0028319Y0172885D01*
X0028786Y0172418D01*
X0030654Y0172418D01*
X0031121Y0172885D01*
X0031121Y0173819D01*
X0030654Y0174286D01*
X0029940Y0210449D02*
X0027138Y0210449D01*
X0027138Y0211850D01*
X0027605Y0212317D01*
X0028539Y0212317D01*
X0029006Y0211850D01*
X0029006Y0210449D01*
X0029006Y0211383D02*
X0029940Y0212317D01*
X0029473Y0213211D02*
X0029940Y0213679D01*
X0029940Y0214613D01*
X0029473Y0215080D01*
X0029006Y0215080D01*
X0028539Y0214613D01*
X0028539Y0213679D01*
X0028072Y0213211D01*
X0027605Y0213211D01*
X0027138Y0213679D01*
X0027138Y0214613D01*
X0027605Y0215080D01*
X0027138Y0215974D02*
X0027138Y0217842D01*
X0027138Y0216908D02*
X0029940Y0216908D01*
D23*
X0048571Y0060692D03*
X0042904Y0051692D03*
X0042793Y0051582D03*
X0029238Y0055692D03*
D24*
X0048460Y0060187D03*
D25*
X0048349Y0059687D03*
X0031682Y0051687D03*
X0031460Y0052137D03*
X0031238Y0052577D03*
X0032682Y0049577D03*
X0032904Y0049027D03*
X0033349Y0048137D03*
X0033571Y0047577D03*
D26*
X0048238Y0059467D03*
D27*
X0048127Y0058967D03*
D28*
X0048015Y0058467D03*
D29*
X0047904Y0057967D03*
D30*
X0047793Y0057522D03*
D31*
X0047682Y0057242D03*
X0046349Y0050022D03*
D32*
X0047571Y0056742D03*
D33*
X0047460Y0056297D03*
X0046571Y0051077D03*
D34*
X0047349Y0055742D03*
D35*
X0047238Y0055527D03*
D36*
X0047127Y0055027D03*
D37*
X0047015Y0054527D03*
D38*
X0046904Y0052692D03*
D39*
X0043682Y0046577D03*
X0043571Y0046577D03*
X0043460Y0046577D03*
X0043349Y0046577D03*
X0043238Y0046577D03*
X0039015Y0047137D03*
X0038904Y0047137D03*
X0038793Y0047137D03*
X0038682Y0047137D03*
X0038571Y0047137D03*
X0038015Y0047247D03*
X0037904Y0047247D03*
X0037793Y0047247D03*
X0037682Y0047247D03*
X0037571Y0047247D03*
X0035904Y0047467D03*
X0035015Y0047577D03*
X0037571Y0062247D03*
X0037682Y0062247D03*
X0037793Y0062247D03*
X0037904Y0062247D03*
X0038015Y0062247D03*
X0038571Y0062137D03*
X0038682Y0062137D03*
X0038793Y0062137D03*
X0038904Y0062137D03*
X0039015Y0062137D03*
X0043015Y0061577D03*
X0043238Y0061577D03*
X0043349Y0061577D03*
X0043460Y0061577D03*
X0043571Y0061577D03*
X0043904Y0061467D03*
X0044015Y0061467D03*
X0045460Y0061247D03*
X0045571Y0061247D03*
X0045682Y0061247D03*
X0045793Y0061247D03*
X0045904Y0061247D03*
X0046015Y0061247D03*
X0046460Y0061137D03*
X0046571Y0061137D03*
X0046682Y0061137D03*
X0046793Y0061137D03*
X0046904Y0061137D03*
D40*
X0046793Y0052022D03*
D41*
X0046682Y0051632D03*
D42*
X0046460Y0050577D03*
D43*
X0044015Y0046522D03*
X0043904Y0046522D03*
X0043793Y0046522D03*
X0043015Y0046632D03*
X0042904Y0046632D03*
X0042793Y0046632D03*
X0042682Y0046632D03*
X0039349Y0047082D03*
X0039238Y0047082D03*
X0038460Y0047192D03*
X0038349Y0047192D03*
X0038238Y0047192D03*
X0035793Y0047522D03*
X0035682Y0047522D03*
X0035571Y0047522D03*
X0035460Y0047522D03*
X0035349Y0047522D03*
X0035238Y0047522D03*
X0034904Y0047632D03*
X0038238Y0062192D03*
X0038349Y0062192D03*
X0038460Y0062192D03*
X0039238Y0062082D03*
X0039349Y0062082D03*
X0039460Y0062082D03*
X0037015Y0064082D03*
X0042682Y0061632D03*
X0042793Y0061632D03*
X0042904Y0061632D03*
X0043682Y0061522D03*
X0043793Y0061522D03*
X0046238Y0061192D03*
X0046349Y0061192D03*
D44*
X0046238Y0049747D03*
D45*
X0046127Y0049192D03*
D46*
X0039127Y0047082D03*
X0038127Y0047192D03*
X0035127Y0047522D03*
X0046127Y0061192D03*
D47*
X0046015Y0048692D03*
D48*
X0045904Y0048192D03*
D49*
X0045793Y0047692D03*
D50*
X0045682Y0047412D03*
X0043904Y0054742D03*
X0032460Y0049972D03*
X0031904Y0051192D03*
X0031571Y0051972D03*
X0030904Y0053302D03*
X0030015Y0055302D03*
D51*
X0029682Y0055472D03*
X0045571Y0046912D03*
D52*
X0045460Y0046357D03*
X0043238Y0052357D03*
X0036904Y0057247D03*
X0037015Y0057467D03*
D53*
X0037349Y0062302D03*
X0037460Y0062302D03*
X0044238Y0061412D03*
X0044349Y0061412D03*
X0045238Y0061302D03*
X0045349Y0061302D03*
X0036349Y0047412D03*
X0036238Y0047412D03*
X0036015Y0047412D03*
X0037238Y0047302D03*
X0037349Y0047302D03*
X0037460Y0047302D03*
X0044238Y0046412D03*
X0044349Y0046412D03*
X0044460Y0046412D03*
X0044571Y0046412D03*
X0045238Y0046302D03*
X0045349Y0046302D03*
D54*
X0045127Y0046357D03*
X0037127Y0062357D03*
D55*
X0044127Y0061412D03*
X0045127Y0061302D03*
X0036127Y0047412D03*
X0037127Y0047302D03*
D56*
X0037015Y0047357D03*
X0036904Y0047357D03*
X0036793Y0047357D03*
X0036682Y0047357D03*
X0036571Y0047357D03*
X0036460Y0047357D03*
X0044682Y0046357D03*
X0044793Y0046357D03*
X0044904Y0046357D03*
X0045015Y0046357D03*
X0045015Y0061357D03*
X0044904Y0061357D03*
X0044793Y0061357D03*
X0044682Y0061357D03*
X0044571Y0061357D03*
X0044460Y0061357D03*
X0037238Y0062357D03*
X0037015Y0062357D03*
D57*
X0044238Y0054742D03*
D58*
X0043127Y0052137D03*
X0043127Y0046577D03*
X0044127Y0046467D03*
X0043127Y0061577D03*
X0039127Y0062137D03*
X0038127Y0062247D03*
X0037127Y0064137D03*
D59*
X0034127Y0061077D03*
X0032127Y0058637D03*
X0044127Y0054747D03*
D60*
X0044015Y0054747D03*
X0034793Y0046747D03*
X0034682Y0046747D03*
D61*
X0043793Y0054747D03*
D62*
X0043682Y0054692D03*
D63*
X0043571Y0054637D03*
X0030460Y0055077D03*
D64*
X0034793Y0061912D03*
X0034904Y0062022D03*
X0043460Y0053022D03*
D65*
X0043460Y0056412D03*
X0029460Y0055522D03*
D66*
X0036238Y0052467D03*
X0036571Y0052247D03*
X0043349Y0052577D03*
D67*
X0043349Y0056742D03*
D68*
X0043238Y0057022D03*
X0042571Y0061692D03*
X0042460Y0061692D03*
X0042349Y0061692D03*
X0042238Y0061692D03*
X0042015Y0061692D03*
X0041571Y0061802D03*
X0041460Y0061802D03*
X0041349Y0061802D03*
X0041238Y0061802D03*
X0041015Y0061802D03*
X0040682Y0061912D03*
X0040571Y0061912D03*
X0040460Y0061912D03*
X0040349Y0061912D03*
X0040238Y0061912D03*
X0039904Y0062022D03*
X0039793Y0062022D03*
X0039682Y0062022D03*
X0039571Y0062022D03*
X0036682Y0052022D03*
X0039460Y0047022D03*
X0039571Y0047022D03*
X0040571Y0046912D03*
X0041238Y0046802D03*
X0041349Y0046802D03*
X0041460Y0046802D03*
X0041571Y0046802D03*
X0042238Y0046692D03*
X0042349Y0046692D03*
X0042460Y0046692D03*
X0042571Y0046692D03*
X0034904Y0045912D03*
D69*
X0043127Y0057192D03*
D70*
X0043015Y0051857D03*
D71*
X0043015Y0057357D03*
D72*
X0042904Y0057527D03*
X0042793Y0057637D03*
X0037460Y0058077D03*
X0036682Y0057077D03*
X0037238Y0064187D03*
D73*
X0042682Y0057802D03*
X0042682Y0051472D03*
X0042460Y0051242D03*
X0036015Y0052912D03*
D74*
X0042571Y0051357D03*
D75*
X0042349Y0051077D03*
X0042238Y0051077D03*
X0042015Y0050857D03*
X0042571Y0057857D03*
X0042349Y0058077D03*
X0037349Y0064187D03*
D76*
X0041460Y0058472D03*
X0042015Y0058242D03*
X0042460Y0058022D03*
X0036571Y0057022D03*
X0041682Y0050692D03*
X0041793Y0050692D03*
X0041904Y0050802D03*
D77*
X0041460Y0050582D03*
X0042238Y0058132D03*
X0041015Y0058582D03*
X0037571Y0058132D03*
D78*
X0040127Y0061912D03*
X0041127Y0061802D03*
X0042127Y0061692D03*
X0036127Y0052692D03*
X0041127Y0046802D03*
X0042127Y0046692D03*
D79*
X0042127Y0050967D03*
X0035127Y0045747D03*
X0029127Y0055747D03*
D80*
X0042127Y0058242D03*
D81*
X0041904Y0061747D03*
X0041793Y0061747D03*
X0041682Y0061747D03*
X0040460Y0046967D03*
X0040349Y0046967D03*
X0040238Y0046967D03*
X0040015Y0046967D03*
X0039904Y0046967D03*
X0039793Y0046967D03*
X0039682Y0046967D03*
X0041682Y0046747D03*
X0041793Y0046747D03*
X0041904Y0046747D03*
X0042015Y0046747D03*
D82*
X0040793Y0050412D03*
X0040682Y0050412D03*
X0040460Y0050412D03*
X0040349Y0050412D03*
X0040238Y0050412D03*
X0040015Y0050412D03*
X0039904Y0050412D03*
X0039793Y0050412D03*
X0041904Y0058302D03*
X0041682Y0058412D03*
X0041571Y0058412D03*
D83*
X0041793Y0058357D03*
D84*
X0041349Y0058527D03*
X0041238Y0058527D03*
X0040904Y0058637D03*
X0041571Y0050637D03*
X0041349Y0050527D03*
X0041238Y0050527D03*
X0036904Y0051637D03*
X0035238Y0045637D03*
D85*
X0041127Y0050527D03*
X0041127Y0058527D03*
D86*
X0040904Y0061857D03*
X0040793Y0061857D03*
X0040793Y0046857D03*
X0040682Y0046857D03*
X0040904Y0046857D03*
X0041015Y0046857D03*
D87*
X0041015Y0050467D03*
X0040904Y0050467D03*
D88*
X0040793Y0058467D03*
X0037571Y0064137D03*
D89*
X0040571Y0050357D03*
D90*
X0040127Y0046967D03*
D91*
X0040127Y0050412D03*
D92*
X0037349Y0057967D03*
X0040015Y0061967D03*
D93*
X0037793Y0058302D03*
X0037015Y0051412D03*
D94*
X0037682Y0058302D03*
D95*
X0035904Y0053022D03*
X0037460Y0064132D03*
D96*
X0037238Y0057912D03*
D97*
X0037127Y0057687D03*
D98*
X0036904Y0063302D03*
X0036349Y0063302D03*
D99*
X0036793Y0051857D03*
D100*
X0036793Y0057192D03*
D101*
X0036793Y0063357D03*
D102*
X0036682Y0063412D03*
X0036571Y0063412D03*
X0036460Y0063412D03*
X0029904Y0055302D03*
X0032793Y0049302D03*
X0033682Y0047412D03*
D103*
X0036349Y0052302D03*
X0036460Y0052302D03*
D104*
X0036460Y0056912D03*
D105*
X0036349Y0056857D03*
D106*
X0036238Y0063302D03*
X0029793Y0055412D03*
D107*
X0036127Y0063242D03*
D108*
X0036015Y0063187D03*
D109*
X0035904Y0063132D03*
D110*
X0035793Y0053247D03*
X0035460Y0045467D03*
D111*
X0032571Y0059132D03*
X0035793Y0063022D03*
D112*
X0035682Y0062967D03*
X0035460Y0062747D03*
X0035349Y0062637D03*
X0034682Y0061747D03*
X0034571Y0061637D03*
X0034015Y0060967D03*
X0033904Y0060747D03*
X0033793Y0060637D03*
X0033349Y0060077D03*
X0033238Y0059967D03*
X0033015Y0059747D03*
X0032904Y0059637D03*
X0032460Y0058967D03*
X0032238Y0058747D03*
X0031682Y0058077D03*
X0031460Y0057747D03*
X0031349Y0057637D03*
X0030904Y0057077D03*
X0030793Y0056967D03*
D113*
X0031571Y0057857D03*
X0032349Y0058857D03*
X0035571Y0062857D03*
D114*
X0035349Y0045522D03*
D115*
X0031015Y0057192D03*
X0031238Y0057522D03*
X0031793Y0058192D03*
X0031904Y0058302D03*
X0032682Y0059302D03*
X0032793Y0059412D03*
X0033460Y0060302D03*
X0033571Y0060412D03*
X0033682Y0060522D03*
X0034238Y0061192D03*
X0034349Y0061302D03*
X0034460Y0061412D03*
X0035015Y0062192D03*
X0035238Y0062412D03*
D116*
X0035127Y0062302D03*
D117*
X0035015Y0045802D03*
D118*
X0034571Y0046692D03*
X0034460Y0046692D03*
X0034349Y0046692D03*
D119*
X0034238Y0046632D03*
X0034015Y0046632D03*
X0033793Y0047192D03*
D120*
X0034127Y0046632D03*
D121*
X0033904Y0046912D03*
X0033015Y0048802D03*
X0032571Y0049802D03*
X0032015Y0050912D03*
D122*
X0033460Y0047857D03*
D123*
X0033238Y0048357D03*
X0032349Y0050247D03*
X0032238Y0050467D03*
X0031793Y0051467D03*
X0031349Y0052357D03*
D124*
X0033127Y0048577D03*
D125*
X0033127Y0059857D03*
D126*
X0032127Y0050747D03*
D127*
X0032015Y0058467D03*
D128*
X0031127Y0052912D03*
D129*
X0031127Y0057357D03*
D130*
X0030793Y0053632D03*
X0031015Y0053082D03*
D131*
X0030682Y0054972D03*
D132*
X0030571Y0055027D03*
D133*
X0030349Y0055132D03*
D134*
X0030238Y0055247D03*
D135*
X0030127Y0055247D03*
D136*
X0029571Y0055467D03*
D137*
X0029349Y0055577D03*
M02*
