G75*
%MOIN*%
%OFA0B0*%
%FSLAX25Y25*%
%IPPOS*%
%LPD*%
%AMOC8*
5,1,8,0,0,1.08239X$1,22.5*
%
%ADD10C,0.00000*%
%ADD11R,0.05906X0.05118*%
%ADD12C,0.04500*%
%ADD13C,0.06000*%
%ADD14C,0.07050*%
%ADD15OC8,0.06300*%
%ADD16C,0.06300*%
%ADD17OC8,0.03762*%
%ADD18C,0.02400*%
%ADD19C,0.03762*%
%ADD20C,0.01000*%
D10*
X0001500Y0001500D02*
X0001500Y0200201D01*
X0196421Y0200201D01*
X0196421Y0001500D01*
X0001500Y0001500D01*
X0005201Y0011500D02*
X0005203Y0011658D01*
X0005209Y0011816D01*
X0005219Y0011974D01*
X0005233Y0012132D01*
X0005251Y0012289D01*
X0005272Y0012446D01*
X0005298Y0012602D01*
X0005328Y0012758D01*
X0005361Y0012913D01*
X0005399Y0013066D01*
X0005440Y0013219D01*
X0005485Y0013371D01*
X0005534Y0013522D01*
X0005587Y0013671D01*
X0005643Y0013819D01*
X0005703Y0013965D01*
X0005767Y0014110D01*
X0005835Y0014253D01*
X0005906Y0014395D01*
X0005980Y0014535D01*
X0006058Y0014672D01*
X0006140Y0014808D01*
X0006224Y0014942D01*
X0006313Y0015073D01*
X0006404Y0015202D01*
X0006499Y0015329D01*
X0006596Y0015454D01*
X0006697Y0015576D01*
X0006801Y0015695D01*
X0006908Y0015812D01*
X0007018Y0015926D01*
X0007131Y0016037D01*
X0007246Y0016146D01*
X0007364Y0016251D01*
X0007485Y0016353D01*
X0007608Y0016453D01*
X0007734Y0016549D01*
X0007862Y0016642D01*
X0007992Y0016732D01*
X0008125Y0016818D01*
X0008260Y0016902D01*
X0008396Y0016981D01*
X0008535Y0017058D01*
X0008676Y0017130D01*
X0008818Y0017200D01*
X0008962Y0017265D01*
X0009108Y0017327D01*
X0009255Y0017385D01*
X0009404Y0017440D01*
X0009554Y0017491D01*
X0009705Y0017538D01*
X0009857Y0017581D01*
X0010010Y0017620D01*
X0010165Y0017656D01*
X0010320Y0017687D01*
X0010476Y0017715D01*
X0010632Y0017739D01*
X0010789Y0017759D01*
X0010947Y0017775D01*
X0011104Y0017787D01*
X0011263Y0017795D01*
X0011421Y0017799D01*
X0011579Y0017799D01*
X0011737Y0017795D01*
X0011896Y0017787D01*
X0012053Y0017775D01*
X0012211Y0017759D01*
X0012368Y0017739D01*
X0012524Y0017715D01*
X0012680Y0017687D01*
X0012835Y0017656D01*
X0012990Y0017620D01*
X0013143Y0017581D01*
X0013295Y0017538D01*
X0013446Y0017491D01*
X0013596Y0017440D01*
X0013745Y0017385D01*
X0013892Y0017327D01*
X0014038Y0017265D01*
X0014182Y0017200D01*
X0014324Y0017130D01*
X0014465Y0017058D01*
X0014604Y0016981D01*
X0014740Y0016902D01*
X0014875Y0016818D01*
X0015008Y0016732D01*
X0015138Y0016642D01*
X0015266Y0016549D01*
X0015392Y0016453D01*
X0015515Y0016353D01*
X0015636Y0016251D01*
X0015754Y0016146D01*
X0015869Y0016037D01*
X0015982Y0015926D01*
X0016092Y0015812D01*
X0016199Y0015695D01*
X0016303Y0015576D01*
X0016404Y0015454D01*
X0016501Y0015329D01*
X0016596Y0015202D01*
X0016687Y0015073D01*
X0016776Y0014942D01*
X0016860Y0014808D01*
X0016942Y0014672D01*
X0017020Y0014535D01*
X0017094Y0014395D01*
X0017165Y0014253D01*
X0017233Y0014110D01*
X0017297Y0013965D01*
X0017357Y0013819D01*
X0017413Y0013671D01*
X0017466Y0013522D01*
X0017515Y0013371D01*
X0017560Y0013219D01*
X0017601Y0013066D01*
X0017639Y0012913D01*
X0017672Y0012758D01*
X0017702Y0012602D01*
X0017728Y0012446D01*
X0017749Y0012289D01*
X0017767Y0012132D01*
X0017781Y0011974D01*
X0017791Y0011816D01*
X0017797Y0011658D01*
X0017799Y0011500D01*
X0017797Y0011342D01*
X0017791Y0011184D01*
X0017781Y0011026D01*
X0017767Y0010868D01*
X0017749Y0010711D01*
X0017728Y0010554D01*
X0017702Y0010398D01*
X0017672Y0010242D01*
X0017639Y0010087D01*
X0017601Y0009934D01*
X0017560Y0009781D01*
X0017515Y0009629D01*
X0017466Y0009478D01*
X0017413Y0009329D01*
X0017357Y0009181D01*
X0017297Y0009035D01*
X0017233Y0008890D01*
X0017165Y0008747D01*
X0017094Y0008605D01*
X0017020Y0008465D01*
X0016942Y0008328D01*
X0016860Y0008192D01*
X0016776Y0008058D01*
X0016687Y0007927D01*
X0016596Y0007798D01*
X0016501Y0007671D01*
X0016404Y0007546D01*
X0016303Y0007424D01*
X0016199Y0007305D01*
X0016092Y0007188D01*
X0015982Y0007074D01*
X0015869Y0006963D01*
X0015754Y0006854D01*
X0015636Y0006749D01*
X0015515Y0006647D01*
X0015392Y0006547D01*
X0015266Y0006451D01*
X0015138Y0006358D01*
X0015008Y0006268D01*
X0014875Y0006182D01*
X0014740Y0006098D01*
X0014604Y0006019D01*
X0014465Y0005942D01*
X0014324Y0005870D01*
X0014182Y0005800D01*
X0014038Y0005735D01*
X0013892Y0005673D01*
X0013745Y0005615D01*
X0013596Y0005560D01*
X0013446Y0005509D01*
X0013295Y0005462D01*
X0013143Y0005419D01*
X0012990Y0005380D01*
X0012835Y0005344D01*
X0012680Y0005313D01*
X0012524Y0005285D01*
X0012368Y0005261D01*
X0012211Y0005241D01*
X0012053Y0005225D01*
X0011896Y0005213D01*
X0011737Y0005205D01*
X0011579Y0005201D01*
X0011421Y0005201D01*
X0011263Y0005205D01*
X0011104Y0005213D01*
X0010947Y0005225D01*
X0010789Y0005241D01*
X0010632Y0005261D01*
X0010476Y0005285D01*
X0010320Y0005313D01*
X0010165Y0005344D01*
X0010010Y0005380D01*
X0009857Y0005419D01*
X0009705Y0005462D01*
X0009554Y0005509D01*
X0009404Y0005560D01*
X0009255Y0005615D01*
X0009108Y0005673D01*
X0008962Y0005735D01*
X0008818Y0005800D01*
X0008676Y0005870D01*
X0008535Y0005942D01*
X0008396Y0006019D01*
X0008260Y0006098D01*
X0008125Y0006182D01*
X0007992Y0006268D01*
X0007862Y0006358D01*
X0007734Y0006451D01*
X0007608Y0006547D01*
X0007485Y0006647D01*
X0007364Y0006749D01*
X0007246Y0006854D01*
X0007131Y0006963D01*
X0007018Y0007074D01*
X0006908Y0007188D01*
X0006801Y0007305D01*
X0006697Y0007424D01*
X0006596Y0007546D01*
X0006499Y0007671D01*
X0006404Y0007798D01*
X0006313Y0007927D01*
X0006224Y0008058D01*
X0006140Y0008192D01*
X0006058Y0008328D01*
X0005980Y0008465D01*
X0005906Y0008605D01*
X0005835Y0008747D01*
X0005767Y0008890D01*
X0005703Y0009035D01*
X0005643Y0009181D01*
X0005587Y0009329D01*
X0005534Y0009478D01*
X0005485Y0009629D01*
X0005440Y0009781D01*
X0005399Y0009934D01*
X0005361Y0010087D01*
X0005328Y0010242D01*
X0005298Y0010398D01*
X0005272Y0010554D01*
X0005251Y0010711D01*
X0005233Y0010868D01*
X0005219Y0011026D01*
X0005209Y0011184D01*
X0005203Y0011342D01*
X0005201Y0011500D01*
X0005201Y0191500D02*
X0005203Y0191658D01*
X0005209Y0191816D01*
X0005219Y0191974D01*
X0005233Y0192132D01*
X0005251Y0192289D01*
X0005272Y0192446D01*
X0005298Y0192602D01*
X0005328Y0192758D01*
X0005361Y0192913D01*
X0005399Y0193066D01*
X0005440Y0193219D01*
X0005485Y0193371D01*
X0005534Y0193522D01*
X0005587Y0193671D01*
X0005643Y0193819D01*
X0005703Y0193965D01*
X0005767Y0194110D01*
X0005835Y0194253D01*
X0005906Y0194395D01*
X0005980Y0194535D01*
X0006058Y0194672D01*
X0006140Y0194808D01*
X0006224Y0194942D01*
X0006313Y0195073D01*
X0006404Y0195202D01*
X0006499Y0195329D01*
X0006596Y0195454D01*
X0006697Y0195576D01*
X0006801Y0195695D01*
X0006908Y0195812D01*
X0007018Y0195926D01*
X0007131Y0196037D01*
X0007246Y0196146D01*
X0007364Y0196251D01*
X0007485Y0196353D01*
X0007608Y0196453D01*
X0007734Y0196549D01*
X0007862Y0196642D01*
X0007992Y0196732D01*
X0008125Y0196818D01*
X0008260Y0196902D01*
X0008396Y0196981D01*
X0008535Y0197058D01*
X0008676Y0197130D01*
X0008818Y0197200D01*
X0008962Y0197265D01*
X0009108Y0197327D01*
X0009255Y0197385D01*
X0009404Y0197440D01*
X0009554Y0197491D01*
X0009705Y0197538D01*
X0009857Y0197581D01*
X0010010Y0197620D01*
X0010165Y0197656D01*
X0010320Y0197687D01*
X0010476Y0197715D01*
X0010632Y0197739D01*
X0010789Y0197759D01*
X0010947Y0197775D01*
X0011104Y0197787D01*
X0011263Y0197795D01*
X0011421Y0197799D01*
X0011579Y0197799D01*
X0011737Y0197795D01*
X0011896Y0197787D01*
X0012053Y0197775D01*
X0012211Y0197759D01*
X0012368Y0197739D01*
X0012524Y0197715D01*
X0012680Y0197687D01*
X0012835Y0197656D01*
X0012990Y0197620D01*
X0013143Y0197581D01*
X0013295Y0197538D01*
X0013446Y0197491D01*
X0013596Y0197440D01*
X0013745Y0197385D01*
X0013892Y0197327D01*
X0014038Y0197265D01*
X0014182Y0197200D01*
X0014324Y0197130D01*
X0014465Y0197058D01*
X0014604Y0196981D01*
X0014740Y0196902D01*
X0014875Y0196818D01*
X0015008Y0196732D01*
X0015138Y0196642D01*
X0015266Y0196549D01*
X0015392Y0196453D01*
X0015515Y0196353D01*
X0015636Y0196251D01*
X0015754Y0196146D01*
X0015869Y0196037D01*
X0015982Y0195926D01*
X0016092Y0195812D01*
X0016199Y0195695D01*
X0016303Y0195576D01*
X0016404Y0195454D01*
X0016501Y0195329D01*
X0016596Y0195202D01*
X0016687Y0195073D01*
X0016776Y0194942D01*
X0016860Y0194808D01*
X0016942Y0194672D01*
X0017020Y0194535D01*
X0017094Y0194395D01*
X0017165Y0194253D01*
X0017233Y0194110D01*
X0017297Y0193965D01*
X0017357Y0193819D01*
X0017413Y0193671D01*
X0017466Y0193522D01*
X0017515Y0193371D01*
X0017560Y0193219D01*
X0017601Y0193066D01*
X0017639Y0192913D01*
X0017672Y0192758D01*
X0017702Y0192602D01*
X0017728Y0192446D01*
X0017749Y0192289D01*
X0017767Y0192132D01*
X0017781Y0191974D01*
X0017791Y0191816D01*
X0017797Y0191658D01*
X0017799Y0191500D01*
X0017797Y0191342D01*
X0017791Y0191184D01*
X0017781Y0191026D01*
X0017767Y0190868D01*
X0017749Y0190711D01*
X0017728Y0190554D01*
X0017702Y0190398D01*
X0017672Y0190242D01*
X0017639Y0190087D01*
X0017601Y0189934D01*
X0017560Y0189781D01*
X0017515Y0189629D01*
X0017466Y0189478D01*
X0017413Y0189329D01*
X0017357Y0189181D01*
X0017297Y0189035D01*
X0017233Y0188890D01*
X0017165Y0188747D01*
X0017094Y0188605D01*
X0017020Y0188465D01*
X0016942Y0188328D01*
X0016860Y0188192D01*
X0016776Y0188058D01*
X0016687Y0187927D01*
X0016596Y0187798D01*
X0016501Y0187671D01*
X0016404Y0187546D01*
X0016303Y0187424D01*
X0016199Y0187305D01*
X0016092Y0187188D01*
X0015982Y0187074D01*
X0015869Y0186963D01*
X0015754Y0186854D01*
X0015636Y0186749D01*
X0015515Y0186647D01*
X0015392Y0186547D01*
X0015266Y0186451D01*
X0015138Y0186358D01*
X0015008Y0186268D01*
X0014875Y0186182D01*
X0014740Y0186098D01*
X0014604Y0186019D01*
X0014465Y0185942D01*
X0014324Y0185870D01*
X0014182Y0185800D01*
X0014038Y0185735D01*
X0013892Y0185673D01*
X0013745Y0185615D01*
X0013596Y0185560D01*
X0013446Y0185509D01*
X0013295Y0185462D01*
X0013143Y0185419D01*
X0012990Y0185380D01*
X0012835Y0185344D01*
X0012680Y0185313D01*
X0012524Y0185285D01*
X0012368Y0185261D01*
X0012211Y0185241D01*
X0012053Y0185225D01*
X0011896Y0185213D01*
X0011737Y0185205D01*
X0011579Y0185201D01*
X0011421Y0185201D01*
X0011263Y0185205D01*
X0011104Y0185213D01*
X0010947Y0185225D01*
X0010789Y0185241D01*
X0010632Y0185261D01*
X0010476Y0185285D01*
X0010320Y0185313D01*
X0010165Y0185344D01*
X0010010Y0185380D01*
X0009857Y0185419D01*
X0009705Y0185462D01*
X0009554Y0185509D01*
X0009404Y0185560D01*
X0009255Y0185615D01*
X0009108Y0185673D01*
X0008962Y0185735D01*
X0008818Y0185800D01*
X0008676Y0185870D01*
X0008535Y0185942D01*
X0008396Y0186019D01*
X0008260Y0186098D01*
X0008125Y0186182D01*
X0007992Y0186268D01*
X0007862Y0186358D01*
X0007734Y0186451D01*
X0007608Y0186547D01*
X0007485Y0186647D01*
X0007364Y0186749D01*
X0007246Y0186854D01*
X0007131Y0186963D01*
X0007018Y0187074D01*
X0006908Y0187188D01*
X0006801Y0187305D01*
X0006697Y0187424D01*
X0006596Y0187546D01*
X0006499Y0187671D01*
X0006404Y0187798D01*
X0006313Y0187927D01*
X0006224Y0188058D01*
X0006140Y0188192D01*
X0006058Y0188328D01*
X0005980Y0188465D01*
X0005906Y0188605D01*
X0005835Y0188747D01*
X0005767Y0188890D01*
X0005703Y0189035D01*
X0005643Y0189181D01*
X0005587Y0189329D01*
X0005534Y0189478D01*
X0005485Y0189629D01*
X0005440Y0189781D01*
X0005399Y0189934D01*
X0005361Y0190087D01*
X0005328Y0190242D01*
X0005298Y0190398D01*
X0005272Y0190554D01*
X0005251Y0190711D01*
X0005233Y0190868D01*
X0005219Y0191026D01*
X0005209Y0191184D01*
X0005203Y0191342D01*
X0005201Y0191500D01*
X0180201Y0191500D02*
X0180203Y0191658D01*
X0180209Y0191816D01*
X0180219Y0191974D01*
X0180233Y0192132D01*
X0180251Y0192289D01*
X0180272Y0192446D01*
X0180298Y0192602D01*
X0180328Y0192758D01*
X0180361Y0192913D01*
X0180399Y0193066D01*
X0180440Y0193219D01*
X0180485Y0193371D01*
X0180534Y0193522D01*
X0180587Y0193671D01*
X0180643Y0193819D01*
X0180703Y0193965D01*
X0180767Y0194110D01*
X0180835Y0194253D01*
X0180906Y0194395D01*
X0180980Y0194535D01*
X0181058Y0194672D01*
X0181140Y0194808D01*
X0181224Y0194942D01*
X0181313Y0195073D01*
X0181404Y0195202D01*
X0181499Y0195329D01*
X0181596Y0195454D01*
X0181697Y0195576D01*
X0181801Y0195695D01*
X0181908Y0195812D01*
X0182018Y0195926D01*
X0182131Y0196037D01*
X0182246Y0196146D01*
X0182364Y0196251D01*
X0182485Y0196353D01*
X0182608Y0196453D01*
X0182734Y0196549D01*
X0182862Y0196642D01*
X0182992Y0196732D01*
X0183125Y0196818D01*
X0183260Y0196902D01*
X0183396Y0196981D01*
X0183535Y0197058D01*
X0183676Y0197130D01*
X0183818Y0197200D01*
X0183962Y0197265D01*
X0184108Y0197327D01*
X0184255Y0197385D01*
X0184404Y0197440D01*
X0184554Y0197491D01*
X0184705Y0197538D01*
X0184857Y0197581D01*
X0185010Y0197620D01*
X0185165Y0197656D01*
X0185320Y0197687D01*
X0185476Y0197715D01*
X0185632Y0197739D01*
X0185789Y0197759D01*
X0185947Y0197775D01*
X0186104Y0197787D01*
X0186263Y0197795D01*
X0186421Y0197799D01*
X0186579Y0197799D01*
X0186737Y0197795D01*
X0186896Y0197787D01*
X0187053Y0197775D01*
X0187211Y0197759D01*
X0187368Y0197739D01*
X0187524Y0197715D01*
X0187680Y0197687D01*
X0187835Y0197656D01*
X0187990Y0197620D01*
X0188143Y0197581D01*
X0188295Y0197538D01*
X0188446Y0197491D01*
X0188596Y0197440D01*
X0188745Y0197385D01*
X0188892Y0197327D01*
X0189038Y0197265D01*
X0189182Y0197200D01*
X0189324Y0197130D01*
X0189465Y0197058D01*
X0189604Y0196981D01*
X0189740Y0196902D01*
X0189875Y0196818D01*
X0190008Y0196732D01*
X0190138Y0196642D01*
X0190266Y0196549D01*
X0190392Y0196453D01*
X0190515Y0196353D01*
X0190636Y0196251D01*
X0190754Y0196146D01*
X0190869Y0196037D01*
X0190982Y0195926D01*
X0191092Y0195812D01*
X0191199Y0195695D01*
X0191303Y0195576D01*
X0191404Y0195454D01*
X0191501Y0195329D01*
X0191596Y0195202D01*
X0191687Y0195073D01*
X0191776Y0194942D01*
X0191860Y0194808D01*
X0191942Y0194672D01*
X0192020Y0194535D01*
X0192094Y0194395D01*
X0192165Y0194253D01*
X0192233Y0194110D01*
X0192297Y0193965D01*
X0192357Y0193819D01*
X0192413Y0193671D01*
X0192466Y0193522D01*
X0192515Y0193371D01*
X0192560Y0193219D01*
X0192601Y0193066D01*
X0192639Y0192913D01*
X0192672Y0192758D01*
X0192702Y0192602D01*
X0192728Y0192446D01*
X0192749Y0192289D01*
X0192767Y0192132D01*
X0192781Y0191974D01*
X0192791Y0191816D01*
X0192797Y0191658D01*
X0192799Y0191500D01*
X0192797Y0191342D01*
X0192791Y0191184D01*
X0192781Y0191026D01*
X0192767Y0190868D01*
X0192749Y0190711D01*
X0192728Y0190554D01*
X0192702Y0190398D01*
X0192672Y0190242D01*
X0192639Y0190087D01*
X0192601Y0189934D01*
X0192560Y0189781D01*
X0192515Y0189629D01*
X0192466Y0189478D01*
X0192413Y0189329D01*
X0192357Y0189181D01*
X0192297Y0189035D01*
X0192233Y0188890D01*
X0192165Y0188747D01*
X0192094Y0188605D01*
X0192020Y0188465D01*
X0191942Y0188328D01*
X0191860Y0188192D01*
X0191776Y0188058D01*
X0191687Y0187927D01*
X0191596Y0187798D01*
X0191501Y0187671D01*
X0191404Y0187546D01*
X0191303Y0187424D01*
X0191199Y0187305D01*
X0191092Y0187188D01*
X0190982Y0187074D01*
X0190869Y0186963D01*
X0190754Y0186854D01*
X0190636Y0186749D01*
X0190515Y0186647D01*
X0190392Y0186547D01*
X0190266Y0186451D01*
X0190138Y0186358D01*
X0190008Y0186268D01*
X0189875Y0186182D01*
X0189740Y0186098D01*
X0189604Y0186019D01*
X0189465Y0185942D01*
X0189324Y0185870D01*
X0189182Y0185800D01*
X0189038Y0185735D01*
X0188892Y0185673D01*
X0188745Y0185615D01*
X0188596Y0185560D01*
X0188446Y0185509D01*
X0188295Y0185462D01*
X0188143Y0185419D01*
X0187990Y0185380D01*
X0187835Y0185344D01*
X0187680Y0185313D01*
X0187524Y0185285D01*
X0187368Y0185261D01*
X0187211Y0185241D01*
X0187053Y0185225D01*
X0186896Y0185213D01*
X0186737Y0185205D01*
X0186579Y0185201D01*
X0186421Y0185201D01*
X0186263Y0185205D01*
X0186104Y0185213D01*
X0185947Y0185225D01*
X0185789Y0185241D01*
X0185632Y0185261D01*
X0185476Y0185285D01*
X0185320Y0185313D01*
X0185165Y0185344D01*
X0185010Y0185380D01*
X0184857Y0185419D01*
X0184705Y0185462D01*
X0184554Y0185509D01*
X0184404Y0185560D01*
X0184255Y0185615D01*
X0184108Y0185673D01*
X0183962Y0185735D01*
X0183818Y0185800D01*
X0183676Y0185870D01*
X0183535Y0185942D01*
X0183396Y0186019D01*
X0183260Y0186098D01*
X0183125Y0186182D01*
X0182992Y0186268D01*
X0182862Y0186358D01*
X0182734Y0186451D01*
X0182608Y0186547D01*
X0182485Y0186647D01*
X0182364Y0186749D01*
X0182246Y0186854D01*
X0182131Y0186963D01*
X0182018Y0187074D01*
X0181908Y0187188D01*
X0181801Y0187305D01*
X0181697Y0187424D01*
X0181596Y0187546D01*
X0181499Y0187671D01*
X0181404Y0187798D01*
X0181313Y0187927D01*
X0181224Y0188058D01*
X0181140Y0188192D01*
X0181058Y0188328D01*
X0180980Y0188465D01*
X0180906Y0188605D01*
X0180835Y0188747D01*
X0180767Y0188890D01*
X0180703Y0189035D01*
X0180643Y0189181D01*
X0180587Y0189329D01*
X0180534Y0189478D01*
X0180485Y0189629D01*
X0180440Y0189781D01*
X0180399Y0189934D01*
X0180361Y0190087D01*
X0180328Y0190242D01*
X0180298Y0190398D01*
X0180272Y0190554D01*
X0180251Y0190711D01*
X0180233Y0190868D01*
X0180219Y0191026D01*
X0180209Y0191184D01*
X0180203Y0191342D01*
X0180201Y0191500D01*
X0180201Y0011500D02*
X0180203Y0011658D01*
X0180209Y0011816D01*
X0180219Y0011974D01*
X0180233Y0012132D01*
X0180251Y0012289D01*
X0180272Y0012446D01*
X0180298Y0012602D01*
X0180328Y0012758D01*
X0180361Y0012913D01*
X0180399Y0013066D01*
X0180440Y0013219D01*
X0180485Y0013371D01*
X0180534Y0013522D01*
X0180587Y0013671D01*
X0180643Y0013819D01*
X0180703Y0013965D01*
X0180767Y0014110D01*
X0180835Y0014253D01*
X0180906Y0014395D01*
X0180980Y0014535D01*
X0181058Y0014672D01*
X0181140Y0014808D01*
X0181224Y0014942D01*
X0181313Y0015073D01*
X0181404Y0015202D01*
X0181499Y0015329D01*
X0181596Y0015454D01*
X0181697Y0015576D01*
X0181801Y0015695D01*
X0181908Y0015812D01*
X0182018Y0015926D01*
X0182131Y0016037D01*
X0182246Y0016146D01*
X0182364Y0016251D01*
X0182485Y0016353D01*
X0182608Y0016453D01*
X0182734Y0016549D01*
X0182862Y0016642D01*
X0182992Y0016732D01*
X0183125Y0016818D01*
X0183260Y0016902D01*
X0183396Y0016981D01*
X0183535Y0017058D01*
X0183676Y0017130D01*
X0183818Y0017200D01*
X0183962Y0017265D01*
X0184108Y0017327D01*
X0184255Y0017385D01*
X0184404Y0017440D01*
X0184554Y0017491D01*
X0184705Y0017538D01*
X0184857Y0017581D01*
X0185010Y0017620D01*
X0185165Y0017656D01*
X0185320Y0017687D01*
X0185476Y0017715D01*
X0185632Y0017739D01*
X0185789Y0017759D01*
X0185947Y0017775D01*
X0186104Y0017787D01*
X0186263Y0017795D01*
X0186421Y0017799D01*
X0186579Y0017799D01*
X0186737Y0017795D01*
X0186896Y0017787D01*
X0187053Y0017775D01*
X0187211Y0017759D01*
X0187368Y0017739D01*
X0187524Y0017715D01*
X0187680Y0017687D01*
X0187835Y0017656D01*
X0187990Y0017620D01*
X0188143Y0017581D01*
X0188295Y0017538D01*
X0188446Y0017491D01*
X0188596Y0017440D01*
X0188745Y0017385D01*
X0188892Y0017327D01*
X0189038Y0017265D01*
X0189182Y0017200D01*
X0189324Y0017130D01*
X0189465Y0017058D01*
X0189604Y0016981D01*
X0189740Y0016902D01*
X0189875Y0016818D01*
X0190008Y0016732D01*
X0190138Y0016642D01*
X0190266Y0016549D01*
X0190392Y0016453D01*
X0190515Y0016353D01*
X0190636Y0016251D01*
X0190754Y0016146D01*
X0190869Y0016037D01*
X0190982Y0015926D01*
X0191092Y0015812D01*
X0191199Y0015695D01*
X0191303Y0015576D01*
X0191404Y0015454D01*
X0191501Y0015329D01*
X0191596Y0015202D01*
X0191687Y0015073D01*
X0191776Y0014942D01*
X0191860Y0014808D01*
X0191942Y0014672D01*
X0192020Y0014535D01*
X0192094Y0014395D01*
X0192165Y0014253D01*
X0192233Y0014110D01*
X0192297Y0013965D01*
X0192357Y0013819D01*
X0192413Y0013671D01*
X0192466Y0013522D01*
X0192515Y0013371D01*
X0192560Y0013219D01*
X0192601Y0013066D01*
X0192639Y0012913D01*
X0192672Y0012758D01*
X0192702Y0012602D01*
X0192728Y0012446D01*
X0192749Y0012289D01*
X0192767Y0012132D01*
X0192781Y0011974D01*
X0192791Y0011816D01*
X0192797Y0011658D01*
X0192799Y0011500D01*
X0192797Y0011342D01*
X0192791Y0011184D01*
X0192781Y0011026D01*
X0192767Y0010868D01*
X0192749Y0010711D01*
X0192728Y0010554D01*
X0192702Y0010398D01*
X0192672Y0010242D01*
X0192639Y0010087D01*
X0192601Y0009934D01*
X0192560Y0009781D01*
X0192515Y0009629D01*
X0192466Y0009478D01*
X0192413Y0009329D01*
X0192357Y0009181D01*
X0192297Y0009035D01*
X0192233Y0008890D01*
X0192165Y0008747D01*
X0192094Y0008605D01*
X0192020Y0008465D01*
X0191942Y0008328D01*
X0191860Y0008192D01*
X0191776Y0008058D01*
X0191687Y0007927D01*
X0191596Y0007798D01*
X0191501Y0007671D01*
X0191404Y0007546D01*
X0191303Y0007424D01*
X0191199Y0007305D01*
X0191092Y0007188D01*
X0190982Y0007074D01*
X0190869Y0006963D01*
X0190754Y0006854D01*
X0190636Y0006749D01*
X0190515Y0006647D01*
X0190392Y0006547D01*
X0190266Y0006451D01*
X0190138Y0006358D01*
X0190008Y0006268D01*
X0189875Y0006182D01*
X0189740Y0006098D01*
X0189604Y0006019D01*
X0189465Y0005942D01*
X0189324Y0005870D01*
X0189182Y0005800D01*
X0189038Y0005735D01*
X0188892Y0005673D01*
X0188745Y0005615D01*
X0188596Y0005560D01*
X0188446Y0005509D01*
X0188295Y0005462D01*
X0188143Y0005419D01*
X0187990Y0005380D01*
X0187835Y0005344D01*
X0187680Y0005313D01*
X0187524Y0005285D01*
X0187368Y0005261D01*
X0187211Y0005241D01*
X0187053Y0005225D01*
X0186896Y0005213D01*
X0186737Y0005205D01*
X0186579Y0005201D01*
X0186421Y0005201D01*
X0186263Y0005205D01*
X0186104Y0005213D01*
X0185947Y0005225D01*
X0185789Y0005241D01*
X0185632Y0005261D01*
X0185476Y0005285D01*
X0185320Y0005313D01*
X0185165Y0005344D01*
X0185010Y0005380D01*
X0184857Y0005419D01*
X0184705Y0005462D01*
X0184554Y0005509D01*
X0184404Y0005560D01*
X0184255Y0005615D01*
X0184108Y0005673D01*
X0183962Y0005735D01*
X0183818Y0005800D01*
X0183676Y0005870D01*
X0183535Y0005942D01*
X0183396Y0006019D01*
X0183260Y0006098D01*
X0183125Y0006182D01*
X0182992Y0006268D01*
X0182862Y0006358D01*
X0182734Y0006451D01*
X0182608Y0006547D01*
X0182485Y0006647D01*
X0182364Y0006749D01*
X0182246Y0006854D01*
X0182131Y0006963D01*
X0182018Y0007074D01*
X0181908Y0007188D01*
X0181801Y0007305D01*
X0181697Y0007424D01*
X0181596Y0007546D01*
X0181499Y0007671D01*
X0181404Y0007798D01*
X0181313Y0007927D01*
X0181224Y0008058D01*
X0181140Y0008192D01*
X0181058Y0008328D01*
X0180980Y0008465D01*
X0180906Y0008605D01*
X0180835Y0008747D01*
X0180767Y0008890D01*
X0180703Y0009035D01*
X0180643Y0009181D01*
X0180587Y0009329D01*
X0180534Y0009478D01*
X0180485Y0009629D01*
X0180440Y0009781D01*
X0180399Y0009934D01*
X0180361Y0010087D01*
X0180328Y0010242D01*
X0180298Y0010398D01*
X0180272Y0010554D01*
X0180251Y0010711D01*
X0180233Y0010868D01*
X0180219Y0011026D01*
X0180209Y0011184D01*
X0180203Y0011342D01*
X0180201Y0011500D01*
D11*
X0086500Y0137760D03*
X0086500Y0145240D03*
X0071500Y0145240D03*
X0071500Y0137760D03*
X0056500Y0137760D03*
X0056500Y0145240D03*
X0041500Y0145240D03*
X0041500Y0137760D03*
X0026500Y0137760D03*
X0026500Y0145240D03*
D12*
X0045950Y0126750D02*
X0045950Y0121250D01*
X0045450Y0121250D01*
X0045450Y0126750D01*
X0045950Y0126750D01*
X0045950Y0125749D02*
X0045450Y0125749D01*
X0053850Y0126750D02*
X0053850Y0121250D01*
X0053350Y0121250D01*
X0053350Y0126750D01*
X0053850Y0126750D01*
X0053850Y0125749D02*
X0053350Y0125749D01*
X0091350Y0126750D02*
X0091350Y0121250D01*
X0090850Y0121250D01*
X0090850Y0126750D01*
X0091350Y0126750D01*
X0091350Y0125749D02*
X0090850Y0125749D01*
X0099250Y0126750D02*
X0099250Y0121250D01*
X0098750Y0121250D01*
X0098750Y0126750D01*
X0099250Y0126750D01*
X0099250Y0125749D02*
X0098750Y0125749D01*
X0099250Y0051750D02*
X0099250Y0046250D01*
X0098750Y0046250D01*
X0098750Y0051750D01*
X0099250Y0051750D01*
X0099250Y0050749D02*
X0098750Y0050749D01*
X0091350Y0051750D02*
X0091350Y0046250D01*
X0090850Y0046250D01*
X0090850Y0051750D01*
X0091350Y0051750D01*
X0091350Y0050749D02*
X0090850Y0050749D01*
X0053850Y0051750D02*
X0053850Y0046250D01*
X0053350Y0046250D01*
X0053350Y0051750D01*
X0053850Y0051750D01*
X0053850Y0050749D02*
X0053350Y0050749D01*
X0045950Y0051750D02*
X0045950Y0046250D01*
X0045450Y0046250D01*
X0045450Y0051750D01*
X0045950Y0051750D01*
X0045950Y0050749D02*
X0045450Y0050749D01*
D13*
X0126500Y0049500D02*
X0126500Y0043500D01*
X0136500Y0043500D02*
X0136500Y0049500D01*
X0146500Y0049500D02*
X0146500Y0043500D01*
X0146500Y0073500D02*
X0146500Y0079500D01*
X0136500Y0079500D02*
X0136500Y0073500D01*
X0126500Y0073500D02*
X0126500Y0079500D01*
X0126500Y0103500D02*
X0126500Y0109500D01*
X0136500Y0109500D02*
X0136500Y0103500D01*
X0146500Y0103500D02*
X0146500Y0109500D01*
X0146500Y0133500D02*
X0146500Y0139500D01*
X0136500Y0139500D02*
X0136500Y0133500D01*
X0126500Y0133500D02*
X0126500Y0139500D01*
X0126500Y0163500D02*
X0126500Y0169500D01*
X0136500Y0169500D02*
X0136500Y0163500D01*
X0146500Y0163500D02*
X0146500Y0169500D01*
X0131500Y0188500D02*
X0131500Y0194500D01*
X0121500Y0194500D02*
X0121500Y0188500D01*
X0111500Y0188500D02*
X0111500Y0194500D01*
X0101500Y0194500D02*
X0101500Y0188500D01*
D14*
X0175475Y0166500D02*
X0182525Y0166500D01*
X0182525Y0146500D02*
X0175475Y0146500D01*
X0175475Y0126500D02*
X0182525Y0126500D01*
X0182525Y0096500D02*
X0175475Y0096500D01*
X0175475Y0076500D02*
X0182525Y0076500D01*
X0182525Y0056500D02*
X0175475Y0056500D01*
X0175475Y0036500D02*
X0182525Y0036500D01*
X0106500Y0022525D02*
X0106500Y0015475D01*
X0086500Y0015475D02*
X0086500Y0022525D01*
D15*
X0066500Y0031500D03*
X0031500Y0069500D03*
D16*
X0031500Y0083500D03*
X0056500Y0031500D03*
D17*
X0066500Y0051500D03*
X0081500Y0086500D03*
X0106500Y0116500D03*
X0116500Y0121500D03*
X0116500Y0091500D03*
X0121500Y0061500D03*
X0081500Y0121500D03*
X0066500Y0126500D03*
X0046500Y0156500D03*
X0036500Y0156500D03*
X0056500Y0166500D03*
X0071500Y0161500D03*
X0121500Y0151500D03*
X0046500Y0091500D03*
X0011500Y0161500D03*
D18*
X0011500Y0089500D01*
X0031500Y0069500D01*
X0074500Y0069500D01*
X0081500Y0076500D01*
X0096500Y0061500D01*
X0121500Y0061500D01*
X0146500Y0061500D01*
X0146500Y0046500D01*
X0146500Y0061500D02*
X0146500Y0076500D01*
X0146500Y0091500D01*
X0116500Y0091500D01*
X0101500Y0111500D02*
X0096500Y0111500D01*
X0091500Y0116500D01*
X0091500Y0123600D01*
X0091100Y0124000D01*
X0081500Y0121500D02*
X0081500Y0131500D01*
X0086500Y0136500D01*
X0086500Y0137760D01*
X0086500Y0145240D02*
X0092760Y0145240D01*
X0116500Y0121500D01*
X0146500Y0121500D01*
X0146500Y0106500D01*
X0146500Y0091500D01*
X0146500Y0121500D02*
X0146500Y0136500D01*
X0146500Y0151500D01*
X0121500Y0151500D01*
X0146500Y0151500D02*
X0146500Y0166500D01*
X0146500Y0176500D01*
X0131500Y0191500D01*
X0121500Y0191500D02*
X0121500Y0186500D01*
X0116500Y0181500D01*
X0086500Y0181500D01*
X0071500Y0161500D02*
X0071500Y0145240D01*
X0071500Y0137760D02*
X0056500Y0137760D01*
X0053600Y0135660D01*
X0053600Y0124000D01*
X0053600Y0118600D01*
X0031500Y0096500D01*
X0031500Y0083500D01*
X0046500Y0091500D02*
X0046500Y0101500D01*
X0066500Y0121500D01*
X0066500Y0126500D01*
X0056500Y0136500D02*
X0052760Y0136500D01*
X0051500Y0137760D01*
X0041500Y0137760D01*
X0050240Y0137760D01*
X0051500Y0136500D01*
X0052760Y0136500D01*
X0051500Y0137760D02*
X0056500Y0137760D01*
X0056500Y0145240D02*
X0056500Y0166500D01*
X0046500Y0156500D02*
X0041500Y0151500D01*
X0041500Y0145240D01*
X0041500Y0137760D02*
X0026500Y0137760D01*
X0026500Y0145240D02*
X0026500Y0146500D01*
X0036500Y0156500D01*
X0053600Y0124000D02*
X0053600Y0120600D01*
X0081500Y0086500D02*
X0081500Y0076500D01*
X0096500Y0061500D02*
X0091100Y0056100D01*
X0091100Y0049000D01*
X0086500Y0044400D01*
X0086500Y0031500D01*
X0066500Y0031500D01*
X0056500Y0031500D02*
X0053600Y0031500D01*
X0053600Y0014400D01*
X0061500Y0006500D01*
X0101500Y0006500D01*
X0106500Y0011500D01*
X0106500Y0019000D01*
X0086500Y0019000D02*
X0086500Y0031500D01*
X0066500Y0051500D02*
X0064000Y0049000D01*
X0053600Y0049000D01*
X0053600Y0031500D01*
X0101500Y0111500D02*
X0106500Y0116500D01*
D19*
X0086500Y0181500D03*
D20*
X0091500Y0178600D02*
X0117077Y0178600D01*
X0118143Y0179041D01*
X0123231Y0184130D01*
X0124162Y0184516D01*
X0125484Y0185838D01*
X0126200Y0187565D01*
X0126200Y0195435D01*
X0125484Y0197162D01*
X0124446Y0198201D01*
X0181464Y0198201D01*
X0179464Y0196201D01*
X0178201Y0193151D01*
X0178201Y0189849D01*
X0179464Y0186799D01*
X0181799Y0184464D01*
X0184849Y0183201D01*
X0188151Y0183201D01*
X0191201Y0184464D01*
X0193536Y0186799D01*
X0194421Y0188937D01*
X0194421Y0138700D01*
X0171656Y0138700D01*
X0170909Y0138807D01*
X0170767Y0138700D01*
X0170589Y0138700D01*
X0170055Y0138166D01*
X0150767Y0123700D01*
X0150589Y0123700D01*
X0150055Y0123166D01*
X0149451Y0122713D01*
X0149426Y0122537D01*
X0149300Y0122411D01*
X0149300Y0121656D01*
X0149193Y0120909D01*
X0149300Y0120767D01*
X0149300Y0033700D01*
X0095589Y0033700D01*
X0094300Y0032411D01*
X0094300Y0009400D01*
X0062701Y0009400D01*
X0056500Y0015601D01*
X0056500Y0026650D01*
X0057465Y0026650D01*
X0059247Y0027388D01*
X0060612Y0028753D01*
X0061350Y0030535D01*
X0061350Y0032465D01*
X0060612Y0034247D01*
X0059247Y0035612D01*
X0057465Y0036350D01*
X0056500Y0036350D01*
X0056500Y0043314D01*
X0057199Y0044012D01*
X0057800Y0045464D01*
X0057800Y0046100D01*
X0064577Y0046100D01*
X0065643Y0046541D01*
X0067020Y0047919D01*
X0067983Y0047919D01*
X0070081Y0050017D01*
X0070081Y0052983D01*
X0067983Y0055081D01*
X0065017Y0055081D01*
X0062919Y0052983D01*
X0062919Y0052020D01*
X0062799Y0051900D01*
X0057800Y0051900D01*
X0057800Y0052536D01*
X0057199Y0053987D01*
X0056087Y0055099D01*
X0054636Y0055700D01*
X0052564Y0055700D01*
X0051112Y0055099D01*
X0050001Y0053987D01*
X0049650Y0053139D01*
X0049299Y0053987D01*
X0048187Y0055099D01*
X0046736Y0055700D01*
X0044664Y0055700D01*
X0043212Y0055099D01*
X0042101Y0053987D01*
X0041500Y0052536D01*
X0041500Y0045464D01*
X0042101Y0044012D01*
X0043212Y0042901D01*
X0044664Y0042300D01*
X0046736Y0042300D01*
X0048187Y0042901D01*
X0049299Y0044012D01*
X0049650Y0044861D01*
X0050001Y0044012D01*
X0050700Y0043314D01*
X0050700Y0013823D01*
X0051141Y0012757D01*
X0059041Y0004857D01*
X0059857Y0004041D01*
X0060923Y0003600D01*
X0094300Y0003600D01*
X0094300Y0003500D01*
X0013873Y0003500D01*
X0016201Y0004464D01*
X0018536Y0006799D01*
X0019799Y0009849D01*
X0019799Y0013151D01*
X0018536Y0016201D01*
X0016201Y0018536D01*
X0013151Y0019799D01*
X0009849Y0019799D01*
X0006799Y0018536D01*
X0004464Y0016201D01*
X0003500Y0013873D01*
X0003500Y0189127D01*
X0004464Y0186799D01*
X0006799Y0184464D01*
X0009849Y0183201D01*
X0013151Y0183201D01*
X0016201Y0184464D01*
X0018536Y0186799D01*
X0019799Y0189849D01*
X0019799Y0193151D01*
X0018536Y0196201D01*
X0016536Y0198201D01*
X0026500Y0198201D01*
X0026500Y0156500D01*
X0032399Y0156500D01*
X0025398Y0149499D01*
X0022843Y0149499D01*
X0021847Y0148503D01*
X0021847Y0141977D01*
X0022324Y0141500D01*
X0021847Y0141023D01*
X0021847Y0134497D01*
X0022843Y0133501D01*
X0030157Y0133501D01*
X0031153Y0134497D01*
X0031153Y0134860D01*
X0036847Y0134860D01*
X0036847Y0134497D01*
X0037843Y0133501D01*
X0045157Y0133501D01*
X0046153Y0134497D01*
X0046153Y0134860D01*
X0049039Y0134860D01*
X0049041Y0134857D01*
X0049857Y0134041D01*
X0050700Y0133692D01*
X0050700Y0129686D01*
X0050001Y0128987D01*
X0049650Y0128139D01*
X0049299Y0128987D01*
X0048187Y0130099D01*
X0046736Y0130700D01*
X0044664Y0130700D01*
X0043212Y0130099D01*
X0042101Y0128987D01*
X0041500Y0127536D01*
X0041500Y0120464D01*
X0042101Y0119012D01*
X0043212Y0117901D01*
X0044664Y0117300D01*
X0046736Y0117300D01*
X0048187Y0117901D01*
X0049299Y0119012D01*
X0049650Y0119861D01*
X0049975Y0119076D01*
X0029857Y0098958D01*
X0029041Y0098143D01*
X0028600Y0097077D01*
X0028600Y0087459D01*
X0027388Y0086247D01*
X0026650Y0084465D01*
X0026650Y0082535D01*
X0027388Y0080753D01*
X0028753Y0079388D01*
X0030535Y0078650D01*
X0032465Y0078650D01*
X0034247Y0079388D01*
X0035612Y0080753D01*
X0036350Y0082535D01*
X0036350Y0084465D01*
X0035612Y0086247D01*
X0034400Y0087459D01*
X0034400Y0095299D01*
X0056058Y0116957D01*
X0056500Y0118023D01*
X0056500Y0118314D01*
X0057199Y0119012D01*
X0057800Y0120464D01*
X0057800Y0127536D01*
X0057199Y0128987D01*
X0056500Y0129686D01*
X0056500Y0133501D01*
X0060157Y0133501D01*
X0061153Y0134497D01*
X0061153Y0134860D01*
X0066847Y0134860D01*
X0066847Y0134497D01*
X0067843Y0133501D01*
X0075157Y0133501D01*
X0076153Y0134497D01*
X0076153Y0141023D01*
X0075676Y0141500D01*
X0076153Y0141977D01*
X0076153Y0148503D01*
X0075157Y0149499D01*
X0074400Y0149499D01*
X0074400Y0156500D01*
X0091500Y0156500D01*
X0091500Y0178600D01*
X0091500Y0178237D02*
X0194421Y0178237D01*
X0194421Y0179235D02*
X0118336Y0179235D01*
X0119335Y0180234D02*
X0194421Y0180234D01*
X0194421Y0181232D02*
X0120333Y0181232D01*
X0121332Y0182231D02*
X0194421Y0182231D01*
X0194421Y0183229D02*
X0188219Y0183229D01*
X0190630Y0184228D02*
X0194421Y0184228D01*
X0194421Y0185226D02*
X0191963Y0185226D01*
X0192961Y0186225D02*
X0194421Y0186225D01*
X0194421Y0187223D02*
X0193711Y0187223D01*
X0194125Y0188222D02*
X0194421Y0188222D01*
X0184781Y0183229D02*
X0122330Y0183229D01*
X0123467Y0184228D02*
X0182370Y0184228D01*
X0181037Y0185226D02*
X0124873Y0185226D01*
X0125645Y0186225D02*
X0180039Y0186225D01*
X0179289Y0187223D02*
X0126058Y0187223D01*
X0126200Y0188222D02*
X0178875Y0188222D01*
X0178461Y0189220D02*
X0126200Y0189220D01*
X0126200Y0190219D02*
X0178201Y0190219D01*
X0178201Y0191217D02*
X0126200Y0191217D01*
X0126200Y0192216D02*
X0178201Y0192216D01*
X0178227Y0193214D02*
X0126200Y0193214D01*
X0126200Y0194213D02*
X0178641Y0194213D01*
X0179054Y0195211D02*
X0126200Y0195211D01*
X0125879Y0196210D02*
X0179473Y0196210D01*
X0180471Y0197208D02*
X0125439Y0197208D01*
X0125565Y0174200D02*
X0123838Y0173484D01*
X0122516Y0172162D01*
X0121800Y0170435D01*
X0121800Y0162565D01*
X0122516Y0160838D01*
X0123838Y0159516D01*
X0125565Y0158800D01*
X0127435Y0158800D01*
X0129162Y0159516D01*
X0130484Y0160838D01*
X0131200Y0162565D01*
X0131200Y0170435D01*
X0130484Y0172162D01*
X0129162Y0173484D01*
X0127435Y0174200D01*
X0125565Y0174200D01*
X0123597Y0173244D02*
X0091500Y0173244D01*
X0091500Y0174242D02*
X0194421Y0174242D01*
X0194421Y0173244D02*
X0139403Y0173244D01*
X0139162Y0173484D02*
X0140484Y0172162D01*
X0141200Y0170435D01*
X0141200Y0162565D01*
X0140484Y0160838D01*
X0139162Y0159516D01*
X0137435Y0158800D01*
X0135565Y0158800D01*
X0133838Y0159516D01*
X0132516Y0160838D01*
X0131800Y0162565D01*
X0131800Y0170435D01*
X0132516Y0172162D01*
X0133838Y0173484D01*
X0135565Y0174200D01*
X0137435Y0174200D01*
X0139162Y0173484D01*
X0140401Y0172245D02*
X0194421Y0172245D01*
X0194421Y0171247D02*
X0184718Y0171247D01*
X0185485Y0170930D02*
X0183564Y0171725D01*
X0174436Y0171725D01*
X0172515Y0170930D01*
X0171045Y0169460D01*
X0170250Y0167539D01*
X0170250Y0165461D01*
X0171045Y0163540D01*
X0172515Y0162070D01*
X0174436Y0161275D01*
X0183564Y0161275D01*
X0185485Y0162070D01*
X0186955Y0163540D01*
X0187750Y0165461D01*
X0187750Y0167539D01*
X0186955Y0169460D01*
X0185485Y0170930D01*
X0186166Y0170248D02*
X0194421Y0170248D01*
X0194421Y0169250D02*
X0187041Y0169250D01*
X0187455Y0168251D02*
X0194421Y0168251D01*
X0194421Y0167253D02*
X0187750Y0167253D01*
X0187750Y0166254D02*
X0194421Y0166254D01*
X0194421Y0165256D02*
X0187665Y0165256D01*
X0187252Y0164257D02*
X0194421Y0164257D01*
X0194421Y0163259D02*
X0186673Y0163259D01*
X0185675Y0162260D02*
X0194421Y0162260D01*
X0194421Y0161262D02*
X0140660Y0161262D01*
X0141074Y0162260D02*
X0172325Y0162260D01*
X0171327Y0163259D02*
X0141200Y0163259D01*
X0141200Y0164257D02*
X0170748Y0164257D01*
X0170335Y0165256D02*
X0141200Y0165256D01*
X0141200Y0166254D02*
X0170250Y0166254D01*
X0170250Y0167253D02*
X0141200Y0167253D01*
X0141200Y0168251D02*
X0170545Y0168251D01*
X0170959Y0169250D02*
X0141200Y0169250D01*
X0141200Y0170248D02*
X0171834Y0170248D01*
X0173282Y0171247D02*
X0140864Y0171247D01*
X0133597Y0173244D02*
X0129403Y0173244D01*
X0130401Y0172245D02*
X0132599Y0172245D01*
X0132136Y0171247D02*
X0130864Y0171247D01*
X0131200Y0170248D02*
X0131800Y0170248D01*
X0131800Y0169250D02*
X0131200Y0169250D01*
X0131200Y0168251D02*
X0131800Y0168251D01*
X0131800Y0167253D02*
X0131200Y0167253D01*
X0131200Y0166254D02*
X0131800Y0166254D01*
X0131800Y0165256D02*
X0131200Y0165256D01*
X0131200Y0164257D02*
X0131800Y0164257D01*
X0131800Y0163259D02*
X0131200Y0163259D01*
X0131074Y0162260D02*
X0131926Y0162260D01*
X0132340Y0161262D02*
X0130660Y0161262D01*
X0129910Y0160263D02*
X0133090Y0160263D01*
X0134443Y0159265D02*
X0128557Y0159265D01*
X0124443Y0159265D02*
X0091500Y0159265D01*
X0091500Y0160263D02*
X0123090Y0160263D01*
X0122340Y0161262D02*
X0091500Y0161262D01*
X0091500Y0162260D02*
X0121926Y0162260D01*
X0121800Y0163259D02*
X0091500Y0163259D01*
X0091500Y0164257D02*
X0121800Y0164257D01*
X0121800Y0165256D02*
X0091500Y0165256D01*
X0091500Y0166254D02*
X0121800Y0166254D01*
X0121800Y0167253D02*
X0091500Y0167253D01*
X0091500Y0168251D02*
X0121800Y0168251D01*
X0121800Y0169250D02*
X0091500Y0169250D01*
X0091500Y0170248D02*
X0121800Y0170248D01*
X0122136Y0171247D02*
X0091500Y0171247D01*
X0091500Y0172245D02*
X0122599Y0172245D01*
X0138557Y0159265D02*
X0194421Y0159265D01*
X0194421Y0160263D02*
X0139910Y0160263D01*
X0137435Y0144200D02*
X0135565Y0144200D01*
X0133838Y0143484D01*
X0132516Y0142162D01*
X0131800Y0140435D01*
X0131800Y0132565D01*
X0132516Y0130838D01*
X0133838Y0129516D01*
X0135565Y0128800D01*
X0137435Y0128800D01*
X0139162Y0129516D01*
X0140484Y0130838D01*
X0141200Y0132565D01*
X0141200Y0140435D01*
X0140484Y0142162D01*
X0139162Y0143484D01*
X0137435Y0144200D01*
X0139358Y0143289D02*
X0171297Y0143289D01*
X0171045Y0143540D02*
X0172515Y0142070D01*
X0174436Y0141275D01*
X0183564Y0141275D01*
X0185485Y0142070D01*
X0186955Y0143540D01*
X0187750Y0145461D01*
X0187750Y0147539D01*
X0186955Y0149460D01*
X0185485Y0150930D01*
X0183564Y0151725D01*
X0174436Y0151725D01*
X0172515Y0150930D01*
X0171045Y0149460D01*
X0170250Y0147539D01*
X0170250Y0145461D01*
X0171045Y0143540D01*
X0170736Y0144287D02*
X0076153Y0144287D01*
X0076153Y0143289D02*
X0123642Y0143289D01*
X0123838Y0143484D02*
X0122516Y0142162D01*
X0121800Y0140435D01*
X0121800Y0132565D01*
X0122516Y0130838D01*
X0123838Y0129516D01*
X0125565Y0128800D01*
X0127435Y0128800D01*
X0129162Y0129516D01*
X0130484Y0130838D01*
X0131200Y0132565D01*
X0131200Y0140435D01*
X0130484Y0142162D01*
X0129162Y0143484D01*
X0127435Y0144200D01*
X0125565Y0144200D01*
X0123838Y0143484D01*
X0122643Y0142290D02*
X0076153Y0142290D01*
X0075884Y0141292D02*
X0082116Y0141292D01*
X0081847Y0141023D02*
X0081847Y0135948D01*
X0079857Y0133958D01*
X0079041Y0133143D01*
X0078600Y0132077D01*
X0078600Y0123664D01*
X0077919Y0122983D01*
X0077919Y0120017D01*
X0080017Y0117919D01*
X0082983Y0117919D01*
X0085081Y0120017D01*
X0085081Y0122983D01*
X0084400Y0123664D01*
X0084400Y0130299D01*
X0087602Y0133501D01*
X0090157Y0133501D01*
X0091153Y0134497D01*
X0091153Y0141023D01*
X0090157Y0142019D01*
X0082843Y0142019D01*
X0081847Y0141023D01*
X0081847Y0140293D02*
X0076153Y0140293D01*
X0076153Y0139295D02*
X0081847Y0139295D01*
X0081847Y0138296D02*
X0076153Y0138296D01*
X0076153Y0137298D02*
X0081847Y0137298D01*
X0081847Y0136299D02*
X0076153Y0136299D01*
X0076153Y0135301D02*
X0081199Y0135301D01*
X0080201Y0134302D02*
X0075958Y0134302D01*
X0078695Y0132305D02*
X0056500Y0132305D01*
X0056500Y0133303D02*
X0079202Y0133303D01*
X0078600Y0131306D02*
X0056500Y0131306D01*
X0056500Y0130308D02*
X0078600Y0130308D01*
X0078600Y0129309D02*
X0068755Y0129309D01*
X0067983Y0130081D02*
X0065017Y0130081D01*
X0062919Y0127983D01*
X0062919Y0125017D01*
X0063600Y0124336D01*
X0063600Y0122701D01*
X0044041Y0103143D01*
X0043600Y0102077D01*
X0043600Y0093664D01*
X0042919Y0092983D01*
X0042919Y0090017D01*
X0045017Y0087919D01*
X0047983Y0087919D01*
X0050081Y0090017D01*
X0050081Y0092983D01*
X0049400Y0093664D01*
X0049400Y0100299D01*
X0068143Y0119041D01*
X0068958Y0119857D01*
X0069400Y0120923D01*
X0069400Y0124336D01*
X0070081Y0125017D01*
X0070081Y0127983D01*
X0067983Y0130081D01*
X0069753Y0128311D02*
X0078600Y0128311D01*
X0078600Y0127312D02*
X0070081Y0127312D01*
X0070081Y0126314D02*
X0078600Y0126314D01*
X0078600Y0125315D02*
X0070081Y0125315D01*
X0069400Y0124317D02*
X0078600Y0124317D01*
X0078254Y0123318D02*
X0069400Y0123318D01*
X0069400Y0122320D02*
X0077919Y0122320D01*
X0077919Y0121321D02*
X0069400Y0121321D01*
X0069151Y0120323D02*
X0077919Y0120323D01*
X0078611Y0119324D02*
X0068426Y0119324D01*
X0067427Y0118326D02*
X0079610Y0118326D01*
X0083390Y0118326D02*
X0096088Y0118326D01*
X0096512Y0117901D02*
X0097964Y0117300D01*
X0100036Y0117300D01*
X0101487Y0117901D01*
X0102599Y0119012D01*
X0103200Y0120464D01*
X0103200Y0127536D01*
X0102599Y0128987D01*
X0101487Y0130099D01*
X0100036Y0130700D01*
X0097964Y0130700D01*
X0096512Y0130099D01*
X0095401Y0128987D01*
X0094800Y0127536D01*
X0094800Y0120464D01*
X0095401Y0119012D01*
X0096512Y0117901D01*
X0097898Y0117327D02*
X0066429Y0117327D01*
X0065430Y0116329D02*
X0149300Y0116329D01*
X0149300Y0117327D02*
X0100102Y0117327D01*
X0101912Y0118326D02*
X0149300Y0118326D01*
X0149300Y0119324D02*
X0102728Y0119324D01*
X0103141Y0120323D02*
X0149300Y0120323D01*
X0149252Y0121321D02*
X0103200Y0121321D01*
X0103200Y0122320D02*
X0149300Y0122320D01*
X0150207Y0123318D02*
X0103200Y0123318D01*
X0103200Y0124317D02*
X0151589Y0124317D01*
X0152921Y0125315D02*
X0103200Y0125315D01*
X0103200Y0126314D02*
X0154252Y0126314D01*
X0155583Y0127312D02*
X0103200Y0127312D01*
X0102879Y0128311D02*
X0156915Y0128311D01*
X0158246Y0129309D02*
X0138665Y0129309D01*
X0139955Y0130308D02*
X0159577Y0130308D01*
X0160909Y0131306D02*
X0140679Y0131306D01*
X0141092Y0132305D02*
X0162240Y0132305D01*
X0163571Y0133303D02*
X0141200Y0133303D01*
X0141200Y0134302D02*
X0164903Y0134302D01*
X0166234Y0135301D02*
X0141200Y0135301D01*
X0141200Y0136299D02*
X0167565Y0136299D01*
X0168897Y0137298D02*
X0141200Y0137298D01*
X0141200Y0138296D02*
X0170185Y0138296D01*
X0171500Y0136500D02*
X0194421Y0136500D01*
X0194421Y0021500D01*
X0176500Y0021500D01*
X0176500Y0003500D01*
X0096500Y0003500D01*
X0096500Y0031500D01*
X0151500Y0031500D01*
X0151500Y0121500D01*
X0171500Y0136500D01*
X0171232Y0136299D02*
X0194421Y0136299D01*
X0194421Y0135301D02*
X0169901Y0135301D01*
X0168569Y0134302D02*
X0194421Y0134302D01*
X0194421Y0133303D02*
X0167238Y0133303D01*
X0165907Y0132305D02*
X0194421Y0132305D01*
X0194421Y0131306D02*
X0164575Y0131306D01*
X0163244Y0130308D02*
X0194421Y0130308D01*
X0194421Y0129309D02*
X0161913Y0129309D01*
X0160581Y0128311D02*
X0194421Y0128311D01*
X0194421Y0127312D02*
X0159250Y0127312D01*
X0157919Y0126314D02*
X0194421Y0126314D01*
X0194421Y0125315D02*
X0156587Y0125315D01*
X0155256Y0124317D02*
X0194421Y0124317D01*
X0194421Y0123318D02*
X0153925Y0123318D01*
X0152593Y0122320D02*
X0194421Y0122320D01*
X0194421Y0121321D02*
X0151500Y0121321D01*
X0151500Y0120323D02*
X0194421Y0120323D01*
X0194421Y0119324D02*
X0151500Y0119324D01*
X0151500Y0118326D02*
X0194421Y0118326D01*
X0194421Y0117327D02*
X0151500Y0117327D01*
X0151500Y0116329D02*
X0194421Y0116329D01*
X0194421Y0115330D02*
X0151500Y0115330D01*
X0151500Y0114332D02*
X0194421Y0114332D01*
X0194421Y0113333D02*
X0151500Y0113333D01*
X0151500Y0112335D02*
X0194421Y0112335D01*
X0194421Y0111336D02*
X0151500Y0111336D01*
X0151500Y0110338D02*
X0194421Y0110338D01*
X0194421Y0109339D02*
X0151500Y0109339D01*
X0151500Y0108341D02*
X0194421Y0108341D01*
X0194421Y0107342D02*
X0151500Y0107342D01*
X0151500Y0106344D02*
X0194421Y0106344D01*
X0194421Y0105345D02*
X0151500Y0105345D01*
X0151500Y0104347D02*
X0194421Y0104347D01*
X0194421Y0103348D02*
X0151500Y0103348D01*
X0151500Y0102350D02*
X0194421Y0102350D01*
X0194421Y0101351D02*
X0184467Y0101351D01*
X0183564Y0101725D02*
X0174436Y0101725D01*
X0172515Y0100930D01*
X0171045Y0099460D01*
X0170250Y0097539D01*
X0170250Y0095461D01*
X0171045Y0093540D01*
X0172515Y0092070D01*
X0174436Y0091275D01*
X0183564Y0091275D01*
X0185485Y0092070D01*
X0186955Y0093540D01*
X0187750Y0095461D01*
X0187750Y0097539D01*
X0186955Y0099460D01*
X0185485Y0100930D01*
X0183564Y0101725D01*
X0186062Y0100353D02*
X0194421Y0100353D01*
X0194421Y0099354D02*
X0186998Y0099354D01*
X0187412Y0098356D02*
X0194421Y0098356D01*
X0194421Y0097357D02*
X0187750Y0097357D01*
X0187750Y0096359D02*
X0194421Y0096359D01*
X0194421Y0095360D02*
X0187708Y0095360D01*
X0187295Y0094362D02*
X0194421Y0094362D01*
X0194421Y0093363D02*
X0186777Y0093363D01*
X0185779Y0092365D02*
X0194421Y0092365D01*
X0194421Y0091366D02*
X0183784Y0091366D01*
X0174216Y0091366D02*
X0151500Y0091366D01*
X0151500Y0090368D02*
X0194421Y0090368D01*
X0194421Y0089369D02*
X0151500Y0089369D01*
X0151500Y0088370D02*
X0194421Y0088370D01*
X0194421Y0087372D02*
X0151500Y0087372D01*
X0151500Y0086373D02*
X0194421Y0086373D01*
X0194421Y0085375D02*
X0151500Y0085375D01*
X0151500Y0084376D02*
X0194421Y0084376D01*
X0194421Y0083378D02*
X0151500Y0083378D01*
X0151500Y0082379D02*
X0194421Y0082379D01*
X0194421Y0081381D02*
X0184395Y0081381D01*
X0183564Y0081725D02*
X0174436Y0081725D01*
X0172515Y0080930D01*
X0171045Y0079460D01*
X0170250Y0077539D01*
X0170250Y0075461D01*
X0171045Y0073540D01*
X0172515Y0072070D01*
X0174436Y0071275D01*
X0183564Y0071275D01*
X0185485Y0072070D01*
X0186955Y0073540D01*
X0187750Y0075461D01*
X0187750Y0077539D01*
X0186955Y0079460D01*
X0185485Y0080930D01*
X0183564Y0081725D01*
X0186032Y0080382D02*
X0194421Y0080382D01*
X0194421Y0079384D02*
X0186986Y0079384D01*
X0187400Y0078385D02*
X0194421Y0078385D01*
X0194421Y0077387D02*
X0187750Y0077387D01*
X0187750Y0076388D02*
X0194421Y0076388D01*
X0194421Y0075390D02*
X0187721Y0075390D01*
X0187307Y0074391D02*
X0194421Y0074391D01*
X0194421Y0073393D02*
X0186807Y0073393D01*
X0185809Y0072394D02*
X0194421Y0072394D01*
X0194421Y0071396D02*
X0183856Y0071396D01*
X0183564Y0061725D02*
X0174436Y0061725D01*
X0172515Y0060930D01*
X0171045Y0059460D01*
X0170250Y0057539D01*
X0170250Y0055461D01*
X0171045Y0053540D01*
X0172515Y0052070D01*
X0174436Y0051275D01*
X0183564Y0051275D01*
X0185485Y0052070D01*
X0186955Y0053540D01*
X0187750Y0055461D01*
X0187750Y0057539D01*
X0186955Y0059460D01*
X0185485Y0060930D01*
X0183564Y0061725D01*
X0184323Y0061411D02*
X0194421Y0061411D01*
X0194421Y0062409D02*
X0151500Y0062409D01*
X0151500Y0061411D02*
X0173677Y0061411D01*
X0171998Y0060412D02*
X0151500Y0060412D01*
X0151500Y0059414D02*
X0171026Y0059414D01*
X0170613Y0058415D02*
X0151500Y0058415D01*
X0151500Y0057417D02*
X0170250Y0057417D01*
X0170250Y0056418D02*
X0151500Y0056418D01*
X0151500Y0055420D02*
X0170267Y0055420D01*
X0170681Y0054421D02*
X0151500Y0054421D01*
X0151500Y0053423D02*
X0171163Y0053423D01*
X0172162Y0052424D02*
X0151500Y0052424D01*
X0151500Y0051426D02*
X0174072Y0051426D01*
X0183928Y0051426D02*
X0194421Y0051426D01*
X0194421Y0052424D02*
X0185838Y0052424D01*
X0186837Y0053423D02*
X0194421Y0053423D01*
X0194421Y0054421D02*
X0187319Y0054421D01*
X0187733Y0055420D02*
X0194421Y0055420D01*
X0194421Y0056418D02*
X0187750Y0056418D01*
X0187750Y0057417D02*
X0194421Y0057417D01*
X0194421Y0058415D02*
X0187387Y0058415D01*
X0186974Y0059414D02*
X0194421Y0059414D01*
X0194421Y0060412D02*
X0186002Y0060412D01*
X0194421Y0063408D02*
X0151500Y0063408D01*
X0151500Y0064406D02*
X0194421Y0064406D01*
X0194421Y0065405D02*
X0151500Y0065405D01*
X0151500Y0066403D02*
X0194421Y0066403D01*
X0194421Y0067402D02*
X0151500Y0067402D01*
X0151500Y0068400D02*
X0194421Y0068400D01*
X0194421Y0069399D02*
X0151500Y0069399D01*
X0151500Y0070397D02*
X0194421Y0070397D01*
X0194421Y0050427D02*
X0151500Y0050427D01*
X0151500Y0049429D02*
X0194421Y0049429D01*
X0194421Y0048430D02*
X0151500Y0048430D01*
X0151500Y0047432D02*
X0194421Y0047432D01*
X0194421Y0046433D02*
X0151500Y0046433D01*
X0151500Y0045434D02*
X0194421Y0045434D01*
X0194421Y0044436D02*
X0151500Y0044436D01*
X0151500Y0043437D02*
X0194421Y0043437D01*
X0194421Y0042439D02*
X0151500Y0042439D01*
X0151500Y0041440D02*
X0194421Y0041440D01*
X0194421Y0040442D02*
X0151500Y0040442D01*
X0151500Y0039443D02*
X0194421Y0039443D01*
X0194421Y0038445D02*
X0151500Y0038445D01*
X0151500Y0037446D02*
X0194421Y0037446D01*
X0194421Y0036448D02*
X0151500Y0036448D01*
X0151500Y0035449D02*
X0194421Y0035449D01*
X0194421Y0034451D02*
X0151500Y0034451D01*
X0151500Y0033452D02*
X0194421Y0033452D01*
X0194421Y0032454D02*
X0151500Y0032454D01*
X0149300Y0034451D02*
X0060408Y0034451D01*
X0060941Y0033452D02*
X0095341Y0033452D01*
X0094343Y0032454D02*
X0061350Y0032454D01*
X0061350Y0031455D02*
X0094300Y0031455D01*
X0094300Y0030457D02*
X0061317Y0030457D01*
X0060904Y0029458D02*
X0094300Y0029458D01*
X0094300Y0028460D02*
X0060319Y0028460D01*
X0059320Y0027461D02*
X0094300Y0027461D01*
X0094300Y0026463D02*
X0056500Y0026463D01*
X0056500Y0025464D02*
X0094300Y0025464D01*
X0094300Y0024466D02*
X0056500Y0024466D01*
X0056500Y0023467D02*
X0094300Y0023467D01*
X0094300Y0022469D02*
X0056500Y0022469D01*
X0056500Y0021470D02*
X0094300Y0021470D01*
X0094300Y0020472D02*
X0056500Y0020472D01*
X0056500Y0019473D02*
X0094300Y0019473D01*
X0094300Y0018475D02*
X0056500Y0018475D01*
X0056500Y0017476D02*
X0094300Y0017476D01*
X0094300Y0016478D02*
X0056500Y0016478D01*
X0056622Y0015479D02*
X0094300Y0015479D01*
X0094300Y0014481D02*
X0057621Y0014481D01*
X0058619Y0013482D02*
X0094300Y0013482D01*
X0094300Y0012484D02*
X0059618Y0012484D01*
X0060616Y0011485D02*
X0094300Y0011485D01*
X0094300Y0010487D02*
X0061615Y0010487D01*
X0062613Y0009488D02*
X0094300Y0009488D01*
X0096500Y0009488D02*
X0176500Y0009488D01*
X0176500Y0008490D02*
X0096500Y0008490D01*
X0096500Y0007491D02*
X0176500Y0007491D01*
X0176500Y0006493D02*
X0096500Y0006493D01*
X0096500Y0005494D02*
X0176500Y0005494D01*
X0176500Y0004496D02*
X0096500Y0004496D01*
X0096500Y0010487D02*
X0176500Y0010487D01*
X0176500Y0011485D02*
X0096500Y0011485D01*
X0096500Y0012484D02*
X0176500Y0012484D01*
X0176500Y0013482D02*
X0096500Y0013482D01*
X0096500Y0014481D02*
X0176500Y0014481D01*
X0176500Y0015479D02*
X0096500Y0015479D01*
X0096500Y0016478D02*
X0176500Y0016478D01*
X0176500Y0017476D02*
X0096500Y0017476D01*
X0096500Y0018475D02*
X0176500Y0018475D01*
X0176500Y0019473D02*
X0096500Y0019473D01*
X0096500Y0020472D02*
X0176500Y0020472D01*
X0176500Y0021470D02*
X0096500Y0021470D01*
X0096500Y0022469D02*
X0194421Y0022469D01*
X0194421Y0023467D02*
X0096500Y0023467D01*
X0096500Y0024466D02*
X0194421Y0024466D01*
X0194421Y0025464D02*
X0096500Y0025464D01*
X0096500Y0026463D02*
X0194421Y0026463D01*
X0194421Y0027461D02*
X0096500Y0027461D01*
X0096500Y0028460D02*
X0194421Y0028460D01*
X0194421Y0029458D02*
X0096500Y0029458D01*
X0096500Y0030457D02*
X0194421Y0030457D01*
X0194421Y0031455D02*
X0096500Y0031455D01*
X0097964Y0042300D02*
X0100036Y0042300D01*
X0101487Y0042901D01*
X0102599Y0044012D01*
X0103200Y0045464D01*
X0103200Y0052536D01*
X0102599Y0053987D01*
X0101487Y0055099D01*
X0100036Y0055700D01*
X0097964Y0055700D01*
X0096512Y0055099D01*
X0095401Y0053987D01*
X0094800Y0052536D01*
X0094800Y0045464D01*
X0095401Y0044012D01*
X0096512Y0042901D01*
X0097964Y0042300D01*
X0097629Y0042439D02*
X0056500Y0042439D01*
X0056500Y0041440D02*
X0122266Y0041440D01*
X0122516Y0040838D02*
X0123838Y0039516D01*
X0125565Y0038800D01*
X0127435Y0038800D01*
X0129162Y0039516D01*
X0130484Y0040838D01*
X0131200Y0042565D01*
X0131200Y0050435D01*
X0130484Y0052162D01*
X0129162Y0053484D01*
X0127435Y0054200D01*
X0125565Y0054200D01*
X0123838Y0053484D01*
X0122516Y0052162D01*
X0121800Y0050435D01*
X0121800Y0042565D01*
X0122516Y0040838D01*
X0122911Y0040442D02*
X0056500Y0040442D01*
X0056500Y0039443D02*
X0124012Y0039443D01*
X0121852Y0042439D02*
X0100371Y0042439D01*
X0102024Y0043437D02*
X0121800Y0043437D01*
X0121800Y0044436D02*
X0102774Y0044436D01*
X0103188Y0045434D02*
X0121800Y0045434D01*
X0121800Y0046433D02*
X0103200Y0046433D01*
X0103200Y0047432D02*
X0121800Y0047432D01*
X0121800Y0048430D02*
X0103200Y0048430D01*
X0103200Y0049429D02*
X0121800Y0049429D01*
X0121800Y0050427D02*
X0103200Y0050427D01*
X0103200Y0051426D02*
X0122210Y0051426D01*
X0122777Y0052424D02*
X0103200Y0052424D01*
X0102833Y0053423D02*
X0123776Y0053423D01*
X0129224Y0053423D02*
X0133776Y0053423D01*
X0133838Y0053484D02*
X0132516Y0052162D01*
X0131800Y0050435D01*
X0131800Y0042565D01*
X0132516Y0040838D01*
X0133838Y0039516D01*
X0135565Y0038800D01*
X0137435Y0038800D01*
X0139162Y0039516D01*
X0140484Y0040838D01*
X0141200Y0042565D01*
X0141200Y0050435D01*
X0140484Y0052162D01*
X0139162Y0053484D01*
X0137435Y0054200D01*
X0135565Y0054200D01*
X0133838Y0053484D01*
X0132777Y0052424D02*
X0130223Y0052424D01*
X0130790Y0051426D02*
X0132210Y0051426D01*
X0131800Y0050427D02*
X0131200Y0050427D01*
X0131200Y0049429D02*
X0131800Y0049429D01*
X0131800Y0048430D02*
X0131200Y0048430D01*
X0131200Y0047432D02*
X0131800Y0047432D01*
X0131800Y0046433D02*
X0131200Y0046433D01*
X0131200Y0045434D02*
X0131800Y0045434D01*
X0131800Y0044436D02*
X0131200Y0044436D01*
X0131200Y0043437D02*
X0131800Y0043437D01*
X0131852Y0042439D02*
X0131148Y0042439D01*
X0130734Y0041440D02*
X0132266Y0041440D01*
X0132911Y0040442D02*
X0130089Y0040442D01*
X0128988Y0039443D02*
X0134012Y0039443D01*
X0138988Y0039443D02*
X0149300Y0039443D01*
X0149300Y0038445D02*
X0056500Y0038445D01*
X0056500Y0037446D02*
X0149300Y0037446D01*
X0149300Y0036448D02*
X0056500Y0036448D01*
X0059410Y0035449D02*
X0149300Y0035449D01*
X0149300Y0040442D02*
X0140089Y0040442D01*
X0140734Y0041440D02*
X0149300Y0041440D01*
X0149300Y0042439D02*
X0141148Y0042439D01*
X0141200Y0043437D02*
X0149300Y0043437D01*
X0149300Y0044436D02*
X0141200Y0044436D01*
X0141200Y0045434D02*
X0149300Y0045434D01*
X0149300Y0046433D02*
X0141200Y0046433D01*
X0141200Y0047432D02*
X0149300Y0047432D01*
X0149300Y0048430D02*
X0141200Y0048430D01*
X0141200Y0049429D02*
X0149300Y0049429D01*
X0149300Y0050427D02*
X0141200Y0050427D01*
X0140790Y0051426D02*
X0149300Y0051426D01*
X0149300Y0052424D02*
X0140223Y0052424D01*
X0139224Y0053423D02*
X0149300Y0053423D01*
X0149300Y0054421D02*
X0102165Y0054421D01*
X0100713Y0055420D02*
X0149300Y0055420D01*
X0149300Y0056418D02*
X0003500Y0056418D01*
X0003500Y0055420D02*
X0043987Y0055420D01*
X0042535Y0054421D02*
X0003500Y0054421D01*
X0003500Y0053423D02*
X0041867Y0053423D01*
X0041500Y0052424D02*
X0003500Y0052424D01*
X0003500Y0051426D02*
X0041500Y0051426D01*
X0041500Y0050427D02*
X0003500Y0050427D01*
X0003500Y0049429D02*
X0041500Y0049429D01*
X0041500Y0048430D02*
X0003500Y0048430D01*
X0003500Y0047432D02*
X0041500Y0047432D01*
X0041500Y0046433D02*
X0003500Y0046433D01*
X0003500Y0045434D02*
X0041512Y0045434D01*
X0041926Y0044436D02*
X0003500Y0044436D01*
X0003500Y0043437D02*
X0042676Y0043437D01*
X0044329Y0042439D02*
X0003500Y0042439D01*
X0003500Y0041440D02*
X0050700Y0041440D01*
X0050700Y0040442D02*
X0003500Y0040442D01*
X0003500Y0039443D02*
X0050700Y0039443D01*
X0050700Y0038445D02*
X0003500Y0038445D01*
X0003500Y0037446D02*
X0050700Y0037446D01*
X0050700Y0036448D02*
X0003500Y0036448D01*
X0003500Y0035449D02*
X0050700Y0035449D01*
X0050700Y0034451D02*
X0003500Y0034451D01*
X0003500Y0033452D02*
X0050700Y0033452D01*
X0050700Y0032454D02*
X0003500Y0032454D01*
X0003500Y0031455D02*
X0050700Y0031455D01*
X0050700Y0030457D02*
X0003500Y0030457D01*
X0003500Y0029458D02*
X0050700Y0029458D01*
X0050700Y0028460D02*
X0003500Y0028460D01*
X0003500Y0027461D02*
X0050700Y0027461D01*
X0050700Y0026463D02*
X0003500Y0026463D01*
X0003500Y0025464D02*
X0050700Y0025464D01*
X0050700Y0024466D02*
X0003500Y0024466D01*
X0003500Y0023467D02*
X0050700Y0023467D01*
X0050700Y0022469D02*
X0003500Y0022469D01*
X0003500Y0021470D02*
X0050700Y0021470D01*
X0050700Y0020472D02*
X0003500Y0020472D01*
X0003500Y0019473D02*
X0009062Y0019473D01*
X0006738Y0018475D02*
X0003500Y0018475D01*
X0003500Y0017476D02*
X0005739Y0017476D01*
X0004741Y0016478D02*
X0003500Y0016478D01*
X0003500Y0015479D02*
X0004165Y0015479D01*
X0003752Y0014481D02*
X0003500Y0014481D01*
X0013938Y0019473D02*
X0050700Y0019473D01*
X0050700Y0018475D02*
X0016262Y0018475D01*
X0017261Y0017476D02*
X0050700Y0017476D01*
X0050700Y0016478D02*
X0018259Y0016478D01*
X0018835Y0015479D02*
X0050700Y0015479D01*
X0050700Y0014481D02*
X0019248Y0014481D01*
X0019662Y0013482D02*
X0050841Y0013482D01*
X0051415Y0012484D02*
X0019799Y0012484D01*
X0019799Y0011485D02*
X0052414Y0011485D01*
X0053412Y0010487D02*
X0019799Y0010487D01*
X0019650Y0009488D02*
X0054411Y0009488D01*
X0055409Y0008490D02*
X0019236Y0008490D01*
X0018822Y0007491D02*
X0056408Y0007491D01*
X0057406Y0006493D02*
X0018229Y0006493D01*
X0017231Y0005494D02*
X0058405Y0005494D01*
X0059041Y0004857D02*
X0059041Y0004857D01*
X0059403Y0004496D02*
X0016232Y0004496D01*
X0047071Y0042439D02*
X0050700Y0042439D01*
X0050576Y0043437D02*
X0048724Y0043437D01*
X0049474Y0044436D02*
X0049826Y0044436D01*
X0056624Y0043437D02*
X0095976Y0043437D01*
X0095226Y0044436D02*
X0057374Y0044436D01*
X0057788Y0045434D02*
X0094812Y0045434D01*
X0094800Y0046433D02*
X0065381Y0046433D01*
X0066533Y0047432D02*
X0094800Y0047432D01*
X0094800Y0048430D02*
X0068494Y0048430D01*
X0069493Y0049429D02*
X0094800Y0049429D01*
X0094800Y0050427D02*
X0070081Y0050427D01*
X0070081Y0051426D02*
X0094800Y0051426D01*
X0094800Y0052424D02*
X0070081Y0052424D01*
X0069642Y0053423D02*
X0095167Y0053423D01*
X0095835Y0054421D02*
X0068643Y0054421D01*
X0064357Y0054421D02*
X0056765Y0054421D01*
X0057433Y0053423D02*
X0063358Y0053423D01*
X0062919Y0052424D02*
X0057800Y0052424D01*
X0055313Y0055420D02*
X0097287Y0055420D01*
X0122516Y0070838D02*
X0123838Y0069516D01*
X0125565Y0068800D01*
X0127435Y0068800D01*
X0129162Y0069516D01*
X0130484Y0070838D01*
X0131200Y0072565D01*
X0131200Y0080435D01*
X0130484Y0082162D01*
X0129162Y0083484D01*
X0127435Y0084200D01*
X0125565Y0084200D01*
X0123838Y0083484D01*
X0122516Y0082162D01*
X0121800Y0080435D01*
X0121800Y0072565D01*
X0122516Y0070838D01*
X0122284Y0071396D02*
X0003500Y0071396D01*
X0003500Y0072394D02*
X0121871Y0072394D01*
X0121800Y0073393D02*
X0003500Y0073393D01*
X0003500Y0074391D02*
X0121800Y0074391D01*
X0121800Y0075390D02*
X0003500Y0075390D01*
X0003500Y0076388D02*
X0121800Y0076388D01*
X0121800Y0077387D02*
X0003500Y0077387D01*
X0003500Y0078385D02*
X0121800Y0078385D01*
X0121800Y0079384D02*
X0034236Y0079384D01*
X0035241Y0080382D02*
X0121800Y0080382D01*
X0122192Y0081381D02*
X0035872Y0081381D01*
X0036285Y0082379D02*
X0122733Y0082379D01*
X0123731Y0083378D02*
X0036350Y0083378D01*
X0036350Y0084376D02*
X0149300Y0084376D01*
X0149300Y0083378D02*
X0139269Y0083378D01*
X0139162Y0083484D02*
X0140484Y0082162D01*
X0141200Y0080435D01*
X0141200Y0072565D01*
X0140484Y0070838D01*
X0139162Y0069516D01*
X0137435Y0068800D01*
X0135565Y0068800D01*
X0133838Y0069516D01*
X0132516Y0070838D01*
X0131800Y0072565D01*
X0131800Y0080435D01*
X0132516Y0082162D01*
X0133838Y0083484D01*
X0135565Y0084200D01*
X0137435Y0084200D01*
X0139162Y0083484D01*
X0140267Y0082379D02*
X0149300Y0082379D01*
X0149300Y0081381D02*
X0140808Y0081381D01*
X0141200Y0080382D02*
X0149300Y0080382D01*
X0149300Y0079384D02*
X0141200Y0079384D01*
X0141200Y0078385D02*
X0149300Y0078385D01*
X0149300Y0077387D02*
X0141200Y0077387D01*
X0141200Y0076388D02*
X0149300Y0076388D01*
X0149300Y0075390D02*
X0141200Y0075390D01*
X0141200Y0074391D02*
X0149300Y0074391D01*
X0149300Y0073393D02*
X0141200Y0073393D01*
X0141129Y0072394D02*
X0149300Y0072394D01*
X0149300Y0071396D02*
X0140716Y0071396D01*
X0140044Y0070397D02*
X0149300Y0070397D01*
X0149300Y0069399D02*
X0138880Y0069399D01*
X0134120Y0069399D02*
X0128880Y0069399D01*
X0130044Y0070397D02*
X0132956Y0070397D01*
X0132284Y0071396D02*
X0130716Y0071396D01*
X0131129Y0072394D02*
X0131871Y0072394D01*
X0131800Y0073393D02*
X0131200Y0073393D01*
X0131200Y0074391D02*
X0131800Y0074391D01*
X0131800Y0075390D02*
X0131200Y0075390D01*
X0131200Y0076388D02*
X0131800Y0076388D01*
X0131800Y0077387D02*
X0131200Y0077387D01*
X0131200Y0078385D02*
X0131800Y0078385D01*
X0131800Y0079384D02*
X0131200Y0079384D01*
X0131200Y0080382D02*
X0131800Y0080382D01*
X0132192Y0081381D02*
X0130808Y0081381D01*
X0130267Y0082379D02*
X0132733Y0082379D01*
X0133731Y0083378D02*
X0129269Y0083378D01*
X0122956Y0070397D02*
X0003500Y0070397D01*
X0003500Y0069399D02*
X0124120Y0069399D01*
X0149300Y0068400D02*
X0003500Y0068400D01*
X0003500Y0067402D02*
X0149300Y0067402D01*
X0149300Y0066403D02*
X0003500Y0066403D01*
X0003500Y0065405D02*
X0149300Y0065405D01*
X0149300Y0064406D02*
X0003500Y0064406D01*
X0003500Y0063408D02*
X0149300Y0063408D01*
X0149300Y0062409D02*
X0003500Y0062409D01*
X0003500Y0061411D02*
X0149300Y0061411D01*
X0149300Y0060412D02*
X0003500Y0060412D01*
X0003500Y0059414D02*
X0149300Y0059414D01*
X0149300Y0058415D02*
X0003500Y0058415D01*
X0003500Y0057417D02*
X0149300Y0057417D01*
X0151500Y0071396D02*
X0174144Y0071396D01*
X0172191Y0072394D02*
X0151500Y0072394D01*
X0151500Y0073393D02*
X0171193Y0073393D01*
X0170693Y0074391D02*
X0151500Y0074391D01*
X0151500Y0075390D02*
X0170279Y0075390D01*
X0170250Y0076388D02*
X0151500Y0076388D01*
X0151500Y0077387D02*
X0170250Y0077387D01*
X0170600Y0078385D02*
X0151500Y0078385D01*
X0151500Y0079384D02*
X0171014Y0079384D01*
X0171968Y0080382D02*
X0151500Y0080382D01*
X0151500Y0081381D02*
X0173605Y0081381D01*
X0172221Y0092365D02*
X0151500Y0092365D01*
X0151500Y0093363D02*
X0171223Y0093363D01*
X0170705Y0094362D02*
X0151500Y0094362D01*
X0151500Y0095360D02*
X0170292Y0095360D01*
X0170250Y0096359D02*
X0151500Y0096359D01*
X0151500Y0097357D02*
X0170250Y0097357D01*
X0170588Y0098356D02*
X0151500Y0098356D01*
X0151500Y0099354D02*
X0171002Y0099354D01*
X0171938Y0100353D02*
X0151500Y0100353D01*
X0151500Y0101351D02*
X0173533Y0101351D01*
X0149300Y0101351D02*
X0140697Y0101351D01*
X0140484Y0100838D02*
X0141200Y0102565D01*
X0141200Y0110435D01*
X0140484Y0112162D01*
X0139162Y0113484D01*
X0137435Y0114200D01*
X0135565Y0114200D01*
X0133838Y0113484D01*
X0132516Y0112162D01*
X0131800Y0110435D01*
X0131800Y0102565D01*
X0132516Y0100838D01*
X0133838Y0099516D01*
X0135565Y0098800D01*
X0137435Y0098800D01*
X0139162Y0099516D01*
X0140484Y0100838D01*
X0139999Y0100353D02*
X0149300Y0100353D01*
X0149300Y0099354D02*
X0138773Y0099354D01*
X0141111Y0102350D02*
X0149300Y0102350D01*
X0149300Y0103348D02*
X0141200Y0103348D01*
X0141200Y0104347D02*
X0149300Y0104347D01*
X0149300Y0105345D02*
X0141200Y0105345D01*
X0141200Y0106344D02*
X0149300Y0106344D01*
X0149300Y0107342D02*
X0141200Y0107342D01*
X0141200Y0108341D02*
X0149300Y0108341D01*
X0149300Y0109339D02*
X0141200Y0109339D01*
X0141200Y0110338D02*
X0149300Y0110338D01*
X0149300Y0111336D02*
X0140827Y0111336D01*
X0140312Y0112335D02*
X0149300Y0112335D01*
X0149300Y0113333D02*
X0139314Y0113333D01*
X0133686Y0113333D02*
X0129314Y0113333D01*
X0129162Y0113484D02*
X0130484Y0112162D01*
X0131200Y0110435D01*
X0131200Y0102565D01*
X0130484Y0100838D01*
X0129162Y0099516D01*
X0127435Y0098800D01*
X0125565Y0098800D01*
X0123838Y0099516D01*
X0122516Y0100838D01*
X0121800Y0102565D01*
X0121800Y0110435D01*
X0122516Y0112162D01*
X0123838Y0113484D01*
X0125565Y0114200D01*
X0127435Y0114200D01*
X0129162Y0113484D01*
X0130312Y0112335D02*
X0132688Y0112335D01*
X0132173Y0111336D02*
X0130827Y0111336D01*
X0131200Y0110338D02*
X0131800Y0110338D01*
X0131800Y0109339D02*
X0131200Y0109339D01*
X0131200Y0108341D02*
X0131800Y0108341D01*
X0131800Y0107342D02*
X0131200Y0107342D01*
X0131200Y0106344D02*
X0131800Y0106344D01*
X0131800Y0105345D02*
X0131200Y0105345D01*
X0131200Y0104347D02*
X0131800Y0104347D01*
X0131800Y0103348D02*
X0131200Y0103348D01*
X0131111Y0102350D02*
X0131889Y0102350D01*
X0132303Y0101351D02*
X0130697Y0101351D01*
X0129999Y0100353D02*
X0133001Y0100353D01*
X0134227Y0099354D02*
X0128773Y0099354D01*
X0124227Y0099354D02*
X0049400Y0099354D01*
X0049400Y0098356D02*
X0149300Y0098356D01*
X0149300Y0097357D02*
X0049400Y0097357D01*
X0049400Y0096359D02*
X0149300Y0096359D01*
X0149300Y0095360D02*
X0049400Y0095360D01*
X0049400Y0094362D02*
X0149300Y0094362D01*
X0149300Y0093363D02*
X0049701Y0093363D01*
X0050081Y0092365D02*
X0149300Y0092365D01*
X0149300Y0091366D02*
X0050081Y0091366D01*
X0050081Y0090368D02*
X0149300Y0090368D01*
X0149300Y0089369D02*
X0049433Y0089369D01*
X0048435Y0088370D02*
X0149300Y0088370D01*
X0149300Y0087372D02*
X0034487Y0087372D01*
X0034400Y0088370D02*
X0044565Y0088370D01*
X0043567Y0089369D02*
X0034400Y0089369D01*
X0034400Y0090368D02*
X0042919Y0090368D01*
X0042919Y0091366D02*
X0034400Y0091366D01*
X0034400Y0092365D02*
X0042919Y0092365D01*
X0043299Y0093363D02*
X0034400Y0093363D01*
X0034400Y0094362D02*
X0043600Y0094362D01*
X0043600Y0095360D02*
X0034461Y0095360D01*
X0035460Y0096359D02*
X0043600Y0096359D01*
X0043600Y0097357D02*
X0036458Y0097357D01*
X0037457Y0098356D02*
X0043600Y0098356D01*
X0043600Y0099354D02*
X0038455Y0099354D01*
X0039454Y0100353D02*
X0043600Y0100353D01*
X0043600Y0101351D02*
X0040452Y0101351D01*
X0041451Y0102350D02*
X0043713Y0102350D01*
X0044247Y0103348D02*
X0042449Y0103348D01*
X0043448Y0104347D02*
X0045245Y0104347D01*
X0044446Y0105345D02*
X0046244Y0105345D01*
X0045445Y0106344D02*
X0047242Y0106344D01*
X0046443Y0107342D02*
X0048241Y0107342D01*
X0047442Y0108341D02*
X0049239Y0108341D01*
X0048440Y0109339D02*
X0050238Y0109339D01*
X0049439Y0110338D02*
X0051237Y0110338D01*
X0050437Y0111336D02*
X0052235Y0111336D01*
X0051436Y0112335D02*
X0053234Y0112335D01*
X0052434Y0113333D02*
X0054232Y0113333D01*
X0053433Y0114332D02*
X0055231Y0114332D01*
X0054432Y0115330D02*
X0056229Y0115330D01*
X0055430Y0116329D02*
X0057228Y0116329D01*
X0058226Y0117327D02*
X0056212Y0117327D01*
X0056512Y0118326D02*
X0059225Y0118326D01*
X0060223Y0119324D02*
X0057328Y0119324D01*
X0057741Y0120323D02*
X0061222Y0120323D01*
X0062220Y0121321D02*
X0057800Y0121321D01*
X0057800Y0122320D02*
X0063219Y0122320D01*
X0063600Y0123318D02*
X0057800Y0123318D01*
X0057800Y0124317D02*
X0063600Y0124317D01*
X0062919Y0125315D02*
X0057800Y0125315D01*
X0057800Y0126314D02*
X0062919Y0126314D01*
X0062919Y0127312D02*
X0057800Y0127312D01*
X0057479Y0128311D02*
X0063247Y0128311D01*
X0064245Y0129309D02*
X0056877Y0129309D01*
X0050700Y0130308D02*
X0047682Y0130308D01*
X0048977Y0129309D02*
X0050323Y0129309D01*
X0049721Y0128311D02*
X0049579Y0128311D01*
X0050700Y0131306D02*
X0003500Y0131306D01*
X0003500Y0130308D02*
X0043718Y0130308D01*
X0042423Y0129309D02*
X0003500Y0129309D01*
X0003500Y0128311D02*
X0041821Y0128311D01*
X0041500Y0127312D02*
X0003500Y0127312D01*
X0003500Y0126314D02*
X0041500Y0126314D01*
X0041500Y0125315D02*
X0003500Y0125315D01*
X0003500Y0124317D02*
X0041500Y0124317D01*
X0041500Y0123318D02*
X0003500Y0123318D01*
X0003500Y0122320D02*
X0041500Y0122320D01*
X0041500Y0121321D02*
X0003500Y0121321D01*
X0003500Y0120323D02*
X0041559Y0120323D01*
X0041972Y0119324D02*
X0003500Y0119324D01*
X0003500Y0118326D02*
X0042788Y0118326D01*
X0044598Y0117327D02*
X0003500Y0117327D01*
X0003500Y0116329D02*
X0047228Y0116329D01*
X0046802Y0117327D02*
X0048226Y0117327D01*
X0048612Y0118326D02*
X0049225Y0118326D01*
X0049428Y0119324D02*
X0049872Y0119324D01*
X0046229Y0115330D02*
X0003500Y0115330D01*
X0003500Y0114332D02*
X0045231Y0114332D01*
X0044232Y0113333D02*
X0003500Y0113333D01*
X0003500Y0112335D02*
X0043234Y0112335D01*
X0042235Y0111336D02*
X0003500Y0111336D01*
X0003500Y0110338D02*
X0041237Y0110338D01*
X0040238Y0109339D02*
X0003500Y0109339D01*
X0003500Y0108341D02*
X0039239Y0108341D01*
X0038241Y0107342D02*
X0003500Y0107342D01*
X0003500Y0106344D02*
X0037242Y0106344D01*
X0036244Y0105345D02*
X0003500Y0105345D01*
X0003500Y0104347D02*
X0035245Y0104347D01*
X0034247Y0103348D02*
X0003500Y0103348D01*
X0003500Y0102350D02*
X0033248Y0102350D01*
X0032250Y0101351D02*
X0003500Y0101351D01*
X0003500Y0100353D02*
X0031251Y0100353D01*
X0030253Y0099354D02*
X0003500Y0099354D01*
X0003500Y0098356D02*
X0029254Y0098356D01*
X0028716Y0097357D02*
X0003500Y0097357D01*
X0003500Y0096359D02*
X0028600Y0096359D01*
X0028600Y0095360D02*
X0003500Y0095360D01*
X0003500Y0094362D02*
X0028600Y0094362D01*
X0028600Y0093363D02*
X0003500Y0093363D01*
X0003500Y0092365D02*
X0028600Y0092365D01*
X0028600Y0091366D02*
X0003500Y0091366D01*
X0003500Y0090368D02*
X0028600Y0090368D01*
X0028600Y0089369D02*
X0003500Y0089369D01*
X0003500Y0088370D02*
X0028600Y0088370D01*
X0028513Y0087372D02*
X0003500Y0087372D01*
X0003500Y0086373D02*
X0027515Y0086373D01*
X0027027Y0085375D02*
X0003500Y0085375D01*
X0003500Y0084376D02*
X0026650Y0084376D01*
X0026650Y0083378D02*
X0003500Y0083378D01*
X0003500Y0082379D02*
X0026715Y0082379D01*
X0027128Y0081381D02*
X0003500Y0081381D01*
X0003500Y0080382D02*
X0027759Y0080382D01*
X0028763Y0079384D02*
X0003500Y0079384D01*
X0035485Y0086373D02*
X0149300Y0086373D01*
X0149300Y0085375D02*
X0035973Y0085375D01*
X0049454Y0100353D02*
X0123001Y0100353D01*
X0122303Y0101351D02*
X0050452Y0101351D01*
X0051451Y0102350D02*
X0121889Y0102350D01*
X0121800Y0103348D02*
X0052449Y0103348D01*
X0053448Y0104347D02*
X0121800Y0104347D01*
X0121800Y0105345D02*
X0054446Y0105345D01*
X0055445Y0106344D02*
X0121800Y0106344D01*
X0121800Y0107342D02*
X0056443Y0107342D01*
X0057442Y0108341D02*
X0121800Y0108341D01*
X0121800Y0109339D02*
X0058440Y0109339D01*
X0059439Y0110338D02*
X0121800Y0110338D01*
X0122173Y0111336D02*
X0060437Y0111336D01*
X0061436Y0112335D02*
X0122688Y0112335D01*
X0123686Y0113333D02*
X0062434Y0113333D01*
X0063433Y0114332D02*
X0149300Y0114332D01*
X0149300Y0115330D02*
X0064432Y0115330D01*
X0050700Y0132305D02*
X0003500Y0132305D01*
X0003500Y0133303D02*
X0050700Y0133303D01*
X0049597Y0134302D02*
X0045958Y0134302D01*
X0037042Y0134302D02*
X0030958Y0134302D01*
X0022042Y0134302D02*
X0003500Y0134302D01*
X0003500Y0135301D02*
X0021847Y0135301D01*
X0021847Y0136299D02*
X0003500Y0136299D01*
X0003500Y0137298D02*
X0021847Y0137298D01*
X0021847Y0138296D02*
X0003500Y0138296D01*
X0003500Y0139295D02*
X0021847Y0139295D01*
X0021847Y0140293D02*
X0003500Y0140293D01*
X0003500Y0141292D02*
X0022116Y0141292D01*
X0021847Y0142290D02*
X0003500Y0142290D01*
X0003500Y0143289D02*
X0021847Y0143289D01*
X0021847Y0144287D02*
X0003500Y0144287D01*
X0003500Y0145286D02*
X0021847Y0145286D01*
X0021847Y0146284D02*
X0003500Y0146284D01*
X0003500Y0147283D02*
X0021847Y0147283D01*
X0021847Y0148281D02*
X0003500Y0148281D01*
X0003500Y0149280D02*
X0022624Y0149280D01*
X0026177Y0150278D02*
X0003500Y0150278D01*
X0003500Y0151277D02*
X0027175Y0151277D01*
X0028174Y0152275D02*
X0003500Y0152275D01*
X0003500Y0153274D02*
X0029173Y0153274D01*
X0030171Y0154272D02*
X0003500Y0154272D01*
X0003500Y0155271D02*
X0031170Y0155271D01*
X0032168Y0156269D02*
X0003500Y0156269D01*
X0003500Y0157268D02*
X0026500Y0157268D01*
X0026500Y0158266D02*
X0003500Y0158266D01*
X0003500Y0159265D02*
X0026500Y0159265D01*
X0026500Y0160263D02*
X0003500Y0160263D01*
X0003500Y0161262D02*
X0026500Y0161262D01*
X0026500Y0162260D02*
X0003500Y0162260D01*
X0003500Y0163259D02*
X0026500Y0163259D01*
X0026500Y0164257D02*
X0003500Y0164257D01*
X0003500Y0165256D02*
X0026500Y0165256D01*
X0026500Y0166254D02*
X0003500Y0166254D01*
X0003500Y0167253D02*
X0026500Y0167253D01*
X0026500Y0168251D02*
X0003500Y0168251D01*
X0003500Y0169250D02*
X0026500Y0169250D01*
X0026500Y0170248D02*
X0003500Y0170248D01*
X0003500Y0171247D02*
X0026500Y0171247D01*
X0026500Y0172245D02*
X0003500Y0172245D01*
X0003500Y0173244D02*
X0026500Y0173244D01*
X0026500Y0174242D02*
X0003500Y0174242D01*
X0003500Y0175241D02*
X0026500Y0175241D01*
X0026500Y0176239D02*
X0003500Y0176239D01*
X0003500Y0177238D02*
X0026500Y0177238D01*
X0026500Y0178237D02*
X0003500Y0178237D01*
X0003500Y0179235D02*
X0026500Y0179235D01*
X0026500Y0180234D02*
X0003500Y0180234D01*
X0003500Y0181232D02*
X0026500Y0181232D01*
X0026500Y0182231D02*
X0003500Y0182231D01*
X0003500Y0183229D02*
X0009781Y0183229D01*
X0007370Y0184228D02*
X0003500Y0184228D01*
X0003500Y0185226D02*
X0006037Y0185226D01*
X0005039Y0186225D02*
X0003500Y0186225D01*
X0003500Y0187223D02*
X0004289Y0187223D01*
X0003875Y0188222D02*
X0003500Y0188222D01*
X0013219Y0183229D02*
X0026500Y0183229D01*
X0026500Y0184228D02*
X0015630Y0184228D01*
X0016963Y0185226D02*
X0026500Y0185226D01*
X0026500Y0186225D02*
X0017961Y0186225D01*
X0018711Y0187223D02*
X0026500Y0187223D01*
X0026500Y0188222D02*
X0019125Y0188222D01*
X0019539Y0189220D02*
X0026500Y0189220D01*
X0026500Y0190219D02*
X0019799Y0190219D01*
X0019799Y0191217D02*
X0026500Y0191217D01*
X0026500Y0192216D02*
X0019799Y0192216D01*
X0019773Y0193214D02*
X0026500Y0193214D01*
X0026500Y0194213D02*
X0019359Y0194213D01*
X0018946Y0195211D02*
X0026500Y0195211D01*
X0026500Y0196210D02*
X0018527Y0196210D01*
X0017529Y0197208D02*
X0026500Y0197208D01*
X0074400Y0156269D02*
X0194421Y0156269D01*
X0194421Y0155271D02*
X0074400Y0155271D01*
X0074400Y0154272D02*
X0194421Y0154272D01*
X0194421Y0153274D02*
X0074400Y0153274D01*
X0074400Y0152275D02*
X0194421Y0152275D01*
X0194421Y0151277D02*
X0184647Y0151277D01*
X0186136Y0150278D02*
X0194421Y0150278D01*
X0194421Y0149280D02*
X0187029Y0149280D01*
X0187443Y0148281D02*
X0194421Y0148281D01*
X0194421Y0147283D02*
X0187750Y0147283D01*
X0187750Y0146284D02*
X0194421Y0146284D01*
X0194421Y0145286D02*
X0187677Y0145286D01*
X0187264Y0144287D02*
X0194421Y0144287D01*
X0194421Y0143289D02*
X0186703Y0143289D01*
X0185704Y0142290D02*
X0194421Y0142290D01*
X0194421Y0141292D02*
X0183604Y0141292D01*
X0174396Y0141292D02*
X0140845Y0141292D01*
X0141200Y0140293D02*
X0194421Y0140293D01*
X0194421Y0139295D02*
X0141200Y0139295D01*
X0140357Y0142290D02*
X0172296Y0142290D01*
X0170323Y0145286D02*
X0076153Y0145286D01*
X0076153Y0146284D02*
X0170250Y0146284D01*
X0170250Y0147283D02*
X0076153Y0147283D01*
X0076153Y0148281D02*
X0170557Y0148281D01*
X0170971Y0149280D02*
X0075376Y0149280D01*
X0074400Y0150278D02*
X0171864Y0150278D01*
X0173353Y0151277D02*
X0074400Y0151277D01*
X0067042Y0134302D02*
X0060958Y0134302D01*
X0084409Y0130308D02*
X0097018Y0130308D01*
X0095723Y0129309D02*
X0084400Y0129309D01*
X0084400Y0128311D02*
X0095121Y0128311D01*
X0094800Y0127312D02*
X0084400Y0127312D01*
X0084400Y0126314D02*
X0094800Y0126314D01*
X0094800Y0125315D02*
X0084400Y0125315D01*
X0084400Y0124317D02*
X0094800Y0124317D01*
X0094800Y0123318D02*
X0084746Y0123318D01*
X0085081Y0122320D02*
X0094800Y0122320D01*
X0094800Y0121321D02*
X0085081Y0121321D01*
X0085081Y0120323D02*
X0094859Y0120323D01*
X0095272Y0119324D02*
X0084389Y0119324D01*
X0085408Y0131306D02*
X0122321Y0131306D01*
X0121908Y0132305D02*
X0086406Y0132305D01*
X0087405Y0133303D02*
X0121800Y0133303D01*
X0121800Y0134302D02*
X0090958Y0134302D01*
X0091153Y0135301D02*
X0121800Y0135301D01*
X0121800Y0136299D02*
X0091153Y0136299D01*
X0091153Y0137298D02*
X0121800Y0137298D01*
X0121800Y0138296D02*
X0091153Y0138296D01*
X0091153Y0139295D02*
X0121800Y0139295D01*
X0121800Y0140293D02*
X0091153Y0140293D01*
X0090884Y0141292D02*
X0122155Y0141292D01*
X0129358Y0143289D02*
X0133642Y0143289D01*
X0132643Y0142290D02*
X0130357Y0142290D01*
X0130845Y0141292D02*
X0132155Y0141292D01*
X0131800Y0140293D02*
X0131200Y0140293D01*
X0131200Y0139295D02*
X0131800Y0139295D01*
X0131800Y0138296D02*
X0131200Y0138296D01*
X0131200Y0137298D02*
X0131800Y0137298D01*
X0131800Y0136299D02*
X0131200Y0136299D01*
X0131200Y0135301D02*
X0131800Y0135301D01*
X0131800Y0134302D02*
X0131200Y0134302D01*
X0131200Y0133303D02*
X0131800Y0133303D01*
X0131908Y0132305D02*
X0131092Y0132305D01*
X0130679Y0131306D02*
X0132321Y0131306D01*
X0133045Y0130308D02*
X0129955Y0130308D01*
X0128665Y0129309D02*
X0134335Y0129309D01*
X0124335Y0129309D02*
X0102277Y0129309D01*
X0100982Y0130308D02*
X0123045Y0130308D01*
X0091500Y0157268D02*
X0194421Y0157268D01*
X0194421Y0158266D02*
X0091500Y0158266D01*
X0091500Y0175241D02*
X0194421Y0175241D01*
X0194421Y0176239D02*
X0091500Y0176239D01*
X0091500Y0177238D02*
X0194421Y0177238D01*
X0051887Y0055420D02*
X0047413Y0055420D01*
X0048865Y0054421D02*
X0050435Y0054421D01*
X0049767Y0053423D02*
X0049533Y0053423D01*
M02*
