%
M48
M72
T01C0.02362
T02C0.03200
T03C0.04000
T04C0.04700
T05C0.12598
%
T01
X16500Y166500
X36500Y166500
X46500Y171500
X61500Y166500
X86500Y186500
X121500Y156500
X116500Y126500
X101500Y121500
X116500Y96500
X121500Y66500
X71500Y126500
X36500Y111500
X11500Y141500
X36500Y76500
T02
X21500Y98500
X21500Y84500
X51500Y36500
X61500Y36500
T03
X101500Y196500
X111500Y196500
X121500Y196500
X131500Y196500
X126500Y171500
X136500Y171500
X146500Y171500
X146500Y141500
X136500Y141500
X126500Y141500
X126500Y111500
X136500Y111500
X146500Y111500
X146500Y81500
X136500Y81500
X126500Y81500
X126500Y51500
X136500Y51500
X146500Y51500
T04
X86500Y24000
X106500Y24000
X179000Y41500
X179000Y61500
X179000Y81500
X179000Y101500
X179000Y131500
X179000Y151500
X179000Y171500
T05
X11500Y16500
X11500Y196500
X186500Y196500
X186500Y16500
M30
