G75*
%MOIN*%
%OFA0B0*%
%FSLAX25Y25*%
%IPPOS*%
%LPD*%
%AMOC8*
5,1,8,0,0,1.08239X$1,22.5*
%
%ADD10C,0.00000*%
%ADD11R,0.05906X0.05118*%
%ADD12R,0.05118X0.05906*%
%ADD13R,0.06299X0.09055*%
D10*
X0025347Y0025014D02*
X0025741Y0233557D01*
X0210426Y0233557D01*
X0210426Y0025014D01*
X0025347Y0025014D01*
X0032985Y0036195D02*
X0032987Y0036353D01*
X0032993Y0036511D01*
X0033003Y0036669D01*
X0033017Y0036827D01*
X0033035Y0036984D01*
X0033056Y0037141D01*
X0033082Y0037297D01*
X0033112Y0037453D01*
X0033145Y0037608D01*
X0033183Y0037761D01*
X0033224Y0037914D01*
X0033269Y0038066D01*
X0033318Y0038217D01*
X0033371Y0038366D01*
X0033427Y0038514D01*
X0033487Y0038660D01*
X0033551Y0038805D01*
X0033619Y0038948D01*
X0033690Y0039090D01*
X0033764Y0039230D01*
X0033842Y0039367D01*
X0033924Y0039503D01*
X0034008Y0039637D01*
X0034097Y0039768D01*
X0034188Y0039897D01*
X0034283Y0040024D01*
X0034380Y0040149D01*
X0034481Y0040271D01*
X0034585Y0040390D01*
X0034692Y0040507D01*
X0034802Y0040621D01*
X0034915Y0040732D01*
X0035030Y0040841D01*
X0035148Y0040946D01*
X0035269Y0041048D01*
X0035392Y0041148D01*
X0035518Y0041244D01*
X0035646Y0041337D01*
X0035776Y0041427D01*
X0035909Y0041513D01*
X0036044Y0041597D01*
X0036180Y0041676D01*
X0036319Y0041753D01*
X0036460Y0041825D01*
X0036602Y0041895D01*
X0036746Y0041960D01*
X0036892Y0042022D01*
X0037039Y0042080D01*
X0037188Y0042135D01*
X0037338Y0042186D01*
X0037489Y0042233D01*
X0037641Y0042276D01*
X0037794Y0042315D01*
X0037949Y0042351D01*
X0038104Y0042382D01*
X0038260Y0042410D01*
X0038416Y0042434D01*
X0038573Y0042454D01*
X0038731Y0042470D01*
X0038888Y0042482D01*
X0039047Y0042490D01*
X0039205Y0042494D01*
X0039363Y0042494D01*
X0039521Y0042490D01*
X0039680Y0042482D01*
X0039837Y0042470D01*
X0039995Y0042454D01*
X0040152Y0042434D01*
X0040308Y0042410D01*
X0040464Y0042382D01*
X0040619Y0042351D01*
X0040774Y0042315D01*
X0040927Y0042276D01*
X0041079Y0042233D01*
X0041230Y0042186D01*
X0041380Y0042135D01*
X0041529Y0042080D01*
X0041676Y0042022D01*
X0041822Y0041960D01*
X0041966Y0041895D01*
X0042108Y0041825D01*
X0042249Y0041753D01*
X0042388Y0041676D01*
X0042524Y0041597D01*
X0042659Y0041513D01*
X0042792Y0041427D01*
X0042922Y0041337D01*
X0043050Y0041244D01*
X0043176Y0041148D01*
X0043299Y0041048D01*
X0043420Y0040946D01*
X0043538Y0040841D01*
X0043653Y0040732D01*
X0043766Y0040621D01*
X0043876Y0040507D01*
X0043983Y0040390D01*
X0044087Y0040271D01*
X0044188Y0040149D01*
X0044285Y0040024D01*
X0044380Y0039897D01*
X0044471Y0039768D01*
X0044560Y0039637D01*
X0044644Y0039503D01*
X0044726Y0039367D01*
X0044804Y0039230D01*
X0044878Y0039090D01*
X0044949Y0038948D01*
X0045017Y0038805D01*
X0045081Y0038660D01*
X0045141Y0038514D01*
X0045197Y0038366D01*
X0045250Y0038217D01*
X0045299Y0038066D01*
X0045344Y0037914D01*
X0045385Y0037761D01*
X0045423Y0037608D01*
X0045456Y0037453D01*
X0045486Y0037297D01*
X0045512Y0037141D01*
X0045533Y0036984D01*
X0045551Y0036827D01*
X0045565Y0036669D01*
X0045575Y0036511D01*
X0045581Y0036353D01*
X0045583Y0036195D01*
X0045581Y0036037D01*
X0045575Y0035879D01*
X0045565Y0035721D01*
X0045551Y0035563D01*
X0045533Y0035406D01*
X0045512Y0035249D01*
X0045486Y0035093D01*
X0045456Y0034937D01*
X0045423Y0034782D01*
X0045385Y0034629D01*
X0045344Y0034476D01*
X0045299Y0034324D01*
X0045250Y0034173D01*
X0045197Y0034024D01*
X0045141Y0033876D01*
X0045081Y0033730D01*
X0045017Y0033585D01*
X0044949Y0033442D01*
X0044878Y0033300D01*
X0044804Y0033160D01*
X0044726Y0033023D01*
X0044644Y0032887D01*
X0044560Y0032753D01*
X0044471Y0032622D01*
X0044380Y0032493D01*
X0044285Y0032366D01*
X0044188Y0032241D01*
X0044087Y0032119D01*
X0043983Y0032000D01*
X0043876Y0031883D01*
X0043766Y0031769D01*
X0043653Y0031658D01*
X0043538Y0031549D01*
X0043420Y0031444D01*
X0043299Y0031342D01*
X0043176Y0031242D01*
X0043050Y0031146D01*
X0042922Y0031053D01*
X0042792Y0030963D01*
X0042659Y0030877D01*
X0042524Y0030793D01*
X0042388Y0030714D01*
X0042249Y0030637D01*
X0042108Y0030565D01*
X0041966Y0030495D01*
X0041822Y0030430D01*
X0041676Y0030368D01*
X0041529Y0030310D01*
X0041380Y0030255D01*
X0041230Y0030204D01*
X0041079Y0030157D01*
X0040927Y0030114D01*
X0040774Y0030075D01*
X0040619Y0030039D01*
X0040464Y0030008D01*
X0040308Y0029980D01*
X0040152Y0029956D01*
X0039995Y0029936D01*
X0039837Y0029920D01*
X0039680Y0029908D01*
X0039521Y0029900D01*
X0039363Y0029896D01*
X0039205Y0029896D01*
X0039047Y0029900D01*
X0038888Y0029908D01*
X0038731Y0029920D01*
X0038573Y0029936D01*
X0038416Y0029956D01*
X0038260Y0029980D01*
X0038104Y0030008D01*
X0037949Y0030039D01*
X0037794Y0030075D01*
X0037641Y0030114D01*
X0037489Y0030157D01*
X0037338Y0030204D01*
X0037188Y0030255D01*
X0037039Y0030310D01*
X0036892Y0030368D01*
X0036746Y0030430D01*
X0036602Y0030495D01*
X0036460Y0030565D01*
X0036319Y0030637D01*
X0036180Y0030714D01*
X0036044Y0030793D01*
X0035909Y0030877D01*
X0035776Y0030963D01*
X0035646Y0031053D01*
X0035518Y0031146D01*
X0035392Y0031242D01*
X0035269Y0031342D01*
X0035148Y0031444D01*
X0035030Y0031549D01*
X0034915Y0031658D01*
X0034802Y0031769D01*
X0034692Y0031883D01*
X0034585Y0032000D01*
X0034481Y0032119D01*
X0034380Y0032241D01*
X0034283Y0032366D01*
X0034188Y0032493D01*
X0034097Y0032622D01*
X0034008Y0032753D01*
X0033924Y0032887D01*
X0033842Y0033023D01*
X0033764Y0033160D01*
X0033690Y0033300D01*
X0033619Y0033442D01*
X0033551Y0033585D01*
X0033487Y0033730D01*
X0033427Y0033876D01*
X0033371Y0034024D01*
X0033318Y0034173D01*
X0033269Y0034324D01*
X0033224Y0034476D01*
X0033183Y0034629D01*
X0033145Y0034782D01*
X0033112Y0034937D01*
X0033082Y0035093D01*
X0033056Y0035249D01*
X0033035Y0035406D01*
X0033017Y0035563D01*
X0033003Y0035721D01*
X0032993Y0035879D01*
X0032987Y0036037D01*
X0032985Y0036195D01*
X0190269Y0036195D02*
X0190271Y0036353D01*
X0190277Y0036511D01*
X0190287Y0036669D01*
X0190301Y0036827D01*
X0190319Y0036984D01*
X0190340Y0037141D01*
X0190366Y0037297D01*
X0190396Y0037453D01*
X0190429Y0037608D01*
X0190467Y0037761D01*
X0190508Y0037914D01*
X0190553Y0038066D01*
X0190602Y0038217D01*
X0190655Y0038366D01*
X0190711Y0038514D01*
X0190771Y0038660D01*
X0190835Y0038805D01*
X0190903Y0038948D01*
X0190974Y0039090D01*
X0191048Y0039230D01*
X0191126Y0039367D01*
X0191208Y0039503D01*
X0191292Y0039637D01*
X0191381Y0039768D01*
X0191472Y0039897D01*
X0191567Y0040024D01*
X0191664Y0040149D01*
X0191765Y0040271D01*
X0191869Y0040390D01*
X0191976Y0040507D01*
X0192086Y0040621D01*
X0192199Y0040732D01*
X0192314Y0040841D01*
X0192432Y0040946D01*
X0192553Y0041048D01*
X0192676Y0041148D01*
X0192802Y0041244D01*
X0192930Y0041337D01*
X0193060Y0041427D01*
X0193193Y0041513D01*
X0193328Y0041597D01*
X0193464Y0041676D01*
X0193603Y0041753D01*
X0193744Y0041825D01*
X0193886Y0041895D01*
X0194030Y0041960D01*
X0194176Y0042022D01*
X0194323Y0042080D01*
X0194472Y0042135D01*
X0194622Y0042186D01*
X0194773Y0042233D01*
X0194925Y0042276D01*
X0195078Y0042315D01*
X0195233Y0042351D01*
X0195388Y0042382D01*
X0195544Y0042410D01*
X0195700Y0042434D01*
X0195857Y0042454D01*
X0196015Y0042470D01*
X0196172Y0042482D01*
X0196331Y0042490D01*
X0196489Y0042494D01*
X0196647Y0042494D01*
X0196805Y0042490D01*
X0196964Y0042482D01*
X0197121Y0042470D01*
X0197279Y0042454D01*
X0197436Y0042434D01*
X0197592Y0042410D01*
X0197748Y0042382D01*
X0197903Y0042351D01*
X0198058Y0042315D01*
X0198211Y0042276D01*
X0198363Y0042233D01*
X0198514Y0042186D01*
X0198664Y0042135D01*
X0198813Y0042080D01*
X0198960Y0042022D01*
X0199106Y0041960D01*
X0199250Y0041895D01*
X0199392Y0041825D01*
X0199533Y0041753D01*
X0199672Y0041676D01*
X0199808Y0041597D01*
X0199943Y0041513D01*
X0200076Y0041427D01*
X0200206Y0041337D01*
X0200334Y0041244D01*
X0200460Y0041148D01*
X0200583Y0041048D01*
X0200704Y0040946D01*
X0200822Y0040841D01*
X0200937Y0040732D01*
X0201050Y0040621D01*
X0201160Y0040507D01*
X0201267Y0040390D01*
X0201371Y0040271D01*
X0201472Y0040149D01*
X0201569Y0040024D01*
X0201664Y0039897D01*
X0201755Y0039768D01*
X0201844Y0039637D01*
X0201928Y0039503D01*
X0202010Y0039367D01*
X0202088Y0039230D01*
X0202162Y0039090D01*
X0202233Y0038948D01*
X0202301Y0038805D01*
X0202365Y0038660D01*
X0202425Y0038514D01*
X0202481Y0038366D01*
X0202534Y0038217D01*
X0202583Y0038066D01*
X0202628Y0037914D01*
X0202669Y0037761D01*
X0202707Y0037608D01*
X0202740Y0037453D01*
X0202770Y0037297D01*
X0202796Y0037141D01*
X0202817Y0036984D01*
X0202835Y0036827D01*
X0202849Y0036669D01*
X0202859Y0036511D01*
X0202865Y0036353D01*
X0202867Y0036195D01*
X0202865Y0036037D01*
X0202859Y0035879D01*
X0202849Y0035721D01*
X0202835Y0035563D01*
X0202817Y0035406D01*
X0202796Y0035249D01*
X0202770Y0035093D01*
X0202740Y0034937D01*
X0202707Y0034782D01*
X0202669Y0034629D01*
X0202628Y0034476D01*
X0202583Y0034324D01*
X0202534Y0034173D01*
X0202481Y0034024D01*
X0202425Y0033876D01*
X0202365Y0033730D01*
X0202301Y0033585D01*
X0202233Y0033442D01*
X0202162Y0033300D01*
X0202088Y0033160D01*
X0202010Y0033023D01*
X0201928Y0032887D01*
X0201844Y0032753D01*
X0201755Y0032622D01*
X0201664Y0032493D01*
X0201569Y0032366D01*
X0201472Y0032241D01*
X0201371Y0032119D01*
X0201267Y0032000D01*
X0201160Y0031883D01*
X0201050Y0031769D01*
X0200937Y0031658D01*
X0200822Y0031549D01*
X0200704Y0031444D01*
X0200583Y0031342D01*
X0200460Y0031242D01*
X0200334Y0031146D01*
X0200206Y0031053D01*
X0200076Y0030963D01*
X0199943Y0030877D01*
X0199808Y0030793D01*
X0199672Y0030714D01*
X0199533Y0030637D01*
X0199392Y0030565D01*
X0199250Y0030495D01*
X0199106Y0030430D01*
X0198960Y0030368D01*
X0198813Y0030310D01*
X0198664Y0030255D01*
X0198514Y0030204D01*
X0198363Y0030157D01*
X0198211Y0030114D01*
X0198058Y0030075D01*
X0197903Y0030039D01*
X0197748Y0030008D01*
X0197592Y0029980D01*
X0197436Y0029956D01*
X0197279Y0029936D01*
X0197121Y0029920D01*
X0196964Y0029908D01*
X0196805Y0029900D01*
X0196647Y0029896D01*
X0196489Y0029896D01*
X0196331Y0029900D01*
X0196172Y0029908D01*
X0196015Y0029920D01*
X0195857Y0029936D01*
X0195700Y0029956D01*
X0195544Y0029980D01*
X0195388Y0030008D01*
X0195233Y0030039D01*
X0195078Y0030075D01*
X0194925Y0030114D01*
X0194773Y0030157D01*
X0194622Y0030204D01*
X0194472Y0030255D01*
X0194323Y0030310D01*
X0194176Y0030368D01*
X0194030Y0030430D01*
X0193886Y0030495D01*
X0193744Y0030565D01*
X0193603Y0030637D01*
X0193464Y0030714D01*
X0193328Y0030793D01*
X0193193Y0030877D01*
X0193060Y0030963D01*
X0192930Y0031053D01*
X0192802Y0031146D01*
X0192676Y0031242D01*
X0192553Y0031342D01*
X0192432Y0031444D01*
X0192314Y0031549D01*
X0192199Y0031658D01*
X0192086Y0031769D01*
X0191976Y0031883D01*
X0191869Y0032000D01*
X0191765Y0032119D01*
X0191664Y0032241D01*
X0191567Y0032366D01*
X0191472Y0032493D01*
X0191381Y0032622D01*
X0191292Y0032753D01*
X0191208Y0032887D01*
X0191126Y0033023D01*
X0191048Y0033160D01*
X0190974Y0033300D01*
X0190903Y0033442D01*
X0190835Y0033585D01*
X0190771Y0033730D01*
X0190711Y0033876D01*
X0190655Y0034024D01*
X0190602Y0034173D01*
X0190553Y0034324D01*
X0190508Y0034476D01*
X0190467Y0034629D01*
X0190429Y0034782D01*
X0190396Y0034937D01*
X0190366Y0035093D01*
X0190340Y0035249D01*
X0190319Y0035406D01*
X0190301Y0035563D01*
X0190287Y0035721D01*
X0190277Y0035879D01*
X0190271Y0036037D01*
X0190269Y0036195D01*
X0190269Y0223282D02*
X0190271Y0223440D01*
X0190277Y0223598D01*
X0190287Y0223756D01*
X0190301Y0223914D01*
X0190319Y0224071D01*
X0190340Y0224228D01*
X0190366Y0224384D01*
X0190396Y0224540D01*
X0190429Y0224695D01*
X0190467Y0224848D01*
X0190508Y0225001D01*
X0190553Y0225153D01*
X0190602Y0225304D01*
X0190655Y0225453D01*
X0190711Y0225601D01*
X0190771Y0225747D01*
X0190835Y0225892D01*
X0190903Y0226035D01*
X0190974Y0226177D01*
X0191048Y0226317D01*
X0191126Y0226454D01*
X0191208Y0226590D01*
X0191292Y0226724D01*
X0191381Y0226855D01*
X0191472Y0226984D01*
X0191567Y0227111D01*
X0191664Y0227236D01*
X0191765Y0227358D01*
X0191869Y0227477D01*
X0191976Y0227594D01*
X0192086Y0227708D01*
X0192199Y0227819D01*
X0192314Y0227928D01*
X0192432Y0228033D01*
X0192553Y0228135D01*
X0192676Y0228235D01*
X0192802Y0228331D01*
X0192930Y0228424D01*
X0193060Y0228514D01*
X0193193Y0228600D01*
X0193328Y0228684D01*
X0193464Y0228763D01*
X0193603Y0228840D01*
X0193744Y0228912D01*
X0193886Y0228982D01*
X0194030Y0229047D01*
X0194176Y0229109D01*
X0194323Y0229167D01*
X0194472Y0229222D01*
X0194622Y0229273D01*
X0194773Y0229320D01*
X0194925Y0229363D01*
X0195078Y0229402D01*
X0195233Y0229438D01*
X0195388Y0229469D01*
X0195544Y0229497D01*
X0195700Y0229521D01*
X0195857Y0229541D01*
X0196015Y0229557D01*
X0196172Y0229569D01*
X0196331Y0229577D01*
X0196489Y0229581D01*
X0196647Y0229581D01*
X0196805Y0229577D01*
X0196964Y0229569D01*
X0197121Y0229557D01*
X0197279Y0229541D01*
X0197436Y0229521D01*
X0197592Y0229497D01*
X0197748Y0229469D01*
X0197903Y0229438D01*
X0198058Y0229402D01*
X0198211Y0229363D01*
X0198363Y0229320D01*
X0198514Y0229273D01*
X0198664Y0229222D01*
X0198813Y0229167D01*
X0198960Y0229109D01*
X0199106Y0229047D01*
X0199250Y0228982D01*
X0199392Y0228912D01*
X0199533Y0228840D01*
X0199672Y0228763D01*
X0199808Y0228684D01*
X0199943Y0228600D01*
X0200076Y0228514D01*
X0200206Y0228424D01*
X0200334Y0228331D01*
X0200460Y0228235D01*
X0200583Y0228135D01*
X0200704Y0228033D01*
X0200822Y0227928D01*
X0200937Y0227819D01*
X0201050Y0227708D01*
X0201160Y0227594D01*
X0201267Y0227477D01*
X0201371Y0227358D01*
X0201472Y0227236D01*
X0201569Y0227111D01*
X0201664Y0226984D01*
X0201755Y0226855D01*
X0201844Y0226724D01*
X0201928Y0226590D01*
X0202010Y0226454D01*
X0202088Y0226317D01*
X0202162Y0226177D01*
X0202233Y0226035D01*
X0202301Y0225892D01*
X0202365Y0225747D01*
X0202425Y0225601D01*
X0202481Y0225453D01*
X0202534Y0225304D01*
X0202583Y0225153D01*
X0202628Y0225001D01*
X0202669Y0224848D01*
X0202707Y0224695D01*
X0202740Y0224540D01*
X0202770Y0224384D01*
X0202796Y0224228D01*
X0202817Y0224071D01*
X0202835Y0223914D01*
X0202849Y0223756D01*
X0202859Y0223598D01*
X0202865Y0223440D01*
X0202867Y0223282D01*
X0202865Y0223124D01*
X0202859Y0222966D01*
X0202849Y0222808D01*
X0202835Y0222650D01*
X0202817Y0222493D01*
X0202796Y0222336D01*
X0202770Y0222180D01*
X0202740Y0222024D01*
X0202707Y0221869D01*
X0202669Y0221716D01*
X0202628Y0221563D01*
X0202583Y0221411D01*
X0202534Y0221260D01*
X0202481Y0221111D01*
X0202425Y0220963D01*
X0202365Y0220817D01*
X0202301Y0220672D01*
X0202233Y0220529D01*
X0202162Y0220387D01*
X0202088Y0220247D01*
X0202010Y0220110D01*
X0201928Y0219974D01*
X0201844Y0219840D01*
X0201755Y0219709D01*
X0201664Y0219580D01*
X0201569Y0219453D01*
X0201472Y0219328D01*
X0201371Y0219206D01*
X0201267Y0219087D01*
X0201160Y0218970D01*
X0201050Y0218856D01*
X0200937Y0218745D01*
X0200822Y0218636D01*
X0200704Y0218531D01*
X0200583Y0218429D01*
X0200460Y0218329D01*
X0200334Y0218233D01*
X0200206Y0218140D01*
X0200076Y0218050D01*
X0199943Y0217964D01*
X0199808Y0217880D01*
X0199672Y0217801D01*
X0199533Y0217724D01*
X0199392Y0217652D01*
X0199250Y0217582D01*
X0199106Y0217517D01*
X0198960Y0217455D01*
X0198813Y0217397D01*
X0198664Y0217342D01*
X0198514Y0217291D01*
X0198363Y0217244D01*
X0198211Y0217201D01*
X0198058Y0217162D01*
X0197903Y0217126D01*
X0197748Y0217095D01*
X0197592Y0217067D01*
X0197436Y0217043D01*
X0197279Y0217023D01*
X0197121Y0217007D01*
X0196964Y0216995D01*
X0196805Y0216987D01*
X0196647Y0216983D01*
X0196489Y0216983D01*
X0196331Y0216987D01*
X0196172Y0216995D01*
X0196015Y0217007D01*
X0195857Y0217023D01*
X0195700Y0217043D01*
X0195544Y0217067D01*
X0195388Y0217095D01*
X0195233Y0217126D01*
X0195078Y0217162D01*
X0194925Y0217201D01*
X0194773Y0217244D01*
X0194622Y0217291D01*
X0194472Y0217342D01*
X0194323Y0217397D01*
X0194176Y0217455D01*
X0194030Y0217517D01*
X0193886Y0217582D01*
X0193744Y0217652D01*
X0193603Y0217724D01*
X0193464Y0217801D01*
X0193328Y0217880D01*
X0193193Y0217964D01*
X0193060Y0218050D01*
X0192930Y0218140D01*
X0192802Y0218233D01*
X0192676Y0218329D01*
X0192553Y0218429D01*
X0192432Y0218531D01*
X0192314Y0218636D01*
X0192199Y0218745D01*
X0192086Y0218856D01*
X0191976Y0218970D01*
X0191869Y0219087D01*
X0191765Y0219206D01*
X0191664Y0219328D01*
X0191567Y0219453D01*
X0191472Y0219580D01*
X0191381Y0219709D01*
X0191292Y0219840D01*
X0191208Y0219974D01*
X0191126Y0220110D01*
X0191048Y0220247D01*
X0190974Y0220387D01*
X0190903Y0220529D01*
X0190835Y0220672D01*
X0190771Y0220817D01*
X0190711Y0220963D01*
X0190655Y0221111D01*
X0190602Y0221260D01*
X0190553Y0221411D01*
X0190508Y0221563D01*
X0190467Y0221716D01*
X0190429Y0221869D01*
X0190396Y0222024D01*
X0190366Y0222180D01*
X0190340Y0222336D01*
X0190319Y0222493D01*
X0190301Y0222650D01*
X0190287Y0222808D01*
X0190277Y0222966D01*
X0190271Y0223124D01*
X0190269Y0223282D01*
X0032592Y0223676D02*
X0032594Y0223834D01*
X0032600Y0223992D01*
X0032610Y0224150D01*
X0032624Y0224308D01*
X0032642Y0224465D01*
X0032663Y0224622D01*
X0032689Y0224778D01*
X0032719Y0224934D01*
X0032752Y0225089D01*
X0032790Y0225242D01*
X0032831Y0225395D01*
X0032876Y0225547D01*
X0032925Y0225698D01*
X0032978Y0225847D01*
X0033034Y0225995D01*
X0033094Y0226141D01*
X0033158Y0226286D01*
X0033226Y0226429D01*
X0033297Y0226571D01*
X0033371Y0226711D01*
X0033449Y0226848D01*
X0033531Y0226984D01*
X0033615Y0227118D01*
X0033704Y0227249D01*
X0033795Y0227378D01*
X0033890Y0227505D01*
X0033987Y0227630D01*
X0034088Y0227752D01*
X0034192Y0227871D01*
X0034299Y0227988D01*
X0034409Y0228102D01*
X0034522Y0228213D01*
X0034637Y0228322D01*
X0034755Y0228427D01*
X0034876Y0228529D01*
X0034999Y0228629D01*
X0035125Y0228725D01*
X0035253Y0228818D01*
X0035383Y0228908D01*
X0035516Y0228994D01*
X0035651Y0229078D01*
X0035787Y0229157D01*
X0035926Y0229234D01*
X0036067Y0229306D01*
X0036209Y0229376D01*
X0036353Y0229441D01*
X0036499Y0229503D01*
X0036646Y0229561D01*
X0036795Y0229616D01*
X0036945Y0229667D01*
X0037096Y0229714D01*
X0037248Y0229757D01*
X0037401Y0229796D01*
X0037556Y0229832D01*
X0037711Y0229863D01*
X0037867Y0229891D01*
X0038023Y0229915D01*
X0038180Y0229935D01*
X0038338Y0229951D01*
X0038495Y0229963D01*
X0038654Y0229971D01*
X0038812Y0229975D01*
X0038970Y0229975D01*
X0039128Y0229971D01*
X0039287Y0229963D01*
X0039444Y0229951D01*
X0039602Y0229935D01*
X0039759Y0229915D01*
X0039915Y0229891D01*
X0040071Y0229863D01*
X0040226Y0229832D01*
X0040381Y0229796D01*
X0040534Y0229757D01*
X0040686Y0229714D01*
X0040837Y0229667D01*
X0040987Y0229616D01*
X0041136Y0229561D01*
X0041283Y0229503D01*
X0041429Y0229441D01*
X0041573Y0229376D01*
X0041715Y0229306D01*
X0041856Y0229234D01*
X0041995Y0229157D01*
X0042131Y0229078D01*
X0042266Y0228994D01*
X0042399Y0228908D01*
X0042529Y0228818D01*
X0042657Y0228725D01*
X0042783Y0228629D01*
X0042906Y0228529D01*
X0043027Y0228427D01*
X0043145Y0228322D01*
X0043260Y0228213D01*
X0043373Y0228102D01*
X0043483Y0227988D01*
X0043590Y0227871D01*
X0043694Y0227752D01*
X0043795Y0227630D01*
X0043892Y0227505D01*
X0043987Y0227378D01*
X0044078Y0227249D01*
X0044167Y0227118D01*
X0044251Y0226984D01*
X0044333Y0226848D01*
X0044411Y0226711D01*
X0044485Y0226571D01*
X0044556Y0226429D01*
X0044624Y0226286D01*
X0044688Y0226141D01*
X0044748Y0225995D01*
X0044804Y0225847D01*
X0044857Y0225698D01*
X0044906Y0225547D01*
X0044951Y0225395D01*
X0044992Y0225242D01*
X0045030Y0225089D01*
X0045063Y0224934D01*
X0045093Y0224778D01*
X0045119Y0224622D01*
X0045140Y0224465D01*
X0045158Y0224308D01*
X0045172Y0224150D01*
X0045182Y0223992D01*
X0045188Y0223834D01*
X0045190Y0223676D01*
X0045188Y0223518D01*
X0045182Y0223360D01*
X0045172Y0223202D01*
X0045158Y0223044D01*
X0045140Y0222887D01*
X0045119Y0222730D01*
X0045093Y0222574D01*
X0045063Y0222418D01*
X0045030Y0222263D01*
X0044992Y0222110D01*
X0044951Y0221957D01*
X0044906Y0221805D01*
X0044857Y0221654D01*
X0044804Y0221505D01*
X0044748Y0221357D01*
X0044688Y0221211D01*
X0044624Y0221066D01*
X0044556Y0220923D01*
X0044485Y0220781D01*
X0044411Y0220641D01*
X0044333Y0220504D01*
X0044251Y0220368D01*
X0044167Y0220234D01*
X0044078Y0220103D01*
X0043987Y0219974D01*
X0043892Y0219847D01*
X0043795Y0219722D01*
X0043694Y0219600D01*
X0043590Y0219481D01*
X0043483Y0219364D01*
X0043373Y0219250D01*
X0043260Y0219139D01*
X0043145Y0219030D01*
X0043027Y0218925D01*
X0042906Y0218823D01*
X0042783Y0218723D01*
X0042657Y0218627D01*
X0042529Y0218534D01*
X0042399Y0218444D01*
X0042266Y0218358D01*
X0042131Y0218274D01*
X0041995Y0218195D01*
X0041856Y0218118D01*
X0041715Y0218046D01*
X0041573Y0217976D01*
X0041429Y0217911D01*
X0041283Y0217849D01*
X0041136Y0217791D01*
X0040987Y0217736D01*
X0040837Y0217685D01*
X0040686Y0217638D01*
X0040534Y0217595D01*
X0040381Y0217556D01*
X0040226Y0217520D01*
X0040071Y0217489D01*
X0039915Y0217461D01*
X0039759Y0217437D01*
X0039602Y0217417D01*
X0039444Y0217401D01*
X0039287Y0217389D01*
X0039128Y0217381D01*
X0038970Y0217377D01*
X0038812Y0217377D01*
X0038654Y0217381D01*
X0038495Y0217389D01*
X0038338Y0217401D01*
X0038180Y0217417D01*
X0038023Y0217437D01*
X0037867Y0217461D01*
X0037711Y0217489D01*
X0037556Y0217520D01*
X0037401Y0217556D01*
X0037248Y0217595D01*
X0037096Y0217638D01*
X0036945Y0217685D01*
X0036795Y0217736D01*
X0036646Y0217791D01*
X0036499Y0217849D01*
X0036353Y0217911D01*
X0036209Y0217976D01*
X0036067Y0218046D01*
X0035926Y0218118D01*
X0035787Y0218195D01*
X0035651Y0218274D01*
X0035516Y0218358D01*
X0035383Y0218444D01*
X0035253Y0218534D01*
X0035125Y0218627D01*
X0034999Y0218723D01*
X0034876Y0218823D01*
X0034755Y0218925D01*
X0034637Y0219030D01*
X0034522Y0219139D01*
X0034409Y0219250D01*
X0034299Y0219364D01*
X0034192Y0219481D01*
X0034088Y0219600D01*
X0033987Y0219722D01*
X0033890Y0219847D01*
X0033795Y0219974D01*
X0033704Y0220103D01*
X0033615Y0220234D01*
X0033531Y0220368D01*
X0033449Y0220504D01*
X0033371Y0220641D01*
X0033297Y0220781D01*
X0033226Y0220923D01*
X0033158Y0221066D01*
X0033094Y0221211D01*
X0033034Y0221357D01*
X0032978Y0221505D01*
X0032925Y0221654D01*
X0032876Y0221805D01*
X0032831Y0221957D01*
X0032790Y0222110D01*
X0032752Y0222263D01*
X0032719Y0222418D01*
X0032689Y0222574D01*
X0032663Y0222730D01*
X0032642Y0222887D01*
X0032624Y0223044D01*
X0032610Y0223202D01*
X0032600Y0223360D01*
X0032594Y0223518D01*
X0032592Y0223676D01*
D11*
X0060977Y0149424D03*
X0060977Y0141943D03*
X0075584Y0141943D03*
X0075584Y0149424D03*
X0089403Y0149424D03*
X0089403Y0141943D03*
X0101647Y0141943D03*
X0101647Y0149424D03*
X0139403Y0100526D03*
X0139403Y0093046D03*
D12*
X0128103Y0119620D03*
X0120623Y0119620D03*
X0117788Y0145762D03*
X0125269Y0145762D03*
X0125111Y0168951D03*
X0117631Y0168951D03*
X0118221Y0193754D03*
X0125702Y0193754D03*
X0092355Y0170542D03*
X0084875Y0170542D03*
D13*
X0035347Y0171195D03*
X0035347Y0184424D03*
X0035347Y0209227D03*
X0035347Y0146392D03*
M02*
