G75*
%MOIN*%
%OFA0B0*%
%FSLAX25Y25*%
%IPPOS*%
%LPD*%
%AMOC8*
5,1,8,0,0,1.08239X$1,22.5*
%
%ADD10C,0.00000*%
%ADD11R,0.07874X0.04724*%
%ADD12C,0.06000*%
%ADD13R,0.06299X0.09055*%
%ADD14C,0.07050*%
%ADD15R,0.05118X0.05906*%
%ADD16OC8,0.06300*%
%ADD17C,0.06300*%
%ADD18C,0.05937*%
%ADD19C,0.03562*%
%ADD20C,0.02400*%
%ADD21C,0.01200*%
%ADD22C,0.01000*%
D10*
X0025347Y0025014D02*
X0025741Y0233557D01*
X0210426Y0233557D01*
X0210426Y0025014D01*
X0025347Y0025014D01*
X0032985Y0036195D02*
X0032987Y0036353D01*
X0032993Y0036511D01*
X0033003Y0036669D01*
X0033017Y0036827D01*
X0033035Y0036984D01*
X0033056Y0037141D01*
X0033082Y0037297D01*
X0033112Y0037453D01*
X0033145Y0037608D01*
X0033183Y0037761D01*
X0033224Y0037914D01*
X0033269Y0038066D01*
X0033318Y0038217D01*
X0033371Y0038366D01*
X0033427Y0038514D01*
X0033487Y0038660D01*
X0033551Y0038805D01*
X0033619Y0038948D01*
X0033690Y0039090D01*
X0033764Y0039230D01*
X0033842Y0039367D01*
X0033924Y0039503D01*
X0034008Y0039637D01*
X0034097Y0039768D01*
X0034188Y0039897D01*
X0034283Y0040024D01*
X0034380Y0040149D01*
X0034481Y0040271D01*
X0034585Y0040390D01*
X0034692Y0040507D01*
X0034802Y0040621D01*
X0034915Y0040732D01*
X0035030Y0040841D01*
X0035148Y0040946D01*
X0035269Y0041048D01*
X0035392Y0041148D01*
X0035518Y0041244D01*
X0035646Y0041337D01*
X0035776Y0041427D01*
X0035909Y0041513D01*
X0036044Y0041597D01*
X0036180Y0041676D01*
X0036319Y0041753D01*
X0036460Y0041825D01*
X0036602Y0041895D01*
X0036746Y0041960D01*
X0036892Y0042022D01*
X0037039Y0042080D01*
X0037188Y0042135D01*
X0037338Y0042186D01*
X0037489Y0042233D01*
X0037641Y0042276D01*
X0037794Y0042315D01*
X0037949Y0042351D01*
X0038104Y0042382D01*
X0038260Y0042410D01*
X0038416Y0042434D01*
X0038573Y0042454D01*
X0038731Y0042470D01*
X0038888Y0042482D01*
X0039047Y0042490D01*
X0039205Y0042494D01*
X0039363Y0042494D01*
X0039521Y0042490D01*
X0039680Y0042482D01*
X0039837Y0042470D01*
X0039995Y0042454D01*
X0040152Y0042434D01*
X0040308Y0042410D01*
X0040464Y0042382D01*
X0040619Y0042351D01*
X0040774Y0042315D01*
X0040927Y0042276D01*
X0041079Y0042233D01*
X0041230Y0042186D01*
X0041380Y0042135D01*
X0041529Y0042080D01*
X0041676Y0042022D01*
X0041822Y0041960D01*
X0041966Y0041895D01*
X0042108Y0041825D01*
X0042249Y0041753D01*
X0042388Y0041676D01*
X0042524Y0041597D01*
X0042659Y0041513D01*
X0042792Y0041427D01*
X0042922Y0041337D01*
X0043050Y0041244D01*
X0043176Y0041148D01*
X0043299Y0041048D01*
X0043420Y0040946D01*
X0043538Y0040841D01*
X0043653Y0040732D01*
X0043766Y0040621D01*
X0043876Y0040507D01*
X0043983Y0040390D01*
X0044087Y0040271D01*
X0044188Y0040149D01*
X0044285Y0040024D01*
X0044380Y0039897D01*
X0044471Y0039768D01*
X0044560Y0039637D01*
X0044644Y0039503D01*
X0044726Y0039367D01*
X0044804Y0039230D01*
X0044878Y0039090D01*
X0044949Y0038948D01*
X0045017Y0038805D01*
X0045081Y0038660D01*
X0045141Y0038514D01*
X0045197Y0038366D01*
X0045250Y0038217D01*
X0045299Y0038066D01*
X0045344Y0037914D01*
X0045385Y0037761D01*
X0045423Y0037608D01*
X0045456Y0037453D01*
X0045486Y0037297D01*
X0045512Y0037141D01*
X0045533Y0036984D01*
X0045551Y0036827D01*
X0045565Y0036669D01*
X0045575Y0036511D01*
X0045581Y0036353D01*
X0045583Y0036195D01*
X0045581Y0036037D01*
X0045575Y0035879D01*
X0045565Y0035721D01*
X0045551Y0035563D01*
X0045533Y0035406D01*
X0045512Y0035249D01*
X0045486Y0035093D01*
X0045456Y0034937D01*
X0045423Y0034782D01*
X0045385Y0034629D01*
X0045344Y0034476D01*
X0045299Y0034324D01*
X0045250Y0034173D01*
X0045197Y0034024D01*
X0045141Y0033876D01*
X0045081Y0033730D01*
X0045017Y0033585D01*
X0044949Y0033442D01*
X0044878Y0033300D01*
X0044804Y0033160D01*
X0044726Y0033023D01*
X0044644Y0032887D01*
X0044560Y0032753D01*
X0044471Y0032622D01*
X0044380Y0032493D01*
X0044285Y0032366D01*
X0044188Y0032241D01*
X0044087Y0032119D01*
X0043983Y0032000D01*
X0043876Y0031883D01*
X0043766Y0031769D01*
X0043653Y0031658D01*
X0043538Y0031549D01*
X0043420Y0031444D01*
X0043299Y0031342D01*
X0043176Y0031242D01*
X0043050Y0031146D01*
X0042922Y0031053D01*
X0042792Y0030963D01*
X0042659Y0030877D01*
X0042524Y0030793D01*
X0042388Y0030714D01*
X0042249Y0030637D01*
X0042108Y0030565D01*
X0041966Y0030495D01*
X0041822Y0030430D01*
X0041676Y0030368D01*
X0041529Y0030310D01*
X0041380Y0030255D01*
X0041230Y0030204D01*
X0041079Y0030157D01*
X0040927Y0030114D01*
X0040774Y0030075D01*
X0040619Y0030039D01*
X0040464Y0030008D01*
X0040308Y0029980D01*
X0040152Y0029956D01*
X0039995Y0029936D01*
X0039837Y0029920D01*
X0039680Y0029908D01*
X0039521Y0029900D01*
X0039363Y0029896D01*
X0039205Y0029896D01*
X0039047Y0029900D01*
X0038888Y0029908D01*
X0038731Y0029920D01*
X0038573Y0029936D01*
X0038416Y0029956D01*
X0038260Y0029980D01*
X0038104Y0030008D01*
X0037949Y0030039D01*
X0037794Y0030075D01*
X0037641Y0030114D01*
X0037489Y0030157D01*
X0037338Y0030204D01*
X0037188Y0030255D01*
X0037039Y0030310D01*
X0036892Y0030368D01*
X0036746Y0030430D01*
X0036602Y0030495D01*
X0036460Y0030565D01*
X0036319Y0030637D01*
X0036180Y0030714D01*
X0036044Y0030793D01*
X0035909Y0030877D01*
X0035776Y0030963D01*
X0035646Y0031053D01*
X0035518Y0031146D01*
X0035392Y0031242D01*
X0035269Y0031342D01*
X0035148Y0031444D01*
X0035030Y0031549D01*
X0034915Y0031658D01*
X0034802Y0031769D01*
X0034692Y0031883D01*
X0034585Y0032000D01*
X0034481Y0032119D01*
X0034380Y0032241D01*
X0034283Y0032366D01*
X0034188Y0032493D01*
X0034097Y0032622D01*
X0034008Y0032753D01*
X0033924Y0032887D01*
X0033842Y0033023D01*
X0033764Y0033160D01*
X0033690Y0033300D01*
X0033619Y0033442D01*
X0033551Y0033585D01*
X0033487Y0033730D01*
X0033427Y0033876D01*
X0033371Y0034024D01*
X0033318Y0034173D01*
X0033269Y0034324D01*
X0033224Y0034476D01*
X0033183Y0034629D01*
X0033145Y0034782D01*
X0033112Y0034937D01*
X0033082Y0035093D01*
X0033056Y0035249D01*
X0033035Y0035406D01*
X0033017Y0035563D01*
X0033003Y0035721D01*
X0032993Y0035879D01*
X0032987Y0036037D01*
X0032985Y0036195D01*
X0190269Y0036195D02*
X0190271Y0036353D01*
X0190277Y0036511D01*
X0190287Y0036669D01*
X0190301Y0036827D01*
X0190319Y0036984D01*
X0190340Y0037141D01*
X0190366Y0037297D01*
X0190396Y0037453D01*
X0190429Y0037608D01*
X0190467Y0037761D01*
X0190508Y0037914D01*
X0190553Y0038066D01*
X0190602Y0038217D01*
X0190655Y0038366D01*
X0190711Y0038514D01*
X0190771Y0038660D01*
X0190835Y0038805D01*
X0190903Y0038948D01*
X0190974Y0039090D01*
X0191048Y0039230D01*
X0191126Y0039367D01*
X0191208Y0039503D01*
X0191292Y0039637D01*
X0191381Y0039768D01*
X0191472Y0039897D01*
X0191567Y0040024D01*
X0191664Y0040149D01*
X0191765Y0040271D01*
X0191869Y0040390D01*
X0191976Y0040507D01*
X0192086Y0040621D01*
X0192199Y0040732D01*
X0192314Y0040841D01*
X0192432Y0040946D01*
X0192553Y0041048D01*
X0192676Y0041148D01*
X0192802Y0041244D01*
X0192930Y0041337D01*
X0193060Y0041427D01*
X0193193Y0041513D01*
X0193328Y0041597D01*
X0193464Y0041676D01*
X0193603Y0041753D01*
X0193744Y0041825D01*
X0193886Y0041895D01*
X0194030Y0041960D01*
X0194176Y0042022D01*
X0194323Y0042080D01*
X0194472Y0042135D01*
X0194622Y0042186D01*
X0194773Y0042233D01*
X0194925Y0042276D01*
X0195078Y0042315D01*
X0195233Y0042351D01*
X0195388Y0042382D01*
X0195544Y0042410D01*
X0195700Y0042434D01*
X0195857Y0042454D01*
X0196015Y0042470D01*
X0196172Y0042482D01*
X0196331Y0042490D01*
X0196489Y0042494D01*
X0196647Y0042494D01*
X0196805Y0042490D01*
X0196964Y0042482D01*
X0197121Y0042470D01*
X0197279Y0042454D01*
X0197436Y0042434D01*
X0197592Y0042410D01*
X0197748Y0042382D01*
X0197903Y0042351D01*
X0198058Y0042315D01*
X0198211Y0042276D01*
X0198363Y0042233D01*
X0198514Y0042186D01*
X0198664Y0042135D01*
X0198813Y0042080D01*
X0198960Y0042022D01*
X0199106Y0041960D01*
X0199250Y0041895D01*
X0199392Y0041825D01*
X0199533Y0041753D01*
X0199672Y0041676D01*
X0199808Y0041597D01*
X0199943Y0041513D01*
X0200076Y0041427D01*
X0200206Y0041337D01*
X0200334Y0041244D01*
X0200460Y0041148D01*
X0200583Y0041048D01*
X0200704Y0040946D01*
X0200822Y0040841D01*
X0200937Y0040732D01*
X0201050Y0040621D01*
X0201160Y0040507D01*
X0201267Y0040390D01*
X0201371Y0040271D01*
X0201472Y0040149D01*
X0201569Y0040024D01*
X0201664Y0039897D01*
X0201755Y0039768D01*
X0201844Y0039637D01*
X0201928Y0039503D01*
X0202010Y0039367D01*
X0202088Y0039230D01*
X0202162Y0039090D01*
X0202233Y0038948D01*
X0202301Y0038805D01*
X0202365Y0038660D01*
X0202425Y0038514D01*
X0202481Y0038366D01*
X0202534Y0038217D01*
X0202583Y0038066D01*
X0202628Y0037914D01*
X0202669Y0037761D01*
X0202707Y0037608D01*
X0202740Y0037453D01*
X0202770Y0037297D01*
X0202796Y0037141D01*
X0202817Y0036984D01*
X0202835Y0036827D01*
X0202849Y0036669D01*
X0202859Y0036511D01*
X0202865Y0036353D01*
X0202867Y0036195D01*
X0202865Y0036037D01*
X0202859Y0035879D01*
X0202849Y0035721D01*
X0202835Y0035563D01*
X0202817Y0035406D01*
X0202796Y0035249D01*
X0202770Y0035093D01*
X0202740Y0034937D01*
X0202707Y0034782D01*
X0202669Y0034629D01*
X0202628Y0034476D01*
X0202583Y0034324D01*
X0202534Y0034173D01*
X0202481Y0034024D01*
X0202425Y0033876D01*
X0202365Y0033730D01*
X0202301Y0033585D01*
X0202233Y0033442D01*
X0202162Y0033300D01*
X0202088Y0033160D01*
X0202010Y0033023D01*
X0201928Y0032887D01*
X0201844Y0032753D01*
X0201755Y0032622D01*
X0201664Y0032493D01*
X0201569Y0032366D01*
X0201472Y0032241D01*
X0201371Y0032119D01*
X0201267Y0032000D01*
X0201160Y0031883D01*
X0201050Y0031769D01*
X0200937Y0031658D01*
X0200822Y0031549D01*
X0200704Y0031444D01*
X0200583Y0031342D01*
X0200460Y0031242D01*
X0200334Y0031146D01*
X0200206Y0031053D01*
X0200076Y0030963D01*
X0199943Y0030877D01*
X0199808Y0030793D01*
X0199672Y0030714D01*
X0199533Y0030637D01*
X0199392Y0030565D01*
X0199250Y0030495D01*
X0199106Y0030430D01*
X0198960Y0030368D01*
X0198813Y0030310D01*
X0198664Y0030255D01*
X0198514Y0030204D01*
X0198363Y0030157D01*
X0198211Y0030114D01*
X0198058Y0030075D01*
X0197903Y0030039D01*
X0197748Y0030008D01*
X0197592Y0029980D01*
X0197436Y0029956D01*
X0197279Y0029936D01*
X0197121Y0029920D01*
X0196964Y0029908D01*
X0196805Y0029900D01*
X0196647Y0029896D01*
X0196489Y0029896D01*
X0196331Y0029900D01*
X0196172Y0029908D01*
X0196015Y0029920D01*
X0195857Y0029936D01*
X0195700Y0029956D01*
X0195544Y0029980D01*
X0195388Y0030008D01*
X0195233Y0030039D01*
X0195078Y0030075D01*
X0194925Y0030114D01*
X0194773Y0030157D01*
X0194622Y0030204D01*
X0194472Y0030255D01*
X0194323Y0030310D01*
X0194176Y0030368D01*
X0194030Y0030430D01*
X0193886Y0030495D01*
X0193744Y0030565D01*
X0193603Y0030637D01*
X0193464Y0030714D01*
X0193328Y0030793D01*
X0193193Y0030877D01*
X0193060Y0030963D01*
X0192930Y0031053D01*
X0192802Y0031146D01*
X0192676Y0031242D01*
X0192553Y0031342D01*
X0192432Y0031444D01*
X0192314Y0031549D01*
X0192199Y0031658D01*
X0192086Y0031769D01*
X0191976Y0031883D01*
X0191869Y0032000D01*
X0191765Y0032119D01*
X0191664Y0032241D01*
X0191567Y0032366D01*
X0191472Y0032493D01*
X0191381Y0032622D01*
X0191292Y0032753D01*
X0191208Y0032887D01*
X0191126Y0033023D01*
X0191048Y0033160D01*
X0190974Y0033300D01*
X0190903Y0033442D01*
X0190835Y0033585D01*
X0190771Y0033730D01*
X0190711Y0033876D01*
X0190655Y0034024D01*
X0190602Y0034173D01*
X0190553Y0034324D01*
X0190508Y0034476D01*
X0190467Y0034629D01*
X0190429Y0034782D01*
X0190396Y0034937D01*
X0190366Y0035093D01*
X0190340Y0035249D01*
X0190319Y0035406D01*
X0190301Y0035563D01*
X0190287Y0035721D01*
X0190277Y0035879D01*
X0190271Y0036037D01*
X0190269Y0036195D01*
X0190269Y0223282D02*
X0190271Y0223440D01*
X0190277Y0223598D01*
X0190287Y0223756D01*
X0190301Y0223914D01*
X0190319Y0224071D01*
X0190340Y0224228D01*
X0190366Y0224384D01*
X0190396Y0224540D01*
X0190429Y0224695D01*
X0190467Y0224848D01*
X0190508Y0225001D01*
X0190553Y0225153D01*
X0190602Y0225304D01*
X0190655Y0225453D01*
X0190711Y0225601D01*
X0190771Y0225747D01*
X0190835Y0225892D01*
X0190903Y0226035D01*
X0190974Y0226177D01*
X0191048Y0226317D01*
X0191126Y0226454D01*
X0191208Y0226590D01*
X0191292Y0226724D01*
X0191381Y0226855D01*
X0191472Y0226984D01*
X0191567Y0227111D01*
X0191664Y0227236D01*
X0191765Y0227358D01*
X0191869Y0227477D01*
X0191976Y0227594D01*
X0192086Y0227708D01*
X0192199Y0227819D01*
X0192314Y0227928D01*
X0192432Y0228033D01*
X0192553Y0228135D01*
X0192676Y0228235D01*
X0192802Y0228331D01*
X0192930Y0228424D01*
X0193060Y0228514D01*
X0193193Y0228600D01*
X0193328Y0228684D01*
X0193464Y0228763D01*
X0193603Y0228840D01*
X0193744Y0228912D01*
X0193886Y0228982D01*
X0194030Y0229047D01*
X0194176Y0229109D01*
X0194323Y0229167D01*
X0194472Y0229222D01*
X0194622Y0229273D01*
X0194773Y0229320D01*
X0194925Y0229363D01*
X0195078Y0229402D01*
X0195233Y0229438D01*
X0195388Y0229469D01*
X0195544Y0229497D01*
X0195700Y0229521D01*
X0195857Y0229541D01*
X0196015Y0229557D01*
X0196172Y0229569D01*
X0196331Y0229577D01*
X0196489Y0229581D01*
X0196647Y0229581D01*
X0196805Y0229577D01*
X0196964Y0229569D01*
X0197121Y0229557D01*
X0197279Y0229541D01*
X0197436Y0229521D01*
X0197592Y0229497D01*
X0197748Y0229469D01*
X0197903Y0229438D01*
X0198058Y0229402D01*
X0198211Y0229363D01*
X0198363Y0229320D01*
X0198514Y0229273D01*
X0198664Y0229222D01*
X0198813Y0229167D01*
X0198960Y0229109D01*
X0199106Y0229047D01*
X0199250Y0228982D01*
X0199392Y0228912D01*
X0199533Y0228840D01*
X0199672Y0228763D01*
X0199808Y0228684D01*
X0199943Y0228600D01*
X0200076Y0228514D01*
X0200206Y0228424D01*
X0200334Y0228331D01*
X0200460Y0228235D01*
X0200583Y0228135D01*
X0200704Y0228033D01*
X0200822Y0227928D01*
X0200937Y0227819D01*
X0201050Y0227708D01*
X0201160Y0227594D01*
X0201267Y0227477D01*
X0201371Y0227358D01*
X0201472Y0227236D01*
X0201569Y0227111D01*
X0201664Y0226984D01*
X0201755Y0226855D01*
X0201844Y0226724D01*
X0201928Y0226590D01*
X0202010Y0226454D01*
X0202088Y0226317D01*
X0202162Y0226177D01*
X0202233Y0226035D01*
X0202301Y0225892D01*
X0202365Y0225747D01*
X0202425Y0225601D01*
X0202481Y0225453D01*
X0202534Y0225304D01*
X0202583Y0225153D01*
X0202628Y0225001D01*
X0202669Y0224848D01*
X0202707Y0224695D01*
X0202740Y0224540D01*
X0202770Y0224384D01*
X0202796Y0224228D01*
X0202817Y0224071D01*
X0202835Y0223914D01*
X0202849Y0223756D01*
X0202859Y0223598D01*
X0202865Y0223440D01*
X0202867Y0223282D01*
X0202865Y0223124D01*
X0202859Y0222966D01*
X0202849Y0222808D01*
X0202835Y0222650D01*
X0202817Y0222493D01*
X0202796Y0222336D01*
X0202770Y0222180D01*
X0202740Y0222024D01*
X0202707Y0221869D01*
X0202669Y0221716D01*
X0202628Y0221563D01*
X0202583Y0221411D01*
X0202534Y0221260D01*
X0202481Y0221111D01*
X0202425Y0220963D01*
X0202365Y0220817D01*
X0202301Y0220672D01*
X0202233Y0220529D01*
X0202162Y0220387D01*
X0202088Y0220247D01*
X0202010Y0220110D01*
X0201928Y0219974D01*
X0201844Y0219840D01*
X0201755Y0219709D01*
X0201664Y0219580D01*
X0201569Y0219453D01*
X0201472Y0219328D01*
X0201371Y0219206D01*
X0201267Y0219087D01*
X0201160Y0218970D01*
X0201050Y0218856D01*
X0200937Y0218745D01*
X0200822Y0218636D01*
X0200704Y0218531D01*
X0200583Y0218429D01*
X0200460Y0218329D01*
X0200334Y0218233D01*
X0200206Y0218140D01*
X0200076Y0218050D01*
X0199943Y0217964D01*
X0199808Y0217880D01*
X0199672Y0217801D01*
X0199533Y0217724D01*
X0199392Y0217652D01*
X0199250Y0217582D01*
X0199106Y0217517D01*
X0198960Y0217455D01*
X0198813Y0217397D01*
X0198664Y0217342D01*
X0198514Y0217291D01*
X0198363Y0217244D01*
X0198211Y0217201D01*
X0198058Y0217162D01*
X0197903Y0217126D01*
X0197748Y0217095D01*
X0197592Y0217067D01*
X0197436Y0217043D01*
X0197279Y0217023D01*
X0197121Y0217007D01*
X0196964Y0216995D01*
X0196805Y0216987D01*
X0196647Y0216983D01*
X0196489Y0216983D01*
X0196331Y0216987D01*
X0196172Y0216995D01*
X0196015Y0217007D01*
X0195857Y0217023D01*
X0195700Y0217043D01*
X0195544Y0217067D01*
X0195388Y0217095D01*
X0195233Y0217126D01*
X0195078Y0217162D01*
X0194925Y0217201D01*
X0194773Y0217244D01*
X0194622Y0217291D01*
X0194472Y0217342D01*
X0194323Y0217397D01*
X0194176Y0217455D01*
X0194030Y0217517D01*
X0193886Y0217582D01*
X0193744Y0217652D01*
X0193603Y0217724D01*
X0193464Y0217801D01*
X0193328Y0217880D01*
X0193193Y0217964D01*
X0193060Y0218050D01*
X0192930Y0218140D01*
X0192802Y0218233D01*
X0192676Y0218329D01*
X0192553Y0218429D01*
X0192432Y0218531D01*
X0192314Y0218636D01*
X0192199Y0218745D01*
X0192086Y0218856D01*
X0191976Y0218970D01*
X0191869Y0219087D01*
X0191765Y0219206D01*
X0191664Y0219328D01*
X0191567Y0219453D01*
X0191472Y0219580D01*
X0191381Y0219709D01*
X0191292Y0219840D01*
X0191208Y0219974D01*
X0191126Y0220110D01*
X0191048Y0220247D01*
X0190974Y0220387D01*
X0190903Y0220529D01*
X0190835Y0220672D01*
X0190771Y0220817D01*
X0190711Y0220963D01*
X0190655Y0221111D01*
X0190602Y0221260D01*
X0190553Y0221411D01*
X0190508Y0221563D01*
X0190467Y0221716D01*
X0190429Y0221869D01*
X0190396Y0222024D01*
X0190366Y0222180D01*
X0190340Y0222336D01*
X0190319Y0222493D01*
X0190301Y0222650D01*
X0190287Y0222808D01*
X0190277Y0222966D01*
X0190271Y0223124D01*
X0190269Y0223282D01*
X0032592Y0223676D02*
X0032594Y0223834D01*
X0032600Y0223992D01*
X0032610Y0224150D01*
X0032624Y0224308D01*
X0032642Y0224465D01*
X0032663Y0224622D01*
X0032689Y0224778D01*
X0032719Y0224934D01*
X0032752Y0225089D01*
X0032790Y0225242D01*
X0032831Y0225395D01*
X0032876Y0225547D01*
X0032925Y0225698D01*
X0032978Y0225847D01*
X0033034Y0225995D01*
X0033094Y0226141D01*
X0033158Y0226286D01*
X0033226Y0226429D01*
X0033297Y0226571D01*
X0033371Y0226711D01*
X0033449Y0226848D01*
X0033531Y0226984D01*
X0033615Y0227118D01*
X0033704Y0227249D01*
X0033795Y0227378D01*
X0033890Y0227505D01*
X0033987Y0227630D01*
X0034088Y0227752D01*
X0034192Y0227871D01*
X0034299Y0227988D01*
X0034409Y0228102D01*
X0034522Y0228213D01*
X0034637Y0228322D01*
X0034755Y0228427D01*
X0034876Y0228529D01*
X0034999Y0228629D01*
X0035125Y0228725D01*
X0035253Y0228818D01*
X0035383Y0228908D01*
X0035516Y0228994D01*
X0035651Y0229078D01*
X0035787Y0229157D01*
X0035926Y0229234D01*
X0036067Y0229306D01*
X0036209Y0229376D01*
X0036353Y0229441D01*
X0036499Y0229503D01*
X0036646Y0229561D01*
X0036795Y0229616D01*
X0036945Y0229667D01*
X0037096Y0229714D01*
X0037248Y0229757D01*
X0037401Y0229796D01*
X0037556Y0229832D01*
X0037711Y0229863D01*
X0037867Y0229891D01*
X0038023Y0229915D01*
X0038180Y0229935D01*
X0038338Y0229951D01*
X0038495Y0229963D01*
X0038654Y0229971D01*
X0038812Y0229975D01*
X0038970Y0229975D01*
X0039128Y0229971D01*
X0039287Y0229963D01*
X0039444Y0229951D01*
X0039602Y0229935D01*
X0039759Y0229915D01*
X0039915Y0229891D01*
X0040071Y0229863D01*
X0040226Y0229832D01*
X0040381Y0229796D01*
X0040534Y0229757D01*
X0040686Y0229714D01*
X0040837Y0229667D01*
X0040987Y0229616D01*
X0041136Y0229561D01*
X0041283Y0229503D01*
X0041429Y0229441D01*
X0041573Y0229376D01*
X0041715Y0229306D01*
X0041856Y0229234D01*
X0041995Y0229157D01*
X0042131Y0229078D01*
X0042266Y0228994D01*
X0042399Y0228908D01*
X0042529Y0228818D01*
X0042657Y0228725D01*
X0042783Y0228629D01*
X0042906Y0228529D01*
X0043027Y0228427D01*
X0043145Y0228322D01*
X0043260Y0228213D01*
X0043373Y0228102D01*
X0043483Y0227988D01*
X0043590Y0227871D01*
X0043694Y0227752D01*
X0043795Y0227630D01*
X0043892Y0227505D01*
X0043987Y0227378D01*
X0044078Y0227249D01*
X0044167Y0227118D01*
X0044251Y0226984D01*
X0044333Y0226848D01*
X0044411Y0226711D01*
X0044485Y0226571D01*
X0044556Y0226429D01*
X0044624Y0226286D01*
X0044688Y0226141D01*
X0044748Y0225995D01*
X0044804Y0225847D01*
X0044857Y0225698D01*
X0044906Y0225547D01*
X0044951Y0225395D01*
X0044992Y0225242D01*
X0045030Y0225089D01*
X0045063Y0224934D01*
X0045093Y0224778D01*
X0045119Y0224622D01*
X0045140Y0224465D01*
X0045158Y0224308D01*
X0045172Y0224150D01*
X0045182Y0223992D01*
X0045188Y0223834D01*
X0045190Y0223676D01*
X0045188Y0223518D01*
X0045182Y0223360D01*
X0045172Y0223202D01*
X0045158Y0223044D01*
X0045140Y0222887D01*
X0045119Y0222730D01*
X0045093Y0222574D01*
X0045063Y0222418D01*
X0045030Y0222263D01*
X0044992Y0222110D01*
X0044951Y0221957D01*
X0044906Y0221805D01*
X0044857Y0221654D01*
X0044804Y0221505D01*
X0044748Y0221357D01*
X0044688Y0221211D01*
X0044624Y0221066D01*
X0044556Y0220923D01*
X0044485Y0220781D01*
X0044411Y0220641D01*
X0044333Y0220504D01*
X0044251Y0220368D01*
X0044167Y0220234D01*
X0044078Y0220103D01*
X0043987Y0219974D01*
X0043892Y0219847D01*
X0043795Y0219722D01*
X0043694Y0219600D01*
X0043590Y0219481D01*
X0043483Y0219364D01*
X0043373Y0219250D01*
X0043260Y0219139D01*
X0043145Y0219030D01*
X0043027Y0218925D01*
X0042906Y0218823D01*
X0042783Y0218723D01*
X0042657Y0218627D01*
X0042529Y0218534D01*
X0042399Y0218444D01*
X0042266Y0218358D01*
X0042131Y0218274D01*
X0041995Y0218195D01*
X0041856Y0218118D01*
X0041715Y0218046D01*
X0041573Y0217976D01*
X0041429Y0217911D01*
X0041283Y0217849D01*
X0041136Y0217791D01*
X0040987Y0217736D01*
X0040837Y0217685D01*
X0040686Y0217638D01*
X0040534Y0217595D01*
X0040381Y0217556D01*
X0040226Y0217520D01*
X0040071Y0217489D01*
X0039915Y0217461D01*
X0039759Y0217437D01*
X0039602Y0217417D01*
X0039444Y0217401D01*
X0039287Y0217389D01*
X0039128Y0217381D01*
X0038970Y0217377D01*
X0038812Y0217377D01*
X0038654Y0217381D01*
X0038495Y0217389D01*
X0038338Y0217401D01*
X0038180Y0217417D01*
X0038023Y0217437D01*
X0037867Y0217461D01*
X0037711Y0217489D01*
X0037556Y0217520D01*
X0037401Y0217556D01*
X0037248Y0217595D01*
X0037096Y0217638D01*
X0036945Y0217685D01*
X0036795Y0217736D01*
X0036646Y0217791D01*
X0036499Y0217849D01*
X0036353Y0217911D01*
X0036209Y0217976D01*
X0036067Y0218046D01*
X0035926Y0218118D01*
X0035787Y0218195D01*
X0035651Y0218274D01*
X0035516Y0218358D01*
X0035383Y0218444D01*
X0035253Y0218534D01*
X0035125Y0218627D01*
X0034999Y0218723D01*
X0034876Y0218823D01*
X0034755Y0218925D01*
X0034637Y0219030D01*
X0034522Y0219139D01*
X0034409Y0219250D01*
X0034299Y0219364D01*
X0034192Y0219481D01*
X0034088Y0219600D01*
X0033987Y0219722D01*
X0033890Y0219847D01*
X0033795Y0219974D01*
X0033704Y0220103D01*
X0033615Y0220234D01*
X0033531Y0220368D01*
X0033449Y0220504D01*
X0033371Y0220641D01*
X0033297Y0220781D01*
X0033226Y0220923D01*
X0033158Y0221066D01*
X0033094Y0221211D01*
X0033034Y0221357D01*
X0032978Y0221505D01*
X0032925Y0221654D01*
X0032876Y0221805D01*
X0032831Y0221957D01*
X0032790Y0222110D01*
X0032752Y0222263D01*
X0032719Y0222418D01*
X0032689Y0222574D01*
X0032663Y0222730D01*
X0032642Y0222887D01*
X0032624Y0223044D01*
X0032610Y0223202D01*
X0032600Y0223360D01*
X0032594Y0223518D01*
X0032592Y0223676D01*
D11*
X0050347Y0200605D03*
X0050347Y0192731D03*
X0050347Y0184857D03*
X0050347Y0176983D03*
X0050347Y0169109D03*
X0050347Y0161235D03*
X0050347Y0153361D03*
X0050347Y0145487D03*
X0114127Y0145487D03*
X0114127Y0153361D03*
X0114127Y0161235D03*
X0114127Y0169109D03*
X0114127Y0176983D03*
X0114127Y0184857D03*
X0114127Y0192731D03*
X0114127Y0200605D03*
D12*
X0125347Y0222250D02*
X0125347Y0228250D01*
X0135347Y0228250D02*
X0135347Y0222250D01*
X0145347Y0222250D02*
X0145347Y0228250D01*
X0155347Y0228250D02*
X0155347Y0222250D01*
X0158536Y0196951D02*
X0158536Y0190951D01*
X0148536Y0190951D02*
X0148536Y0196951D01*
X0138536Y0196951D02*
X0138536Y0190951D01*
X0138536Y0172857D02*
X0138536Y0166857D01*
X0148536Y0166857D02*
X0148536Y0172857D01*
X0158536Y0172857D02*
X0158536Y0166857D01*
X0158536Y0148762D02*
X0158536Y0142762D01*
X0148536Y0142762D02*
X0148536Y0148762D01*
X0138536Y0148762D02*
X0138536Y0142762D01*
X0139324Y0122306D02*
X0139324Y0116306D01*
X0149324Y0116306D02*
X0149324Y0122306D01*
X0159324Y0122306D02*
X0159324Y0116306D01*
X0158151Y0097967D02*
X0152151Y0097967D01*
X0152151Y0087967D02*
X0158151Y0087967D01*
X0158151Y0077967D02*
X0152151Y0077967D01*
X0036694Y0112731D02*
X0030694Y0112731D01*
X0030694Y0122731D02*
X0036694Y0122731D01*
X0036694Y0132731D02*
X0030694Y0132731D01*
D13*
X0035347Y0146392D03*
X0035347Y0171195D03*
X0035347Y0184424D03*
X0035347Y0209227D03*
D14*
X0189874Y0198676D02*
X0196924Y0198676D01*
X0196924Y0178676D02*
X0189874Y0178676D01*
X0189874Y0158676D02*
X0196924Y0158676D01*
X0197317Y0120802D02*
X0190267Y0120802D01*
X0190267Y0100802D02*
X0197317Y0100802D01*
X0197317Y0080802D02*
X0190267Y0080802D01*
X0190267Y0060802D02*
X0197317Y0060802D01*
X0156332Y0046039D02*
X0156332Y0038989D01*
X0136332Y0038989D02*
X0136332Y0046039D01*
D15*
X0059442Y0129975D03*
X0051962Y0129975D03*
D16*
X0081922Y0125802D03*
X0130544Y0082613D03*
D17*
X0130544Y0072613D03*
X0071922Y0125802D03*
D18*
X0067540Y0109262D02*
X0067540Y0103325D01*
X0057373Y0103313D02*
X0057373Y0109250D01*
X0099651Y0109302D02*
X0099651Y0103365D01*
X0109295Y0103394D02*
X0109295Y0109331D01*
X0109412Y0036091D02*
X0109412Y0030154D01*
X0099651Y0030136D02*
X0099651Y0036073D01*
X0067618Y0036073D02*
X0067618Y0030136D01*
X0057371Y0030154D02*
X0057371Y0036091D01*
D19*
X0114324Y0133282D03*
X0104481Y0161235D03*
X0092670Y0162022D03*
X0060780Y0176983D03*
X0060780Y0184857D03*
X0060780Y0200605D03*
X0117434Y0214857D03*
D20*
X0115584Y0214857D01*
X0105269Y0204542D01*
X0105269Y0173046D01*
X0109206Y0169109D01*
X0114127Y0169109D01*
X0114127Y0176983D02*
X0131410Y0176983D01*
X0138536Y0169857D01*
X0129442Y0184857D02*
X0138536Y0193951D01*
X0129442Y0184857D02*
X0114127Y0184857D01*
X0114127Y0192731D02*
X0118654Y0192731D01*
X0135347Y0209424D01*
X0135347Y0225250D01*
X0125347Y0225250D02*
X0125347Y0207298D01*
X0118654Y0200605D01*
X0114127Y0200605D01*
X0114127Y0161235D02*
X0104481Y0161235D01*
X0101332Y0153361D02*
X0092670Y0162022D01*
X0101332Y0153361D02*
X0114127Y0153361D01*
X0114127Y0145487D02*
X0114127Y0134660D01*
X0114324Y0133282D01*
X0110387Y0126195D02*
X0118969Y0126195D01*
X0138536Y0145762D01*
X0137158Y0121471D02*
X0139324Y0119306D01*
X0137158Y0121471D02*
X0108418Y0121471D01*
X0068654Y0161235D01*
X0050347Y0161235D01*
X0050347Y0169109D02*
X0067473Y0169109D01*
X0110387Y0126195D01*
X0106843Y0116353D02*
X0122591Y0116353D01*
X0134796Y0104148D01*
X0134796Y0093124D01*
X0149954Y0077967D01*
X0155151Y0077967D01*
X0130544Y0072613D02*
X0156332Y0046825D01*
X0156332Y0042514D01*
X0130544Y0072613D02*
X0099651Y0041720D01*
X0099651Y0033105D01*
X0099670Y0033123D01*
X0109412Y0033123D01*
X0088017Y0095093D02*
X0051332Y0095093D01*
X0033694Y0112337D01*
X0033694Y0112731D01*
X0033694Y0122731D02*
X0068851Y0122731D01*
X0071922Y0125802D01*
X0071174Y0126550D01*
X0068025Y0130132D01*
X0060780Y0130132D01*
X0059442Y0129975D01*
X0060780Y0130132D02*
X0060780Y0137219D01*
X0052513Y0145487D01*
X0050347Y0145487D01*
X0050347Y0153361D02*
X0069836Y0153361D01*
X0106843Y0116353D01*
X0109295Y0106362D02*
X0099681Y0106362D01*
X0099651Y0106333D01*
X0088017Y0095093D01*
X0051962Y0129975D02*
X0049206Y0132731D01*
X0033694Y0132731D01*
X0035347Y0135802D01*
X0035347Y0146392D01*
X0035072Y0146392D01*
X0028497Y0152967D01*
X0028497Y0177573D01*
X0035347Y0184424D01*
X0042670Y0176589D02*
X0049954Y0176589D01*
X0050347Y0176983D01*
X0060780Y0176983D01*
X0060780Y0184857D02*
X0050347Y0184857D01*
X0042670Y0176589D02*
X0037277Y0171195D01*
X0035347Y0171195D01*
X0050347Y0200605D02*
X0041725Y0209227D01*
X0035347Y0209227D01*
X0050347Y0200605D02*
X0060780Y0200605D01*
D21*
X0143143Y0153676D02*
X0143143Y0150185D01*
X0143336Y0149717D01*
X0143336Y0141807D01*
X0143143Y0141340D01*
X0143143Y0136038D01*
X0150938Y0129345D01*
X0168261Y0129345D01*
X0184796Y0114935D01*
X0202828Y0115014D01*
X0202867Y0127613D01*
X0187906Y0140250D01*
X0162691Y0140250D01*
X0162606Y0140043D01*
X0161255Y0138693D01*
X0159491Y0137962D01*
X0157582Y0137962D01*
X0155817Y0138693D01*
X0154467Y0140043D01*
X0153736Y0141807D01*
X0153736Y0149717D01*
X0154140Y0150691D01*
X0154048Y0153557D01*
X0143143Y0153676D01*
X0143143Y0153255D02*
X0147497Y0153255D01*
X0147459Y0153249D02*
X0146771Y0153025D01*
X0146125Y0152696D01*
X0145540Y0152271D01*
X0145028Y0151759D01*
X0144602Y0151173D01*
X0144273Y0150528D01*
X0144050Y0149839D01*
X0143936Y0149124D01*
X0143936Y0146162D01*
X0148136Y0146162D01*
X0148136Y0145362D01*
X0143936Y0145362D01*
X0143936Y0142400D01*
X0144050Y0141685D01*
X0144273Y0140996D01*
X0144602Y0140351D01*
X0145028Y0139766D01*
X0145540Y0139254D01*
X0146125Y0138828D01*
X0146771Y0138499D01*
X0147459Y0138275D01*
X0148136Y0138168D01*
X0148136Y0145362D01*
X0148936Y0145362D01*
X0148936Y0138168D01*
X0149614Y0138275D01*
X0150302Y0138499D01*
X0150947Y0138828D01*
X0151533Y0139254D01*
X0152045Y0139766D01*
X0152471Y0140351D01*
X0152799Y0140996D01*
X0153023Y0141685D01*
X0153136Y0142400D01*
X0153136Y0145362D01*
X0148936Y0145362D01*
X0148936Y0146162D01*
X0148136Y0146162D01*
X0148136Y0153356D01*
X0147459Y0153249D01*
X0148136Y0153255D02*
X0148936Y0153255D01*
X0148936Y0153356D02*
X0148936Y0146162D01*
X0153136Y0146162D01*
X0153136Y0149124D01*
X0153023Y0149839D01*
X0152799Y0150528D01*
X0152471Y0151173D01*
X0152045Y0151759D01*
X0151533Y0152271D01*
X0150947Y0152696D01*
X0150302Y0153025D01*
X0149614Y0153249D01*
X0148936Y0153356D01*
X0149576Y0153255D02*
X0154058Y0153255D01*
X0154096Y0152056D02*
X0151748Y0152056D01*
X0152631Y0150858D02*
X0154135Y0150858D01*
X0153736Y0149659D02*
X0153052Y0149659D01*
X0153136Y0148461D02*
X0153736Y0148461D01*
X0153736Y0147262D02*
X0153136Y0147262D01*
X0153736Y0146064D02*
X0148936Y0146064D01*
X0148136Y0146064D02*
X0143336Y0146064D01*
X0143336Y0147262D02*
X0143936Y0147262D01*
X0143936Y0148461D02*
X0143336Y0148461D01*
X0143336Y0149659D02*
X0144021Y0149659D01*
X0144441Y0150858D02*
X0143143Y0150858D01*
X0143143Y0152056D02*
X0145325Y0152056D01*
X0148136Y0152056D02*
X0148936Y0152056D01*
X0148936Y0150858D02*
X0148136Y0150858D01*
X0148136Y0149659D02*
X0148936Y0149659D01*
X0148936Y0148461D02*
X0148136Y0148461D01*
X0148136Y0147262D02*
X0148936Y0147262D01*
X0148936Y0144865D02*
X0148136Y0144865D01*
X0148136Y0143667D02*
X0148936Y0143667D01*
X0148936Y0142468D02*
X0148136Y0142468D01*
X0148136Y0141270D02*
X0148936Y0141270D01*
X0148936Y0140071D02*
X0148136Y0140071D01*
X0148136Y0138873D02*
X0148936Y0138873D01*
X0151009Y0138873D02*
X0155638Y0138873D01*
X0154456Y0140071D02*
X0152267Y0140071D01*
X0152888Y0141270D02*
X0153959Y0141270D01*
X0153736Y0142468D02*
X0153136Y0142468D01*
X0153136Y0143667D02*
X0153736Y0143667D01*
X0153736Y0144865D02*
X0153136Y0144865D01*
X0146064Y0138873D02*
X0143143Y0138873D01*
X0143143Y0140071D02*
X0144806Y0140071D01*
X0144185Y0141270D02*
X0143143Y0141270D01*
X0143336Y0142468D02*
X0143936Y0142468D01*
X0143936Y0143667D02*
X0143336Y0143667D01*
X0143336Y0144865D02*
X0143936Y0144865D01*
X0143143Y0137674D02*
X0190956Y0137674D01*
X0192375Y0136476D02*
X0143143Y0136476D01*
X0144029Y0135277D02*
X0193794Y0135277D01*
X0195212Y0134079D02*
X0145424Y0134079D01*
X0146820Y0132880D02*
X0196631Y0132880D01*
X0198050Y0131682D02*
X0148216Y0131682D01*
X0149612Y0130483D02*
X0199469Y0130483D01*
X0200888Y0129285D02*
X0168330Y0129285D01*
X0169705Y0128086D02*
X0202306Y0128086D01*
X0202865Y0126888D02*
X0171081Y0126888D01*
X0172456Y0125689D02*
X0188725Y0125689D01*
X0189067Y0125800D02*
X0188300Y0125551D01*
X0187581Y0125185D01*
X0186929Y0124711D01*
X0186358Y0124140D01*
X0185884Y0123488D01*
X0185518Y0122769D01*
X0185268Y0122002D01*
X0185169Y0121377D01*
X0193217Y0121377D01*
X0193217Y0125927D01*
X0189864Y0125927D01*
X0189067Y0125800D01*
X0186708Y0124491D02*
X0173831Y0124491D01*
X0175207Y0123292D02*
X0185784Y0123292D01*
X0185298Y0122094D02*
X0176582Y0122094D01*
X0177957Y0120895D02*
X0193217Y0120895D01*
X0193217Y0121377D02*
X0193217Y0120227D01*
X0185169Y0120227D01*
X0185268Y0119601D01*
X0185518Y0118834D01*
X0185884Y0118115D01*
X0186358Y0117463D01*
X0186929Y0116892D01*
X0187581Y0116418D01*
X0188300Y0116052D01*
X0189067Y0115803D01*
X0189864Y0115677D01*
X0193217Y0115677D01*
X0193217Y0120226D01*
X0194367Y0120226D01*
X0194367Y0115677D01*
X0197721Y0115677D01*
X0198517Y0115803D01*
X0199285Y0116052D01*
X0200003Y0116418D01*
X0200656Y0116892D01*
X0201226Y0117463D01*
X0201701Y0118115D01*
X0202067Y0118834D01*
X0202316Y0119601D01*
X0202415Y0120227D01*
X0194367Y0120227D01*
X0194367Y0121377D01*
X0193217Y0121377D01*
X0193217Y0122094D02*
X0194367Y0122094D01*
X0194367Y0121377D02*
X0194367Y0125927D01*
X0197721Y0125927D01*
X0198517Y0125800D01*
X0199285Y0125551D01*
X0200003Y0125185D01*
X0200656Y0124711D01*
X0201226Y0124140D01*
X0201701Y0123488D01*
X0202067Y0122769D01*
X0202316Y0122002D01*
X0202415Y0121377D01*
X0194367Y0121377D01*
X0194367Y0120895D02*
X0202846Y0120895D01*
X0202842Y0119697D02*
X0202331Y0119697D01*
X0201895Y0118498D02*
X0202839Y0118498D01*
X0202835Y0117300D02*
X0201063Y0117300D01*
X0199381Y0116101D02*
X0202831Y0116101D01*
X0202850Y0122094D02*
X0202286Y0122094D01*
X0201800Y0123292D02*
X0202854Y0123292D01*
X0202857Y0124491D02*
X0200876Y0124491D01*
X0202861Y0125689D02*
X0198860Y0125689D01*
X0194367Y0125689D02*
X0193217Y0125689D01*
X0193217Y0124491D02*
X0194367Y0124491D01*
X0194367Y0123292D02*
X0193217Y0123292D01*
X0193217Y0119697D02*
X0194367Y0119697D01*
X0194367Y0118498D02*
X0193217Y0118498D01*
X0193217Y0117300D02*
X0194367Y0117300D01*
X0194367Y0116101D02*
X0193217Y0116101D01*
X0188204Y0116101D02*
X0183459Y0116101D01*
X0182083Y0117300D02*
X0186521Y0117300D01*
X0185689Y0118498D02*
X0180708Y0118498D01*
X0179333Y0119697D02*
X0185253Y0119697D01*
X0189537Y0138873D02*
X0161435Y0138873D01*
X0162617Y0140071D02*
X0188119Y0140071D01*
D22*
X0178891Y0113597D02*
X0162272Y0113597D01*
X0161590Y0112914D01*
X0160119Y0112306D01*
X0158528Y0112306D01*
X0157058Y0112914D01*
X0156376Y0113597D01*
X0155269Y0113597D01*
X0155325Y0115507D01*
X0155324Y0115510D01*
X0155324Y0123101D01*
X0155565Y0123684D01*
X0155662Y0126983D01*
X0143851Y0126983D01*
X0143458Y0109660D01*
X0151332Y0103754D01*
X0173773Y0103754D01*
X0183615Y0093912D01*
X0202906Y0093912D01*
X0202906Y0105723D01*
X0196607Y0111628D01*
X0180859Y0111628D01*
X0178891Y0113597D01*
X0179604Y0112883D02*
X0161514Y0112883D01*
X0157134Y0112883D02*
X0152265Y0112883D01*
X0152255Y0112873D02*
X0152756Y0113374D01*
X0153173Y0113947D01*
X0153494Y0114578D01*
X0153713Y0115252D01*
X0153824Y0115951D01*
X0153824Y0118806D01*
X0149824Y0118806D01*
X0149824Y0119805D01*
X0153824Y0119805D01*
X0153824Y0122660D01*
X0153713Y0123359D01*
X0153494Y0124033D01*
X0153173Y0124664D01*
X0152756Y0125237D01*
X0152255Y0125738D01*
X0151682Y0126154D01*
X0151051Y0126476D01*
X0150378Y0126695D01*
X0149824Y0126782D01*
X0149824Y0119806D01*
X0148824Y0119806D01*
X0148824Y0126782D01*
X0148270Y0126695D01*
X0147596Y0126476D01*
X0146965Y0126154D01*
X0146392Y0125738D01*
X0145891Y0125237D01*
X0145475Y0124664D01*
X0145153Y0124033D01*
X0144935Y0123359D01*
X0144824Y0122660D01*
X0144824Y0119805D01*
X0148824Y0119805D01*
X0148824Y0118806D01*
X0144824Y0118806D01*
X0144824Y0115951D01*
X0144935Y0115252D01*
X0145153Y0114578D01*
X0145475Y0113947D01*
X0145891Y0113374D01*
X0146392Y0112873D01*
X0146965Y0112457D01*
X0147596Y0112135D01*
X0148270Y0111916D01*
X0148824Y0111829D01*
X0148824Y0118805D01*
X0149824Y0118805D01*
X0149824Y0111829D01*
X0150378Y0111916D01*
X0151051Y0112135D01*
X0151682Y0112457D01*
X0152255Y0112873D01*
X0153125Y0113882D02*
X0155277Y0113882D01*
X0155306Y0114880D02*
X0153592Y0114880D01*
X0153812Y0115879D02*
X0155324Y0115879D01*
X0155324Y0116877D02*
X0153824Y0116877D01*
X0153824Y0117876D02*
X0155324Y0117876D01*
X0155324Y0118874D02*
X0149824Y0118874D01*
X0149824Y0117876D02*
X0148824Y0117876D01*
X0148824Y0118874D02*
X0143667Y0118874D01*
X0143644Y0117876D02*
X0144824Y0117876D01*
X0144824Y0116877D02*
X0143622Y0116877D01*
X0143599Y0115879D02*
X0144835Y0115879D01*
X0145055Y0114880D02*
X0143576Y0114880D01*
X0143554Y0113882D02*
X0145522Y0113882D01*
X0146382Y0112883D02*
X0143531Y0112883D01*
X0143508Y0111885D02*
X0148470Y0111885D01*
X0148824Y0111885D02*
X0149824Y0111885D01*
X0150178Y0111885D02*
X0180603Y0111885D01*
X0186994Y0104634D02*
X0186434Y0104075D01*
X0185970Y0103435D01*
X0185610Y0102730D01*
X0185366Y0101978D01*
X0185259Y0101302D01*
X0193292Y0101302D01*
X0193292Y0105827D01*
X0189872Y0105827D01*
X0189091Y0105703D01*
X0188338Y0105458D01*
X0187634Y0105099D01*
X0186994Y0104634D01*
X0187352Y0104895D02*
X0149811Y0104895D01*
X0151142Y0103897D02*
X0186305Y0103897D01*
X0185696Y0102898D02*
X0174629Y0102898D01*
X0175627Y0101900D02*
X0185354Y0101900D01*
X0185259Y0100302D02*
X0185366Y0099625D01*
X0185610Y0098873D01*
X0185970Y0098168D01*
X0186434Y0097528D01*
X0186994Y0096969D01*
X0187634Y0096504D01*
X0188338Y0096145D01*
X0189091Y0095900D01*
X0189872Y0095777D01*
X0193292Y0095777D01*
X0193292Y0100302D01*
X0185259Y0100302D01*
X0185322Y0099903D02*
X0177624Y0099903D01*
X0176626Y0100901D02*
X0193292Y0100901D01*
X0193292Y0101302D02*
X0193292Y0100302D01*
X0194292Y0100302D01*
X0194292Y0101302D01*
X0193292Y0101302D01*
X0193292Y0101900D02*
X0194292Y0101900D01*
X0194292Y0101302D02*
X0194292Y0105827D01*
X0197713Y0105827D01*
X0198494Y0105703D01*
X0199246Y0105458D01*
X0199951Y0105099D01*
X0200591Y0104634D01*
X0201150Y0104075D01*
X0201615Y0103435D01*
X0201974Y0102730D01*
X0202219Y0101978D01*
X0202326Y0101302D01*
X0194292Y0101302D01*
X0194292Y0100901D02*
X0202906Y0100901D01*
X0202326Y0100302D02*
X0202219Y0099625D01*
X0201974Y0098873D01*
X0201615Y0098168D01*
X0201150Y0097528D01*
X0200591Y0096969D01*
X0199951Y0096504D01*
X0199246Y0096145D01*
X0198494Y0095900D01*
X0197713Y0095777D01*
X0194292Y0095777D01*
X0194292Y0100302D01*
X0202326Y0100302D01*
X0202263Y0099903D02*
X0202906Y0099903D01*
X0202906Y0098904D02*
X0201984Y0098904D01*
X0201424Y0097905D02*
X0202906Y0097905D01*
X0202906Y0096907D02*
X0200506Y0096907D01*
X0198519Y0095908D02*
X0202906Y0095908D01*
X0202906Y0094910D02*
X0182617Y0094910D01*
X0181618Y0095908D02*
X0189065Y0095908D01*
X0187079Y0096907D02*
X0180620Y0096907D01*
X0179621Y0097905D02*
X0186160Y0097905D01*
X0185600Y0098904D02*
X0178623Y0098904D01*
X0171462Y0090916D02*
X0161566Y0090916D01*
X0161583Y0090898D02*
X0161082Y0091399D01*
X0160509Y0091816D01*
X0159878Y0092137D01*
X0159204Y0092356D01*
X0158505Y0092467D01*
X0155651Y0092467D01*
X0155651Y0088467D01*
X0162627Y0088467D01*
X0162540Y0089021D01*
X0162321Y0089694D01*
X0161999Y0090325D01*
X0161583Y0090898D01*
X0162207Y0089917D02*
X0172660Y0089917D01*
X0173859Y0088919D02*
X0162556Y0088919D01*
X0162627Y0087467D02*
X0155651Y0087467D01*
X0155651Y0088467D01*
X0154651Y0088467D01*
X0154651Y0092467D01*
X0151796Y0092467D01*
X0151097Y0092356D01*
X0150423Y0092137D01*
X0149792Y0091816D01*
X0149219Y0091399D01*
X0148718Y0090898D01*
X0148302Y0090325D01*
X0147980Y0089694D01*
X0147761Y0089021D01*
X0147674Y0088467D01*
X0154650Y0088467D01*
X0154650Y0087467D01*
X0147674Y0087467D01*
X0147761Y0086913D01*
X0147980Y0086240D01*
X0148302Y0085608D01*
X0148718Y0085035D01*
X0149219Y0084535D01*
X0149792Y0084118D01*
X0150423Y0083797D01*
X0151097Y0083578D01*
X0151796Y0083467D01*
X0154651Y0083467D01*
X0154651Y0087467D01*
X0155651Y0087467D01*
X0155651Y0083467D01*
X0158505Y0083467D01*
X0159204Y0083578D01*
X0159878Y0083797D01*
X0160509Y0084118D01*
X0161082Y0084535D01*
X0161583Y0085035D01*
X0161999Y0085608D01*
X0162321Y0086240D01*
X0162540Y0086913D01*
X0162627Y0087467D01*
X0162541Y0086922D02*
X0202906Y0086922D01*
X0202906Y0087920D02*
X0155651Y0087920D01*
X0155651Y0086922D02*
X0154651Y0086922D01*
X0154650Y0087920D02*
X0147395Y0087920D01*
X0147395Y0086922D02*
X0147760Y0086922D01*
X0147395Y0085923D02*
X0148141Y0085923D01*
X0148829Y0084925D02*
X0147395Y0084925D01*
X0147395Y0083926D02*
X0150169Y0083926D01*
X0148931Y0082101D02*
X0147395Y0083637D01*
X0147395Y0093912D01*
X0167867Y0093912D01*
X0174954Y0088006D01*
X0202906Y0088006D01*
X0202906Y0074227D01*
X0172591Y0074620D01*
X0163143Y0082101D01*
X0148931Y0082101D01*
X0148104Y0082928D02*
X0185711Y0082928D01*
X0185610Y0082730D02*
X0185366Y0081978D01*
X0185259Y0081302D01*
X0193292Y0081302D01*
X0193292Y0085827D01*
X0189872Y0085827D01*
X0189091Y0085703D01*
X0188338Y0085458D01*
X0187634Y0085099D01*
X0186994Y0084634D01*
X0186434Y0084075D01*
X0185970Y0083435D01*
X0185610Y0082730D01*
X0185358Y0081929D02*
X0163359Y0081929D01*
X0164621Y0080931D02*
X0193292Y0080931D01*
X0193292Y0081302D02*
X0193292Y0080302D01*
X0185259Y0080302D01*
X0185366Y0079625D01*
X0185610Y0078873D01*
X0185970Y0078168D01*
X0186434Y0077528D01*
X0186994Y0076969D01*
X0187634Y0076504D01*
X0188338Y0076145D01*
X0189091Y0075900D01*
X0189872Y0075777D01*
X0193292Y0075777D01*
X0193292Y0080302D01*
X0194292Y0080302D01*
X0194292Y0081302D01*
X0193292Y0081302D01*
X0193292Y0081929D02*
X0194292Y0081929D01*
X0194292Y0081302D02*
X0194292Y0085827D01*
X0197713Y0085827D01*
X0198494Y0085703D01*
X0199246Y0085458D01*
X0199951Y0085099D01*
X0200591Y0084634D01*
X0201150Y0084075D01*
X0201615Y0083435D01*
X0201974Y0082730D01*
X0202219Y0081978D01*
X0202326Y0081302D01*
X0194292Y0081302D01*
X0194292Y0080931D02*
X0202906Y0080931D01*
X0202326Y0080302D02*
X0194292Y0080302D01*
X0194292Y0075777D01*
X0197713Y0075777D01*
X0198494Y0075900D01*
X0199246Y0076145D01*
X0199951Y0076504D01*
X0200591Y0076969D01*
X0201150Y0077528D01*
X0201615Y0078168D01*
X0201974Y0078873D01*
X0202219Y0079625D01*
X0202326Y0080302D01*
X0202267Y0079932D02*
X0202906Y0079932D01*
X0202906Y0078934D02*
X0201994Y0078934D01*
X0201446Y0077935D02*
X0202906Y0077935D01*
X0202906Y0076937D02*
X0200547Y0076937D01*
X0198611Y0075938D02*
X0202906Y0075938D01*
X0202906Y0074940D02*
X0172188Y0074940D01*
X0170927Y0075938D02*
X0188974Y0075938D01*
X0187038Y0076937D02*
X0169666Y0076937D01*
X0168404Y0077935D02*
X0186139Y0077935D01*
X0185591Y0078934D02*
X0167143Y0078934D01*
X0165882Y0079932D02*
X0185317Y0079932D01*
X0186326Y0083926D02*
X0160133Y0083926D01*
X0161472Y0084925D02*
X0187393Y0084925D01*
X0193292Y0084925D02*
X0194292Y0084925D01*
X0194292Y0083926D02*
X0193292Y0083926D01*
X0193292Y0082928D02*
X0194292Y0082928D01*
X0194292Y0079932D02*
X0193292Y0079932D01*
X0193292Y0078934D02*
X0194292Y0078934D01*
X0194292Y0077935D02*
X0193292Y0077935D01*
X0193292Y0076937D02*
X0194292Y0076937D01*
X0194292Y0075938D02*
X0193292Y0075938D01*
X0202226Y0081929D02*
X0202906Y0081929D01*
X0202906Y0082928D02*
X0201874Y0082928D01*
X0201258Y0083926D02*
X0202906Y0083926D01*
X0202906Y0084925D02*
X0200191Y0084925D01*
X0202906Y0085923D02*
X0162160Y0085923D01*
X0160315Y0091914D02*
X0170264Y0091914D01*
X0169066Y0092913D02*
X0147395Y0092913D01*
X0147395Y0093911D02*
X0167868Y0093911D01*
X0155651Y0091914D02*
X0154651Y0091914D01*
X0154651Y0090916D02*
X0155651Y0090916D01*
X0155651Y0089917D02*
X0154651Y0089917D01*
X0154651Y0088919D02*
X0155651Y0088919D01*
X0155651Y0085923D02*
X0154651Y0085923D01*
X0154651Y0084925D02*
X0155651Y0084925D01*
X0155651Y0083926D02*
X0154651Y0083926D01*
X0147745Y0088919D02*
X0147395Y0088919D01*
X0147395Y0089917D02*
X0148094Y0089917D01*
X0148736Y0090916D02*
X0147395Y0090916D01*
X0147395Y0091914D02*
X0149986Y0091914D01*
X0148479Y0105894D02*
X0202724Y0105894D01*
X0202906Y0104895D02*
X0200232Y0104895D01*
X0201280Y0103897D02*
X0202906Y0103897D01*
X0202906Y0102898D02*
X0201889Y0102898D01*
X0202231Y0101900D02*
X0202906Y0101900D01*
X0201659Y0106892D02*
X0147148Y0106892D01*
X0145817Y0107891D02*
X0200594Y0107891D01*
X0199529Y0108889D02*
X0144485Y0108889D01*
X0143463Y0109888D02*
X0198464Y0109888D01*
X0197399Y0110886D02*
X0143486Y0110886D01*
X0148824Y0112883D02*
X0149824Y0112883D01*
X0149824Y0113882D02*
X0148824Y0113882D01*
X0148824Y0114880D02*
X0149824Y0114880D01*
X0149824Y0115879D02*
X0148824Y0115879D01*
X0148824Y0116877D02*
X0149824Y0116877D01*
X0149824Y0119873D02*
X0148824Y0119873D01*
X0148824Y0120871D02*
X0149824Y0120871D01*
X0149824Y0121870D02*
X0148824Y0121870D01*
X0148824Y0122868D02*
X0149824Y0122868D01*
X0149824Y0123867D02*
X0148824Y0123867D01*
X0148824Y0124865D02*
X0149824Y0124865D01*
X0149824Y0125864D02*
X0148824Y0125864D01*
X0146566Y0125864D02*
X0143826Y0125864D01*
X0143849Y0126862D02*
X0155659Y0126862D01*
X0155629Y0125864D02*
X0152082Y0125864D01*
X0153026Y0124865D02*
X0155600Y0124865D01*
X0155571Y0123867D02*
X0153548Y0123867D01*
X0153791Y0122868D02*
X0155324Y0122868D01*
X0155324Y0121870D02*
X0153824Y0121870D01*
X0153824Y0120871D02*
X0155324Y0120871D01*
X0155324Y0119873D02*
X0153824Y0119873D01*
X0145621Y0124865D02*
X0143803Y0124865D01*
X0143781Y0123867D02*
X0145099Y0123867D01*
X0144857Y0122868D02*
X0143758Y0122868D01*
X0143735Y0121870D02*
X0144824Y0121870D01*
X0144824Y0120871D02*
X0143712Y0120871D01*
X0143690Y0119873D02*
X0144824Y0119873D01*
X0146829Y0162680D02*
X0143458Y0162809D01*
X0143458Y0180526D01*
X0147395Y0183676D01*
X0174954Y0183676D01*
X0179284Y0186038D01*
X0202906Y0186038D01*
X0202906Y0172652D01*
X0169048Y0172652D01*
X0165111Y0174620D01*
X0162177Y0174519D01*
X0161927Y0175123D01*
X0160802Y0176248D01*
X0159332Y0176857D01*
X0157741Y0176857D01*
X0156271Y0176248D01*
X0155145Y0175123D01*
X0154790Y0174265D01*
X0153694Y0174227D01*
X0153694Y0162416D01*
X0149882Y0162562D01*
X0150264Y0162686D01*
X0150895Y0163008D01*
X0151468Y0163424D01*
X0151969Y0163925D01*
X0152385Y0164498D01*
X0152707Y0165129D01*
X0152926Y0165803D01*
X0153036Y0166503D01*
X0153036Y0169357D01*
X0149036Y0169357D01*
X0149036Y0170357D01*
X0148036Y0170357D01*
X0148036Y0169357D01*
X0144036Y0169357D01*
X0144036Y0166503D01*
X0144147Y0165803D01*
X0144366Y0165129D01*
X0144688Y0164498D01*
X0145104Y0163925D01*
X0145605Y0163424D01*
X0146178Y0163008D01*
X0146809Y0162686D01*
X0146829Y0162680D01*
X0146569Y0162809D02*
X0143476Y0162809D01*
X0143458Y0163807D02*
X0145222Y0163807D01*
X0144531Y0164806D02*
X0143458Y0164806D01*
X0143458Y0165804D02*
X0144147Y0165804D01*
X0144036Y0166803D02*
X0143458Y0166803D01*
X0143458Y0167801D02*
X0144036Y0167801D01*
X0144036Y0168800D02*
X0143458Y0168800D01*
X0143458Y0169798D02*
X0148036Y0169798D01*
X0148036Y0170357D02*
X0144036Y0170357D01*
X0144036Y0173211D01*
X0144147Y0173910D01*
X0144366Y0174584D01*
X0144688Y0175215D01*
X0145104Y0175788D01*
X0145605Y0176289D01*
X0146178Y0176705D01*
X0146809Y0177027D01*
X0147483Y0177246D01*
X0148036Y0177334D01*
X0148036Y0170357D01*
X0148036Y0170797D02*
X0149036Y0170797D01*
X0149036Y0170357D02*
X0149036Y0177334D01*
X0149590Y0177246D01*
X0150264Y0177027D01*
X0150895Y0176705D01*
X0151468Y0176289D01*
X0151969Y0175788D01*
X0152385Y0175215D01*
X0152707Y0174584D01*
X0152926Y0173910D01*
X0153036Y0173211D01*
X0153036Y0170357D01*
X0149036Y0170357D01*
X0149036Y0169798D02*
X0153694Y0169798D01*
X0153694Y0168800D02*
X0153036Y0168800D01*
X0153036Y0167801D02*
X0153694Y0167801D01*
X0153694Y0166803D02*
X0153036Y0166803D01*
X0152926Y0165804D02*
X0153694Y0165804D01*
X0153694Y0164806D02*
X0152542Y0164806D01*
X0151851Y0163807D02*
X0153694Y0163807D01*
X0153694Y0162809D02*
X0150504Y0162809D01*
X0153036Y0170797D02*
X0153694Y0170797D01*
X0153694Y0171795D02*
X0153036Y0171795D01*
X0153036Y0172794D02*
X0153694Y0172794D01*
X0153694Y0173792D02*
X0152944Y0173792D01*
X0152601Y0174791D02*
X0155008Y0174791D01*
X0155812Y0175789D02*
X0151968Y0175789D01*
X0150733Y0176788D02*
X0157575Y0176788D01*
X0159498Y0176788D02*
X0185203Y0176788D01*
X0185217Y0176747D02*
X0185576Y0176042D01*
X0186041Y0175402D01*
X0186600Y0174843D01*
X0187240Y0174378D01*
X0187945Y0174019D01*
X0188697Y0173774D01*
X0189478Y0173651D01*
X0192899Y0173651D01*
X0192899Y0178176D01*
X0193899Y0178176D01*
X0193899Y0179176D01*
X0192899Y0179176D01*
X0192899Y0183701D01*
X0189478Y0183701D01*
X0188697Y0183577D01*
X0187945Y0183332D01*
X0187240Y0182973D01*
X0186600Y0182508D01*
X0186041Y0181949D01*
X0185576Y0181309D01*
X0185217Y0180605D01*
X0184972Y0179852D01*
X0184865Y0179176D01*
X0192899Y0179176D01*
X0192899Y0178176D01*
X0184865Y0178176D01*
X0184972Y0177499D01*
X0185217Y0176747D01*
X0184927Y0177786D02*
X0143458Y0177786D01*
X0143458Y0176788D02*
X0146340Y0176788D01*
X0145105Y0175789D02*
X0143458Y0175789D01*
X0143458Y0174791D02*
X0144471Y0174791D01*
X0144128Y0173792D02*
X0143458Y0173792D01*
X0143458Y0172794D02*
X0144036Y0172794D01*
X0144036Y0171795D02*
X0143458Y0171795D01*
X0143458Y0170797D02*
X0144036Y0170797D01*
X0148036Y0171795D02*
X0149036Y0171795D01*
X0149036Y0172794D02*
X0148036Y0172794D01*
X0148036Y0173792D02*
X0149036Y0173792D01*
X0149036Y0174791D02*
X0148036Y0174791D01*
X0148036Y0175789D02*
X0149036Y0175789D01*
X0149036Y0176788D02*
X0148036Y0176788D01*
X0143458Y0178785D02*
X0192899Y0178785D01*
X0192899Y0179783D02*
X0193899Y0179783D01*
X0193899Y0179176D02*
X0193899Y0183701D01*
X0197319Y0183701D01*
X0198100Y0183577D01*
X0198853Y0183332D01*
X0199557Y0182973D01*
X0200197Y0182508D01*
X0200756Y0181949D01*
X0201221Y0181309D01*
X0201580Y0180605D01*
X0201825Y0179852D01*
X0201932Y0179176D01*
X0193899Y0179176D01*
X0193899Y0178785D02*
X0202906Y0178785D01*
X0202906Y0179783D02*
X0201836Y0179783D01*
X0201490Y0180782D02*
X0202906Y0180782D01*
X0202906Y0181780D02*
X0200879Y0181780D01*
X0199825Y0182779D02*
X0202906Y0182779D01*
X0202906Y0183777D02*
X0175140Y0183777D01*
X0176971Y0184776D02*
X0202906Y0184776D01*
X0202906Y0185774D02*
X0178802Y0185774D01*
X0181568Y0190920D02*
X0202867Y0190920D01*
X0202867Y0204857D01*
X0195347Y0211983D01*
X0155505Y0211983D01*
X0143536Y0201983D01*
X0143536Y0186195D01*
X0154599Y0186195D01*
X0154599Y0188241D01*
X0154552Y0188289D01*
X0153836Y0190016D01*
X0153836Y0197886D01*
X0154552Y0199614D01*
X0154599Y0199661D01*
X0154599Y0200920D01*
X0155858Y0200920D01*
X0155874Y0200936D01*
X0157601Y0201651D01*
X0159471Y0201651D01*
X0161199Y0200936D01*
X0161215Y0200920D01*
X0171568Y0200920D01*
X0181568Y0190920D01*
X0180722Y0191766D02*
X0202867Y0191766D01*
X0202867Y0192764D02*
X0179723Y0192764D01*
X0178725Y0193763D02*
X0188771Y0193763D01*
X0188697Y0193774D02*
X0189478Y0193651D01*
X0192899Y0193651D01*
X0192899Y0198176D01*
X0193899Y0198176D01*
X0193899Y0199176D01*
X0192899Y0199176D01*
X0192899Y0203701D01*
X0189478Y0203701D01*
X0188697Y0203577D01*
X0187945Y0203332D01*
X0187240Y0202973D01*
X0186600Y0202508D01*
X0186041Y0201949D01*
X0185576Y0201309D01*
X0185217Y0200605D01*
X0184972Y0199852D01*
X0184865Y0199176D01*
X0192899Y0199176D01*
X0192899Y0198176D01*
X0184865Y0198176D01*
X0184972Y0197499D01*
X0185217Y0196747D01*
X0185576Y0196042D01*
X0186041Y0195402D01*
X0186600Y0194843D01*
X0187240Y0194378D01*
X0187945Y0194019D01*
X0188697Y0193774D01*
X0186712Y0194761D02*
X0177726Y0194761D01*
X0176728Y0195760D02*
X0185781Y0195760D01*
X0185213Y0196758D02*
X0175729Y0196758D01*
X0174731Y0197757D02*
X0184931Y0197757D01*
X0184957Y0199754D02*
X0172734Y0199754D01*
X0171735Y0200752D02*
X0185292Y0200752D01*
X0185897Y0201751D02*
X0143536Y0201751D01*
X0143536Y0200752D02*
X0146112Y0200752D01*
X0146178Y0200800D02*
X0145605Y0200384D01*
X0145104Y0199883D01*
X0144688Y0199310D01*
X0144366Y0198679D01*
X0144147Y0198005D01*
X0144036Y0197305D01*
X0144036Y0194451D01*
X0148036Y0194451D01*
X0148036Y0193451D01*
X0144036Y0193451D01*
X0144036Y0190597D01*
X0144147Y0189897D01*
X0144366Y0189224D01*
X0144688Y0188593D01*
X0145104Y0188020D01*
X0145605Y0187519D01*
X0146178Y0187102D01*
X0146809Y0186781D01*
X0147483Y0186562D01*
X0148036Y0186474D01*
X0148036Y0193451D01*
X0149036Y0193451D01*
X0149036Y0186474D01*
X0149590Y0186562D01*
X0150264Y0186781D01*
X0150895Y0187102D01*
X0151468Y0187519D01*
X0151969Y0188020D01*
X0152385Y0188593D01*
X0152707Y0189224D01*
X0152926Y0189897D01*
X0153036Y0190597D01*
X0153036Y0193451D01*
X0149036Y0193451D01*
X0149036Y0194451D01*
X0148036Y0194451D01*
X0148036Y0201428D01*
X0147483Y0201340D01*
X0146809Y0201121D01*
X0146178Y0200800D01*
X0145010Y0199754D02*
X0143536Y0199754D01*
X0143536Y0198755D02*
X0144405Y0198755D01*
X0144108Y0197757D02*
X0143536Y0197757D01*
X0143536Y0196758D02*
X0144036Y0196758D01*
X0144036Y0195760D02*
X0143536Y0195760D01*
X0143536Y0194761D02*
X0144036Y0194761D01*
X0143536Y0193763D02*
X0148036Y0193763D01*
X0148036Y0194761D02*
X0149036Y0194761D01*
X0149036Y0194451D02*
X0149036Y0201428D01*
X0149590Y0201340D01*
X0150264Y0201121D01*
X0150895Y0200800D01*
X0151468Y0200384D01*
X0151969Y0199883D01*
X0152385Y0199310D01*
X0152707Y0198679D01*
X0152926Y0198005D01*
X0153036Y0197305D01*
X0153036Y0194451D01*
X0149036Y0194451D01*
X0149036Y0193763D02*
X0153836Y0193763D01*
X0153836Y0194761D02*
X0153036Y0194761D01*
X0153036Y0195760D02*
X0153836Y0195760D01*
X0153836Y0196758D02*
X0153036Y0196758D01*
X0152965Y0197757D02*
X0153836Y0197757D01*
X0154196Y0198755D02*
X0152668Y0198755D01*
X0152063Y0199754D02*
X0154599Y0199754D01*
X0154599Y0200752D02*
X0150961Y0200752D01*
X0149036Y0200752D02*
X0148036Y0200752D01*
X0148036Y0199754D02*
X0149036Y0199754D01*
X0149036Y0198755D02*
X0148036Y0198755D01*
X0148036Y0197757D02*
X0149036Y0197757D01*
X0149036Y0196758D02*
X0148036Y0196758D01*
X0148036Y0195760D02*
X0149036Y0195760D01*
X0149036Y0192764D02*
X0148036Y0192764D01*
X0148036Y0191766D02*
X0149036Y0191766D01*
X0149036Y0190767D02*
X0148036Y0190767D01*
X0148036Y0189769D02*
X0149036Y0189769D01*
X0149036Y0188770D02*
X0148036Y0188770D01*
X0148036Y0187772D02*
X0149036Y0187772D01*
X0149036Y0186773D02*
X0148036Y0186773D01*
X0146833Y0186773D02*
X0143536Y0186773D01*
X0143536Y0187772D02*
X0145352Y0187772D01*
X0144597Y0188770D02*
X0143536Y0188770D01*
X0143536Y0189769D02*
X0144189Y0189769D01*
X0144036Y0190767D02*
X0143536Y0190767D01*
X0143536Y0191766D02*
X0144036Y0191766D01*
X0144036Y0192764D02*
X0143536Y0192764D01*
X0150240Y0186773D02*
X0154599Y0186773D01*
X0154599Y0187772D02*
X0151721Y0187772D01*
X0152475Y0188770D02*
X0154353Y0188770D01*
X0153939Y0189769D02*
X0152884Y0189769D01*
X0153036Y0190767D02*
X0153836Y0190767D01*
X0153836Y0191766D02*
X0153036Y0191766D01*
X0153036Y0192764D02*
X0153836Y0192764D01*
X0146274Y0182779D02*
X0186972Y0182779D01*
X0185918Y0181780D02*
X0145026Y0181780D01*
X0143778Y0180782D02*
X0185307Y0180782D01*
X0184961Y0179783D02*
X0143458Y0179783D01*
X0161261Y0175789D02*
X0185759Y0175789D01*
X0186671Y0174791D02*
X0162065Y0174791D01*
X0166767Y0173792D02*
X0188641Y0173792D01*
X0192899Y0173792D02*
X0193899Y0173792D01*
X0193899Y0173651D02*
X0197319Y0173651D01*
X0198100Y0173774D01*
X0198853Y0174019D01*
X0199557Y0174378D01*
X0200197Y0174843D01*
X0200756Y0175402D01*
X0201221Y0176042D01*
X0201580Y0176747D01*
X0201825Y0177499D01*
X0201932Y0178176D01*
X0193899Y0178176D01*
X0193899Y0173651D01*
X0193899Y0174791D02*
X0192899Y0174791D01*
X0192899Y0175789D02*
X0193899Y0175789D01*
X0193899Y0176788D02*
X0192899Y0176788D01*
X0192899Y0177786D02*
X0193899Y0177786D01*
X0193899Y0180782D02*
X0192899Y0180782D01*
X0192899Y0181780D02*
X0193899Y0181780D01*
X0193899Y0182779D02*
X0192899Y0182779D01*
X0201870Y0177786D02*
X0202906Y0177786D01*
X0202906Y0176788D02*
X0201594Y0176788D01*
X0201038Y0175789D02*
X0202906Y0175789D01*
X0202906Y0174791D02*
X0200126Y0174791D01*
X0198156Y0173792D02*
X0202906Y0173792D01*
X0202906Y0172794D02*
X0168764Y0172794D01*
X0192899Y0193763D02*
X0193899Y0193763D01*
X0193899Y0193651D02*
X0197319Y0193651D01*
X0198100Y0193774D01*
X0198853Y0194019D01*
X0199557Y0194378D01*
X0200197Y0194843D01*
X0200756Y0195402D01*
X0201221Y0196042D01*
X0201580Y0196747D01*
X0201825Y0197499D01*
X0201932Y0198176D01*
X0193899Y0198176D01*
X0193899Y0193651D01*
X0193899Y0194761D02*
X0192899Y0194761D01*
X0192899Y0195760D02*
X0193899Y0195760D01*
X0193899Y0196758D02*
X0192899Y0196758D01*
X0192899Y0197757D02*
X0193899Y0197757D01*
X0193899Y0198755D02*
X0202867Y0198755D01*
X0202867Y0197757D02*
X0201866Y0197757D01*
X0201584Y0196758D02*
X0202867Y0196758D01*
X0202867Y0195760D02*
X0201016Y0195760D01*
X0200085Y0194761D02*
X0202867Y0194761D01*
X0202867Y0193763D02*
X0198026Y0193763D01*
X0201932Y0199176D02*
X0193899Y0199176D01*
X0193899Y0203701D01*
X0197319Y0203701D01*
X0198100Y0203577D01*
X0198853Y0203332D01*
X0199557Y0202973D01*
X0200197Y0202508D01*
X0200756Y0201949D01*
X0201221Y0201309D01*
X0201580Y0200605D01*
X0201825Y0199852D01*
X0201932Y0199176D01*
X0201840Y0199754D02*
X0202867Y0199754D01*
X0202867Y0200752D02*
X0201505Y0200752D01*
X0200901Y0201751D02*
X0202867Y0201751D01*
X0202867Y0202749D02*
X0199866Y0202749D01*
X0202867Y0203748D02*
X0145649Y0203748D01*
X0146844Y0204746D02*
X0202867Y0204746D01*
X0201930Y0205745D02*
X0148039Y0205745D01*
X0149234Y0206743D02*
X0200876Y0206743D01*
X0199823Y0207742D02*
X0150429Y0207742D01*
X0151624Y0208740D02*
X0198769Y0208740D01*
X0197715Y0209739D02*
X0152819Y0209739D01*
X0154014Y0210737D02*
X0196662Y0210737D01*
X0195608Y0211736D02*
X0155209Y0211736D01*
X0144454Y0202749D02*
X0186931Y0202749D01*
X0192899Y0202749D02*
X0193899Y0202749D01*
X0193899Y0201751D02*
X0192899Y0201751D01*
X0192899Y0200752D02*
X0193899Y0200752D01*
X0193899Y0199754D02*
X0192899Y0199754D01*
X0192899Y0198755D02*
X0173732Y0198755D01*
X0193292Y0104895D02*
X0194292Y0104895D01*
X0194292Y0103897D02*
X0193292Y0103897D01*
X0193292Y0102898D02*
X0194292Y0102898D01*
X0194292Y0099903D02*
X0193292Y0099903D01*
X0193292Y0098904D02*
X0194292Y0098904D01*
X0194292Y0097905D02*
X0193292Y0097905D01*
X0193292Y0096907D02*
X0194292Y0096907D01*
X0194292Y0095908D02*
X0193292Y0095908D01*
M02*
