G75*
%MOIN*%
%OFA0B0*%
%FSLAX25Y25*%
%IPPOS*%
%LPD*%
%AMOC8*
5,1,8,0,0,1.08239X$1,22.5*
%
%ADD10C,0.00000*%
%ADD11C,0.00400*%
%ADD12C,0.00600*%
%ADD13C,0.00500*%
%ADD14R,0.42000X0.03000*%
%ADD15R,0.07500X0.02000*%
%ADD16R,0.03000X0.02000*%
%ADD17C,0.00800*%
%ADD18C,0.00200*%
%ADD19R,0.00111X0.01330*%
%ADD20R,0.00111X0.02780*%
%ADD21R,0.00111X0.03780*%
%ADD22R,0.00111X0.04440*%
%ADD23R,0.00112X0.05440*%
%ADD24R,0.00111X0.06440*%
%ADD25R,0.00111X0.07440*%
%ADD26R,0.00111X0.08550*%
%ADD27R,0.00111X0.09110*%
%ADD28R,0.00111X0.10110*%
%ADD29R,0.00111X0.11000*%
%ADD30R,0.00111X0.12110*%
%ADD31R,0.00111X0.12780*%
%ADD32R,0.00112X0.13780*%
%ADD33R,0.00111X0.14780*%
%ADD34R,0.00111X0.13110*%
%ADD35R,0.00111X0.01560*%
%ADD36R,0.00111X0.12450*%
%ADD37R,0.00111X0.11890*%
%ADD38R,0.00111X0.10000*%
%ADD39R,0.00111X0.01670*%
%ADD40R,0.00111X0.08560*%
%ADD41R,0.00112X0.07450*%
%ADD42R,0.00112X0.01670*%
%ADD43R,0.00111X0.06450*%
%ADD44R,0.00111X0.05450*%
%ADD45R,0.00111X0.04450*%
%ADD46R,0.00111X0.03890*%
%ADD47R,0.00111X0.02890*%
%ADD48R,0.00111X0.01780*%
%ADD49R,0.00111X0.01670*%
%ADD50R,0.00112X0.01560*%
%ADD51R,0.00112X0.01670*%
%ADD52R,0.00111X0.01560*%
%ADD53R,0.00111X0.00110*%
%ADD54R,0.00112X0.01560*%
%ADD55R,0.00112X0.02560*%
%ADD56R,0.00111X0.03440*%
%ADD57R,0.00111X0.04560*%
%ADD58R,0.00111X0.04890*%
%ADD59R,0.00111X0.05440*%
%ADD60R,0.00111X0.02450*%
%ADD61R,0.00111X0.02110*%
%ADD62R,0.00111X0.02000*%
%ADD63R,0.00111X0.01890*%
%ADD64R,0.00111X0.01550*%
%ADD65R,0.00112X0.01450*%
%ADD66R,0.00111X0.01440*%
%ADD67R,0.00111X0.01340*%
%ADD68R,0.00111X0.01220*%
%ADD69R,0.00111X0.01110*%
%ADD70R,0.00111X0.01120*%
%ADD71R,0.00111X0.01000*%
%ADD72R,0.00111X0.00890*%
%ADD73R,0.00111X0.00890*%
%ADD74R,0.00112X0.01550*%
%ADD75R,0.00112X0.01000*%
%ADD76R,0.00112X0.00890*%
%ADD77R,0.00111X0.01660*%
%ADD78R,0.00111X0.00770*%
%ADD79R,0.00111X0.00880*%
%ADD80R,0.00111X0.00780*%
%ADD81R,0.00112X0.00780*%
%ADD82R,0.00111X0.01660*%
%ADD83R,0.00111X0.00660*%
%ADD84R,0.00111X0.00440*%
%ADD85R,0.00111X0.00660*%
%ADD86R,0.00112X0.01660*%
%ADD87R,0.00112X0.00770*%
%ADD88R,0.00111X0.01440*%
%ADD89R,0.00111X0.00330*%
%ADD90R,0.00111X0.00550*%
%ADD91R,0.00111X0.00670*%
%ADD92R,0.00111X0.01770*%
%ADD93R,0.00112X0.01780*%
%ADD94R,0.00111X0.03450*%
%ADD95R,0.00111X0.01220*%
%ADD96R,0.00111X0.01450*%
%ADD97R,0.00111X0.03560*%
%ADD98R,0.00111X0.03670*%
%ADD99R,0.00111X0.02330*%
%ADD100R,0.00111X0.00670*%
%ADD101R,0.00111X0.00340*%
%ADD102R,0.00111X0.03230*%
%ADD103R,0.00112X0.03110*%
%ADD104R,0.00111X0.03000*%
%ADD105R,0.00111X0.02890*%
%ADD106R,0.00111X0.00220*%
%ADD107R,0.00111X0.02670*%
%ADD108R,0.00111X0.02560*%
%ADD109R,0.00111X0.02560*%
%ADD110R,0.00111X0.00330*%
%ADD111R,0.00111X0.02550*%
%ADD112R,0.00112X0.02550*%
%ADD113R,0.00111X0.01330*%
%ADD114R,0.00111X0.03550*%
%ADD115R,0.00111X0.03670*%
%ADD116R,0.00112X0.03670*%
%ADD117R,0.00111X0.03770*%
%ADD118R,0.00111X0.03880*%
%ADD119R,0.00111X0.03780*%
%ADD120R,0.00112X0.03780*%
%ADD121R,0.00112X0.02560*%
%ADD122R,0.00112X0.03660*%
%ADD123R,0.00111X0.02660*%
%ADD124R,0.00112X0.03770*%
%ADD125R,0.00112X0.02440*%
%ADD126R,0.00111X0.03890*%
%ADD127R,0.00111X0.06110*%
%ADD128R,0.00111X0.05780*%
%ADD129R,0.00111X0.05110*%
%ADD130R,0.00111X0.04660*%
%ADD131R,0.00112X0.04220*%
%ADD132R,0.00111X0.02440*%
%ADD133R,0.00111X0.01780*%
D10*
X0001500Y0001500D02*
X0001500Y0200201D01*
X0196421Y0200201D01*
X0196421Y0001500D01*
X0001500Y0001500D01*
X0005201Y0011500D02*
X0005203Y0011658D01*
X0005209Y0011816D01*
X0005219Y0011974D01*
X0005233Y0012132D01*
X0005251Y0012289D01*
X0005272Y0012446D01*
X0005298Y0012602D01*
X0005328Y0012758D01*
X0005361Y0012913D01*
X0005399Y0013066D01*
X0005440Y0013219D01*
X0005485Y0013371D01*
X0005534Y0013522D01*
X0005587Y0013671D01*
X0005643Y0013819D01*
X0005703Y0013965D01*
X0005767Y0014110D01*
X0005835Y0014253D01*
X0005906Y0014395D01*
X0005980Y0014535D01*
X0006058Y0014672D01*
X0006140Y0014808D01*
X0006224Y0014942D01*
X0006313Y0015073D01*
X0006404Y0015202D01*
X0006499Y0015329D01*
X0006596Y0015454D01*
X0006697Y0015576D01*
X0006801Y0015695D01*
X0006908Y0015812D01*
X0007018Y0015926D01*
X0007131Y0016037D01*
X0007246Y0016146D01*
X0007364Y0016251D01*
X0007485Y0016353D01*
X0007608Y0016453D01*
X0007734Y0016549D01*
X0007862Y0016642D01*
X0007992Y0016732D01*
X0008125Y0016818D01*
X0008260Y0016902D01*
X0008396Y0016981D01*
X0008535Y0017058D01*
X0008676Y0017130D01*
X0008818Y0017200D01*
X0008962Y0017265D01*
X0009108Y0017327D01*
X0009255Y0017385D01*
X0009404Y0017440D01*
X0009554Y0017491D01*
X0009705Y0017538D01*
X0009857Y0017581D01*
X0010010Y0017620D01*
X0010165Y0017656D01*
X0010320Y0017687D01*
X0010476Y0017715D01*
X0010632Y0017739D01*
X0010789Y0017759D01*
X0010947Y0017775D01*
X0011104Y0017787D01*
X0011263Y0017795D01*
X0011421Y0017799D01*
X0011579Y0017799D01*
X0011737Y0017795D01*
X0011896Y0017787D01*
X0012053Y0017775D01*
X0012211Y0017759D01*
X0012368Y0017739D01*
X0012524Y0017715D01*
X0012680Y0017687D01*
X0012835Y0017656D01*
X0012990Y0017620D01*
X0013143Y0017581D01*
X0013295Y0017538D01*
X0013446Y0017491D01*
X0013596Y0017440D01*
X0013745Y0017385D01*
X0013892Y0017327D01*
X0014038Y0017265D01*
X0014182Y0017200D01*
X0014324Y0017130D01*
X0014465Y0017058D01*
X0014604Y0016981D01*
X0014740Y0016902D01*
X0014875Y0016818D01*
X0015008Y0016732D01*
X0015138Y0016642D01*
X0015266Y0016549D01*
X0015392Y0016453D01*
X0015515Y0016353D01*
X0015636Y0016251D01*
X0015754Y0016146D01*
X0015869Y0016037D01*
X0015982Y0015926D01*
X0016092Y0015812D01*
X0016199Y0015695D01*
X0016303Y0015576D01*
X0016404Y0015454D01*
X0016501Y0015329D01*
X0016596Y0015202D01*
X0016687Y0015073D01*
X0016776Y0014942D01*
X0016860Y0014808D01*
X0016942Y0014672D01*
X0017020Y0014535D01*
X0017094Y0014395D01*
X0017165Y0014253D01*
X0017233Y0014110D01*
X0017297Y0013965D01*
X0017357Y0013819D01*
X0017413Y0013671D01*
X0017466Y0013522D01*
X0017515Y0013371D01*
X0017560Y0013219D01*
X0017601Y0013066D01*
X0017639Y0012913D01*
X0017672Y0012758D01*
X0017702Y0012602D01*
X0017728Y0012446D01*
X0017749Y0012289D01*
X0017767Y0012132D01*
X0017781Y0011974D01*
X0017791Y0011816D01*
X0017797Y0011658D01*
X0017799Y0011500D01*
X0017797Y0011342D01*
X0017791Y0011184D01*
X0017781Y0011026D01*
X0017767Y0010868D01*
X0017749Y0010711D01*
X0017728Y0010554D01*
X0017702Y0010398D01*
X0017672Y0010242D01*
X0017639Y0010087D01*
X0017601Y0009934D01*
X0017560Y0009781D01*
X0017515Y0009629D01*
X0017466Y0009478D01*
X0017413Y0009329D01*
X0017357Y0009181D01*
X0017297Y0009035D01*
X0017233Y0008890D01*
X0017165Y0008747D01*
X0017094Y0008605D01*
X0017020Y0008465D01*
X0016942Y0008328D01*
X0016860Y0008192D01*
X0016776Y0008058D01*
X0016687Y0007927D01*
X0016596Y0007798D01*
X0016501Y0007671D01*
X0016404Y0007546D01*
X0016303Y0007424D01*
X0016199Y0007305D01*
X0016092Y0007188D01*
X0015982Y0007074D01*
X0015869Y0006963D01*
X0015754Y0006854D01*
X0015636Y0006749D01*
X0015515Y0006647D01*
X0015392Y0006547D01*
X0015266Y0006451D01*
X0015138Y0006358D01*
X0015008Y0006268D01*
X0014875Y0006182D01*
X0014740Y0006098D01*
X0014604Y0006019D01*
X0014465Y0005942D01*
X0014324Y0005870D01*
X0014182Y0005800D01*
X0014038Y0005735D01*
X0013892Y0005673D01*
X0013745Y0005615D01*
X0013596Y0005560D01*
X0013446Y0005509D01*
X0013295Y0005462D01*
X0013143Y0005419D01*
X0012990Y0005380D01*
X0012835Y0005344D01*
X0012680Y0005313D01*
X0012524Y0005285D01*
X0012368Y0005261D01*
X0012211Y0005241D01*
X0012053Y0005225D01*
X0011896Y0005213D01*
X0011737Y0005205D01*
X0011579Y0005201D01*
X0011421Y0005201D01*
X0011263Y0005205D01*
X0011104Y0005213D01*
X0010947Y0005225D01*
X0010789Y0005241D01*
X0010632Y0005261D01*
X0010476Y0005285D01*
X0010320Y0005313D01*
X0010165Y0005344D01*
X0010010Y0005380D01*
X0009857Y0005419D01*
X0009705Y0005462D01*
X0009554Y0005509D01*
X0009404Y0005560D01*
X0009255Y0005615D01*
X0009108Y0005673D01*
X0008962Y0005735D01*
X0008818Y0005800D01*
X0008676Y0005870D01*
X0008535Y0005942D01*
X0008396Y0006019D01*
X0008260Y0006098D01*
X0008125Y0006182D01*
X0007992Y0006268D01*
X0007862Y0006358D01*
X0007734Y0006451D01*
X0007608Y0006547D01*
X0007485Y0006647D01*
X0007364Y0006749D01*
X0007246Y0006854D01*
X0007131Y0006963D01*
X0007018Y0007074D01*
X0006908Y0007188D01*
X0006801Y0007305D01*
X0006697Y0007424D01*
X0006596Y0007546D01*
X0006499Y0007671D01*
X0006404Y0007798D01*
X0006313Y0007927D01*
X0006224Y0008058D01*
X0006140Y0008192D01*
X0006058Y0008328D01*
X0005980Y0008465D01*
X0005906Y0008605D01*
X0005835Y0008747D01*
X0005767Y0008890D01*
X0005703Y0009035D01*
X0005643Y0009181D01*
X0005587Y0009329D01*
X0005534Y0009478D01*
X0005485Y0009629D01*
X0005440Y0009781D01*
X0005399Y0009934D01*
X0005361Y0010087D01*
X0005328Y0010242D01*
X0005298Y0010398D01*
X0005272Y0010554D01*
X0005251Y0010711D01*
X0005233Y0010868D01*
X0005219Y0011026D01*
X0005209Y0011184D01*
X0005203Y0011342D01*
X0005201Y0011500D01*
X0005201Y0191500D02*
X0005203Y0191658D01*
X0005209Y0191816D01*
X0005219Y0191974D01*
X0005233Y0192132D01*
X0005251Y0192289D01*
X0005272Y0192446D01*
X0005298Y0192602D01*
X0005328Y0192758D01*
X0005361Y0192913D01*
X0005399Y0193066D01*
X0005440Y0193219D01*
X0005485Y0193371D01*
X0005534Y0193522D01*
X0005587Y0193671D01*
X0005643Y0193819D01*
X0005703Y0193965D01*
X0005767Y0194110D01*
X0005835Y0194253D01*
X0005906Y0194395D01*
X0005980Y0194535D01*
X0006058Y0194672D01*
X0006140Y0194808D01*
X0006224Y0194942D01*
X0006313Y0195073D01*
X0006404Y0195202D01*
X0006499Y0195329D01*
X0006596Y0195454D01*
X0006697Y0195576D01*
X0006801Y0195695D01*
X0006908Y0195812D01*
X0007018Y0195926D01*
X0007131Y0196037D01*
X0007246Y0196146D01*
X0007364Y0196251D01*
X0007485Y0196353D01*
X0007608Y0196453D01*
X0007734Y0196549D01*
X0007862Y0196642D01*
X0007992Y0196732D01*
X0008125Y0196818D01*
X0008260Y0196902D01*
X0008396Y0196981D01*
X0008535Y0197058D01*
X0008676Y0197130D01*
X0008818Y0197200D01*
X0008962Y0197265D01*
X0009108Y0197327D01*
X0009255Y0197385D01*
X0009404Y0197440D01*
X0009554Y0197491D01*
X0009705Y0197538D01*
X0009857Y0197581D01*
X0010010Y0197620D01*
X0010165Y0197656D01*
X0010320Y0197687D01*
X0010476Y0197715D01*
X0010632Y0197739D01*
X0010789Y0197759D01*
X0010947Y0197775D01*
X0011104Y0197787D01*
X0011263Y0197795D01*
X0011421Y0197799D01*
X0011579Y0197799D01*
X0011737Y0197795D01*
X0011896Y0197787D01*
X0012053Y0197775D01*
X0012211Y0197759D01*
X0012368Y0197739D01*
X0012524Y0197715D01*
X0012680Y0197687D01*
X0012835Y0197656D01*
X0012990Y0197620D01*
X0013143Y0197581D01*
X0013295Y0197538D01*
X0013446Y0197491D01*
X0013596Y0197440D01*
X0013745Y0197385D01*
X0013892Y0197327D01*
X0014038Y0197265D01*
X0014182Y0197200D01*
X0014324Y0197130D01*
X0014465Y0197058D01*
X0014604Y0196981D01*
X0014740Y0196902D01*
X0014875Y0196818D01*
X0015008Y0196732D01*
X0015138Y0196642D01*
X0015266Y0196549D01*
X0015392Y0196453D01*
X0015515Y0196353D01*
X0015636Y0196251D01*
X0015754Y0196146D01*
X0015869Y0196037D01*
X0015982Y0195926D01*
X0016092Y0195812D01*
X0016199Y0195695D01*
X0016303Y0195576D01*
X0016404Y0195454D01*
X0016501Y0195329D01*
X0016596Y0195202D01*
X0016687Y0195073D01*
X0016776Y0194942D01*
X0016860Y0194808D01*
X0016942Y0194672D01*
X0017020Y0194535D01*
X0017094Y0194395D01*
X0017165Y0194253D01*
X0017233Y0194110D01*
X0017297Y0193965D01*
X0017357Y0193819D01*
X0017413Y0193671D01*
X0017466Y0193522D01*
X0017515Y0193371D01*
X0017560Y0193219D01*
X0017601Y0193066D01*
X0017639Y0192913D01*
X0017672Y0192758D01*
X0017702Y0192602D01*
X0017728Y0192446D01*
X0017749Y0192289D01*
X0017767Y0192132D01*
X0017781Y0191974D01*
X0017791Y0191816D01*
X0017797Y0191658D01*
X0017799Y0191500D01*
X0017797Y0191342D01*
X0017791Y0191184D01*
X0017781Y0191026D01*
X0017767Y0190868D01*
X0017749Y0190711D01*
X0017728Y0190554D01*
X0017702Y0190398D01*
X0017672Y0190242D01*
X0017639Y0190087D01*
X0017601Y0189934D01*
X0017560Y0189781D01*
X0017515Y0189629D01*
X0017466Y0189478D01*
X0017413Y0189329D01*
X0017357Y0189181D01*
X0017297Y0189035D01*
X0017233Y0188890D01*
X0017165Y0188747D01*
X0017094Y0188605D01*
X0017020Y0188465D01*
X0016942Y0188328D01*
X0016860Y0188192D01*
X0016776Y0188058D01*
X0016687Y0187927D01*
X0016596Y0187798D01*
X0016501Y0187671D01*
X0016404Y0187546D01*
X0016303Y0187424D01*
X0016199Y0187305D01*
X0016092Y0187188D01*
X0015982Y0187074D01*
X0015869Y0186963D01*
X0015754Y0186854D01*
X0015636Y0186749D01*
X0015515Y0186647D01*
X0015392Y0186547D01*
X0015266Y0186451D01*
X0015138Y0186358D01*
X0015008Y0186268D01*
X0014875Y0186182D01*
X0014740Y0186098D01*
X0014604Y0186019D01*
X0014465Y0185942D01*
X0014324Y0185870D01*
X0014182Y0185800D01*
X0014038Y0185735D01*
X0013892Y0185673D01*
X0013745Y0185615D01*
X0013596Y0185560D01*
X0013446Y0185509D01*
X0013295Y0185462D01*
X0013143Y0185419D01*
X0012990Y0185380D01*
X0012835Y0185344D01*
X0012680Y0185313D01*
X0012524Y0185285D01*
X0012368Y0185261D01*
X0012211Y0185241D01*
X0012053Y0185225D01*
X0011896Y0185213D01*
X0011737Y0185205D01*
X0011579Y0185201D01*
X0011421Y0185201D01*
X0011263Y0185205D01*
X0011104Y0185213D01*
X0010947Y0185225D01*
X0010789Y0185241D01*
X0010632Y0185261D01*
X0010476Y0185285D01*
X0010320Y0185313D01*
X0010165Y0185344D01*
X0010010Y0185380D01*
X0009857Y0185419D01*
X0009705Y0185462D01*
X0009554Y0185509D01*
X0009404Y0185560D01*
X0009255Y0185615D01*
X0009108Y0185673D01*
X0008962Y0185735D01*
X0008818Y0185800D01*
X0008676Y0185870D01*
X0008535Y0185942D01*
X0008396Y0186019D01*
X0008260Y0186098D01*
X0008125Y0186182D01*
X0007992Y0186268D01*
X0007862Y0186358D01*
X0007734Y0186451D01*
X0007608Y0186547D01*
X0007485Y0186647D01*
X0007364Y0186749D01*
X0007246Y0186854D01*
X0007131Y0186963D01*
X0007018Y0187074D01*
X0006908Y0187188D01*
X0006801Y0187305D01*
X0006697Y0187424D01*
X0006596Y0187546D01*
X0006499Y0187671D01*
X0006404Y0187798D01*
X0006313Y0187927D01*
X0006224Y0188058D01*
X0006140Y0188192D01*
X0006058Y0188328D01*
X0005980Y0188465D01*
X0005906Y0188605D01*
X0005835Y0188747D01*
X0005767Y0188890D01*
X0005703Y0189035D01*
X0005643Y0189181D01*
X0005587Y0189329D01*
X0005534Y0189478D01*
X0005485Y0189629D01*
X0005440Y0189781D01*
X0005399Y0189934D01*
X0005361Y0190087D01*
X0005328Y0190242D01*
X0005298Y0190398D01*
X0005272Y0190554D01*
X0005251Y0190711D01*
X0005233Y0190868D01*
X0005219Y0191026D01*
X0005209Y0191184D01*
X0005203Y0191342D01*
X0005201Y0191500D01*
X0180201Y0191500D02*
X0180203Y0191658D01*
X0180209Y0191816D01*
X0180219Y0191974D01*
X0180233Y0192132D01*
X0180251Y0192289D01*
X0180272Y0192446D01*
X0180298Y0192602D01*
X0180328Y0192758D01*
X0180361Y0192913D01*
X0180399Y0193066D01*
X0180440Y0193219D01*
X0180485Y0193371D01*
X0180534Y0193522D01*
X0180587Y0193671D01*
X0180643Y0193819D01*
X0180703Y0193965D01*
X0180767Y0194110D01*
X0180835Y0194253D01*
X0180906Y0194395D01*
X0180980Y0194535D01*
X0181058Y0194672D01*
X0181140Y0194808D01*
X0181224Y0194942D01*
X0181313Y0195073D01*
X0181404Y0195202D01*
X0181499Y0195329D01*
X0181596Y0195454D01*
X0181697Y0195576D01*
X0181801Y0195695D01*
X0181908Y0195812D01*
X0182018Y0195926D01*
X0182131Y0196037D01*
X0182246Y0196146D01*
X0182364Y0196251D01*
X0182485Y0196353D01*
X0182608Y0196453D01*
X0182734Y0196549D01*
X0182862Y0196642D01*
X0182992Y0196732D01*
X0183125Y0196818D01*
X0183260Y0196902D01*
X0183396Y0196981D01*
X0183535Y0197058D01*
X0183676Y0197130D01*
X0183818Y0197200D01*
X0183962Y0197265D01*
X0184108Y0197327D01*
X0184255Y0197385D01*
X0184404Y0197440D01*
X0184554Y0197491D01*
X0184705Y0197538D01*
X0184857Y0197581D01*
X0185010Y0197620D01*
X0185165Y0197656D01*
X0185320Y0197687D01*
X0185476Y0197715D01*
X0185632Y0197739D01*
X0185789Y0197759D01*
X0185947Y0197775D01*
X0186104Y0197787D01*
X0186263Y0197795D01*
X0186421Y0197799D01*
X0186579Y0197799D01*
X0186737Y0197795D01*
X0186896Y0197787D01*
X0187053Y0197775D01*
X0187211Y0197759D01*
X0187368Y0197739D01*
X0187524Y0197715D01*
X0187680Y0197687D01*
X0187835Y0197656D01*
X0187990Y0197620D01*
X0188143Y0197581D01*
X0188295Y0197538D01*
X0188446Y0197491D01*
X0188596Y0197440D01*
X0188745Y0197385D01*
X0188892Y0197327D01*
X0189038Y0197265D01*
X0189182Y0197200D01*
X0189324Y0197130D01*
X0189465Y0197058D01*
X0189604Y0196981D01*
X0189740Y0196902D01*
X0189875Y0196818D01*
X0190008Y0196732D01*
X0190138Y0196642D01*
X0190266Y0196549D01*
X0190392Y0196453D01*
X0190515Y0196353D01*
X0190636Y0196251D01*
X0190754Y0196146D01*
X0190869Y0196037D01*
X0190982Y0195926D01*
X0191092Y0195812D01*
X0191199Y0195695D01*
X0191303Y0195576D01*
X0191404Y0195454D01*
X0191501Y0195329D01*
X0191596Y0195202D01*
X0191687Y0195073D01*
X0191776Y0194942D01*
X0191860Y0194808D01*
X0191942Y0194672D01*
X0192020Y0194535D01*
X0192094Y0194395D01*
X0192165Y0194253D01*
X0192233Y0194110D01*
X0192297Y0193965D01*
X0192357Y0193819D01*
X0192413Y0193671D01*
X0192466Y0193522D01*
X0192515Y0193371D01*
X0192560Y0193219D01*
X0192601Y0193066D01*
X0192639Y0192913D01*
X0192672Y0192758D01*
X0192702Y0192602D01*
X0192728Y0192446D01*
X0192749Y0192289D01*
X0192767Y0192132D01*
X0192781Y0191974D01*
X0192791Y0191816D01*
X0192797Y0191658D01*
X0192799Y0191500D01*
X0192797Y0191342D01*
X0192791Y0191184D01*
X0192781Y0191026D01*
X0192767Y0190868D01*
X0192749Y0190711D01*
X0192728Y0190554D01*
X0192702Y0190398D01*
X0192672Y0190242D01*
X0192639Y0190087D01*
X0192601Y0189934D01*
X0192560Y0189781D01*
X0192515Y0189629D01*
X0192466Y0189478D01*
X0192413Y0189329D01*
X0192357Y0189181D01*
X0192297Y0189035D01*
X0192233Y0188890D01*
X0192165Y0188747D01*
X0192094Y0188605D01*
X0192020Y0188465D01*
X0191942Y0188328D01*
X0191860Y0188192D01*
X0191776Y0188058D01*
X0191687Y0187927D01*
X0191596Y0187798D01*
X0191501Y0187671D01*
X0191404Y0187546D01*
X0191303Y0187424D01*
X0191199Y0187305D01*
X0191092Y0187188D01*
X0190982Y0187074D01*
X0190869Y0186963D01*
X0190754Y0186854D01*
X0190636Y0186749D01*
X0190515Y0186647D01*
X0190392Y0186547D01*
X0190266Y0186451D01*
X0190138Y0186358D01*
X0190008Y0186268D01*
X0189875Y0186182D01*
X0189740Y0186098D01*
X0189604Y0186019D01*
X0189465Y0185942D01*
X0189324Y0185870D01*
X0189182Y0185800D01*
X0189038Y0185735D01*
X0188892Y0185673D01*
X0188745Y0185615D01*
X0188596Y0185560D01*
X0188446Y0185509D01*
X0188295Y0185462D01*
X0188143Y0185419D01*
X0187990Y0185380D01*
X0187835Y0185344D01*
X0187680Y0185313D01*
X0187524Y0185285D01*
X0187368Y0185261D01*
X0187211Y0185241D01*
X0187053Y0185225D01*
X0186896Y0185213D01*
X0186737Y0185205D01*
X0186579Y0185201D01*
X0186421Y0185201D01*
X0186263Y0185205D01*
X0186104Y0185213D01*
X0185947Y0185225D01*
X0185789Y0185241D01*
X0185632Y0185261D01*
X0185476Y0185285D01*
X0185320Y0185313D01*
X0185165Y0185344D01*
X0185010Y0185380D01*
X0184857Y0185419D01*
X0184705Y0185462D01*
X0184554Y0185509D01*
X0184404Y0185560D01*
X0184255Y0185615D01*
X0184108Y0185673D01*
X0183962Y0185735D01*
X0183818Y0185800D01*
X0183676Y0185870D01*
X0183535Y0185942D01*
X0183396Y0186019D01*
X0183260Y0186098D01*
X0183125Y0186182D01*
X0182992Y0186268D01*
X0182862Y0186358D01*
X0182734Y0186451D01*
X0182608Y0186547D01*
X0182485Y0186647D01*
X0182364Y0186749D01*
X0182246Y0186854D01*
X0182131Y0186963D01*
X0182018Y0187074D01*
X0181908Y0187188D01*
X0181801Y0187305D01*
X0181697Y0187424D01*
X0181596Y0187546D01*
X0181499Y0187671D01*
X0181404Y0187798D01*
X0181313Y0187927D01*
X0181224Y0188058D01*
X0181140Y0188192D01*
X0181058Y0188328D01*
X0180980Y0188465D01*
X0180906Y0188605D01*
X0180835Y0188747D01*
X0180767Y0188890D01*
X0180703Y0189035D01*
X0180643Y0189181D01*
X0180587Y0189329D01*
X0180534Y0189478D01*
X0180485Y0189629D01*
X0180440Y0189781D01*
X0180399Y0189934D01*
X0180361Y0190087D01*
X0180328Y0190242D01*
X0180298Y0190398D01*
X0180272Y0190554D01*
X0180251Y0190711D01*
X0180233Y0190868D01*
X0180219Y0191026D01*
X0180209Y0191184D01*
X0180203Y0191342D01*
X0180201Y0191500D01*
X0180201Y0011500D02*
X0180203Y0011658D01*
X0180209Y0011816D01*
X0180219Y0011974D01*
X0180233Y0012132D01*
X0180251Y0012289D01*
X0180272Y0012446D01*
X0180298Y0012602D01*
X0180328Y0012758D01*
X0180361Y0012913D01*
X0180399Y0013066D01*
X0180440Y0013219D01*
X0180485Y0013371D01*
X0180534Y0013522D01*
X0180587Y0013671D01*
X0180643Y0013819D01*
X0180703Y0013965D01*
X0180767Y0014110D01*
X0180835Y0014253D01*
X0180906Y0014395D01*
X0180980Y0014535D01*
X0181058Y0014672D01*
X0181140Y0014808D01*
X0181224Y0014942D01*
X0181313Y0015073D01*
X0181404Y0015202D01*
X0181499Y0015329D01*
X0181596Y0015454D01*
X0181697Y0015576D01*
X0181801Y0015695D01*
X0181908Y0015812D01*
X0182018Y0015926D01*
X0182131Y0016037D01*
X0182246Y0016146D01*
X0182364Y0016251D01*
X0182485Y0016353D01*
X0182608Y0016453D01*
X0182734Y0016549D01*
X0182862Y0016642D01*
X0182992Y0016732D01*
X0183125Y0016818D01*
X0183260Y0016902D01*
X0183396Y0016981D01*
X0183535Y0017058D01*
X0183676Y0017130D01*
X0183818Y0017200D01*
X0183962Y0017265D01*
X0184108Y0017327D01*
X0184255Y0017385D01*
X0184404Y0017440D01*
X0184554Y0017491D01*
X0184705Y0017538D01*
X0184857Y0017581D01*
X0185010Y0017620D01*
X0185165Y0017656D01*
X0185320Y0017687D01*
X0185476Y0017715D01*
X0185632Y0017739D01*
X0185789Y0017759D01*
X0185947Y0017775D01*
X0186104Y0017787D01*
X0186263Y0017795D01*
X0186421Y0017799D01*
X0186579Y0017799D01*
X0186737Y0017795D01*
X0186896Y0017787D01*
X0187053Y0017775D01*
X0187211Y0017759D01*
X0187368Y0017739D01*
X0187524Y0017715D01*
X0187680Y0017687D01*
X0187835Y0017656D01*
X0187990Y0017620D01*
X0188143Y0017581D01*
X0188295Y0017538D01*
X0188446Y0017491D01*
X0188596Y0017440D01*
X0188745Y0017385D01*
X0188892Y0017327D01*
X0189038Y0017265D01*
X0189182Y0017200D01*
X0189324Y0017130D01*
X0189465Y0017058D01*
X0189604Y0016981D01*
X0189740Y0016902D01*
X0189875Y0016818D01*
X0190008Y0016732D01*
X0190138Y0016642D01*
X0190266Y0016549D01*
X0190392Y0016453D01*
X0190515Y0016353D01*
X0190636Y0016251D01*
X0190754Y0016146D01*
X0190869Y0016037D01*
X0190982Y0015926D01*
X0191092Y0015812D01*
X0191199Y0015695D01*
X0191303Y0015576D01*
X0191404Y0015454D01*
X0191501Y0015329D01*
X0191596Y0015202D01*
X0191687Y0015073D01*
X0191776Y0014942D01*
X0191860Y0014808D01*
X0191942Y0014672D01*
X0192020Y0014535D01*
X0192094Y0014395D01*
X0192165Y0014253D01*
X0192233Y0014110D01*
X0192297Y0013965D01*
X0192357Y0013819D01*
X0192413Y0013671D01*
X0192466Y0013522D01*
X0192515Y0013371D01*
X0192560Y0013219D01*
X0192601Y0013066D01*
X0192639Y0012913D01*
X0192672Y0012758D01*
X0192702Y0012602D01*
X0192728Y0012446D01*
X0192749Y0012289D01*
X0192767Y0012132D01*
X0192781Y0011974D01*
X0192791Y0011816D01*
X0192797Y0011658D01*
X0192799Y0011500D01*
X0192797Y0011342D01*
X0192791Y0011184D01*
X0192781Y0011026D01*
X0192767Y0010868D01*
X0192749Y0010711D01*
X0192728Y0010554D01*
X0192702Y0010398D01*
X0192672Y0010242D01*
X0192639Y0010087D01*
X0192601Y0009934D01*
X0192560Y0009781D01*
X0192515Y0009629D01*
X0192466Y0009478D01*
X0192413Y0009329D01*
X0192357Y0009181D01*
X0192297Y0009035D01*
X0192233Y0008890D01*
X0192165Y0008747D01*
X0192094Y0008605D01*
X0192020Y0008465D01*
X0191942Y0008328D01*
X0191860Y0008192D01*
X0191776Y0008058D01*
X0191687Y0007927D01*
X0191596Y0007798D01*
X0191501Y0007671D01*
X0191404Y0007546D01*
X0191303Y0007424D01*
X0191199Y0007305D01*
X0191092Y0007188D01*
X0190982Y0007074D01*
X0190869Y0006963D01*
X0190754Y0006854D01*
X0190636Y0006749D01*
X0190515Y0006647D01*
X0190392Y0006547D01*
X0190266Y0006451D01*
X0190138Y0006358D01*
X0190008Y0006268D01*
X0189875Y0006182D01*
X0189740Y0006098D01*
X0189604Y0006019D01*
X0189465Y0005942D01*
X0189324Y0005870D01*
X0189182Y0005800D01*
X0189038Y0005735D01*
X0188892Y0005673D01*
X0188745Y0005615D01*
X0188596Y0005560D01*
X0188446Y0005509D01*
X0188295Y0005462D01*
X0188143Y0005419D01*
X0187990Y0005380D01*
X0187835Y0005344D01*
X0187680Y0005313D01*
X0187524Y0005285D01*
X0187368Y0005261D01*
X0187211Y0005241D01*
X0187053Y0005225D01*
X0186896Y0005213D01*
X0186737Y0005205D01*
X0186579Y0005201D01*
X0186421Y0005201D01*
X0186263Y0005205D01*
X0186104Y0005213D01*
X0185947Y0005225D01*
X0185789Y0005241D01*
X0185632Y0005261D01*
X0185476Y0005285D01*
X0185320Y0005313D01*
X0185165Y0005344D01*
X0185010Y0005380D01*
X0184857Y0005419D01*
X0184705Y0005462D01*
X0184554Y0005509D01*
X0184404Y0005560D01*
X0184255Y0005615D01*
X0184108Y0005673D01*
X0183962Y0005735D01*
X0183818Y0005800D01*
X0183676Y0005870D01*
X0183535Y0005942D01*
X0183396Y0006019D01*
X0183260Y0006098D01*
X0183125Y0006182D01*
X0182992Y0006268D01*
X0182862Y0006358D01*
X0182734Y0006451D01*
X0182608Y0006547D01*
X0182485Y0006647D01*
X0182364Y0006749D01*
X0182246Y0006854D01*
X0182131Y0006963D01*
X0182018Y0007074D01*
X0181908Y0007188D01*
X0181801Y0007305D01*
X0181697Y0007424D01*
X0181596Y0007546D01*
X0181499Y0007671D01*
X0181404Y0007798D01*
X0181313Y0007927D01*
X0181224Y0008058D01*
X0181140Y0008192D01*
X0181058Y0008328D01*
X0180980Y0008465D01*
X0180906Y0008605D01*
X0180835Y0008747D01*
X0180767Y0008890D01*
X0180703Y0009035D01*
X0180643Y0009181D01*
X0180587Y0009329D01*
X0180534Y0009478D01*
X0180485Y0009629D01*
X0180440Y0009781D01*
X0180399Y0009934D01*
X0180361Y0010087D01*
X0180328Y0010242D01*
X0180298Y0010398D01*
X0180272Y0010554D01*
X0180251Y0010711D01*
X0180233Y0010868D01*
X0180219Y0011026D01*
X0180209Y0011184D01*
X0180203Y0011342D01*
X0180201Y0011500D01*
D11*
X0152393Y0024200D02*
X0149324Y0027269D01*
X0147789Y0026502D02*
X0147789Y0024200D01*
X0145487Y0024200D01*
X0144720Y0024967D01*
X0145487Y0025735D01*
X0147789Y0025735D01*
X0147789Y0026502D02*
X0147022Y0027269D01*
X0145487Y0027269D01*
X0143185Y0026502D02*
X0143185Y0024200D01*
X0141650Y0024200D02*
X0141650Y0026502D01*
X0142418Y0027269D01*
X0143185Y0026502D01*
X0141650Y0026502D02*
X0140883Y0027269D01*
X0140116Y0027269D01*
X0140116Y0024200D01*
X0140116Y0021304D02*
X0140116Y0018235D01*
X0141650Y0016700D01*
X0143185Y0018235D01*
X0143185Y0021304D01*
X0138581Y0020537D02*
X0138581Y0019769D01*
X0137814Y0019002D01*
X0136279Y0019002D01*
X0135512Y0019769D01*
X0135512Y0020537D01*
X0136279Y0021304D01*
X0137814Y0021304D01*
X0138581Y0020537D01*
X0137814Y0019002D02*
X0138581Y0018235D01*
X0138581Y0017467D01*
X0137814Y0016700D01*
X0136279Y0016700D01*
X0135512Y0017467D01*
X0135512Y0018235D01*
X0136279Y0019002D01*
X0133977Y0019769D02*
X0133977Y0020537D01*
X0133210Y0021304D01*
X0131675Y0021304D01*
X0130908Y0020537D01*
X0129373Y0019002D02*
X0126304Y0019002D01*
X0124769Y0019002D02*
X0124769Y0017467D01*
X0124002Y0016700D01*
X0122467Y0016700D01*
X0121700Y0017467D01*
X0121700Y0019002D02*
X0123235Y0019769D01*
X0124002Y0019769D01*
X0124769Y0019002D01*
X0124769Y0021304D02*
X0121700Y0021304D01*
X0121700Y0019002D01*
X0121700Y0024200D02*
X0124769Y0024200D01*
X0123235Y0024200D02*
X0123235Y0028804D01*
X0121700Y0027269D01*
X0126304Y0026502D02*
X0126304Y0024967D01*
X0127071Y0024200D01*
X0128606Y0024200D01*
X0129373Y0024967D01*
X0129373Y0025735D01*
X0128606Y0026502D01*
X0126304Y0026502D01*
X0127839Y0028037D01*
X0129373Y0028804D01*
X0130908Y0027269D02*
X0132442Y0028804D01*
X0133977Y0027269D01*
X0133977Y0024200D01*
X0133977Y0026502D02*
X0130908Y0026502D01*
X0130908Y0027269D02*
X0130908Y0024200D01*
X0133977Y0019769D02*
X0130908Y0016700D01*
X0133977Y0016700D01*
X0149324Y0024200D02*
X0152393Y0027269D01*
X0111873Y0067467D02*
X0111106Y0066700D01*
X0109571Y0066700D01*
X0108804Y0067467D01*
X0108804Y0069002D02*
X0110339Y0069769D01*
X0111106Y0069769D01*
X0111873Y0069002D01*
X0111873Y0067467D01*
X0108804Y0069002D02*
X0108804Y0071304D01*
X0111873Y0071304D01*
X0107269Y0070537D02*
X0107269Y0069002D01*
X0106502Y0068235D01*
X0104200Y0068235D01*
X0105735Y0068235D02*
X0107269Y0066700D01*
X0104200Y0066700D02*
X0104200Y0071304D01*
X0106502Y0071304D01*
X0107269Y0070537D01*
X0101300Y0079200D02*
X0096696Y0079200D01*
X0096696Y0081502D01*
X0097463Y0082269D01*
X0098998Y0082269D01*
X0099765Y0081502D01*
X0099765Y0079200D01*
X0099765Y0080735D02*
X0101300Y0082269D01*
X0098998Y0083804D02*
X0098998Y0086873D01*
X0096696Y0086106D02*
X0098998Y0083804D01*
X0101300Y0086106D02*
X0096696Y0086106D01*
X0096696Y0094992D02*
X0096696Y0097294D01*
X0097463Y0098061D01*
X0098998Y0098061D01*
X0099765Y0097294D01*
X0099765Y0094992D01*
X0099765Y0096527D02*
X0101300Y0098061D01*
X0100533Y0099596D02*
X0101300Y0100363D01*
X0101300Y0101898D01*
X0100533Y0102665D01*
X0099765Y0102665D01*
X0098998Y0101898D01*
X0098998Y0101131D01*
X0098998Y0101898D02*
X0098231Y0102665D01*
X0097463Y0102665D01*
X0096696Y0101898D01*
X0096696Y0100363D01*
X0097463Y0099596D01*
X0096696Y0094992D02*
X0101300Y0094992D01*
X0101300Y0129200D02*
X0096696Y0129200D01*
X0096696Y0131502D01*
X0097463Y0132269D01*
X0098998Y0132269D01*
X0099765Y0131502D01*
X0099765Y0129200D01*
X0099765Y0130735D02*
X0101300Y0132269D01*
X0101300Y0133804D02*
X0098231Y0136873D01*
X0097463Y0136873D01*
X0096696Y0136106D01*
X0096696Y0134571D01*
X0097463Y0133804D01*
X0101300Y0133804D02*
X0101300Y0136873D01*
X0101696Y0159200D02*
X0101696Y0161502D01*
X0102463Y0162269D01*
X0103998Y0162269D01*
X0104765Y0161502D01*
X0104765Y0159200D01*
X0104765Y0160735D02*
X0106300Y0162269D01*
X0106300Y0163804D02*
X0106300Y0166873D01*
X0106300Y0165339D02*
X0101696Y0165339D01*
X0103231Y0163804D01*
X0101696Y0159200D02*
X0106300Y0159200D01*
X0105904Y0179196D02*
X0102835Y0179196D01*
X0104369Y0179196D02*
X0104369Y0183800D01*
X0101300Y0183800D02*
X0098231Y0180731D01*
X0101300Y0180731D02*
X0098231Y0183800D01*
X0108231Y0183800D02*
X0111300Y0180731D01*
X0112835Y0181498D02*
X0112835Y0179963D01*
X0113602Y0179196D01*
X0115904Y0179196D01*
X0115904Y0183800D01*
X0115904Y0182265D02*
X0113602Y0182265D01*
X0112835Y0181498D01*
X0114369Y0182265D02*
X0112835Y0183800D01*
X0111300Y0183800D02*
X0108231Y0180731D01*
X0118231Y0179963D02*
X0121300Y0183033D01*
X0120533Y0183800D01*
X0118998Y0183800D01*
X0118231Y0183033D01*
X0118231Y0179963D01*
X0118998Y0179196D01*
X0120533Y0179196D01*
X0121300Y0179963D01*
X0121300Y0183033D01*
X0122835Y0183033D02*
X0122835Y0181498D01*
X0124369Y0181498D01*
X0122835Y0179963D02*
X0123602Y0179196D01*
X0125137Y0179196D01*
X0125904Y0179963D01*
X0125904Y0183033D01*
X0125137Y0183800D01*
X0123602Y0183800D01*
X0122835Y0183033D01*
X0130929Y0183033D02*
X0130929Y0179963D01*
X0131696Y0179196D01*
X0133998Y0179196D01*
X0133998Y0183800D01*
X0131696Y0183800D01*
X0130929Y0183033D01*
X0135533Y0183800D02*
X0135533Y0179196D01*
X0138602Y0179196D02*
X0135533Y0183800D01*
X0138602Y0183800D02*
X0138602Y0179196D01*
X0140137Y0179963D02*
X0140904Y0179196D01*
X0142439Y0179196D01*
X0143206Y0179963D01*
X0143206Y0183033D01*
X0142439Y0183800D01*
X0140904Y0183800D01*
X0140137Y0183033D01*
X0140137Y0181498D01*
X0141671Y0181498D01*
X0061300Y0092665D02*
X0061300Y0089596D01*
X0058231Y0092665D01*
X0057463Y0092665D01*
X0056696Y0091898D01*
X0056696Y0090363D01*
X0057463Y0089596D01*
X0056696Y0086527D02*
X0061300Y0086527D01*
X0061300Y0088061D02*
X0061300Y0084992D01*
X0061300Y0083457D02*
X0059765Y0081923D01*
X0059765Y0082690D02*
X0059765Y0080388D01*
X0061300Y0080388D02*
X0056696Y0080388D01*
X0056696Y0082690D01*
X0057463Y0083457D01*
X0058998Y0083457D01*
X0059765Y0082690D01*
X0058231Y0084992D02*
X0056696Y0086527D01*
X0061300Y0076477D02*
X0061300Y0073408D01*
X0061300Y0074942D02*
X0056696Y0074942D01*
X0058231Y0073408D01*
X0061300Y0071873D02*
X0061300Y0068804D01*
X0061300Y0070339D02*
X0056696Y0070339D01*
X0058231Y0068804D01*
X0058998Y0067269D02*
X0059765Y0066502D01*
X0059765Y0064200D01*
X0059765Y0065735D02*
X0061300Y0067269D01*
X0058998Y0067269D02*
X0057463Y0067269D01*
X0056696Y0066502D01*
X0056696Y0064200D01*
X0061300Y0064200D01*
X0014373Y0086700D02*
X0011304Y0086700D01*
X0014373Y0089769D01*
X0014373Y0090537D01*
X0013606Y0091304D01*
X0012071Y0091304D01*
X0011304Y0090537D01*
X0009769Y0090537D02*
X0009002Y0091304D01*
X0007467Y0091304D01*
X0006700Y0090537D01*
X0006700Y0087467D01*
X0007467Y0086700D01*
X0009002Y0086700D01*
X0009769Y0087467D01*
X0041381Y0114574D02*
X0045985Y0114574D01*
X0045985Y0117643D01*
X0045218Y0119178D02*
X0045985Y0119945D01*
X0045985Y0121480D01*
X0045218Y0122247D01*
X0044450Y0122247D01*
X0043683Y0121480D01*
X0043683Y0119945D01*
X0042916Y0119178D01*
X0042148Y0119178D01*
X0041381Y0119945D01*
X0041381Y0121480D01*
X0042148Y0122247D01*
X0041381Y0123782D02*
X0041381Y0126084D01*
X0042148Y0126851D01*
X0043683Y0126851D01*
X0044450Y0126084D01*
X0044450Y0123782D01*
X0045985Y0123782D02*
X0041381Y0123782D01*
X0043683Y0128386D02*
X0043683Y0131455D01*
X0042916Y0132990D02*
X0041381Y0134524D01*
X0045985Y0134524D01*
X0045985Y0132990D02*
X0045985Y0136059D01*
X0045985Y0137594D02*
X0042916Y0140663D01*
X0042148Y0140663D01*
X0041381Y0139896D01*
X0041381Y0138361D01*
X0042148Y0137594D01*
X0045985Y0137594D02*
X0045985Y0140663D01*
X0041381Y0117643D02*
X0041381Y0114574D01*
X0043683Y0114574D02*
X0043683Y0116109D01*
D12*
X0036000Y0090000D02*
X0036000Y0087000D01*
X0034500Y0088500D02*
X0037500Y0088500D01*
X0015500Y0076500D02*
X0015505Y0076893D01*
X0015519Y0077285D01*
X0015543Y0077677D01*
X0015577Y0078068D01*
X0015620Y0078459D01*
X0015673Y0078848D01*
X0015736Y0079235D01*
X0015807Y0079621D01*
X0015889Y0080006D01*
X0015979Y0080388D01*
X0016080Y0080767D01*
X0016189Y0081145D01*
X0016308Y0081519D01*
X0016435Y0081890D01*
X0016572Y0082258D01*
X0016718Y0082623D01*
X0016873Y0082984D01*
X0017036Y0083341D01*
X0017208Y0083694D01*
X0017389Y0084042D01*
X0017579Y0084386D01*
X0017776Y0084726D01*
X0017982Y0085060D01*
X0018196Y0085389D01*
X0018419Y0085713D01*
X0018649Y0086031D01*
X0018886Y0086344D01*
X0019132Y0086650D01*
X0019385Y0086951D01*
X0019645Y0087245D01*
X0019912Y0087533D01*
X0020186Y0087814D01*
X0020467Y0088088D01*
X0020755Y0088355D01*
X0021049Y0088615D01*
X0021350Y0088868D01*
X0021656Y0089114D01*
X0021969Y0089351D01*
X0022287Y0089581D01*
X0022611Y0089804D01*
X0022940Y0090018D01*
X0023274Y0090224D01*
X0023614Y0090421D01*
X0023958Y0090611D01*
X0024306Y0090792D01*
X0024659Y0090964D01*
X0025016Y0091127D01*
X0025377Y0091282D01*
X0025742Y0091428D01*
X0026110Y0091565D01*
X0026481Y0091692D01*
X0026855Y0091811D01*
X0027233Y0091920D01*
X0027612Y0092021D01*
X0027994Y0092111D01*
X0028379Y0092193D01*
X0028765Y0092264D01*
X0029152Y0092327D01*
X0029541Y0092380D01*
X0029932Y0092423D01*
X0030323Y0092457D01*
X0030715Y0092481D01*
X0031107Y0092495D01*
X0031500Y0092500D01*
X0031893Y0092495D01*
X0032285Y0092481D01*
X0032677Y0092457D01*
X0033068Y0092423D01*
X0033459Y0092380D01*
X0033848Y0092327D01*
X0034235Y0092264D01*
X0034621Y0092193D01*
X0035006Y0092111D01*
X0035388Y0092021D01*
X0035767Y0091920D01*
X0036145Y0091811D01*
X0036519Y0091692D01*
X0036890Y0091565D01*
X0037258Y0091428D01*
X0037623Y0091282D01*
X0037984Y0091127D01*
X0038341Y0090964D01*
X0038694Y0090792D01*
X0039042Y0090611D01*
X0039386Y0090421D01*
X0039726Y0090224D01*
X0040060Y0090018D01*
X0040389Y0089804D01*
X0040713Y0089581D01*
X0041031Y0089351D01*
X0041344Y0089114D01*
X0041650Y0088868D01*
X0041951Y0088615D01*
X0042245Y0088355D01*
X0042533Y0088088D01*
X0042814Y0087814D01*
X0043088Y0087533D01*
X0043355Y0087245D01*
X0043615Y0086951D01*
X0043868Y0086650D01*
X0044114Y0086344D01*
X0044351Y0086031D01*
X0044581Y0085713D01*
X0044804Y0085389D01*
X0045018Y0085060D01*
X0045224Y0084726D01*
X0045421Y0084386D01*
X0045611Y0084042D01*
X0045792Y0083694D01*
X0045964Y0083341D01*
X0046127Y0082984D01*
X0046282Y0082623D01*
X0046428Y0082258D01*
X0046565Y0081890D01*
X0046692Y0081519D01*
X0046811Y0081145D01*
X0046920Y0080767D01*
X0047021Y0080388D01*
X0047111Y0080006D01*
X0047193Y0079621D01*
X0047264Y0079235D01*
X0047327Y0078848D01*
X0047380Y0078459D01*
X0047423Y0078068D01*
X0047457Y0077677D01*
X0047481Y0077285D01*
X0047495Y0076893D01*
X0047500Y0076500D01*
X0047495Y0076107D01*
X0047481Y0075715D01*
X0047457Y0075323D01*
X0047423Y0074932D01*
X0047380Y0074541D01*
X0047327Y0074152D01*
X0047264Y0073765D01*
X0047193Y0073379D01*
X0047111Y0072994D01*
X0047021Y0072612D01*
X0046920Y0072233D01*
X0046811Y0071855D01*
X0046692Y0071481D01*
X0046565Y0071110D01*
X0046428Y0070742D01*
X0046282Y0070377D01*
X0046127Y0070016D01*
X0045964Y0069659D01*
X0045792Y0069306D01*
X0045611Y0068958D01*
X0045421Y0068614D01*
X0045224Y0068274D01*
X0045018Y0067940D01*
X0044804Y0067611D01*
X0044581Y0067287D01*
X0044351Y0066969D01*
X0044114Y0066656D01*
X0043868Y0066350D01*
X0043615Y0066049D01*
X0043355Y0065755D01*
X0043088Y0065467D01*
X0042814Y0065186D01*
X0042533Y0064912D01*
X0042245Y0064645D01*
X0041951Y0064385D01*
X0041650Y0064132D01*
X0041344Y0063886D01*
X0041031Y0063649D01*
X0040713Y0063419D01*
X0040389Y0063196D01*
X0040060Y0062982D01*
X0039726Y0062776D01*
X0039386Y0062579D01*
X0039042Y0062389D01*
X0038694Y0062208D01*
X0038341Y0062036D01*
X0037984Y0061873D01*
X0037623Y0061718D01*
X0037258Y0061572D01*
X0036890Y0061435D01*
X0036519Y0061308D01*
X0036145Y0061189D01*
X0035767Y0061080D01*
X0035388Y0060979D01*
X0035006Y0060889D01*
X0034621Y0060807D01*
X0034235Y0060736D01*
X0033848Y0060673D01*
X0033459Y0060620D01*
X0033068Y0060577D01*
X0032677Y0060543D01*
X0032285Y0060519D01*
X0031893Y0060505D01*
X0031500Y0060500D01*
X0031107Y0060505D01*
X0030715Y0060519D01*
X0030323Y0060543D01*
X0029932Y0060577D01*
X0029541Y0060620D01*
X0029152Y0060673D01*
X0028765Y0060736D01*
X0028379Y0060807D01*
X0027994Y0060889D01*
X0027612Y0060979D01*
X0027233Y0061080D01*
X0026855Y0061189D01*
X0026481Y0061308D01*
X0026110Y0061435D01*
X0025742Y0061572D01*
X0025377Y0061718D01*
X0025016Y0061873D01*
X0024659Y0062036D01*
X0024306Y0062208D01*
X0023958Y0062389D01*
X0023614Y0062579D01*
X0023274Y0062776D01*
X0022940Y0062982D01*
X0022611Y0063196D01*
X0022287Y0063419D01*
X0021969Y0063649D01*
X0021656Y0063886D01*
X0021350Y0064132D01*
X0021049Y0064385D01*
X0020755Y0064645D01*
X0020467Y0064912D01*
X0020186Y0065186D01*
X0019912Y0065467D01*
X0019645Y0065755D01*
X0019385Y0066049D01*
X0019132Y0066350D01*
X0018886Y0066656D01*
X0018649Y0066969D01*
X0018419Y0067287D01*
X0018196Y0067611D01*
X0017982Y0067940D01*
X0017776Y0068274D01*
X0017579Y0068614D01*
X0017389Y0068958D01*
X0017208Y0069306D01*
X0017036Y0069659D01*
X0016873Y0070016D01*
X0016718Y0070377D01*
X0016572Y0070742D01*
X0016435Y0071110D01*
X0016308Y0071481D01*
X0016189Y0071855D01*
X0016080Y0072233D01*
X0015979Y0072612D01*
X0015889Y0072994D01*
X0015807Y0073379D01*
X0015736Y0073765D01*
X0015673Y0074152D01*
X0015620Y0074541D01*
X0015577Y0074932D01*
X0015543Y0075323D01*
X0015519Y0075715D01*
X0015505Y0076107D01*
X0015500Y0076500D01*
X0055000Y0038000D02*
X0055000Y0036500D01*
X0056500Y0036500D01*
X0055000Y0036500D02*
X0055000Y0035000D01*
X0055000Y0036500D02*
X0053500Y0036500D01*
X0050500Y0031500D02*
X0050503Y0031770D01*
X0050513Y0032040D01*
X0050530Y0032309D01*
X0050553Y0032578D01*
X0050583Y0032847D01*
X0050619Y0033114D01*
X0050662Y0033381D01*
X0050711Y0033646D01*
X0050767Y0033910D01*
X0050830Y0034173D01*
X0050898Y0034434D01*
X0050974Y0034693D01*
X0051055Y0034950D01*
X0051143Y0035206D01*
X0051237Y0035459D01*
X0051337Y0035710D01*
X0051444Y0035958D01*
X0051556Y0036203D01*
X0051675Y0036446D01*
X0051799Y0036685D01*
X0051929Y0036922D01*
X0052065Y0037155D01*
X0052207Y0037385D01*
X0052354Y0037611D01*
X0052507Y0037834D01*
X0052665Y0038053D01*
X0052828Y0038268D01*
X0052997Y0038478D01*
X0053171Y0038685D01*
X0053350Y0038887D01*
X0053533Y0039085D01*
X0053722Y0039278D01*
X0053915Y0039467D01*
X0054113Y0039650D01*
X0054315Y0039829D01*
X0054522Y0040003D01*
X0054732Y0040172D01*
X0054947Y0040335D01*
X0055166Y0040493D01*
X0055389Y0040646D01*
X0055615Y0040793D01*
X0055845Y0040935D01*
X0056078Y0041071D01*
X0056315Y0041201D01*
X0056554Y0041325D01*
X0056797Y0041444D01*
X0057042Y0041556D01*
X0057290Y0041663D01*
X0057541Y0041763D01*
X0057794Y0041857D01*
X0058050Y0041945D01*
X0058307Y0042026D01*
X0058566Y0042102D01*
X0058827Y0042170D01*
X0059090Y0042233D01*
X0059354Y0042289D01*
X0059619Y0042338D01*
X0059886Y0042381D01*
X0060153Y0042417D01*
X0060422Y0042447D01*
X0060691Y0042470D01*
X0060960Y0042487D01*
X0061230Y0042497D01*
X0061500Y0042500D01*
X0061770Y0042497D01*
X0062040Y0042487D01*
X0062309Y0042470D01*
X0062578Y0042447D01*
X0062847Y0042417D01*
X0063114Y0042381D01*
X0063381Y0042338D01*
X0063646Y0042289D01*
X0063910Y0042233D01*
X0064173Y0042170D01*
X0064434Y0042102D01*
X0064693Y0042026D01*
X0064950Y0041945D01*
X0065206Y0041857D01*
X0065459Y0041763D01*
X0065710Y0041663D01*
X0065958Y0041556D01*
X0066203Y0041444D01*
X0066446Y0041325D01*
X0066685Y0041201D01*
X0066922Y0041071D01*
X0067155Y0040935D01*
X0067385Y0040793D01*
X0067611Y0040646D01*
X0067834Y0040493D01*
X0068053Y0040335D01*
X0068268Y0040172D01*
X0068478Y0040003D01*
X0068685Y0039829D01*
X0068887Y0039650D01*
X0069085Y0039467D01*
X0069278Y0039278D01*
X0069467Y0039085D01*
X0069650Y0038887D01*
X0069829Y0038685D01*
X0070003Y0038478D01*
X0070172Y0038268D01*
X0070335Y0038053D01*
X0070493Y0037834D01*
X0070646Y0037611D01*
X0070793Y0037385D01*
X0070935Y0037155D01*
X0071071Y0036922D01*
X0071201Y0036685D01*
X0071325Y0036446D01*
X0071444Y0036203D01*
X0071556Y0035958D01*
X0071663Y0035710D01*
X0071763Y0035459D01*
X0071857Y0035206D01*
X0071945Y0034950D01*
X0072026Y0034693D01*
X0072102Y0034434D01*
X0072170Y0034173D01*
X0072233Y0033910D01*
X0072289Y0033646D01*
X0072338Y0033381D01*
X0072381Y0033114D01*
X0072417Y0032847D01*
X0072447Y0032578D01*
X0072470Y0032309D01*
X0072487Y0032040D01*
X0072497Y0031770D01*
X0072500Y0031500D01*
X0072497Y0031230D01*
X0072487Y0030960D01*
X0072470Y0030691D01*
X0072447Y0030422D01*
X0072417Y0030153D01*
X0072381Y0029886D01*
X0072338Y0029619D01*
X0072289Y0029354D01*
X0072233Y0029090D01*
X0072170Y0028827D01*
X0072102Y0028566D01*
X0072026Y0028307D01*
X0071945Y0028050D01*
X0071857Y0027794D01*
X0071763Y0027541D01*
X0071663Y0027290D01*
X0071556Y0027042D01*
X0071444Y0026797D01*
X0071325Y0026554D01*
X0071201Y0026315D01*
X0071071Y0026078D01*
X0070935Y0025845D01*
X0070793Y0025615D01*
X0070646Y0025389D01*
X0070493Y0025166D01*
X0070335Y0024947D01*
X0070172Y0024732D01*
X0070003Y0024522D01*
X0069829Y0024315D01*
X0069650Y0024113D01*
X0069467Y0023915D01*
X0069278Y0023722D01*
X0069085Y0023533D01*
X0068887Y0023350D01*
X0068685Y0023171D01*
X0068478Y0022997D01*
X0068268Y0022828D01*
X0068053Y0022665D01*
X0067834Y0022507D01*
X0067611Y0022354D01*
X0067385Y0022207D01*
X0067155Y0022065D01*
X0066922Y0021929D01*
X0066685Y0021799D01*
X0066446Y0021675D01*
X0066203Y0021556D01*
X0065958Y0021444D01*
X0065710Y0021337D01*
X0065459Y0021237D01*
X0065206Y0021143D01*
X0064950Y0021055D01*
X0064693Y0020974D01*
X0064434Y0020898D01*
X0064173Y0020830D01*
X0063910Y0020767D01*
X0063646Y0020711D01*
X0063381Y0020662D01*
X0063114Y0020619D01*
X0062847Y0020583D01*
X0062578Y0020553D01*
X0062309Y0020530D01*
X0062040Y0020513D01*
X0061770Y0020503D01*
X0061500Y0020500D01*
X0061230Y0020503D01*
X0060960Y0020513D01*
X0060691Y0020530D01*
X0060422Y0020553D01*
X0060153Y0020583D01*
X0059886Y0020619D01*
X0059619Y0020662D01*
X0059354Y0020711D01*
X0059090Y0020767D01*
X0058827Y0020830D01*
X0058566Y0020898D01*
X0058307Y0020974D01*
X0058050Y0021055D01*
X0057794Y0021143D01*
X0057541Y0021237D01*
X0057290Y0021337D01*
X0057042Y0021444D01*
X0056797Y0021556D01*
X0056554Y0021675D01*
X0056315Y0021799D01*
X0056078Y0021929D01*
X0055845Y0022065D01*
X0055615Y0022207D01*
X0055389Y0022354D01*
X0055166Y0022507D01*
X0054947Y0022665D01*
X0054732Y0022828D01*
X0054522Y0022997D01*
X0054315Y0023171D01*
X0054113Y0023350D01*
X0053915Y0023533D01*
X0053722Y0023722D01*
X0053533Y0023915D01*
X0053350Y0024113D01*
X0053171Y0024315D01*
X0052997Y0024522D01*
X0052828Y0024732D01*
X0052665Y0024947D01*
X0052507Y0025166D01*
X0052354Y0025389D01*
X0052207Y0025615D01*
X0052065Y0025845D01*
X0051929Y0026078D01*
X0051799Y0026315D01*
X0051675Y0026554D01*
X0051556Y0026797D01*
X0051444Y0027042D01*
X0051337Y0027290D01*
X0051237Y0027541D01*
X0051143Y0027794D01*
X0051055Y0028050D01*
X0050974Y0028307D01*
X0050898Y0028566D01*
X0050830Y0028827D01*
X0050767Y0029090D01*
X0050711Y0029354D01*
X0050662Y0029619D01*
X0050619Y0029886D01*
X0050583Y0030153D01*
X0050553Y0030422D01*
X0050530Y0030691D01*
X0050513Y0030960D01*
X0050503Y0031230D01*
X0050500Y0031500D01*
X0057471Y0015006D02*
X0056303Y0013838D01*
X0056303Y0009168D01*
X0057471Y0008000D01*
X0059806Y0008000D01*
X0060974Y0009168D01*
X0060974Y0011503D01*
X0058638Y0011503D01*
X0060974Y0013838D02*
X0059806Y0015006D01*
X0057471Y0015006D01*
X0063301Y0015006D02*
X0067972Y0008000D01*
X0067972Y0015006D01*
X0070299Y0015006D02*
X0073802Y0015006D01*
X0074970Y0013838D01*
X0074970Y0009168D01*
X0073802Y0008000D01*
X0070299Y0008000D01*
X0070299Y0015006D01*
X0076500Y0012000D02*
X0076500Y0002500D01*
X0116500Y0002500D01*
X0116500Y0012000D01*
X0116500Y0038000D01*
X0116500Y0039000D01*
X0076500Y0039000D01*
X0076500Y0038000D01*
X0076500Y0012000D01*
X0083000Y0012000D01*
X0090000Y0012000D02*
X0103000Y0012000D01*
X0110000Y0012000D02*
X0116500Y0012000D01*
X0119802Y0010335D02*
X0119802Y0015006D01*
X0119802Y0010335D02*
X0122137Y0008000D01*
X0124473Y0010335D01*
X0124473Y0015006D01*
X0126800Y0011503D02*
X0131471Y0011503D01*
X0129135Y0013838D02*
X0129135Y0009168D01*
X0104500Y0032700D02*
X0104502Y0032789D01*
X0104508Y0032878D01*
X0104518Y0032967D01*
X0104532Y0033055D01*
X0104549Y0033142D01*
X0104571Y0033228D01*
X0104597Y0033314D01*
X0104626Y0033398D01*
X0104659Y0033481D01*
X0104695Y0033562D01*
X0104736Y0033642D01*
X0104779Y0033719D01*
X0104826Y0033795D01*
X0104877Y0033868D01*
X0104930Y0033939D01*
X0104987Y0034008D01*
X0105047Y0034074D01*
X0105110Y0034138D01*
X0105175Y0034198D01*
X0105243Y0034256D01*
X0105314Y0034310D01*
X0105387Y0034361D01*
X0105462Y0034409D01*
X0105539Y0034454D01*
X0105618Y0034495D01*
X0105699Y0034532D01*
X0105781Y0034566D01*
X0105865Y0034597D01*
X0105950Y0034623D01*
X0106036Y0034646D01*
X0106123Y0034664D01*
X0106211Y0034679D01*
X0106300Y0034690D01*
X0106389Y0034697D01*
X0106478Y0034700D01*
X0106567Y0034699D01*
X0106656Y0034694D01*
X0106744Y0034685D01*
X0106833Y0034672D01*
X0106920Y0034655D01*
X0107007Y0034635D01*
X0107093Y0034610D01*
X0107177Y0034582D01*
X0107260Y0034550D01*
X0107342Y0034514D01*
X0107422Y0034475D01*
X0107500Y0034432D01*
X0107576Y0034386D01*
X0107650Y0034336D01*
X0107722Y0034283D01*
X0107791Y0034227D01*
X0107858Y0034168D01*
X0107922Y0034106D01*
X0107983Y0034042D01*
X0108042Y0033974D01*
X0108097Y0033904D01*
X0108149Y0033832D01*
X0108198Y0033757D01*
X0108243Y0033681D01*
X0108285Y0033602D01*
X0108323Y0033522D01*
X0108358Y0033440D01*
X0108389Y0033356D01*
X0108417Y0033271D01*
X0108440Y0033185D01*
X0108460Y0033098D01*
X0108476Y0033011D01*
X0108488Y0032922D01*
X0108496Y0032834D01*
X0108500Y0032745D01*
X0108500Y0032655D01*
X0108496Y0032566D01*
X0108488Y0032478D01*
X0108476Y0032389D01*
X0108460Y0032302D01*
X0108440Y0032215D01*
X0108417Y0032129D01*
X0108389Y0032044D01*
X0108358Y0031960D01*
X0108323Y0031878D01*
X0108285Y0031798D01*
X0108243Y0031719D01*
X0108198Y0031643D01*
X0108149Y0031568D01*
X0108097Y0031496D01*
X0108042Y0031426D01*
X0107983Y0031358D01*
X0107922Y0031294D01*
X0107858Y0031232D01*
X0107791Y0031173D01*
X0107722Y0031117D01*
X0107650Y0031064D01*
X0107576Y0031014D01*
X0107500Y0030968D01*
X0107422Y0030925D01*
X0107342Y0030886D01*
X0107260Y0030850D01*
X0107177Y0030818D01*
X0107093Y0030790D01*
X0107007Y0030765D01*
X0106920Y0030745D01*
X0106833Y0030728D01*
X0106744Y0030715D01*
X0106656Y0030706D01*
X0106567Y0030701D01*
X0106478Y0030700D01*
X0106389Y0030703D01*
X0106300Y0030710D01*
X0106211Y0030721D01*
X0106123Y0030736D01*
X0106036Y0030754D01*
X0105950Y0030777D01*
X0105865Y0030803D01*
X0105781Y0030834D01*
X0105699Y0030868D01*
X0105618Y0030905D01*
X0105539Y0030946D01*
X0105462Y0030991D01*
X0105387Y0031039D01*
X0105314Y0031090D01*
X0105243Y0031144D01*
X0105175Y0031202D01*
X0105110Y0031262D01*
X0105047Y0031326D01*
X0104987Y0031392D01*
X0104930Y0031461D01*
X0104877Y0031532D01*
X0104826Y0031605D01*
X0104779Y0031681D01*
X0104736Y0031758D01*
X0104695Y0031838D01*
X0104659Y0031919D01*
X0104626Y0032002D01*
X0104597Y0032086D01*
X0104571Y0032172D01*
X0104549Y0032258D01*
X0104532Y0032345D01*
X0104518Y0032433D01*
X0104508Y0032522D01*
X0104502Y0032611D01*
X0104500Y0032700D01*
X0116500Y0038000D02*
X0076500Y0038000D01*
X0084500Y0032700D02*
X0084502Y0032789D01*
X0084508Y0032878D01*
X0084518Y0032967D01*
X0084532Y0033055D01*
X0084549Y0033142D01*
X0084571Y0033228D01*
X0084597Y0033314D01*
X0084626Y0033398D01*
X0084659Y0033481D01*
X0084695Y0033562D01*
X0084736Y0033642D01*
X0084779Y0033719D01*
X0084826Y0033795D01*
X0084877Y0033868D01*
X0084930Y0033939D01*
X0084987Y0034008D01*
X0085047Y0034074D01*
X0085110Y0034138D01*
X0085175Y0034198D01*
X0085243Y0034256D01*
X0085314Y0034310D01*
X0085387Y0034361D01*
X0085462Y0034409D01*
X0085539Y0034454D01*
X0085618Y0034495D01*
X0085699Y0034532D01*
X0085781Y0034566D01*
X0085865Y0034597D01*
X0085950Y0034623D01*
X0086036Y0034646D01*
X0086123Y0034664D01*
X0086211Y0034679D01*
X0086300Y0034690D01*
X0086389Y0034697D01*
X0086478Y0034700D01*
X0086567Y0034699D01*
X0086656Y0034694D01*
X0086744Y0034685D01*
X0086833Y0034672D01*
X0086920Y0034655D01*
X0087007Y0034635D01*
X0087093Y0034610D01*
X0087177Y0034582D01*
X0087260Y0034550D01*
X0087342Y0034514D01*
X0087422Y0034475D01*
X0087500Y0034432D01*
X0087576Y0034386D01*
X0087650Y0034336D01*
X0087722Y0034283D01*
X0087791Y0034227D01*
X0087858Y0034168D01*
X0087922Y0034106D01*
X0087983Y0034042D01*
X0088042Y0033974D01*
X0088097Y0033904D01*
X0088149Y0033832D01*
X0088198Y0033757D01*
X0088243Y0033681D01*
X0088285Y0033602D01*
X0088323Y0033522D01*
X0088358Y0033440D01*
X0088389Y0033356D01*
X0088417Y0033271D01*
X0088440Y0033185D01*
X0088460Y0033098D01*
X0088476Y0033011D01*
X0088488Y0032922D01*
X0088496Y0032834D01*
X0088500Y0032745D01*
X0088500Y0032655D01*
X0088496Y0032566D01*
X0088488Y0032478D01*
X0088476Y0032389D01*
X0088460Y0032302D01*
X0088440Y0032215D01*
X0088417Y0032129D01*
X0088389Y0032044D01*
X0088358Y0031960D01*
X0088323Y0031878D01*
X0088285Y0031798D01*
X0088243Y0031719D01*
X0088198Y0031643D01*
X0088149Y0031568D01*
X0088097Y0031496D01*
X0088042Y0031426D01*
X0087983Y0031358D01*
X0087922Y0031294D01*
X0087858Y0031232D01*
X0087791Y0031173D01*
X0087722Y0031117D01*
X0087650Y0031064D01*
X0087576Y0031014D01*
X0087500Y0030968D01*
X0087422Y0030925D01*
X0087342Y0030886D01*
X0087260Y0030850D01*
X0087177Y0030818D01*
X0087093Y0030790D01*
X0087007Y0030765D01*
X0086920Y0030745D01*
X0086833Y0030728D01*
X0086744Y0030715D01*
X0086656Y0030706D01*
X0086567Y0030701D01*
X0086478Y0030700D01*
X0086389Y0030703D01*
X0086300Y0030710D01*
X0086211Y0030721D01*
X0086123Y0030736D01*
X0086036Y0030754D01*
X0085950Y0030777D01*
X0085865Y0030803D01*
X0085781Y0030834D01*
X0085699Y0030868D01*
X0085618Y0030905D01*
X0085539Y0030946D01*
X0085462Y0030991D01*
X0085387Y0031039D01*
X0085314Y0031090D01*
X0085243Y0031144D01*
X0085175Y0031202D01*
X0085110Y0031262D01*
X0085047Y0031326D01*
X0084987Y0031392D01*
X0084930Y0031461D01*
X0084877Y0031532D01*
X0084826Y0031605D01*
X0084779Y0031681D01*
X0084736Y0031758D01*
X0084695Y0031838D01*
X0084659Y0031919D01*
X0084626Y0032002D01*
X0084597Y0032086D01*
X0084571Y0032172D01*
X0084549Y0032258D01*
X0084532Y0032345D01*
X0084518Y0032433D01*
X0084508Y0032522D01*
X0084502Y0032611D01*
X0084500Y0032700D01*
X0063301Y0015006D02*
X0063301Y0008000D01*
X0117000Y0040500D02*
X0116500Y0052000D01*
X0117800Y0041900D02*
X0117802Y0041963D01*
X0117808Y0042025D01*
X0117818Y0042087D01*
X0117831Y0042149D01*
X0117849Y0042209D01*
X0117870Y0042268D01*
X0117895Y0042326D01*
X0117924Y0042382D01*
X0117956Y0042436D01*
X0117991Y0042488D01*
X0118029Y0042537D01*
X0118071Y0042585D01*
X0118115Y0042629D01*
X0118163Y0042671D01*
X0118212Y0042709D01*
X0118264Y0042744D01*
X0118318Y0042776D01*
X0118374Y0042805D01*
X0118432Y0042830D01*
X0118491Y0042851D01*
X0118551Y0042869D01*
X0118613Y0042882D01*
X0118675Y0042892D01*
X0118737Y0042898D01*
X0118800Y0042900D01*
X0118863Y0042898D01*
X0118925Y0042892D01*
X0118987Y0042882D01*
X0119049Y0042869D01*
X0119109Y0042851D01*
X0119168Y0042830D01*
X0119226Y0042805D01*
X0119282Y0042776D01*
X0119336Y0042744D01*
X0119388Y0042709D01*
X0119437Y0042671D01*
X0119485Y0042629D01*
X0119529Y0042585D01*
X0119571Y0042537D01*
X0119609Y0042488D01*
X0119644Y0042436D01*
X0119676Y0042382D01*
X0119705Y0042326D01*
X0119730Y0042268D01*
X0119751Y0042209D01*
X0119769Y0042149D01*
X0119782Y0042087D01*
X0119792Y0042025D01*
X0119798Y0041963D01*
X0119800Y0041900D01*
X0119798Y0041837D01*
X0119792Y0041775D01*
X0119782Y0041713D01*
X0119769Y0041651D01*
X0119751Y0041591D01*
X0119730Y0041532D01*
X0119705Y0041474D01*
X0119676Y0041418D01*
X0119644Y0041364D01*
X0119609Y0041312D01*
X0119571Y0041263D01*
X0119529Y0041215D01*
X0119485Y0041171D01*
X0119437Y0041129D01*
X0119388Y0041091D01*
X0119336Y0041056D01*
X0119282Y0041024D01*
X0119226Y0040995D01*
X0119168Y0040970D01*
X0119109Y0040949D01*
X0119049Y0040931D01*
X0118987Y0040918D01*
X0118925Y0040908D01*
X0118863Y0040902D01*
X0118800Y0040900D01*
X0118737Y0040902D01*
X0118675Y0040908D01*
X0118613Y0040918D01*
X0118551Y0040931D01*
X0118491Y0040949D01*
X0118432Y0040970D01*
X0118374Y0040995D01*
X0118318Y0041024D01*
X0118264Y0041056D01*
X0118212Y0041091D01*
X0118163Y0041129D01*
X0118115Y0041171D01*
X0118071Y0041215D01*
X0118029Y0041263D01*
X0117991Y0041312D01*
X0117956Y0041364D01*
X0117924Y0041418D01*
X0117895Y0041474D01*
X0117870Y0041532D01*
X0117849Y0041591D01*
X0117831Y0041651D01*
X0117818Y0041713D01*
X0117808Y0041775D01*
X0117802Y0041837D01*
X0117800Y0041900D01*
X0117000Y0040500D02*
X0118000Y0039500D01*
X0155000Y0039500D01*
X0156000Y0040500D01*
X0156500Y0052000D01*
X0163300Y0056500D02*
X0163302Y0056589D01*
X0163308Y0056678D01*
X0163318Y0056767D01*
X0163332Y0056855D01*
X0163349Y0056942D01*
X0163371Y0057028D01*
X0163397Y0057114D01*
X0163426Y0057198D01*
X0163459Y0057281D01*
X0163495Y0057362D01*
X0163536Y0057442D01*
X0163579Y0057519D01*
X0163626Y0057595D01*
X0163677Y0057668D01*
X0163730Y0057739D01*
X0163787Y0057808D01*
X0163847Y0057874D01*
X0163910Y0057938D01*
X0163975Y0057998D01*
X0164043Y0058056D01*
X0164114Y0058110D01*
X0164187Y0058161D01*
X0164262Y0058209D01*
X0164339Y0058254D01*
X0164418Y0058295D01*
X0164499Y0058332D01*
X0164581Y0058366D01*
X0164665Y0058397D01*
X0164750Y0058423D01*
X0164836Y0058446D01*
X0164923Y0058464D01*
X0165011Y0058479D01*
X0165100Y0058490D01*
X0165189Y0058497D01*
X0165278Y0058500D01*
X0165367Y0058499D01*
X0165456Y0058494D01*
X0165544Y0058485D01*
X0165633Y0058472D01*
X0165720Y0058455D01*
X0165807Y0058435D01*
X0165893Y0058410D01*
X0165977Y0058382D01*
X0166060Y0058350D01*
X0166142Y0058314D01*
X0166222Y0058275D01*
X0166300Y0058232D01*
X0166376Y0058186D01*
X0166450Y0058136D01*
X0166522Y0058083D01*
X0166591Y0058027D01*
X0166658Y0057968D01*
X0166722Y0057906D01*
X0166783Y0057842D01*
X0166842Y0057774D01*
X0166897Y0057704D01*
X0166949Y0057632D01*
X0166998Y0057557D01*
X0167043Y0057481D01*
X0167085Y0057402D01*
X0167123Y0057322D01*
X0167158Y0057240D01*
X0167189Y0057156D01*
X0167217Y0057071D01*
X0167240Y0056985D01*
X0167260Y0056898D01*
X0167276Y0056811D01*
X0167288Y0056722D01*
X0167296Y0056634D01*
X0167300Y0056545D01*
X0167300Y0056455D01*
X0167296Y0056366D01*
X0167288Y0056278D01*
X0167276Y0056189D01*
X0167260Y0056102D01*
X0167240Y0056015D01*
X0167217Y0055929D01*
X0167189Y0055844D01*
X0167158Y0055760D01*
X0167123Y0055678D01*
X0167085Y0055598D01*
X0167043Y0055519D01*
X0166998Y0055443D01*
X0166949Y0055368D01*
X0166897Y0055296D01*
X0166842Y0055226D01*
X0166783Y0055158D01*
X0166722Y0055094D01*
X0166658Y0055032D01*
X0166591Y0054973D01*
X0166522Y0054917D01*
X0166450Y0054864D01*
X0166376Y0054814D01*
X0166300Y0054768D01*
X0166222Y0054725D01*
X0166142Y0054686D01*
X0166060Y0054650D01*
X0165977Y0054618D01*
X0165893Y0054590D01*
X0165807Y0054565D01*
X0165720Y0054545D01*
X0165633Y0054528D01*
X0165544Y0054515D01*
X0165456Y0054506D01*
X0165367Y0054501D01*
X0165278Y0054500D01*
X0165189Y0054503D01*
X0165100Y0054510D01*
X0165011Y0054521D01*
X0164923Y0054536D01*
X0164836Y0054554D01*
X0164750Y0054577D01*
X0164665Y0054603D01*
X0164581Y0054634D01*
X0164499Y0054668D01*
X0164418Y0054705D01*
X0164339Y0054746D01*
X0164262Y0054791D01*
X0164187Y0054839D01*
X0164114Y0054890D01*
X0164043Y0054944D01*
X0163975Y0055002D01*
X0163910Y0055062D01*
X0163847Y0055126D01*
X0163787Y0055192D01*
X0163730Y0055261D01*
X0163677Y0055332D01*
X0163626Y0055405D01*
X0163579Y0055481D01*
X0163536Y0055558D01*
X0163495Y0055638D01*
X0163459Y0055719D01*
X0163426Y0055802D01*
X0163397Y0055886D01*
X0163371Y0055972D01*
X0163349Y0056058D01*
X0163332Y0056145D01*
X0163318Y0056233D01*
X0163308Y0056322D01*
X0163302Y0056411D01*
X0163300Y0056500D01*
X0159000Y0066500D02*
X0159000Y0026500D01*
X0160000Y0026500D01*
X0160000Y0106500D01*
X0186000Y0106500D01*
X0186000Y0100000D01*
X0189162Y0097972D02*
X0187994Y0096804D01*
X0187994Y0093301D01*
X0195000Y0093301D01*
X0195000Y0096804D01*
X0193832Y0097972D01*
X0192665Y0097972D01*
X0191497Y0096804D01*
X0191497Y0093301D01*
X0191497Y0096804D02*
X0190329Y0097972D01*
X0189162Y0097972D01*
X0186000Y0093000D02*
X0186000Y0080000D01*
X0189162Y0077972D02*
X0187994Y0076804D01*
X0187994Y0074469D01*
X0189162Y0073301D01*
X0193832Y0073301D01*
X0195000Y0074469D01*
X0195000Y0076804D01*
X0193832Y0077972D01*
X0191497Y0077972D01*
X0191497Y0075636D01*
X0186000Y0073000D02*
X0186000Y0066500D01*
X0159000Y0066500D01*
X0159000Y0106500D01*
X0160000Y0106500D01*
X0156500Y0112000D02*
X0156000Y0100500D01*
X0155000Y0099500D01*
X0118000Y0099500D01*
X0117000Y0100500D01*
X0116500Y0112000D01*
X0117800Y0101900D02*
X0117802Y0101963D01*
X0117808Y0102025D01*
X0117818Y0102087D01*
X0117831Y0102149D01*
X0117849Y0102209D01*
X0117870Y0102268D01*
X0117895Y0102326D01*
X0117924Y0102382D01*
X0117956Y0102436D01*
X0117991Y0102488D01*
X0118029Y0102537D01*
X0118071Y0102585D01*
X0118115Y0102629D01*
X0118163Y0102671D01*
X0118212Y0102709D01*
X0118264Y0102744D01*
X0118318Y0102776D01*
X0118374Y0102805D01*
X0118432Y0102830D01*
X0118491Y0102851D01*
X0118551Y0102869D01*
X0118613Y0102882D01*
X0118675Y0102892D01*
X0118737Y0102898D01*
X0118800Y0102900D01*
X0118863Y0102898D01*
X0118925Y0102892D01*
X0118987Y0102882D01*
X0119049Y0102869D01*
X0119109Y0102851D01*
X0119168Y0102830D01*
X0119226Y0102805D01*
X0119282Y0102776D01*
X0119336Y0102744D01*
X0119388Y0102709D01*
X0119437Y0102671D01*
X0119485Y0102629D01*
X0119529Y0102585D01*
X0119571Y0102537D01*
X0119609Y0102488D01*
X0119644Y0102436D01*
X0119676Y0102382D01*
X0119705Y0102326D01*
X0119730Y0102268D01*
X0119751Y0102209D01*
X0119769Y0102149D01*
X0119782Y0102087D01*
X0119792Y0102025D01*
X0119798Y0101963D01*
X0119800Y0101900D01*
X0119798Y0101837D01*
X0119792Y0101775D01*
X0119782Y0101713D01*
X0119769Y0101651D01*
X0119751Y0101591D01*
X0119730Y0101532D01*
X0119705Y0101474D01*
X0119676Y0101418D01*
X0119644Y0101364D01*
X0119609Y0101312D01*
X0119571Y0101263D01*
X0119529Y0101215D01*
X0119485Y0101171D01*
X0119437Y0101129D01*
X0119388Y0101091D01*
X0119336Y0101056D01*
X0119282Y0101024D01*
X0119226Y0100995D01*
X0119168Y0100970D01*
X0119109Y0100949D01*
X0119049Y0100931D01*
X0118987Y0100918D01*
X0118925Y0100908D01*
X0118863Y0100902D01*
X0118800Y0100900D01*
X0118737Y0100902D01*
X0118675Y0100908D01*
X0118613Y0100918D01*
X0118551Y0100931D01*
X0118491Y0100949D01*
X0118432Y0100970D01*
X0118374Y0100995D01*
X0118318Y0101024D01*
X0118264Y0101056D01*
X0118212Y0101091D01*
X0118163Y0101129D01*
X0118115Y0101171D01*
X0118071Y0101215D01*
X0118029Y0101263D01*
X0117991Y0101312D01*
X0117956Y0101364D01*
X0117924Y0101418D01*
X0117895Y0101474D01*
X0117870Y0101532D01*
X0117849Y0101591D01*
X0117831Y0101651D01*
X0117818Y0101713D01*
X0117808Y0101775D01*
X0117802Y0101837D01*
X0117800Y0101900D01*
X0116500Y0082000D02*
X0117000Y0070500D01*
X0118000Y0069500D01*
X0155000Y0069500D01*
X0156000Y0070500D01*
X0156500Y0082000D01*
X0163300Y0076500D02*
X0163302Y0076589D01*
X0163308Y0076678D01*
X0163318Y0076767D01*
X0163332Y0076855D01*
X0163349Y0076942D01*
X0163371Y0077028D01*
X0163397Y0077114D01*
X0163426Y0077198D01*
X0163459Y0077281D01*
X0163495Y0077362D01*
X0163536Y0077442D01*
X0163579Y0077519D01*
X0163626Y0077595D01*
X0163677Y0077668D01*
X0163730Y0077739D01*
X0163787Y0077808D01*
X0163847Y0077874D01*
X0163910Y0077938D01*
X0163975Y0077998D01*
X0164043Y0078056D01*
X0164114Y0078110D01*
X0164187Y0078161D01*
X0164262Y0078209D01*
X0164339Y0078254D01*
X0164418Y0078295D01*
X0164499Y0078332D01*
X0164581Y0078366D01*
X0164665Y0078397D01*
X0164750Y0078423D01*
X0164836Y0078446D01*
X0164923Y0078464D01*
X0165011Y0078479D01*
X0165100Y0078490D01*
X0165189Y0078497D01*
X0165278Y0078500D01*
X0165367Y0078499D01*
X0165456Y0078494D01*
X0165544Y0078485D01*
X0165633Y0078472D01*
X0165720Y0078455D01*
X0165807Y0078435D01*
X0165893Y0078410D01*
X0165977Y0078382D01*
X0166060Y0078350D01*
X0166142Y0078314D01*
X0166222Y0078275D01*
X0166300Y0078232D01*
X0166376Y0078186D01*
X0166450Y0078136D01*
X0166522Y0078083D01*
X0166591Y0078027D01*
X0166658Y0077968D01*
X0166722Y0077906D01*
X0166783Y0077842D01*
X0166842Y0077774D01*
X0166897Y0077704D01*
X0166949Y0077632D01*
X0166998Y0077557D01*
X0167043Y0077481D01*
X0167085Y0077402D01*
X0167123Y0077322D01*
X0167158Y0077240D01*
X0167189Y0077156D01*
X0167217Y0077071D01*
X0167240Y0076985D01*
X0167260Y0076898D01*
X0167276Y0076811D01*
X0167288Y0076722D01*
X0167296Y0076634D01*
X0167300Y0076545D01*
X0167300Y0076455D01*
X0167296Y0076366D01*
X0167288Y0076278D01*
X0167276Y0076189D01*
X0167260Y0076102D01*
X0167240Y0076015D01*
X0167217Y0075929D01*
X0167189Y0075844D01*
X0167158Y0075760D01*
X0167123Y0075678D01*
X0167085Y0075598D01*
X0167043Y0075519D01*
X0166998Y0075443D01*
X0166949Y0075368D01*
X0166897Y0075296D01*
X0166842Y0075226D01*
X0166783Y0075158D01*
X0166722Y0075094D01*
X0166658Y0075032D01*
X0166591Y0074973D01*
X0166522Y0074917D01*
X0166450Y0074864D01*
X0166376Y0074814D01*
X0166300Y0074768D01*
X0166222Y0074725D01*
X0166142Y0074686D01*
X0166060Y0074650D01*
X0165977Y0074618D01*
X0165893Y0074590D01*
X0165807Y0074565D01*
X0165720Y0074545D01*
X0165633Y0074528D01*
X0165544Y0074515D01*
X0165456Y0074506D01*
X0165367Y0074501D01*
X0165278Y0074500D01*
X0165189Y0074503D01*
X0165100Y0074510D01*
X0165011Y0074521D01*
X0164923Y0074536D01*
X0164836Y0074554D01*
X0164750Y0074577D01*
X0164665Y0074603D01*
X0164581Y0074634D01*
X0164499Y0074668D01*
X0164418Y0074705D01*
X0164339Y0074746D01*
X0164262Y0074791D01*
X0164187Y0074839D01*
X0164114Y0074890D01*
X0164043Y0074944D01*
X0163975Y0075002D01*
X0163910Y0075062D01*
X0163847Y0075126D01*
X0163787Y0075192D01*
X0163730Y0075261D01*
X0163677Y0075332D01*
X0163626Y0075405D01*
X0163579Y0075481D01*
X0163536Y0075558D01*
X0163495Y0075638D01*
X0163459Y0075719D01*
X0163426Y0075802D01*
X0163397Y0075886D01*
X0163371Y0075972D01*
X0163349Y0076058D01*
X0163332Y0076145D01*
X0163318Y0076233D01*
X0163308Y0076322D01*
X0163302Y0076411D01*
X0163300Y0076500D01*
X0163300Y0096500D02*
X0163302Y0096589D01*
X0163308Y0096678D01*
X0163318Y0096767D01*
X0163332Y0096855D01*
X0163349Y0096942D01*
X0163371Y0097028D01*
X0163397Y0097114D01*
X0163426Y0097198D01*
X0163459Y0097281D01*
X0163495Y0097362D01*
X0163536Y0097442D01*
X0163579Y0097519D01*
X0163626Y0097595D01*
X0163677Y0097668D01*
X0163730Y0097739D01*
X0163787Y0097808D01*
X0163847Y0097874D01*
X0163910Y0097938D01*
X0163975Y0097998D01*
X0164043Y0098056D01*
X0164114Y0098110D01*
X0164187Y0098161D01*
X0164262Y0098209D01*
X0164339Y0098254D01*
X0164418Y0098295D01*
X0164499Y0098332D01*
X0164581Y0098366D01*
X0164665Y0098397D01*
X0164750Y0098423D01*
X0164836Y0098446D01*
X0164923Y0098464D01*
X0165011Y0098479D01*
X0165100Y0098490D01*
X0165189Y0098497D01*
X0165278Y0098500D01*
X0165367Y0098499D01*
X0165456Y0098494D01*
X0165544Y0098485D01*
X0165633Y0098472D01*
X0165720Y0098455D01*
X0165807Y0098435D01*
X0165893Y0098410D01*
X0165977Y0098382D01*
X0166060Y0098350D01*
X0166142Y0098314D01*
X0166222Y0098275D01*
X0166300Y0098232D01*
X0166376Y0098186D01*
X0166450Y0098136D01*
X0166522Y0098083D01*
X0166591Y0098027D01*
X0166658Y0097968D01*
X0166722Y0097906D01*
X0166783Y0097842D01*
X0166842Y0097774D01*
X0166897Y0097704D01*
X0166949Y0097632D01*
X0166998Y0097557D01*
X0167043Y0097481D01*
X0167085Y0097402D01*
X0167123Y0097322D01*
X0167158Y0097240D01*
X0167189Y0097156D01*
X0167217Y0097071D01*
X0167240Y0096985D01*
X0167260Y0096898D01*
X0167276Y0096811D01*
X0167288Y0096722D01*
X0167296Y0096634D01*
X0167300Y0096545D01*
X0167300Y0096455D01*
X0167296Y0096366D01*
X0167288Y0096278D01*
X0167276Y0096189D01*
X0167260Y0096102D01*
X0167240Y0096015D01*
X0167217Y0095929D01*
X0167189Y0095844D01*
X0167158Y0095760D01*
X0167123Y0095678D01*
X0167085Y0095598D01*
X0167043Y0095519D01*
X0166998Y0095443D01*
X0166949Y0095368D01*
X0166897Y0095296D01*
X0166842Y0095226D01*
X0166783Y0095158D01*
X0166722Y0095094D01*
X0166658Y0095032D01*
X0166591Y0094973D01*
X0166522Y0094917D01*
X0166450Y0094864D01*
X0166376Y0094814D01*
X0166300Y0094768D01*
X0166222Y0094725D01*
X0166142Y0094686D01*
X0166060Y0094650D01*
X0165977Y0094618D01*
X0165893Y0094590D01*
X0165807Y0094565D01*
X0165720Y0094545D01*
X0165633Y0094528D01*
X0165544Y0094515D01*
X0165456Y0094506D01*
X0165367Y0094501D01*
X0165278Y0094500D01*
X0165189Y0094503D01*
X0165100Y0094510D01*
X0165011Y0094521D01*
X0164923Y0094536D01*
X0164836Y0094554D01*
X0164750Y0094577D01*
X0164665Y0094603D01*
X0164581Y0094634D01*
X0164499Y0094668D01*
X0164418Y0094705D01*
X0164339Y0094746D01*
X0164262Y0094791D01*
X0164187Y0094839D01*
X0164114Y0094890D01*
X0164043Y0094944D01*
X0163975Y0095002D01*
X0163910Y0095062D01*
X0163847Y0095126D01*
X0163787Y0095192D01*
X0163730Y0095261D01*
X0163677Y0095332D01*
X0163626Y0095405D01*
X0163579Y0095481D01*
X0163536Y0095558D01*
X0163495Y0095638D01*
X0163459Y0095719D01*
X0163426Y0095802D01*
X0163397Y0095886D01*
X0163371Y0095972D01*
X0163349Y0096058D01*
X0163332Y0096145D01*
X0163318Y0096233D01*
X0163308Y0096322D01*
X0163302Y0096411D01*
X0163300Y0096500D01*
X0160000Y0116500D02*
X0159000Y0116500D01*
X0159000Y0176500D01*
X0160000Y0176500D01*
X0160000Y0116500D01*
X0186000Y0116500D01*
X0186000Y0123000D01*
X0187994Y0124473D02*
X0192665Y0124473D01*
X0195000Y0122137D01*
X0192665Y0119802D01*
X0187994Y0119802D01*
X0186000Y0116500D02*
X0195500Y0116500D01*
X0195500Y0176500D01*
X0186000Y0176500D01*
X0186000Y0170000D01*
X0187994Y0171471D02*
X0195000Y0171471D01*
X0192665Y0169135D01*
X0195000Y0166800D01*
X0187994Y0166800D01*
X0187994Y0164473D02*
X0195000Y0164473D01*
X0192665Y0162137D01*
X0195000Y0159802D01*
X0187994Y0159802D01*
X0186000Y0163000D02*
X0186000Y0150000D01*
X0187994Y0151471D02*
X0195000Y0151471D01*
X0192665Y0149135D01*
X0195000Y0146800D01*
X0187994Y0146800D01*
X0189162Y0144473D02*
X0187994Y0143305D01*
X0187994Y0140970D01*
X0189162Y0139802D01*
X0193832Y0139802D01*
X0195000Y0140970D01*
X0195000Y0143305D01*
X0193832Y0144473D01*
X0186000Y0143000D02*
X0186000Y0130000D01*
X0189162Y0129135D02*
X0193832Y0129135D01*
X0191497Y0126800D02*
X0191497Y0131471D01*
X0195500Y0106500D02*
X0186000Y0106500D01*
X0195500Y0106500D02*
X0195500Y0026500D01*
X0186000Y0026500D01*
X0186000Y0033000D01*
X0187994Y0034802D02*
X0192665Y0034802D01*
X0195000Y0037137D01*
X0192665Y0039473D01*
X0187994Y0039473D01*
X0186000Y0040000D02*
X0186000Y0053000D01*
X0187994Y0053301D02*
X0187994Y0056804D01*
X0189162Y0057972D01*
X0191497Y0057972D01*
X0192665Y0056804D01*
X0192665Y0053301D01*
X0192665Y0055636D02*
X0195000Y0057972D01*
X0195000Y0053301D02*
X0187994Y0053301D01*
X0186000Y0060000D02*
X0186000Y0066500D01*
X0191497Y0046471D02*
X0191497Y0041800D01*
X0189162Y0044135D02*
X0193832Y0044135D01*
X0186000Y0026500D02*
X0160000Y0026500D01*
X0163300Y0036500D02*
X0163302Y0036589D01*
X0163308Y0036678D01*
X0163318Y0036767D01*
X0163332Y0036855D01*
X0163349Y0036942D01*
X0163371Y0037028D01*
X0163397Y0037114D01*
X0163426Y0037198D01*
X0163459Y0037281D01*
X0163495Y0037362D01*
X0163536Y0037442D01*
X0163579Y0037519D01*
X0163626Y0037595D01*
X0163677Y0037668D01*
X0163730Y0037739D01*
X0163787Y0037808D01*
X0163847Y0037874D01*
X0163910Y0037938D01*
X0163975Y0037998D01*
X0164043Y0038056D01*
X0164114Y0038110D01*
X0164187Y0038161D01*
X0164262Y0038209D01*
X0164339Y0038254D01*
X0164418Y0038295D01*
X0164499Y0038332D01*
X0164581Y0038366D01*
X0164665Y0038397D01*
X0164750Y0038423D01*
X0164836Y0038446D01*
X0164923Y0038464D01*
X0165011Y0038479D01*
X0165100Y0038490D01*
X0165189Y0038497D01*
X0165278Y0038500D01*
X0165367Y0038499D01*
X0165456Y0038494D01*
X0165544Y0038485D01*
X0165633Y0038472D01*
X0165720Y0038455D01*
X0165807Y0038435D01*
X0165893Y0038410D01*
X0165977Y0038382D01*
X0166060Y0038350D01*
X0166142Y0038314D01*
X0166222Y0038275D01*
X0166300Y0038232D01*
X0166376Y0038186D01*
X0166450Y0038136D01*
X0166522Y0038083D01*
X0166591Y0038027D01*
X0166658Y0037968D01*
X0166722Y0037906D01*
X0166783Y0037842D01*
X0166842Y0037774D01*
X0166897Y0037704D01*
X0166949Y0037632D01*
X0166998Y0037557D01*
X0167043Y0037481D01*
X0167085Y0037402D01*
X0167123Y0037322D01*
X0167158Y0037240D01*
X0167189Y0037156D01*
X0167217Y0037071D01*
X0167240Y0036985D01*
X0167260Y0036898D01*
X0167276Y0036811D01*
X0167288Y0036722D01*
X0167296Y0036634D01*
X0167300Y0036545D01*
X0167300Y0036455D01*
X0167296Y0036366D01*
X0167288Y0036278D01*
X0167276Y0036189D01*
X0167260Y0036102D01*
X0167240Y0036015D01*
X0167217Y0035929D01*
X0167189Y0035844D01*
X0167158Y0035760D01*
X0167123Y0035678D01*
X0167085Y0035598D01*
X0167043Y0035519D01*
X0166998Y0035443D01*
X0166949Y0035368D01*
X0166897Y0035296D01*
X0166842Y0035226D01*
X0166783Y0035158D01*
X0166722Y0035094D01*
X0166658Y0035032D01*
X0166591Y0034973D01*
X0166522Y0034917D01*
X0166450Y0034864D01*
X0166376Y0034814D01*
X0166300Y0034768D01*
X0166222Y0034725D01*
X0166142Y0034686D01*
X0166060Y0034650D01*
X0165977Y0034618D01*
X0165893Y0034590D01*
X0165807Y0034565D01*
X0165720Y0034545D01*
X0165633Y0034528D01*
X0165544Y0034515D01*
X0165456Y0034506D01*
X0165367Y0034501D01*
X0165278Y0034500D01*
X0165189Y0034503D01*
X0165100Y0034510D01*
X0165011Y0034521D01*
X0164923Y0034536D01*
X0164836Y0034554D01*
X0164750Y0034577D01*
X0164665Y0034603D01*
X0164581Y0034634D01*
X0164499Y0034668D01*
X0164418Y0034705D01*
X0164339Y0034746D01*
X0164262Y0034791D01*
X0164187Y0034839D01*
X0164114Y0034890D01*
X0164043Y0034944D01*
X0163975Y0035002D01*
X0163910Y0035062D01*
X0163847Y0035126D01*
X0163787Y0035192D01*
X0163730Y0035261D01*
X0163677Y0035332D01*
X0163626Y0035405D01*
X0163579Y0035481D01*
X0163536Y0035558D01*
X0163495Y0035638D01*
X0163459Y0035719D01*
X0163426Y0035802D01*
X0163397Y0035886D01*
X0163371Y0035972D01*
X0163349Y0036058D01*
X0163332Y0036145D01*
X0163318Y0036233D01*
X0163308Y0036322D01*
X0163302Y0036411D01*
X0163300Y0036500D01*
X0117800Y0071900D02*
X0117802Y0071963D01*
X0117808Y0072025D01*
X0117818Y0072087D01*
X0117831Y0072149D01*
X0117849Y0072209D01*
X0117870Y0072268D01*
X0117895Y0072326D01*
X0117924Y0072382D01*
X0117956Y0072436D01*
X0117991Y0072488D01*
X0118029Y0072537D01*
X0118071Y0072585D01*
X0118115Y0072629D01*
X0118163Y0072671D01*
X0118212Y0072709D01*
X0118264Y0072744D01*
X0118318Y0072776D01*
X0118374Y0072805D01*
X0118432Y0072830D01*
X0118491Y0072851D01*
X0118551Y0072869D01*
X0118613Y0072882D01*
X0118675Y0072892D01*
X0118737Y0072898D01*
X0118800Y0072900D01*
X0118863Y0072898D01*
X0118925Y0072892D01*
X0118987Y0072882D01*
X0119049Y0072869D01*
X0119109Y0072851D01*
X0119168Y0072830D01*
X0119226Y0072805D01*
X0119282Y0072776D01*
X0119336Y0072744D01*
X0119388Y0072709D01*
X0119437Y0072671D01*
X0119485Y0072629D01*
X0119529Y0072585D01*
X0119571Y0072537D01*
X0119609Y0072488D01*
X0119644Y0072436D01*
X0119676Y0072382D01*
X0119705Y0072326D01*
X0119730Y0072268D01*
X0119751Y0072209D01*
X0119769Y0072149D01*
X0119782Y0072087D01*
X0119792Y0072025D01*
X0119798Y0071963D01*
X0119800Y0071900D01*
X0119798Y0071837D01*
X0119792Y0071775D01*
X0119782Y0071713D01*
X0119769Y0071651D01*
X0119751Y0071591D01*
X0119730Y0071532D01*
X0119705Y0071474D01*
X0119676Y0071418D01*
X0119644Y0071364D01*
X0119609Y0071312D01*
X0119571Y0071263D01*
X0119529Y0071215D01*
X0119485Y0071171D01*
X0119437Y0071129D01*
X0119388Y0071091D01*
X0119336Y0071056D01*
X0119282Y0071024D01*
X0119226Y0070995D01*
X0119168Y0070970D01*
X0119109Y0070949D01*
X0119049Y0070931D01*
X0118987Y0070918D01*
X0118925Y0070908D01*
X0118863Y0070902D01*
X0118800Y0070900D01*
X0118737Y0070902D01*
X0118675Y0070908D01*
X0118613Y0070918D01*
X0118551Y0070931D01*
X0118491Y0070949D01*
X0118432Y0070970D01*
X0118374Y0070995D01*
X0118318Y0071024D01*
X0118264Y0071056D01*
X0118212Y0071091D01*
X0118163Y0071129D01*
X0118115Y0071171D01*
X0118071Y0071215D01*
X0118029Y0071263D01*
X0117991Y0071312D01*
X0117956Y0071364D01*
X0117924Y0071418D01*
X0117895Y0071474D01*
X0117870Y0071532D01*
X0117849Y0071591D01*
X0117831Y0071651D01*
X0117818Y0071713D01*
X0117808Y0071775D01*
X0117802Y0071837D01*
X0117800Y0071900D01*
X0163300Y0126500D02*
X0163302Y0126589D01*
X0163308Y0126678D01*
X0163318Y0126767D01*
X0163332Y0126855D01*
X0163349Y0126942D01*
X0163371Y0127028D01*
X0163397Y0127114D01*
X0163426Y0127198D01*
X0163459Y0127281D01*
X0163495Y0127362D01*
X0163536Y0127442D01*
X0163579Y0127519D01*
X0163626Y0127595D01*
X0163677Y0127668D01*
X0163730Y0127739D01*
X0163787Y0127808D01*
X0163847Y0127874D01*
X0163910Y0127938D01*
X0163975Y0127998D01*
X0164043Y0128056D01*
X0164114Y0128110D01*
X0164187Y0128161D01*
X0164262Y0128209D01*
X0164339Y0128254D01*
X0164418Y0128295D01*
X0164499Y0128332D01*
X0164581Y0128366D01*
X0164665Y0128397D01*
X0164750Y0128423D01*
X0164836Y0128446D01*
X0164923Y0128464D01*
X0165011Y0128479D01*
X0165100Y0128490D01*
X0165189Y0128497D01*
X0165278Y0128500D01*
X0165367Y0128499D01*
X0165456Y0128494D01*
X0165544Y0128485D01*
X0165633Y0128472D01*
X0165720Y0128455D01*
X0165807Y0128435D01*
X0165893Y0128410D01*
X0165977Y0128382D01*
X0166060Y0128350D01*
X0166142Y0128314D01*
X0166222Y0128275D01*
X0166300Y0128232D01*
X0166376Y0128186D01*
X0166450Y0128136D01*
X0166522Y0128083D01*
X0166591Y0128027D01*
X0166658Y0127968D01*
X0166722Y0127906D01*
X0166783Y0127842D01*
X0166842Y0127774D01*
X0166897Y0127704D01*
X0166949Y0127632D01*
X0166998Y0127557D01*
X0167043Y0127481D01*
X0167085Y0127402D01*
X0167123Y0127322D01*
X0167158Y0127240D01*
X0167189Y0127156D01*
X0167217Y0127071D01*
X0167240Y0126985D01*
X0167260Y0126898D01*
X0167276Y0126811D01*
X0167288Y0126722D01*
X0167296Y0126634D01*
X0167300Y0126545D01*
X0167300Y0126455D01*
X0167296Y0126366D01*
X0167288Y0126278D01*
X0167276Y0126189D01*
X0167260Y0126102D01*
X0167240Y0126015D01*
X0167217Y0125929D01*
X0167189Y0125844D01*
X0167158Y0125760D01*
X0167123Y0125678D01*
X0167085Y0125598D01*
X0167043Y0125519D01*
X0166998Y0125443D01*
X0166949Y0125368D01*
X0166897Y0125296D01*
X0166842Y0125226D01*
X0166783Y0125158D01*
X0166722Y0125094D01*
X0166658Y0125032D01*
X0166591Y0124973D01*
X0166522Y0124917D01*
X0166450Y0124864D01*
X0166376Y0124814D01*
X0166300Y0124768D01*
X0166222Y0124725D01*
X0166142Y0124686D01*
X0166060Y0124650D01*
X0165977Y0124618D01*
X0165893Y0124590D01*
X0165807Y0124565D01*
X0165720Y0124545D01*
X0165633Y0124528D01*
X0165544Y0124515D01*
X0165456Y0124506D01*
X0165367Y0124501D01*
X0165278Y0124500D01*
X0165189Y0124503D01*
X0165100Y0124510D01*
X0165011Y0124521D01*
X0164923Y0124536D01*
X0164836Y0124554D01*
X0164750Y0124577D01*
X0164665Y0124603D01*
X0164581Y0124634D01*
X0164499Y0124668D01*
X0164418Y0124705D01*
X0164339Y0124746D01*
X0164262Y0124791D01*
X0164187Y0124839D01*
X0164114Y0124890D01*
X0164043Y0124944D01*
X0163975Y0125002D01*
X0163910Y0125062D01*
X0163847Y0125126D01*
X0163787Y0125192D01*
X0163730Y0125261D01*
X0163677Y0125332D01*
X0163626Y0125405D01*
X0163579Y0125481D01*
X0163536Y0125558D01*
X0163495Y0125638D01*
X0163459Y0125719D01*
X0163426Y0125802D01*
X0163397Y0125886D01*
X0163371Y0125972D01*
X0163349Y0126058D01*
X0163332Y0126145D01*
X0163318Y0126233D01*
X0163308Y0126322D01*
X0163302Y0126411D01*
X0163300Y0126500D01*
X0156000Y0130500D02*
X0155000Y0129500D01*
X0118000Y0129500D01*
X0117000Y0130500D01*
X0116500Y0142000D01*
X0117800Y0131900D02*
X0117802Y0131963D01*
X0117808Y0132025D01*
X0117818Y0132087D01*
X0117831Y0132149D01*
X0117849Y0132209D01*
X0117870Y0132268D01*
X0117895Y0132326D01*
X0117924Y0132382D01*
X0117956Y0132436D01*
X0117991Y0132488D01*
X0118029Y0132537D01*
X0118071Y0132585D01*
X0118115Y0132629D01*
X0118163Y0132671D01*
X0118212Y0132709D01*
X0118264Y0132744D01*
X0118318Y0132776D01*
X0118374Y0132805D01*
X0118432Y0132830D01*
X0118491Y0132851D01*
X0118551Y0132869D01*
X0118613Y0132882D01*
X0118675Y0132892D01*
X0118737Y0132898D01*
X0118800Y0132900D01*
X0118863Y0132898D01*
X0118925Y0132892D01*
X0118987Y0132882D01*
X0119049Y0132869D01*
X0119109Y0132851D01*
X0119168Y0132830D01*
X0119226Y0132805D01*
X0119282Y0132776D01*
X0119336Y0132744D01*
X0119388Y0132709D01*
X0119437Y0132671D01*
X0119485Y0132629D01*
X0119529Y0132585D01*
X0119571Y0132537D01*
X0119609Y0132488D01*
X0119644Y0132436D01*
X0119676Y0132382D01*
X0119705Y0132326D01*
X0119730Y0132268D01*
X0119751Y0132209D01*
X0119769Y0132149D01*
X0119782Y0132087D01*
X0119792Y0132025D01*
X0119798Y0131963D01*
X0119800Y0131900D01*
X0119798Y0131837D01*
X0119792Y0131775D01*
X0119782Y0131713D01*
X0119769Y0131651D01*
X0119751Y0131591D01*
X0119730Y0131532D01*
X0119705Y0131474D01*
X0119676Y0131418D01*
X0119644Y0131364D01*
X0119609Y0131312D01*
X0119571Y0131263D01*
X0119529Y0131215D01*
X0119485Y0131171D01*
X0119437Y0131129D01*
X0119388Y0131091D01*
X0119336Y0131056D01*
X0119282Y0131024D01*
X0119226Y0130995D01*
X0119168Y0130970D01*
X0119109Y0130949D01*
X0119049Y0130931D01*
X0118987Y0130918D01*
X0118925Y0130908D01*
X0118863Y0130902D01*
X0118800Y0130900D01*
X0118737Y0130902D01*
X0118675Y0130908D01*
X0118613Y0130918D01*
X0118551Y0130931D01*
X0118491Y0130949D01*
X0118432Y0130970D01*
X0118374Y0130995D01*
X0118318Y0131024D01*
X0118264Y0131056D01*
X0118212Y0131091D01*
X0118163Y0131129D01*
X0118115Y0131171D01*
X0118071Y0131215D01*
X0118029Y0131263D01*
X0117991Y0131312D01*
X0117956Y0131364D01*
X0117924Y0131418D01*
X0117895Y0131474D01*
X0117870Y0131532D01*
X0117849Y0131591D01*
X0117831Y0131651D01*
X0117818Y0131713D01*
X0117808Y0131775D01*
X0117802Y0131837D01*
X0117800Y0131900D01*
X0118000Y0159500D02*
X0117000Y0160500D01*
X0116500Y0172000D01*
X0117800Y0161900D02*
X0117802Y0161963D01*
X0117808Y0162025D01*
X0117818Y0162087D01*
X0117831Y0162149D01*
X0117849Y0162209D01*
X0117870Y0162268D01*
X0117895Y0162326D01*
X0117924Y0162382D01*
X0117956Y0162436D01*
X0117991Y0162488D01*
X0118029Y0162537D01*
X0118071Y0162585D01*
X0118115Y0162629D01*
X0118163Y0162671D01*
X0118212Y0162709D01*
X0118264Y0162744D01*
X0118318Y0162776D01*
X0118374Y0162805D01*
X0118432Y0162830D01*
X0118491Y0162851D01*
X0118551Y0162869D01*
X0118613Y0162882D01*
X0118675Y0162892D01*
X0118737Y0162898D01*
X0118800Y0162900D01*
X0118863Y0162898D01*
X0118925Y0162892D01*
X0118987Y0162882D01*
X0119049Y0162869D01*
X0119109Y0162851D01*
X0119168Y0162830D01*
X0119226Y0162805D01*
X0119282Y0162776D01*
X0119336Y0162744D01*
X0119388Y0162709D01*
X0119437Y0162671D01*
X0119485Y0162629D01*
X0119529Y0162585D01*
X0119571Y0162537D01*
X0119609Y0162488D01*
X0119644Y0162436D01*
X0119676Y0162382D01*
X0119705Y0162326D01*
X0119730Y0162268D01*
X0119751Y0162209D01*
X0119769Y0162149D01*
X0119782Y0162087D01*
X0119792Y0162025D01*
X0119798Y0161963D01*
X0119800Y0161900D01*
X0119798Y0161837D01*
X0119792Y0161775D01*
X0119782Y0161713D01*
X0119769Y0161651D01*
X0119751Y0161591D01*
X0119730Y0161532D01*
X0119705Y0161474D01*
X0119676Y0161418D01*
X0119644Y0161364D01*
X0119609Y0161312D01*
X0119571Y0161263D01*
X0119529Y0161215D01*
X0119485Y0161171D01*
X0119437Y0161129D01*
X0119388Y0161091D01*
X0119336Y0161056D01*
X0119282Y0161024D01*
X0119226Y0160995D01*
X0119168Y0160970D01*
X0119109Y0160949D01*
X0119049Y0160931D01*
X0118987Y0160918D01*
X0118925Y0160908D01*
X0118863Y0160902D01*
X0118800Y0160900D01*
X0118737Y0160902D01*
X0118675Y0160908D01*
X0118613Y0160918D01*
X0118551Y0160931D01*
X0118491Y0160949D01*
X0118432Y0160970D01*
X0118374Y0160995D01*
X0118318Y0161024D01*
X0118264Y0161056D01*
X0118212Y0161091D01*
X0118163Y0161129D01*
X0118115Y0161171D01*
X0118071Y0161215D01*
X0118029Y0161263D01*
X0117991Y0161312D01*
X0117956Y0161364D01*
X0117924Y0161418D01*
X0117895Y0161474D01*
X0117870Y0161532D01*
X0117849Y0161591D01*
X0117831Y0161651D01*
X0117818Y0161713D01*
X0117808Y0161775D01*
X0117802Y0161837D01*
X0117800Y0161900D01*
X0118000Y0159500D02*
X0155000Y0159500D01*
X0156000Y0160500D01*
X0156500Y0172000D01*
X0160000Y0176500D02*
X0186000Y0176500D01*
X0163300Y0166500D02*
X0163302Y0166589D01*
X0163308Y0166678D01*
X0163318Y0166767D01*
X0163332Y0166855D01*
X0163349Y0166942D01*
X0163371Y0167028D01*
X0163397Y0167114D01*
X0163426Y0167198D01*
X0163459Y0167281D01*
X0163495Y0167362D01*
X0163536Y0167442D01*
X0163579Y0167519D01*
X0163626Y0167595D01*
X0163677Y0167668D01*
X0163730Y0167739D01*
X0163787Y0167808D01*
X0163847Y0167874D01*
X0163910Y0167938D01*
X0163975Y0167998D01*
X0164043Y0168056D01*
X0164114Y0168110D01*
X0164187Y0168161D01*
X0164262Y0168209D01*
X0164339Y0168254D01*
X0164418Y0168295D01*
X0164499Y0168332D01*
X0164581Y0168366D01*
X0164665Y0168397D01*
X0164750Y0168423D01*
X0164836Y0168446D01*
X0164923Y0168464D01*
X0165011Y0168479D01*
X0165100Y0168490D01*
X0165189Y0168497D01*
X0165278Y0168500D01*
X0165367Y0168499D01*
X0165456Y0168494D01*
X0165544Y0168485D01*
X0165633Y0168472D01*
X0165720Y0168455D01*
X0165807Y0168435D01*
X0165893Y0168410D01*
X0165977Y0168382D01*
X0166060Y0168350D01*
X0166142Y0168314D01*
X0166222Y0168275D01*
X0166300Y0168232D01*
X0166376Y0168186D01*
X0166450Y0168136D01*
X0166522Y0168083D01*
X0166591Y0168027D01*
X0166658Y0167968D01*
X0166722Y0167906D01*
X0166783Y0167842D01*
X0166842Y0167774D01*
X0166897Y0167704D01*
X0166949Y0167632D01*
X0166998Y0167557D01*
X0167043Y0167481D01*
X0167085Y0167402D01*
X0167123Y0167322D01*
X0167158Y0167240D01*
X0167189Y0167156D01*
X0167217Y0167071D01*
X0167240Y0166985D01*
X0167260Y0166898D01*
X0167276Y0166811D01*
X0167288Y0166722D01*
X0167296Y0166634D01*
X0167300Y0166545D01*
X0167300Y0166455D01*
X0167296Y0166366D01*
X0167288Y0166278D01*
X0167276Y0166189D01*
X0167260Y0166102D01*
X0167240Y0166015D01*
X0167217Y0165929D01*
X0167189Y0165844D01*
X0167158Y0165760D01*
X0167123Y0165678D01*
X0167085Y0165598D01*
X0167043Y0165519D01*
X0166998Y0165443D01*
X0166949Y0165368D01*
X0166897Y0165296D01*
X0166842Y0165226D01*
X0166783Y0165158D01*
X0166722Y0165094D01*
X0166658Y0165032D01*
X0166591Y0164973D01*
X0166522Y0164917D01*
X0166450Y0164864D01*
X0166376Y0164814D01*
X0166300Y0164768D01*
X0166222Y0164725D01*
X0166142Y0164686D01*
X0166060Y0164650D01*
X0165977Y0164618D01*
X0165893Y0164590D01*
X0165807Y0164565D01*
X0165720Y0164545D01*
X0165633Y0164528D01*
X0165544Y0164515D01*
X0165456Y0164506D01*
X0165367Y0164501D01*
X0165278Y0164500D01*
X0165189Y0164503D01*
X0165100Y0164510D01*
X0165011Y0164521D01*
X0164923Y0164536D01*
X0164836Y0164554D01*
X0164750Y0164577D01*
X0164665Y0164603D01*
X0164581Y0164634D01*
X0164499Y0164668D01*
X0164418Y0164705D01*
X0164339Y0164746D01*
X0164262Y0164791D01*
X0164187Y0164839D01*
X0164114Y0164890D01*
X0164043Y0164944D01*
X0163975Y0165002D01*
X0163910Y0165062D01*
X0163847Y0165126D01*
X0163787Y0165192D01*
X0163730Y0165261D01*
X0163677Y0165332D01*
X0163626Y0165405D01*
X0163579Y0165481D01*
X0163536Y0165558D01*
X0163495Y0165638D01*
X0163459Y0165719D01*
X0163426Y0165802D01*
X0163397Y0165886D01*
X0163371Y0165972D01*
X0163349Y0166058D01*
X0163332Y0166145D01*
X0163318Y0166233D01*
X0163308Y0166322D01*
X0163302Y0166411D01*
X0163300Y0166500D01*
X0163300Y0146500D02*
X0163302Y0146589D01*
X0163308Y0146678D01*
X0163318Y0146767D01*
X0163332Y0146855D01*
X0163349Y0146942D01*
X0163371Y0147028D01*
X0163397Y0147114D01*
X0163426Y0147198D01*
X0163459Y0147281D01*
X0163495Y0147362D01*
X0163536Y0147442D01*
X0163579Y0147519D01*
X0163626Y0147595D01*
X0163677Y0147668D01*
X0163730Y0147739D01*
X0163787Y0147808D01*
X0163847Y0147874D01*
X0163910Y0147938D01*
X0163975Y0147998D01*
X0164043Y0148056D01*
X0164114Y0148110D01*
X0164187Y0148161D01*
X0164262Y0148209D01*
X0164339Y0148254D01*
X0164418Y0148295D01*
X0164499Y0148332D01*
X0164581Y0148366D01*
X0164665Y0148397D01*
X0164750Y0148423D01*
X0164836Y0148446D01*
X0164923Y0148464D01*
X0165011Y0148479D01*
X0165100Y0148490D01*
X0165189Y0148497D01*
X0165278Y0148500D01*
X0165367Y0148499D01*
X0165456Y0148494D01*
X0165544Y0148485D01*
X0165633Y0148472D01*
X0165720Y0148455D01*
X0165807Y0148435D01*
X0165893Y0148410D01*
X0165977Y0148382D01*
X0166060Y0148350D01*
X0166142Y0148314D01*
X0166222Y0148275D01*
X0166300Y0148232D01*
X0166376Y0148186D01*
X0166450Y0148136D01*
X0166522Y0148083D01*
X0166591Y0148027D01*
X0166658Y0147968D01*
X0166722Y0147906D01*
X0166783Y0147842D01*
X0166842Y0147774D01*
X0166897Y0147704D01*
X0166949Y0147632D01*
X0166998Y0147557D01*
X0167043Y0147481D01*
X0167085Y0147402D01*
X0167123Y0147322D01*
X0167158Y0147240D01*
X0167189Y0147156D01*
X0167217Y0147071D01*
X0167240Y0146985D01*
X0167260Y0146898D01*
X0167276Y0146811D01*
X0167288Y0146722D01*
X0167296Y0146634D01*
X0167300Y0146545D01*
X0167300Y0146455D01*
X0167296Y0146366D01*
X0167288Y0146278D01*
X0167276Y0146189D01*
X0167260Y0146102D01*
X0167240Y0146015D01*
X0167217Y0145929D01*
X0167189Y0145844D01*
X0167158Y0145760D01*
X0167123Y0145678D01*
X0167085Y0145598D01*
X0167043Y0145519D01*
X0166998Y0145443D01*
X0166949Y0145368D01*
X0166897Y0145296D01*
X0166842Y0145226D01*
X0166783Y0145158D01*
X0166722Y0145094D01*
X0166658Y0145032D01*
X0166591Y0144973D01*
X0166522Y0144917D01*
X0166450Y0144864D01*
X0166376Y0144814D01*
X0166300Y0144768D01*
X0166222Y0144725D01*
X0166142Y0144686D01*
X0166060Y0144650D01*
X0165977Y0144618D01*
X0165893Y0144590D01*
X0165807Y0144565D01*
X0165720Y0144545D01*
X0165633Y0144528D01*
X0165544Y0144515D01*
X0165456Y0144506D01*
X0165367Y0144501D01*
X0165278Y0144500D01*
X0165189Y0144503D01*
X0165100Y0144510D01*
X0165011Y0144521D01*
X0164923Y0144536D01*
X0164836Y0144554D01*
X0164750Y0144577D01*
X0164665Y0144603D01*
X0164581Y0144634D01*
X0164499Y0144668D01*
X0164418Y0144705D01*
X0164339Y0144746D01*
X0164262Y0144791D01*
X0164187Y0144839D01*
X0164114Y0144890D01*
X0164043Y0144944D01*
X0163975Y0145002D01*
X0163910Y0145062D01*
X0163847Y0145126D01*
X0163787Y0145192D01*
X0163730Y0145261D01*
X0163677Y0145332D01*
X0163626Y0145405D01*
X0163579Y0145481D01*
X0163536Y0145558D01*
X0163495Y0145638D01*
X0163459Y0145719D01*
X0163426Y0145802D01*
X0163397Y0145886D01*
X0163371Y0145972D01*
X0163349Y0146058D01*
X0163332Y0146145D01*
X0163318Y0146233D01*
X0163308Y0146322D01*
X0163302Y0146411D01*
X0163300Y0146500D01*
X0156500Y0142000D02*
X0156000Y0130500D01*
X0134000Y0186500D02*
X0129000Y0186500D01*
X0126500Y0189000D01*
X0124000Y0186500D01*
X0119000Y0186500D01*
X0116500Y0189000D01*
X0114000Y0186500D01*
X0109000Y0186500D01*
X0106500Y0189000D01*
X0104000Y0186500D01*
X0099000Y0186500D01*
X0096500Y0189000D01*
X0096500Y0194000D01*
X0099000Y0196500D01*
X0104000Y0196500D01*
X0106500Y0194000D01*
X0109000Y0196500D01*
X0114000Y0196500D01*
X0116500Y0194000D01*
X0119000Y0196500D01*
X0124000Y0196500D01*
X0126500Y0194000D01*
X0129000Y0196500D01*
X0134000Y0196500D01*
X0136500Y0194000D01*
X0136500Y0189000D01*
X0134000Y0186500D01*
D13*
X0137750Y0191502D02*
X0140753Y0191502D01*
X0140002Y0189250D02*
X0140002Y0193754D01*
X0137750Y0191502D01*
X0095253Y0189250D02*
X0092250Y0189250D01*
X0093751Y0189250D02*
X0093751Y0193754D01*
X0092250Y0192253D01*
X0090280Y0201382D02*
X0026500Y0201382D01*
X0026500Y0106500D01*
X0090280Y0106500D01*
X0090280Y0201382D01*
X0025250Y0077356D02*
X0025250Y0074354D01*
X0025250Y0075855D02*
X0020746Y0075855D01*
X0022247Y0074354D01*
X0021497Y0072753D02*
X0020746Y0072002D01*
X0020746Y0070501D01*
X0021497Y0069750D01*
X0024499Y0069750D01*
X0025250Y0070501D01*
X0025250Y0072002D01*
X0024499Y0072753D01*
X0032762Y0054743D02*
X0031745Y0053725D01*
X0031745Y0051690D01*
X0032762Y0050673D01*
X0034797Y0052708D02*
X0034797Y0053725D01*
X0035815Y0054743D01*
X0036832Y0054743D01*
X0037850Y0053725D01*
X0037850Y0051690D01*
X0036832Y0050673D01*
X0036832Y0048652D02*
X0037850Y0048652D01*
X0037850Y0047634D01*
X0036832Y0047634D01*
X0036832Y0048652D01*
X0037850Y0045627D02*
X0037850Y0041557D01*
X0037850Y0043592D02*
X0031745Y0043592D01*
X0033780Y0041557D01*
X0031745Y0033473D02*
X0037850Y0033473D01*
X0035815Y0031438D01*
X0037850Y0029403D01*
X0031745Y0029403D01*
X0031745Y0027396D02*
X0037850Y0027396D01*
X0035815Y0025360D01*
X0037850Y0023325D01*
X0031745Y0023325D01*
X0032762Y0021318D02*
X0031745Y0020301D01*
X0031745Y0017248D01*
X0037850Y0017248D01*
X0037850Y0020301D01*
X0036832Y0021318D01*
X0035815Y0021318D01*
X0034797Y0020301D01*
X0034797Y0017248D01*
X0034797Y0015241D02*
X0034797Y0013206D01*
X0034797Y0015241D02*
X0036832Y0015241D01*
X0037850Y0014224D01*
X0037850Y0012189D01*
X0036832Y0011171D01*
X0032762Y0011171D01*
X0031745Y0012189D01*
X0031745Y0014224D01*
X0032762Y0015241D01*
X0034797Y0020301D02*
X0033780Y0021318D01*
X0032762Y0021318D01*
X0032762Y0009164D02*
X0031745Y0008146D01*
X0031745Y0005094D01*
X0037850Y0005094D01*
X0035815Y0005094D02*
X0035815Y0008146D01*
X0034797Y0009164D01*
X0032762Y0009164D01*
X0035815Y0007129D02*
X0037850Y0009164D01*
X0053001Y0042750D02*
X0054502Y0042750D01*
X0055253Y0043501D01*
X0056854Y0043501D02*
X0057605Y0042750D01*
X0059106Y0042750D01*
X0059856Y0043501D01*
X0059856Y0044251D01*
X0059106Y0045002D01*
X0058355Y0045002D01*
X0059106Y0045002D02*
X0059856Y0045753D01*
X0059856Y0046503D01*
X0059106Y0047254D01*
X0057605Y0047254D01*
X0056854Y0046503D01*
X0055253Y0046503D02*
X0054502Y0047254D01*
X0053001Y0047254D01*
X0052250Y0046503D01*
X0052250Y0043501D01*
X0053001Y0042750D01*
X0034797Y0053725D02*
X0033780Y0054743D01*
X0032762Y0054743D01*
D14*
X0136500Y0055000D03*
X0136500Y0085000D03*
X0136500Y0115000D03*
X0136500Y0145000D03*
X0136500Y0175000D03*
D15*
X0119250Y0172500D03*
X0119250Y0142500D03*
X0119250Y0112500D03*
X0119250Y0082500D03*
X0119250Y0052500D03*
X0153750Y0052500D03*
X0153750Y0082500D03*
X0153750Y0112500D03*
X0153750Y0142500D03*
X0153750Y0172500D03*
D16*
X0141500Y0172500D03*
X0131500Y0172500D03*
X0131500Y0142500D03*
X0141500Y0142500D03*
X0141500Y0112500D03*
X0131500Y0112500D03*
X0131500Y0082500D03*
X0141500Y0082500D03*
X0141500Y0052500D03*
X0131500Y0052500D03*
D17*
X0018390Y0110673D02*
X0018390Y0132327D01*
X0018388Y0132389D01*
X0018382Y0132450D01*
X0018373Y0132511D01*
X0018359Y0132572D01*
X0018342Y0132631D01*
X0018321Y0132689D01*
X0018296Y0132746D01*
X0018268Y0132801D01*
X0018237Y0132854D01*
X0018202Y0132905D01*
X0018164Y0132954D01*
X0018123Y0133001D01*
X0018080Y0133044D01*
X0018033Y0133085D01*
X0017984Y0133123D01*
X0017933Y0133158D01*
X0017880Y0133189D01*
X0017825Y0133217D01*
X0017768Y0133242D01*
X0017710Y0133263D01*
X0017651Y0133280D01*
X0017590Y0133294D01*
X0017529Y0133303D01*
X0017468Y0133309D01*
X0017406Y0133311D01*
X0015831Y0133311D01*
X0014453Y0127406D02*
X0008547Y0127406D01*
X0008547Y0115594D01*
X0014453Y0115594D01*
X0014453Y0127406D01*
X0007169Y0133311D02*
X0005594Y0133311D01*
X0005532Y0133309D01*
X0005471Y0133303D01*
X0005410Y0133294D01*
X0005349Y0133280D01*
X0005290Y0133263D01*
X0005232Y0133242D01*
X0005175Y0133217D01*
X0005120Y0133189D01*
X0005067Y0133158D01*
X0005016Y0133123D01*
X0004967Y0133085D01*
X0004920Y0133044D01*
X0004877Y0133001D01*
X0004836Y0132954D01*
X0004798Y0132905D01*
X0004763Y0132854D01*
X0004732Y0132801D01*
X0004704Y0132746D01*
X0004679Y0132689D01*
X0004658Y0132631D01*
X0004641Y0132572D01*
X0004627Y0132511D01*
X0004618Y0132450D01*
X0004612Y0132389D01*
X0004610Y0132327D01*
X0004610Y0110673D01*
X0004612Y0110611D01*
X0004618Y0110550D01*
X0004627Y0110489D01*
X0004641Y0110428D01*
X0004658Y0110369D01*
X0004679Y0110311D01*
X0004704Y0110254D01*
X0004732Y0110199D01*
X0004763Y0110146D01*
X0004798Y0110095D01*
X0004836Y0110046D01*
X0004877Y0109999D01*
X0004920Y0109956D01*
X0004967Y0109915D01*
X0005016Y0109877D01*
X0005067Y0109842D01*
X0005120Y0109811D01*
X0005175Y0109783D01*
X0005232Y0109758D01*
X0005290Y0109737D01*
X0005349Y0109720D01*
X0005410Y0109706D01*
X0005471Y0109697D01*
X0005532Y0109691D01*
X0005594Y0109689D01*
X0007169Y0109689D01*
X0015831Y0109689D02*
X0017406Y0109689D01*
X0017468Y0109691D01*
X0017529Y0109697D01*
X0017590Y0109706D01*
X0017651Y0109720D01*
X0017710Y0109737D01*
X0017768Y0109758D01*
X0017825Y0109783D01*
X0017880Y0109811D01*
X0017933Y0109842D01*
X0017984Y0109877D01*
X0018033Y0109915D01*
X0018080Y0109956D01*
X0018123Y0109999D01*
X0018164Y0110046D01*
X0018202Y0110095D01*
X0018237Y0110146D01*
X0018268Y0110199D01*
X0018296Y0110254D01*
X0018321Y0110311D01*
X0018342Y0110369D01*
X0018359Y0110428D01*
X0018373Y0110489D01*
X0018382Y0110550D01*
X0018388Y0110611D01*
X0018390Y0110673D01*
X0017406Y0149689D02*
X0015831Y0149689D01*
X0017406Y0149689D02*
X0017468Y0149691D01*
X0017529Y0149697D01*
X0017590Y0149706D01*
X0017651Y0149720D01*
X0017710Y0149737D01*
X0017768Y0149758D01*
X0017825Y0149783D01*
X0017880Y0149811D01*
X0017933Y0149842D01*
X0017984Y0149877D01*
X0018033Y0149915D01*
X0018080Y0149956D01*
X0018123Y0149999D01*
X0018164Y0150046D01*
X0018202Y0150095D01*
X0018237Y0150146D01*
X0018268Y0150199D01*
X0018296Y0150254D01*
X0018321Y0150311D01*
X0018342Y0150369D01*
X0018359Y0150428D01*
X0018373Y0150489D01*
X0018382Y0150550D01*
X0018388Y0150611D01*
X0018390Y0150673D01*
X0018390Y0172327D01*
X0018388Y0172389D01*
X0018382Y0172450D01*
X0018373Y0172511D01*
X0018359Y0172572D01*
X0018342Y0172631D01*
X0018321Y0172689D01*
X0018296Y0172746D01*
X0018268Y0172801D01*
X0018237Y0172854D01*
X0018202Y0172905D01*
X0018164Y0172954D01*
X0018123Y0173001D01*
X0018080Y0173044D01*
X0018033Y0173085D01*
X0017984Y0173123D01*
X0017933Y0173158D01*
X0017880Y0173189D01*
X0017825Y0173217D01*
X0017768Y0173242D01*
X0017710Y0173263D01*
X0017651Y0173280D01*
X0017590Y0173294D01*
X0017529Y0173303D01*
X0017468Y0173309D01*
X0017406Y0173311D01*
X0015831Y0173311D01*
X0014453Y0167406D02*
X0008547Y0167406D01*
X0008547Y0155594D01*
X0014453Y0155594D01*
X0014453Y0167406D01*
X0007169Y0173311D02*
X0005594Y0173311D01*
X0005532Y0173309D01*
X0005471Y0173303D01*
X0005410Y0173294D01*
X0005349Y0173280D01*
X0005290Y0173263D01*
X0005232Y0173242D01*
X0005175Y0173217D01*
X0005120Y0173189D01*
X0005067Y0173158D01*
X0005016Y0173123D01*
X0004967Y0173085D01*
X0004920Y0173044D01*
X0004877Y0173001D01*
X0004836Y0172954D01*
X0004798Y0172905D01*
X0004763Y0172854D01*
X0004732Y0172801D01*
X0004704Y0172746D01*
X0004679Y0172689D01*
X0004658Y0172631D01*
X0004641Y0172572D01*
X0004627Y0172511D01*
X0004618Y0172450D01*
X0004612Y0172389D01*
X0004610Y0172327D01*
X0004610Y0150673D01*
X0004612Y0150611D01*
X0004618Y0150550D01*
X0004627Y0150489D01*
X0004641Y0150428D01*
X0004658Y0150369D01*
X0004679Y0150311D01*
X0004704Y0150254D01*
X0004732Y0150199D01*
X0004763Y0150146D01*
X0004798Y0150095D01*
X0004836Y0150046D01*
X0004877Y0149999D01*
X0004920Y0149956D01*
X0004967Y0149915D01*
X0005016Y0149877D01*
X0005067Y0149842D01*
X0005120Y0149811D01*
X0005175Y0149783D01*
X0005232Y0149758D01*
X0005290Y0149737D01*
X0005349Y0149720D01*
X0005410Y0149706D01*
X0005471Y0149697D01*
X0005532Y0149691D01*
X0005594Y0149689D01*
X0007169Y0149689D01*
D18*
X0007274Y0175124D02*
X0004472Y0175124D01*
X0004472Y0176525D01*
X0004939Y0176992D01*
X0005873Y0176992D01*
X0006340Y0176525D01*
X0006340Y0175124D01*
X0006340Y0176058D02*
X0007274Y0176992D01*
X0006807Y0177886D02*
X0007274Y0178353D01*
X0007274Y0179287D01*
X0006807Y0179755D01*
X0006340Y0179755D01*
X0005873Y0179287D01*
X0005873Y0178353D01*
X0005406Y0177886D01*
X0004939Y0177886D01*
X0004472Y0178353D01*
X0004472Y0179287D01*
X0004939Y0179755D01*
X0004472Y0180649D02*
X0004472Y0182517D01*
X0004472Y0181583D02*
X0007274Y0181583D01*
X0007274Y0107517D02*
X0006340Y0106583D01*
X0006340Y0107050D02*
X0006340Y0105649D01*
X0007274Y0105649D02*
X0004472Y0105649D01*
X0004472Y0107050D01*
X0004939Y0107517D01*
X0005873Y0107517D01*
X0006340Y0107050D01*
X0007274Y0104755D02*
X0007274Y0102886D01*
X0004472Y0102886D01*
X0004939Y0101992D02*
X0004472Y0101525D01*
X0004472Y0100591D01*
X0004939Y0100124D01*
X0006807Y0100124D01*
X0007274Y0100591D01*
X0007274Y0101525D01*
X0006807Y0101992D01*
D19*
X0025945Y0042335D03*
X0020277Y0033335D03*
X0020166Y0033225D03*
X0006612Y0037335D03*
D20*
X0025834Y0041830D03*
D21*
X0025723Y0041330D03*
X0010055Y0031220D03*
X0010277Y0030670D03*
X0010723Y0029780D03*
X0010945Y0029220D03*
X0009055Y0033330D03*
X0008834Y0033780D03*
X0008612Y0034220D03*
D22*
X0025612Y0041110D03*
D23*
X0025500Y0040610D03*
D24*
X0025388Y0040110D03*
D25*
X0025277Y0039610D03*
D26*
X0025166Y0039165D03*
D27*
X0025055Y0038885D03*
X0023723Y0031665D03*
D28*
X0024945Y0038385D03*
D29*
X0024834Y0037940D03*
X0023945Y0032720D03*
D30*
X0024723Y0037385D03*
D31*
X0024612Y0037170D03*
D32*
X0024500Y0036670D03*
D33*
X0024388Y0036170D03*
D34*
X0024277Y0034335D03*
D35*
X0021055Y0028220D03*
X0020945Y0028220D03*
X0020834Y0028220D03*
X0020723Y0028220D03*
X0020612Y0028220D03*
X0016388Y0028780D03*
X0016277Y0028780D03*
X0016166Y0028780D03*
X0016055Y0028780D03*
X0015945Y0028780D03*
X0015388Y0028890D03*
X0015277Y0028890D03*
X0015166Y0028890D03*
X0015055Y0028890D03*
X0014945Y0028890D03*
X0013277Y0029110D03*
X0012388Y0029220D03*
X0014945Y0043890D03*
X0015055Y0043890D03*
X0015166Y0043890D03*
X0015277Y0043890D03*
X0015388Y0043890D03*
X0015945Y0043780D03*
X0016055Y0043780D03*
X0016166Y0043780D03*
X0016277Y0043780D03*
X0016388Y0043780D03*
X0020388Y0043220D03*
X0020612Y0043220D03*
X0020723Y0043220D03*
X0020834Y0043220D03*
X0020945Y0043220D03*
X0021277Y0043110D03*
X0021388Y0043110D03*
X0022834Y0042890D03*
X0022945Y0042890D03*
X0023055Y0042890D03*
X0023166Y0042890D03*
X0023277Y0042890D03*
X0023388Y0042890D03*
X0023834Y0042780D03*
X0023945Y0042780D03*
X0024055Y0042780D03*
X0024166Y0042780D03*
X0024277Y0042780D03*
D36*
X0024166Y0033665D03*
D37*
X0024055Y0033275D03*
D38*
X0023834Y0032220D03*
D39*
X0021388Y0028165D03*
X0021277Y0028165D03*
X0021166Y0028165D03*
X0020388Y0028275D03*
X0020277Y0028275D03*
X0020166Y0028275D03*
X0020055Y0028275D03*
X0016723Y0028725D03*
X0016612Y0028725D03*
X0015834Y0028835D03*
X0015723Y0028835D03*
X0015612Y0028835D03*
X0013166Y0029165D03*
X0013055Y0029165D03*
X0012945Y0029165D03*
X0012834Y0029165D03*
X0012723Y0029165D03*
X0012612Y0029165D03*
X0012277Y0029275D03*
X0015612Y0043835D03*
X0015723Y0043835D03*
X0015834Y0043835D03*
X0016612Y0043725D03*
X0016723Y0043725D03*
X0016834Y0043725D03*
X0014388Y0045725D03*
X0020055Y0043275D03*
X0020166Y0043275D03*
X0020277Y0043275D03*
X0021055Y0043165D03*
X0021166Y0043165D03*
X0023612Y0042835D03*
X0023723Y0042835D03*
D40*
X0023612Y0031390D03*
D41*
X0023500Y0030835D03*
D42*
X0016500Y0028725D03*
X0015500Y0028835D03*
X0012500Y0029165D03*
X0023500Y0042835D03*
D43*
X0023388Y0030335D03*
D44*
X0023277Y0029835D03*
D45*
X0023166Y0029335D03*
D46*
X0023055Y0029055D03*
X0021277Y0036385D03*
X0009834Y0031615D03*
X0009277Y0032835D03*
X0008945Y0033615D03*
X0008277Y0034945D03*
X0007388Y0036945D03*
D47*
X0007055Y0037115D03*
X0022945Y0028555D03*
D48*
X0022834Y0028000D03*
X0020612Y0034000D03*
X0014277Y0038890D03*
X0014388Y0039110D03*
D49*
X0014723Y0043945D03*
X0014834Y0043945D03*
X0021612Y0043055D03*
X0021723Y0043055D03*
X0022612Y0042945D03*
X0022723Y0042945D03*
X0014834Y0028945D03*
X0014723Y0028945D03*
X0014612Y0028945D03*
X0013723Y0029055D03*
X0013612Y0029055D03*
X0013388Y0029055D03*
X0021612Y0028055D03*
X0021723Y0028055D03*
X0021834Y0028055D03*
X0021945Y0028055D03*
X0022612Y0027945D03*
X0022723Y0027945D03*
D50*
X0022500Y0028000D03*
X0014500Y0044000D03*
D51*
X0021500Y0043055D03*
X0022500Y0042945D03*
X0014500Y0028945D03*
X0013500Y0029055D03*
D52*
X0013834Y0029000D03*
X0013945Y0029000D03*
X0014055Y0029000D03*
X0014166Y0029000D03*
X0014277Y0029000D03*
X0014388Y0029000D03*
X0022055Y0028000D03*
X0022166Y0028000D03*
X0022277Y0028000D03*
X0022388Y0028000D03*
X0022388Y0043000D03*
X0022277Y0043000D03*
X0022166Y0043000D03*
X0022055Y0043000D03*
X0021945Y0043000D03*
X0021834Y0043000D03*
X0014612Y0044000D03*
X0014388Y0044000D03*
D53*
X0021612Y0036385D03*
D54*
X0020500Y0033780D03*
X0020500Y0028220D03*
X0021500Y0028110D03*
X0020500Y0043220D03*
X0016500Y0043780D03*
X0015500Y0043890D03*
X0014500Y0045780D03*
D55*
X0011500Y0042720D03*
X0009500Y0040280D03*
X0021500Y0036390D03*
D56*
X0021388Y0036390D03*
X0012166Y0028390D03*
X0012055Y0028390D03*
D57*
X0021166Y0036390D03*
D58*
X0021055Y0036335D03*
D59*
X0020945Y0036280D03*
X0007834Y0036720D03*
D60*
X0012166Y0043555D03*
X0012277Y0043665D03*
X0020834Y0034665D03*
D61*
X0020834Y0038055D03*
X0006834Y0037165D03*
D62*
X0013612Y0034110D03*
X0013945Y0033890D03*
X0020723Y0034220D03*
D63*
X0020723Y0038385D03*
D64*
X0020612Y0038665D03*
X0019945Y0043335D03*
X0019834Y0043335D03*
X0019723Y0043335D03*
X0019612Y0043335D03*
X0019388Y0043335D03*
X0018945Y0043445D03*
X0018834Y0043445D03*
X0018723Y0043445D03*
X0018612Y0043445D03*
X0018388Y0043445D03*
X0018055Y0043555D03*
X0017945Y0043555D03*
X0017834Y0043555D03*
X0017723Y0043555D03*
X0017612Y0043555D03*
X0017277Y0043665D03*
X0017166Y0043665D03*
X0017055Y0043665D03*
X0016945Y0043665D03*
X0014055Y0033665D03*
X0016834Y0028665D03*
X0016945Y0028665D03*
X0017945Y0028555D03*
X0018612Y0028445D03*
X0018723Y0028445D03*
X0018834Y0028445D03*
X0018945Y0028445D03*
X0019612Y0028335D03*
X0019723Y0028335D03*
X0019834Y0028335D03*
X0019945Y0028335D03*
X0012277Y0027555D03*
D65*
X0020500Y0038835D03*
D66*
X0020388Y0033500D03*
D67*
X0020388Y0039000D03*
D68*
X0020277Y0039170D03*
X0020166Y0039280D03*
X0014834Y0039720D03*
X0014055Y0038720D03*
X0014612Y0045830D03*
D69*
X0020055Y0039445D03*
X0020055Y0033115D03*
X0019834Y0032885D03*
X0013388Y0034555D03*
D70*
X0019945Y0033000D03*
D71*
X0019723Y0032720D03*
X0019612Y0032720D03*
X0019388Y0032500D03*
X0019945Y0039500D03*
X0019723Y0039720D03*
X0014723Y0045830D03*
D72*
X0018834Y0040115D03*
X0019388Y0039885D03*
X0019834Y0039665D03*
X0013945Y0038665D03*
X0019055Y0032335D03*
X0019166Y0032335D03*
X0019277Y0032445D03*
D73*
X0018834Y0032225D03*
X0019612Y0039775D03*
X0018388Y0040225D03*
X0014945Y0039775D03*
D74*
X0017500Y0043555D03*
X0018500Y0043445D03*
X0019500Y0043335D03*
X0013500Y0034335D03*
X0018500Y0028445D03*
X0019500Y0028335D03*
D75*
X0019500Y0032610D03*
X0012500Y0027390D03*
X0006500Y0037390D03*
D76*
X0019500Y0039885D03*
D77*
X0019277Y0043390D03*
X0019166Y0043390D03*
X0019055Y0043390D03*
X0017834Y0028610D03*
X0017723Y0028610D03*
X0017612Y0028610D03*
X0017388Y0028610D03*
X0017277Y0028610D03*
X0017166Y0028610D03*
X0017055Y0028610D03*
X0019055Y0028390D03*
X0019166Y0028390D03*
X0019277Y0028390D03*
X0019388Y0028390D03*
D78*
X0018166Y0032055D03*
X0018055Y0032055D03*
X0017834Y0032055D03*
X0017723Y0032055D03*
X0017612Y0032055D03*
X0017388Y0032055D03*
X0017277Y0032055D03*
X0017166Y0032055D03*
X0019277Y0039945D03*
X0019055Y0040055D03*
X0018945Y0040055D03*
D79*
X0019166Y0040000D03*
D80*
X0018723Y0040170D03*
X0018612Y0040170D03*
X0018277Y0040280D03*
X0014277Y0033280D03*
X0018612Y0032170D03*
X0018723Y0032170D03*
X0018945Y0032280D03*
X0012612Y0027280D03*
D81*
X0018500Y0032170D03*
X0018500Y0040170D03*
D82*
X0018277Y0043500D03*
X0018166Y0043500D03*
X0018166Y0028500D03*
X0018055Y0028500D03*
X0018277Y0028500D03*
X0018388Y0028500D03*
D83*
X0018388Y0032110D03*
X0018277Y0032110D03*
D84*
X0018166Y0040110D03*
X0014945Y0045780D03*
D85*
X0017945Y0032000D03*
D86*
X0017500Y0028610D03*
D87*
X0017500Y0032055D03*
D88*
X0014723Y0039610D03*
X0017388Y0043610D03*
D89*
X0015166Y0039945D03*
X0014388Y0033055D03*
D90*
X0015055Y0039945D03*
D91*
X0013277Y0034665D03*
X0014834Y0045775D03*
D92*
X0014612Y0039555D03*
D93*
X0014500Y0039330D03*
D94*
X0014277Y0044945D03*
X0013723Y0044945D03*
D95*
X0014166Y0033500D03*
D96*
X0014166Y0038835D03*
D97*
X0014166Y0045000D03*
D98*
X0014055Y0045055D03*
X0013945Y0045055D03*
X0013834Y0045055D03*
X0007277Y0036945D03*
X0010166Y0030945D03*
X0011055Y0029055D03*
D99*
X0013723Y0033945D03*
X0013834Y0033945D03*
D100*
X0013834Y0038555D03*
D101*
X0013723Y0038500D03*
D102*
X0007166Y0037055D03*
X0013612Y0044945D03*
D103*
X0013500Y0044885D03*
D104*
X0013388Y0044830D03*
D105*
X0013277Y0044775D03*
D106*
X0013166Y0034890D03*
X0012834Y0027110D03*
D107*
X0009945Y0040775D03*
X0013166Y0044665D03*
D108*
X0013055Y0044610D03*
X0012834Y0044390D03*
X0012723Y0044280D03*
X0012055Y0043390D03*
X0011945Y0043280D03*
X0011388Y0042610D03*
X0011277Y0042390D03*
X0011166Y0042280D03*
X0010723Y0041720D03*
X0010612Y0041610D03*
X0010388Y0041390D03*
X0010277Y0041280D03*
X0009834Y0040610D03*
X0009612Y0040390D03*
X0009055Y0039720D03*
X0008834Y0039390D03*
X0008723Y0039280D03*
X0008277Y0038720D03*
X0008166Y0038610D03*
D109*
X0008945Y0039500D03*
X0009723Y0040500D03*
X0012945Y0044500D03*
D110*
X0012723Y0027165D03*
D111*
X0008388Y0038835D03*
X0008612Y0039165D03*
X0009166Y0039835D03*
X0009277Y0039945D03*
X0010055Y0040945D03*
X0010166Y0041055D03*
X0010834Y0041945D03*
X0010945Y0042055D03*
X0011055Y0042165D03*
X0011612Y0042835D03*
X0011723Y0042945D03*
X0011834Y0043055D03*
X0012388Y0043835D03*
X0012612Y0044055D03*
D112*
X0012500Y0043945D03*
D113*
X0012388Y0027445D03*
D114*
X0011945Y0028335D03*
X0011834Y0028335D03*
X0011723Y0028335D03*
D115*
X0011612Y0028275D03*
X0011388Y0028275D03*
X0011166Y0028835D03*
D116*
X0011500Y0028275D03*
D117*
X0011277Y0028555D03*
X0010388Y0030445D03*
X0009945Y0031445D03*
X0009388Y0032555D03*
D118*
X0010834Y0029500D03*
D119*
X0010612Y0030000D03*
X0009723Y0031890D03*
X0009612Y0032110D03*
X0009166Y0033110D03*
X0008723Y0034000D03*
D120*
X0010500Y0030220D03*
D121*
X0010500Y0041500D03*
D122*
X0009500Y0032390D03*
D123*
X0009388Y0040110D03*
D124*
X0008500Y0034555D03*
D125*
X0008500Y0039000D03*
D126*
X0008166Y0035275D03*
X0008388Y0034725D03*
D127*
X0008055Y0036615D03*
D128*
X0007945Y0036670D03*
D129*
X0007723Y0036775D03*
D130*
X0007612Y0036890D03*
D131*
X0007500Y0036890D03*
D132*
X0006945Y0037110D03*
D133*
X0006723Y0037220D03*
M02*
