G75*
%MOIN*%
%OFA0B0*%
%FSLAX25Y25*%
%IPPOS*%
%LPD*%
%AMOC8*
5,1,8,0,0,1.08239X$1,22.5*
%
%ADD10C,0.00000*%
%ADD11R,0.07874X0.04724*%
%ADD12C,0.06400*%
%ADD13R,0.03937X0.04331*%
%ADD14R,0.04331X0.03937*%
%ADD15R,0.06299X0.09055*%
%ADD16C,0.07100*%
%ADD17OC8,0.06300*%
%ADD18C,0.06300*%
%ADD19C,0.03962*%
%ADD20C,0.03200*%
%ADD21C,0.02400*%
%ADD22C,0.01600*%
%ADD23C,0.04000*%
D10*
X0001000Y0001000D02*
X0001000Y0199701D01*
X0195921Y0199701D01*
X0195921Y0001000D01*
X0001000Y0001000D01*
X0004701Y0011000D02*
X0004703Y0011158D01*
X0004709Y0011316D01*
X0004719Y0011474D01*
X0004733Y0011632D01*
X0004751Y0011789D01*
X0004772Y0011946D01*
X0004798Y0012102D01*
X0004828Y0012258D01*
X0004861Y0012413D01*
X0004899Y0012566D01*
X0004940Y0012719D01*
X0004985Y0012871D01*
X0005034Y0013022D01*
X0005087Y0013171D01*
X0005143Y0013319D01*
X0005203Y0013465D01*
X0005267Y0013610D01*
X0005335Y0013753D01*
X0005406Y0013895D01*
X0005480Y0014035D01*
X0005558Y0014172D01*
X0005640Y0014308D01*
X0005724Y0014442D01*
X0005813Y0014573D01*
X0005904Y0014702D01*
X0005999Y0014829D01*
X0006096Y0014954D01*
X0006197Y0015076D01*
X0006301Y0015195D01*
X0006408Y0015312D01*
X0006518Y0015426D01*
X0006631Y0015537D01*
X0006746Y0015646D01*
X0006864Y0015751D01*
X0006985Y0015853D01*
X0007108Y0015953D01*
X0007234Y0016049D01*
X0007362Y0016142D01*
X0007492Y0016232D01*
X0007625Y0016318D01*
X0007760Y0016402D01*
X0007896Y0016481D01*
X0008035Y0016558D01*
X0008176Y0016630D01*
X0008318Y0016700D01*
X0008462Y0016765D01*
X0008608Y0016827D01*
X0008755Y0016885D01*
X0008904Y0016940D01*
X0009054Y0016991D01*
X0009205Y0017038D01*
X0009357Y0017081D01*
X0009510Y0017120D01*
X0009665Y0017156D01*
X0009820Y0017187D01*
X0009976Y0017215D01*
X0010132Y0017239D01*
X0010289Y0017259D01*
X0010447Y0017275D01*
X0010604Y0017287D01*
X0010763Y0017295D01*
X0010921Y0017299D01*
X0011079Y0017299D01*
X0011237Y0017295D01*
X0011396Y0017287D01*
X0011553Y0017275D01*
X0011711Y0017259D01*
X0011868Y0017239D01*
X0012024Y0017215D01*
X0012180Y0017187D01*
X0012335Y0017156D01*
X0012490Y0017120D01*
X0012643Y0017081D01*
X0012795Y0017038D01*
X0012946Y0016991D01*
X0013096Y0016940D01*
X0013245Y0016885D01*
X0013392Y0016827D01*
X0013538Y0016765D01*
X0013682Y0016700D01*
X0013824Y0016630D01*
X0013965Y0016558D01*
X0014104Y0016481D01*
X0014240Y0016402D01*
X0014375Y0016318D01*
X0014508Y0016232D01*
X0014638Y0016142D01*
X0014766Y0016049D01*
X0014892Y0015953D01*
X0015015Y0015853D01*
X0015136Y0015751D01*
X0015254Y0015646D01*
X0015369Y0015537D01*
X0015482Y0015426D01*
X0015592Y0015312D01*
X0015699Y0015195D01*
X0015803Y0015076D01*
X0015904Y0014954D01*
X0016001Y0014829D01*
X0016096Y0014702D01*
X0016187Y0014573D01*
X0016276Y0014442D01*
X0016360Y0014308D01*
X0016442Y0014172D01*
X0016520Y0014035D01*
X0016594Y0013895D01*
X0016665Y0013753D01*
X0016733Y0013610D01*
X0016797Y0013465D01*
X0016857Y0013319D01*
X0016913Y0013171D01*
X0016966Y0013022D01*
X0017015Y0012871D01*
X0017060Y0012719D01*
X0017101Y0012566D01*
X0017139Y0012413D01*
X0017172Y0012258D01*
X0017202Y0012102D01*
X0017228Y0011946D01*
X0017249Y0011789D01*
X0017267Y0011632D01*
X0017281Y0011474D01*
X0017291Y0011316D01*
X0017297Y0011158D01*
X0017299Y0011000D01*
X0017297Y0010842D01*
X0017291Y0010684D01*
X0017281Y0010526D01*
X0017267Y0010368D01*
X0017249Y0010211D01*
X0017228Y0010054D01*
X0017202Y0009898D01*
X0017172Y0009742D01*
X0017139Y0009587D01*
X0017101Y0009434D01*
X0017060Y0009281D01*
X0017015Y0009129D01*
X0016966Y0008978D01*
X0016913Y0008829D01*
X0016857Y0008681D01*
X0016797Y0008535D01*
X0016733Y0008390D01*
X0016665Y0008247D01*
X0016594Y0008105D01*
X0016520Y0007965D01*
X0016442Y0007828D01*
X0016360Y0007692D01*
X0016276Y0007558D01*
X0016187Y0007427D01*
X0016096Y0007298D01*
X0016001Y0007171D01*
X0015904Y0007046D01*
X0015803Y0006924D01*
X0015699Y0006805D01*
X0015592Y0006688D01*
X0015482Y0006574D01*
X0015369Y0006463D01*
X0015254Y0006354D01*
X0015136Y0006249D01*
X0015015Y0006147D01*
X0014892Y0006047D01*
X0014766Y0005951D01*
X0014638Y0005858D01*
X0014508Y0005768D01*
X0014375Y0005682D01*
X0014240Y0005598D01*
X0014104Y0005519D01*
X0013965Y0005442D01*
X0013824Y0005370D01*
X0013682Y0005300D01*
X0013538Y0005235D01*
X0013392Y0005173D01*
X0013245Y0005115D01*
X0013096Y0005060D01*
X0012946Y0005009D01*
X0012795Y0004962D01*
X0012643Y0004919D01*
X0012490Y0004880D01*
X0012335Y0004844D01*
X0012180Y0004813D01*
X0012024Y0004785D01*
X0011868Y0004761D01*
X0011711Y0004741D01*
X0011553Y0004725D01*
X0011396Y0004713D01*
X0011237Y0004705D01*
X0011079Y0004701D01*
X0010921Y0004701D01*
X0010763Y0004705D01*
X0010604Y0004713D01*
X0010447Y0004725D01*
X0010289Y0004741D01*
X0010132Y0004761D01*
X0009976Y0004785D01*
X0009820Y0004813D01*
X0009665Y0004844D01*
X0009510Y0004880D01*
X0009357Y0004919D01*
X0009205Y0004962D01*
X0009054Y0005009D01*
X0008904Y0005060D01*
X0008755Y0005115D01*
X0008608Y0005173D01*
X0008462Y0005235D01*
X0008318Y0005300D01*
X0008176Y0005370D01*
X0008035Y0005442D01*
X0007896Y0005519D01*
X0007760Y0005598D01*
X0007625Y0005682D01*
X0007492Y0005768D01*
X0007362Y0005858D01*
X0007234Y0005951D01*
X0007108Y0006047D01*
X0006985Y0006147D01*
X0006864Y0006249D01*
X0006746Y0006354D01*
X0006631Y0006463D01*
X0006518Y0006574D01*
X0006408Y0006688D01*
X0006301Y0006805D01*
X0006197Y0006924D01*
X0006096Y0007046D01*
X0005999Y0007171D01*
X0005904Y0007298D01*
X0005813Y0007427D01*
X0005724Y0007558D01*
X0005640Y0007692D01*
X0005558Y0007828D01*
X0005480Y0007965D01*
X0005406Y0008105D01*
X0005335Y0008247D01*
X0005267Y0008390D01*
X0005203Y0008535D01*
X0005143Y0008681D01*
X0005087Y0008829D01*
X0005034Y0008978D01*
X0004985Y0009129D01*
X0004940Y0009281D01*
X0004899Y0009434D01*
X0004861Y0009587D01*
X0004828Y0009742D01*
X0004798Y0009898D01*
X0004772Y0010054D01*
X0004751Y0010211D01*
X0004733Y0010368D01*
X0004719Y0010526D01*
X0004709Y0010684D01*
X0004703Y0010842D01*
X0004701Y0011000D01*
X0004701Y0191000D02*
X0004703Y0191158D01*
X0004709Y0191316D01*
X0004719Y0191474D01*
X0004733Y0191632D01*
X0004751Y0191789D01*
X0004772Y0191946D01*
X0004798Y0192102D01*
X0004828Y0192258D01*
X0004861Y0192413D01*
X0004899Y0192566D01*
X0004940Y0192719D01*
X0004985Y0192871D01*
X0005034Y0193022D01*
X0005087Y0193171D01*
X0005143Y0193319D01*
X0005203Y0193465D01*
X0005267Y0193610D01*
X0005335Y0193753D01*
X0005406Y0193895D01*
X0005480Y0194035D01*
X0005558Y0194172D01*
X0005640Y0194308D01*
X0005724Y0194442D01*
X0005813Y0194573D01*
X0005904Y0194702D01*
X0005999Y0194829D01*
X0006096Y0194954D01*
X0006197Y0195076D01*
X0006301Y0195195D01*
X0006408Y0195312D01*
X0006518Y0195426D01*
X0006631Y0195537D01*
X0006746Y0195646D01*
X0006864Y0195751D01*
X0006985Y0195853D01*
X0007108Y0195953D01*
X0007234Y0196049D01*
X0007362Y0196142D01*
X0007492Y0196232D01*
X0007625Y0196318D01*
X0007760Y0196402D01*
X0007896Y0196481D01*
X0008035Y0196558D01*
X0008176Y0196630D01*
X0008318Y0196700D01*
X0008462Y0196765D01*
X0008608Y0196827D01*
X0008755Y0196885D01*
X0008904Y0196940D01*
X0009054Y0196991D01*
X0009205Y0197038D01*
X0009357Y0197081D01*
X0009510Y0197120D01*
X0009665Y0197156D01*
X0009820Y0197187D01*
X0009976Y0197215D01*
X0010132Y0197239D01*
X0010289Y0197259D01*
X0010447Y0197275D01*
X0010604Y0197287D01*
X0010763Y0197295D01*
X0010921Y0197299D01*
X0011079Y0197299D01*
X0011237Y0197295D01*
X0011396Y0197287D01*
X0011553Y0197275D01*
X0011711Y0197259D01*
X0011868Y0197239D01*
X0012024Y0197215D01*
X0012180Y0197187D01*
X0012335Y0197156D01*
X0012490Y0197120D01*
X0012643Y0197081D01*
X0012795Y0197038D01*
X0012946Y0196991D01*
X0013096Y0196940D01*
X0013245Y0196885D01*
X0013392Y0196827D01*
X0013538Y0196765D01*
X0013682Y0196700D01*
X0013824Y0196630D01*
X0013965Y0196558D01*
X0014104Y0196481D01*
X0014240Y0196402D01*
X0014375Y0196318D01*
X0014508Y0196232D01*
X0014638Y0196142D01*
X0014766Y0196049D01*
X0014892Y0195953D01*
X0015015Y0195853D01*
X0015136Y0195751D01*
X0015254Y0195646D01*
X0015369Y0195537D01*
X0015482Y0195426D01*
X0015592Y0195312D01*
X0015699Y0195195D01*
X0015803Y0195076D01*
X0015904Y0194954D01*
X0016001Y0194829D01*
X0016096Y0194702D01*
X0016187Y0194573D01*
X0016276Y0194442D01*
X0016360Y0194308D01*
X0016442Y0194172D01*
X0016520Y0194035D01*
X0016594Y0193895D01*
X0016665Y0193753D01*
X0016733Y0193610D01*
X0016797Y0193465D01*
X0016857Y0193319D01*
X0016913Y0193171D01*
X0016966Y0193022D01*
X0017015Y0192871D01*
X0017060Y0192719D01*
X0017101Y0192566D01*
X0017139Y0192413D01*
X0017172Y0192258D01*
X0017202Y0192102D01*
X0017228Y0191946D01*
X0017249Y0191789D01*
X0017267Y0191632D01*
X0017281Y0191474D01*
X0017291Y0191316D01*
X0017297Y0191158D01*
X0017299Y0191000D01*
X0017297Y0190842D01*
X0017291Y0190684D01*
X0017281Y0190526D01*
X0017267Y0190368D01*
X0017249Y0190211D01*
X0017228Y0190054D01*
X0017202Y0189898D01*
X0017172Y0189742D01*
X0017139Y0189587D01*
X0017101Y0189434D01*
X0017060Y0189281D01*
X0017015Y0189129D01*
X0016966Y0188978D01*
X0016913Y0188829D01*
X0016857Y0188681D01*
X0016797Y0188535D01*
X0016733Y0188390D01*
X0016665Y0188247D01*
X0016594Y0188105D01*
X0016520Y0187965D01*
X0016442Y0187828D01*
X0016360Y0187692D01*
X0016276Y0187558D01*
X0016187Y0187427D01*
X0016096Y0187298D01*
X0016001Y0187171D01*
X0015904Y0187046D01*
X0015803Y0186924D01*
X0015699Y0186805D01*
X0015592Y0186688D01*
X0015482Y0186574D01*
X0015369Y0186463D01*
X0015254Y0186354D01*
X0015136Y0186249D01*
X0015015Y0186147D01*
X0014892Y0186047D01*
X0014766Y0185951D01*
X0014638Y0185858D01*
X0014508Y0185768D01*
X0014375Y0185682D01*
X0014240Y0185598D01*
X0014104Y0185519D01*
X0013965Y0185442D01*
X0013824Y0185370D01*
X0013682Y0185300D01*
X0013538Y0185235D01*
X0013392Y0185173D01*
X0013245Y0185115D01*
X0013096Y0185060D01*
X0012946Y0185009D01*
X0012795Y0184962D01*
X0012643Y0184919D01*
X0012490Y0184880D01*
X0012335Y0184844D01*
X0012180Y0184813D01*
X0012024Y0184785D01*
X0011868Y0184761D01*
X0011711Y0184741D01*
X0011553Y0184725D01*
X0011396Y0184713D01*
X0011237Y0184705D01*
X0011079Y0184701D01*
X0010921Y0184701D01*
X0010763Y0184705D01*
X0010604Y0184713D01*
X0010447Y0184725D01*
X0010289Y0184741D01*
X0010132Y0184761D01*
X0009976Y0184785D01*
X0009820Y0184813D01*
X0009665Y0184844D01*
X0009510Y0184880D01*
X0009357Y0184919D01*
X0009205Y0184962D01*
X0009054Y0185009D01*
X0008904Y0185060D01*
X0008755Y0185115D01*
X0008608Y0185173D01*
X0008462Y0185235D01*
X0008318Y0185300D01*
X0008176Y0185370D01*
X0008035Y0185442D01*
X0007896Y0185519D01*
X0007760Y0185598D01*
X0007625Y0185682D01*
X0007492Y0185768D01*
X0007362Y0185858D01*
X0007234Y0185951D01*
X0007108Y0186047D01*
X0006985Y0186147D01*
X0006864Y0186249D01*
X0006746Y0186354D01*
X0006631Y0186463D01*
X0006518Y0186574D01*
X0006408Y0186688D01*
X0006301Y0186805D01*
X0006197Y0186924D01*
X0006096Y0187046D01*
X0005999Y0187171D01*
X0005904Y0187298D01*
X0005813Y0187427D01*
X0005724Y0187558D01*
X0005640Y0187692D01*
X0005558Y0187828D01*
X0005480Y0187965D01*
X0005406Y0188105D01*
X0005335Y0188247D01*
X0005267Y0188390D01*
X0005203Y0188535D01*
X0005143Y0188681D01*
X0005087Y0188829D01*
X0005034Y0188978D01*
X0004985Y0189129D01*
X0004940Y0189281D01*
X0004899Y0189434D01*
X0004861Y0189587D01*
X0004828Y0189742D01*
X0004798Y0189898D01*
X0004772Y0190054D01*
X0004751Y0190211D01*
X0004733Y0190368D01*
X0004719Y0190526D01*
X0004709Y0190684D01*
X0004703Y0190842D01*
X0004701Y0191000D01*
X0179701Y0191000D02*
X0179703Y0191158D01*
X0179709Y0191316D01*
X0179719Y0191474D01*
X0179733Y0191632D01*
X0179751Y0191789D01*
X0179772Y0191946D01*
X0179798Y0192102D01*
X0179828Y0192258D01*
X0179861Y0192413D01*
X0179899Y0192566D01*
X0179940Y0192719D01*
X0179985Y0192871D01*
X0180034Y0193022D01*
X0180087Y0193171D01*
X0180143Y0193319D01*
X0180203Y0193465D01*
X0180267Y0193610D01*
X0180335Y0193753D01*
X0180406Y0193895D01*
X0180480Y0194035D01*
X0180558Y0194172D01*
X0180640Y0194308D01*
X0180724Y0194442D01*
X0180813Y0194573D01*
X0180904Y0194702D01*
X0180999Y0194829D01*
X0181096Y0194954D01*
X0181197Y0195076D01*
X0181301Y0195195D01*
X0181408Y0195312D01*
X0181518Y0195426D01*
X0181631Y0195537D01*
X0181746Y0195646D01*
X0181864Y0195751D01*
X0181985Y0195853D01*
X0182108Y0195953D01*
X0182234Y0196049D01*
X0182362Y0196142D01*
X0182492Y0196232D01*
X0182625Y0196318D01*
X0182760Y0196402D01*
X0182896Y0196481D01*
X0183035Y0196558D01*
X0183176Y0196630D01*
X0183318Y0196700D01*
X0183462Y0196765D01*
X0183608Y0196827D01*
X0183755Y0196885D01*
X0183904Y0196940D01*
X0184054Y0196991D01*
X0184205Y0197038D01*
X0184357Y0197081D01*
X0184510Y0197120D01*
X0184665Y0197156D01*
X0184820Y0197187D01*
X0184976Y0197215D01*
X0185132Y0197239D01*
X0185289Y0197259D01*
X0185447Y0197275D01*
X0185604Y0197287D01*
X0185763Y0197295D01*
X0185921Y0197299D01*
X0186079Y0197299D01*
X0186237Y0197295D01*
X0186396Y0197287D01*
X0186553Y0197275D01*
X0186711Y0197259D01*
X0186868Y0197239D01*
X0187024Y0197215D01*
X0187180Y0197187D01*
X0187335Y0197156D01*
X0187490Y0197120D01*
X0187643Y0197081D01*
X0187795Y0197038D01*
X0187946Y0196991D01*
X0188096Y0196940D01*
X0188245Y0196885D01*
X0188392Y0196827D01*
X0188538Y0196765D01*
X0188682Y0196700D01*
X0188824Y0196630D01*
X0188965Y0196558D01*
X0189104Y0196481D01*
X0189240Y0196402D01*
X0189375Y0196318D01*
X0189508Y0196232D01*
X0189638Y0196142D01*
X0189766Y0196049D01*
X0189892Y0195953D01*
X0190015Y0195853D01*
X0190136Y0195751D01*
X0190254Y0195646D01*
X0190369Y0195537D01*
X0190482Y0195426D01*
X0190592Y0195312D01*
X0190699Y0195195D01*
X0190803Y0195076D01*
X0190904Y0194954D01*
X0191001Y0194829D01*
X0191096Y0194702D01*
X0191187Y0194573D01*
X0191276Y0194442D01*
X0191360Y0194308D01*
X0191442Y0194172D01*
X0191520Y0194035D01*
X0191594Y0193895D01*
X0191665Y0193753D01*
X0191733Y0193610D01*
X0191797Y0193465D01*
X0191857Y0193319D01*
X0191913Y0193171D01*
X0191966Y0193022D01*
X0192015Y0192871D01*
X0192060Y0192719D01*
X0192101Y0192566D01*
X0192139Y0192413D01*
X0192172Y0192258D01*
X0192202Y0192102D01*
X0192228Y0191946D01*
X0192249Y0191789D01*
X0192267Y0191632D01*
X0192281Y0191474D01*
X0192291Y0191316D01*
X0192297Y0191158D01*
X0192299Y0191000D01*
X0192297Y0190842D01*
X0192291Y0190684D01*
X0192281Y0190526D01*
X0192267Y0190368D01*
X0192249Y0190211D01*
X0192228Y0190054D01*
X0192202Y0189898D01*
X0192172Y0189742D01*
X0192139Y0189587D01*
X0192101Y0189434D01*
X0192060Y0189281D01*
X0192015Y0189129D01*
X0191966Y0188978D01*
X0191913Y0188829D01*
X0191857Y0188681D01*
X0191797Y0188535D01*
X0191733Y0188390D01*
X0191665Y0188247D01*
X0191594Y0188105D01*
X0191520Y0187965D01*
X0191442Y0187828D01*
X0191360Y0187692D01*
X0191276Y0187558D01*
X0191187Y0187427D01*
X0191096Y0187298D01*
X0191001Y0187171D01*
X0190904Y0187046D01*
X0190803Y0186924D01*
X0190699Y0186805D01*
X0190592Y0186688D01*
X0190482Y0186574D01*
X0190369Y0186463D01*
X0190254Y0186354D01*
X0190136Y0186249D01*
X0190015Y0186147D01*
X0189892Y0186047D01*
X0189766Y0185951D01*
X0189638Y0185858D01*
X0189508Y0185768D01*
X0189375Y0185682D01*
X0189240Y0185598D01*
X0189104Y0185519D01*
X0188965Y0185442D01*
X0188824Y0185370D01*
X0188682Y0185300D01*
X0188538Y0185235D01*
X0188392Y0185173D01*
X0188245Y0185115D01*
X0188096Y0185060D01*
X0187946Y0185009D01*
X0187795Y0184962D01*
X0187643Y0184919D01*
X0187490Y0184880D01*
X0187335Y0184844D01*
X0187180Y0184813D01*
X0187024Y0184785D01*
X0186868Y0184761D01*
X0186711Y0184741D01*
X0186553Y0184725D01*
X0186396Y0184713D01*
X0186237Y0184705D01*
X0186079Y0184701D01*
X0185921Y0184701D01*
X0185763Y0184705D01*
X0185604Y0184713D01*
X0185447Y0184725D01*
X0185289Y0184741D01*
X0185132Y0184761D01*
X0184976Y0184785D01*
X0184820Y0184813D01*
X0184665Y0184844D01*
X0184510Y0184880D01*
X0184357Y0184919D01*
X0184205Y0184962D01*
X0184054Y0185009D01*
X0183904Y0185060D01*
X0183755Y0185115D01*
X0183608Y0185173D01*
X0183462Y0185235D01*
X0183318Y0185300D01*
X0183176Y0185370D01*
X0183035Y0185442D01*
X0182896Y0185519D01*
X0182760Y0185598D01*
X0182625Y0185682D01*
X0182492Y0185768D01*
X0182362Y0185858D01*
X0182234Y0185951D01*
X0182108Y0186047D01*
X0181985Y0186147D01*
X0181864Y0186249D01*
X0181746Y0186354D01*
X0181631Y0186463D01*
X0181518Y0186574D01*
X0181408Y0186688D01*
X0181301Y0186805D01*
X0181197Y0186924D01*
X0181096Y0187046D01*
X0180999Y0187171D01*
X0180904Y0187298D01*
X0180813Y0187427D01*
X0180724Y0187558D01*
X0180640Y0187692D01*
X0180558Y0187828D01*
X0180480Y0187965D01*
X0180406Y0188105D01*
X0180335Y0188247D01*
X0180267Y0188390D01*
X0180203Y0188535D01*
X0180143Y0188681D01*
X0180087Y0188829D01*
X0180034Y0188978D01*
X0179985Y0189129D01*
X0179940Y0189281D01*
X0179899Y0189434D01*
X0179861Y0189587D01*
X0179828Y0189742D01*
X0179798Y0189898D01*
X0179772Y0190054D01*
X0179751Y0190211D01*
X0179733Y0190368D01*
X0179719Y0190526D01*
X0179709Y0190684D01*
X0179703Y0190842D01*
X0179701Y0191000D01*
X0179701Y0011000D02*
X0179703Y0011158D01*
X0179709Y0011316D01*
X0179719Y0011474D01*
X0179733Y0011632D01*
X0179751Y0011789D01*
X0179772Y0011946D01*
X0179798Y0012102D01*
X0179828Y0012258D01*
X0179861Y0012413D01*
X0179899Y0012566D01*
X0179940Y0012719D01*
X0179985Y0012871D01*
X0180034Y0013022D01*
X0180087Y0013171D01*
X0180143Y0013319D01*
X0180203Y0013465D01*
X0180267Y0013610D01*
X0180335Y0013753D01*
X0180406Y0013895D01*
X0180480Y0014035D01*
X0180558Y0014172D01*
X0180640Y0014308D01*
X0180724Y0014442D01*
X0180813Y0014573D01*
X0180904Y0014702D01*
X0180999Y0014829D01*
X0181096Y0014954D01*
X0181197Y0015076D01*
X0181301Y0015195D01*
X0181408Y0015312D01*
X0181518Y0015426D01*
X0181631Y0015537D01*
X0181746Y0015646D01*
X0181864Y0015751D01*
X0181985Y0015853D01*
X0182108Y0015953D01*
X0182234Y0016049D01*
X0182362Y0016142D01*
X0182492Y0016232D01*
X0182625Y0016318D01*
X0182760Y0016402D01*
X0182896Y0016481D01*
X0183035Y0016558D01*
X0183176Y0016630D01*
X0183318Y0016700D01*
X0183462Y0016765D01*
X0183608Y0016827D01*
X0183755Y0016885D01*
X0183904Y0016940D01*
X0184054Y0016991D01*
X0184205Y0017038D01*
X0184357Y0017081D01*
X0184510Y0017120D01*
X0184665Y0017156D01*
X0184820Y0017187D01*
X0184976Y0017215D01*
X0185132Y0017239D01*
X0185289Y0017259D01*
X0185447Y0017275D01*
X0185604Y0017287D01*
X0185763Y0017295D01*
X0185921Y0017299D01*
X0186079Y0017299D01*
X0186237Y0017295D01*
X0186396Y0017287D01*
X0186553Y0017275D01*
X0186711Y0017259D01*
X0186868Y0017239D01*
X0187024Y0017215D01*
X0187180Y0017187D01*
X0187335Y0017156D01*
X0187490Y0017120D01*
X0187643Y0017081D01*
X0187795Y0017038D01*
X0187946Y0016991D01*
X0188096Y0016940D01*
X0188245Y0016885D01*
X0188392Y0016827D01*
X0188538Y0016765D01*
X0188682Y0016700D01*
X0188824Y0016630D01*
X0188965Y0016558D01*
X0189104Y0016481D01*
X0189240Y0016402D01*
X0189375Y0016318D01*
X0189508Y0016232D01*
X0189638Y0016142D01*
X0189766Y0016049D01*
X0189892Y0015953D01*
X0190015Y0015853D01*
X0190136Y0015751D01*
X0190254Y0015646D01*
X0190369Y0015537D01*
X0190482Y0015426D01*
X0190592Y0015312D01*
X0190699Y0015195D01*
X0190803Y0015076D01*
X0190904Y0014954D01*
X0191001Y0014829D01*
X0191096Y0014702D01*
X0191187Y0014573D01*
X0191276Y0014442D01*
X0191360Y0014308D01*
X0191442Y0014172D01*
X0191520Y0014035D01*
X0191594Y0013895D01*
X0191665Y0013753D01*
X0191733Y0013610D01*
X0191797Y0013465D01*
X0191857Y0013319D01*
X0191913Y0013171D01*
X0191966Y0013022D01*
X0192015Y0012871D01*
X0192060Y0012719D01*
X0192101Y0012566D01*
X0192139Y0012413D01*
X0192172Y0012258D01*
X0192202Y0012102D01*
X0192228Y0011946D01*
X0192249Y0011789D01*
X0192267Y0011632D01*
X0192281Y0011474D01*
X0192291Y0011316D01*
X0192297Y0011158D01*
X0192299Y0011000D01*
X0192297Y0010842D01*
X0192291Y0010684D01*
X0192281Y0010526D01*
X0192267Y0010368D01*
X0192249Y0010211D01*
X0192228Y0010054D01*
X0192202Y0009898D01*
X0192172Y0009742D01*
X0192139Y0009587D01*
X0192101Y0009434D01*
X0192060Y0009281D01*
X0192015Y0009129D01*
X0191966Y0008978D01*
X0191913Y0008829D01*
X0191857Y0008681D01*
X0191797Y0008535D01*
X0191733Y0008390D01*
X0191665Y0008247D01*
X0191594Y0008105D01*
X0191520Y0007965D01*
X0191442Y0007828D01*
X0191360Y0007692D01*
X0191276Y0007558D01*
X0191187Y0007427D01*
X0191096Y0007298D01*
X0191001Y0007171D01*
X0190904Y0007046D01*
X0190803Y0006924D01*
X0190699Y0006805D01*
X0190592Y0006688D01*
X0190482Y0006574D01*
X0190369Y0006463D01*
X0190254Y0006354D01*
X0190136Y0006249D01*
X0190015Y0006147D01*
X0189892Y0006047D01*
X0189766Y0005951D01*
X0189638Y0005858D01*
X0189508Y0005768D01*
X0189375Y0005682D01*
X0189240Y0005598D01*
X0189104Y0005519D01*
X0188965Y0005442D01*
X0188824Y0005370D01*
X0188682Y0005300D01*
X0188538Y0005235D01*
X0188392Y0005173D01*
X0188245Y0005115D01*
X0188096Y0005060D01*
X0187946Y0005009D01*
X0187795Y0004962D01*
X0187643Y0004919D01*
X0187490Y0004880D01*
X0187335Y0004844D01*
X0187180Y0004813D01*
X0187024Y0004785D01*
X0186868Y0004761D01*
X0186711Y0004741D01*
X0186553Y0004725D01*
X0186396Y0004713D01*
X0186237Y0004705D01*
X0186079Y0004701D01*
X0185921Y0004701D01*
X0185763Y0004705D01*
X0185604Y0004713D01*
X0185447Y0004725D01*
X0185289Y0004741D01*
X0185132Y0004761D01*
X0184976Y0004785D01*
X0184820Y0004813D01*
X0184665Y0004844D01*
X0184510Y0004880D01*
X0184357Y0004919D01*
X0184205Y0004962D01*
X0184054Y0005009D01*
X0183904Y0005060D01*
X0183755Y0005115D01*
X0183608Y0005173D01*
X0183462Y0005235D01*
X0183318Y0005300D01*
X0183176Y0005370D01*
X0183035Y0005442D01*
X0182896Y0005519D01*
X0182760Y0005598D01*
X0182625Y0005682D01*
X0182492Y0005768D01*
X0182362Y0005858D01*
X0182234Y0005951D01*
X0182108Y0006047D01*
X0181985Y0006147D01*
X0181864Y0006249D01*
X0181746Y0006354D01*
X0181631Y0006463D01*
X0181518Y0006574D01*
X0181408Y0006688D01*
X0181301Y0006805D01*
X0181197Y0006924D01*
X0181096Y0007046D01*
X0180999Y0007171D01*
X0180904Y0007298D01*
X0180813Y0007427D01*
X0180724Y0007558D01*
X0180640Y0007692D01*
X0180558Y0007828D01*
X0180480Y0007965D01*
X0180406Y0008105D01*
X0180335Y0008247D01*
X0180267Y0008390D01*
X0180203Y0008535D01*
X0180143Y0008681D01*
X0180087Y0008829D01*
X0180034Y0008978D01*
X0179985Y0009129D01*
X0179940Y0009281D01*
X0179899Y0009434D01*
X0179861Y0009587D01*
X0179828Y0009742D01*
X0179798Y0009898D01*
X0179772Y0010054D01*
X0179751Y0010211D01*
X0179733Y0010368D01*
X0179719Y0010526D01*
X0179709Y0010684D01*
X0179703Y0010842D01*
X0179701Y0011000D01*
D11*
X0104780Y0113874D03*
X0104780Y0121748D03*
X0104780Y0129622D03*
X0104780Y0137496D03*
X0104780Y0145370D03*
X0104780Y0153244D03*
X0104780Y0161118D03*
X0104780Y0168992D03*
X0041000Y0168992D03*
X0041000Y0161118D03*
X0041000Y0153244D03*
X0041000Y0145370D03*
X0041000Y0137496D03*
X0041000Y0129622D03*
X0041000Y0121748D03*
X0041000Y0113874D03*
D12*
X0081000Y0084200D02*
X0081000Y0077800D01*
X0091000Y0077800D02*
X0091000Y0084200D01*
X0101000Y0084200D02*
X0101000Y0077800D01*
X0127800Y0091000D02*
X0134200Y0091000D01*
X0134200Y0101000D02*
X0127800Y0101000D01*
X0127800Y0111000D02*
X0134200Y0111000D01*
X0136000Y0127800D02*
X0136000Y0134200D01*
X0146000Y0134200D02*
X0146000Y0127800D01*
X0126000Y0127800D02*
X0126000Y0134200D01*
X0126000Y0157800D02*
X0126000Y0164200D01*
X0136000Y0164200D02*
X0136000Y0157800D01*
X0146000Y0157800D02*
X0146000Y0164200D01*
X0146000Y0187800D02*
X0146000Y0194200D01*
X0136000Y0194200D02*
X0136000Y0187800D01*
X0126000Y0187800D02*
X0126000Y0194200D01*
X0116000Y0194200D02*
X0116000Y0187800D01*
X0101000Y0034200D02*
X0101000Y0027800D01*
X0091000Y0027800D02*
X0091000Y0034200D01*
X0081000Y0034200D02*
X0081000Y0027800D01*
D13*
X0079346Y0046000D03*
X0072654Y0046000D03*
X0069346Y0081000D03*
X0062654Y0081000D03*
D14*
X0116000Y0097654D03*
X0116000Y0104346D03*
X0116000Y0117654D03*
X0116000Y0124346D03*
X0116000Y0157654D03*
X0116000Y0164346D03*
D15*
X0011000Y0173402D03*
X0011000Y0148598D03*
D16*
X0126000Y0022050D02*
X0126000Y0014950D01*
X0146000Y0014950D02*
X0146000Y0022050D01*
X0174950Y0036000D02*
X0182050Y0036000D01*
X0182050Y0056000D02*
X0174950Y0056000D01*
X0174950Y0076000D02*
X0182050Y0076000D01*
X0182050Y0096000D02*
X0174950Y0096000D01*
X0174950Y0126000D02*
X0182050Y0126000D01*
X0182050Y0146000D02*
X0174950Y0146000D01*
X0174950Y0166000D02*
X0182050Y0166000D01*
D17*
X0028000Y0126000D03*
D18*
X0014000Y0126000D03*
D19*
X0056000Y0151000D03*
X0066000Y0151000D03*
X0091000Y0161000D03*
X0091000Y0171000D03*
X0111000Y0181000D03*
X0116000Y0171000D03*
X0096000Y0121000D03*
X0086000Y0111000D03*
X0061000Y0091000D03*
X0061000Y0046000D03*
D20*
X0072654Y0046000D01*
X0081000Y0046000D02*
X0081000Y0056000D01*
X0076000Y0061000D01*
X0056000Y0061000D01*
X0051000Y0066000D01*
X0051000Y0121000D01*
X0050252Y0121748D01*
X0041000Y0121748D01*
X0041000Y0129622D02*
X0057378Y0129622D01*
X0061000Y0126000D01*
X0061000Y0106000D01*
X0076000Y0091000D01*
X0076000Y0081000D01*
X0062654Y0081000D02*
X0062654Y0087654D01*
X0061000Y0091000D01*
X0066000Y0111000D02*
X0081000Y0096000D01*
X0114346Y0096000D01*
X0116000Y0097654D01*
X0116000Y0096000D01*
X0121000Y0091000D01*
X0131000Y0091000D01*
X0117654Y0096000D02*
X0116000Y0097654D01*
X0116000Y0104346D02*
X0116000Y0111000D01*
X0107654Y0111000D01*
X0104780Y0113874D01*
X0103874Y0113874D01*
X0101000Y0111000D01*
X0086000Y0111000D01*
X0096000Y0121000D02*
X0096748Y0121748D01*
X0104780Y0121748D01*
X0104780Y0129622D02*
X0082378Y0129622D01*
X0066000Y0146000D01*
X0066000Y0151000D01*
X0056000Y0151000D02*
X0043244Y0151000D01*
X0041000Y0153244D01*
X0041000Y0137496D02*
X0064504Y0137496D01*
X0066000Y0136000D01*
X0066000Y0111000D01*
X0028000Y0126000D02*
X0026000Y0126000D01*
X0026000Y0136000D01*
X0016000Y0146000D01*
X0011000Y0146000D01*
X0011000Y0173402D02*
X0013598Y0176000D01*
X0031000Y0176000D01*
X0038008Y0168992D01*
X0041000Y0168992D01*
X0104780Y0153244D02*
X0113244Y0153244D01*
X0116000Y0156000D01*
X0116000Y0157654D01*
X0122654Y0157654D01*
X0126000Y0161000D01*
X0116000Y0164346D02*
X0116000Y0171000D01*
X0111630Y0145370D02*
X0104780Y0145370D01*
X0111630Y0145370D02*
X0116000Y0141000D01*
X0116000Y0124346D01*
X0124346Y0124346D01*
X0126000Y0131000D01*
X0116000Y0117654D02*
X0116000Y0111000D01*
D21*
X0103283Y0136000D02*
X0104780Y0137496D01*
X0103283Y0136000D02*
X0086000Y0136000D01*
X0076000Y0146000D01*
X0076000Y0171000D01*
X0081000Y0176000D01*
X0126000Y0176000D01*
X0136000Y0186000D01*
X0136000Y0191000D01*
X0126000Y0191000D02*
X0126000Y0186000D01*
X0121000Y0181000D01*
X0111000Y0181000D01*
X0102772Y0171000D02*
X0104780Y0168992D01*
X0102772Y0171000D02*
X0091000Y0171000D01*
X0091000Y0161000D02*
X0099661Y0161000D01*
X0104780Y0161118D01*
X0013008Y0168992D02*
X0011000Y0171000D01*
X0011000Y0173402D01*
D22*
X0086000Y0086000D02*
X0086328Y0086000D01*
X0086123Y0085371D01*
X0086000Y0084594D01*
X0086000Y0081200D01*
X0090800Y0081200D01*
X0090800Y0080800D01*
X0086000Y0080800D01*
X0086000Y0077406D01*
X0086123Y0076629D01*
X0086366Y0075881D01*
X0086724Y0075179D01*
X0087186Y0074543D01*
X0087743Y0073986D01*
X0088379Y0073524D01*
X0089081Y0073166D01*
X0089829Y0072923D01*
X0090606Y0072800D01*
X0090800Y0072800D01*
X0090800Y0080800D01*
X0091200Y0080800D01*
X0091200Y0081200D01*
X0096000Y0081200D01*
X0096000Y0084594D01*
X0095877Y0085371D01*
X0095672Y0086000D01*
X0096000Y0086000D01*
X0096000Y0071000D01*
X0106000Y0071000D01*
X0116000Y0081000D01*
X0173025Y0081000D01*
X0172896Y0080958D01*
X0172146Y0080576D01*
X0171465Y0080081D01*
X0170869Y0079485D01*
X0170374Y0078804D01*
X0169992Y0078054D01*
X0169732Y0077253D01*
X0169600Y0076421D01*
X0169600Y0076375D01*
X0178125Y0076375D01*
X0178125Y0075625D01*
X0178875Y0075625D01*
X0178875Y0070650D01*
X0182471Y0070650D01*
X0183303Y0070782D01*
X0184104Y0071042D01*
X0184854Y0071424D01*
X0185535Y0071919D01*
X0186000Y0072384D01*
X0186000Y0066000D01*
X0126000Y0066000D01*
X0121000Y0061000D01*
X0091000Y0061000D01*
X0086000Y0066000D01*
X0086000Y0086000D01*
X0086000Y0085721D02*
X0086237Y0085721D01*
X0086000Y0080926D02*
X0090800Y0080926D01*
X0091200Y0080926D02*
X0096000Y0080926D01*
X0096000Y0080800D02*
X0091200Y0080800D01*
X0091200Y0072800D01*
X0091394Y0072800D01*
X0092171Y0072923D01*
X0092919Y0073166D01*
X0093621Y0073524D01*
X0094257Y0073986D01*
X0094814Y0074543D01*
X0095276Y0075179D01*
X0095634Y0075881D01*
X0095877Y0076629D01*
X0096000Y0077406D01*
X0096000Y0080800D01*
X0096000Y0079327D02*
X0096000Y0079327D01*
X0096000Y0077729D02*
X0096000Y0077729D01*
X0096000Y0076130D02*
X0095715Y0076130D01*
X0096000Y0074532D02*
X0094803Y0074532D01*
X0096000Y0072933D02*
X0092201Y0072933D01*
X0091200Y0072933D02*
X0090800Y0072933D01*
X0089799Y0072933D02*
X0086000Y0072933D01*
X0086000Y0071334D02*
X0096000Y0071334D01*
X0091200Y0074532D02*
X0090800Y0074532D01*
X0090800Y0076130D02*
X0091200Y0076130D01*
X0091200Y0077729D02*
X0090800Y0077729D01*
X0090800Y0079327D02*
X0091200Y0079327D01*
X0096000Y0082524D02*
X0096000Y0082524D01*
X0096000Y0084123D02*
X0096000Y0084123D01*
X0096000Y0085721D02*
X0095763Y0085721D01*
X0086285Y0076130D02*
X0086000Y0076130D01*
X0086000Y0074532D02*
X0087197Y0074532D01*
X0086000Y0069736D02*
X0186000Y0069736D01*
X0186000Y0071334D02*
X0184678Y0071334D01*
X0186000Y0068137D02*
X0086000Y0068137D01*
X0086000Y0066539D02*
X0186000Y0066539D01*
X0178875Y0071334D02*
X0178125Y0071334D01*
X0178125Y0070650D02*
X0178125Y0075625D01*
X0169600Y0075625D01*
X0169600Y0075579D01*
X0169732Y0074747D01*
X0169992Y0073946D01*
X0170374Y0073196D01*
X0170869Y0072515D01*
X0171465Y0071919D01*
X0172146Y0071424D01*
X0172896Y0071042D01*
X0173697Y0070782D01*
X0174529Y0070650D01*
X0178125Y0070650D01*
X0178125Y0072933D02*
X0178875Y0072933D01*
X0178875Y0074532D02*
X0178125Y0074532D01*
X0178125Y0076130D02*
X0111130Y0076130D01*
X0109532Y0074532D02*
X0169802Y0074532D01*
X0170565Y0072933D02*
X0107933Y0072933D01*
X0106334Y0071334D02*
X0172322Y0071334D01*
X0169886Y0077729D02*
X0112729Y0077729D01*
X0114327Y0079327D02*
X0170754Y0079327D01*
X0172833Y0080926D02*
X0115926Y0080926D01*
X0126000Y0096000D02*
X0126000Y0096328D01*
X0126629Y0096123D01*
X0127406Y0096000D01*
X0130800Y0096000D01*
X0130800Y0100800D01*
X0131200Y0100800D01*
X0131200Y0101200D01*
X0130800Y0101200D01*
X0130800Y0106000D01*
X0127406Y0106000D01*
X0126629Y0105877D01*
X0126000Y0105672D01*
X0126000Y0106000D01*
X0186000Y0106000D01*
X0186000Y0099616D01*
X0185535Y0100081D01*
X0184854Y0100576D01*
X0184104Y0100958D01*
X0183303Y0101218D01*
X0182471Y0101350D01*
X0178875Y0101350D01*
X0178875Y0096375D01*
X0178125Y0096375D01*
X0178125Y0101350D01*
X0174529Y0101350D01*
X0173697Y0101218D01*
X0172896Y0100958D01*
X0172146Y0100576D01*
X0171465Y0100081D01*
X0170869Y0099485D01*
X0170374Y0098804D01*
X0169992Y0098054D01*
X0169732Y0097253D01*
X0169600Y0096421D01*
X0169600Y0096375D01*
X0178125Y0096375D01*
X0178125Y0095625D01*
X0178875Y0095625D01*
X0178875Y0090650D01*
X0182471Y0090650D01*
X0183303Y0090782D01*
X0184104Y0091042D01*
X0184854Y0091424D01*
X0185535Y0091919D01*
X0186000Y0092384D01*
X0186000Y0086000D01*
X0146000Y0086000D01*
X0141000Y0096000D01*
X0126000Y0096000D01*
X0130800Y0096911D02*
X0131200Y0096911D01*
X0131200Y0096000D02*
X0134594Y0096000D01*
X0135371Y0096123D01*
X0136119Y0096366D01*
X0136821Y0096724D01*
X0137457Y0097186D01*
X0138014Y0097743D01*
X0138476Y0098379D01*
X0138834Y0099081D01*
X0139077Y0099829D01*
X0139200Y0100606D01*
X0139200Y0100800D01*
X0131200Y0100800D01*
X0131200Y0096000D01*
X0131200Y0098509D02*
X0130800Y0098509D01*
X0130800Y0100108D02*
X0131200Y0100108D01*
X0131200Y0101200D02*
X0139200Y0101200D01*
X0139200Y0101394D01*
X0139077Y0102171D01*
X0138834Y0102919D01*
X0138476Y0103621D01*
X0138014Y0104257D01*
X0137457Y0104814D01*
X0136821Y0105276D01*
X0136119Y0105634D01*
X0135371Y0105877D01*
X0134594Y0106000D01*
X0131200Y0106000D01*
X0131200Y0101200D01*
X0131200Y0101706D02*
X0130800Y0101706D01*
X0130800Y0103305D02*
X0131200Y0103305D01*
X0131200Y0104903D02*
X0130800Y0104903D01*
X0137334Y0104903D02*
X0186000Y0104903D01*
X0186000Y0103305D02*
X0138637Y0103305D01*
X0139150Y0101706D02*
X0186000Y0101706D01*
X0186000Y0100108D02*
X0185498Y0100108D01*
X0178875Y0100108D02*
X0178125Y0100108D01*
X0178125Y0098509D02*
X0178875Y0098509D01*
X0178875Y0096911D02*
X0178125Y0096911D01*
X0178125Y0095625D02*
X0169600Y0095625D01*
X0169600Y0095579D01*
X0169732Y0094747D01*
X0169992Y0093946D01*
X0170374Y0093196D01*
X0170869Y0092515D01*
X0171465Y0091919D01*
X0172146Y0091424D01*
X0172896Y0091042D01*
X0173697Y0090782D01*
X0174529Y0090650D01*
X0178125Y0090650D01*
X0178125Y0095625D01*
X0178125Y0095312D02*
X0178875Y0095312D01*
X0178875Y0093714D02*
X0178125Y0093714D01*
X0178125Y0092115D02*
X0178875Y0092115D01*
X0185731Y0092115D02*
X0186000Y0092115D01*
X0186000Y0090517D02*
X0143742Y0090517D01*
X0142942Y0092115D02*
X0171269Y0092115D01*
X0170110Y0093714D02*
X0142143Y0093714D01*
X0141344Y0095312D02*
X0169642Y0095312D01*
X0169678Y0096911D02*
X0137078Y0096911D01*
X0138542Y0098509D02*
X0170224Y0098509D01*
X0171502Y0100108D02*
X0139121Y0100108D01*
X0144541Y0088918D02*
X0186000Y0088918D01*
X0186000Y0087320D02*
X0145340Y0087320D01*
X0124940Y0064940D02*
X0087060Y0064940D01*
X0088658Y0063342D02*
X0123342Y0063342D01*
X0121743Y0061743D02*
X0090257Y0061743D01*
X0086000Y0056000D02*
X0121000Y0056000D01*
X0126000Y0061000D01*
X0173025Y0061000D01*
X0172896Y0060958D01*
X0172146Y0060576D01*
X0171465Y0060081D01*
X0170869Y0059485D01*
X0170374Y0058804D01*
X0169992Y0058054D01*
X0169732Y0057253D01*
X0169600Y0056421D01*
X0169600Y0056375D01*
X0178125Y0056375D01*
X0178125Y0055625D01*
X0178875Y0055625D01*
X0178875Y0050650D01*
X0182471Y0050650D01*
X0183303Y0050782D01*
X0184104Y0051042D01*
X0184854Y0051424D01*
X0185535Y0051919D01*
X0186000Y0052384D01*
X0186000Y0046000D01*
X0136000Y0046000D01*
X0131000Y0041000D01*
X0096000Y0041000D01*
X0096000Y0026000D01*
X0095672Y0026000D01*
X0095877Y0026629D01*
X0096000Y0027406D01*
X0096000Y0030800D01*
X0091200Y0030800D01*
X0091200Y0031200D01*
X0096000Y0031200D01*
X0096000Y0034594D01*
X0095877Y0035371D01*
X0095634Y0036119D01*
X0095276Y0036821D01*
X0094814Y0037457D01*
X0094257Y0038014D01*
X0093621Y0038476D01*
X0092919Y0038834D01*
X0092171Y0039077D01*
X0091394Y0039200D01*
X0091200Y0039200D01*
X0091200Y0031200D01*
X0090800Y0031200D01*
X0090800Y0039200D01*
X0090606Y0039200D01*
X0089829Y0039077D01*
X0089081Y0038834D01*
X0088379Y0038476D01*
X0087743Y0038014D01*
X0087186Y0037457D01*
X0086724Y0036821D01*
X0086366Y0036119D01*
X0086123Y0035371D01*
X0086000Y0034594D01*
X0086000Y0031200D01*
X0090800Y0031200D01*
X0090800Y0030800D01*
X0086000Y0030800D01*
X0086000Y0027406D01*
X0086123Y0026629D01*
X0086328Y0026000D01*
X0086000Y0026000D01*
X0086000Y0056000D01*
X0086000Y0055349D02*
X0169636Y0055349D01*
X0169600Y0055579D02*
X0169732Y0054747D01*
X0169992Y0053946D01*
X0170374Y0053196D01*
X0170869Y0052515D01*
X0171465Y0051919D01*
X0172146Y0051424D01*
X0172896Y0051042D01*
X0173697Y0050782D01*
X0174529Y0050650D01*
X0178125Y0050650D01*
X0178125Y0055625D01*
X0169600Y0055625D01*
X0169600Y0055579D01*
X0169683Y0056948D02*
X0121948Y0056948D01*
X0123546Y0058546D02*
X0170243Y0058546D01*
X0171553Y0060145D02*
X0125145Y0060145D01*
X0135758Y0045758D02*
X0086000Y0045758D01*
X0086000Y0044160D02*
X0134160Y0044160D01*
X0132561Y0042561D02*
X0086000Y0042561D01*
X0086000Y0040963D02*
X0096000Y0040963D01*
X0096000Y0039364D02*
X0086000Y0039364D01*
X0086000Y0037766D02*
X0087495Y0037766D01*
X0086391Y0036167D02*
X0086000Y0036167D01*
X0090800Y0036167D02*
X0091200Y0036167D01*
X0091200Y0034569D02*
X0090800Y0034569D01*
X0090800Y0032970D02*
X0091200Y0032970D01*
X0091200Y0031372D02*
X0090800Y0031372D01*
X0096000Y0031372D02*
X0096000Y0031372D01*
X0096000Y0032970D02*
X0096000Y0032970D01*
X0096000Y0034569D02*
X0096000Y0034569D01*
X0096000Y0036167D02*
X0095609Y0036167D01*
X0096000Y0037766D02*
X0094505Y0037766D01*
X0091200Y0037766D02*
X0090800Y0037766D01*
X0096000Y0029773D02*
X0096000Y0029773D01*
X0096000Y0028175D02*
X0096000Y0028175D01*
X0096000Y0026576D02*
X0095860Y0026576D01*
X0086140Y0026576D02*
X0086000Y0026576D01*
X0086000Y0047357D02*
X0186000Y0047357D01*
X0186000Y0048955D02*
X0086000Y0048955D01*
X0086000Y0050554D02*
X0186000Y0050554D01*
X0186000Y0052152D02*
X0185768Y0052152D01*
X0178875Y0052152D02*
X0178125Y0052152D01*
X0178125Y0053751D02*
X0178875Y0053751D01*
X0178875Y0055349D02*
X0178125Y0055349D01*
X0171232Y0052152D02*
X0086000Y0052152D01*
X0086000Y0053751D02*
X0170092Y0053751D01*
X0141000Y0126000D02*
X0140672Y0126000D01*
X0140877Y0126629D01*
X0141000Y0127406D01*
X0141000Y0130800D01*
X0136200Y0130800D01*
X0136200Y0131200D01*
X0135800Y0131200D01*
X0135800Y0139200D01*
X0135606Y0139200D01*
X0134829Y0139077D01*
X0134081Y0138834D01*
X0133379Y0138476D01*
X0132743Y0138014D01*
X0132186Y0137457D01*
X0131724Y0136821D01*
X0131366Y0136119D01*
X0131123Y0135371D01*
X0131000Y0134594D01*
X0131000Y0131200D01*
X0135800Y0131200D01*
X0135800Y0130800D01*
X0131000Y0130800D01*
X0131000Y0127406D01*
X0131123Y0126629D01*
X0131328Y0126000D01*
X0131000Y0126000D01*
X0131000Y0151000D01*
X0156000Y0151000D01*
X0161000Y0156000D01*
X0186000Y0156000D01*
X0186000Y0149616D01*
X0185535Y0150081D01*
X0184854Y0150576D01*
X0184104Y0150958D01*
X0183303Y0151218D01*
X0182471Y0151350D01*
X0178875Y0151350D01*
X0178875Y0146375D01*
X0178125Y0146375D01*
X0178125Y0151350D01*
X0174529Y0151350D01*
X0173697Y0151218D01*
X0172896Y0150958D01*
X0172146Y0150576D01*
X0171465Y0150081D01*
X0170869Y0149485D01*
X0170374Y0148804D01*
X0169992Y0148054D01*
X0169732Y0147253D01*
X0169600Y0146421D01*
X0169600Y0146375D01*
X0178125Y0146375D01*
X0178125Y0145625D01*
X0178875Y0145625D01*
X0178875Y0140650D01*
X0182471Y0140650D01*
X0183303Y0140782D01*
X0184104Y0141042D01*
X0184854Y0141424D01*
X0185535Y0141919D01*
X0186000Y0142384D01*
X0186000Y0136000D01*
X0161000Y0136000D01*
X0156000Y0141000D01*
X0141000Y0141000D01*
X0141000Y0126000D01*
X0140980Y0127282D02*
X0141000Y0127282D01*
X0141000Y0128881D02*
X0141000Y0128881D01*
X0141000Y0130479D02*
X0141000Y0130479D01*
X0141000Y0131200D02*
X0141000Y0134594D01*
X0140877Y0135371D01*
X0140634Y0136119D01*
X0140276Y0136821D01*
X0139814Y0137457D01*
X0139257Y0138014D01*
X0138621Y0138476D01*
X0137919Y0138834D01*
X0137171Y0139077D01*
X0136394Y0139200D01*
X0136200Y0139200D01*
X0136200Y0131200D01*
X0141000Y0131200D01*
X0141000Y0132078D02*
X0141000Y0132078D01*
X0141000Y0133676D02*
X0141000Y0133676D01*
X0141000Y0135275D02*
X0140892Y0135275D01*
X0141000Y0136873D02*
X0140238Y0136873D01*
X0141000Y0138472D02*
X0138627Y0138472D01*
X0136200Y0138472D02*
X0135800Y0138472D01*
X0135800Y0136873D02*
X0136200Y0136873D01*
X0136200Y0135275D02*
X0135800Y0135275D01*
X0135800Y0133676D02*
X0136200Y0133676D01*
X0136200Y0132078D02*
X0135800Y0132078D01*
X0131108Y0135275D02*
X0131000Y0135275D01*
X0131000Y0136873D02*
X0131762Y0136873D01*
X0131000Y0138472D02*
X0133373Y0138472D01*
X0131000Y0140070D02*
X0141000Y0140070D01*
X0131000Y0141669D02*
X0171809Y0141669D01*
X0172146Y0141424D02*
X0171465Y0141919D01*
X0170869Y0142515D01*
X0170374Y0143196D01*
X0169992Y0143946D01*
X0169732Y0144747D01*
X0169600Y0145579D01*
X0169600Y0145625D01*
X0178125Y0145625D01*
X0178125Y0140650D01*
X0174529Y0140650D01*
X0173697Y0140782D01*
X0172896Y0141042D01*
X0172146Y0141424D01*
X0170338Y0143268D02*
X0131000Y0143268D01*
X0131000Y0144866D02*
X0169713Y0144866D01*
X0169607Y0146465D02*
X0131000Y0146465D01*
X0131000Y0148063D02*
X0169997Y0148063D01*
X0171046Y0149662D02*
X0131000Y0149662D01*
X0131000Y0156000D02*
X0131000Y0171000D01*
X0141000Y0181000D01*
X0176000Y0181000D01*
X0186000Y0171000D01*
X0186000Y0169616D01*
X0185535Y0170081D01*
X0184854Y0170576D01*
X0184104Y0170958D01*
X0183303Y0171218D01*
X0182471Y0171350D01*
X0178875Y0171350D01*
X0178875Y0166375D01*
X0178125Y0166375D01*
X0178125Y0171350D01*
X0174529Y0171350D01*
X0173697Y0171218D01*
X0172896Y0170958D01*
X0172146Y0170576D01*
X0171465Y0170081D01*
X0170869Y0169485D01*
X0170374Y0168804D01*
X0169992Y0168054D01*
X0169732Y0167253D01*
X0169600Y0166421D01*
X0169600Y0166375D01*
X0178125Y0166375D01*
X0178125Y0165625D01*
X0169600Y0165625D01*
X0169600Y0165579D01*
X0169732Y0164747D01*
X0169992Y0163946D01*
X0170374Y0163196D01*
X0170869Y0162515D01*
X0171465Y0161919D01*
X0172146Y0161424D01*
X0172896Y0161042D01*
X0173025Y0161000D01*
X0161000Y0161000D01*
X0161000Y0171000D01*
X0141000Y0171000D01*
X0141000Y0156000D01*
X0140672Y0156000D01*
X0140877Y0156629D01*
X0141000Y0157406D01*
X0141000Y0160800D01*
X0136200Y0160800D01*
X0136200Y0161200D01*
X0135800Y0161200D01*
X0135800Y0169200D01*
X0135606Y0169200D01*
X0134829Y0169077D01*
X0134081Y0168834D01*
X0133379Y0168476D01*
X0132743Y0168014D01*
X0132186Y0167457D01*
X0131724Y0166821D01*
X0131366Y0166119D01*
X0131123Y0165371D01*
X0131000Y0164594D01*
X0131000Y0161200D01*
X0135800Y0161200D01*
X0135800Y0160800D01*
X0131000Y0160800D01*
X0131000Y0157406D01*
X0131123Y0156629D01*
X0131328Y0156000D01*
X0131000Y0156000D01*
X0131000Y0156056D02*
X0131309Y0156056D01*
X0131000Y0160851D02*
X0135800Y0160851D01*
X0136200Y0160851D02*
X0141000Y0160851D01*
X0141000Y0161200D02*
X0141000Y0164594D01*
X0140877Y0165371D01*
X0140634Y0166119D01*
X0140276Y0166821D01*
X0139814Y0167457D01*
X0139257Y0168014D01*
X0138621Y0168476D01*
X0137919Y0168834D01*
X0137171Y0169077D01*
X0136394Y0169200D01*
X0136200Y0169200D01*
X0136200Y0161200D01*
X0141000Y0161200D01*
X0141000Y0162450D02*
X0141000Y0162450D01*
X0141000Y0164048D02*
X0141000Y0164048D01*
X0141000Y0165647D02*
X0140787Y0165647D01*
X0141000Y0167245D02*
X0139968Y0167245D01*
X0141000Y0168844D02*
X0137889Y0168844D01*
X0136200Y0168844D02*
X0135800Y0168844D01*
X0135800Y0167245D02*
X0136200Y0167245D01*
X0136200Y0165647D02*
X0135800Y0165647D01*
X0135800Y0164048D02*
X0136200Y0164048D01*
X0136200Y0162450D02*
X0135800Y0162450D01*
X0131213Y0165647D02*
X0131000Y0165647D01*
X0131000Y0167245D02*
X0132032Y0167245D01*
X0131000Y0168844D02*
X0134111Y0168844D01*
X0131000Y0170442D02*
X0141000Y0170442D01*
X0135238Y0175238D02*
X0181762Y0175238D01*
X0180164Y0176836D02*
X0136836Y0176836D01*
X0138435Y0178435D02*
X0178565Y0178435D01*
X0176967Y0180033D02*
X0140033Y0180033D01*
X0133639Y0173639D02*
X0183361Y0173639D01*
X0184959Y0172041D02*
X0132041Y0172041D01*
X0141000Y0159253D02*
X0141000Y0159253D01*
X0141000Y0157654D02*
X0141000Y0157654D01*
X0141000Y0156056D02*
X0140691Y0156056D01*
X0156260Y0151260D02*
X0173961Y0151260D01*
X0178125Y0151260D02*
X0178875Y0151260D01*
X0178875Y0149662D02*
X0178125Y0149662D01*
X0178125Y0148063D02*
X0178875Y0148063D01*
X0178875Y0146465D02*
X0178125Y0146465D01*
X0178125Y0144866D02*
X0178875Y0144866D01*
X0178875Y0143268D02*
X0178125Y0143268D01*
X0178125Y0141669D02*
X0178875Y0141669D01*
X0185191Y0141669D02*
X0186000Y0141669D01*
X0186000Y0140070D02*
X0156930Y0140070D01*
X0158528Y0138472D02*
X0186000Y0138472D01*
X0186000Y0136873D02*
X0160127Y0136873D01*
X0157859Y0152859D02*
X0186000Y0152859D01*
X0186000Y0154457D02*
X0159457Y0154457D01*
X0161000Y0162450D02*
X0170934Y0162450D01*
X0169959Y0164048D02*
X0161000Y0164048D01*
X0161000Y0165647D02*
X0178125Y0165647D01*
X0178125Y0167245D02*
X0178875Y0167245D01*
X0178875Y0168844D02*
X0178125Y0168844D01*
X0178125Y0170442D02*
X0178875Y0170442D01*
X0185038Y0170442D02*
X0186000Y0170442D01*
X0171962Y0170442D02*
X0161000Y0170442D01*
X0161000Y0168844D02*
X0170403Y0168844D01*
X0169731Y0167245D02*
X0161000Y0167245D01*
X0183039Y0151260D02*
X0186000Y0151260D01*
X0185954Y0149662D02*
X0186000Y0149662D01*
X0131020Y0127282D02*
X0131000Y0127282D01*
D23*
X0081000Y0081000D02*
X0076000Y0081000D01*
X0069346Y0081000D01*
X0041000Y0113874D02*
X0026126Y0113874D01*
X0014000Y0126000D01*
X0011000Y0146000D02*
X0011000Y0148598D01*
X0079346Y0046000D02*
X0081000Y0046000D01*
X0081000Y0031000D01*
M02*
