G75*
%MOIN*%
%OFA0B0*%
%FSLAX25Y25*%
%IPPOS*%
%LPD*%
%AMOC8*
5,1,8,0,0,1.08239X$1,22.5*
%
%ADD10C,0.00000*%
%ADD11C,0.00400*%
%ADD12C,0.00500*%
D10*
X0001500Y0001500D02*
X0001500Y0200201D01*
X0196421Y0200201D01*
X0196421Y0001500D01*
X0001500Y0001500D01*
X0005201Y0011500D02*
X0005203Y0011658D01*
X0005209Y0011816D01*
X0005219Y0011974D01*
X0005233Y0012132D01*
X0005251Y0012289D01*
X0005272Y0012446D01*
X0005298Y0012602D01*
X0005328Y0012758D01*
X0005361Y0012913D01*
X0005399Y0013066D01*
X0005440Y0013219D01*
X0005485Y0013371D01*
X0005534Y0013522D01*
X0005587Y0013671D01*
X0005643Y0013819D01*
X0005703Y0013965D01*
X0005767Y0014110D01*
X0005835Y0014253D01*
X0005906Y0014395D01*
X0005980Y0014535D01*
X0006058Y0014672D01*
X0006140Y0014808D01*
X0006224Y0014942D01*
X0006313Y0015073D01*
X0006404Y0015202D01*
X0006499Y0015329D01*
X0006596Y0015454D01*
X0006697Y0015576D01*
X0006801Y0015695D01*
X0006908Y0015812D01*
X0007018Y0015926D01*
X0007131Y0016037D01*
X0007246Y0016146D01*
X0007364Y0016251D01*
X0007485Y0016353D01*
X0007608Y0016453D01*
X0007734Y0016549D01*
X0007862Y0016642D01*
X0007992Y0016732D01*
X0008125Y0016818D01*
X0008260Y0016902D01*
X0008396Y0016981D01*
X0008535Y0017058D01*
X0008676Y0017130D01*
X0008818Y0017200D01*
X0008962Y0017265D01*
X0009108Y0017327D01*
X0009255Y0017385D01*
X0009404Y0017440D01*
X0009554Y0017491D01*
X0009705Y0017538D01*
X0009857Y0017581D01*
X0010010Y0017620D01*
X0010165Y0017656D01*
X0010320Y0017687D01*
X0010476Y0017715D01*
X0010632Y0017739D01*
X0010789Y0017759D01*
X0010947Y0017775D01*
X0011104Y0017787D01*
X0011263Y0017795D01*
X0011421Y0017799D01*
X0011579Y0017799D01*
X0011737Y0017795D01*
X0011896Y0017787D01*
X0012053Y0017775D01*
X0012211Y0017759D01*
X0012368Y0017739D01*
X0012524Y0017715D01*
X0012680Y0017687D01*
X0012835Y0017656D01*
X0012990Y0017620D01*
X0013143Y0017581D01*
X0013295Y0017538D01*
X0013446Y0017491D01*
X0013596Y0017440D01*
X0013745Y0017385D01*
X0013892Y0017327D01*
X0014038Y0017265D01*
X0014182Y0017200D01*
X0014324Y0017130D01*
X0014465Y0017058D01*
X0014604Y0016981D01*
X0014740Y0016902D01*
X0014875Y0016818D01*
X0015008Y0016732D01*
X0015138Y0016642D01*
X0015266Y0016549D01*
X0015392Y0016453D01*
X0015515Y0016353D01*
X0015636Y0016251D01*
X0015754Y0016146D01*
X0015869Y0016037D01*
X0015982Y0015926D01*
X0016092Y0015812D01*
X0016199Y0015695D01*
X0016303Y0015576D01*
X0016404Y0015454D01*
X0016501Y0015329D01*
X0016596Y0015202D01*
X0016687Y0015073D01*
X0016776Y0014942D01*
X0016860Y0014808D01*
X0016942Y0014672D01*
X0017020Y0014535D01*
X0017094Y0014395D01*
X0017165Y0014253D01*
X0017233Y0014110D01*
X0017297Y0013965D01*
X0017357Y0013819D01*
X0017413Y0013671D01*
X0017466Y0013522D01*
X0017515Y0013371D01*
X0017560Y0013219D01*
X0017601Y0013066D01*
X0017639Y0012913D01*
X0017672Y0012758D01*
X0017702Y0012602D01*
X0017728Y0012446D01*
X0017749Y0012289D01*
X0017767Y0012132D01*
X0017781Y0011974D01*
X0017791Y0011816D01*
X0017797Y0011658D01*
X0017799Y0011500D01*
X0017797Y0011342D01*
X0017791Y0011184D01*
X0017781Y0011026D01*
X0017767Y0010868D01*
X0017749Y0010711D01*
X0017728Y0010554D01*
X0017702Y0010398D01*
X0017672Y0010242D01*
X0017639Y0010087D01*
X0017601Y0009934D01*
X0017560Y0009781D01*
X0017515Y0009629D01*
X0017466Y0009478D01*
X0017413Y0009329D01*
X0017357Y0009181D01*
X0017297Y0009035D01*
X0017233Y0008890D01*
X0017165Y0008747D01*
X0017094Y0008605D01*
X0017020Y0008465D01*
X0016942Y0008328D01*
X0016860Y0008192D01*
X0016776Y0008058D01*
X0016687Y0007927D01*
X0016596Y0007798D01*
X0016501Y0007671D01*
X0016404Y0007546D01*
X0016303Y0007424D01*
X0016199Y0007305D01*
X0016092Y0007188D01*
X0015982Y0007074D01*
X0015869Y0006963D01*
X0015754Y0006854D01*
X0015636Y0006749D01*
X0015515Y0006647D01*
X0015392Y0006547D01*
X0015266Y0006451D01*
X0015138Y0006358D01*
X0015008Y0006268D01*
X0014875Y0006182D01*
X0014740Y0006098D01*
X0014604Y0006019D01*
X0014465Y0005942D01*
X0014324Y0005870D01*
X0014182Y0005800D01*
X0014038Y0005735D01*
X0013892Y0005673D01*
X0013745Y0005615D01*
X0013596Y0005560D01*
X0013446Y0005509D01*
X0013295Y0005462D01*
X0013143Y0005419D01*
X0012990Y0005380D01*
X0012835Y0005344D01*
X0012680Y0005313D01*
X0012524Y0005285D01*
X0012368Y0005261D01*
X0012211Y0005241D01*
X0012053Y0005225D01*
X0011896Y0005213D01*
X0011737Y0005205D01*
X0011579Y0005201D01*
X0011421Y0005201D01*
X0011263Y0005205D01*
X0011104Y0005213D01*
X0010947Y0005225D01*
X0010789Y0005241D01*
X0010632Y0005261D01*
X0010476Y0005285D01*
X0010320Y0005313D01*
X0010165Y0005344D01*
X0010010Y0005380D01*
X0009857Y0005419D01*
X0009705Y0005462D01*
X0009554Y0005509D01*
X0009404Y0005560D01*
X0009255Y0005615D01*
X0009108Y0005673D01*
X0008962Y0005735D01*
X0008818Y0005800D01*
X0008676Y0005870D01*
X0008535Y0005942D01*
X0008396Y0006019D01*
X0008260Y0006098D01*
X0008125Y0006182D01*
X0007992Y0006268D01*
X0007862Y0006358D01*
X0007734Y0006451D01*
X0007608Y0006547D01*
X0007485Y0006647D01*
X0007364Y0006749D01*
X0007246Y0006854D01*
X0007131Y0006963D01*
X0007018Y0007074D01*
X0006908Y0007188D01*
X0006801Y0007305D01*
X0006697Y0007424D01*
X0006596Y0007546D01*
X0006499Y0007671D01*
X0006404Y0007798D01*
X0006313Y0007927D01*
X0006224Y0008058D01*
X0006140Y0008192D01*
X0006058Y0008328D01*
X0005980Y0008465D01*
X0005906Y0008605D01*
X0005835Y0008747D01*
X0005767Y0008890D01*
X0005703Y0009035D01*
X0005643Y0009181D01*
X0005587Y0009329D01*
X0005534Y0009478D01*
X0005485Y0009629D01*
X0005440Y0009781D01*
X0005399Y0009934D01*
X0005361Y0010087D01*
X0005328Y0010242D01*
X0005298Y0010398D01*
X0005272Y0010554D01*
X0005251Y0010711D01*
X0005233Y0010868D01*
X0005219Y0011026D01*
X0005209Y0011184D01*
X0005203Y0011342D01*
X0005201Y0011500D01*
X0005201Y0191500D02*
X0005203Y0191658D01*
X0005209Y0191816D01*
X0005219Y0191974D01*
X0005233Y0192132D01*
X0005251Y0192289D01*
X0005272Y0192446D01*
X0005298Y0192602D01*
X0005328Y0192758D01*
X0005361Y0192913D01*
X0005399Y0193066D01*
X0005440Y0193219D01*
X0005485Y0193371D01*
X0005534Y0193522D01*
X0005587Y0193671D01*
X0005643Y0193819D01*
X0005703Y0193965D01*
X0005767Y0194110D01*
X0005835Y0194253D01*
X0005906Y0194395D01*
X0005980Y0194535D01*
X0006058Y0194672D01*
X0006140Y0194808D01*
X0006224Y0194942D01*
X0006313Y0195073D01*
X0006404Y0195202D01*
X0006499Y0195329D01*
X0006596Y0195454D01*
X0006697Y0195576D01*
X0006801Y0195695D01*
X0006908Y0195812D01*
X0007018Y0195926D01*
X0007131Y0196037D01*
X0007246Y0196146D01*
X0007364Y0196251D01*
X0007485Y0196353D01*
X0007608Y0196453D01*
X0007734Y0196549D01*
X0007862Y0196642D01*
X0007992Y0196732D01*
X0008125Y0196818D01*
X0008260Y0196902D01*
X0008396Y0196981D01*
X0008535Y0197058D01*
X0008676Y0197130D01*
X0008818Y0197200D01*
X0008962Y0197265D01*
X0009108Y0197327D01*
X0009255Y0197385D01*
X0009404Y0197440D01*
X0009554Y0197491D01*
X0009705Y0197538D01*
X0009857Y0197581D01*
X0010010Y0197620D01*
X0010165Y0197656D01*
X0010320Y0197687D01*
X0010476Y0197715D01*
X0010632Y0197739D01*
X0010789Y0197759D01*
X0010947Y0197775D01*
X0011104Y0197787D01*
X0011263Y0197795D01*
X0011421Y0197799D01*
X0011579Y0197799D01*
X0011737Y0197795D01*
X0011896Y0197787D01*
X0012053Y0197775D01*
X0012211Y0197759D01*
X0012368Y0197739D01*
X0012524Y0197715D01*
X0012680Y0197687D01*
X0012835Y0197656D01*
X0012990Y0197620D01*
X0013143Y0197581D01*
X0013295Y0197538D01*
X0013446Y0197491D01*
X0013596Y0197440D01*
X0013745Y0197385D01*
X0013892Y0197327D01*
X0014038Y0197265D01*
X0014182Y0197200D01*
X0014324Y0197130D01*
X0014465Y0197058D01*
X0014604Y0196981D01*
X0014740Y0196902D01*
X0014875Y0196818D01*
X0015008Y0196732D01*
X0015138Y0196642D01*
X0015266Y0196549D01*
X0015392Y0196453D01*
X0015515Y0196353D01*
X0015636Y0196251D01*
X0015754Y0196146D01*
X0015869Y0196037D01*
X0015982Y0195926D01*
X0016092Y0195812D01*
X0016199Y0195695D01*
X0016303Y0195576D01*
X0016404Y0195454D01*
X0016501Y0195329D01*
X0016596Y0195202D01*
X0016687Y0195073D01*
X0016776Y0194942D01*
X0016860Y0194808D01*
X0016942Y0194672D01*
X0017020Y0194535D01*
X0017094Y0194395D01*
X0017165Y0194253D01*
X0017233Y0194110D01*
X0017297Y0193965D01*
X0017357Y0193819D01*
X0017413Y0193671D01*
X0017466Y0193522D01*
X0017515Y0193371D01*
X0017560Y0193219D01*
X0017601Y0193066D01*
X0017639Y0192913D01*
X0017672Y0192758D01*
X0017702Y0192602D01*
X0017728Y0192446D01*
X0017749Y0192289D01*
X0017767Y0192132D01*
X0017781Y0191974D01*
X0017791Y0191816D01*
X0017797Y0191658D01*
X0017799Y0191500D01*
X0017797Y0191342D01*
X0017791Y0191184D01*
X0017781Y0191026D01*
X0017767Y0190868D01*
X0017749Y0190711D01*
X0017728Y0190554D01*
X0017702Y0190398D01*
X0017672Y0190242D01*
X0017639Y0190087D01*
X0017601Y0189934D01*
X0017560Y0189781D01*
X0017515Y0189629D01*
X0017466Y0189478D01*
X0017413Y0189329D01*
X0017357Y0189181D01*
X0017297Y0189035D01*
X0017233Y0188890D01*
X0017165Y0188747D01*
X0017094Y0188605D01*
X0017020Y0188465D01*
X0016942Y0188328D01*
X0016860Y0188192D01*
X0016776Y0188058D01*
X0016687Y0187927D01*
X0016596Y0187798D01*
X0016501Y0187671D01*
X0016404Y0187546D01*
X0016303Y0187424D01*
X0016199Y0187305D01*
X0016092Y0187188D01*
X0015982Y0187074D01*
X0015869Y0186963D01*
X0015754Y0186854D01*
X0015636Y0186749D01*
X0015515Y0186647D01*
X0015392Y0186547D01*
X0015266Y0186451D01*
X0015138Y0186358D01*
X0015008Y0186268D01*
X0014875Y0186182D01*
X0014740Y0186098D01*
X0014604Y0186019D01*
X0014465Y0185942D01*
X0014324Y0185870D01*
X0014182Y0185800D01*
X0014038Y0185735D01*
X0013892Y0185673D01*
X0013745Y0185615D01*
X0013596Y0185560D01*
X0013446Y0185509D01*
X0013295Y0185462D01*
X0013143Y0185419D01*
X0012990Y0185380D01*
X0012835Y0185344D01*
X0012680Y0185313D01*
X0012524Y0185285D01*
X0012368Y0185261D01*
X0012211Y0185241D01*
X0012053Y0185225D01*
X0011896Y0185213D01*
X0011737Y0185205D01*
X0011579Y0185201D01*
X0011421Y0185201D01*
X0011263Y0185205D01*
X0011104Y0185213D01*
X0010947Y0185225D01*
X0010789Y0185241D01*
X0010632Y0185261D01*
X0010476Y0185285D01*
X0010320Y0185313D01*
X0010165Y0185344D01*
X0010010Y0185380D01*
X0009857Y0185419D01*
X0009705Y0185462D01*
X0009554Y0185509D01*
X0009404Y0185560D01*
X0009255Y0185615D01*
X0009108Y0185673D01*
X0008962Y0185735D01*
X0008818Y0185800D01*
X0008676Y0185870D01*
X0008535Y0185942D01*
X0008396Y0186019D01*
X0008260Y0186098D01*
X0008125Y0186182D01*
X0007992Y0186268D01*
X0007862Y0186358D01*
X0007734Y0186451D01*
X0007608Y0186547D01*
X0007485Y0186647D01*
X0007364Y0186749D01*
X0007246Y0186854D01*
X0007131Y0186963D01*
X0007018Y0187074D01*
X0006908Y0187188D01*
X0006801Y0187305D01*
X0006697Y0187424D01*
X0006596Y0187546D01*
X0006499Y0187671D01*
X0006404Y0187798D01*
X0006313Y0187927D01*
X0006224Y0188058D01*
X0006140Y0188192D01*
X0006058Y0188328D01*
X0005980Y0188465D01*
X0005906Y0188605D01*
X0005835Y0188747D01*
X0005767Y0188890D01*
X0005703Y0189035D01*
X0005643Y0189181D01*
X0005587Y0189329D01*
X0005534Y0189478D01*
X0005485Y0189629D01*
X0005440Y0189781D01*
X0005399Y0189934D01*
X0005361Y0190087D01*
X0005328Y0190242D01*
X0005298Y0190398D01*
X0005272Y0190554D01*
X0005251Y0190711D01*
X0005233Y0190868D01*
X0005219Y0191026D01*
X0005209Y0191184D01*
X0005203Y0191342D01*
X0005201Y0191500D01*
X0180201Y0191500D02*
X0180203Y0191658D01*
X0180209Y0191816D01*
X0180219Y0191974D01*
X0180233Y0192132D01*
X0180251Y0192289D01*
X0180272Y0192446D01*
X0180298Y0192602D01*
X0180328Y0192758D01*
X0180361Y0192913D01*
X0180399Y0193066D01*
X0180440Y0193219D01*
X0180485Y0193371D01*
X0180534Y0193522D01*
X0180587Y0193671D01*
X0180643Y0193819D01*
X0180703Y0193965D01*
X0180767Y0194110D01*
X0180835Y0194253D01*
X0180906Y0194395D01*
X0180980Y0194535D01*
X0181058Y0194672D01*
X0181140Y0194808D01*
X0181224Y0194942D01*
X0181313Y0195073D01*
X0181404Y0195202D01*
X0181499Y0195329D01*
X0181596Y0195454D01*
X0181697Y0195576D01*
X0181801Y0195695D01*
X0181908Y0195812D01*
X0182018Y0195926D01*
X0182131Y0196037D01*
X0182246Y0196146D01*
X0182364Y0196251D01*
X0182485Y0196353D01*
X0182608Y0196453D01*
X0182734Y0196549D01*
X0182862Y0196642D01*
X0182992Y0196732D01*
X0183125Y0196818D01*
X0183260Y0196902D01*
X0183396Y0196981D01*
X0183535Y0197058D01*
X0183676Y0197130D01*
X0183818Y0197200D01*
X0183962Y0197265D01*
X0184108Y0197327D01*
X0184255Y0197385D01*
X0184404Y0197440D01*
X0184554Y0197491D01*
X0184705Y0197538D01*
X0184857Y0197581D01*
X0185010Y0197620D01*
X0185165Y0197656D01*
X0185320Y0197687D01*
X0185476Y0197715D01*
X0185632Y0197739D01*
X0185789Y0197759D01*
X0185947Y0197775D01*
X0186104Y0197787D01*
X0186263Y0197795D01*
X0186421Y0197799D01*
X0186579Y0197799D01*
X0186737Y0197795D01*
X0186896Y0197787D01*
X0187053Y0197775D01*
X0187211Y0197759D01*
X0187368Y0197739D01*
X0187524Y0197715D01*
X0187680Y0197687D01*
X0187835Y0197656D01*
X0187990Y0197620D01*
X0188143Y0197581D01*
X0188295Y0197538D01*
X0188446Y0197491D01*
X0188596Y0197440D01*
X0188745Y0197385D01*
X0188892Y0197327D01*
X0189038Y0197265D01*
X0189182Y0197200D01*
X0189324Y0197130D01*
X0189465Y0197058D01*
X0189604Y0196981D01*
X0189740Y0196902D01*
X0189875Y0196818D01*
X0190008Y0196732D01*
X0190138Y0196642D01*
X0190266Y0196549D01*
X0190392Y0196453D01*
X0190515Y0196353D01*
X0190636Y0196251D01*
X0190754Y0196146D01*
X0190869Y0196037D01*
X0190982Y0195926D01*
X0191092Y0195812D01*
X0191199Y0195695D01*
X0191303Y0195576D01*
X0191404Y0195454D01*
X0191501Y0195329D01*
X0191596Y0195202D01*
X0191687Y0195073D01*
X0191776Y0194942D01*
X0191860Y0194808D01*
X0191942Y0194672D01*
X0192020Y0194535D01*
X0192094Y0194395D01*
X0192165Y0194253D01*
X0192233Y0194110D01*
X0192297Y0193965D01*
X0192357Y0193819D01*
X0192413Y0193671D01*
X0192466Y0193522D01*
X0192515Y0193371D01*
X0192560Y0193219D01*
X0192601Y0193066D01*
X0192639Y0192913D01*
X0192672Y0192758D01*
X0192702Y0192602D01*
X0192728Y0192446D01*
X0192749Y0192289D01*
X0192767Y0192132D01*
X0192781Y0191974D01*
X0192791Y0191816D01*
X0192797Y0191658D01*
X0192799Y0191500D01*
X0192797Y0191342D01*
X0192791Y0191184D01*
X0192781Y0191026D01*
X0192767Y0190868D01*
X0192749Y0190711D01*
X0192728Y0190554D01*
X0192702Y0190398D01*
X0192672Y0190242D01*
X0192639Y0190087D01*
X0192601Y0189934D01*
X0192560Y0189781D01*
X0192515Y0189629D01*
X0192466Y0189478D01*
X0192413Y0189329D01*
X0192357Y0189181D01*
X0192297Y0189035D01*
X0192233Y0188890D01*
X0192165Y0188747D01*
X0192094Y0188605D01*
X0192020Y0188465D01*
X0191942Y0188328D01*
X0191860Y0188192D01*
X0191776Y0188058D01*
X0191687Y0187927D01*
X0191596Y0187798D01*
X0191501Y0187671D01*
X0191404Y0187546D01*
X0191303Y0187424D01*
X0191199Y0187305D01*
X0191092Y0187188D01*
X0190982Y0187074D01*
X0190869Y0186963D01*
X0190754Y0186854D01*
X0190636Y0186749D01*
X0190515Y0186647D01*
X0190392Y0186547D01*
X0190266Y0186451D01*
X0190138Y0186358D01*
X0190008Y0186268D01*
X0189875Y0186182D01*
X0189740Y0186098D01*
X0189604Y0186019D01*
X0189465Y0185942D01*
X0189324Y0185870D01*
X0189182Y0185800D01*
X0189038Y0185735D01*
X0188892Y0185673D01*
X0188745Y0185615D01*
X0188596Y0185560D01*
X0188446Y0185509D01*
X0188295Y0185462D01*
X0188143Y0185419D01*
X0187990Y0185380D01*
X0187835Y0185344D01*
X0187680Y0185313D01*
X0187524Y0185285D01*
X0187368Y0185261D01*
X0187211Y0185241D01*
X0187053Y0185225D01*
X0186896Y0185213D01*
X0186737Y0185205D01*
X0186579Y0185201D01*
X0186421Y0185201D01*
X0186263Y0185205D01*
X0186104Y0185213D01*
X0185947Y0185225D01*
X0185789Y0185241D01*
X0185632Y0185261D01*
X0185476Y0185285D01*
X0185320Y0185313D01*
X0185165Y0185344D01*
X0185010Y0185380D01*
X0184857Y0185419D01*
X0184705Y0185462D01*
X0184554Y0185509D01*
X0184404Y0185560D01*
X0184255Y0185615D01*
X0184108Y0185673D01*
X0183962Y0185735D01*
X0183818Y0185800D01*
X0183676Y0185870D01*
X0183535Y0185942D01*
X0183396Y0186019D01*
X0183260Y0186098D01*
X0183125Y0186182D01*
X0182992Y0186268D01*
X0182862Y0186358D01*
X0182734Y0186451D01*
X0182608Y0186547D01*
X0182485Y0186647D01*
X0182364Y0186749D01*
X0182246Y0186854D01*
X0182131Y0186963D01*
X0182018Y0187074D01*
X0181908Y0187188D01*
X0181801Y0187305D01*
X0181697Y0187424D01*
X0181596Y0187546D01*
X0181499Y0187671D01*
X0181404Y0187798D01*
X0181313Y0187927D01*
X0181224Y0188058D01*
X0181140Y0188192D01*
X0181058Y0188328D01*
X0180980Y0188465D01*
X0180906Y0188605D01*
X0180835Y0188747D01*
X0180767Y0188890D01*
X0180703Y0189035D01*
X0180643Y0189181D01*
X0180587Y0189329D01*
X0180534Y0189478D01*
X0180485Y0189629D01*
X0180440Y0189781D01*
X0180399Y0189934D01*
X0180361Y0190087D01*
X0180328Y0190242D01*
X0180298Y0190398D01*
X0180272Y0190554D01*
X0180251Y0190711D01*
X0180233Y0190868D01*
X0180219Y0191026D01*
X0180209Y0191184D01*
X0180203Y0191342D01*
X0180201Y0191500D01*
X0180201Y0011500D02*
X0180203Y0011658D01*
X0180209Y0011816D01*
X0180219Y0011974D01*
X0180233Y0012132D01*
X0180251Y0012289D01*
X0180272Y0012446D01*
X0180298Y0012602D01*
X0180328Y0012758D01*
X0180361Y0012913D01*
X0180399Y0013066D01*
X0180440Y0013219D01*
X0180485Y0013371D01*
X0180534Y0013522D01*
X0180587Y0013671D01*
X0180643Y0013819D01*
X0180703Y0013965D01*
X0180767Y0014110D01*
X0180835Y0014253D01*
X0180906Y0014395D01*
X0180980Y0014535D01*
X0181058Y0014672D01*
X0181140Y0014808D01*
X0181224Y0014942D01*
X0181313Y0015073D01*
X0181404Y0015202D01*
X0181499Y0015329D01*
X0181596Y0015454D01*
X0181697Y0015576D01*
X0181801Y0015695D01*
X0181908Y0015812D01*
X0182018Y0015926D01*
X0182131Y0016037D01*
X0182246Y0016146D01*
X0182364Y0016251D01*
X0182485Y0016353D01*
X0182608Y0016453D01*
X0182734Y0016549D01*
X0182862Y0016642D01*
X0182992Y0016732D01*
X0183125Y0016818D01*
X0183260Y0016902D01*
X0183396Y0016981D01*
X0183535Y0017058D01*
X0183676Y0017130D01*
X0183818Y0017200D01*
X0183962Y0017265D01*
X0184108Y0017327D01*
X0184255Y0017385D01*
X0184404Y0017440D01*
X0184554Y0017491D01*
X0184705Y0017538D01*
X0184857Y0017581D01*
X0185010Y0017620D01*
X0185165Y0017656D01*
X0185320Y0017687D01*
X0185476Y0017715D01*
X0185632Y0017739D01*
X0185789Y0017759D01*
X0185947Y0017775D01*
X0186104Y0017787D01*
X0186263Y0017795D01*
X0186421Y0017799D01*
X0186579Y0017799D01*
X0186737Y0017795D01*
X0186896Y0017787D01*
X0187053Y0017775D01*
X0187211Y0017759D01*
X0187368Y0017739D01*
X0187524Y0017715D01*
X0187680Y0017687D01*
X0187835Y0017656D01*
X0187990Y0017620D01*
X0188143Y0017581D01*
X0188295Y0017538D01*
X0188446Y0017491D01*
X0188596Y0017440D01*
X0188745Y0017385D01*
X0188892Y0017327D01*
X0189038Y0017265D01*
X0189182Y0017200D01*
X0189324Y0017130D01*
X0189465Y0017058D01*
X0189604Y0016981D01*
X0189740Y0016902D01*
X0189875Y0016818D01*
X0190008Y0016732D01*
X0190138Y0016642D01*
X0190266Y0016549D01*
X0190392Y0016453D01*
X0190515Y0016353D01*
X0190636Y0016251D01*
X0190754Y0016146D01*
X0190869Y0016037D01*
X0190982Y0015926D01*
X0191092Y0015812D01*
X0191199Y0015695D01*
X0191303Y0015576D01*
X0191404Y0015454D01*
X0191501Y0015329D01*
X0191596Y0015202D01*
X0191687Y0015073D01*
X0191776Y0014942D01*
X0191860Y0014808D01*
X0191942Y0014672D01*
X0192020Y0014535D01*
X0192094Y0014395D01*
X0192165Y0014253D01*
X0192233Y0014110D01*
X0192297Y0013965D01*
X0192357Y0013819D01*
X0192413Y0013671D01*
X0192466Y0013522D01*
X0192515Y0013371D01*
X0192560Y0013219D01*
X0192601Y0013066D01*
X0192639Y0012913D01*
X0192672Y0012758D01*
X0192702Y0012602D01*
X0192728Y0012446D01*
X0192749Y0012289D01*
X0192767Y0012132D01*
X0192781Y0011974D01*
X0192791Y0011816D01*
X0192797Y0011658D01*
X0192799Y0011500D01*
X0192797Y0011342D01*
X0192791Y0011184D01*
X0192781Y0011026D01*
X0192767Y0010868D01*
X0192749Y0010711D01*
X0192728Y0010554D01*
X0192702Y0010398D01*
X0192672Y0010242D01*
X0192639Y0010087D01*
X0192601Y0009934D01*
X0192560Y0009781D01*
X0192515Y0009629D01*
X0192466Y0009478D01*
X0192413Y0009329D01*
X0192357Y0009181D01*
X0192297Y0009035D01*
X0192233Y0008890D01*
X0192165Y0008747D01*
X0192094Y0008605D01*
X0192020Y0008465D01*
X0191942Y0008328D01*
X0191860Y0008192D01*
X0191776Y0008058D01*
X0191687Y0007927D01*
X0191596Y0007798D01*
X0191501Y0007671D01*
X0191404Y0007546D01*
X0191303Y0007424D01*
X0191199Y0007305D01*
X0191092Y0007188D01*
X0190982Y0007074D01*
X0190869Y0006963D01*
X0190754Y0006854D01*
X0190636Y0006749D01*
X0190515Y0006647D01*
X0190392Y0006547D01*
X0190266Y0006451D01*
X0190138Y0006358D01*
X0190008Y0006268D01*
X0189875Y0006182D01*
X0189740Y0006098D01*
X0189604Y0006019D01*
X0189465Y0005942D01*
X0189324Y0005870D01*
X0189182Y0005800D01*
X0189038Y0005735D01*
X0188892Y0005673D01*
X0188745Y0005615D01*
X0188596Y0005560D01*
X0188446Y0005509D01*
X0188295Y0005462D01*
X0188143Y0005419D01*
X0187990Y0005380D01*
X0187835Y0005344D01*
X0187680Y0005313D01*
X0187524Y0005285D01*
X0187368Y0005261D01*
X0187211Y0005241D01*
X0187053Y0005225D01*
X0186896Y0005213D01*
X0186737Y0005205D01*
X0186579Y0005201D01*
X0186421Y0005201D01*
X0186263Y0005205D01*
X0186104Y0005213D01*
X0185947Y0005225D01*
X0185789Y0005241D01*
X0185632Y0005261D01*
X0185476Y0005285D01*
X0185320Y0005313D01*
X0185165Y0005344D01*
X0185010Y0005380D01*
X0184857Y0005419D01*
X0184705Y0005462D01*
X0184554Y0005509D01*
X0184404Y0005560D01*
X0184255Y0005615D01*
X0184108Y0005673D01*
X0183962Y0005735D01*
X0183818Y0005800D01*
X0183676Y0005870D01*
X0183535Y0005942D01*
X0183396Y0006019D01*
X0183260Y0006098D01*
X0183125Y0006182D01*
X0182992Y0006268D01*
X0182862Y0006358D01*
X0182734Y0006451D01*
X0182608Y0006547D01*
X0182485Y0006647D01*
X0182364Y0006749D01*
X0182246Y0006854D01*
X0182131Y0006963D01*
X0182018Y0007074D01*
X0181908Y0007188D01*
X0181801Y0007305D01*
X0181697Y0007424D01*
X0181596Y0007546D01*
X0181499Y0007671D01*
X0181404Y0007798D01*
X0181313Y0007927D01*
X0181224Y0008058D01*
X0181140Y0008192D01*
X0181058Y0008328D01*
X0180980Y0008465D01*
X0180906Y0008605D01*
X0180835Y0008747D01*
X0180767Y0008890D01*
X0180703Y0009035D01*
X0180643Y0009181D01*
X0180587Y0009329D01*
X0180534Y0009478D01*
X0180485Y0009629D01*
X0180440Y0009781D01*
X0180399Y0009934D01*
X0180361Y0010087D01*
X0180328Y0010242D01*
X0180298Y0010398D01*
X0180272Y0010554D01*
X0180251Y0010711D01*
X0180233Y0010868D01*
X0180219Y0011026D01*
X0180209Y0011184D01*
X0180203Y0011342D01*
X0180201Y0011500D01*
D11*
X0098804Y0054200D02*
X0098804Y0055735D01*
X0098804Y0054967D02*
X0094200Y0054967D01*
X0094200Y0054200D02*
X0094200Y0055735D01*
X0094200Y0057269D02*
X0098804Y0057269D01*
X0094200Y0060339D01*
X0098804Y0060339D01*
X0096502Y0061873D02*
X0096502Y0064942D01*
X0098037Y0104200D02*
X0094967Y0104200D01*
X0094200Y0104967D01*
X0094200Y0106502D01*
X0094967Y0107269D01*
X0098037Y0107269D01*
X0098804Y0106502D01*
X0098804Y0104967D01*
X0098037Y0104200D01*
X0098804Y0108804D02*
X0094967Y0108804D01*
X0094200Y0109571D01*
X0094200Y0111106D01*
X0094967Y0111873D01*
X0098804Y0111873D01*
X0098804Y0113408D02*
X0098804Y0116477D01*
X0098804Y0114942D02*
X0094200Y0114942D01*
X0096502Y0118012D02*
X0096502Y0121081D01*
X0096304Y0134200D02*
X0091700Y0134200D01*
X0093235Y0134200D02*
X0093235Y0136502D01*
X0094002Y0137269D01*
X0095537Y0137269D01*
X0096304Y0136502D01*
X0096304Y0134200D01*
X0093235Y0135735D02*
X0091700Y0137269D01*
X0092467Y0138804D02*
X0091700Y0139571D01*
X0091700Y0141106D01*
X0092467Y0141873D01*
X0093235Y0141873D01*
X0094002Y0141106D01*
X0094002Y0138804D01*
X0092467Y0138804D01*
X0094002Y0138804D02*
X0095537Y0140339D01*
X0096304Y0141873D01*
X0066304Y0141873D02*
X0066304Y0138804D01*
X0065537Y0137269D02*
X0064002Y0137269D01*
X0063235Y0136502D01*
X0063235Y0134200D01*
X0063235Y0135735D02*
X0061700Y0137269D01*
X0061700Y0138804D02*
X0062467Y0138804D01*
X0065537Y0141873D01*
X0066304Y0141873D01*
X0065537Y0137269D02*
X0066304Y0136502D01*
X0066304Y0134200D01*
X0061700Y0134200D01*
X0051304Y0134200D02*
X0051304Y0136502D01*
X0050537Y0137269D01*
X0049002Y0137269D01*
X0048235Y0136502D01*
X0048235Y0134200D01*
X0048235Y0135735D02*
X0046700Y0137269D01*
X0046700Y0138804D02*
X0046700Y0141873D01*
X0046700Y0140339D02*
X0051304Y0140339D01*
X0049769Y0138804D01*
X0050537Y0143408D02*
X0047467Y0143408D01*
X0050537Y0146477D01*
X0047467Y0146477D01*
X0046700Y0145710D01*
X0046700Y0144175D01*
X0047467Y0143408D01*
X0050537Y0143408D02*
X0051304Y0144175D01*
X0051304Y0145710D01*
X0050537Y0146477D01*
X0051304Y0134200D02*
X0046700Y0134200D01*
X0036304Y0134200D02*
X0036304Y0136502D01*
X0035537Y0137269D01*
X0034002Y0137269D01*
X0033235Y0136502D01*
X0033235Y0134200D01*
X0033235Y0135735D02*
X0031700Y0137269D01*
X0032467Y0138804D02*
X0031700Y0139571D01*
X0031700Y0141106D01*
X0032467Y0141873D01*
X0033235Y0141873D01*
X0034002Y0141106D01*
X0034002Y0139571D01*
X0034769Y0138804D01*
X0035537Y0138804D01*
X0036304Y0139571D01*
X0036304Y0141106D01*
X0035537Y0141873D01*
X0034769Y0141873D01*
X0034002Y0141106D01*
X0034002Y0139571D02*
X0033235Y0138804D01*
X0032467Y0138804D01*
X0031700Y0134200D02*
X0036304Y0134200D01*
X0021304Y0134200D02*
X0021304Y0136502D01*
X0020537Y0137269D01*
X0019002Y0137269D01*
X0018235Y0136502D01*
X0018235Y0134200D01*
X0018235Y0135735D02*
X0016700Y0137269D01*
X0017467Y0138804D02*
X0016700Y0139571D01*
X0016700Y0141106D01*
X0017467Y0141873D01*
X0020537Y0141873D01*
X0021304Y0141106D01*
X0021304Y0139571D01*
X0020537Y0138804D01*
X0019769Y0138804D01*
X0019002Y0139571D01*
X0019002Y0141873D01*
X0016700Y0134200D02*
X0021304Y0134200D01*
X0047467Y0117046D02*
X0050537Y0117046D01*
X0049002Y0115512D02*
X0049002Y0118581D01*
X0051304Y0113977D02*
X0051304Y0110908D01*
X0051304Y0112442D02*
X0046700Y0112442D01*
X0047467Y0109373D02*
X0051304Y0109373D01*
X0051304Y0106304D02*
X0047467Y0106304D01*
X0046700Y0107071D01*
X0046700Y0108606D01*
X0047467Y0109373D01*
X0047467Y0104769D02*
X0050537Y0104769D01*
X0051304Y0104002D01*
X0051304Y0102467D01*
X0050537Y0101700D01*
X0047467Y0101700D01*
X0046700Y0102467D01*
X0046700Y0104002D01*
X0047467Y0104769D01*
X0049002Y0064942D02*
X0049002Y0061873D01*
X0050537Y0063408D02*
X0047467Y0063408D01*
X0046700Y0060339D02*
X0051304Y0060339D01*
X0051304Y0057269D02*
X0046700Y0060339D01*
X0046700Y0057269D02*
X0051304Y0057269D01*
X0051304Y0055735D02*
X0051304Y0054200D01*
X0051304Y0054967D02*
X0046700Y0054967D01*
X0046700Y0054200D02*
X0046700Y0055735D01*
D12*
X0038035Y0043193D02*
X0104965Y0043193D01*
X0104965Y0129807D01*
X0038035Y0129807D01*
X0038035Y0043193D01*
M02*
