G75*
%MOIN*%
%OFA0B0*%
%FSLAX25Y25*%
%IPPOS*%
%LPD*%
%AMOC8*
5,1,8,0,0,1.08239X$1,22.5*
%
%ADD10C,0.00000*%
%ADD11R,0.04331X0.03937*%
%ADD12C,0.04500*%
%ADD13R,0.03937X0.04331*%
D10*
X0001000Y0001000D02*
X0001000Y0199701D01*
X0195921Y0199701D01*
X0195921Y0001000D01*
X0001000Y0001000D01*
X0004701Y0011000D02*
X0004703Y0011158D01*
X0004709Y0011316D01*
X0004719Y0011474D01*
X0004733Y0011632D01*
X0004751Y0011789D01*
X0004772Y0011946D01*
X0004798Y0012102D01*
X0004828Y0012258D01*
X0004861Y0012413D01*
X0004899Y0012566D01*
X0004940Y0012719D01*
X0004985Y0012871D01*
X0005034Y0013022D01*
X0005087Y0013171D01*
X0005143Y0013319D01*
X0005203Y0013465D01*
X0005267Y0013610D01*
X0005335Y0013753D01*
X0005406Y0013895D01*
X0005480Y0014035D01*
X0005558Y0014172D01*
X0005640Y0014308D01*
X0005724Y0014442D01*
X0005813Y0014573D01*
X0005904Y0014702D01*
X0005999Y0014829D01*
X0006096Y0014954D01*
X0006197Y0015076D01*
X0006301Y0015195D01*
X0006408Y0015312D01*
X0006518Y0015426D01*
X0006631Y0015537D01*
X0006746Y0015646D01*
X0006864Y0015751D01*
X0006985Y0015853D01*
X0007108Y0015953D01*
X0007234Y0016049D01*
X0007362Y0016142D01*
X0007492Y0016232D01*
X0007625Y0016318D01*
X0007760Y0016402D01*
X0007896Y0016481D01*
X0008035Y0016558D01*
X0008176Y0016630D01*
X0008318Y0016700D01*
X0008462Y0016765D01*
X0008608Y0016827D01*
X0008755Y0016885D01*
X0008904Y0016940D01*
X0009054Y0016991D01*
X0009205Y0017038D01*
X0009357Y0017081D01*
X0009510Y0017120D01*
X0009665Y0017156D01*
X0009820Y0017187D01*
X0009976Y0017215D01*
X0010132Y0017239D01*
X0010289Y0017259D01*
X0010447Y0017275D01*
X0010604Y0017287D01*
X0010763Y0017295D01*
X0010921Y0017299D01*
X0011079Y0017299D01*
X0011237Y0017295D01*
X0011396Y0017287D01*
X0011553Y0017275D01*
X0011711Y0017259D01*
X0011868Y0017239D01*
X0012024Y0017215D01*
X0012180Y0017187D01*
X0012335Y0017156D01*
X0012490Y0017120D01*
X0012643Y0017081D01*
X0012795Y0017038D01*
X0012946Y0016991D01*
X0013096Y0016940D01*
X0013245Y0016885D01*
X0013392Y0016827D01*
X0013538Y0016765D01*
X0013682Y0016700D01*
X0013824Y0016630D01*
X0013965Y0016558D01*
X0014104Y0016481D01*
X0014240Y0016402D01*
X0014375Y0016318D01*
X0014508Y0016232D01*
X0014638Y0016142D01*
X0014766Y0016049D01*
X0014892Y0015953D01*
X0015015Y0015853D01*
X0015136Y0015751D01*
X0015254Y0015646D01*
X0015369Y0015537D01*
X0015482Y0015426D01*
X0015592Y0015312D01*
X0015699Y0015195D01*
X0015803Y0015076D01*
X0015904Y0014954D01*
X0016001Y0014829D01*
X0016096Y0014702D01*
X0016187Y0014573D01*
X0016276Y0014442D01*
X0016360Y0014308D01*
X0016442Y0014172D01*
X0016520Y0014035D01*
X0016594Y0013895D01*
X0016665Y0013753D01*
X0016733Y0013610D01*
X0016797Y0013465D01*
X0016857Y0013319D01*
X0016913Y0013171D01*
X0016966Y0013022D01*
X0017015Y0012871D01*
X0017060Y0012719D01*
X0017101Y0012566D01*
X0017139Y0012413D01*
X0017172Y0012258D01*
X0017202Y0012102D01*
X0017228Y0011946D01*
X0017249Y0011789D01*
X0017267Y0011632D01*
X0017281Y0011474D01*
X0017291Y0011316D01*
X0017297Y0011158D01*
X0017299Y0011000D01*
X0017297Y0010842D01*
X0017291Y0010684D01*
X0017281Y0010526D01*
X0017267Y0010368D01*
X0017249Y0010211D01*
X0017228Y0010054D01*
X0017202Y0009898D01*
X0017172Y0009742D01*
X0017139Y0009587D01*
X0017101Y0009434D01*
X0017060Y0009281D01*
X0017015Y0009129D01*
X0016966Y0008978D01*
X0016913Y0008829D01*
X0016857Y0008681D01*
X0016797Y0008535D01*
X0016733Y0008390D01*
X0016665Y0008247D01*
X0016594Y0008105D01*
X0016520Y0007965D01*
X0016442Y0007828D01*
X0016360Y0007692D01*
X0016276Y0007558D01*
X0016187Y0007427D01*
X0016096Y0007298D01*
X0016001Y0007171D01*
X0015904Y0007046D01*
X0015803Y0006924D01*
X0015699Y0006805D01*
X0015592Y0006688D01*
X0015482Y0006574D01*
X0015369Y0006463D01*
X0015254Y0006354D01*
X0015136Y0006249D01*
X0015015Y0006147D01*
X0014892Y0006047D01*
X0014766Y0005951D01*
X0014638Y0005858D01*
X0014508Y0005768D01*
X0014375Y0005682D01*
X0014240Y0005598D01*
X0014104Y0005519D01*
X0013965Y0005442D01*
X0013824Y0005370D01*
X0013682Y0005300D01*
X0013538Y0005235D01*
X0013392Y0005173D01*
X0013245Y0005115D01*
X0013096Y0005060D01*
X0012946Y0005009D01*
X0012795Y0004962D01*
X0012643Y0004919D01*
X0012490Y0004880D01*
X0012335Y0004844D01*
X0012180Y0004813D01*
X0012024Y0004785D01*
X0011868Y0004761D01*
X0011711Y0004741D01*
X0011553Y0004725D01*
X0011396Y0004713D01*
X0011237Y0004705D01*
X0011079Y0004701D01*
X0010921Y0004701D01*
X0010763Y0004705D01*
X0010604Y0004713D01*
X0010447Y0004725D01*
X0010289Y0004741D01*
X0010132Y0004761D01*
X0009976Y0004785D01*
X0009820Y0004813D01*
X0009665Y0004844D01*
X0009510Y0004880D01*
X0009357Y0004919D01*
X0009205Y0004962D01*
X0009054Y0005009D01*
X0008904Y0005060D01*
X0008755Y0005115D01*
X0008608Y0005173D01*
X0008462Y0005235D01*
X0008318Y0005300D01*
X0008176Y0005370D01*
X0008035Y0005442D01*
X0007896Y0005519D01*
X0007760Y0005598D01*
X0007625Y0005682D01*
X0007492Y0005768D01*
X0007362Y0005858D01*
X0007234Y0005951D01*
X0007108Y0006047D01*
X0006985Y0006147D01*
X0006864Y0006249D01*
X0006746Y0006354D01*
X0006631Y0006463D01*
X0006518Y0006574D01*
X0006408Y0006688D01*
X0006301Y0006805D01*
X0006197Y0006924D01*
X0006096Y0007046D01*
X0005999Y0007171D01*
X0005904Y0007298D01*
X0005813Y0007427D01*
X0005724Y0007558D01*
X0005640Y0007692D01*
X0005558Y0007828D01*
X0005480Y0007965D01*
X0005406Y0008105D01*
X0005335Y0008247D01*
X0005267Y0008390D01*
X0005203Y0008535D01*
X0005143Y0008681D01*
X0005087Y0008829D01*
X0005034Y0008978D01*
X0004985Y0009129D01*
X0004940Y0009281D01*
X0004899Y0009434D01*
X0004861Y0009587D01*
X0004828Y0009742D01*
X0004798Y0009898D01*
X0004772Y0010054D01*
X0004751Y0010211D01*
X0004733Y0010368D01*
X0004719Y0010526D01*
X0004709Y0010684D01*
X0004703Y0010842D01*
X0004701Y0011000D01*
X0004701Y0191000D02*
X0004703Y0191158D01*
X0004709Y0191316D01*
X0004719Y0191474D01*
X0004733Y0191632D01*
X0004751Y0191789D01*
X0004772Y0191946D01*
X0004798Y0192102D01*
X0004828Y0192258D01*
X0004861Y0192413D01*
X0004899Y0192566D01*
X0004940Y0192719D01*
X0004985Y0192871D01*
X0005034Y0193022D01*
X0005087Y0193171D01*
X0005143Y0193319D01*
X0005203Y0193465D01*
X0005267Y0193610D01*
X0005335Y0193753D01*
X0005406Y0193895D01*
X0005480Y0194035D01*
X0005558Y0194172D01*
X0005640Y0194308D01*
X0005724Y0194442D01*
X0005813Y0194573D01*
X0005904Y0194702D01*
X0005999Y0194829D01*
X0006096Y0194954D01*
X0006197Y0195076D01*
X0006301Y0195195D01*
X0006408Y0195312D01*
X0006518Y0195426D01*
X0006631Y0195537D01*
X0006746Y0195646D01*
X0006864Y0195751D01*
X0006985Y0195853D01*
X0007108Y0195953D01*
X0007234Y0196049D01*
X0007362Y0196142D01*
X0007492Y0196232D01*
X0007625Y0196318D01*
X0007760Y0196402D01*
X0007896Y0196481D01*
X0008035Y0196558D01*
X0008176Y0196630D01*
X0008318Y0196700D01*
X0008462Y0196765D01*
X0008608Y0196827D01*
X0008755Y0196885D01*
X0008904Y0196940D01*
X0009054Y0196991D01*
X0009205Y0197038D01*
X0009357Y0197081D01*
X0009510Y0197120D01*
X0009665Y0197156D01*
X0009820Y0197187D01*
X0009976Y0197215D01*
X0010132Y0197239D01*
X0010289Y0197259D01*
X0010447Y0197275D01*
X0010604Y0197287D01*
X0010763Y0197295D01*
X0010921Y0197299D01*
X0011079Y0197299D01*
X0011237Y0197295D01*
X0011396Y0197287D01*
X0011553Y0197275D01*
X0011711Y0197259D01*
X0011868Y0197239D01*
X0012024Y0197215D01*
X0012180Y0197187D01*
X0012335Y0197156D01*
X0012490Y0197120D01*
X0012643Y0197081D01*
X0012795Y0197038D01*
X0012946Y0196991D01*
X0013096Y0196940D01*
X0013245Y0196885D01*
X0013392Y0196827D01*
X0013538Y0196765D01*
X0013682Y0196700D01*
X0013824Y0196630D01*
X0013965Y0196558D01*
X0014104Y0196481D01*
X0014240Y0196402D01*
X0014375Y0196318D01*
X0014508Y0196232D01*
X0014638Y0196142D01*
X0014766Y0196049D01*
X0014892Y0195953D01*
X0015015Y0195853D01*
X0015136Y0195751D01*
X0015254Y0195646D01*
X0015369Y0195537D01*
X0015482Y0195426D01*
X0015592Y0195312D01*
X0015699Y0195195D01*
X0015803Y0195076D01*
X0015904Y0194954D01*
X0016001Y0194829D01*
X0016096Y0194702D01*
X0016187Y0194573D01*
X0016276Y0194442D01*
X0016360Y0194308D01*
X0016442Y0194172D01*
X0016520Y0194035D01*
X0016594Y0193895D01*
X0016665Y0193753D01*
X0016733Y0193610D01*
X0016797Y0193465D01*
X0016857Y0193319D01*
X0016913Y0193171D01*
X0016966Y0193022D01*
X0017015Y0192871D01*
X0017060Y0192719D01*
X0017101Y0192566D01*
X0017139Y0192413D01*
X0017172Y0192258D01*
X0017202Y0192102D01*
X0017228Y0191946D01*
X0017249Y0191789D01*
X0017267Y0191632D01*
X0017281Y0191474D01*
X0017291Y0191316D01*
X0017297Y0191158D01*
X0017299Y0191000D01*
X0017297Y0190842D01*
X0017291Y0190684D01*
X0017281Y0190526D01*
X0017267Y0190368D01*
X0017249Y0190211D01*
X0017228Y0190054D01*
X0017202Y0189898D01*
X0017172Y0189742D01*
X0017139Y0189587D01*
X0017101Y0189434D01*
X0017060Y0189281D01*
X0017015Y0189129D01*
X0016966Y0188978D01*
X0016913Y0188829D01*
X0016857Y0188681D01*
X0016797Y0188535D01*
X0016733Y0188390D01*
X0016665Y0188247D01*
X0016594Y0188105D01*
X0016520Y0187965D01*
X0016442Y0187828D01*
X0016360Y0187692D01*
X0016276Y0187558D01*
X0016187Y0187427D01*
X0016096Y0187298D01*
X0016001Y0187171D01*
X0015904Y0187046D01*
X0015803Y0186924D01*
X0015699Y0186805D01*
X0015592Y0186688D01*
X0015482Y0186574D01*
X0015369Y0186463D01*
X0015254Y0186354D01*
X0015136Y0186249D01*
X0015015Y0186147D01*
X0014892Y0186047D01*
X0014766Y0185951D01*
X0014638Y0185858D01*
X0014508Y0185768D01*
X0014375Y0185682D01*
X0014240Y0185598D01*
X0014104Y0185519D01*
X0013965Y0185442D01*
X0013824Y0185370D01*
X0013682Y0185300D01*
X0013538Y0185235D01*
X0013392Y0185173D01*
X0013245Y0185115D01*
X0013096Y0185060D01*
X0012946Y0185009D01*
X0012795Y0184962D01*
X0012643Y0184919D01*
X0012490Y0184880D01*
X0012335Y0184844D01*
X0012180Y0184813D01*
X0012024Y0184785D01*
X0011868Y0184761D01*
X0011711Y0184741D01*
X0011553Y0184725D01*
X0011396Y0184713D01*
X0011237Y0184705D01*
X0011079Y0184701D01*
X0010921Y0184701D01*
X0010763Y0184705D01*
X0010604Y0184713D01*
X0010447Y0184725D01*
X0010289Y0184741D01*
X0010132Y0184761D01*
X0009976Y0184785D01*
X0009820Y0184813D01*
X0009665Y0184844D01*
X0009510Y0184880D01*
X0009357Y0184919D01*
X0009205Y0184962D01*
X0009054Y0185009D01*
X0008904Y0185060D01*
X0008755Y0185115D01*
X0008608Y0185173D01*
X0008462Y0185235D01*
X0008318Y0185300D01*
X0008176Y0185370D01*
X0008035Y0185442D01*
X0007896Y0185519D01*
X0007760Y0185598D01*
X0007625Y0185682D01*
X0007492Y0185768D01*
X0007362Y0185858D01*
X0007234Y0185951D01*
X0007108Y0186047D01*
X0006985Y0186147D01*
X0006864Y0186249D01*
X0006746Y0186354D01*
X0006631Y0186463D01*
X0006518Y0186574D01*
X0006408Y0186688D01*
X0006301Y0186805D01*
X0006197Y0186924D01*
X0006096Y0187046D01*
X0005999Y0187171D01*
X0005904Y0187298D01*
X0005813Y0187427D01*
X0005724Y0187558D01*
X0005640Y0187692D01*
X0005558Y0187828D01*
X0005480Y0187965D01*
X0005406Y0188105D01*
X0005335Y0188247D01*
X0005267Y0188390D01*
X0005203Y0188535D01*
X0005143Y0188681D01*
X0005087Y0188829D01*
X0005034Y0188978D01*
X0004985Y0189129D01*
X0004940Y0189281D01*
X0004899Y0189434D01*
X0004861Y0189587D01*
X0004828Y0189742D01*
X0004798Y0189898D01*
X0004772Y0190054D01*
X0004751Y0190211D01*
X0004733Y0190368D01*
X0004719Y0190526D01*
X0004709Y0190684D01*
X0004703Y0190842D01*
X0004701Y0191000D01*
X0179701Y0191000D02*
X0179703Y0191158D01*
X0179709Y0191316D01*
X0179719Y0191474D01*
X0179733Y0191632D01*
X0179751Y0191789D01*
X0179772Y0191946D01*
X0179798Y0192102D01*
X0179828Y0192258D01*
X0179861Y0192413D01*
X0179899Y0192566D01*
X0179940Y0192719D01*
X0179985Y0192871D01*
X0180034Y0193022D01*
X0180087Y0193171D01*
X0180143Y0193319D01*
X0180203Y0193465D01*
X0180267Y0193610D01*
X0180335Y0193753D01*
X0180406Y0193895D01*
X0180480Y0194035D01*
X0180558Y0194172D01*
X0180640Y0194308D01*
X0180724Y0194442D01*
X0180813Y0194573D01*
X0180904Y0194702D01*
X0180999Y0194829D01*
X0181096Y0194954D01*
X0181197Y0195076D01*
X0181301Y0195195D01*
X0181408Y0195312D01*
X0181518Y0195426D01*
X0181631Y0195537D01*
X0181746Y0195646D01*
X0181864Y0195751D01*
X0181985Y0195853D01*
X0182108Y0195953D01*
X0182234Y0196049D01*
X0182362Y0196142D01*
X0182492Y0196232D01*
X0182625Y0196318D01*
X0182760Y0196402D01*
X0182896Y0196481D01*
X0183035Y0196558D01*
X0183176Y0196630D01*
X0183318Y0196700D01*
X0183462Y0196765D01*
X0183608Y0196827D01*
X0183755Y0196885D01*
X0183904Y0196940D01*
X0184054Y0196991D01*
X0184205Y0197038D01*
X0184357Y0197081D01*
X0184510Y0197120D01*
X0184665Y0197156D01*
X0184820Y0197187D01*
X0184976Y0197215D01*
X0185132Y0197239D01*
X0185289Y0197259D01*
X0185447Y0197275D01*
X0185604Y0197287D01*
X0185763Y0197295D01*
X0185921Y0197299D01*
X0186079Y0197299D01*
X0186237Y0197295D01*
X0186396Y0197287D01*
X0186553Y0197275D01*
X0186711Y0197259D01*
X0186868Y0197239D01*
X0187024Y0197215D01*
X0187180Y0197187D01*
X0187335Y0197156D01*
X0187490Y0197120D01*
X0187643Y0197081D01*
X0187795Y0197038D01*
X0187946Y0196991D01*
X0188096Y0196940D01*
X0188245Y0196885D01*
X0188392Y0196827D01*
X0188538Y0196765D01*
X0188682Y0196700D01*
X0188824Y0196630D01*
X0188965Y0196558D01*
X0189104Y0196481D01*
X0189240Y0196402D01*
X0189375Y0196318D01*
X0189508Y0196232D01*
X0189638Y0196142D01*
X0189766Y0196049D01*
X0189892Y0195953D01*
X0190015Y0195853D01*
X0190136Y0195751D01*
X0190254Y0195646D01*
X0190369Y0195537D01*
X0190482Y0195426D01*
X0190592Y0195312D01*
X0190699Y0195195D01*
X0190803Y0195076D01*
X0190904Y0194954D01*
X0191001Y0194829D01*
X0191096Y0194702D01*
X0191187Y0194573D01*
X0191276Y0194442D01*
X0191360Y0194308D01*
X0191442Y0194172D01*
X0191520Y0194035D01*
X0191594Y0193895D01*
X0191665Y0193753D01*
X0191733Y0193610D01*
X0191797Y0193465D01*
X0191857Y0193319D01*
X0191913Y0193171D01*
X0191966Y0193022D01*
X0192015Y0192871D01*
X0192060Y0192719D01*
X0192101Y0192566D01*
X0192139Y0192413D01*
X0192172Y0192258D01*
X0192202Y0192102D01*
X0192228Y0191946D01*
X0192249Y0191789D01*
X0192267Y0191632D01*
X0192281Y0191474D01*
X0192291Y0191316D01*
X0192297Y0191158D01*
X0192299Y0191000D01*
X0192297Y0190842D01*
X0192291Y0190684D01*
X0192281Y0190526D01*
X0192267Y0190368D01*
X0192249Y0190211D01*
X0192228Y0190054D01*
X0192202Y0189898D01*
X0192172Y0189742D01*
X0192139Y0189587D01*
X0192101Y0189434D01*
X0192060Y0189281D01*
X0192015Y0189129D01*
X0191966Y0188978D01*
X0191913Y0188829D01*
X0191857Y0188681D01*
X0191797Y0188535D01*
X0191733Y0188390D01*
X0191665Y0188247D01*
X0191594Y0188105D01*
X0191520Y0187965D01*
X0191442Y0187828D01*
X0191360Y0187692D01*
X0191276Y0187558D01*
X0191187Y0187427D01*
X0191096Y0187298D01*
X0191001Y0187171D01*
X0190904Y0187046D01*
X0190803Y0186924D01*
X0190699Y0186805D01*
X0190592Y0186688D01*
X0190482Y0186574D01*
X0190369Y0186463D01*
X0190254Y0186354D01*
X0190136Y0186249D01*
X0190015Y0186147D01*
X0189892Y0186047D01*
X0189766Y0185951D01*
X0189638Y0185858D01*
X0189508Y0185768D01*
X0189375Y0185682D01*
X0189240Y0185598D01*
X0189104Y0185519D01*
X0188965Y0185442D01*
X0188824Y0185370D01*
X0188682Y0185300D01*
X0188538Y0185235D01*
X0188392Y0185173D01*
X0188245Y0185115D01*
X0188096Y0185060D01*
X0187946Y0185009D01*
X0187795Y0184962D01*
X0187643Y0184919D01*
X0187490Y0184880D01*
X0187335Y0184844D01*
X0187180Y0184813D01*
X0187024Y0184785D01*
X0186868Y0184761D01*
X0186711Y0184741D01*
X0186553Y0184725D01*
X0186396Y0184713D01*
X0186237Y0184705D01*
X0186079Y0184701D01*
X0185921Y0184701D01*
X0185763Y0184705D01*
X0185604Y0184713D01*
X0185447Y0184725D01*
X0185289Y0184741D01*
X0185132Y0184761D01*
X0184976Y0184785D01*
X0184820Y0184813D01*
X0184665Y0184844D01*
X0184510Y0184880D01*
X0184357Y0184919D01*
X0184205Y0184962D01*
X0184054Y0185009D01*
X0183904Y0185060D01*
X0183755Y0185115D01*
X0183608Y0185173D01*
X0183462Y0185235D01*
X0183318Y0185300D01*
X0183176Y0185370D01*
X0183035Y0185442D01*
X0182896Y0185519D01*
X0182760Y0185598D01*
X0182625Y0185682D01*
X0182492Y0185768D01*
X0182362Y0185858D01*
X0182234Y0185951D01*
X0182108Y0186047D01*
X0181985Y0186147D01*
X0181864Y0186249D01*
X0181746Y0186354D01*
X0181631Y0186463D01*
X0181518Y0186574D01*
X0181408Y0186688D01*
X0181301Y0186805D01*
X0181197Y0186924D01*
X0181096Y0187046D01*
X0180999Y0187171D01*
X0180904Y0187298D01*
X0180813Y0187427D01*
X0180724Y0187558D01*
X0180640Y0187692D01*
X0180558Y0187828D01*
X0180480Y0187965D01*
X0180406Y0188105D01*
X0180335Y0188247D01*
X0180267Y0188390D01*
X0180203Y0188535D01*
X0180143Y0188681D01*
X0180087Y0188829D01*
X0180034Y0188978D01*
X0179985Y0189129D01*
X0179940Y0189281D01*
X0179899Y0189434D01*
X0179861Y0189587D01*
X0179828Y0189742D01*
X0179798Y0189898D01*
X0179772Y0190054D01*
X0179751Y0190211D01*
X0179733Y0190368D01*
X0179719Y0190526D01*
X0179709Y0190684D01*
X0179703Y0190842D01*
X0179701Y0191000D01*
X0179701Y0011000D02*
X0179703Y0011158D01*
X0179709Y0011316D01*
X0179719Y0011474D01*
X0179733Y0011632D01*
X0179751Y0011789D01*
X0179772Y0011946D01*
X0179798Y0012102D01*
X0179828Y0012258D01*
X0179861Y0012413D01*
X0179899Y0012566D01*
X0179940Y0012719D01*
X0179985Y0012871D01*
X0180034Y0013022D01*
X0180087Y0013171D01*
X0180143Y0013319D01*
X0180203Y0013465D01*
X0180267Y0013610D01*
X0180335Y0013753D01*
X0180406Y0013895D01*
X0180480Y0014035D01*
X0180558Y0014172D01*
X0180640Y0014308D01*
X0180724Y0014442D01*
X0180813Y0014573D01*
X0180904Y0014702D01*
X0180999Y0014829D01*
X0181096Y0014954D01*
X0181197Y0015076D01*
X0181301Y0015195D01*
X0181408Y0015312D01*
X0181518Y0015426D01*
X0181631Y0015537D01*
X0181746Y0015646D01*
X0181864Y0015751D01*
X0181985Y0015853D01*
X0182108Y0015953D01*
X0182234Y0016049D01*
X0182362Y0016142D01*
X0182492Y0016232D01*
X0182625Y0016318D01*
X0182760Y0016402D01*
X0182896Y0016481D01*
X0183035Y0016558D01*
X0183176Y0016630D01*
X0183318Y0016700D01*
X0183462Y0016765D01*
X0183608Y0016827D01*
X0183755Y0016885D01*
X0183904Y0016940D01*
X0184054Y0016991D01*
X0184205Y0017038D01*
X0184357Y0017081D01*
X0184510Y0017120D01*
X0184665Y0017156D01*
X0184820Y0017187D01*
X0184976Y0017215D01*
X0185132Y0017239D01*
X0185289Y0017259D01*
X0185447Y0017275D01*
X0185604Y0017287D01*
X0185763Y0017295D01*
X0185921Y0017299D01*
X0186079Y0017299D01*
X0186237Y0017295D01*
X0186396Y0017287D01*
X0186553Y0017275D01*
X0186711Y0017259D01*
X0186868Y0017239D01*
X0187024Y0017215D01*
X0187180Y0017187D01*
X0187335Y0017156D01*
X0187490Y0017120D01*
X0187643Y0017081D01*
X0187795Y0017038D01*
X0187946Y0016991D01*
X0188096Y0016940D01*
X0188245Y0016885D01*
X0188392Y0016827D01*
X0188538Y0016765D01*
X0188682Y0016700D01*
X0188824Y0016630D01*
X0188965Y0016558D01*
X0189104Y0016481D01*
X0189240Y0016402D01*
X0189375Y0016318D01*
X0189508Y0016232D01*
X0189638Y0016142D01*
X0189766Y0016049D01*
X0189892Y0015953D01*
X0190015Y0015853D01*
X0190136Y0015751D01*
X0190254Y0015646D01*
X0190369Y0015537D01*
X0190482Y0015426D01*
X0190592Y0015312D01*
X0190699Y0015195D01*
X0190803Y0015076D01*
X0190904Y0014954D01*
X0191001Y0014829D01*
X0191096Y0014702D01*
X0191187Y0014573D01*
X0191276Y0014442D01*
X0191360Y0014308D01*
X0191442Y0014172D01*
X0191520Y0014035D01*
X0191594Y0013895D01*
X0191665Y0013753D01*
X0191733Y0013610D01*
X0191797Y0013465D01*
X0191857Y0013319D01*
X0191913Y0013171D01*
X0191966Y0013022D01*
X0192015Y0012871D01*
X0192060Y0012719D01*
X0192101Y0012566D01*
X0192139Y0012413D01*
X0192172Y0012258D01*
X0192202Y0012102D01*
X0192228Y0011946D01*
X0192249Y0011789D01*
X0192267Y0011632D01*
X0192281Y0011474D01*
X0192291Y0011316D01*
X0192297Y0011158D01*
X0192299Y0011000D01*
X0192297Y0010842D01*
X0192291Y0010684D01*
X0192281Y0010526D01*
X0192267Y0010368D01*
X0192249Y0010211D01*
X0192228Y0010054D01*
X0192202Y0009898D01*
X0192172Y0009742D01*
X0192139Y0009587D01*
X0192101Y0009434D01*
X0192060Y0009281D01*
X0192015Y0009129D01*
X0191966Y0008978D01*
X0191913Y0008829D01*
X0191857Y0008681D01*
X0191797Y0008535D01*
X0191733Y0008390D01*
X0191665Y0008247D01*
X0191594Y0008105D01*
X0191520Y0007965D01*
X0191442Y0007828D01*
X0191360Y0007692D01*
X0191276Y0007558D01*
X0191187Y0007427D01*
X0191096Y0007298D01*
X0191001Y0007171D01*
X0190904Y0007046D01*
X0190803Y0006924D01*
X0190699Y0006805D01*
X0190592Y0006688D01*
X0190482Y0006574D01*
X0190369Y0006463D01*
X0190254Y0006354D01*
X0190136Y0006249D01*
X0190015Y0006147D01*
X0189892Y0006047D01*
X0189766Y0005951D01*
X0189638Y0005858D01*
X0189508Y0005768D01*
X0189375Y0005682D01*
X0189240Y0005598D01*
X0189104Y0005519D01*
X0188965Y0005442D01*
X0188824Y0005370D01*
X0188682Y0005300D01*
X0188538Y0005235D01*
X0188392Y0005173D01*
X0188245Y0005115D01*
X0188096Y0005060D01*
X0187946Y0005009D01*
X0187795Y0004962D01*
X0187643Y0004919D01*
X0187490Y0004880D01*
X0187335Y0004844D01*
X0187180Y0004813D01*
X0187024Y0004785D01*
X0186868Y0004761D01*
X0186711Y0004741D01*
X0186553Y0004725D01*
X0186396Y0004713D01*
X0186237Y0004705D01*
X0186079Y0004701D01*
X0185921Y0004701D01*
X0185763Y0004705D01*
X0185604Y0004713D01*
X0185447Y0004725D01*
X0185289Y0004741D01*
X0185132Y0004761D01*
X0184976Y0004785D01*
X0184820Y0004813D01*
X0184665Y0004844D01*
X0184510Y0004880D01*
X0184357Y0004919D01*
X0184205Y0004962D01*
X0184054Y0005009D01*
X0183904Y0005060D01*
X0183755Y0005115D01*
X0183608Y0005173D01*
X0183462Y0005235D01*
X0183318Y0005300D01*
X0183176Y0005370D01*
X0183035Y0005442D01*
X0182896Y0005519D01*
X0182760Y0005598D01*
X0182625Y0005682D01*
X0182492Y0005768D01*
X0182362Y0005858D01*
X0182234Y0005951D01*
X0182108Y0006047D01*
X0181985Y0006147D01*
X0181864Y0006249D01*
X0181746Y0006354D01*
X0181631Y0006463D01*
X0181518Y0006574D01*
X0181408Y0006688D01*
X0181301Y0006805D01*
X0181197Y0006924D01*
X0181096Y0007046D01*
X0180999Y0007171D01*
X0180904Y0007298D01*
X0180813Y0007427D01*
X0180724Y0007558D01*
X0180640Y0007692D01*
X0180558Y0007828D01*
X0180480Y0007965D01*
X0180406Y0008105D01*
X0180335Y0008247D01*
X0180267Y0008390D01*
X0180203Y0008535D01*
X0180143Y0008681D01*
X0180087Y0008829D01*
X0180034Y0008978D01*
X0179985Y0009129D01*
X0179940Y0009281D01*
X0179899Y0009434D01*
X0179861Y0009587D01*
X0179828Y0009742D01*
X0179798Y0009898D01*
X0179772Y0010054D01*
X0179751Y0010211D01*
X0179733Y0010368D01*
X0179719Y0010526D01*
X0179709Y0010684D01*
X0179703Y0010842D01*
X0179701Y0011000D01*
D11*
X0066000Y0162654D03*
X0066000Y0169346D03*
X0051000Y0169346D03*
X0051000Y0162654D03*
D12*
X0055850Y0106250D02*
X0055850Y0100750D01*
X0055350Y0100750D01*
X0055350Y0106250D01*
X0055850Y0106250D01*
X0055850Y0105249D02*
X0055350Y0105249D01*
X0063750Y0106250D02*
X0063750Y0100750D01*
X0063250Y0100750D01*
X0063250Y0106250D01*
X0063750Y0106250D01*
X0063750Y0105249D02*
X0063250Y0105249D01*
X0018350Y0106250D02*
X0018350Y0100750D01*
X0017850Y0100750D01*
X0017850Y0106250D01*
X0018350Y0106250D01*
X0018350Y0105249D02*
X0017850Y0105249D01*
X0010450Y0106250D02*
X0010450Y0100750D01*
X0009950Y0100750D01*
X0009950Y0106250D01*
X0010450Y0106250D01*
X0010450Y0105249D02*
X0009950Y0105249D01*
X0010450Y0031250D02*
X0010450Y0025750D01*
X0009950Y0025750D01*
X0009950Y0031250D01*
X0010450Y0031250D01*
X0010450Y0030249D02*
X0009950Y0030249D01*
X0018350Y0031250D02*
X0018350Y0025750D01*
X0017850Y0025750D01*
X0017850Y0031250D01*
X0018350Y0031250D01*
X0018350Y0030249D02*
X0017850Y0030249D01*
X0055850Y0031250D02*
X0055850Y0025750D01*
X0055350Y0025750D01*
X0055350Y0031250D01*
X0055850Y0031250D01*
X0055850Y0030249D02*
X0055350Y0030249D01*
X0063750Y0031250D02*
X0063750Y0025750D01*
X0063250Y0025750D01*
X0063250Y0031250D01*
X0063750Y0031250D01*
X0063750Y0030249D02*
X0063250Y0030249D01*
D13*
X0077654Y0121000D03*
X0084346Y0121000D03*
M02*
