%
M48
M72
T01C0.02362
T02C0.03200
T03C0.04000
T04C0.04700
T05C0.12598
%
T01
X56000Y151000
X66000Y151000
X91000Y161000
X91000Y171000
X111000Y181000
X116000Y171000
X96000Y121000
X86000Y111000
X61000Y91000
X61000Y46000
T02
X14000Y126000
X28000Y126000
T03
X81000Y81000
X91000Y81000
X101000Y81000
X131000Y91000
X131000Y101000
X131000Y111000
X126000Y131000
X136000Y131000
X146000Y131000
X146000Y161000
X136000Y161000
X126000Y161000
X126000Y191000
X116000Y191000
X136000Y191000
X146000Y191000
X101000Y31000
X91000Y31000
X81000Y31000
T04
X126000Y18500
X146000Y18500
X178500Y36000
X178500Y56000
X178500Y76000
X178500Y96000
X178500Y126000
X178500Y146000
X178500Y166000
T05
X11000Y11000
X11000Y191000
X186000Y191000
X186000Y11000
M30
