%
M48
M72
T01C0.02362
T02C0.03200
T03C0.03937
T04C0.04000
T05C0.04700
T06C0.12598
%
T01
X60780Y200605
X60780Y184857
X60780Y176983
X92670Y162022
X104481Y161235
X114324Y133282
X117434Y214857
T02
X71922Y125802
X81922Y125802
X130544Y82613
X130544Y72613
T03
X57373Y106282
X67540Y106294
X99651Y106333
X109295Y106362
X57371Y33122
X67618Y33105
X99651Y33105
X109412Y33123
T04
X33694Y132731
X33694Y122731
X33694Y112731
X139324Y119306
X149324Y119306
X159324Y119306
X155151Y97967
X155151Y87967
X155151Y77967
X158536Y145762
X148536Y145762
X138536Y145762
X138536Y169857
X148536Y169857
X158536Y169857
X158536Y193951
X148536Y193951
X138536Y193951
X135347Y225250
X125347Y225250
X145347Y225250
X155347Y225250
T05
X193399Y198676
X193399Y178676
X193399Y158676
X193792Y120802
X193792Y100802
X193792Y80802
X193792Y60802
X156332Y42514
X136332Y42514
T06
X38891Y223676
X196568Y223282
X196568Y36195
X39284Y36195
M30
