G75*
%MOIN*%
%OFA0B0*%
%FSLAX25Y25*%
%IPPOS*%
%LPD*%
%AMOC8*
5,1,8,0,0,1.08239X$1,22.5*
%
%ADD10C,0.00000*%
D10*
X0001500Y0006500D02*
X0001500Y0205201D01*
X0196421Y0205201D01*
X0196421Y0006500D01*
X0001500Y0006500D01*
X0005201Y0016500D02*
X0005203Y0016658D01*
X0005209Y0016816D01*
X0005219Y0016974D01*
X0005233Y0017132D01*
X0005251Y0017289D01*
X0005272Y0017446D01*
X0005298Y0017602D01*
X0005328Y0017758D01*
X0005361Y0017913D01*
X0005399Y0018066D01*
X0005440Y0018219D01*
X0005485Y0018371D01*
X0005534Y0018522D01*
X0005587Y0018671D01*
X0005643Y0018819D01*
X0005703Y0018965D01*
X0005767Y0019110D01*
X0005835Y0019253D01*
X0005906Y0019395D01*
X0005980Y0019535D01*
X0006058Y0019672D01*
X0006140Y0019808D01*
X0006224Y0019942D01*
X0006313Y0020073D01*
X0006404Y0020202D01*
X0006499Y0020329D01*
X0006596Y0020454D01*
X0006697Y0020576D01*
X0006801Y0020695D01*
X0006908Y0020812D01*
X0007018Y0020926D01*
X0007131Y0021037D01*
X0007246Y0021146D01*
X0007364Y0021251D01*
X0007485Y0021353D01*
X0007608Y0021453D01*
X0007734Y0021549D01*
X0007862Y0021642D01*
X0007992Y0021732D01*
X0008125Y0021818D01*
X0008260Y0021902D01*
X0008396Y0021981D01*
X0008535Y0022058D01*
X0008676Y0022130D01*
X0008818Y0022200D01*
X0008962Y0022265D01*
X0009108Y0022327D01*
X0009255Y0022385D01*
X0009404Y0022440D01*
X0009554Y0022491D01*
X0009705Y0022538D01*
X0009857Y0022581D01*
X0010010Y0022620D01*
X0010165Y0022656D01*
X0010320Y0022687D01*
X0010476Y0022715D01*
X0010632Y0022739D01*
X0010789Y0022759D01*
X0010947Y0022775D01*
X0011104Y0022787D01*
X0011263Y0022795D01*
X0011421Y0022799D01*
X0011579Y0022799D01*
X0011737Y0022795D01*
X0011896Y0022787D01*
X0012053Y0022775D01*
X0012211Y0022759D01*
X0012368Y0022739D01*
X0012524Y0022715D01*
X0012680Y0022687D01*
X0012835Y0022656D01*
X0012990Y0022620D01*
X0013143Y0022581D01*
X0013295Y0022538D01*
X0013446Y0022491D01*
X0013596Y0022440D01*
X0013745Y0022385D01*
X0013892Y0022327D01*
X0014038Y0022265D01*
X0014182Y0022200D01*
X0014324Y0022130D01*
X0014465Y0022058D01*
X0014604Y0021981D01*
X0014740Y0021902D01*
X0014875Y0021818D01*
X0015008Y0021732D01*
X0015138Y0021642D01*
X0015266Y0021549D01*
X0015392Y0021453D01*
X0015515Y0021353D01*
X0015636Y0021251D01*
X0015754Y0021146D01*
X0015869Y0021037D01*
X0015982Y0020926D01*
X0016092Y0020812D01*
X0016199Y0020695D01*
X0016303Y0020576D01*
X0016404Y0020454D01*
X0016501Y0020329D01*
X0016596Y0020202D01*
X0016687Y0020073D01*
X0016776Y0019942D01*
X0016860Y0019808D01*
X0016942Y0019672D01*
X0017020Y0019535D01*
X0017094Y0019395D01*
X0017165Y0019253D01*
X0017233Y0019110D01*
X0017297Y0018965D01*
X0017357Y0018819D01*
X0017413Y0018671D01*
X0017466Y0018522D01*
X0017515Y0018371D01*
X0017560Y0018219D01*
X0017601Y0018066D01*
X0017639Y0017913D01*
X0017672Y0017758D01*
X0017702Y0017602D01*
X0017728Y0017446D01*
X0017749Y0017289D01*
X0017767Y0017132D01*
X0017781Y0016974D01*
X0017791Y0016816D01*
X0017797Y0016658D01*
X0017799Y0016500D01*
X0017797Y0016342D01*
X0017791Y0016184D01*
X0017781Y0016026D01*
X0017767Y0015868D01*
X0017749Y0015711D01*
X0017728Y0015554D01*
X0017702Y0015398D01*
X0017672Y0015242D01*
X0017639Y0015087D01*
X0017601Y0014934D01*
X0017560Y0014781D01*
X0017515Y0014629D01*
X0017466Y0014478D01*
X0017413Y0014329D01*
X0017357Y0014181D01*
X0017297Y0014035D01*
X0017233Y0013890D01*
X0017165Y0013747D01*
X0017094Y0013605D01*
X0017020Y0013465D01*
X0016942Y0013328D01*
X0016860Y0013192D01*
X0016776Y0013058D01*
X0016687Y0012927D01*
X0016596Y0012798D01*
X0016501Y0012671D01*
X0016404Y0012546D01*
X0016303Y0012424D01*
X0016199Y0012305D01*
X0016092Y0012188D01*
X0015982Y0012074D01*
X0015869Y0011963D01*
X0015754Y0011854D01*
X0015636Y0011749D01*
X0015515Y0011647D01*
X0015392Y0011547D01*
X0015266Y0011451D01*
X0015138Y0011358D01*
X0015008Y0011268D01*
X0014875Y0011182D01*
X0014740Y0011098D01*
X0014604Y0011019D01*
X0014465Y0010942D01*
X0014324Y0010870D01*
X0014182Y0010800D01*
X0014038Y0010735D01*
X0013892Y0010673D01*
X0013745Y0010615D01*
X0013596Y0010560D01*
X0013446Y0010509D01*
X0013295Y0010462D01*
X0013143Y0010419D01*
X0012990Y0010380D01*
X0012835Y0010344D01*
X0012680Y0010313D01*
X0012524Y0010285D01*
X0012368Y0010261D01*
X0012211Y0010241D01*
X0012053Y0010225D01*
X0011896Y0010213D01*
X0011737Y0010205D01*
X0011579Y0010201D01*
X0011421Y0010201D01*
X0011263Y0010205D01*
X0011104Y0010213D01*
X0010947Y0010225D01*
X0010789Y0010241D01*
X0010632Y0010261D01*
X0010476Y0010285D01*
X0010320Y0010313D01*
X0010165Y0010344D01*
X0010010Y0010380D01*
X0009857Y0010419D01*
X0009705Y0010462D01*
X0009554Y0010509D01*
X0009404Y0010560D01*
X0009255Y0010615D01*
X0009108Y0010673D01*
X0008962Y0010735D01*
X0008818Y0010800D01*
X0008676Y0010870D01*
X0008535Y0010942D01*
X0008396Y0011019D01*
X0008260Y0011098D01*
X0008125Y0011182D01*
X0007992Y0011268D01*
X0007862Y0011358D01*
X0007734Y0011451D01*
X0007608Y0011547D01*
X0007485Y0011647D01*
X0007364Y0011749D01*
X0007246Y0011854D01*
X0007131Y0011963D01*
X0007018Y0012074D01*
X0006908Y0012188D01*
X0006801Y0012305D01*
X0006697Y0012424D01*
X0006596Y0012546D01*
X0006499Y0012671D01*
X0006404Y0012798D01*
X0006313Y0012927D01*
X0006224Y0013058D01*
X0006140Y0013192D01*
X0006058Y0013328D01*
X0005980Y0013465D01*
X0005906Y0013605D01*
X0005835Y0013747D01*
X0005767Y0013890D01*
X0005703Y0014035D01*
X0005643Y0014181D01*
X0005587Y0014329D01*
X0005534Y0014478D01*
X0005485Y0014629D01*
X0005440Y0014781D01*
X0005399Y0014934D01*
X0005361Y0015087D01*
X0005328Y0015242D01*
X0005298Y0015398D01*
X0005272Y0015554D01*
X0005251Y0015711D01*
X0005233Y0015868D01*
X0005219Y0016026D01*
X0005209Y0016184D01*
X0005203Y0016342D01*
X0005201Y0016500D01*
X0005201Y0196500D02*
X0005203Y0196658D01*
X0005209Y0196816D01*
X0005219Y0196974D01*
X0005233Y0197132D01*
X0005251Y0197289D01*
X0005272Y0197446D01*
X0005298Y0197602D01*
X0005328Y0197758D01*
X0005361Y0197913D01*
X0005399Y0198066D01*
X0005440Y0198219D01*
X0005485Y0198371D01*
X0005534Y0198522D01*
X0005587Y0198671D01*
X0005643Y0198819D01*
X0005703Y0198965D01*
X0005767Y0199110D01*
X0005835Y0199253D01*
X0005906Y0199395D01*
X0005980Y0199535D01*
X0006058Y0199672D01*
X0006140Y0199808D01*
X0006224Y0199942D01*
X0006313Y0200073D01*
X0006404Y0200202D01*
X0006499Y0200329D01*
X0006596Y0200454D01*
X0006697Y0200576D01*
X0006801Y0200695D01*
X0006908Y0200812D01*
X0007018Y0200926D01*
X0007131Y0201037D01*
X0007246Y0201146D01*
X0007364Y0201251D01*
X0007485Y0201353D01*
X0007608Y0201453D01*
X0007734Y0201549D01*
X0007862Y0201642D01*
X0007992Y0201732D01*
X0008125Y0201818D01*
X0008260Y0201902D01*
X0008396Y0201981D01*
X0008535Y0202058D01*
X0008676Y0202130D01*
X0008818Y0202200D01*
X0008962Y0202265D01*
X0009108Y0202327D01*
X0009255Y0202385D01*
X0009404Y0202440D01*
X0009554Y0202491D01*
X0009705Y0202538D01*
X0009857Y0202581D01*
X0010010Y0202620D01*
X0010165Y0202656D01*
X0010320Y0202687D01*
X0010476Y0202715D01*
X0010632Y0202739D01*
X0010789Y0202759D01*
X0010947Y0202775D01*
X0011104Y0202787D01*
X0011263Y0202795D01*
X0011421Y0202799D01*
X0011579Y0202799D01*
X0011737Y0202795D01*
X0011896Y0202787D01*
X0012053Y0202775D01*
X0012211Y0202759D01*
X0012368Y0202739D01*
X0012524Y0202715D01*
X0012680Y0202687D01*
X0012835Y0202656D01*
X0012990Y0202620D01*
X0013143Y0202581D01*
X0013295Y0202538D01*
X0013446Y0202491D01*
X0013596Y0202440D01*
X0013745Y0202385D01*
X0013892Y0202327D01*
X0014038Y0202265D01*
X0014182Y0202200D01*
X0014324Y0202130D01*
X0014465Y0202058D01*
X0014604Y0201981D01*
X0014740Y0201902D01*
X0014875Y0201818D01*
X0015008Y0201732D01*
X0015138Y0201642D01*
X0015266Y0201549D01*
X0015392Y0201453D01*
X0015515Y0201353D01*
X0015636Y0201251D01*
X0015754Y0201146D01*
X0015869Y0201037D01*
X0015982Y0200926D01*
X0016092Y0200812D01*
X0016199Y0200695D01*
X0016303Y0200576D01*
X0016404Y0200454D01*
X0016501Y0200329D01*
X0016596Y0200202D01*
X0016687Y0200073D01*
X0016776Y0199942D01*
X0016860Y0199808D01*
X0016942Y0199672D01*
X0017020Y0199535D01*
X0017094Y0199395D01*
X0017165Y0199253D01*
X0017233Y0199110D01*
X0017297Y0198965D01*
X0017357Y0198819D01*
X0017413Y0198671D01*
X0017466Y0198522D01*
X0017515Y0198371D01*
X0017560Y0198219D01*
X0017601Y0198066D01*
X0017639Y0197913D01*
X0017672Y0197758D01*
X0017702Y0197602D01*
X0017728Y0197446D01*
X0017749Y0197289D01*
X0017767Y0197132D01*
X0017781Y0196974D01*
X0017791Y0196816D01*
X0017797Y0196658D01*
X0017799Y0196500D01*
X0017797Y0196342D01*
X0017791Y0196184D01*
X0017781Y0196026D01*
X0017767Y0195868D01*
X0017749Y0195711D01*
X0017728Y0195554D01*
X0017702Y0195398D01*
X0017672Y0195242D01*
X0017639Y0195087D01*
X0017601Y0194934D01*
X0017560Y0194781D01*
X0017515Y0194629D01*
X0017466Y0194478D01*
X0017413Y0194329D01*
X0017357Y0194181D01*
X0017297Y0194035D01*
X0017233Y0193890D01*
X0017165Y0193747D01*
X0017094Y0193605D01*
X0017020Y0193465D01*
X0016942Y0193328D01*
X0016860Y0193192D01*
X0016776Y0193058D01*
X0016687Y0192927D01*
X0016596Y0192798D01*
X0016501Y0192671D01*
X0016404Y0192546D01*
X0016303Y0192424D01*
X0016199Y0192305D01*
X0016092Y0192188D01*
X0015982Y0192074D01*
X0015869Y0191963D01*
X0015754Y0191854D01*
X0015636Y0191749D01*
X0015515Y0191647D01*
X0015392Y0191547D01*
X0015266Y0191451D01*
X0015138Y0191358D01*
X0015008Y0191268D01*
X0014875Y0191182D01*
X0014740Y0191098D01*
X0014604Y0191019D01*
X0014465Y0190942D01*
X0014324Y0190870D01*
X0014182Y0190800D01*
X0014038Y0190735D01*
X0013892Y0190673D01*
X0013745Y0190615D01*
X0013596Y0190560D01*
X0013446Y0190509D01*
X0013295Y0190462D01*
X0013143Y0190419D01*
X0012990Y0190380D01*
X0012835Y0190344D01*
X0012680Y0190313D01*
X0012524Y0190285D01*
X0012368Y0190261D01*
X0012211Y0190241D01*
X0012053Y0190225D01*
X0011896Y0190213D01*
X0011737Y0190205D01*
X0011579Y0190201D01*
X0011421Y0190201D01*
X0011263Y0190205D01*
X0011104Y0190213D01*
X0010947Y0190225D01*
X0010789Y0190241D01*
X0010632Y0190261D01*
X0010476Y0190285D01*
X0010320Y0190313D01*
X0010165Y0190344D01*
X0010010Y0190380D01*
X0009857Y0190419D01*
X0009705Y0190462D01*
X0009554Y0190509D01*
X0009404Y0190560D01*
X0009255Y0190615D01*
X0009108Y0190673D01*
X0008962Y0190735D01*
X0008818Y0190800D01*
X0008676Y0190870D01*
X0008535Y0190942D01*
X0008396Y0191019D01*
X0008260Y0191098D01*
X0008125Y0191182D01*
X0007992Y0191268D01*
X0007862Y0191358D01*
X0007734Y0191451D01*
X0007608Y0191547D01*
X0007485Y0191647D01*
X0007364Y0191749D01*
X0007246Y0191854D01*
X0007131Y0191963D01*
X0007018Y0192074D01*
X0006908Y0192188D01*
X0006801Y0192305D01*
X0006697Y0192424D01*
X0006596Y0192546D01*
X0006499Y0192671D01*
X0006404Y0192798D01*
X0006313Y0192927D01*
X0006224Y0193058D01*
X0006140Y0193192D01*
X0006058Y0193328D01*
X0005980Y0193465D01*
X0005906Y0193605D01*
X0005835Y0193747D01*
X0005767Y0193890D01*
X0005703Y0194035D01*
X0005643Y0194181D01*
X0005587Y0194329D01*
X0005534Y0194478D01*
X0005485Y0194629D01*
X0005440Y0194781D01*
X0005399Y0194934D01*
X0005361Y0195087D01*
X0005328Y0195242D01*
X0005298Y0195398D01*
X0005272Y0195554D01*
X0005251Y0195711D01*
X0005233Y0195868D01*
X0005219Y0196026D01*
X0005209Y0196184D01*
X0005203Y0196342D01*
X0005201Y0196500D01*
X0180201Y0196500D02*
X0180203Y0196658D01*
X0180209Y0196816D01*
X0180219Y0196974D01*
X0180233Y0197132D01*
X0180251Y0197289D01*
X0180272Y0197446D01*
X0180298Y0197602D01*
X0180328Y0197758D01*
X0180361Y0197913D01*
X0180399Y0198066D01*
X0180440Y0198219D01*
X0180485Y0198371D01*
X0180534Y0198522D01*
X0180587Y0198671D01*
X0180643Y0198819D01*
X0180703Y0198965D01*
X0180767Y0199110D01*
X0180835Y0199253D01*
X0180906Y0199395D01*
X0180980Y0199535D01*
X0181058Y0199672D01*
X0181140Y0199808D01*
X0181224Y0199942D01*
X0181313Y0200073D01*
X0181404Y0200202D01*
X0181499Y0200329D01*
X0181596Y0200454D01*
X0181697Y0200576D01*
X0181801Y0200695D01*
X0181908Y0200812D01*
X0182018Y0200926D01*
X0182131Y0201037D01*
X0182246Y0201146D01*
X0182364Y0201251D01*
X0182485Y0201353D01*
X0182608Y0201453D01*
X0182734Y0201549D01*
X0182862Y0201642D01*
X0182992Y0201732D01*
X0183125Y0201818D01*
X0183260Y0201902D01*
X0183396Y0201981D01*
X0183535Y0202058D01*
X0183676Y0202130D01*
X0183818Y0202200D01*
X0183962Y0202265D01*
X0184108Y0202327D01*
X0184255Y0202385D01*
X0184404Y0202440D01*
X0184554Y0202491D01*
X0184705Y0202538D01*
X0184857Y0202581D01*
X0185010Y0202620D01*
X0185165Y0202656D01*
X0185320Y0202687D01*
X0185476Y0202715D01*
X0185632Y0202739D01*
X0185789Y0202759D01*
X0185947Y0202775D01*
X0186104Y0202787D01*
X0186263Y0202795D01*
X0186421Y0202799D01*
X0186579Y0202799D01*
X0186737Y0202795D01*
X0186896Y0202787D01*
X0187053Y0202775D01*
X0187211Y0202759D01*
X0187368Y0202739D01*
X0187524Y0202715D01*
X0187680Y0202687D01*
X0187835Y0202656D01*
X0187990Y0202620D01*
X0188143Y0202581D01*
X0188295Y0202538D01*
X0188446Y0202491D01*
X0188596Y0202440D01*
X0188745Y0202385D01*
X0188892Y0202327D01*
X0189038Y0202265D01*
X0189182Y0202200D01*
X0189324Y0202130D01*
X0189465Y0202058D01*
X0189604Y0201981D01*
X0189740Y0201902D01*
X0189875Y0201818D01*
X0190008Y0201732D01*
X0190138Y0201642D01*
X0190266Y0201549D01*
X0190392Y0201453D01*
X0190515Y0201353D01*
X0190636Y0201251D01*
X0190754Y0201146D01*
X0190869Y0201037D01*
X0190982Y0200926D01*
X0191092Y0200812D01*
X0191199Y0200695D01*
X0191303Y0200576D01*
X0191404Y0200454D01*
X0191501Y0200329D01*
X0191596Y0200202D01*
X0191687Y0200073D01*
X0191776Y0199942D01*
X0191860Y0199808D01*
X0191942Y0199672D01*
X0192020Y0199535D01*
X0192094Y0199395D01*
X0192165Y0199253D01*
X0192233Y0199110D01*
X0192297Y0198965D01*
X0192357Y0198819D01*
X0192413Y0198671D01*
X0192466Y0198522D01*
X0192515Y0198371D01*
X0192560Y0198219D01*
X0192601Y0198066D01*
X0192639Y0197913D01*
X0192672Y0197758D01*
X0192702Y0197602D01*
X0192728Y0197446D01*
X0192749Y0197289D01*
X0192767Y0197132D01*
X0192781Y0196974D01*
X0192791Y0196816D01*
X0192797Y0196658D01*
X0192799Y0196500D01*
X0192797Y0196342D01*
X0192791Y0196184D01*
X0192781Y0196026D01*
X0192767Y0195868D01*
X0192749Y0195711D01*
X0192728Y0195554D01*
X0192702Y0195398D01*
X0192672Y0195242D01*
X0192639Y0195087D01*
X0192601Y0194934D01*
X0192560Y0194781D01*
X0192515Y0194629D01*
X0192466Y0194478D01*
X0192413Y0194329D01*
X0192357Y0194181D01*
X0192297Y0194035D01*
X0192233Y0193890D01*
X0192165Y0193747D01*
X0192094Y0193605D01*
X0192020Y0193465D01*
X0191942Y0193328D01*
X0191860Y0193192D01*
X0191776Y0193058D01*
X0191687Y0192927D01*
X0191596Y0192798D01*
X0191501Y0192671D01*
X0191404Y0192546D01*
X0191303Y0192424D01*
X0191199Y0192305D01*
X0191092Y0192188D01*
X0190982Y0192074D01*
X0190869Y0191963D01*
X0190754Y0191854D01*
X0190636Y0191749D01*
X0190515Y0191647D01*
X0190392Y0191547D01*
X0190266Y0191451D01*
X0190138Y0191358D01*
X0190008Y0191268D01*
X0189875Y0191182D01*
X0189740Y0191098D01*
X0189604Y0191019D01*
X0189465Y0190942D01*
X0189324Y0190870D01*
X0189182Y0190800D01*
X0189038Y0190735D01*
X0188892Y0190673D01*
X0188745Y0190615D01*
X0188596Y0190560D01*
X0188446Y0190509D01*
X0188295Y0190462D01*
X0188143Y0190419D01*
X0187990Y0190380D01*
X0187835Y0190344D01*
X0187680Y0190313D01*
X0187524Y0190285D01*
X0187368Y0190261D01*
X0187211Y0190241D01*
X0187053Y0190225D01*
X0186896Y0190213D01*
X0186737Y0190205D01*
X0186579Y0190201D01*
X0186421Y0190201D01*
X0186263Y0190205D01*
X0186104Y0190213D01*
X0185947Y0190225D01*
X0185789Y0190241D01*
X0185632Y0190261D01*
X0185476Y0190285D01*
X0185320Y0190313D01*
X0185165Y0190344D01*
X0185010Y0190380D01*
X0184857Y0190419D01*
X0184705Y0190462D01*
X0184554Y0190509D01*
X0184404Y0190560D01*
X0184255Y0190615D01*
X0184108Y0190673D01*
X0183962Y0190735D01*
X0183818Y0190800D01*
X0183676Y0190870D01*
X0183535Y0190942D01*
X0183396Y0191019D01*
X0183260Y0191098D01*
X0183125Y0191182D01*
X0182992Y0191268D01*
X0182862Y0191358D01*
X0182734Y0191451D01*
X0182608Y0191547D01*
X0182485Y0191647D01*
X0182364Y0191749D01*
X0182246Y0191854D01*
X0182131Y0191963D01*
X0182018Y0192074D01*
X0181908Y0192188D01*
X0181801Y0192305D01*
X0181697Y0192424D01*
X0181596Y0192546D01*
X0181499Y0192671D01*
X0181404Y0192798D01*
X0181313Y0192927D01*
X0181224Y0193058D01*
X0181140Y0193192D01*
X0181058Y0193328D01*
X0180980Y0193465D01*
X0180906Y0193605D01*
X0180835Y0193747D01*
X0180767Y0193890D01*
X0180703Y0194035D01*
X0180643Y0194181D01*
X0180587Y0194329D01*
X0180534Y0194478D01*
X0180485Y0194629D01*
X0180440Y0194781D01*
X0180399Y0194934D01*
X0180361Y0195087D01*
X0180328Y0195242D01*
X0180298Y0195398D01*
X0180272Y0195554D01*
X0180251Y0195711D01*
X0180233Y0195868D01*
X0180219Y0196026D01*
X0180209Y0196184D01*
X0180203Y0196342D01*
X0180201Y0196500D01*
X0180201Y0016500D02*
X0180203Y0016658D01*
X0180209Y0016816D01*
X0180219Y0016974D01*
X0180233Y0017132D01*
X0180251Y0017289D01*
X0180272Y0017446D01*
X0180298Y0017602D01*
X0180328Y0017758D01*
X0180361Y0017913D01*
X0180399Y0018066D01*
X0180440Y0018219D01*
X0180485Y0018371D01*
X0180534Y0018522D01*
X0180587Y0018671D01*
X0180643Y0018819D01*
X0180703Y0018965D01*
X0180767Y0019110D01*
X0180835Y0019253D01*
X0180906Y0019395D01*
X0180980Y0019535D01*
X0181058Y0019672D01*
X0181140Y0019808D01*
X0181224Y0019942D01*
X0181313Y0020073D01*
X0181404Y0020202D01*
X0181499Y0020329D01*
X0181596Y0020454D01*
X0181697Y0020576D01*
X0181801Y0020695D01*
X0181908Y0020812D01*
X0182018Y0020926D01*
X0182131Y0021037D01*
X0182246Y0021146D01*
X0182364Y0021251D01*
X0182485Y0021353D01*
X0182608Y0021453D01*
X0182734Y0021549D01*
X0182862Y0021642D01*
X0182992Y0021732D01*
X0183125Y0021818D01*
X0183260Y0021902D01*
X0183396Y0021981D01*
X0183535Y0022058D01*
X0183676Y0022130D01*
X0183818Y0022200D01*
X0183962Y0022265D01*
X0184108Y0022327D01*
X0184255Y0022385D01*
X0184404Y0022440D01*
X0184554Y0022491D01*
X0184705Y0022538D01*
X0184857Y0022581D01*
X0185010Y0022620D01*
X0185165Y0022656D01*
X0185320Y0022687D01*
X0185476Y0022715D01*
X0185632Y0022739D01*
X0185789Y0022759D01*
X0185947Y0022775D01*
X0186104Y0022787D01*
X0186263Y0022795D01*
X0186421Y0022799D01*
X0186579Y0022799D01*
X0186737Y0022795D01*
X0186896Y0022787D01*
X0187053Y0022775D01*
X0187211Y0022759D01*
X0187368Y0022739D01*
X0187524Y0022715D01*
X0187680Y0022687D01*
X0187835Y0022656D01*
X0187990Y0022620D01*
X0188143Y0022581D01*
X0188295Y0022538D01*
X0188446Y0022491D01*
X0188596Y0022440D01*
X0188745Y0022385D01*
X0188892Y0022327D01*
X0189038Y0022265D01*
X0189182Y0022200D01*
X0189324Y0022130D01*
X0189465Y0022058D01*
X0189604Y0021981D01*
X0189740Y0021902D01*
X0189875Y0021818D01*
X0190008Y0021732D01*
X0190138Y0021642D01*
X0190266Y0021549D01*
X0190392Y0021453D01*
X0190515Y0021353D01*
X0190636Y0021251D01*
X0190754Y0021146D01*
X0190869Y0021037D01*
X0190982Y0020926D01*
X0191092Y0020812D01*
X0191199Y0020695D01*
X0191303Y0020576D01*
X0191404Y0020454D01*
X0191501Y0020329D01*
X0191596Y0020202D01*
X0191687Y0020073D01*
X0191776Y0019942D01*
X0191860Y0019808D01*
X0191942Y0019672D01*
X0192020Y0019535D01*
X0192094Y0019395D01*
X0192165Y0019253D01*
X0192233Y0019110D01*
X0192297Y0018965D01*
X0192357Y0018819D01*
X0192413Y0018671D01*
X0192466Y0018522D01*
X0192515Y0018371D01*
X0192560Y0018219D01*
X0192601Y0018066D01*
X0192639Y0017913D01*
X0192672Y0017758D01*
X0192702Y0017602D01*
X0192728Y0017446D01*
X0192749Y0017289D01*
X0192767Y0017132D01*
X0192781Y0016974D01*
X0192791Y0016816D01*
X0192797Y0016658D01*
X0192799Y0016500D01*
X0192797Y0016342D01*
X0192791Y0016184D01*
X0192781Y0016026D01*
X0192767Y0015868D01*
X0192749Y0015711D01*
X0192728Y0015554D01*
X0192702Y0015398D01*
X0192672Y0015242D01*
X0192639Y0015087D01*
X0192601Y0014934D01*
X0192560Y0014781D01*
X0192515Y0014629D01*
X0192466Y0014478D01*
X0192413Y0014329D01*
X0192357Y0014181D01*
X0192297Y0014035D01*
X0192233Y0013890D01*
X0192165Y0013747D01*
X0192094Y0013605D01*
X0192020Y0013465D01*
X0191942Y0013328D01*
X0191860Y0013192D01*
X0191776Y0013058D01*
X0191687Y0012927D01*
X0191596Y0012798D01*
X0191501Y0012671D01*
X0191404Y0012546D01*
X0191303Y0012424D01*
X0191199Y0012305D01*
X0191092Y0012188D01*
X0190982Y0012074D01*
X0190869Y0011963D01*
X0190754Y0011854D01*
X0190636Y0011749D01*
X0190515Y0011647D01*
X0190392Y0011547D01*
X0190266Y0011451D01*
X0190138Y0011358D01*
X0190008Y0011268D01*
X0189875Y0011182D01*
X0189740Y0011098D01*
X0189604Y0011019D01*
X0189465Y0010942D01*
X0189324Y0010870D01*
X0189182Y0010800D01*
X0189038Y0010735D01*
X0188892Y0010673D01*
X0188745Y0010615D01*
X0188596Y0010560D01*
X0188446Y0010509D01*
X0188295Y0010462D01*
X0188143Y0010419D01*
X0187990Y0010380D01*
X0187835Y0010344D01*
X0187680Y0010313D01*
X0187524Y0010285D01*
X0187368Y0010261D01*
X0187211Y0010241D01*
X0187053Y0010225D01*
X0186896Y0010213D01*
X0186737Y0010205D01*
X0186579Y0010201D01*
X0186421Y0010201D01*
X0186263Y0010205D01*
X0186104Y0010213D01*
X0185947Y0010225D01*
X0185789Y0010241D01*
X0185632Y0010261D01*
X0185476Y0010285D01*
X0185320Y0010313D01*
X0185165Y0010344D01*
X0185010Y0010380D01*
X0184857Y0010419D01*
X0184705Y0010462D01*
X0184554Y0010509D01*
X0184404Y0010560D01*
X0184255Y0010615D01*
X0184108Y0010673D01*
X0183962Y0010735D01*
X0183818Y0010800D01*
X0183676Y0010870D01*
X0183535Y0010942D01*
X0183396Y0011019D01*
X0183260Y0011098D01*
X0183125Y0011182D01*
X0182992Y0011268D01*
X0182862Y0011358D01*
X0182734Y0011451D01*
X0182608Y0011547D01*
X0182485Y0011647D01*
X0182364Y0011749D01*
X0182246Y0011854D01*
X0182131Y0011963D01*
X0182018Y0012074D01*
X0181908Y0012188D01*
X0181801Y0012305D01*
X0181697Y0012424D01*
X0181596Y0012546D01*
X0181499Y0012671D01*
X0181404Y0012798D01*
X0181313Y0012927D01*
X0181224Y0013058D01*
X0181140Y0013192D01*
X0181058Y0013328D01*
X0180980Y0013465D01*
X0180906Y0013605D01*
X0180835Y0013747D01*
X0180767Y0013890D01*
X0180703Y0014035D01*
X0180643Y0014181D01*
X0180587Y0014329D01*
X0180534Y0014478D01*
X0180485Y0014629D01*
X0180440Y0014781D01*
X0180399Y0014934D01*
X0180361Y0015087D01*
X0180328Y0015242D01*
X0180298Y0015398D01*
X0180272Y0015554D01*
X0180251Y0015711D01*
X0180233Y0015868D01*
X0180219Y0016026D01*
X0180209Y0016184D01*
X0180203Y0016342D01*
X0180201Y0016500D01*
M02*
