G75*
%MOIN*%
%OFA0B0*%
%FSLAX25Y25*%
%IPPOS*%
%LPD*%
%AMOC8*
5,1,8,0,0,1.08239X$1,22.5*
%
%ADD10C,0.00000*%
%ADD11R,0.07874X0.04724*%
%ADD12C,0.06400*%
%ADD13R,0.05906X0.05118*%
%ADD14R,0.05118X0.05906*%
%ADD15R,0.06299X0.09055*%
%ADD16C,0.07100*%
%ADD17OC8,0.06300*%
%ADD18C,0.06300*%
%ADD19C,0.02400*%
%ADD20OC8,0.03962*%
%ADD21C,0.03962*%
%ADD22C,0.01200*%
%ADD23C,0.01000*%
D10*
X0001500Y0006500D02*
X0001500Y0205201D01*
X0196421Y0205201D01*
X0196421Y0006500D01*
X0001500Y0006500D01*
X0005201Y0016500D02*
X0005203Y0016658D01*
X0005209Y0016816D01*
X0005219Y0016974D01*
X0005233Y0017132D01*
X0005251Y0017289D01*
X0005272Y0017446D01*
X0005298Y0017602D01*
X0005328Y0017758D01*
X0005361Y0017913D01*
X0005399Y0018066D01*
X0005440Y0018219D01*
X0005485Y0018371D01*
X0005534Y0018522D01*
X0005587Y0018671D01*
X0005643Y0018819D01*
X0005703Y0018965D01*
X0005767Y0019110D01*
X0005835Y0019253D01*
X0005906Y0019395D01*
X0005980Y0019535D01*
X0006058Y0019672D01*
X0006140Y0019808D01*
X0006224Y0019942D01*
X0006313Y0020073D01*
X0006404Y0020202D01*
X0006499Y0020329D01*
X0006596Y0020454D01*
X0006697Y0020576D01*
X0006801Y0020695D01*
X0006908Y0020812D01*
X0007018Y0020926D01*
X0007131Y0021037D01*
X0007246Y0021146D01*
X0007364Y0021251D01*
X0007485Y0021353D01*
X0007608Y0021453D01*
X0007734Y0021549D01*
X0007862Y0021642D01*
X0007992Y0021732D01*
X0008125Y0021818D01*
X0008260Y0021902D01*
X0008396Y0021981D01*
X0008535Y0022058D01*
X0008676Y0022130D01*
X0008818Y0022200D01*
X0008962Y0022265D01*
X0009108Y0022327D01*
X0009255Y0022385D01*
X0009404Y0022440D01*
X0009554Y0022491D01*
X0009705Y0022538D01*
X0009857Y0022581D01*
X0010010Y0022620D01*
X0010165Y0022656D01*
X0010320Y0022687D01*
X0010476Y0022715D01*
X0010632Y0022739D01*
X0010789Y0022759D01*
X0010947Y0022775D01*
X0011104Y0022787D01*
X0011263Y0022795D01*
X0011421Y0022799D01*
X0011579Y0022799D01*
X0011737Y0022795D01*
X0011896Y0022787D01*
X0012053Y0022775D01*
X0012211Y0022759D01*
X0012368Y0022739D01*
X0012524Y0022715D01*
X0012680Y0022687D01*
X0012835Y0022656D01*
X0012990Y0022620D01*
X0013143Y0022581D01*
X0013295Y0022538D01*
X0013446Y0022491D01*
X0013596Y0022440D01*
X0013745Y0022385D01*
X0013892Y0022327D01*
X0014038Y0022265D01*
X0014182Y0022200D01*
X0014324Y0022130D01*
X0014465Y0022058D01*
X0014604Y0021981D01*
X0014740Y0021902D01*
X0014875Y0021818D01*
X0015008Y0021732D01*
X0015138Y0021642D01*
X0015266Y0021549D01*
X0015392Y0021453D01*
X0015515Y0021353D01*
X0015636Y0021251D01*
X0015754Y0021146D01*
X0015869Y0021037D01*
X0015982Y0020926D01*
X0016092Y0020812D01*
X0016199Y0020695D01*
X0016303Y0020576D01*
X0016404Y0020454D01*
X0016501Y0020329D01*
X0016596Y0020202D01*
X0016687Y0020073D01*
X0016776Y0019942D01*
X0016860Y0019808D01*
X0016942Y0019672D01*
X0017020Y0019535D01*
X0017094Y0019395D01*
X0017165Y0019253D01*
X0017233Y0019110D01*
X0017297Y0018965D01*
X0017357Y0018819D01*
X0017413Y0018671D01*
X0017466Y0018522D01*
X0017515Y0018371D01*
X0017560Y0018219D01*
X0017601Y0018066D01*
X0017639Y0017913D01*
X0017672Y0017758D01*
X0017702Y0017602D01*
X0017728Y0017446D01*
X0017749Y0017289D01*
X0017767Y0017132D01*
X0017781Y0016974D01*
X0017791Y0016816D01*
X0017797Y0016658D01*
X0017799Y0016500D01*
X0017797Y0016342D01*
X0017791Y0016184D01*
X0017781Y0016026D01*
X0017767Y0015868D01*
X0017749Y0015711D01*
X0017728Y0015554D01*
X0017702Y0015398D01*
X0017672Y0015242D01*
X0017639Y0015087D01*
X0017601Y0014934D01*
X0017560Y0014781D01*
X0017515Y0014629D01*
X0017466Y0014478D01*
X0017413Y0014329D01*
X0017357Y0014181D01*
X0017297Y0014035D01*
X0017233Y0013890D01*
X0017165Y0013747D01*
X0017094Y0013605D01*
X0017020Y0013465D01*
X0016942Y0013328D01*
X0016860Y0013192D01*
X0016776Y0013058D01*
X0016687Y0012927D01*
X0016596Y0012798D01*
X0016501Y0012671D01*
X0016404Y0012546D01*
X0016303Y0012424D01*
X0016199Y0012305D01*
X0016092Y0012188D01*
X0015982Y0012074D01*
X0015869Y0011963D01*
X0015754Y0011854D01*
X0015636Y0011749D01*
X0015515Y0011647D01*
X0015392Y0011547D01*
X0015266Y0011451D01*
X0015138Y0011358D01*
X0015008Y0011268D01*
X0014875Y0011182D01*
X0014740Y0011098D01*
X0014604Y0011019D01*
X0014465Y0010942D01*
X0014324Y0010870D01*
X0014182Y0010800D01*
X0014038Y0010735D01*
X0013892Y0010673D01*
X0013745Y0010615D01*
X0013596Y0010560D01*
X0013446Y0010509D01*
X0013295Y0010462D01*
X0013143Y0010419D01*
X0012990Y0010380D01*
X0012835Y0010344D01*
X0012680Y0010313D01*
X0012524Y0010285D01*
X0012368Y0010261D01*
X0012211Y0010241D01*
X0012053Y0010225D01*
X0011896Y0010213D01*
X0011737Y0010205D01*
X0011579Y0010201D01*
X0011421Y0010201D01*
X0011263Y0010205D01*
X0011104Y0010213D01*
X0010947Y0010225D01*
X0010789Y0010241D01*
X0010632Y0010261D01*
X0010476Y0010285D01*
X0010320Y0010313D01*
X0010165Y0010344D01*
X0010010Y0010380D01*
X0009857Y0010419D01*
X0009705Y0010462D01*
X0009554Y0010509D01*
X0009404Y0010560D01*
X0009255Y0010615D01*
X0009108Y0010673D01*
X0008962Y0010735D01*
X0008818Y0010800D01*
X0008676Y0010870D01*
X0008535Y0010942D01*
X0008396Y0011019D01*
X0008260Y0011098D01*
X0008125Y0011182D01*
X0007992Y0011268D01*
X0007862Y0011358D01*
X0007734Y0011451D01*
X0007608Y0011547D01*
X0007485Y0011647D01*
X0007364Y0011749D01*
X0007246Y0011854D01*
X0007131Y0011963D01*
X0007018Y0012074D01*
X0006908Y0012188D01*
X0006801Y0012305D01*
X0006697Y0012424D01*
X0006596Y0012546D01*
X0006499Y0012671D01*
X0006404Y0012798D01*
X0006313Y0012927D01*
X0006224Y0013058D01*
X0006140Y0013192D01*
X0006058Y0013328D01*
X0005980Y0013465D01*
X0005906Y0013605D01*
X0005835Y0013747D01*
X0005767Y0013890D01*
X0005703Y0014035D01*
X0005643Y0014181D01*
X0005587Y0014329D01*
X0005534Y0014478D01*
X0005485Y0014629D01*
X0005440Y0014781D01*
X0005399Y0014934D01*
X0005361Y0015087D01*
X0005328Y0015242D01*
X0005298Y0015398D01*
X0005272Y0015554D01*
X0005251Y0015711D01*
X0005233Y0015868D01*
X0005219Y0016026D01*
X0005209Y0016184D01*
X0005203Y0016342D01*
X0005201Y0016500D01*
X0005201Y0196500D02*
X0005203Y0196658D01*
X0005209Y0196816D01*
X0005219Y0196974D01*
X0005233Y0197132D01*
X0005251Y0197289D01*
X0005272Y0197446D01*
X0005298Y0197602D01*
X0005328Y0197758D01*
X0005361Y0197913D01*
X0005399Y0198066D01*
X0005440Y0198219D01*
X0005485Y0198371D01*
X0005534Y0198522D01*
X0005587Y0198671D01*
X0005643Y0198819D01*
X0005703Y0198965D01*
X0005767Y0199110D01*
X0005835Y0199253D01*
X0005906Y0199395D01*
X0005980Y0199535D01*
X0006058Y0199672D01*
X0006140Y0199808D01*
X0006224Y0199942D01*
X0006313Y0200073D01*
X0006404Y0200202D01*
X0006499Y0200329D01*
X0006596Y0200454D01*
X0006697Y0200576D01*
X0006801Y0200695D01*
X0006908Y0200812D01*
X0007018Y0200926D01*
X0007131Y0201037D01*
X0007246Y0201146D01*
X0007364Y0201251D01*
X0007485Y0201353D01*
X0007608Y0201453D01*
X0007734Y0201549D01*
X0007862Y0201642D01*
X0007992Y0201732D01*
X0008125Y0201818D01*
X0008260Y0201902D01*
X0008396Y0201981D01*
X0008535Y0202058D01*
X0008676Y0202130D01*
X0008818Y0202200D01*
X0008962Y0202265D01*
X0009108Y0202327D01*
X0009255Y0202385D01*
X0009404Y0202440D01*
X0009554Y0202491D01*
X0009705Y0202538D01*
X0009857Y0202581D01*
X0010010Y0202620D01*
X0010165Y0202656D01*
X0010320Y0202687D01*
X0010476Y0202715D01*
X0010632Y0202739D01*
X0010789Y0202759D01*
X0010947Y0202775D01*
X0011104Y0202787D01*
X0011263Y0202795D01*
X0011421Y0202799D01*
X0011579Y0202799D01*
X0011737Y0202795D01*
X0011896Y0202787D01*
X0012053Y0202775D01*
X0012211Y0202759D01*
X0012368Y0202739D01*
X0012524Y0202715D01*
X0012680Y0202687D01*
X0012835Y0202656D01*
X0012990Y0202620D01*
X0013143Y0202581D01*
X0013295Y0202538D01*
X0013446Y0202491D01*
X0013596Y0202440D01*
X0013745Y0202385D01*
X0013892Y0202327D01*
X0014038Y0202265D01*
X0014182Y0202200D01*
X0014324Y0202130D01*
X0014465Y0202058D01*
X0014604Y0201981D01*
X0014740Y0201902D01*
X0014875Y0201818D01*
X0015008Y0201732D01*
X0015138Y0201642D01*
X0015266Y0201549D01*
X0015392Y0201453D01*
X0015515Y0201353D01*
X0015636Y0201251D01*
X0015754Y0201146D01*
X0015869Y0201037D01*
X0015982Y0200926D01*
X0016092Y0200812D01*
X0016199Y0200695D01*
X0016303Y0200576D01*
X0016404Y0200454D01*
X0016501Y0200329D01*
X0016596Y0200202D01*
X0016687Y0200073D01*
X0016776Y0199942D01*
X0016860Y0199808D01*
X0016942Y0199672D01*
X0017020Y0199535D01*
X0017094Y0199395D01*
X0017165Y0199253D01*
X0017233Y0199110D01*
X0017297Y0198965D01*
X0017357Y0198819D01*
X0017413Y0198671D01*
X0017466Y0198522D01*
X0017515Y0198371D01*
X0017560Y0198219D01*
X0017601Y0198066D01*
X0017639Y0197913D01*
X0017672Y0197758D01*
X0017702Y0197602D01*
X0017728Y0197446D01*
X0017749Y0197289D01*
X0017767Y0197132D01*
X0017781Y0196974D01*
X0017791Y0196816D01*
X0017797Y0196658D01*
X0017799Y0196500D01*
X0017797Y0196342D01*
X0017791Y0196184D01*
X0017781Y0196026D01*
X0017767Y0195868D01*
X0017749Y0195711D01*
X0017728Y0195554D01*
X0017702Y0195398D01*
X0017672Y0195242D01*
X0017639Y0195087D01*
X0017601Y0194934D01*
X0017560Y0194781D01*
X0017515Y0194629D01*
X0017466Y0194478D01*
X0017413Y0194329D01*
X0017357Y0194181D01*
X0017297Y0194035D01*
X0017233Y0193890D01*
X0017165Y0193747D01*
X0017094Y0193605D01*
X0017020Y0193465D01*
X0016942Y0193328D01*
X0016860Y0193192D01*
X0016776Y0193058D01*
X0016687Y0192927D01*
X0016596Y0192798D01*
X0016501Y0192671D01*
X0016404Y0192546D01*
X0016303Y0192424D01*
X0016199Y0192305D01*
X0016092Y0192188D01*
X0015982Y0192074D01*
X0015869Y0191963D01*
X0015754Y0191854D01*
X0015636Y0191749D01*
X0015515Y0191647D01*
X0015392Y0191547D01*
X0015266Y0191451D01*
X0015138Y0191358D01*
X0015008Y0191268D01*
X0014875Y0191182D01*
X0014740Y0191098D01*
X0014604Y0191019D01*
X0014465Y0190942D01*
X0014324Y0190870D01*
X0014182Y0190800D01*
X0014038Y0190735D01*
X0013892Y0190673D01*
X0013745Y0190615D01*
X0013596Y0190560D01*
X0013446Y0190509D01*
X0013295Y0190462D01*
X0013143Y0190419D01*
X0012990Y0190380D01*
X0012835Y0190344D01*
X0012680Y0190313D01*
X0012524Y0190285D01*
X0012368Y0190261D01*
X0012211Y0190241D01*
X0012053Y0190225D01*
X0011896Y0190213D01*
X0011737Y0190205D01*
X0011579Y0190201D01*
X0011421Y0190201D01*
X0011263Y0190205D01*
X0011104Y0190213D01*
X0010947Y0190225D01*
X0010789Y0190241D01*
X0010632Y0190261D01*
X0010476Y0190285D01*
X0010320Y0190313D01*
X0010165Y0190344D01*
X0010010Y0190380D01*
X0009857Y0190419D01*
X0009705Y0190462D01*
X0009554Y0190509D01*
X0009404Y0190560D01*
X0009255Y0190615D01*
X0009108Y0190673D01*
X0008962Y0190735D01*
X0008818Y0190800D01*
X0008676Y0190870D01*
X0008535Y0190942D01*
X0008396Y0191019D01*
X0008260Y0191098D01*
X0008125Y0191182D01*
X0007992Y0191268D01*
X0007862Y0191358D01*
X0007734Y0191451D01*
X0007608Y0191547D01*
X0007485Y0191647D01*
X0007364Y0191749D01*
X0007246Y0191854D01*
X0007131Y0191963D01*
X0007018Y0192074D01*
X0006908Y0192188D01*
X0006801Y0192305D01*
X0006697Y0192424D01*
X0006596Y0192546D01*
X0006499Y0192671D01*
X0006404Y0192798D01*
X0006313Y0192927D01*
X0006224Y0193058D01*
X0006140Y0193192D01*
X0006058Y0193328D01*
X0005980Y0193465D01*
X0005906Y0193605D01*
X0005835Y0193747D01*
X0005767Y0193890D01*
X0005703Y0194035D01*
X0005643Y0194181D01*
X0005587Y0194329D01*
X0005534Y0194478D01*
X0005485Y0194629D01*
X0005440Y0194781D01*
X0005399Y0194934D01*
X0005361Y0195087D01*
X0005328Y0195242D01*
X0005298Y0195398D01*
X0005272Y0195554D01*
X0005251Y0195711D01*
X0005233Y0195868D01*
X0005219Y0196026D01*
X0005209Y0196184D01*
X0005203Y0196342D01*
X0005201Y0196500D01*
X0180201Y0196500D02*
X0180203Y0196658D01*
X0180209Y0196816D01*
X0180219Y0196974D01*
X0180233Y0197132D01*
X0180251Y0197289D01*
X0180272Y0197446D01*
X0180298Y0197602D01*
X0180328Y0197758D01*
X0180361Y0197913D01*
X0180399Y0198066D01*
X0180440Y0198219D01*
X0180485Y0198371D01*
X0180534Y0198522D01*
X0180587Y0198671D01*
X0180643Y0198819D01*
X0180703Y0198965D01*
X0180767Y0199110D01*
X0180835Y0199253D01*
X0180906Y0199395D01*
X0180980Y0199535D01*
X0181058Y0199672D01*
X0181140Y0199808D01*
X0181224Y0199942D01*
X0181313Y0200073D01*
X0181404Y0200202D01*
X0181499Y0200329D01*
X0181596Y0200454D01*
X0181697Y0200576D01*
X0181801Y0200695D01*
X0181908Y0200812D01*
X0182018Y0200926D01*
X0182131Y0201037D01*
X0182246Y0201146D01*
X0182364Y0201251D01*
X0182485Y0201353D01*
X0182608Y0201453D01*
X0182734Y0201549D01*
X0182862Y0201642D01*
X0182992Y0201732D01*
X0183125Y0201818D01*
X0183260Y0201902D01*
X0183396Y0201981D01*
X0183535Y0202058D01*
X0183676Y0202130D01*
X0183818Y0202200D01*
X0183962Y0202265D01*
X0184108Y0202327D01*
X0184255Y0202385D01*
X0184404Y0202440D01*
X0184554Y0202491D01*
X0184705Y0202538D01*
X0184857Y0202581D01*
X0185010Y0202620D01*
X0185165Y0202656D01*
X0185320Y0202687D01*
X0185476Y0202715D01*
X0185632Y0202739D01*
X0185789Y0202759D01*
X0185947Y0202775D01*
X0186104Y0202787D01*
X0186263Y0202795D01*
X0186421Y0202799D01*
X0186579Y0202799D01*
X0186737Y0202795D01*
X0186896Y0202787D01*
X0187053Y0202775D01*
X0187211Y0202759D01*
X0187368Y0202739D01*
X0187524Y0202715D01*
X0187680Y0202687D01*
X0187835Y0202656D01*
X0187990Y0202620D01*
X0188143Y0202581D01*
X0188295Y0202538D01*
X0188446Y0202491D01*
X0188596Y0202440D01*
X0188745Y0202385D01*
X0188892Y0202327D01*
X0189038Y0202265D01*
X0189182Y0202200D01*
X0189324Y0202130D01*
X0189465Y0202058D01*
X0189604Y0201981D01*
X0189740Y0201902D01*
X0189875Y0201818D01*
X0190008Y0201732D01*
X0190138Y0201642D01*
X0190266Y0201549D01*
X0190392Y0201453D01*
X0190515Y0201353D01*
X0190636Y0201251D01*
X0190754Y0201146D01*
X0190869Y0201037D01*
X0190982Y0200926D01*
X0191092Y0200812D01*
X0191199Y0200695D01*
X0191303Y0200576D01*
X0191404Y0200454D01*
X0191501Y0200329D01*
X0191596Y0200202D01*
X0191687Y0200073D01*
X0191776Y0199942D01*
X0191860Y0199808D01*
X0191942Y0199672D01*
X0192020Y0199535D01*
X0192094Y0199395D01*
X0192165Y0199253D01*
X0192233Y0199110D01*
X0192297Y0198965D01*
X0192357Y0198819D01*
X0192413Y0198671D01*
X0192466Y0198522D01*
X0192515Y0198371D01*
X0192560Y0198219D01*
X0192601Y0198066D01*
X0192639Y0197913D01*
X0192672Y0197758D01*
X0192702Y0197602D01*
X0192728Y0197446D01*
X0192749Y0197289D01*
X0192767Y0197132D01*
X0192781Y0196974D01*
X0192791Y0196816D01*
X0192797Y0196658D01*
X0192799Y0196500D01*
X0192797Y0196342D01*
X0192791Y0196184D01*
X0192781Y0196026D01*
X0192767Y0195868D01*
X0192749Y0195711D01*
X0192728Y0195554D01*
X0192702Y0195398D01*
X0192672Y0195242D01*
X0192639Y0195087D01*
X0192601Y0194934D01*
X0192560Y0194781D01*
X0192515Y0194629D01*
X0192466Y0194478D01*
X0192413Y0194329D01*
X0192357Y0194181D01*
X0192297Y0194035D01*
X0192233Y0193890D01*
X0192165Y0193747D01*
X0192094Y0193605D01*
X0192020Y0193465D01*
X0191942Y0193328D01*
X0191860Y0193192D01*
X0191776Y0193058D01*
X0191687Y0192927D01*
X0191596Y0192798D01*
X0191501Y0192671D01*
X0191404Y0192546D01*
X0191303Y0192424D01*
X0191199Y0192305D01*
X0191092Y0192188D01*
X0190982Y0192074D01*
X0190869Y0191963D01*
X0190754Y0191854D01*
X0190636Y0191749D01*
X0190515Y0191647D01*
X0190392Y0191547D01*
X0190266Y0191451D01*
X0190138Y0191358D01*
X0190008Y0191268D01*
X0189875Y0191182D01*
X0189740Y0191098D01*
X0189604Y0191019D01*
X0189465Y0190942D01*
X0189324Y0190870D01*
X0189182Y0190800D01*
X0189038Y0190735D01*
X0188892Y0190673D01*
X0188745Y0190615D01*
X0188596Y0190560D01*
X0188446Y0190509D01*
X0188295Y0190462D01*
X0188143Y0190419D01*
X0187990Y0190380D01*
X0187835Y0190344D01*
X0187680Y0190313D01*
X0187524Y0190285D01*
X0187368Y0190261D01*
X0187211Y0190241D01*
X0187053Y0190225D01*
X0186896Y0190213D01*
X0186737Y0190205D01*
X0186579Y0190201D01*
X0186421Y0190201D01*
X0186263Y0190205D01*
X0186104Y0190213D01*
X0185947Y0190225D01*
X0185789Y0190241D01*
X0185632Y0190261D01*
X0185476Y0190285D01*
X0185320Y0190313D01*
X0185165Y0190344D01*
X0185010Y0190380D01*
X0184857Y0190419D01*
X0184705Y0190462D01*
X0184554Y0190509D01*
X0184404Y0190560D01*
X0184255Y0190615D01*
X0184108Y0190673D01*
X0183962Y0190735D01*
X0183818Y0190800D01*
X0183676Y0190870D01*
X0183535Y0190942D01*
X0183396Y0191019D01*
X0183260Y0191098D01*
X0183125Y0191182D01*
X0182992Y0191268D01*
X0182862Y0191358D01*
X0182734Y0191451D01*
X0182608Y0191547D01*
X0182485Y0191647D01*
X0182364Y0191749D01*
X0182246Y0191854D01*
X0182131Y0191963D01*
X0182018Y0192074D01*
X0181908Y0192188D01*
X0181801Y0192305D01*
X0181697Y0192424D01*
X0181596Y0192546D01*
X0181499Y0192671D01*
X0181404Y0192798D01*
X0181313Y0192927D01*
X0181224Y0193058D01*
X0181140Y0193192D01*
X0181058Y0193328D01*
X0180980Y0193465D01*
X0180906Y0193605D01*
X0180835Y0193747D01*
X0180767Y0193890D01*
X0180703Y0194035D01*
X0180643Y0194181D01*
X0180587Y0194329D01*
X0180534Y0194478D01*
X0180485Y0194629D01*
X0180440Y0194781D01*
X0180399Y0194934D01*
X0180361Y0195087D01*
X0180328Y0195242D01*
X0180298Y0195398D01*
X0180272Y0195554D01*
X0180251Y0195711D01*
X0180233Y0195868D01*
X0180219Y0196026D01*
X0180209Y0196184D01*
X0180203Y0196342D01*
X0180201Y0196500D01*
X0180201Y0016500D02*
X0180203Y0016658D01*
X0180209Y0016816D01*
X0180219Y0016974D01*
X0180233Y0017132D01*
X0180251Y0017289D01*
X0180272Y0017446D01*
X0180298Y0017602D01*
X0180328Y0017758D01*
X0180361Y0017913D01*
X0180399Y0018066D01*
X0180440Y0018219D01*
X0180485Y0018371D01*
X0180534Y0018522D01*
X0180587Y0018671D01*
X0180643Y0018819D01*
X0180703Y0018965D01*
X0180767Y0019110D01*
X0180835Y0019253D01*
X0180906Y0019395D01*
X0180980Y0019535D01*
X0181058Y0019672D01*
X0181140Y0019808D01*
X0181224Y0019942D01*
X0181313Y0020073D01*
X0181404Y0020202D01*
X0181499Y0020329D01*
X0181596Y0020454D01*
X0181697Y0020576D01*
X0181801Y0020695D01*
X0181908Y0020812D01*
X0182018Y0020926D01*
X0182131Y0021037D01*
X0182246Y0021146D01*
X0182364Y0021251D01*
X0182485Y0021353D01*
X0182608Y0021453D01*
X0182734Y0021549D01*
X0182862Y0021642D01*
X0182992Y0021732D01*
X0183125Y0021818D01*
X0183260Y0021902D01*
X0183396Y0021981D01*
X0183535Y0022058D01*
X0183676Y0022130D01*
X0183818Y0022200D01*
X0183962Y0022265D01*
X0184108Y0022327D01*
X0184255Y0022385D01*
X0184404Y0022440D01*
X0184554Y0022491D01*
X0184705Y0022538D01*
X0184857Y0022581D01*
X0185010Y0022620D01*
X0185165Y0022656D01*
X0185320Y0022687D01*
X0185476Y0022715D01*
X0185632Y0022739D01*
X0185789Y0022759D01*
X0185947Y0022775D01*
X0186104Y0022787D01*
X0186263Y0022795D01*
X0186421Y0022799D01*
X0186579Y0022799D01*
X0186737Y0022795D01*
X0186896Y0022787D01*
X0187053Y0022775D01*
X0187211Y0022759D01*
X0187368Y0022739D01*
X0187524Y0022715D01*
X0187680Y0022687D01*
X0187835Y0022656D01*
X0187990Y0022620D01*
X0188143Y0022581D01*
X0188295Y0022538D01*
X0188446Y0022491D01*
X0188596Y0022440D01*
X0188745Y0022385D01*
X0188892Y0022327D01*
X0189038Y0022265D01*
X0189182Y0022200D01*
X0189324Y0022130D01*
X0189465Y0022058D01*
X0189604Y0021981D01*
X0189740Y0021902D01*
X0189875Y0021818D01*
X0190008Y0021732D01*
X0190138Y0021642D01*
X0190266Y0021549D01*
X0190392Y0021453D01*
X0190515Y0021353D01*
X0190636Y0021251D01*
X0190754Y0021146D01*
X0190869Y0021037D01*
X0190982Y0020926D01*
X0191092Y0020812D01*
X0191199Y0020695D01*
X0191303Y0020576D01*
X0191404Y0020454D01*
X0191501Y0020329D01*
X0191596Y0020202D01*
X0191687Y0020073D01*
X0191776Y0019942D01*
X0191860Y0019808D01*
X0191942Y0019672D01*
X0192020Y0019535D01*
X0192094Y0019395D01*
X0192165Y0019253D01*
X0192233Y0019110D01*
X0192297Y0018965D01*
X0192357Y0018819D01*
X0192413Y0018671D01*
X0192466Y0018522D01*
X0192515Y0018371D01*
X0192560Y0018219D01*
X0192601Y0018066D01*
X0192639Y0017913D01*
X0192672Y0017758D01*
X0192702Y0017602D01*
X0192728Y0017446D01*
X0192749Y0017289D01*
X0192767Y0017132D01*
X0192781Y0016974D01*
X0192791Y0016816D01*
X0192797Y0016658D01*
X0192799Y0016500D01*
X0192797Y0016342D01*
X0192791Y0016184D01*
X0192781Y0016026D01*
X0192767Y0015868D01*
X0192749Y0015711D01*
X0192728Y0015554D01*
X0192702Y0015398D01*
X0192672Y0015242D01*
X0192639Y0015087D01*
X0192601Y0014934D01*
X0192560Y0014781D01*
X0192515Y0014629D01*
X0192466Y0014478D01*
X0192413Y0014329D01*
X0192357Y0014181D01*
X0192297Y0014035D01*
X0192233Y0013890D01*
X0192165Y0013747D01*
X0192094Y0013605D01*
X0192020Y0013465D01*
X0191942Y0013328D01*
X0191860Y0013192D01*
X0191776Y0013058D01*
X0191687Y0012927D01*
X0191596Y0012798D01*
X0191501Y0012671D01*
X0191404Y0012546D01*
X0191303Y0012424D01*
X0191199Y0012305D01*
X0191092Y0012188D01*
X0190982Y0012074D01*
X0190869Y0011963D01*
X0190754Y0011854D01*
X0190636Y0011749D01*
X0190515Y0011647D01*
X0190392Y0011547D01*
X0190266Y0011451D01*
X0190138Y0011358D01*
X0190008Y0011268D01*
X0189875Y0011182D01*
X0189740Y0011098D01*
X0189604Y0011019D01*
X0189465Y0010942D01*
X0189324Y0010870D01*
X0189182Y0010800D01*
X0189038Y0010735D01*
X0188892Y0010673D01*
X0188745Y0010615D01*
X0188596Y0010560D01*
X0188446Y0010509D01*
X0188295Y0010462D01*
X0188143Y0010419D01*
X0187990Y0010380D01*
X0187835Y0010344D01*
X0187680Y0010313D01*
X0187524Y0010285D01*
X0187368Y0010261D01*
X0187211Y0010241D01*
X0187053Y0010225D01*
X0186896Y0010213D01*
X0186737Y0010205D01*
X0186579Y0010201D01*
X0186421Y0010201D01*
X0186263Y0010205D01*
X0186104Y0010213D01*
X0185947Y0010225D01*
X0185789Y0010241D01*
X0185632Y0010261D01*
X0185476Y0010285D01*
X0185320Y0010313D01*
X0185165Y0010344D01*
X0185010Y0010380D01*
X0184857Y0010419D01*
X0184705Y0010462D01*
X0184554Y0010509D01*
X0184404Y0010560D01*
X0184255Y0010615D01*
X0184108Y0010673D01*
X0183962Y0010735D01*
X0183818Y0010800D01*
X0183676Y0010870D01*
X0183535Y0010942D01*
X0183396Y0011019D01*
X0183260Y0011098D01*
X0183125Y0011182D01*
X0182992Y0011268D01*
X0182862Y0011358D01*
X0182734Y0011451D01*
X0182608Y0011547D01*
X0182485Y0011647D01*
X0182364Y0011749D01*
X0182246Y0011854D01*
X0182131Y0011963D01*
X0182018Y0012074D01*
X0181908Y0012188D01*
X0181801Y0012305D01*
X0181697Y0012424D01*
X0181596Y0012546D01*
X0181499Y0012671D01*
X0181404Y0012798D01*
X0181313Y0012927D01*
X0181224Y0013058D01*
X0181140Y0013192D01*
X0181058Y0013328D01*
X0180980Y0013465D01*
X0180906Y0013605D01*
X0180835Y0013747D01*
X0180767Y0013890D01*
X0180703Y0014035D01*
X0180643Y0014181D01*
X0180587Y0014329D01*
X0180534Y0014478D01*
X0180485Y0014629D01*
X0180440Y0014781D01*
X0180399Y0014934D01*
X0180361Y0015087D01*
X0180328Y0015242D01*
X0180298Y0015398D01*
X0180272Y0015554D01*
X0180251Y0015711D01*
X0180233Y0015868D01*
X0180219Y0016026D01*
X0180209Y0016184D01*
X0180203Y0016342D01*
X0180201Y0016500D01*
D11*
X0090280Y0119374D03*
X0090280Y0127248D03*
X0090280Y0135122D03*
X0090280Y0142996D03*
X0090280Y0150870D03*
X0090280Y0158744D03*
X0090280Y0166618D03*
X0090280Y0174492D03*
X0026500Y0174492D03*
X0026500Y0166618D03*
X0026500Y0158744D03*
X0026500Y0150870D03*
X0026500Y0142996D03*
X0026500Y0135122D03*
X0026500Y0127248D03*
X0026500Y0119374D03*
D12*
X0101500Y0193300D02*
X0101500Y0199700D01*
X0111500Y0199700D02*
X0111500Y0193300D01*
X0121500Y0193300D02*
X0121500Y0199700D01*
X0131500Y0199700D02*
X0131500Y0193300D01*
X0126500Y0174700D02*
X0126500Y0168300D01*
X0136500Y0168300D02*
X0136500Y0174700D01*
X0146500Y0174700D02*
X0146500Y0168300D01*
X0146500Y0144700D02*
X0146500Y0138300D01*
X0136500Y0138300D02*
X0136500Y0144700D01*
X0126500Y0144700D02*
X0126500Y0138300D01*
X0126500Y0114700D02*
X0126500Y0108300D01*
X0136500Y0108300D02*
X0136500Y0114700D01*
X0146500Y0114700D02*
X0146500Y0108300D01*
X0146500Y0084700D02*
X0146500Y0078300D01*
X0136500Y0078300D02*
X0136500Y0084700D01*
X0126500Y0084700D02*
X0126500Y0078300D01*
X0126500Y0054700D02*
X0126500Y0048300D01*
X0136500Y0048300D02*
X0136500Y0054700D01*
X0146500Y0054700D02*
X0146500Y0048300D01*
D13*
X0106500Y0082760D03*
X0106500Y0090240D03*
X0106500Y0102760D03*
X0106500Y0110240D03*
X0106500Y0132760D03*
X0106500Y0140240D03*
X0111500Y0162760D03*
X0111500Y0170240D03*
X0011500Y0130240D03*
X0011500Y0122760D03*
D14*
X0047760Y0091500D03*
X0055240Y0091500D03*
X0055240Y0076500D03*
X0047760Y0076500D03*
X0102760Y0066500D03*
X0110240Y0066500D03*
D15*
X0011500Y0154098D03*
X0011500Y0178902D03*
D16*
X0086500Y0027550D02*
X0086500Y0020450D01*
X0106500Y0020450D02*
X0106500Y0027550D01*
X0175450Y0041500D02*
X0182550Y0041500D01*
X0182550Y0061500D02*
X0175450Y0061500D01*
X0175450Y0081500D02*
X0182550Y0081500D01*
X0182550Y0101500D02*
X0175450Y0101500D01*
X0175450Y0131500D02*
X0182550Y0131500D01*
X0182550Y0151500D02*
X0175450Y0151500D01*
X0175450Y0171500D02*
X0182550Y0171500D01*
D17*
X0061500Y0036500D03*
X0021500Y0084500D03*
D18*
X0021500Y0098500D03*
X0051500Y0036500D03*
D19*
X0047760Y0076500D02*
X0036500Y0076500D01*
X0028500Y0091500D02*
X0021500Y0084500D01*
X0028500Y0091500D02*
X0047760Y0091500D01*
X0055240Y0091500D02*
X0055240Y0097760D01*
X0041500Y0111500D01*
X0036500Y0111500D01*
X0026500Y0119374D02*
X0013626Y0119374D01*
X0011500Y0121500D01*
X0011500Y0108500D01*
X0021500Y0098500D01*
X0026500Y0127248D02*
X0035752Y0127248D01*
X0061500Y0101500D01*
X0086500Y0101500D01*
X0091500Y0096500D01*
X0091500Y0081500D01*
X0101500Y0071500D01*
X0101500Y0065240D01*
X0102760Y0066500D01*
X0101500Y0067760D01*
X0101500Y0065240D02*
X0101500Y0056500D01*
X0106500Y0051500D01*
X0126500Y0051500D01*
X0121500Y0066500D02*
X0110240Y0066500D01*
X0105240Y0081500D02*
X0101500Y0081500D01*
X0096500Y0086500D01*
X0096500Y0101500D01*
X0091500Y0106500D01*
X0066500Y0106500D01*
X0037878Y0135122D01*
X0026500Y0135122D01*
X0026500Y0142996D02*
X0040004Y0142996D01*
X0071500Y0111500D01*
X0105240Y0111500D01*
X0106500Y0110240D01*
X0127760Y0110240D01*
X0126500Y0111500D01*
X0116500Y0126500D02*
X0111500Y0126500D01*
X0106500Y0131500D01*
X0106500Y0132760D01*
X0106500Y0140240D02*
X0107760Y0141500D01*
X0126500Y0141500D01*
X0121500Y0156500D02*
X0116500Y0156500D01*
X0111500Y0161500D01*
X0111500Y0162760D01*
X0111500Y0170240D02*
X0110240Y0171500D01*
X0111500Y0171500D01*
X0098744Y0158744D01*
X0090280Y0158744D01*
X0090280Y0150870D02*
X0097130Y0150870D01*
X0106500Y0141500D01*
X0106500Y0140240D01*
X0090004Y0142996D02*
X0085004Y0142996D01*
X0081500Y0146500D01*
X0081500Y0181500D01*
X0086500Y0186500D01*
X0096500Y0186500D02*
X0096500Y0176500D01*
X0094492Y0174492D01*
X0090280Y0174492D01*
X0090280Y0166618D02*
X0096618Y0166618D01*
X0101500Y0171500D01*
X0101500Y0181500D01*
X0111500Y0191500D01*
X0111500Y0196500D01*
X0101500Y0196500D02*
X0101500Y0191500D01*
X0096500Y0186500D01*
X0112760Y0171500D02*
X0111500Y0170240D01*
X0112760Y0171500D02*
X0126500Y0171500D01*
X0090280Y0135122D02*
X0082878Y0135122D01*
X0076500Y0141500D01*
X0076500Y0161500D01*
X0071500Y0166500D01*
X0061500Y0166500D01*
X0046500Y0171500D02*
X0043508Y0174492D01*
X0026500Y0174492D01*
X0015909Y0174492D01*
X0011500Y0178902D01*
X0016618Y0166618D02*
X0016500Y0166500D01*
X0016618Y0166618D02*
X0026500Y0166618D01*
X0026500Y0158744D02*
X0033744Y0158744D01*
X0036500Y0161500D01*
X0036500Y0166500D01*
X0011500Y0154098D02*
X0011500Y0141500D01*
X0011500Y0130240D01*
X0055240Y0091500D02*
X0055240Y0076500D01*
X0090280Y0119374D02*
X0099374Y0119374D01*
X0101500Y0121500D01*
X0090280Y0127248D02*
X0072248Y0127248D01*
X0071500Y0126500D01*
X0106500Y0102760D02*
X0106500Y0096500D01*
X0116500Y0096500D01*
X0106500Y0096500D02*
X0106500Y0090240D01*
X0106500Y0082760D02*
X0105240Y0081500D01*
X0126500Y0081500D01*
D20*
X0116500Y0096500D03*
X0101500Y0121500D03*
X0116500Y0126500D03*
X0121500Y0156500D03*
X0071500Y0126500D03*
X0036500Y0111500D03*
X0011500Y0141500D03*
X0016500Y0166500D03*
X0036500Y0166500D03*
X0046500Y0171500D03*
X0061500Y0166500D03*
X0036500Y0076500D03*
X0121500Y0066500D03*
D21*
X0086500Y0186500D03*
D22*
X0136500Y0131500D02*
X0156500Y0131500D01*
X0176500Y0111500D01*
X0186500Y0111500D01*
X0186500Y0096500D01*
X0171500Y0096500D01*
X0151500Y0116500D01*
X0151166Y0116500D01*
X0150739Y0117532D01*
X0149332Y0118939D01*
X0147495Y0119700D01*
X0145505Y0119700D01*
X0143668Y0118939D01*
X0142261Y0117532D01*
X0141500Y0115695D01*
X0141500Y0107305D01*
X0141834Y0106500D01*
X0131500Y0106500D01*
X0131500Y0126500D01*
X0136500Y0131500D01*
X0136145Y0131145D02*
X0156855Y0131145D01*
X0158053Y0129947D02*
X0134947Y0129947D01*
X0133748Y0128748D02*
X0159252Y0128748D01*
X0160450Y0127550D02*
X0132550Y0127550D01*
X0131500Y0126351D02*
X0161649Y0126351D01*
X0162847Y0125153D02*
X0131500Y0125153D01*
X0131500Y0123954D02*
X0164046Y0123954D01*
X0165244Y0122756D02*
X0131500Y0122756D01*
X0131500Y0121557D02*
X0166443Y0121557D01*
X0167641Y0120359D02*
X0131500Y0120359D01*
X0131500Y0119160D02*
X0144202Y0119160D01*
X0142690Y0117962D02*
X0131500Y0117962D01*
X0131500Y0116763D02*
X0141943Y0116763D01*
X0141500Y0115565D02*
X0131500Y0115565D01*
X0131500Y0114366D02*
X0141500Y0114366D01*
X0141500Y0113168D02*
X0131500Y0113168D01*
X0131500Y0111969D02*
X0141500Y0111969D01*
X0141500Y0110770D02*
X0131500Y0110770D01*
X0131500Y0109572D02*
X0141500Y0109572D01*
X0141500Y0108373D02*
X0131500Y0108373D01*
X0131500Y0107175D02*
X0141554Y0107175D01*
X0151057Y0116763D02*
X0171237Y0116763D01*
X0172435Y0115565D02*
X0152435Y0115565D01*
X0153634Y0114366D02*
X0173634Y0114366D01*
X0174832Y0113168D02*
X0154832Y0113168D01*
X0156031Y0111969D02*
X0176031Y0111969D01*
X0170038Y0117962D02*
X0150309Y0117962D01*
X0148798Y0119160D02*
X0168840Y0119160D01*
X0158428Y0109572D02*
X0186500Y0109572D01*
X0186500Y0110770D02*
X0157230Y0110770D01*
X0159627Y0108373D02*
X0186500Y0108373D01*
X0186500Y0107175D02*
X0160825Y0107175D01*
X0162024Y0105976D02*
X0186500Y0105976D01*
X0186500Y0104778D02*
X0163222Y0104778D01*
X0164421Y0103579D02*
X0186500Y0103579D01*
X0186500Y0102381D02*
X0165619Y0102381D01*
X0166818Y0101182D02*
X0186500Y0101182D01*
X0186500Y0099984D02*
X0168016Y0099984D01*
X0169215Y0098785D02*
X0186500Y0098785D01*
X0186500Y0097587D02*
X0170413Y0097587D01*
D23*
X0161500Y0091500D02*
X0186500Y0091500D01*
X0186500Y0076500D01*
X0161500Y0076500D01*
X0151500Y0086500D01*
X0151058Y0086500D01*
X0150654Y0087476D01*
X0149276Y0088854D01*
X0147475Y0089600D01*
X0145525Y0089600D01*
X0143724Y0088854D01*
X0142346Y0087476D01*
X0141600Y0085675D01*
X0141600Y0077325D01*
X0141942Y0076500D01*
X0131500Y0076500D01*
X0131500Y0096500D01*
X0136500Y0101500D01*
X0151500Y0101500D01*
X0161500Y0091500D01*
X0160628Y0092372D02*
X0131500Y0092372D01*
X0131500Y0093370D02*
X0159630Y0093370D01*
X0158631Y0094369D02*
X0131500Y0094369D01*
X0131500Y0095368D02*
X0157632Y0095368D01*
X0156634Y0096366D02*
X0131500Y0096366D01*
X0132365Y0097365D02*
X0155635Y0097365D01*
X0154637Y0098363D02*
X0133363Y0098363D01*
X0134362Y0099362D02*
X0153638Y0099362D01*
X0152640Y0100360D02*
X0135360Y0100360D01*
X0136359Y0101359D02*
X0151641Y0101359D01*
X0148014Y0089376D02*
X0186500Y0089376D01*
X0186500Y0088378D02*
X0149752Y0088378D01*
X0150694Y0087379D02*
X0186500Y0087379D01*
X0186500Y0086381D02*
X0151619Y0086381D01*
X0152618Y0085382D02*
X0186500Y0085382D01*
X0186500Y0084384D02*
X0153616Y0084384D01*
X0154615Y0083385D02*
X0186500Y0083385D01*
X0186500Y0082387D02*
X0155613Y0082387D01*
X0156612Y0081388D02*
X0186500Y0081388D01*
X0186500Y0080390D02*
X0157610Y0080390D01*
X0158609Y0079391D02*
X0186500Y0079391D01*
X0186500Y0078393D02*
X0159607Y0078393D01*
X0160606Y0077394D02*
X0186500Y0077394D01*
X0186500Y0071500D02*
X0186500Y0056500D01*
X0151500Y0056500D01*
X0151494Y0056494D01*
X0150993Y0057702D01*
X0149502Y0059193D01*
X0147554Y0060000D01*
X0145446Y0060000D01*
X0143498Y0059193D01*
X0142007Y0057702D01*
X0141200Y0055754D01*
X0141200Y0047246D01*
X0141506Y0046506D01*
X0141500Y0046500D01*
X0131500Y0046500D01*
X0131500Y0046522D01*
X0131800Y0047246D01*
X0131800Y0055754D01*
X0131500Y0056478D01*
X0131500Y0066500D01*
X0136500Y0071500D01*
X0186500Y0071500D01*
X0186500Y0071403D02*
X0136403Y0071403D01*
X0135405Y0070405D02*
X0186500Y0070405D01*
X0186500Y0069406D02*
X0134406Y0069406D01*
X0133408Y0068408D02*
X0186500Y0068408D01*
X0186500Y0067409D02*
X0132409Y0067409D01*
X0131500Y0066411D02*
X0186500Y0066411D01*
X0186500Y0065412D02*
X0131500Y0065412D01*
X0131500Y0064414D02*
X0186500Y0064414D01*
X0186500Y0063415D02*
X0131500Y0063415D01*
X0131500Y0062417D02*
X0186500Y0062417D01*
X0186500Y0061418D02*
X0131500Y0061418D01*
X0131500Y0060420D02*
X0186500Y0060420D01*
X0186500Y0059421D02*
X0148952Y0059421D01*
X0150273Y0058423D02*
X0186500Y0058423D01*
X0186500Y0057424D02*
X0151108Y0057424D01*
X0144048Y0059421D02*
X0131500Y0059421D01*
X0131500Y0058423D02*
X0142727Y0058423D01*
X0141892Y0057424D02*
X0131500Y0057424D01*
X0131522Y0056426D02*
X0141478Y0056426D01*
X0141200Y0055427D02*
X0131800Y0055427D01*
X0131800Y0054429D02*
X0141200Y0054429D01*
X0141200Y0053430D02*
X0131800Y0053430D01*
X0131800Y0052432D02*
X0141200Y0052432D01*
X0141200Y0051433D02*
X0131800Y0051433D01*
X0131800Y0050434D02*
X0141200Y0050434D01*
X0141200Y0049436D02*
X0131800Y0049436D01*
X0131800Y0048437D02*
X0141200Y0048437D01*
X0141200Y0047439D02*
X0131800Y0047439D01*
X0131500Y0077394D02*
X0141600Y0077394D01*
X0141600Y0078393D02*
X0131500Y0078393D01*
X0131500Y0079391D02*
X0141600Y0079391D01*
X0141600Y0080390D02*
X0131500Y0080390D01*
X0131500Y0081388D02*
X0141600Y0081388D01*
X0141600Y0082387D02*
X0131500Y0082387D01*
X0131500Y0083385D02*
X0141600Y0083385D01*
X0141600Y0084384D02*
X0131500Y0084384D01*
X0131500Y0085382D02*
X0141600Y0085382D01*
X0141893Y0086381D02*
X0131500Y0086381D01*
X0131500Y0087379D02*
X0142306Y0087379D01*
X0143248Y0088378D02*
X0131500Y0088378D01*
X0131500Y0089376D02*
X0144986Y0089376D01*
X0131500Y0090375D02*
X0186500Y0090375D01*
X0186500Y0091373D02*
X0131500Y0091373D01*
X0131500Y0136500D02*
X0141942Y0136500D01*
X0141600Y0137325D01*
X0141600Y0145675D01*
X0142346Y0147476D01*
X0143724Y0148854D01*
X0145525Y0149600D01*
X0147475Y0149600D01*
X0149276Y0148854D01*
X0150654Y0147476D01*
X0151058Y0146500D01*
X0186500Y0146500D01*
X0186500Y0161500D01*
X0141500Y0161500D01*
X0131500Y0151500D01*
X0131500Y0136500D01*
X0131500Y0137305D02*
X0141608Y0137305D01*
X0141600Y0138303D02*
X0131500Y0138303D01*
X0131500Y0139302D02*
X0141600Y0139302D01*
X0141600Y0140301D02*
X0131500Y0140301D01*
X0131500Y0141299D02*
X0141600Y0141299D01*
X0141600Y0142298D02*
X0131500Y0142298D01*
X0131500Y0143296D02*
X0141600Y0143296D01*
X0141600Y0144295D02*
X0131500Y0144295D01*
X0131500Y0145293D02*
X0141600Y0145293D01*
X0141856Y0146292D02*
X0131500Y0146292D01*
X0131500Y0147290D02*
X0142269Y0147290D01*
X0143159Y0148289D02*
X0131500Y0148289D01*
X0131500Y0149287D02*
X0144770Y0149287D01*
X0148230Y0149287D02*
X0186500Y0149287D01*
X0186500Y0148289D02*
X0149841Y0148289D01*
X0150731Y0147290D02*
X0186500Y0147290D01*
X0186500Y0150286D02*
X0131500Y0150286D01*
X0131500Y0151284D02*
X0186500Y0151284D01*
X0186500Y0152283D02*
X0132283Y0152283D01*
X0133281Y0153281D02*
X0186500Y0153281D01*
X0186500Y0154280D02*
X0134280Y0154280D01*
X0135278Y0155278D02*
X0186500Y0155278D01*
X0186500Y0156277D02*
X0136277Y0156277D01*
X0137275Y0157275D02*
X0186500Y0157275D01*
X0186500Y0158274D02*
X0138274Y0158274D01*
X0139272Y0159272D02*
X0186500Y0159272D01*
X0186500Y0160271D02*
X0140271Y0160271D01*
X0141269Y0161269D02*
X0186500Y0161269D01*
X0186500Y0166500D02*
X0171500Y0166500D01*
X0161500Y0176500D01*
X0151058Y0176500D01*
X0150654Y0177476D01*
X0149276Y0178854D01*
X0147475Y0179600D01*
X0145525Y0179600D01*
X0143724Y0178854D01*
X0142346Y0177476D01*
X0141600Y0175675D01*
X0141600Y0167325D01*
X0141942Y0166500D01*
X0131500Y0166500D01*
X0131500Y0181500D01*
X0141500Y0191500D01*
X0171500Y0191500D01*
X0186500Y0176500D01*
X0186500Y0166500D01*
X0186500Y0167260D02*
X0170740Y0167260D01*
X0169741Y0168259D02*
X0186500Y0168259D01*
X0186500Y0169257D02*
X0168743Y0169257D01*
X0167744Y0170256D02*
X0186500Y0170256D01*
X0186500Y0171254D02*
X0166746Y0171254D01*
X0165747Y0172253D02*
X0186500Y0172253D01*
X0186500Y0173251D02*
X0164749Y0173251D01*
X0163750Y0174250D02*
X0186500Y0174250D01*
X0186500Y0175248D02*
X0162752Y0175248D01*
X0161753Y0176247D02*
X0186500Y0176247D01*
X0185755Y0177245D02*
X0150749Y0177245D01*
X0149886Y0178244D02*
X0184756Y0178244D01*
X0183758Y0179242D02*
X0148338Y0179242D01*
X0144662Y0179242D02*
X0131500Y0179242D01*
X0131500Y0178244D02*
X0143114Y0178244D01*
X0142251Y0177245D02*
X0131500Y0177245D01*
X0131500Y0176247D02*
X0141837Y0176247D01*
X0141600Y0175248D02*
X0131500Y0175248D01*
X0131500Y0174250D02*
X0141600Y0174250D01*
X0141600Y0173251D02*
X0131500Y0173251D01*
X0131500Y0172253D02*
X0141600Y0172253D01*
X0141600Y0171254D02*
X0131500Y0171254D01*
X0131500Y0170256D02*
X0141600Y0170256D01*
X0141600Y0169257D02*
X0131500Y0169257D01*
X0131500Y0168259D02*
X0141600Y0168259D01*
X0141627Y0167260D02*
X0131500Y0167260D01*
X0131500Y0180241D02*
X0182759Y0180241D01*
X0181761Y0181239D02*
X0131500Y0181239D01*
X0132238Y0182238D02*
X0180762Y0182238D01*
X0179763Y0183237D02*
X0133237Y0183237D01*
X0134235Y0184235D02*
X0178765Y0184235D01*
X0177766Y0185234D02*
X0135234Y0185234D01*
X0136232Y0186232D02*
X0176768Y0186232D01*
X0175769Y0187231D02*
X0137231Y0187231D01*
X0138229Y0188229D02*
X0174771Y0188229D01*
X0173772Y0189228D02*
X0139228Y0189228D01*
X0140226Y0190226D02*
X0172774Y0190226D01*
X0171775Y0191225D02*
X0141225Y0191225D01*
M02*
