G75*
%MOIN*%
%OFA0B0*%
%FSLAX25Y25*%
%IPPOS*%
%LPD*%
%AMOC8*
5,1,8,0,0,1.08239X$1,22.5*
%
%ADD10C,0.00000*%
%ADD11R,0.05906X0.05118*%
%ADD12C,0.04500*%
%ADD13R,0.05118X0.05906*%
%ADD14C,0.06400*%
%ADD15C,0.07100*%
%ADD16OC8,0.06300*%
%ADD17C,0.06300*%
%ADD18OC8,0.03962*%
%ADD19C,0.02400*%
%ADD20C,0.03962*%
%ADD21C,0.01000*%
D10*
X0001500Y0006500D02*
X0001500Y0205201D01*
X0196421Y0205201D01*
X0196421Y0006500D01*
X0001500Y0006500D01*
X0005201Y0016500D02*
X0005203Y0016658D01*
X0005209Y0016816D01*
X0005219Y0016974D01*
X0005233Y0017132D01*
X0005251Y0017289D01*
X0005272Y0017446D01*
X0005298Y0017602D01*
X0005328Y0017758D01*
X0005361Y0017913D01*
X0005399Y0018066D01*
X0005440Y0018219D01*
X0005485Y0018371D01*
X0005534Y0018522D01*
X0005587Y0018671D01*
X0005643Y0018819D01*
X0005703Y0018965D01*
X0005767Y0019110D01*
X0005835Y0019253D01*
X0005906Y0019395D01*
X0005980Y0019535D01*
X0006058Y0019672D01*
X0006140Y0019808D01*
X0006224Y0019942D01*
X0006313Y0020073D01*
X0006404Y0020202D01*
X0006499Y0020329D01*
X0006596Y0020454D01*
X0006697Y0020576D01*
X0006801Y0020695D01*
X0006908Y0020812D01*
X0007018Y0020926D01*
X0007131Y0021037D01*
X0007246Y0021146D01*
X0007364Y0021251D01*
X0007485Y0021353D01*
X0007608Y0021453D01*
X0007734Y0021549D01*
X0007862Y0021642D01*
X0007992Y0021732D01*
X0008125Y0021818D01*
X0008260Y0021902D01*
X0008396Y0021981D01*
X0008535Y0022058D01*
X0008676Y0022130D01*
X0008818Y0022200D01*
X0008962Y0022265D01*
X0009108Y0022327D01*
X0009255Y0022385D01*
X0009404Y0022440D01*
X0009554Y0022491D01*
X0009705Y0022538D01*
X0009857Y0022581D01*
X0010010Y0022620D01*
X0010165Y0022656D01*
X0010320Y0022687D01*
X0010476Y0022715D01*
X0010632Y0022739D01*
X0010789Y0022759D01*
X0010947Y0022775D01*
X0011104Y0022787D01*
X0011263Y0022795D01*
X0011421Y0022799D01*
X0011579Y0022799D01*
X0011737Y0022795D01*
X0011896Y0022787D01*
X0012053Y0022775D01*
X0012211Y0022759D01*
X0012368Y0022739D01*
X0012524Y0022715D01*
X0012680Y0022687D01*
X0012835Y0022656D01*
X0012990Y0022620D01*
X0013143Y0022581D01*
X0013295Y0022538D01*
X0013446Y0022491D01*
X0013596Y0022440D01*
X0013745Y0022385D01*
X0013892Y0022327D01*
X0014038Y0022265D01*
X0014182Y0022200D01*
X0014324Y0022130D01*
X0014465Y0022058D01*
X0014604Y0021981D01*
X0014740Y0021902D01*
X0014875Y0021818D01*
X0015008Y0021732D01*
X0015138Y0021642D01*
X0015266Y0021549D01*
X0015392Y0021453D01*
X0015515Y0021353D01*
X0015636Y0021251D01*
X0015754Y0021146D01*
X0015869Y0021037D01*
X0015982Y0020926D01*
X0016092Y0020812D01*
X0016199Y0020695D01*
X0016303Y0020576D01*
X0016404Y0020454D01*
X0016501Y0020329D01*
X0016596Y0020202D01*
X0016687Y0020073D01*
X0016776Y0019942D01*
X0016860Y0019808D01*
X0016942Y0019672D01*
X0017020Y0019535D01*
X0017094Y0019395D01*
X0017165Y0019253D01*
X0017233Y0019110D01*
X0017297Y0018965D01*
X0017357Y0018819D01*
X0017413Y0018671D01*
X0017466Y0018522D01*
X0017515Y0018371D01*
X0017560Y0018219D01*
X0017601Y0018066D01*
X0017639Y0017913D01*
X0017672Y0017758D01*
X0017702Y0017602D01*
X0017728Y0017446D01*
X0017749Y0017289D01*
X0017767Y0017132D01*
X0017781Y0016974D01*
X0017791Y0016816D01*
X0017797Y0016658D01*
X0017799Y0016500D01*
X0017797Y0016342D01*
X0017791Y0016184D01*
X0017781Y0016026D01*
X0017767Y0015868D01*
X0017749Y0015711D01*
X0017728Y0015554D01*
X0017702Y0015398D01*
X0017672Y0015242D01*
X0017639Y0015087D01*
X0017601Y0014934D01*
X0017560Y0014781D01*
X0017515Y0014629D01*
X0017466Y0014478D01*
X0017413Y0014329D01*
X0017357Y0014181D01*
X0017297Y0014035D01*
X0017233Y0013890D01*
X0017165Y0013747D01*
X0017094Y0013605D01*
X0017020Y0013465D01*
X0016942Y0013328D01*
X0016860Y0013192D01*
X0016776Y0013058D01*
X0016687Y0012927D01*
X0016596Y0012798D01*
X0016501Y0012671D01*
X0016404Y0012546D01*
X0016303Y0012424D01*
X0016199Y0012305D01*
X0016092Y0012188D01*
X0015982Y0012074D01*
X0015869Y0011963D01*
X0015754Y0011854D01*
X0015636Y0011749D01*
X0015515Y0011647D01*
X0015392Y0011547D01*
X0015266Y0011451D01*
X0015138Y0011358D01*
X0015008Y0011268D01*
X0014875Y0011182D01*
X0014740Y0011098D01*
X0014604Y0011019D01*
X0014465Y0010942D01*
X0014324Y0010870D01*
X0014182Y0010800D01*
X0014038Y0010735D01*
X0013892Y0010673D01*
X0013745Y0010615D01*
X0013596Y0010560D01*
X0013446Y0010509D01*
X0013295Y0010462D01*
X0013143Y0010419D01*
X0012990Y0010380D01*
X0012835Y0010344D01*
X0012680Y0010313D01*
X0012524Y0010285D01*
X0012368Y0010261D01*
X0012211Y0010241D01*
X0012053Y0010225D01*
X0011896Y0010213D01*
X0011737Y0010205D01*
X0011579Y0010201D01*
X0011421Y0010201D01*
X0011263Y0010205D01*
X0011104Y0010213D01*
X0010947Y0010225D01*
X0010789Y0010241D01*
X0010632Y0010261D01*
X0010476Y0010285D01*
X0010320Y0010313D01*
X0010165Y0010344D01*
X0010010Y0010380D01*
X0009857Y0010419D01*
X0009705Y0010462D01*
X0009554Y0010509D01*
X0009404Y0010560D01*
X0009255Y0010615D01*
X0009108Y0010673D01*
X0008962Y0010735D01*
X0008818Y0010800D01*
X0008676Y0010870D01*
X0008535Y0010942D01*
X0008396Y0011019D01*
X0008260Y0011098D01*
X0008125Y0011182D01*
X0007992Y0011268D01*
X0007862Y0011358D01*
X0007734Y0011451D01*
X0007608Y0011547D01*
X0007485Y0011647D01*
X0007364Y0011749D01*
X0007246Y0011854D01*
X0007131Y0011963D01*
X0007018Y0012074D01*
X0006908Y0012188D01*
X0006801Y0012305D01*
X0006697Y0012424D01*
X0006596Y0012546D01*
X0006499Y0012671D01*
X0006404Y0012798D01*
X0006313Y0012927D01*
X0006224Y0013058D01*
X0006140Y0013192D01*
X0006058Y0013328D01*
X0005980Y0013465D01*
X0005906Y0013605D01*
X0005835Y0013747D01*
X0005767Y0013890D01*
X0005703Y0014035D01*
X0005643Y0014181D01*
X0005587Y0014329D01*
X0005534Y0014478D01*
X0005485Y0014629D01*
X0005440Y0014781D01*
X0005399Y0014934D01*
X0005361Y0015087D01*
X0005328Y0015242D01*
X0005298Y0015398D01*
X0005272Y0015554D01*
X0005251Y0015711D01*
X0005233Y0015868D01*
X0005219Y0016026D01*
X0005209Y0016184D01*
X0005203Y0016342D01*
X0005201Y0016500D01*
X0005201Y0196500D02*
X0005203Y0196658D01*
X0005209Y0196816D01*
X0005219Y0196974D01*
X0005233Y0197132D01*
X0005251Y0197289D01*
X0005272Y0197446D01*
X0005298Y0197602D01*
X0005328Y0197758D01*
X0005361Y0197913D01*
X0005399Y0198066D01*
X0005440Y0198219D01*
X0005485Y0198371D01*
X0005534Y0198522D01*
X0005587Y0198671D01*
X0005643Y0198819D01*
X0005703Y0198965D01*
X0005767Y0199110D01*
X0005835Y0199253D01*
X0005906Y0199395D01*
X0005980Y0199535D01*
X0006058Y0199672D01*
X0006140Y0199808D01*
X0006224Y0199942D01*
X0006313Y0200073D01*
X0006404Y0200202D01*
X0006499Y0200329D01*
X0006596Y0200454D01*
X0006697Y0200576D01*
X0006801Y0200695D01*
X0006908Y0200812D01*
X0007018Y0200926D01*
X0007131Y0201037D01*
X0007246Y0201146D01*
X0007364Y0201251D01*
X0007485Y0201353D01*
X0007608Y0201453D01*
X0007734Y0201549D01*
X0007862Y0201642D01*
X0007992Y0201732D01*
X0008125Y0201818D01*
X0008260Y0201902D01*
X0008396Y0201981D01*
X0008535Y0202058D01*
X0008676Y0202130D01*
X0008818Y0202200D01*
X0008962Y0202265D01*
X0009108Y0202327D01*
X0009255Y0202385D01*
X0009404Y0202440D01*
X0009554Y0202491D01*
X0009705Y0202538D01*
X0009857Y0202581D01*
X0010010Y0202620D01*
X0010165Y0202656D01*
X0010320Y0202687D01*
X0010476Y0202715D01*
X0010632Y0202739D01*
X0010789Y0202759D01*
X0010947Y0202775D01*
X0011104Y0202787D01*
X0011263Y0202795D01*
X0011421Y0202799D01*
X0011579Y0202799D01*
X0011737Y0202795D01*
X0011896Y0202787D01*
X0012053Y0202775D01*
X0012211Y0202759D01*
X0012368Y0202739D01*
X0012524Y0202715D01*
X0012680Y0202687D01*
X0012835Y0202656D01*
X0012990Y0202620D01*
X0013143Y0202581D01*
X0013295Y0202538D01*
X0013446Y0202491D01*
X0013596Y0202440D01*
X0013745Y0202385D01*
X0013892Y0202327D01*
X0014038Y0202265D01*
X0014182Y0202200D01*
X0014324Y0202130D01*
X0014465Y0202058D01*
X0014604Y0201981D01*
X0014740Y0201902D01*
X0014875Y0201818D01*
X0015008Y0201732D01*
X0015138Y0201642D01*
X0015266Y0201549D01*
X0015392Y0201453D01*
X0015515Y0201353D01*
X0015636Y0201251D01*
X0015754Y0201146D01*
X0015869Y0201037D01*
X0015982Y0200926D01*
X0016092Y0200812D01*
X0016199Y0200695D01*
X0016303Y0200576D01*
X0016404Y0200454D01*
X0016501Y0200329D01*
X0016596Y0200202D01*
X0016687Y0200073D01*
X0016776Y0199942D01*
X0016860Y0199808D01*
X0016942Y0199672D01*
X0017020Y0199535D01*
X0017094Y0199395D01*
X0017165Y0199253D01*
X0017233Y0199110D01*
X0017297Y0198965D01*
X0017357Y0198819D01*
X0017413Y0198671D01*
X0017466Y0198522D01*
X0017515Y0198371D01*
X0017560Y0198219D01*
X0017601Y0198066D01*
X0017639Y0197913D01*
X0017672Y0197758D01*
X0017702Y0197602D01*
X0017728Y0197446D01*
X0017749Y0197289D01*
X0017767Y0197132D01*
X0017781Y0196974D01*
X0017791Y0196816D01*
X0017797Y0196658D01*
X0017799Y0196500D01*
X0017797Y0196342D01*
X0017791Y0196184D01*
X0017781Y0196026D01*
X0017767Y0195868D01*
X0017749Y0195711D01*
X0017728Y0195554D01*
X0017702Y0195398D01*
X0017672Y0195242D01*
X0017639Y0195087D01*
X0017601Y0194934D01*
X0017560Y0194781D01*
X0017515Y0194629D01*
X0017466Y0194478D01*
X0017413Y0194329D01*
X0017357Y0194181D01*
X0017297Y0194035D01*
X0017233Y0193890D01*
X0017165Y0193747D01*
X0017094Y0193605D01*
X0017020Y0193465D01*
X0016942Y0193328D01*
X0016860Y0193192D01*
X0016776Y0193058D01*
X0016687Y0192927D01*
X0016596Y0192798D01*
X0016501Y0192671D01*
X0016404Y0192546D01*
X0016303Y0192424D01*
X0016199Y0192305D01*
X0016092Y0192188D01*
X0015982Y0192074D01*
X0015869Y0191963D01*
X0015754Y0191854D01*
X0015636Y0191749D01*
X0015515Y0191647D01*
X0015392Y0191547D01*
X0015266Y0191451D01*
X0015138Y0191358D01*
X0015008Y0191268D01*
X0014875Y0191182D01*
X0014740Y0191098D01*
X0014604Y0191019D01*
X0014465Y0190942D01*
X0014324Y0190870D01*
X0014182Y0190800D01*
X0014038Y0190735D01*
X0013892Y0190673D01*
X0013745Y0190615D01*
X0013596Y0190560D01*
X0013446Y0190509D01*
X0013295Y0190462D01*
X0013143Y0190419D01*
X0012990Y0190380D01*
X0012835Y0190344D01*
X0012680Y0190313D01*
X0012524Y0190285D01*
X0012368Y0190261D01*
X0012211Y0190241D01*
X0012053Y0190225D01*
X0011896Y0190213D01*
X0011737Y0190205D01*
X0011579Y0190201D01*
X0011421Y0190201D01*
X0011263Y0190205D01*
X0011104Y0190213D01*
X0010947Y0190225D01*
X0010789Y0190241D01*
X0010632Y0190261D01*
X0010476Y0190285D01*
X0010320Y0190313D01*
X0010165Y0190344D01*
X0010010Y0190380D01*
X0009857Y0190419D01*
X0009705Y0190462D01*
X0009554Y0190509D01*
X0009404Y0190560D01*
X0009255Y0190615D01*
X0009108Y0190673D01*
X0008962Y0190735D01*
X0008818Y0190800D01*
X0008676Y0190870D01*
X0008535Y0190942D01*
X0008396Y0191019D01*
X0008260Y0191098D01*
X0008125Y0191182D01*
X0007992Y0191268D01*
X0007862Y0191358D01*
X0007734Y0191451D01*
X0007608Y0191547D01*
X0007485Y0191647D01*
X0007364Y0191749D01*
X0007246Y0191854D01*
X0007131Y0191963D01*
X0007018Y0192074D01*
X0006908Y0192188D01*
X0006801Y0192305D01*
X0006697Y0192424D01*
X0006596Y0192546D01*
X0006499Y0192671D01*
X0006404Y0192798D01*
X0006313Y0192927D01*
X0006224Y0193058D01*
X0006140Y0193192D01*
X0006058Y0193328D01*
X0005980Y0193465D01*
X0005906Y0193605D01*
X0005835Y0193747D01*
X0005767Y0193890D01*
X0005703Y0194035D01*
X0005643Y0194181D01*
X0005587Y0194329D01*
X0005534Y0194478D01*
X0005485Y0194629D01*
X0005440Y0194781D01*
X0005399Y0194934D01*
X0005361Y0195087D01*
X0005328Y0195242D01*
X0005298Y0195398D01*
X0005272Y0195554D01*
X0005251Y0195711D01*
X0005233Y0195868D01*
X0005219Y0196026D01*
X0005209Y0196184D01*
X0005203Y0196342D01*
X0005201Y0196500D01*
X0180201Y0196500D02*
X0180203Y0196658D01*
X0180209Y0196816D01*
X0180219Y0196974D01*
X0180233Y0197132D01*
X0180251Y0197289D01*
X0180272Y0197446D01*
X0180298Y0197602D01*
X0180328Y0197758D01*
X0180361Y0197913D01*
X0180399Y0198066D01*
X0180440Y0198219D01*
X0180485Y0198371D01*
X0180534Y0198522D01*
X0180587Y0198671D01*
X0180643Y0198819D01*
X0180703Y0198965D01*
X0180767Y0199110D01*
X0180835Y0199253D01*
X0180906Y0199395D01*
X0180980Y0199535D01*
X0181058Y0199672D01*
X0181140Y0199808D01*
X0181224Y0199942D01*
X0181313Y0200073D01*
X0181404Y0200202D01*
X0181499Y0200329D01*
X0181596Y0200454D01*
X0181697Y0200576D01*
X0181801Y0200695D01*
X0181908Y0200812D01*
X0182018Y0200926D01*
X0182131Y0201037D01*
X0182246Y0201146D01*
X0182364Y0201251D01*
X0182485Y0201353D01*
X0182608Y0201453D01*
X0182734Y0201549D01*
X0182862Y0201642D01*
X0182992Y0201732D01*
X0183125Y0201818D01*
X0183260Y0201902D01*
X0183396Y0201981D01*
X0183535Y0202058D01*
X0183676Y0202130D01*
X0183818Y0202200D01*
X0183962Y0202265D01*
X0184108Y0202327D01*
X0184255Y0202385D01*
X0184404Y0202440D01*
X0184554Y0202491D01*
X0184705Y0202538D01*
X0184857Y0202581D01*
X0185010Y0202620D01*
X0185165Y0202656D01*
X0185320Y0202687D01*
X0185476Y0202715D01*
X0185632Y0202739D01*
X0185789Y0202759D01*
X0185947Y0202775D01*
X0186104Y0202787D01*
X0186263Y0202795D01*
X0186421Y0202799D01*
X0186579Y0202799D01*
X0186737Y0202795D01*
X0186896Y0202787D01*
X0187053Y0202775D01*
X0187211Y0202759D01*
X0187368Y0202739D01*
X0187524Y0202715D01*
X0187680Y0202687D01*
X0187835Y0202656D01*
X0187990Y0202620D01*
X0188143Y0202581D01*
X0188295Y0202538D01*
X0188446Y0202491D01*
X0188596Y0202440D01*
X0188745Y0202385D01*
X0188892Y0202327D01*
X0189038Y0202265D01*
X0189182Y0202200D01*
X0189324Y0202130D01*
X0189465Y0202058D01*
X0189604Y0201981D01*
X0189740Y0201902D01*
X0189875Y0201818D01*
X0190008Y0201732D01*
X0190138Y0201642D01*
X0190266Y0201549D01*
X0190392Y0201453D01*
X0190515Y0201353D01*
X0190636Y0201251D01*
X0190754Y0201146D01*
X0190869Y0201037D01*
X0190982Y0200926D01*
X0191092Y0200812D01*
X0191199Y0200695D01*
X0191303Y0200576D01*
X0191404Y0200454D01*
X0191501Y0200329D01*
X0191596Y0200202D01*
X0191687Y0200073D01*
X0191776Y0199942D01*
X0191860Y0199808D01*
X0191942Y0199672D01*
X0192020Y0199535D01*
X0192094Y0199395D01*
X0192165Y0199253D01*
X0192233Y0199110D01*
X0192297Y0198965D01*
X0192357Y0198819D01*
X0192413Y0198671D01*
X0192466Y0198522D01*
X0192515Y0198371D01*
X0192560Y0198219D01*
X0192601Y0198066D01*
X0192639Y0197913D01*
X0192672Y0197758D01*
X0192702Y0197602D01*
X0192728Y0197446D01*
X0192749Y0197289D01*
X0192767Y0197132D01*
X0192781Y0196974D01*
X0192791Y0196816D01*
X0192797Y0196658D01*
X0192799Y0196500D01*
X0192797Y0196342D01*
X0192791Y0196184D01*
X0192781Y0196026D01*
X0192767Y0195868D01*
X0192749Y0195711D01*
X0192728Y0195554D01*
X0192702Y0195398D01*
X0192672Y0195242D01*
X0192639Y0195087D01*
X0192601Y0194934D01*
X0192560Y0194781D01*
X0192515Y0194629D01*
X0192466Y0194478D01*
X0192413Y0194329D01*
X0192357Y0194181D01*
X0192297Y0194035D01*
X0192233Y0193890D01*
X0192165Y0193747D01*
X0192094Y0193605D01*
X0192020Y0193465D01*
X0191942Y0193328D01*
X0191860Y0193192D01*
X0191776Y0193058D01*
X0191687Y0192927D01*
X0191596Y0192798D01*
X0191501Y0192671D01*
X0191404Y0192546D01*
X0191303Y0192424D01*
X0191199Y0192305D01*
X0191092Y0192188D01*
X0190982Y0192074D01*
X0190869Y0191963D01*
X0190754Y0191854D01*
X0190636Y0191749D01*
X0190515Y0191647D01*
X0190392Y0191547D01*
X0190266Y0191451D01*
X0190138Y0191358D01*
X0190008Y0191268D01*
X0189875Y0191182D01*
X0189740Y0191098D01*
X0189604Y0191019D01*
X0189465Y0190942D01*
X0189324Y0190870D01*
X0189182Y0190800D01*
X0189038Y0190735D01*
X0188892Y0190673D01*
X0188745Y0190615D01*
X0188596Y0190560D01*
X0188446Y0190509D01*
X0188295Y0190462D01*
X0188143Y0190419D01*
X0187990Y0190380D01*
X0187835Y0190344D01*
X0187680Y0190313D01*
X0187524Y0190285D01*
X0187368Y0190261D01*
X0187211Y0190241D01*
X0187053Y0190225D01*
X0186896Y0190213D01*
X0186737Y0190205D01*
X0186579Y0190201D01*
X0186421Y0190201D01*
X0186263Y0190205D01*
X0186104Y0190213D01*
X0185947Y0190225D01*
X0185789Y0190241D01*
X0185632Y0190261D01*
X0185476Y0190285D01*
X0185320Y0190313D01*
X0185165Y0190344D01*
X0185010Y0190380D01*
X0184857Y0190419D01*
X0184705Y0190462D01*
X0184554Y0190509D01*
X0184404Y0190560D01*
X0184255Y0190615D01*
X0184108Y0190673D01*
X0183962Y0190735D01*
X0183818Y0190800D01*
X0183676Y0190870D01*
X0183535Y0190942D01*
X0183396Y0191019D01*
X0183260Y0191098D01*
X0183125Y0191182D01*
X0182992Y0191268D01*
X0182862Y0191358D01*
X0182734Y0191451D01*
X0182608Y0191547D01*
X0182485Y0191647D01*
X0182364Y0191749D01*
X0182246Y0191854D01*
X0182131Y0191963D01*
X0182018Y0192074D01*
X0181908Y0192188D01*
X0181801Y0192305D01*
X0181697Y0192424D01*
X0181596Y0192546D01*
X0181499Y0192671D01*
X0181404Y0192798D01*
X0181313Y0192927D01*
X0181224Y0193058D01*
X0181140Y0193192D01*
X0181058Y0193328D01*
X0180980Y0193465D01*
X0180906Y0193605D01*
X0180835Y0193747D01*
X0180767Y0193890D01*
X0180703Y0194035D01*
X0180643Y0194181D01*
X0180587Y0194329D01*
X0180534Y0194478D01*
X0180485Y0194629D01*
X0180440Y0194781D01*
X0180399Y0194934D01*
X0180361Y0195087D01*
X0180328Y0195242D01*
X0180298Y0195398D01*
X0180272Y0195554D01*
X0180251Y0195711D01*
X0180233Y0195868D01*
X0180219Y0196026D01*
X0180209Y0196184D01*
X0180203Y0196342D01*
X0180201Y0196500D01*
X0180201Y0016500D02*
X0180203Y0016658D01*
X0180209Y0016816D01*
X0180219Y0016974D01*
X0180233Y0017132D01*
X0180251Y0017289D01*
X0180272Y0017446D01*
X0180298Y0017602D01*
X0180328Y0017758D01*
X0180361Y0017913D01*
X0180399Y0018066D01*
X0180440Y0018219D01*
X0180485Y0018371D01*
X0180534Y0018522D01*
X0180587Y0018671D01*
X0180643Y0018819D01*
X0180703Y0018965D01*
X0180767Y0019110D01*
X0180835Y0019253D01*
X0180906Y0019395D01*
X0180980Y0019535D01*
X0181058Y0019672D01*
X0181140Y0019808D01*
X0181224Y0019942D01*
X0181313Y0020073D01*
X0181404Y0020202D01*
X0181499Y0020329D01*
X0181596Y0020454D01*
X0181697Y0020576D01*
X0181801Y0020695D01*
X0181908Y0020812D01*
X0182018Y0020926D01*
X0182131Y0021037D01*
X0182246Y0021146D01*
X0182364Y0021251D01*
X0182485Y0021353D01*
X0182608Y0021453D01*
X0182734Y0021549D01*
X0182862Y0021642D01*
X0182992Y0021732D01*
X0183125Y0021818D01*
X0183260Y0021902D01*
X0183396Y0021981D01*
X0183535Y0022058D01*
X0183676Y0022130D01*
X0183818Y0022200D01*
X0183962Y0022265D01*
X0184108Y0022327D01*
X0184255Y0022385D01*
X0184404Y0022440D01*
X0184554Y0022491D01*
X0184705Y0022538D01*
X0184857Y0022581D01*
X0185010Y0022620D01*
X0185165Y0022656D01*
X0185320Y0022687D01*
X0185476Y0022715D01*
X0185632Y0022739D01*
X0185789Y0022759D01*
X0185947Y0022775D01*
X0186104Y0022787D01*
X0186263Y0022795D01*
X0186421Y0022799D01*
X0186579Y0022799D01*
X0186737Y0022795D01*
X0186896Y0022787D01*
X0187053Y0022775D01*
X0187211Y0022759D01*
X0187368Y0022739D01*
X0187524Y0022715D01*
X0187680Y0022687D01*
X0187835Y0022656D01*
X0187990Y0022620D01*
X0188143Y0022581D01*
X0188295Y0022538D01*
X0188446Y0022491D01*
X0188596Y0022440D01*
X0188745Y0022385D01*
X0188892Y0022327D01*
X0189038Y0022265D01*
X0189182Y0022200D01*
X0189324Y0022130D01*
X0189465Y0022058D01*
X0189604Y0021981D01*
X0189740Y0021902D01*
X0189875Y0021818D01*
X0190008Y0021732D01*
X0190138Y0021642D01*
X0190266Y0021549D01*
X0190392Y0021453D01*
X0190515Y0021353D01*
X0190636Y0021251D01*
X0190754Y0021146D01*
X0190869Y0021037D01*
X0190982Y0020926D01*
X0191092Y0020812D01*
X0191199Y0020695D01*
X0191303Y0020576D01*
X0191404Y0020454D01*
X0191501Y0020329D01*
X0191596Y0020202D01*
X0191687Y0020073D01*
X0191776Y0019942D01*
X0191860Y0019808D01*
X0191942Y0019672D01*
X0192020Y0019535D01*
X0192094Y0019395D01*
X0192165Y0019253D01*
X0192233Y0019110D01*
X0192297Y0018965D01*
X0192357Y0018819D01*
X0192413Y0018671D01*
X0192466Y0018522D01*
X0192515Y0018371D01*
X0192560Y0018219D01*
X0192601Y0018066D01*
X0192639Y0017913D01*
X0192672Y0017758D01*
X0192702Y0017602D01*
X0192728Y0017446D01*
X0192749Y0017289D01*
X0192767Y0017132D01*
X0192781Y0016974D01*
X0192791Y0016816D01*
X0192797Y0016658D01*
X0192799Y0016500D01*
X0192797Y0016342D01*
X0192791Y0016184D01*
X0192781Y0016026D01*
X0192767Y0015868D01*
X0192749Y0015711D01*
X0192728Y0015554D01*
X0192702Y0015398D01*
X0192672Y0015242D01*
X0192639Y0015087D01*
X0192601Y0014934D01*
X0192560Y0014781D01*
X0192515Y0014629D01*
X0192466Y0014478D01*
X0192413Y0014329D01*
X0192357Y0014181D01*
X0192297Y0014035D01*
X0192233Y0013890D01*
X0192165Y0013747D01*
X0192094Y0013605D01*
X0192020Y0013465D01*
X0191942Y0013328D01*
X0191860Y0013192D01*
X0191776Y0013058D01*
X0191687Y0012927D01*
X0191596Y0012798D01*
X0191501Y0012671D01*
X0191404Y0012546D01*
X0191303Y0012424D01*
X0191199Y0012305D01*
X0191092Y0012188D01*
X0190982Y0012074D01*
X0190869Y0011963D01*
X0190754Y0011854D01*
X0190636Y0011749D01*
X0190515Y0011647D01*
X0190392Y0011547D01*
X0190266Y0011451D01*
X0190138Y0011358D01*
X0190008Y0011268D01*
X0189875Y0011182D01*
X0189740Y0011098D01*
X0189604Y0011019D01*
X0189465Y0010942D01*
X0189324Y0010870D01*
X0189182Y0010800D01*
X0189038Y0010735D01*
X0188892Y0010673D01*
X0188745Y0010615D01*
X0188596Y0010560D01*
X0188446Y0010509D01*
X0188295Y0010462D01*
X0188143Y0010419D01*
X0187990Y0010380D01*
X0187835Y0010344D01*
X0187680Y0010313D01*
X0187524Y0010285D01*
X0187368Y0010261D01*
X0187211Y0010241D01*
X0187053Y0010225D01*
X0186896Y0010213D01*
X0186737Y0010205D01*
X0186579Y0010201D01*
X0186421Y0010201D01*
X0186263Y0010205D01*
X0186104Y0010213D01*
X0185947Y0010225D01*
X0185789Y0010241D01*
X0185632Y0010261D01*
X0185476Y0010285D01*
X0185320Y0010313D01*
X0185165Y0010344D01*
X0185010Y0010380D01*
X0184857Y0010419D01*
X0184705Y0010462D01*
X0184554Y0010509D01*
X0184404Y0010560D01*
X0184255Y0010615D01*
X0184108Y0010673D01*
X0183962Y0010735D01*
X0183818Y0010800D01*
X0183676Y0010870D01*
X0183535Y0010942D01*
X0183396Y0011019D01*
X0183260Y0011098D01*
X0183125Y0011182D01*
X0182992Y0011268D01*
X0182862Y0011358D01*
X0182734Y0011451D01*
X0182608Y0011547D01*
X0182485Y0011647D01*
X0182364Y0011749D01*
X0182246Y0011854D01*
X0182131Y0011963D01*
X0182018Y0012074D01*
X0181908Y0012188D01*
X0181801Y0012305D01*
X0181697Y0012424D01*
X0181596Y0012546D01*
X0181499Y0012671D01*
X0181404Y0012798D01*
X0181313Y0012927D01*
X0181224Y0013058D01*
X0181140Y0013192D01*
X0181058Y0013328D01*
X0180980Y0013465D01*
X0180906Y0013605D01*
X0180835Y0013747D01*
X0180767Y0013890D01*
X0180703Y0014035D01*
X0180643Y0014181D01*
X0180587Y0014329D01*
X0180534Y0014478D01*
X0180485Y0014629D01*
X0180440Y0014781D01*
X0180399Y0014934D01*
X0180361Y0015087D01*
X0180328Y0015242D01*
X0180298Y0015398D01*
X0180272Y0015554D01*
X0180251Y0015711D01*
X0180233Y0015868D01*
X0180219Y0016026D01*
X0180209Y0016184D01*
X0180203Y0016342D01*
X0180201Y0016500D01*
D11*
X0061500Y0147760D03*
X0061500Y0155240D03*
X0046500Y0155240D03*
X0046500Y0147760D03*
X0031500Y0147760D03*
X0031500Y0155240D03*
D12*
X0040950Y0131750D02*
X0040950Y0126250D01*
X0040450Y0126250D01*
X0040450Y0131750D01*
X0040950Y0131750D01*
X0040950Y0130749D02*
X0040450Y0130749D01*
X0048850Y0131750D02*
X0048850Y0126250D01*
X0048350Y0126250D01*
X0048350Y0131750D01*
X0048850Y0131750D01*
X0048850Y0130749D02*
X0048350Y0130749D01*
X0086350Y0131750D02*
X0086350Y0126250D01*
X0085850Y0126250D01*
X0085850Y0131750D01*
X0086350Y0131750D01*
X0086350Y0130749D02*
X0085850Y0130749D01*
X0094250Y0131750D02*
X0094250Y0126250D01*
X0093750Y0126250D01*
X0093750Y0131750D01*
X0094250Y0131750D01*
X0094250Y0130749D02*
X0093750Y0130749D01*
X0094250Y0056750D02*
X0094250Y0051250D01*
X0093750Y0051250D01*
X0093750Y0056750D01*
X0094250Y0056750D01*
X0094250Y0055749D02*
X0093750Y0055749D01*
X0086350Y0056750D02*
X0086350Y0051250D01*
X0085850Y0051250D01*
X0085850Y0056750D01*
X0086350Y0056750D01*
X0086350Y0055749D02*
X0085850Y0055749D01*
X0048850Y0056750D02*
X0048850Y0051250D01*
X0048350Y0051250D01*
X0048350Y0056750D01*
X0048850Y0056750D01*
X0048850Y0055749D02*
X0048350Y0055749D01*
X0040950Y0056750D02*
X0040950Y0051250D01*
X0040450Y0051250D01*
X0040450Y0056750D01*
X0040950Y0056750D01*
X0040950Y0055749D02*
X0040450Y0055749D01*
D13*
X0077760Y0146500D03*
X0085240Y0146500D03*
D14*
X0126500Y0144700D02*
X0126500Y0138300D01*
X0136500Y0138300D02*
X0136500Y0144700D01*
X0146500Y0144700D02*
X0146500Y0138300D01*
X0146500Y0114700D02*
X0146500Y0108300D01*
X0136500Y0108300D02*
X0136500Y0114700D01*
X0126500Y0114700D02*
X0126500Y0108300D01*
X0126500Y0084700D02*
X0126500Y0078300D01*
X0136500Y0078300D02*
X0136500Y0084700D01*
X0146500Y0084700D02*
X0146500Y0078300D01*
X0146500Y0054700D02*
X0146500Y0048300D01*
X0136500Y0048300D02*
X0136500Y0054700D01*
X0126500Y0054700D02*
X0126500Y0048300D01*
X0126500Y0168300D02*
X0126500Y0174700D01*
X0136500Y0174700D02*
X0136500Y0168300D01*
X0146500Y0168300D02*
X0146500Y0174700D01*
X0131500Y0193300D02*
X0131500Y0199700D01*
X0121500Y0199700D02*
X0121500Y0193300D01*
X0111500Y0193300D02*
X0111500Y0199700D01*
X0101500Y0199700D02*
X0101500Y0193300D01*
D15*
X0175450Y0171500D02*
X0182550Y0171500D01*
X0182550Y0151500D02*
X0175450Y0151500D01*
X0175450Y0131500D02*
X0182550Y0131500D01*
X0182550Y0101500D02*
X0175450Y0101500D01*
X0175450Y0081500D02*
X0182550Y0081500D01*
X0182550Y0061500D02*
X0175450Y0061500D01*
X0175450Y0041500D02*
X0182550Y0041500D01*
X0106500Y0027550D02*
X0106500Y0020450D01*
X0086500Y0020450D02*
X0086500Y0027550D01*
D16*
X0061500Y0036500D03*
X0021500Y0084500D03*
D17*
X0021500Y0098500D03*
X0051500Y0036500D03*
D18*
X0036500Y0076500D03*
X0036500Y0111500D03*
X0011500Y0141500D03*
X0016500Y0166500D03*
X0036500Y0166500D03*
X0046500Y0171500D03*
X0061500Y0166500D03*
X0071500Y0126500D03*
X0101500Y0121500D03*
X0116500Y0126500D03*
X0116500Y0096500D03*
X0121500Y0066500D03*
X0121500Y0156500D03*
D19*
X0146500Y0156500D01*
X0146500Y0171500D01*
X0146500Y0181500D01*
X0131500Y0196500D01*
X0121500Y0196500D02*
X0121500Y0191500D01*
X0116500Y0186500D01*
X0086500Y0186500D01*
X0061500Y0166500D02*
X0061500Y0155240D01*
X0061500Y0147760D02*
X0046500Y0147760D01*
X0048600Y0145660D01*
X0048600Y0129000D01*
X0048600Y0108600D01*
X0041500Y0101500D01*
X0024500Y0101500D01*
X0021500Y0098500D01*
X0027870Y0090870D02*
X0021500Y0084500D01*
X0011500Y0094500D01*
X0011500Y0141500D01*
X0016500Y0151500D02*
X0021500Y0146500D01*
X0021500Y0126500D01*
X0036500Y0111500D01*
X0048600Y0125600D02*
X0048600Y0129000D01*
X0046500Y0147760D02*
X0031500Y0147760D01*
X0031500Y0155240D02*
X0032760Y0156500D01*
X0036500Y0161500D01*
X0036500Y0166500D01*
X0046500Y0171500D02*
X0046500Y0155240D01*
X0071500Y0140240D02*
X0077760Y0146500D01*
X0085240Y0146500D02*
X0086100Y0145640D01*
X0086100Y0129000D01*
X0086500Y0128600D01*
X0086500Y0116500D01*
X0072760Y0116500D01*
X0047130Y0090870D01*
X0027870Y0090870D01*
X0036500Y0076500D02*
X0046500Y0076500D01*
X0048600Y0074400D01*
X0048600Y0054000D01*
X0048600Y0036500D01*
X0051500Y0036500D01*
X0048600Y0036500D02*
X0048600Y0024400D01*
X0061500Y0011500D01*
X0101500Y0011500D01*
X0106500Y0016500D01*
X0106500Y0024000D01*
X0086500Y0024000D02*
X0086500Y0036500D01*
X0061500Y0036500D01*
X0086500Y0036500D02*
X0086500Y0049400D01*
X0086100Y0054000D01*
X0086100Y0061100D01*
X0091500Y0066500D01*
X0121500Y0066500D01*
X0146500Y0066500D01*
X0146500Y0051500D01*
X0146500Y0066500D02*
X0146500Y0081500D01*
X0146500Y0096500D01*
X0116500Y0096500D01*
X0101500Y0121500D02*
X0106500Y0126500D01*
X0116500Y0126500D01*
X0146500Y0126500D01*
X0146500Y0111500D01*
X0146500Y0096500D01*
X0146500Y0126500D02*
X0146500Y0141500D01*
X0146500Y0156500D01*
X0101500Y0121500D02*
X0086500Y0116500D01*
X0071500Y0126500D02*
X0071500Y0140240D01*
X0016500Y0151500D02*
X0016500Y0166500D01*
D20*
X0086500Y0186500D03*
D21*
X0091500Y0183600D02*
X0117077Y0183600D01*
X0118143Y0184041D01*
X0122520Y0188419D01*
X0124276Y0189146D01*
X0125654Y0190524D01*
X0126400Y0192325D01*
X0126400Y0200675D01*
X0125654Y0202476D01*
X0124629Y0203501D01*
X0182498Y0203501D01*
X0181969Y0203281D01*
X0179719Y0201031D01*
X0178501Y0198091D01*
X0178501Y0194909D01*
X0179719Y0191969D01*
X0181969Y0189719D01*
X0184909Y0188501D01*
X0188091Y0188501D01*
X0191031Y0189719D01*
X0193281Y0191969D01*
X0194499Y0194909D01*
X0194499Y0198091D01*
X0193281Y0201031D01*
X0191031Y0203281D01*
X0190502Y0203501D01*
X0194721Y0203501D01*
X0194721Y0143700D01*
X0171656Y0143700D01*
X0170909Y0143807D01*
X0170767Y0143700D01*
X0170589Y0143700D01*
X0170055Y0143166D01*
X0150767Y0128700D01*
X0150589Y0128700D01*
X0150055Y0128166D01*
X0149451Y0127713D01*
X0149426Y0127537D01*
X0149300Y0127411D01*
X0149300Y0126656D01*
X0149193Y0125909D01*
X0149300Y0125767D01*
X0149300Y0038700D01*
X0095589Y0038700D01*
X0094300Y0037411D01*
X0094300Y0014400D01*
X0062701Y0014400D01*
X0051500Y0025601D01*
X0051500Y0031650D01*
X0052465Y0031650D01*
X0054247Y0032388D01*
X0055612Y0033753D01*
X0056350Y0035535D01*
X0056350Y0037465D01*
X0055612Y0039247D01*
X0054247Y0040612D01*
X0052465Y0041350D01*
X0051500Y0041350D01*
X0051500Y0048314D01*
X0052199Y0049012D01*
X0052800Y0050464D01*
X0052800Y0057536D01*
X0052199Y0058987D01*
X0051500Y0059686D01*
X0051500Y0074977D01*
X0051058Y0076043D01*
X0048958Y0078143D01*
X0048143Y0078958D01*
X0047077Y0079400D01*
X0038806Y0079400D01*
X0038025Y0080181D01*
X0034975Y0080181D01*
X0032819Y0078025D01*
X0032819Y0074975D01*
X0034975Y0072819D01*
X0038025Y0072819D01*
X0038806Y0073600D01*
X0045299Y0073600D01*
X0045700Y0073199D01*
X0045700Y0059686D01*
X0045001Y0058987D01*
X0044650Y0058139D01*
X0044299Y0058987D01*
X0043187Y0060099D01*
X0041736Y0060700D01*
X0039664Y0060700D01*
X0038213Y0060099D01*
X0037101Y0058987D01*
X0036500Y0057536D01*
X0036500Y0050464D01*
X0037101Y0049012D01*
X0038213Y0047901D01*
X0039664Y0047300D01*
X0041736Y0047300D01*
X0043187Y0047901D01*
X0044299Y0049012D01*
X0044650Y0049861D01*
X0045001Y0049012D01*
X0045700Y0048314D01*
X0045700Y0023823D01*
X0046141Y0022757D01*
X0059041Y0009857D01*
X0059857Y0009041D01*
X0060923Y0008600D01*
X0094300Y0008600D01*
X0094300Y0008200D01*
X0003200Y0008200D01*
X0003200Y0203501D01*
X0007498Y0203501D01*
X0006969Y0203281D01*
X0004719Y0201031D01*
X0003501Y0198091D01*
X0003501Y0194909D01*
X0004719Y0191969D01*
X0006969Y0189719D01*
X0009909Y0188501D01*
X0013091Y0188501D01*
X0016031Y0189719D01*
X0018281Y0191969D01*
X0019499Y0194909D01*
X0019499Y0198091D01*
X0018281Y0201031D01*
X0016031Y0203281D01*
X0015502Y0203501D01*
X0026500Y0203501D01*
X0026500Y0161500D01*
X0032878Y0161500D01*
X0031382Y0159499D01*
X0027843Y0159499D01*
X0026847Y0158503D01*
X0026847Y0151977D01*
X0027324Y0151500D01*
X0026847Y0151023D01*
X0026847Y0144497D01*
X0027843Y0143501D01*
X0035157Y0143501D01*
X0036153Y0144497D01*
X0036153Y0144860D01*
X0041847Y0144860D01*
X0041847Y0144497D01*
X0042843Y0143501D01*
X0045700Y0143501D01*
X0045700Y0134686D01*
X0045001Y0133987D01*
X0044650Y0133139D01*
X0044299Y0133987D01*
X0043187Y0135099D01*
X0041736Y0135700D01*
X0039664Y0135700D01*
X0038213Y0135099D01*
X0037101Y0133987D01*
X0036500Y0132536D01*
X0036500Y0125464D01*
X0037101Y0124012D01*
X0038213Y0122901D01*
X0039664Y0122300D01*
X0041736Y0122300D01*
X0043187Y0122901D01*
X0044299Y0124012D01*
X0044650Y0124861D01*
X0045001Y0124012D01*
X0045700Y0123314D01*
X0045700Y0109801D01*
X0040299Y0104400D01*
X0023923Y0104400D01*
X0022857Y0103958D01*
X0022249Y0103350D01*
X0020535Y0103350D01*
X0018753Y0102612D01*
X0017388Y0101247D01*
X0016650Y0099465D01*
X0016650Y0097535D01*
X0017388Y0095753D01*
X0018753Y0094388D01*
X0020535Y0093650D01*
X0022465Y0093650D01*
X0024247Y0094388D01*
X0025612Y0095753D01*
X0026350Y0097535D01*
X0026350Y0098600D01*
X0042077Y0098600D01*
X0043143Y0099041D01*
X0043958Y0099857D01*
X0051058Y0106957D01*
X0051500Y0108023D01*
X0051500Y0123314D01*
X0052199Y0124012D01*
X0052800Y0125464D01*
X0052800Y0132536D01*
X0052199Y0133987D01*
X0051500Y0134686D01*
X0051500Y0144860D01*
X0056847Y0144860D01*
X0056847Y0144497D01*
X0057843Y0143501D01*
X0065157Y0143501D01*
X0066153Y0144497D01*
X0066153Y0151023D01*
X0065676Y0151500D01*
X0066153Y0151977D01*
X0066153Y0158503D01*
X0065157Y0159499D01*
X0064400Y0159499D01*
X0064400Y0161500D01*
X0091500Y0161500D01*
X0091500Y0183600D01*
X0091500Y0183237D02*
X0194721Y0183237D01*
X0194721Y0184235D02*
X0118336Y0184235D01*
X0119335Y0185234D02*
X0194721Y0185234D01*
X0194721Y0186232D02*
X0120333Y0186232D01*
X0121332Y0187231D02*
X0194721Y0187231D01*
X0194721Y0188229D02*
X0122330Y0188229D01*
X0124357Y0189228D02*
X0183154Y0189228D01*
X0181461Y0190226D02*
X0125356Y0190226D01*
X0125944Y0191225D02*
X0180463Y0191225D01*
X0179613Y0192223D02*
X0126358Y0192223D01*
X0126400Y0193222D02*
X0179200Y0193222D01*
X0178786Y0194220D02*
X0126400Y0194220D01*
X0126400Y0195219D02*
X0178501Y0195219D01*
X0178501Y0196217D02*
X0126400Y0196217D01*
X0126400Y0197216D02*
X0178501Y0197216D01*
X0178552Y0198214D02*
X0126400Y0198214D01*
X0126400Y0199213D02*
X0178965Y0199213D01*
X0179379Y0200211D02*
X0126400Y0200211D01*
X0126178Y0201210D02*
X0179897Y0201210D01*
X0180896Y0202208D02*
X0125765Y0202208D01*
X0124923Y0203207D02*
X0181894Y0203207D01*
X0191106Y0203207D02*
X0194721Y0203207D01*
X0194721Y0202208D02*
X0192104Y0202208D01*
X0193103Y0201210D02*
X0194721Y0201210D01*
X0194721Y0200211D02*
X0193621Y0200211D01*
X0194035Y0199213D02*
X0194721Y0199213D01*
X0194721Y0198214D02*
X0194448Y0198214D01*
X0194499Y0197216D02*
X0194721Y0197216D01*
X0194721Y0196217D02*
X0194499Y0196217D01*
X0194499Y0195219D02*
X0194721Y0195219D01*
X0194721Y0194220D02*
X0194214Y0194220D01*
X0193800Y0193222D02*
X0194721Y0193222D01*
X0194721Y0192223D02*
X0193387Y0192223D01*
X0192537Y0191225D02*
X0194721Y0191225D01*
X0194721Y0190226D02*
X0191539Y0190226D01*
X0189846Y0189228D02*
X0194721Y0189228D01*
X0194721Y0182238D02*
X0091500Y0182238D01*
X0091500Y0181239D02*
X0194721Y0181239D01*
X0194721Y0180241D02*
X0091500Y0180241D01*
X0091500Y0179242D02*
X0124662Y0179242D01*
X0125525Y0179600D02*
X0123724Y0178854D01*
X0122346Y0177476D01*
X0121600Y0175675D01*
X0121600Y0167325D01*
X0122346Y0165524D01*
X0123724Y0164146D01*
X0125525Y0163400D01*
X0127475Y0163400D01*
X0129276Y0164146D01*
X0130654Y0165524D01*
X0131400Y0167325D01*
X0131400Y0175675D01*
X0130654Y0177476D01*
X0129276Y0178854D01*
X0127475Y0179600D01*
X0125525Y0179600D01*
X0128338Y0179242D02*
X0134662Y0179242D01*
X0135525Y0179600D02*
X0133724Y0178854D01*
X0132346Y0177476D01*
X0131600Y0175675D01*
X0131600Y0167325D01*
X0132346Y0165524D01*
X0133724Y0164146D01*
X0135525Y0163400D01*
X0137475Y0163400D01*
X0139276Y0164146D01*
X0140654Y0165524D01*
X0141400Y0167325D01*
X0141400Y0175675D01*
X0140654Y0177476D01*
X0139276Y0178854D01*
X0137475Y0179600D01*
X0135525Y0179600D01*
X0138338Y0179242D02*
X0194721Y0179242D01*
X0194721Y0178244D02*
X0139886Y0178244D01*
X0140749Y0177245D02*
X0194721Y0177245D01*
X0194721Y0176247D02*
X0184809Y0176247D01*
X0185524Y0175951D02*
X0183594Y0176750D01*
X0174406Y0176750D01*
X0172476Y0175951D01*
X0170999Y0174474D01*
X0170200Y0172544D01*
X0170200Y0170456D01*
X0170999Y0168526D01*
X0172476Y0167049D01*
X0174406Y0166250D01*
X0183594Y0166250D01*
X0185524Y0167049D01*
X0187001Y0168526D01*
X0187800Y0170456D01*
X0187800Y0172544D01*
X0187001Y0174474D01*
X0185524Y0175951D01*
X0186226Y0175248D02*
X0194721Y0175248D01*
X0194721Y0174250D02*
X0187094Y0174250D01*
X0187507Y0173251D02*
X0194721Y0173251D01*
X0194721Y0172253D02*
X0187800Y0172253D01*
X0187800Y0171254D02*
X0194721Y0171254D01*
X0194721Y0170256D02*
X0187717Y0170256D01*
X0187304Y0169257D02*
X0194721Y0169257D01*
X0194721Y0168259D02*
X0186733Y0168259D01*
X0185735Y0167260D02*
X0194721Y0167260D01*
X0194721Y0166262D02*
X0183623Y0166262D01*
X0183594Y0156750D02*
X0174406Y0156750D01*
X0172476Y0155951D01*
X0170999Y0154474D01*
X0170200Y0152544D01*
X0170200Y0150456D01*
X0170999Y0148526D01*
X0172476Y0147049D01*
X0174406Y0146250D01*
X0183594Y0146250D01*
X0185524Y0147049D01*
X0187001Y0148526D01*
X0187800Y0150456D01*
X0187800Y0152544D01*
X0187001Y0154474D01*
X0185524Y0155951D01*
X0183594Y0156750D01*
X0184737Y0156277D02*
X0194721Y0156277D01*
X0194721Y0157275D02*
X0066153Y0157275D01*
X0066153Y0156277D02*
X0173263Y0156277D01*
X0171804Y0155278D02*
X0066153Y0155278D01*
X0066153Y0154280D02*
X0170919Y0154280D01*
X0170505Y0153281D02*
X0066153Y0153281D01*
X0066153Y0152283D02*
X0170200Y0152283D01*
X0170200Y0151284D02*
X0065892Y0151284D01*
X0066153Y0150286D02*
X0073630Y0150286D01*
X0073501Y0150157D02*
X0074497Y0151153D01*
X0081023Y0151153D01*
X0082019Y0150157D01*
X0082019Y0142843D01*
X0081023Y0141847D01*
X0077208Y0141847D01*
X0074400Y0139039D01*
X0074400Y0128806D01*
X0075181Y0128025D01*
X0075181Y0124975D01*
X0073025Y0122819D01*
X0069975Y0122819D01*
X0067819Y0124975D01*
X0067819Y0128025D01*
X0068600Y0128806D01*
X0068600Y0140817D01*
X0069041Y0141883D01*
X0073501Y0146342D01*
X0073501Y0150157D01*
X0073501Y0149287D02*
X0066153Y0149287D01*
X0066153Y0148289D02*
X0073501Y0148289D01*
X0073501Y0147290D02*
X0066153Y0147290D01*
X0066153Y0146292D02*
X0073450Y0146292D01*
X0072452Y0145293D02*
X0066153Y0145293D01*
X0065951Y0144295D02*
X0071453Y0144295D01*
X0070455Y0143296D02*
X0051500Y0143296D01*
X0051500Y0142298D02*
X0069456Y0142298D01*
X0068800Y0141299D02*
X0051500Y0141299D01*
X0051500Y0140301D02*
X0068600Y0140301D01*
X0068600Y0139302D02*
X0051500Y0139302D01*
X0051500Y0138303D02*
X0068600Y0138303D01*
X0068600Y0137305D02*
X0051500Y0137305D01*
X0051500Y0136306D02*
X0068600Y0136306D01*
X0068600Y0135308D02*
X0051500Y0135308D01*
X0051877Y0134309D02*
X0068600Y0134309D01*
X0068600Y0133311D02*
X0052479Y0133311D01*
X0052800Y0132312D02*
X0068600Y0132312D01*
X0068600Y0131314D02*
X0052800Y0131314D01*
X0052800Y0130315D02*
X0068600Y0130315D01*
X0068600Y0129317D02*
X0052800Y0129317D01*
X0052800Y0128318D02*
X0068113Y0128318D01*
X0067819Y0127320D02*
X0052800Y0127320D01*
X0052800Y0126321D02*
X0067819Y0126321D01*
X0067819Y0125323D02*
X0052741Y0125323D01*
X0052328Y0124324D02*
X0068470Y0124324D01*
X0069468Y0123326D02*
X0051512Y0123326D01*
X0051500Y0122327D02*
X0092898Y0122327D01*
X0092964Y0122300D02*
X0095036Y0122300D01*
X0096487Y0122901D01*
X0097599Y0124012D01*
X0098200Y0125464D01*
X0098200Y0132536D01*
X0097599Y0133987D01*
X0096487Y0135099D01*
X0095036Y0135700D01*
X0092964Y0135700D01*
X0091512Y0135099D01*
X0090401Y0133987D01*
X0089800Y0132536D01*
X0089800Y0125464D01*
X0090401Y0124012D01*
X0091512Y0122901D01*
X0092964Y0122300D01*
X0095102Y0122327D02*
X0149300Y0122327D01*
X0149300Y0121329D02*
X0051500Y0121329D01*
X0051500Y0120330D02*
X0149300Y0120330D01*
X0149300Y0119332D02*
X0138122Y0119332D01*
X0137475Y0119600D02*
X0135525Y0119600D01*
X0133724Y0118854D01*
X0132346Y0117476D01*
X0131600Y0115675D01*
X0131600Y0107325D01*
X0132346Y0105524D01*
X0133724Y0104146D01*
X0135525Y0103400D01*
X0137475Y0103400D01*
X0139276Y0104146D01*
X0140654Y0105524D01*
X0141400Y0107325D01*
X0141400Y0115675D01*
X0140654Y0117476D01*
X0139276Y0118854D01*
X0137475Y0119600D01*
X0139796Y0118333D02*
X0149300Y0118333D01*
X0149300Y0117335D02*
X0140712Y0117335D01*
X0141126Y0116336D02*
X0149300Y0116336D01*
X0149300Y0115338D02*
X0141400Y0115338D01*
X0141400Y0114339D02*
X0149300Y0114339D01*
X0149300Y0113341D02*
X0141400Y0113341D01*
X0141400Y0112342D02*
X0149300Y0112342D01*
X0149300Y0111344D02*
X0141400Y0111344D01*
X0141400Y0110345D02*
X0149300Y0110345D01*
X0149300Y0109347D02*
X0141400Y0109347D01*
X0141400Y0108348D02*
X0149300Y0108348D01*
X0149300Y0107350D02*
X0141400Y0107350D01*
X0140996Y0106351D02*
X0149300Y0106351D01*
X0149300Y0105353D02*
X0140482Y0105353D01*
X0139484Y0104354D02*
X0149300Y0104354D01*
X0149300Y0103356D02*
X0047457Y0103356D01*
X0048455Y0104354D02*
X0123516Y0104354D01*
X0123724Y0104146D02*
X0125525Y0103400D01*
X0127475Y0103400D01*
X0129276Y0104146D01*
X0130654Y0105524D01*
X0131400Y0107325D01*
X0131400Y0115675D01*
X0130654Y0117476D01*
X0129276Y0118854D01*
X0127475Y0119600D01*
X0125525Y0119600D01*
X0123724Y0118854D01*
X0122346Y0117476D01*
X0121600Y0115675D01*
X0121600Y0107325D01*
X0122346Y0105524D01*
X0123724Y0104146D01*
X0122518Y0105353D02*
X0049454Y0105353D01*
X0050452Y0106351D02*
X0122004Y0106351D01*
X0121600Y0107350D02*
X0051221Y0107350D01*
X0051500Y0108348D02*
X0121600Y0108348D01*
X0121600Y0109347D02*
X0051500Y0109347D01*
X0051500Y0110345D02*
X0121600Y0110345D01*
X0121600Y0111344D02*
X0051500Y0111344D01*
X0051500Y0112342D02*
X0121600Y0112342D01*
X0121600Y0113341D02*
X0051500Y0113341D01*
X0051500Y0114339D02*
X0121600Y0114339D01*
X0121600Y0115338D02*
X0051500Y0115338D01*
X0051500Y0116336D02*
X0121874Y0116336D01*
X0122288Y0117335D02*
X0051500Y0117335D01*
X0051500Y0118333D02*
X0123204Y0118333D01*
X0124878Y0119332D02*
X0051500Y0119332D01*
X0045700Y0119332D02*
X0032769Y0119332D01*
X0031771Y0120330D02*
X0045700Y0120330D01*
X0045700Y0121329D02*
X0030772Y0121329D01*
X0029774Y0122327D02*
X0039598Y0122327D01*
X0037788Y0123326D02*
X0028775Y0123326D01*
X0027777Y0124324D02*
X0036972Y0124324D01*
X0036559Y0125323D02*
X0026778Y0125323D01*
X0025780Y0126321D02*
X0036500Y0126321D01*
X0036500Y0127320D02*
X0024781Y0127320D01*
X0024400Y0127701D02*
X0024400Y0147077D01*
X0023958Y0148143D01*
X0023143Y0148958D01*
X0019400Y0152701D01*
X0019400Y0164194D01*
X0020181Y0164975D01*
X0020181Y0168025D01*
X0018025Y0170181D01*
X0014975Y0170181D01*
X0012819Y0168025D01*
X0012819Y0164975D01*
X0013600Y0164194D01*
X0013600Y0150923D01*
X0014041Y0149857D01*
X0018600Y0145299D01*
X0018600Y0125923D01*
X0019041Y0124857D01*
X0032819Y0111080D01*
X0032819Y0109975D01*
X0034975Y0107819D01*
X0038025Y0107819D01*
X0040181Y0109975D01*
X0040181Y0113025D01*
X0038025Y0115181D01*
X0036920Y0115181D01*
X0024400Y0127701D01*
X0024400Y0128318D02*
X0036500Y0128318D01*
X0036500Y0129317D02*
X0024400Y0129317D01*
X0024400Y0130315D02*
X0036500Y0130315D01*
X0036500Y0131314D02*
X0024400Y0131314D01*
X0024400Y0132312D02*
X0036500Y0132312D01*
X0036821Y0133311D02*
X0024400Y0133311D01*
X0024400Y0134309D02*
X0037423Y0134309D01*
X0038718Y0135308D02*
X0024400Y0135308D01*
X0024400Y0136306D02*
X0045700Y0136306D01*
X0045700Y0135308D02*
X0042682Y0135308D01*
X0043977Y0134309D02*
X0045323Y0134309D01*
X0044721Y0133311D02*
X0044579Y0133311D01*
X0045700Y0137305D02*
X0024400Y0137305D01*
X0024400Y0138303D02*
X0045700Y0138303D01*
X0045700Y0139302D02*
X0024400Y0139302D01*
X0024400Y0140301D02*
X0045700Y0140301D01*
X0045700Y0141299D02*
X0024400Y0141299D01*
X0024400Y0142298D02*
X0045700Y0142298D01*
X0045700Y0143296D02*
X0024400Y0143296D01*
X0024400Y0144295D02*
X0027049Y0144295D01*
X0026847Y0145293D02*
X0024400Y0145293D01*
X0024400Y0146292D02*
X0026847Y0146292D01*
X0026847Y0147290D02*
X0024312Y0147290D01*
X0023813Y0148289D02*
X0026847Y0148289D01*
X0026847Y0149287D02*
X0022814Y0149287D01*
X0021816Y0150286D02*
X0026847Y0150286D01*
X0027108Y0151284D02*
X0020817Y0151284D01*
X0019819Y0152283D02*
X0026847Y0152283D01*
X0026847Y0153281D02*
X0019400Y0153281D01*
X0019400Y0154280D02*
X0026847Y0154280D01*
X0026847Y0155278D02*
X0019400Y0155278D01*
X0019400Y0156277D02*
X0026847Y0156277D01*
X0026847Y0157275D02*
X0019400Y0157275D01*
X0019400Y0158274D02*
X0026847Y0158274D01*
X0027616Y0159272D02*
X0019400Y0159272D01*
X0019400Y0160271D02*
X0031959Y0160271D01*
X0032706Y0161269D02*
X0019400Y0161269D01*
X0019400Y0162268D02*
X0026500Y0162268D01*
X0026500Y0163266D02*
X0019400Y0163266D01*
X0019471Y0164265D02*
X0026500Y0164265D01*
X0026500Y0165263D02*
X0020181Y0165263D01*
X0020181Y0166262D02*
X0026500Y0166262D01*
X0026500Y0167260D02*
X0020181Y0167260D01*
X0019947Y0168259D02*
X0026500Y0168259D01*
X0026500Y0169257D02*
X0018948Y0169257D01*
X0014051Y0169257D02*
X0003200Y0169257D01*
X0003200Y0168259D02*
X0013053Y0168259D01*
X0012819Y0167260D02*
X0003200Y0167260D01*
X0003200Y0166262D02*
X0012819Y0166262D01*
X0012819Y0165263D02*
X0003200Y0165263D01*
X0003200Y0164265D02*
X0013529Y0164265D01*
X0013600Y0163266D02*
X0003200Y0163266D01*
X0003200Y0162268D02*
X0013600Y0162268D01*
X0013600Y0161269D02*
X0003200Y0161269D01*
X0003200Y0160271D02*
X0013600Y0160271D01*
X0013600Y0159272D02*
X0003200Y0159272D01*
X0003200Y0158274D02*
X0013600Y0158274D01*
X0013600Y0157275D02*
X0003200Y0157275D01*
X0003200Y0156277D02*
X0013600Y0156277D01*
X0013600Y0155278D02*
X0003200Y0155278D01*
X0003200Y0154280D02*
X0013600Y0154280D01*
X0013600Y0153281D02*
X0003200Y0153281D01*
X0003200Y0152283D02*
X0013600Y0152283D01*
X0013600Y0151284D02*
X0003200Y0151284D01*
X0003200Y0150286D02*
X0013864Y0150286D01*
X0014612Y0149287D02*
X0003200Y0149287D01*
X0003200Y0148289D02*
X0015610Y0148289D01*
X0016609Y0147290D02*
X0003200Y0147290D01*
X0003200Y0146292D02*
X0017607Y0146292D01*
X0018600Y0145293D02*
X0003200Y0145293D01*
X0003200Y0144295D02*
X0018600Y0144295D01*
X0018600Y0143296D02*
X0003200Y0143296D01*
X0003200Y0142298D02*
X0018600Y0142298D01*
X0018600Y0141299D02*
X0003200Y0141299D01*
X0003200Y0140301D02*
X0018600Y0140301D01*
X0018600Y0139302D02*
X0003200Y0139302D01*
X0003200Y0138303D02*
X0018600Y0138303D01*
X0018600Y0137305D02*
X0003200Y0137305D01*
X0003200Y0136306D02*
X0018600Y0136306D01*
X0018600Y0135308D02*
X0003200Y0135308D01*
X0003200Y0134309D02*
X0018600Y0134309D01*
X0018600Y0133311D02*
X0003200Y0133311D01*
X0003200Y0132312D02*
X0018600Y0132312D01*
X0018600Y0131314D02*
X0003200Y0131314D01*
X0003200Y0130315D02*
X0018600Y0130315D01*
X0018600Y0129317D02*
X0003200Y0129317D01*
X0003200Y0128318D02*
X0018600Y0128318D01*
X0018600Y0127320D02*
X0003200Y0127320D01*
X0003200Y0126321D02*
X0018600Y0126321D01*
X0018849Y0125323D02*
X0003200Y0125323D01*
X0003200Y0124324D02*
X0019574Y0124324D01*
X0020573Y0123326D02*
X0003200Y0123326D01*
X0003200Y0122327D02*
X0021571Y0122327D01*
X0022570Y0121329D02*
X0003200Y0121329D01*
X0003200Y0120330D02*
X0023568Y0120330D01*
X0024567Y0119332D02*
X0003200Y0119332D01*
X0003200Y0118333D02*
X0025566Y0118333D01*
X0026564Y0117335D02*
X0003200Y0117335D01*
X0003200Y0116336D02*
X0027563Y0116336D01*
X0028561Y0115338D02*
X0003200Y0115338D01*
X0003200Y0114339D02*
X0029560Y0114339D01*
X0030558Y0113341D02*
X0003200Y0113341D01*
X0003200Y0112342D02*
X0031557Y0112342D01*
X0032555Y0111344D02*
X0003200Y0111344D01*
X0003200Y0110345D02*
X0032819Y0110345D01*
X0033447Y0109347D02*
X0003200Y0109347D01*
X0003200Y0108348D02*
X0034446Y0108348D01*
X0038554Y0108348D02*
X0044247Y0108348D01*
X0043248Y0107350D02*
X0003200Y0107350D01*
X0003200Y0106351D02*
X0042250Y0106351D01*
X0041251Y0105353D02*
X0003200Y0105353D01*
X0003200Y0104354D02*
X0023812Y0104354D01*
X0022254Y0103356D02*
X0003200Y0103356D01*
X0003200Y0102357D02*
X0018498Y0102357D01*
X0017500Y0101359D02*
X0003200Y0101359D01*
X0003200Y0100360D02*
X0017021Y0100360D01*
X0016650Y0099362D02*
X0003200Y0099362D01*
X0003200Y0098363D02*
X0016650Y0098363D01*
X0016721Y0097365D02*
X0003200Y0097365D01*
X0003200Y0096366D02*
X0017134Y0096366D01*
X0017774Y0095368D02*
X0003200Y0095368D01*
X0003200Y0094369D02*
X0018799Y0094369D01*
X0024201Y0094369D02*
X0149300Y0094369D01*
X0149300Y0095368D02*
X0025226Y0095368D01*
X0025866Y0096366D02*
X0149300Y0096366D01*
X0149300Y0097365D02*
X0026279Y0097365D01*
X0026350Y0098363D02*
X0149300Y0098363D01*
X0149300Y0099362D02*
X0043463Y0099362D01*
X0044461Y0100360D02*
X0149300Y0100360D01*
X0149300Y0101359D02*
X0045460Y0101359D01*
X0046458Y0102357D02*
X0149300Y0102357D01*
X0151500Y0102357D02*
X0170200Y0102357D01*
X0170200Y0102544D02*
X0170200Y0100456D01*
X0170999Y0098526D01*
X0172476Y0097049D01*
X0174406Y0096250D01*
X0183594Y0096250D01*
X0185524Y0097049D01*
X0187001Y0098526D01*
X0187800Y0100456D01*
X0187800Y0102544D01*
X0187001Y0104474D01*
X0185524Y0105951D01*
X0183594Y0106750D01*
X0174406Y0106750D01*
X0172476Y0105951D01*
X0170999Y0104474D01*
X0170200Y0102544D01*
X0170536Y0103356D02*
X0151500Y0103356D01*
X0151500Y0104354D02*
X0170950Y0104354D01*
X0171878Y0105353D02*
X0151500Y0105353D01*
X0151500Y0106351D02*
X0173443Y0106351D01*
X0170200Y0101359D02*
X0151500Y0101359D01*
X0151500Y0100360D02*
X0170240Y0100360D01*
X0170653Y0099362D02*
X0151500Y0099362D01*
X0151500Y0098363D02*
X0171162Y0098363D01*
X0172161Y0097365D02*
X0151500Y0097365D01*
X0151500Y0096366D02*
X0174126Y0096366D01*
X0174406Y0086750D02*
X0172476Y0085951D01*
X0170999Y0084474D01*
X0170200Y0082544D01*
X0170200Y0080456D01*
X0170999Y0078526D01*
X0172476Y0077049D01*
X0174406Y0076250D01*
X0183594Y0076250D01*
X0185524Y0077049D01*
X0187001Y0078526D01*
X0187800Y0080456D01*
X0187800Y0082544D01*
X0187001Y0084474D01*
X0185524Y0085951D01*
X0183594Y0086750D01*
X0174406Y0086750D01*
X0173515Y0086381D02*
X0151500Y0086381D01*
X0151500Y0087379D02*
X0194721Y0087379D01*
X0194721Y0086381D02*
X0184485Y0086381D01*
X0186092Y0085382D02*
X0194721Y0085382D01*
X0194721Y0084384D02*
X0187038Y0084384D01*
X0187452Y0083385D02*
X0194721Y0083385D01*
X0194721Y0082387D02*
X0187800Y0082387D01*
X0187800Y0081388D02*
X0194721Y0081388D01*
X0194721Y0080390D02*
X0187773Y0080390D01*
X0187359Y0079391D02*
X0194721Y0079391D01*
X0194721Y0078393D02*
X0186867Y0078393D01*
X0185869Y0077394D02*
X0194721Y0077394D01*
X0194721Y0076396D02*
X0183946Y0076396D01*
X0183594Y0066750D02*
X0174406Y0066750D01*
X0172476Y0065951D01*
X0170999Y0064474D01*
X0170200Y0062544D01*
X0170200Y0060456D01*
X0170999Y0058526D01*
X0172476Y0057049D01*
X0174406Y0056250D01*
X0183594Y0056250D01*
X0185524Y0057049D01*
X0187001Y0058526D01*
X0187800Y0060456D01*
X0187800Y0062544D01*
X0187001Y0064474D01*
X0185524Y0065951D01*
X0183594Y0066750D01*
X0184413Y0066411D02*
X0194721Y0066411D01*
X0194721Y0067409D02*
X0151500Y0067409D01*
X0151500Y0066411D02*
X0173587Y0066411D01*
X0171938Y0065412D02*
X0151500Y0065412D01*
X0151500Y0064414D02*
X0170974Y0064414D01*
X0170561Y0063415D02*
X0151500Y0063415D01*
X0151500Y0062417D02*
X0170200Y0062417D01*
X0170200Y0061418D02*
X0151500Y0061418D01*
X0151500Y0060420D02*
X0170215Y0060420D01*
X0170629Y0059421D02*
X0151500Y0059421D01*
X0151500Y0058423D02*
X0171103Y0058423D01*
X0172101Y0057424D02*
X0151500Y0057424D01*
X0151500Y0056426D02*
X0173982Y0056426D01*
X0184018Y0056426D02*
X0194721Y0056426D01*
X0194721Y0057424D02*
X0185899Y0057424D01*
X0186897Y0058423D02*
X0194721Y0058423D01*
X0194721Y0059421D02*
X0187371Y0059421D01*
X0187785Y0060420D02*
X0194721Y0060420D01*
X0194721Y0061418D02*
X0187800Y0061418D01*
X0187800Y0062417D02*
X0194721Y0062417D01*
X0194721Y0063415D02*
X0187439Y0063415D01*
X0187026Y0064414D02*
X0194721Y0064414D01*
X0194721Y0065412D02*
X0186062Y0065412D01*
X0194721Y0068408D02*
X0151500Y0068408D01*
X0151500Y0069406D02*
X0194721Y0069406D01*
X0194721Y0070405D02*
X0151500Y0070405D01*
X0151500Y0071403D02*
X0194721Y0071403D01*
X0194721Y0072402D02*
X0151500Y0072402D01*
X0151500Y0073400D02*
X0194721Y0073400D01*
X0194721Y0074399D02*
X0151500Y0074399D01*
X0151500Y0075397D02*
X0194721Y0075397D01*
X0194721Y0088378D02*
X0151500Y0088378D01*
X0151500Y0089376D02*
X0194721Y0089376D01*
X0194721Y0090375D02*
X0151500Y0090375D01*
X0151500Y0091373D02*
X0194721Y0091373D01*
X0194721Y0092372D02*
X0151500Y0092372D01*
X0151500Y0093370D02*
X0194721Y0093370D01*
X0194721Y0094369D02*
X0151500Y0094369D01*
X0151500Y0095368D02*
X0194721Y0095368D01*
X0194721Y0096366D02*
X0183874Y0096366D01*
X0185839Y0097365D02*
X0194721Y0097365D01*
X0194721Y0098363D02*
X0186838Y0098363D01*
X0187347Y0099362D02*
X0194721Y0099362D01*
X0194721Y0100360D02*
X0187760Y0100360D01*
X0187800Y0101359D02*
X0194721Y0101359D01*
X0194721Y0102357D02*
X0187800Y0102357D01*
X0187464Y0103356D02*
X0194721Y0103356D01*
X0194721Y0104354D02*
X0187050Y0104354D01*
X0186122Y0105353D02*
X0194721Y0105353D01*
X0194721Y0106351D02*
X0184557Y0106351D01*
X0194721Y0107350D02*
X0151500Y0107350D01*
X0151500Y0108348D02*
X0194721Y0108348D01*
X0194721Y0109347D02*
X0151500Y0109347D01*
X0151500Y0110345D02*
X0194721Y0110345D01*
X0194721Y0111344D02*
X0151500Y0111344D01*
X0151500Y0112342D02*
X0194721Y0112342D01*
X0194721Y0113341D02*
X0151500Y0113341D01*
X0151500Y0114339D02*
X0194721Y0114339D01*
X0194721Y0115338D02*
X0151500Y0115338D01*
X0151500Y0116336D02*
X0194721Y0116336D01*
X0194721Y0117335D02*
X0151500Y0117335D01*
X0151500Y0118333D02*
X0194721Y0118333D01*
X0194721Y0119332D02*
X0151500Y0119332D01*
X0151500Y0120330D02*
X0194721Y0120330D01*
X0194721Y0121329D02*
X0151500Y0121329D01*
X0151500Y0122327D02*
X0194721Y0122327D01*
X0194721Y0123326D02*
X0151500Y0123326D01*
X0151500Y0124324D02*
X0194721Y0124324D01*
X0194721Y0125323D02*
X0151500Y0125323D01*
X0151500Y0126321D02*
X0194721Y0126321D01*
X0194721Y0127320D02*
X0152593Y0127320D01*
X0151500Y0126500D02*
X0171500Y0141500D01*
X0194721Y0141500D01*
X0194721Y0026500D01*
X0176500Y0026500D01*
X0176500Y0008200D01*
X0096500Y0008200D01*
X0096500Y0036500D01*
X0151500Y0036500D01*
X0151500Y0126500D01*
X0150207Y0128318D02*
X0098200Y0128318D01*
X0098200Y0127320D02*
X0149300Y0127320D01*
X0149252Y0126321D02*
X0098200Y0126321D01*
X0098141Y0125323D02*
X0149300Y0125323D01*
X0149300Y0124324D02*
X0097728Y0124324D01*
X0096912Y0123326D02*
X0149300Y0123326D01*
X0153925Y0128318D02*
X0194721Y0128318D01*
X0194721Y0129317D02*
X0155256Y0129317D01*
X0156587Y0130315D02*
X0194721Y0130315D01*
X0194721Y0131314D02*
X0157919Y0131314D01*
X0159250Y0132312D02*
X0194721Y0132312D01*
X0194721Y0133311D02*
X0160581Y0133311D01*
X0161913Y0134309D02*
X0194721Y0134309D01*
X0194721Y0135308D02*
X0163244Y0135308D01*
X0164575Y0136306D02*
X0194721Y0136306D01*
X0194721Y0137305D02*
X0165907Y0137305D01*
X0167238Y0138303D02*
X0194721Y0138303D01*
X0194721Y0139302D02*
X0168569Y0139302D01*
X0169901Y0140301D02*
X0194721Y0140301D01*
X0194721Y0141299D02*
X0171232Y0141299D01*
X0170185Y0143296D02*
X0141400Y0143296D01*
X0141400Y0142298D02*
X0168897Y0142298D01*
X0167565Y0141299D02*
X0141400Y0141299D01*
X0141400Y0140301D02*
X0166234Y0140301D01*
X0164903Y0139302D02*
X0141400Y0139302D01*
X0141400Y0138303D02*
X0163571Y0138303D01*
X0162240Y0137305D02*
X0141392Y0137305D01*
X0141400Y0137325D02*
X0141400Y0145675D01*
X0140654Y0147476D01*
X0139276Y0148854D01*
X0137475Y0149600D01*
X0135525Y0149600D01*
X0133724Y0148854D01*
X0132346Y0147476D01*
X0131600Y0145675D01*
X0131600Y0137325D01*
X0132346Y0135524D01*
X0133724Y0134146D01*
X0135525Y0133400D01*
X0137475Y0133400D01*
X0139276Y0134146D01*
X0140654Y0135524D01*
X0141400Y0137325D01*
X0140978Y0136306D02*
X0160909Y0136306D01*
X0159577Y0135308D02*
X0140438Y0135308D01*
X0139439Y0134309D02*
X0158246Y0134309D01*
X0156915Y0133311D02*
X0097879Y0133311D01*
X0098200Y0132312D02*
X0155583Y0132312D01*
X0154252Y0131314D02*
X0098200Y0131314D01*
X0098200Y0130315D02*
X0152921Y0130315D01*
X0151589Y0129317D02*
X0098200Y0129317D01*
X0097277Y0134309D02*
X0123561Y0134309D01*
X0123724Y0134146D02*
X0125525Y0133400D01*
X0127475Y0133400D01*
X0129276Y0134146D01*
X0130654Y0135524D01*
X0131400Y0137325D01*
X0131400Y0145675D01*
X0130654Y0147476D01*
X0129276Y0148854D01*
X0127475Y0149600D01*
X0125525Y0149600D01*
X0123724Y0148854D01*
X0122346Y0147476D01*
X0121600Y0145675D01*
X0121600Y0137325D01*
X0122346Y0135524D01*
X0123724Y0134146D01*
X0122562Y0135308D02*
X0095982Y0135308D01*
X0092018Y0135308D02*
X0074400Y0135308D01*
X0074400Y0136306D02*
X0122022Y0136306D01*
X0121608Y0137305D02*
X0074400Y0137305D01*
X0074400Y0138303D02*
X0121600Y0138303D01*
X0121600Y0139302D02*
X0074663Y0139302D01*
X0075662Y0140301D02*
X0121600Y0140301D01*
X0121600Y0141299D02*
X0076660Y0141299D01*
X0081473Y0142298D02*
X0121600Y0142298D01*
X0121600Y0143296D02*
X0082019Y0143296D01*
X0082019Y0144295D02*
X0121600Y0144295D01*
X0121600Y0145293D02*
X0082019Y0145293D01*
X0082019Y0146292D02*
X0121856Y0146292D01*
X0122269Y0147290D02*
X0082019Y0147290D01*
X0082019Y0148289D02*
X0123159Y0148289D01*
X0124770Y0149287D02*
X0082019Y0149287D01*
X0081890Y0150286D02*
X0170270Y0150286D01*
X0170684Y0149287D02*
X0138230Y0149287D01*
X0139841Y0148289D02*
X0171237Y0148289D01*
X0172235Y0147290D02*
X0140731Y0147290D01*
X0141144Y0146292D02*
X0174305Y0146292D01*
X0183695Y0146292D02*
X0194721Y0146292D01*
X0194721Y0147290D02*
X0185765Y0147290D01*
X0186763Y0148289D02*
X0194721Y0148289D01*
X0194721Y0149287D02*
X0187316Y0149287D01*
X0187730Y0150286D02*
X0194721Y0150286D01*
X0194721Y0151284D02*
X0187800Y0151284D01*
X0187800Y0152283D02*
X0194721Y0152283D01*
X0194721Y0153281D02*
X0187495Y0153281D01*
X0187081Y0154280D02*
X0194721Y0154280D01*
X0194721Y0155278D02*
X0186196Y0155278D01*
X0194721Y0158274D02*
X0066153Y0158274D01*
X0065384Y0159272D02*
X0194721Y0159272D01*
X0194721Y0160271D02*
X0064400Y0160271D01*
X0064400Y0161269D02*
X0194721Y0161269D01*
X0194721Y0162268D02*
X0091500Y0162268D01*
X0091500Y0163266D02*
X0194721Y0163266D01*
X0194721Y0164265D02*
X0139394Y0164265D01*
X0140393Y0165263D02*
X0194721Y0165263D01*
X0194721Y0145293D02*
X0141400Y0145293D01*
X0141400Y0144295D02*
X0194721Y0144295D01*
X0174377Y0166262D02*
X0140959Y0166262D01*
X0141373Y0167260D02*
X0172265Y0167260D01*
X0171267Y0168259D02*
X0141400Y0168259D01*
X0141400Y0169257D02*
X0170696Y0169257D01*
X0170283Y0170256D02*
X0141400Y0170256D01*
X0141400Y0171254D02*
X0170200Y0171254D01*
X0170200Y0172253D02*
X0141400Y0172253D01*
X0141400Y0173251D02*
X0170493Y0173251D01*
X0170906Y0174250D02*
X0141400Y0174250D01*
X0141400Y0175248D02*
X0171774Y0175248D01*
X0173191Y0176247D02*
X0141163Y0176247D01*
X0133114Y0178244D02*
X0129886Y0178244D01*
X0130749Y0177245D02*
X0132251Y0177245D01*
X0131837Y0176247D02*
X0131163Y0176247D01*
X0131400Y0175248D02*
X0131600Y0175248D01*
X0131600Y0174250D02*
X0131400Y0174250D01*
X0131400Y0173251D02*
X0131600Y0173251D01*
X0131600Y0172253D02*
X0131400Y0172253D01*
X0131400Y0171254D02*
X0131600Y0171254D01*
X0131600Y0170256D02*
X0131400Y0170256D01*
X0131400Y0169257D02*
X0131600Y0169257D01*
X0131600Y0168259D02*
X0131400Y0168259D01*
X0131373Y0167260D02*
X0131627Y0167260D01*
X0132041Y0166262D02*
X0130959Y0166262D01*
X0130393Y0165263D02*
X0132607Y0165263D01*
X0133606Y0164265D02*
X0129394Y0164265D01*
X0123606Y0164265D02*
X0091500Y0164265D01*
X0091500Y0165263D02*
X0122607Y0165263D01*
X0122041Y0166262D02*
X0091500Y0166262D01*
X0091500Y0167260D02*
X0121627Y0167260D01*
X0121600Y0168259D02*
X0091500Y0168259D01*
X0091500Y0169257D02*
X0121600Y0169257D01*
X0121600Y0170256D02*
X0091500Y0170256D01*
X0091500Y0171254D02*
X0121600Y0171254D01*
X0121600Y0172253D02*
X0091500Y0172253D01*
X0091500Y0173251D02*
X0121600Y0173251D01*
X0121600Y0174250D02*
X0091500Y0174250D01*
X0091500Y0175248D02*
X0121600Y0175248D01*
X0121837Y0176247D02*
X0091500Y0176247D01*
X0091500Y0177245D02*
X0122251Y0177245D01*
X0123114Y0178244D02*
X0091500Y0178244D01*
X0128230Y0149287D02*
X0134770Y0149287D01*
X0133159Y0148289D02*
X0129841Y0148289D01*
X0130731Y0147290D02*
X0132269Y0147290D01*
X0131856Y0146292D02*
X0131144Y0146292D01*
X0131400Y0145293D02*
X0131600Y0145293D01*
X0131600Y0144295D02*
X0131400Y0144295D01*
X0131400Y0143296D02*
X0131600Y0143296D01*
X0131600Y0142298D02*
X0131400Y0142298D01*
X0131400Y0141299D02*
X0131600Y0141299D01*
X0131600Y0140301D02*
X0131400Y0140301D01*
X0131400Y0139302D02*
X0131600Y0139302D01*
X0131600Y0138303D02*
X0131400Y0138303D01*
X0131392Y0137305D02*
X0131608Y0137305D01*
X0132022Y0136306D02*
X0130978Y0136306D01*
X0130438Y0135308D02*
X0132562Y0135308D01*
X0133561Y0134309D02*
X0129439Y0134309D01*
X0128122Y0119332D02*
X0134878Y0119332D01*
X0133204Y0118333D02*
X0129796Y0118333D01*
X0130712Y0117335D02*
X0132288Y0117335D01*
X0131874Y0116336D02*
X0131126Y0116336D01*
X0131400Y0115338D02*
X0131600Y0115338D01*
X0131600Y0114339D02*
X0131400Y0114339D01*
X0131400Y0113341D02*
X0131600Y0113341D01*
X0131600Y0112342D02*
X0131400Y0112342D01*
X0131400Y0111344D02*
X0131600Y0111344D01*
X0131600Y0110345D02*
X0131400Y0110345D01*
X0131400Y0109347D02*
X0131600Y0109347D01*
X0131600Y0108348D02*
X0131400Y0108348D01*
X0131400Y0107350D02*
X0131600Y0107350D01*
X0132004Y0106351D02*
X0130996Y0106351D01*
X0130482Y0105353D02*
X0132518Y0105353D01*
X0133516Y0104354D02*
X0129484Y0104354D01*
X0127475Y0089600D02*
X0125525Y0089600D01*
X0123724Y0088854D01*
X0122346Y0087476D01*
X0121600Y0085675D01*
X0121600Y0077325D01*
X0122346Y0075524D01*
X0123724Y0074146D01*
X0125525Y0073400D01*
X0127475Y0073400D01*
X0129276Y0074146D01*
X0130654Y0075524D01*
X0131400Y0077325D01*
X0131400Y0085675D01*
X0130654Y0087476D01*
X0129276Y0088854D01*
X0127475Y0089600D01*
X0128014Y0089376D02*
X0134986Y0089376D01*
X0135525Y0089600D02*
X0133724Y0088854D01*
X0132346Y0087476D01*
X0131600Y0085675D01*
X0131600Y0077325D01*
X0132346Y0075524D01*
X0133724Y0074146D01*
X0135525Y0073400D01*
X0137475Y0073400D01*
X0139276Y0074146D01*
X0140654Y0075524D01*
X0141400Y0077325D01*
X0141400Y0085675D01*
X0140654Y0087476D01*
X0139276Y0088854D01*
X0137475Y0089600D01*
X0135525Y0089600D01*
X0138014Y0089376D02*
X0149300Y0089376D01*
X0149300Y0088378D02*
X0139752Y0088378D01*
X0140694Y0087379D02*
X0149300Y0087379D01*
X0149300Y0086381D02*
X0141107Y0086381D01*
X0141400Y0085382D02*
X0149300Y0085382D01*
X0149300Y0084384D02*
X0141400Y0084384D01*
X0141400Y0083385D02*
X0149300Y0083385D01*
X0149300Y0082387D02*
X0141400Y0082387D01*
X0141400Y0081388D02*
X0149300Y0081388D01*
X0149300Y0080390D02*
X0141400Y0080390D01*
X0141400Y0079391D02*
X0149300Y0079391D01*
X0149300Y0078393D02*
X0141400Y0078393D01*
X0141400Y0077394D02*
X0149300Y0077394D01*
X0149300Y0076396D02*
X0141015Y0076396D01*
X0140527Y0075397D02*
X0149300Y0075397D01*
X0149300Y0074399D02*
X0139528Y0074399D01*
X0137475Y0073400D02*
X0149300Y0073400D01*
X0149300Y0072402D02*
X0051500Y0072402D01*
X0051500Y0073400D02*
X0125525Y0073400D01*
X0127475Y0073400D02*
X0135525Y0073400D01*
X0133472Y0074399D02*
X0129528Y0074399D01*
X0130527Y0075397D02*
X0132473Y0075397D01*
X0131985Y0076396D02*
X0131015Y0076396D01*
X0131400Y0077394D02*
X0131600Y0077394D01*
X0131600Y0078393D02*
X0131400Y0078393D01*
X0131400Y0079391D02*
X0131600Y0079391D01*
X0131600Y0080390D02*
X0131400Y0080390D01*
X0131400Y0081388D02*
X0131600Y0081388D01*
X0131600Y0082387D02*
X0131400Y0082387D01*
X0131400Y0083385D02*
X0131600Y0083385D01*
X0131600Y0084384D02*
X0131400Y0084384D01*
X0131400Y0085382D02*
X0131600Y0085382D01*
X0131893Y0086381D02*
X0131107Y0086381D01*
X0130694Y0087379D02*
X0132306Y0087379D01*
X0133248Y0088378D02*
X0129752Y0088378D01*
X0124986Y0089376D02*
X0003200Y0089376D01*
X0003200Y0088378D02*
X0123248Y0088378D01*
X0122306Y0087379D02*
X0003200Y0087379D01*
X0003200Y0086381D02*
X0121893Y0086381D01*
X0121600Y0085382D02*
X0003200Y0085382D01*
X0003200Y0084384D02*
X0121600Y0084384D01*
X0121600Y0083385D02*
X0003200Y0083385D01*
X0003200Y0082387D02*
X0121600Y0082387D01*
X0121600Y0081388D02*
X0003200Y0081388D01*
X0003200Y0080390D02*
X0121600Y0080390D01*
X0121600Y0079391D02*
X0047098Y0079391D01*
X0048708Y0078393D02*
X0121600Y0078393D01*
X0121600Y0077394D02*
X0049707Y0077394D01*
X0050705Y0076396D02*
X0121985Y0076396D01*
X0122473Y0075397D02*
X0051326Y0075397D01*
X0051500Y0074399D02*
X0123472Y0074399D01*
X0125525Y0059600D02*
X0123724Y0058854D01*
X0122346Y0057476D01*
X0121600Y0055675D01*
X0121600Y0047325D01*
X0122346Y0045524D01*
X0123724Y0044146D01*
X0125525Y0043400D01*
X0127475Y0043400D01*
X0129276Y0044146D01*
X0130654Y0045524D01*
X0131400Y0047325D01*
X0131400Y0055675D01*
X0130654Y0057476D01*
X0129276Y0058854D01*
X0127475Y0059600D01*
X0125525Y0059600D01*
X0125093Y0059421D02*
X0097165Y0059421D01*
X0097599Y0058987D02*
X0096487Y0060099D01*
X0095036Y0060700D01*
X0092964Y0060700D01*
X0091512Y0060099D01*
X0090401Y0058987D01*
X0089800Y0057536D01*
X0089800Y0050464D01*
X0090401Y0049012D01*
X0091512Y0047901D01*
X0092964Y0047300D01*
X0095036Y0047300D01*
X0096487Y0047901D01*
X0097599Y0049012D01*
X0098200Y0050464D01*
X0098200Y0057536D01*
X0097599Y0058987D01*
X0097833Y0058423D02*
X0123293Y0058423D01*
X0122325Y0057424D02*
X0098200Y0057424D01*
X0098200Y0056426D02*
X0121911Y0056426D01*
X0121600Y0055427D02*
X0098200Y0055427D01*
X0098200Y0054429D02*
X0121600Y0054429D01*
X0121600Y0053430D02*
X0098200Y0053430D01*
X0098200Y0052432D02*
X0121600Y0052432D01*
X0121600Y0051433D02*
X0098200Y0051433D01*
X0098188Y0050434D02*
X0121600Y0050434D01*
X0121600Y0049436D02*
X0097774Y0049436D01*
X0097024Y0048437D02*
X0121600Y0048437D01*
X0121600Y0047439D02*
X0095371Y0047439D01*
X0092629Y0047439D02*
X0051500Y0047439D01*
X0051500Y0046440D02*
X0121967Y0046440D01*
X0122428Y0045442D02*
X0051500Y0045442D01*
X0051500Y0044443D02*
X0123427Y0044443D01*
X0125417Y0043445D02*
X0051500Y0043445D01*
X0051500Y0042446D02*
X0149300Y0042446D01*
X0149300Y0041448D02*
X0051500Y0041448D01*
X0054410Y0040449D02*
X0149300Y0040449D01*
X0149300Y0039451D02*
X0055408Y0039451D01*
X0055941Y0038452D02*
X0095341Y0038452D01*
X0094343Y0037454D02*
X0056350Y0037454D01*
X0056350Y0036455D02*
X0094300Y0036455D01*
X0094300Y0035457D02*
X0056317Y0035457D01*
X0055904Y0034458D02*
X0094300Y0034458D01*
X0094300Y0033460D02*
X0055319Y0033460D01*
X0054320Y0032461D02*
X0094300Y0032461D01*
X0094300Y0031463D02*
X0051500Y0031463D01*
X0051500Y0030464D02*
X0094300Y0030464D01*
X0094300Y0029466D02*
X0051500Y0029466D01*
X0051500Y0028467D02*
X0094300Y0028467D01*
X0094300Y0027469D02*
X0051500Y0027469D01*
X0051500Y0026470D02*
X0094300Y0026470D01*
X0094300Y0025472D02*
X0051629Y0025472D01*
X0052628Y0024473D02*
X0094300Y0024473D01*
X0094300Y0023475D02*
X0053627Y0023475D01*
X0054625Y0022476D02*
X0094300Y0022476D01*
X0094300Y0021478D02*
X0055624Y0021478D01*
X0056622Y0020479D02*
X0094300Y0020479D01*
X0094300Y0019481D02*
X0057621Y0019481D01*
X0058619Y0018482D02*
X0094300Y0018482D01*
X0094300Y0017484D02*
X0059618Y0017484D01*
X0060616Y0016485D02*
X0094300Y0016485D01*
X0094300Y0015487D02*
X0061615Y0015487D01*
X0062613Y0014488D02*
X0094300Y0014488D01*
X0096500Y0014488D02*
X0176500Y0014488D01*
X0176500Y0013490D02*
X0096500Y0013490D01*
X0096500Y0012491D02*
X0176500Y0012491D01*
X0176500Y0011493D02*
X0096500Y0011493D01*
X0096500Y0010494D02*
X0176500Y0010494D01*
X0176500Y0009496D02*
X0096500Y0009496D01*
X0096500Y0008497D02*
X0176500Y0008497D01*
X0176500Y0015487D02*
X0096500Y0015487D01*
X0096500Y0016485D02*
X0176500Y0016485D01*
X0176500Y0017484D02*
X0096500Y0017484D01*
X0096500Y0018482D02*
X0176500Y0018482D01*
X0176500Y0019481D02*
X0096500Y0019481D01*
X0096500Y0020479D02*
X0176500Y0020479D01*
X0176500Y0021478D02*
X0096500Y0021478D01*
X0096500Y0022476D02*
X0176500Y0022476D01*
X0176500Y0023475D02*
X0096500Y0023475D01*
X0096500Y0024473D02*
X0176500Y0024473D01*
X0176500Y0025472D02*
X0096500Y0025472D01*
X0096500Y0026470D02*
X0176500Y0026470D01*
X0194721Y0027469D02*
X0096500Y0027469D01*
X0096500Y0028467D02*
X0194721Y0028467D01*
X0194721Y0029466D02*
X0096500Y0029466D01*
X0096500Y0030464D02*
X0194721Y0030464D01*
X0194721Y0031463D02*
X0096500Y0031463D01*
X0096500Y0032461D02*
X0194721Y0032461D01*
X0194721Y0033460D02*
X0096500Y0033460D01*
X0096500Y0034458D02*
X0194721Y0034458D01*
X0194721Y0035457D02*
X0096500Y0035457D01*
X0096500Y0036455D02*
X0194721Y0036455D01*
X0194721Y0037454D02*
X0151500Y0037454D01*
X0151500Y0038452D02*
X0194721Y0038452D01*
X0194721Y0039451D02*
X0151500Y0039451D01*
X0151500Y0040449D02*
X0194721Y0040449D01*
X0194721Y0041448D02*
X0151500Y0041448D01*
X0151500Y0042446D02*
X0194721Y0042446D01*
X0194721Y0043445D02*
X0151500Y0043445D01*
X0151500Y0044443D02*
X0194721Y0044443D01*
X0194721Y0045442D02*
X0151500Y0045442D01*
X0151500Y0046440D02*
X0194721Y0046440D01*
X0194721Y0047439D02*
X0151500Y0047439D01*
X0151500Y0048437D02*
X0194721Y0048437D01*
X0194721Y0049436D02*
X0151500Y0049436D01*
X0151500Y0050434D02*
X0194721Y0050434D01*
X0194721Y0051433D02*
X0151500Y0051433D01*
X0151500Y0052432D02*
X0194721Y0052432D01*
X0194721Y0053430D02*
X0151500Y0053430D01*
X0151500Y0054429D02*
X0194721Y0054429D01*
X0194721Y0055427D02*
X0151500Y0055427D01*
X0149300Y0055427D02*
X0141400Y0055427D01*
X0141400Y0055675D02*
X0140654Y0057476D01*
X0139276Y0058854D01*
X0137475Y0059600D01*
X0135525Y0059600D01*
X0133724Y0058854D01*
X0132346Y0057476D01*
X0131600Y0055675D01*
X0131600Y0047325D01*
X0132346Y0045524D01*
X0133724Y0044146D01*
X0135525Y0043400D01*
X0137475Y0043400D01*
X0139276Y0044146D01*
X0140654Y0045524D01*
X0141400Y0047325D01*
X0141400Y0055675D01*
X0141089Y0056426D02*
X0149300Y0056426D01*
X0149300Y0057424D02*
X0140675Y0057424D01*
X0139707Y0058423D02*
X0149300Y0058423D01*
X0149300Y0059421D02*
X0137907Y0059421D01*
X0135093Y0059421D02*
X0127907Y0059421D01*
X0129707Y0058423D02*
X0133293Y0058423D01*
X0132325Y0057424D02*
X0130675Y0057424D01*
X0131089Y0056426D02*
X0131911Y0056426D01*
X0131600Y0055427D02*
X0131400Y0055427D01*
X0131400Y0054429D02*
X0131600Y0054429D01*
X0131600Y0053430D02*
X0131400Y0053430D01*
X0131400Y0052432D02*
X0131600Y0052432D01*
X0131600Y0051433D02*
X0131400Y0051433D01*
X0131400Y0050434D02*
X0131600Y0050434D01*
X0131600Y0049436D02*
X0131400Y0049436D01*
X0131400Y0048437D02*
X0131600Y0048437D01*
X0131600Y0047439D02*
X0131400Y0047439D01*
X0131033Y0046440D02*
X0131967Y0046440D01*
X0132428Y0045442D02*
X0130572Y0045442D01*
X0129573Y0044443D02*
X0133427Y0044443D01*
X0135417Y0043445D02*
X0127583Y0043445D01*
X0137583Y0043445D02*
X0149300Y0043445D01*
X0149300Y0044443D02*
X0139573Y0044443D01*
X0140572Y0045442D02*
X0149300Y0045442D01*
X0149300Y0046440D02*
X0141033Y0046440D01*
X0141400Y0047439D02*
X0149300Y0047439D01*
X0149300Y0048437D02*
X0141400Y0048437D01*
X0141400Y0049436D02*
X0149300Y0049436D01*
X0149300Y0050434D02*
X0141400Y0050434D01*
X0141400Y0051433D02*
X0149300Y0051433D01*
X0149300Y0052432D02*
X0141400Y0052432D01*
X0141400Y0053430D02*
X0149300Y0053430D01*
X0149300Y0054429D02*
X0141400Y0054429D01*
X0149300Y0060420D02*
X0095713Y0060420D01*
X0092287Y0060420D02*
X0051500Y0060420D01*
X0051500Y0061418D02*
X0149300Y0061418D01*
X0149300Y0062417D02*
X0051500Y0062417D01*
X0051500Y0063415D02*
X0149300Y0063415D01*
X0149300Y0064414D02*
X0051500Y0064414D01*
X0051500Y0065412D02*
X0149300Y0065412D01*
X0149300Y0066411D02*
X0051500Y0066411D01*
X0051500Y0067409D02*
X0149300Y0067409D01*
X0149300Y0068408D02*
X0051500Y0068408D01*
X0051500Y0069406D02*
X0149300Y0069406D01*
X0149300Y0070405D02*
X0051500Y0070405D01*
X0051500Y0071403D02*
X0149300Y0071403D01*
X0151500Y0076396D02*
X0174054Y0076396D01*
X0172131Y0077394D02*
X0151500Y0077394D01*
X0151500Y0078393D02*
X0171133Y0078393D01*
X0170641Y0079391D02*
X0151500Y0079391D01*
X0151500Y0080390D02*
X0170227Y0080390D01*
X0170200Y0081388D02*
X0151500Y0081388D01*
X0151500Y0082387D02*
X0170200Y0082387D01*
X0170548Y0083385D02*
X0151500Y0083385D01*
X0151500Y0084384D02*
X0170962Y0084384D01*
X0171908Y0085382D02*
X0151500Y0085382D01*
X0149300Y0090375D02*
X0003200Y0090375D01*
X0003200Y0091373D02*
X0149300Y0091373D01*
X0149300Y0092372D02*
X0003200Y0092372D01*
X0003200Y0093370D02*
X0149300Y0093370D01*
X0091088Y0123326D02*
X0073532Y0123326D01*
X0074530Y0124324D02*
X0090272Y0124324D01*
X0089859Y0125323D02*
X0075181Y0125323D01*
X0075181Y0126321D02*
X0089800Y0126321D01*
X0089800Y0127320D02*
X0075181Y0127320D01*
X0074887Y0128318D02*
X0089800Y0128318D01*
X0089800Y0129317D02*
X0074400Y0129317D01*
X0074400Y0130315D02*
X0089800Y0130315D01*
X0089800Y0131314D02*
X0074400Y0131314D01*
X0074400Y0132312D02*
X0089800Y0132312D01*
X0090121Y0133311D02*
X0074400Y0133311D01*
X0074400Y0134309D02*
X0090723Y0134309D01*
X0057049Y0144295D02*
X0051500Y0144295D01*
X0042049Y0144295D02*
X0035951Y0144295D01*
X0044428Y0124324D02*
X0044872Y0124324D01*
X0045688Y0123326D02*
X0043612Y0123326D01*
X0041802Y0122327D02*
X0045700Y0122327D01*
X0045700Y0118333D02*
X0033768Y0118333D01*
X0034766Y0117335D02*
X0045700Y0117335D01*
X0045700Y0116336D02*
X0035765Y0116336D01*
X0036763Y0115338D02*
X0045700Y0115338D01*
X0045700Y0114339D02*
X0038867Y0114339D01*
X0039865Y0113341D02*
X0045700Y0113341D01*
X0045700Y0112342D02*
X0040181Y0112342D01*
X0040181Y0111344D02*
X0045700Y0111344D01*
X0045700Y0110345D02*
X0040181Y0110345D01*
X0039553Y0109347D02*
X0045245Y0109347D01*
X0034185Y0079391D02*
X0003200Y0079391D01*
X0003200Y0078393D02*
X0033187Y0078393D01*
X0032819Y0077394D02*
X0003200Y0077394D01*
X0003200Y0076396D02*
X0032819Y0076396D01*
X0032819Y0075397D02*
X0003200Y0075397D01*
X0003200Y0074399D02*
X0033395Y0074399D01*
X0034394Y0073400D02*
X0003200Y0073400D01*
X0003200Y0072402D02*
X0045700Y0072402D01*
X0045700Y0071403D02*
X0003200Y0071403D01*
X0003200Y0070405D02*
X0045700Y0070405D01*
X0045700Y0069406D02*
X0003200Y0069406D01*
X0003200Y0068408D02*
X0045700Y0068408D01*
X0045700Y0067409D02*
X0003200Y0067409D01*
X0003200Y0066411D02*
X0045700Y0066411D01*
X0045700Y0065412D02*
X0003200Y0065412D01*
X0003200Y0064414D02*
X0045700Y0064414D01*
X0045700Y0063415D02*
X0003200Y0063415D01*
X0003200Y0062417D02*
X0045700Y0062417D01*
X0045700Y0061418D02*
X0003200Y0061418D01*
X0003200Y0060420D02*
X0038987Y0060420D01*
X0037535Y0059421D02*
X0003200Y0059421D01*
X0003200Y0058423D02*
X0036867Y0058423D01*
X0036500Y0057424D02*
X0003200Y0057424D01*
X0003200Y0056426D02*
X0036500Y0056426D01*
X0036500Y0055427D02*
X0003200Y0055427D01*
X0003200Y0054429D02*
X0036500Y0054429D01*
X0036500Y0053430D02*
X0003200Y0053430D01*
X0003200Y0052432D02*
X0036500Y0052432D01*
X0036500Y0051433D02*
X0003200Y0051433D01*
X0003200Y0050434D02*
X0036512Y0050434D01*
X0036926Y0049436D02*
X0003200Y0049436D01*
X0003200Y0048437D02*
X0037676Y0048437D01*
X0039329Y0047439D02*
X0003200Y0047439D01*
X0003200Y0046440D02*
X0045700Y0046440D01*
X0045700Y0045442D02*
X0003200Y0045442D01*
X0003200Y0044443D02*
X0045700Y0044443D01*
X0045700Y0043445D02*
X0003200Y0043445D01*
X0003200Y0042446D02*
X0045700Y0042446D01*
X0045700Y0041448D02*
X0003200Y0041448D01*
X0003200Y0040449D02*
X0045700Y0040449D01*
X0045700Y0039451D02*
X0003200Y0039451D01*
X0003200Y0038452D02*
X0045700Y0038452D01*
X0045700Y0037454D02*
X0003200Y0037454D01*
X0003200Y0036455D02*
X0045700Y0036455D01*
X0045700Y0035457D02*
X0003200Y0035457D01*
X0003200Y0034458D02*
X0045700Y0034458D01*
X0045700Y0033460D02*
X0003200Y0033460D01*
X0003200Y0032461D02*
X0045700Y0032461D01*
X0045700Y0031463D02*
X0003200Y0031463D01*
X0003200Y0030464D02*
X0045700Y0030464D01*
X0045700Y0029466D02*
X0003200Y0029466D01*
X0003200Y0028467D02*
X0045700Y0028467D01*
X0045700Y0027469D02*
X0003200Y0027469D01*
X0003200Y0026470D02*
X0045700Y0026470D01*
X0045700Y0025472D02*
X0003200Y0025472D01*
X0003200Y0024473D02*
X0009846Y0024473D01*
X0009909Y0024499D02*
X0006969Y0023281D01*
X0004719Y0021031D01*
X0003501Y0018091D01*
X0003501Y0014909D01*
X0004719Y0011969D01*
X0006969Y0009719D01*
X0009909Y0008501D01*
X0013091Y0008501D01*
X0016031Y0009719D01*
X0018281Y0011969D01*
X0019499Y0014909D01*
X0019499Y0018091D01*
X0018281Y0021031D01*
X0016031Y0023281D01*
X0013091Y0024499D01*
X0009909Y0024499D01*
X0007435Y0023475D02*
X0003200Y0023475D01*
X0003200Y0022476D02*
X0006164Y0022476D01*
X0005165Y0021478D02*
X0003200Y0021478D01*
X0003200Y0020479D02*
X0004490Y0020479D01*
X0004076Y0019481D02*
X0003200Y0019481D01*
X0003200Y0018482D02*
X0003663Y0018482D01*
X0003501Y0017484D02*
X0003200Y0017484D01*
X0003200Y0016485D02*
X0003501Y0016485D01*
X0003501Y0015487D02*
X0003200Y0015487D01*
X0003200Y0014488D02*
X0003675Y0014488D01*
X0004089Y0013490D02*
X0003200Y0013490D01*
X0003200Y0012491D02*
X0004502Y0012491D01*
X0005195Y0011493D02*
X0003200Y0011493D01*
X0003200Y0010494D02*
X0006193Y0010494D01*
X0007507Y0009496D02*
X0003200Y0009496D01*
X0003200Y0008497D02*
X0094300Y0008497D01*
X0059403Y0009496D02*
X0015493Y0009496D01*
X0016807Y0010494D02*
X0058405Y0010494D01*
X0059041Y0009857D02*
X0059041Y0009857D01*
X0057406Y0011493D02*
X0017805Y0011493D01*
X0018498Y0012491D02*
X0056408Y0012491D01*
X0055409Y0013490D02*
X0018911Y0013490D01*
X0019325Y0014488D02*
X0054411Y0014488D01*
X0053412Y0015487D02*
X0019499Y0015487D01*
X0019499Y0016485D02*
X0052414Y0016485D01*
X0051415Y0017484D02*
X0019499Y0017484D01*
X0019337Y0018482D02*
X0050417Y0018482D01*
X0049418Y0019481D02*
X0018924Y0019481D01*
X0018510Y0020479D02*
X0048420Y0020479D01*
X0047421Y0021478D02*
X0017835Y0021478D01*
X0016836Y0022476D02*
X0046423Y0022476D01*
X0045844Y0023475D02*
X0015565Y0023475D01*
X0013154Y0024473D02*
X0045700Y0024473D01*
X0045700Y0047439D02*
X0042071Y0047439D01*
X0043724Y0048437D02*
X0045576Y0048437D01*
X0044826Y0049436D02*
X0044474Y0049436D01*
X0051624Y0048437D02*
X0090976Y0048437D01*
X0090226Y0049436D02*
X0052374Y0049436D01*
X0052788Y0050434D02*
X0089812Y0050434D01*
X0089800Y0051433D02*
X0052800Y0051433D01*
X0052800Y0052432D02*
X0089800Y0052432D01*
X0089800Y0053430D02*
X0052800Y0053430D01*
X0052800Y0054429D02*
X0089800Y0054429D01*
X0089800Y0055427D02*
X0052800Y0055427D01*
X0052800Y0056426D02*
X0089800Y0056426D01*
X0089800Y0057424D02*
X0052800Y0057424D01*
X0052433Y0058423D02*
X0090167Y0058423D01*
X0090835Y0059421D02*
X0051765Y0059421D01*
X0045700Y0060420D02*
X0042413Y0060420D01*
X0043865Y0059421D02*
X0045435Y0059421D01*
X0044767Y0058423D02*
X0044533Y0058423D01*
X0045499Y0073400D02*
X0038606Y0073400D01*
X0026500Y0170256D02*
X0003200Y0170256D01*
X0003200Y0171254D02*
X0026500Y0171254D01*
X0026500Y0172253D02*
X0003200Y0172253D01*
X0003200Y0173251D02*
X0026500Y0173251D01*
X0026500Y0174250D02*
X0003200Y0174250D01*
X0003200Y0175248D02*
X0026500Y0175248D01*
X0026500Y0176247D02*
X0003200Y0176247D01*
X0003200Y0177245D02*
X0026500Y0177245D01*
X0026500Y0178244D02*
X0003200Y0178244D01*
X0003200Y0179242D02*
X0026500Y0179242D01*
X0026500Y0180241D02*
X0003200Y0180241D01*
X0003200Y0181239D02*
X0026500Y0181239D01*
X0026500Y0182238D02*
X0003200Y0182238D01*
X0003200Y0183237D02*
X0026500Y0183237D01*
X0026500Y0184235D02*
X0003200Y0184235D01*
X0003200Y0185234D02*
X0026500Y0185234D01*
X0026500Y0186232D02*
X0003200Y0186232D01*
X0003200Y0187231D02*
X0026500Y0187231D01*
X0026500Y0188229D02*
X0003200Y0188229D01*
X0003200Y0189228D02*
X0008154Y0189228D01*
X0006461Y0190226D02*
X0003200Y0190226D01*
X0003200Y0191225D02*
X0005463Y0191225D01*
X0004613Y0192223D02*
X0003200Y0192223D01*
X0003200Y0193222D02*
X0004200Y0193222D01*
X0003786Y0194220D02*
X0003200Y0194220D01*
X0003200Y0195219D02*
X0003501Y0195219D01*
X0003501Y0196217D02*
X0003200Y0196217D01*
X0003200Y0197216D02*
X0003501Y0197216D01*
X0003552Y0198214D02*
X0003200Y0198214D01*
X0003200Y0199213D02*
X0003965Y0199213D01*
X0004379Y0200211D02*
X0003200Y0200211D01*
X0003200Y0201210D02*
X0004897Y0201210D01*
X0005896Y0202208D02*
X0003200Y0202208D01*
X0003200Y0203207D02*
X0006894Y0203207D01*
X0016106Y0203207D02*
X0026500Y0203207D01*
X0026500Y0202208D02*
X0017104Y0202208D01*
X0018103Y0201210D02*
X0026500Y0201210D01*
X0026500Y0200211D02*
X0018621Y0200211D01*
X0019035Y0199213D02*
X0026500Y0199213D01*
X0026500Y0198214D02*
X0019448Y0198214D01*
X0019499Y0197216D02*
X0026500Y0197216D01*
X0026500Y0196217D02*
X0019499Y0196217D01*
X0019499Y0195219D02*
X0026500Y0195219D01*
X0026500Y0194220D02*
X0019214Y0194220D01*
X0018800Y0193222D02*
X0026500Y0193222D01*
X0026500Y0192223D02*
X0018387Y0192223D01*
X0017537Y0191225D02*
X0026500Y0191225D01*
X0026500Y0190226D02*
X0016539Y0190226D01*
X0014846Y0189228D02*
X0026500Y0189228D01*
M02*
